<svg width="118" height="56" viewBox="0 0 118 56" fill="none" xmlns="http://www.w3.org/2000/svg">
<path d="M4.27149 0.169922H118V55.1699H0L4.27149 0.169922Z" fill="#2D6C73"/>
<path d="M51.7595 18.452C50.4595 17.1056 48.138 16.5949 45.4452 17.5235C40.1987 19.3806 31.5166 27.9699 31.5166 37.8592C31.5166 41.6663 33.0023 45.1485 36.8095 46.5413C43.1237 48.8628 48.9737 43.4306 52.7345 36.5128C56.2166 30.1056 57.5166 20.9592 51.7595 18.452ZM49.3452 35.2128C45.4452 42.3628 39.9666 46.077 36.9023 44.777C33.7452 43.4306 33.838 35.5842 38.2952 28.6663C42.6595 21.8878 48.5559 18.7306 50.8309 19.5663C53.3845 20.4949 53.5702 27.4592 49.3452 35.2128Z" fill="#2D3962"/>
<path d="M65.6931 26.252C64.8574 32.8449 64.6717 39.1128 64.9038 41.9449C65.136 44.9163 65.786 46.0306 67.1788 46.7735C67.6895 47.052 67.9217 46.9592 68.1074 46.4949C70.8467 40.3199 76.7431 29.177 79.4824 24.627C81.5717 21.1449 81.6181 19.2878 80.9217 17.8949C80.6431 17.3842 80.2253 17.2449 79.8538 17.802C76.3717 23.1878 71.0324 32.8913 67.8752 40.0413C68.2002 33.5413 68.6645 27.7378 69.4074 23.327C69.9181 20.1235 69.5467 18.8235 67.8288 17.5699C67.3645 17.2449 67.0395 17.2913 66.6217 17.9878C62.9538 24.1628 56.8717 35.1663 54.5967 41.4342C53.6681 43.9413 54.0395 45.752 54.8288 46.6342C55.1538 47.0056 55.4788 46.9128 55.6181 46.4485C57.4752 40.877 62.211 32.2413 65.6931 26.252Z" fill="#2D3962"/>
<path d="M86.0281 21.7949C82.1281 27.8306 77.4852 36.4663 75.3495 42.177C74.8852 43.4306 74.8852 44.0342 75.3031 44.8235C75.6281 45.427 75.9067 46.1235 76.2781 46.5413C76.8352 47.2378 77.346 47.2378 78.2281 47.0056C80.8281 46.3092 85.8888 45.102 88.4888 45.1485C89.046 45.1485 89.0924 44.8699 88.9531 44.452C88.4424 43.0592 87.2817 42.3163 85.0067 42.4092C83.1031 42.502 80.0388 43.152 77.8102 43.8485C78.7852 41.6663 80.0388 39.1128 81.3852 36.5128C83.9852 35.8628 87.4674 35.2128 89.9745 35.2128C90.5781 35.2128 90.5781 34.9342 90.4388 34.5163C89.9745 33.077 88.9531 32.3342 86.6317 32.427C85.796 32.4735 84.5888 32.5663 83.3352 32.7985C85.6102 28.6663 87.8852 24.627 89.7424 21.8413C92.5745 21.377 95.8245 20.5413 99.1674 20.5878C99.7245 20.6806 99.8174 20.3556 99.6781 19.9842C99.121 18.452 98.0995 17.6628 96.1495 17.7092C93.5495 17.7556 88.4424 19.102 84.5888 18.8699C84.1245 18.8235 83.9852 19.0092 84.0781 19.427C84.3567 20.402 84.8674 21.3306 86.0281 21.7949Z" fill="#2D3962"/>
<path d="M48.7595 15.452C47.4595 14.1056 45.138 13.5949 42.4452 14.5235C37.1987 16.3806 28.5166 24.9699 28.5166 34.8592C28.5166 38.6663 30.0023 42.1485 33.8095 43.5413C40.1237 45.8628 45.9737 40.4306 49.7345 33.5128C53.2166 27.1056 54.5166 17.9592 48.7595 15.452ZM46.3452 32.2128C42.4452 39.3628 36.9666 43.077 33.9023 41.777C30.7452 40.4306 30.838 32.5842 35.2952 25.6663C39.6595 18.8878 45.5559 15.7306 47.8309 16.5663C50.3845 17.4949 50.5702 24.4592 46.3452 32.2128Z" fill="#FFFEFA"/>
<path d="M62.6931 23.252C61.8574 29.8449 61.6717 36.1128 61.9038 38.9449C62.136 41.9163 62.786 43.0306 64.1788 43.7735C64.6895 44.052 64.9217 43.9592 65.1074 43.4949C67.8467 37.3199 73.7431 26.177 76.4824 21.627C78.5717 18.1449 78.6181 16.2878 77.9217 14.8949C77.6431 14.3842 77.2253 14.2449 76.8538 14.802C73.3717 20.1878 68.0324 29.8913 64.8752 37.0413C65.2002 30.5413 65.6645 24.7378 66.4074 20.327C66.9181 17.1235 66.5467 15.8235 64.8288 14.5699C64.3645 14.2449 64.0395 14.2913 63.6217 14.9878C59.9538 21.1628 53.8717 32.1663 51.5967 38.4342C50.6681 40.9413 51.0395 42.752 51.8288 43.6342C52.1538 44.0056 52.4788 43.9128 52.6181 43.4485C54.4752 37.877 59.211 29.2413 62.6931 23.252Z" fill="#FFFEFA"/>
<path d="M83.0281 18.7949C79.1281 24.8306 74.4852 33.4663 72.3495 39.177C71.8852 40.4306 71.8852 41.0342 72.3031 41.8235C72.6281 42.427 72.9067 43.1235 73.2781 43.5413C73.8352 44.2378 74.346 44.2378 75.2281 44.0056C77.8281 43.3092 82.8888 42.102 85.4888 42.1485C86.046 42.1485 86.0924 41.8699 85.9531 41.452C85.4424 40.0592 84.2817 39.3163 82.0067 39.4092C80.1031 39.502 77.0388 40.152 74.8102 40.8485C75.7852 38.6663 77.0388 36.1128 78.3852 33.5128C80.9852 32.8628 84.4674 32.2128 86.9745 32.2128C87.5781 32.2128 87.5781 31.9342 87.4388 31.5163C86.9745 30.077 85.9531 29.3342 83.6317 29.427C82.796 29.4735 81.5888 29.5663 80.3352 29.7985C82.6102 25.6663 84.8852 21.627 86.7424 18.8413C89.5745 18.377 92.8245 17.5413 96.1674 17.5878C96.7245 17.6806 96.8174 17.3556 96.6781 16.9842C96.121 15.452 95.0995 14.6628 93.1495 14.7092C90.5495 14.7556 85.4424 16.102 81.5888 15.8699C81.1245 15.8235 80.9852 16.0092 81.0781 16.427C81.3567 17.402 81.8674 18.3306 83.0281 18.7949Z" fill="#FFFEFA"/>
</svg>
