<svg width="147" height="56" viewBox="0 0 147 56" fill="none" xmlns="http://www.w3.org/2000/svg">
<path d="M5.32127 0.169922H147V55.1699H0L5.32127 0.169922Z" fill="#2D6C73"/>
<path d="M37.9673 21.7949C33.6494 28.3414 28.6351 38.4164 27.5673 42.2235C26.9637 44.4521 27.5208 45.8449 28.1708 46.4485C28.4958 46.7735 28.728 46.7735 28.9137 46.3092C32.5351 37.8128 36.4815 31.3128 39.2673 26.2521C40.5208 23.9771 40.8458 22.4449 40.7994 21.3307C43.4923 20.8664 46.4173 20.4021 48.6923 20.6342C49.2958 20.6807 49.3887 20.3092 49.2494 19.9378C48.553 18.1271 46.7887 17.6164 44.8387 17.5699C42.1923 17.4771 34.4851 19.1949 30.353 18.8699C29.8887 18.8235 29.703 19.0557 29.8423 19.4735C30.353 21.1914 32.3494 22.2128 35.1351 22.1199C35.9708 22.0735 36.8994 21.9807 37.9673 21.7949Z" fill="#2D3962"/>
<path d="M69.7857 24.5807C71.7357 21.0985 71.875 18.9164 71.225 17.5699C70.9464 16.9664 70.5286 16.9199 70.0643 17.5235C68.2071 19.9842 64.1214 27.3664 61.1036 33.3557C58.0393 33.5414 55.1607 34.3307 51.9571 34.7485C54 30.8949 55.9036 27.5985 57.25 24.9985C58.9678 21.7021 59.1071 19.4271 58.4107 18.1271C58.1321 17.6164 57.7143 17.5235 57.2964 18.0807C55.3928 20.7735 51.075 28.8057 48.1036 34.9807C47.5 34.9807 46.85 34.8878 46.1536 34.8414C45.3643 34.7949 45.2714 34.9807 45.55 35.5378C45.7357 35.9092 46.1071 36.5592 47.1286 37.0235C46.2 39.1128 45.4107 40.7842 45.1321 41.7592C44.3428 44.5914 44.6678 45.8914 45.3643 46.8664C45.6428 47.2842 46.0143 47.1449 46.2 46.6807C47.5464 43.5699 48.9857 40.5057 50.425 37.6271C52.6071 37.6271 56.1821 37.0235 59.5714 36.6057C58.6428 38.5092 57.9464 40.1342 57.6214 41.0628C56.6928 43.8949 57.1107 45.2414 57.7607 46.1699C58.0393 46.5878 58.3643 46.5414 58.55 46.0771C60.0821 42.5949 61.7071 39.2521 63.2857 36.2342C64.2607 36.1878 65.1428 36.2342 65.8857 36.3735C66.35 36.4664 66.4428 36.2342 66.3964 35.8628C66.1643 35.0735 65.6536 34.2842 64.5857 33.8199C66.5821 30.1985 68.3928 27.0878 69.7857 24.5807Z" fill="#2D3962"/>
<path d="M72.538 37.1164C74.7202 39.5307 77.1345 42.5485 80.1988 46.7271C80.4773 47.1449 80.7095 47.0057 80.9416 46.6342C81.5452 45.7057 81.3595 44.1271 80.7095 42.8735C79.7345 40.9235 78.063 38.6949 76.2988 36.5128C81.4523 35.3057 86.4666 32.3807 88.9738 29.0378C90.738 26.6699 91.388 23.8378 90.413 21.0521C89.2988 17.8949 87.2559 17.1985 84.888 17.2914C81.7773 17.4307 78.2952 19.3342 74.3952 19.7985C73.7916 19.8914 73.6523 20.1235 73.8845 20.5878C74.4416 21.6092 75.2773 22.3057 76.8559 22.4449C72.7702 28.8521 68.4059 37.6735 67.2452 41.8985C66.5488 44.4057 67.013 45.7985 67.663 46.4949C67.988 46.8199 68.2202 46.7735 68.4059 46.3092C69.938 42.5021 71.2845 39.5771 72.538 37.1164ZM79.688 22.1664C82.7523 21.3307 87.3952 18.9164 88.4166 21.5164C89.763 24.8128 84.5166 31.5914 74.2559 33.8664C75.5095 31.5914 76.6702 29.6414 77.9238 27.4128C79.1773 25.0914 79.688 23.4664 79.688 22.1664Z" fill="#2D3962"/>
<path d="M97.9348 21.7949C94.0348 27.8307 89.392 36.4664 87.2563 42.1771C86.792 43.4307 86.792 44.0342 87.2098 44.8235C87.5348 45.4271 87.8134 46.1235 88.1848 46.5414C88.742 47.2378 89.2527 47.2378 90.1348 47.0057C92.7348 46.3092 97.7955 45.1021 100.396 45.1485C100.953 45.1485 100.999 44.8699 100.86 44.4521C100.349 43.0592 99.1884 42.3164 96.9134 42.4092C95.0098 42.5021 91.9455 43.1521 89.717 43.8485C90.692 41.6664 91.9455 39.1128 93.292 36.5128C95.892 35.8628 99.3741 35.2128 101.881 35.2128C102.485 35.2128 102.485 34.9342 102.346 34.5164C101.881 33.0771 100.86 32.3342 98.5384 32.4271C97.7027 32.4735 96.4955 32.5664 95.242 32.7985C97.517 28.6664 99.792 24.6271 101.649 21.8414C104.481 21.3771 107.731 20.5414 111.074 20.5878C111.631 20.6807 111.724 20.3557 111.585 19.9842C111.028 18.4521 110.006 17.6628 108.056 17.7092C105.456 17.7557 100.349 19.1021 96.4955 18.8699C96.0313 18.8235 95.892 19.0092 95.9848 19.4271C96.2634 20.4021 96.7741 21.3307 97.9348 21.7949Z" fill="#2D3962"/>
<path d="M115.028 21.7949C111.128 27.8307 106.485 36.4664 104.35 42.1771C103.885 43.4307 103.885 44.0342 104.303 44.8235C104.628 45.4271 104.907 46.1235 105.278 46.5414C105.835 47.2378 106.346 47.2378 107.228 47.0057C109.828 46.3092 114.889 45.1021 117.489 45.1485C118.046 45.1485 118.092 44.8699 117.953 44.4521C117.442 43.0592 116.282 42.3164 114.007 42.4092C112.103 42.5021 109.039 43.1521 106.81 43.8485C107.785 41.6664 109.039 39.1128 110.385 36.5128C112.985 35.8628 116.467 35.2128 118.975 35.2128C119.578 35.2128 119.578 34.9342 119.439 34.5164C118.975 33.0771 117.953 32.3342 115.632 32.4271C114.796 32.4735 113.589 32.5664 112.335 32.7985C114.61 28.6664 116.885 24.6271 118.742 21.8414C121.575 21.3771 124.825 20.5414 128.167 20.5878C128.725 20.6807 128.817 20.3557 128.678 19.9842C128.121 18.4521 127.1 17.6628 125.15 17.7092C122.55 17.7557 117.442 19.1021 113.589 18.8699C113.125 18.8235 112.985 19.0092 113.078 19.4271C113.357 20.4021 113.867 21.3307 115.028 21.7949Z" fill="#2D3962"/>
<path d="M34.9673 17.7949C30.6494 24.3414 25.6351 34.4164 24.5673 38.2235C23.9637 40.4521 24.5208 41.8449 25.1708 42.4485C25.4958 42.7735 25.728 42.7735 25.9137 42.3092C29.5351 33.8128 33.4815 27.3128 36.2673 22.2521C37.5208 19.9771 37.8458 18.4449 37.7994 17.3307C40.4923 16.8664 43.4173 16.4021 45.6923 16.6342C46.2958 16.6807 46.3887 16.3092 46.2494 15.9378C45.553 14.1271 43.7887 13.6164 41.8387 13.5699C39.1923 13.4771 31.4851 15.1949 27.353 14.8699C26.8887 14.8235 26.703 15.0557 26.8423 15.4735C27.353 17.1914 29.3494 18.2128 32.1351 18.1199C32.9708 18.0735 33.8994 17.9807 34.9673 17.7949Z" fill="#FFFEFA"/>
<path d="M66.7857 20.5807C68.7357 17.0985 68.875 14.9164 68.225 13.5699C67.9464 12.9664 67.5286 12.9199 67.0643 13.5235C65.2071 15.9842 61.1214 23.3664 58.1036 29.3557C55.0393 29.5414 52.1607 30.3307 48.9571 30.7485C51 26.8949 52.9036 23.5985 54.25 20.9985C55.9678 17.7021 56.1071 15.4271 55.4107 14.1271C55.1321 13.6164 54.7143 13.5235 54.2964 14.0807C52.3928 16.7735 48.075 24.8057 45.1036 30.9807C44.5 30.9807 43.85 30.8878 43.1536 30.8414C42.3643 30.7949 42.2714 30.9807 42.55 31.5378C42.7357 31.9092 43.1071 32.5592 44.1286 33.0235C43.2 35.1128 42.4107 36.7842 42.1321 37.7592C41.3428 40.5914 41.6678 41.8914 42.3643 42.8664C42.6428 43.2842 43.0143 43.1449 43.2 42.6807C44.5464 39.5699 45.9857 36.5057 47.425 33.6271C49.6071 33.6271 53.1821 33.0235 56.5714 32.6057C55.6428 34.5092 54.9464 36.1342 54.6214 37.0628C53.6928 39.8949 54.1107 41.2414 54.7607 42.1699C55.0393 42.5878 55.3643 42.5414 55.55 42.0771C57.0821 38.5949 58.7071 35.2521 60.2857 32.2342C61.2607 32.1878 62.1428 32.2342 62.8857 32.3735C63.35 32.4664 63.4428 32.2342 63.3964 31.8628C63.1643 31.0735 62.6536 30.2842 61.5857 29.8199C63.5821 26.1985 65.3928 23.0878 66.7857 20.5807Z" fill="#FFFEFA"/>
<path d="M69.538 33.1164C71.7202 35.5307 74.1345 38.5485 77.1988 42.7271C77.4773 43.1449 77.7095 43.0057 77.9416 42.6342C78.5452 41.7057 78.3595 40.1271 77.7095 38.8735C76.7345 36.9235 75.063 34.6949 73.2988 32.5128C78.4523 31.3057 83.4666 28.3807 85.9738 25.0378C87.738 22.6699 88.388 19.8378 87.413 17.0521C86.2988 13.8949 84.2559 13.1985 81.888 13.2914C78.7773 13.4307 75.2952 15.3342 71.3952 15.7985C70.7916 15.8914 70.6523 16.1235 70.8845 16.5878C71.4416 17.6092 72.2773 18.3057 73.8559 18.4449C69.7702 24.8521 65.4059 33.6735 64.2452 37.8985C63.5488 40.4057 64.013 41.7985 64.663 42.4949C64.988 42.8199 65.2202 42.7735 65.4059 42.3092C66.938 38.5021 68.2845 35.5771 69.538 33.1164ZM76.688 18.1664C79.7523 17.3307 84.3952 14.9164 85.4166 17.5164C86.763 20.8128 81.5166 27.5914 71.2559 29.8664C72.5095 27.5914 73.6702 25.6414 74.9238 23.4128C76.1773 21.0914 76.688 19.4664 76.688 18.1664Z" fill="#FFFEFA"/>
<path d="M94.9348 17.7949C91.0348 23.8307 86.392 32.4664 84.2563 38.1771C83.792 39.4307 83.792 40.0342 84.2098 40.8235C84.5348 41.4271 84.8134 42.1235 85.1848 42.5414C85.742 43.2378 86.2527 43.2378 87.1348 43.0057C89.7348 42.3092 94.7955 41.1021 97.3955 41.1485C97.9527 41.1485 97.9991 40.8699 97.8598 40.4521C97.3491 39.0592 96.1884 38.3164 93.9134 38.4092C92.0098 38.5021 88.9455 39.1521 86.717 39.8485C87.692 37.6664 88.9455 35.1128 90.292 32.5128C92.892 31.8628 96.3741 31.2128 98.8813 31.2128C99.4848 31.2128 99.4848 30.9342 99.3455 30.5164C98.8813 29.0771 97.8598 28.3342 95.5384 28.4271C94.7027 28.4735 93.4955 28.5664 92.242 28.7985C94.517 24.6664 96.792 20.6271 98.6491 17.8414C101.481 17.3771 104.731 16.5414 108.074 16.5878C108.631 16.6807 108.724 16.3557 108.585 15.9842C108.028 14.4521 107.006 13.6628 105.056 13.7092C102.456 13.7557 97.3491 15.1021 93.4955 14.8699C93.0313 14.8235 92.892 15.0092 92.9848 15.4271C93.2634 16.4021 93.7741 17.3307 94.9348 17.7949Z" fill="#FFFEFA"/>
<path d="M112.028 17.7949C108.128 23.8307 103.485 32.4664 101.35 38.1771C100.885 39.4307 100.885 40.0342 101.303 40.8235C101.628 41.4271 101.907 42.1235 102.278 42.5414C102.835 43.2378 103.346 43.2378 104.228 43.0057C106.828 42.3092 111.889 41.1021 114.489 41.1485C115.046 41.1485 115.092 40.8699 114.953 40.4521C114.442 39.0592 113.282 38.3164 111.007 38.4092C109.103 38.5021 106.039 39.1521 103.81 39.8485C104.785 37.6664 106.039 35.1128 107.385 32.5128C109.985 31.8628 113.467 31.2128 115.975 31.2128C116.578 31.2128 116.578 30.9342 116.439 30.5164C115.975 29.0771 114.953 28.3342 112.632 28.4271C111.796 28.4735 110.589 28.5664 109.335 28.7985C111.61 24.6664 113.885 20.6271 115.742 17.8414C118.575 17.3771 121.825 16.5414 125.167 16.5878C125.725 16.6807 125.817 16.3557 125.678 15.9842C125.121 14.4521 124.1 13.6628 122.15 13.7092C119.55 13.7557 114.442 15.1021 110.589 14.8699C110.125 14.8235 109.985 15.0092 110.078 15.4271C110.357 16.4021 110.867 17.3307 112.028 17.7949Z" fill="#FFFEFA"/>
</svg>
