<svg width="150" height="50" viewBox="0 0 150 50" fill="none" xmlns="http://www.w3.org/2000/svg">
<path d="M11.1705 41.1288V33.9338L7.59918 33.8925V41.256C7.59918 42.0992 7.26952 42.7699 6.33547 42.7591C5.40143 42.7482 5.07176 42.0699 5.07176 41.2267V15.37C5.07176 14.5268 5.40143 13.8561 6.33547 13.8669C7.26952 13.8777 7.59918 14.5561 7.59918 15.3992V22.7066L11.1705 22.748V15.6092C11.1705 11.8431 9.46727 9.18152 6.28053 9.14461C3.31356 9.11024 0.731201 11.7222 0.731201 15.4883V41.0078C0.731201 44.8301 3.31356 47.4457 6.28053 47.4801C9.46727 47.517 11.1705 44.9511 11.1705 41.1288Z" fill="#fffefa"/>
<path d="M23.6316 41.2731V15.7536C23.6316 11.9875 21.2141 9.3176 18.1922 9.28259C15.2252 9.24822 12.7527 11.8615 12.7527 15.6276V41.1471C12.7527 44.9694 15.2252 47.5837 18.1922 47.6181C21.2141 47.6531 23.6316 45.0954 23.6316 41.2731ZM19.2911 41.5601C19.2911 42.4032 18.9064 42.9047 18.1922 42.8964C17.4779 42.8881 17.0933 42.3778 17.0933 41.5346V15.3406C17.0933 14.4974 17.4779 13.996 18.1922 14.0043C18.9064 14.0125 19.2911 14.5229 19.2911 15.366V41.5601Z" fill="#fffefa"/>
<path d="M41.4527 47.4379V10.0017L36.0133 9.93871L34.5298 24.6487L33.8705 34.1406L33.1562 24.6327L31.5628 9.88716L25.9586 9.82224V47.2584L29.5849 47.3004V17.1154L29.9695 25.3266L31.8376 47.3265L34.8045 47.3608L36.9473 25.4074L37.3869 17.2058V47.3908L41.4527 47.4379Z" fill="#fffefa"/>
<path d="M54.3714 26.621V16.0535C54.3714 11.2756 51.6791 10.1202 49.5363 10.0954L43.987 10.0311V47.4672L48.2726 47.5169V32.4525L49.5363 32.4671C51.6791 32.4919 54.3714 31.3989 54.3714 26.621ZM50.1957 26.8537C50.1957 27.9217 49.9209 28.312 49.4264 28.3063L48.2726 28.2929V14.5776L49.4264 14.5909C49.9209 14.5967 50.1957 15.0495 50.1957 16.1175V26.8537Z" fill="#fffefa"/>
<path d="M67.3716 47.7381V47.5695C67.0969 45.7675 66.8222 43.8532 66.8222 41.4924V33.5105C66.8222 31.7118 65.8881 30.5767 64.7343 29.6078C65.8881 28.6094 66.7123 27.4947 66.7123 25.7522V16.1964C66.7123 11.4185 64.02 10.2631 61.8772 10.2383L56.3279 10.174V47.6102L60.6135 47.6598V31.5836L61.6575 31.5957C62.2618 31.6027 62.5915 32.2249 62.5915 33.068V41.8931C62.5915 43.8604 62.9761 47.6872 63.6354 47.6948L67.3716 47.7381ZM62.4816 25.8156C62.4816 26.9398 62.2069 27.3301 61.7124 27.3244L60.6135 27.3116V14.7205L61.7124 14.7332C62.2069 14.739 62.4816 15.1918 62.4816 16.2598V25.8156Z" fill="#fffefa"/>
<path d="M77.8904 47.8599V43.3631L73.2751 43.3096V30.7747L76.4069 30.811V26.3142L73.2751 26.2779V14.8672L77.8904 14.9206V10.4238L69.0444 10.3213V47.7575L77.8904 47.8599Z" fill="#fffefa"/>
<path d="M89.8329 41.253C89.8329 37.3183 88.1297 32.4645 86.1517 27.6637C84.1188 22.6936 83.2946 21.1664 83.2946 16.2199C83.2946 15.0957 83.899 14.5406 84.7231 14.5501C85.4923 14.559 85.9868 15.1269 85.9868 16.2511V21.9283L89.6681 21.971V16.9682C89.6681 12.3028 87.6901 10.0877 84.7231 10.0533C80.7672 10.0075 79.009 13.0787 79.009 17.4069C79.009 21.2854 81.3716 27.2148 82.9649 31.0556C84.833 35.4617 85.6572 38.4504 85.6572 42.2165C85.6572 43.3969 85.1627 44.1781 84.1737 44.1666C83.0748 44.1539 82.6353 43.3619 82.6353 42.1814V36.9539L78.954 36.9112V41.4643C78.954 45.9049 80.987 48.3455 84.3935 48.385C86.5912 48.4104 89.8329 47.0989 89.8329 41.253Z" fill="#fffefa"/>
<path d="M101.906 41.3929C101.906 37.4582 100.202 32.6043 98.2243 27.8035C96.1914 22.8335 95.3672 21.3062 95.3672 16.3597C95.3672 15.2355 95.9716 14.6804 96.7957 14.69C97.565 14.6989 98.0595 15.2667 98.0595 16.3909V22.0682L101.741 22.1108V17.1081C101.741 12.4426 99.7627 10.2275 96.7957 10.1931C92.8398 10.1473 91.0816 13.2185 91.0816 17.5467C91.0816 21.4252 93.4442 27.3547 95.0375 31.1955C96.9056 35.6015 97.7298 38.5902 97.7298 42.3563C97.7298 43.5367 97.2353 44.3179 96.2463 44.3065C95.1474 44.2937 94.7079 43.5017 94.7079 42.3213V37.0937L91.0266 37.0511V41.6041C91.0266 46.0447 93.0596 48.4853 96.4661 48.5248C98.6638 48.5503 101.906 47.2388 101.906 41.3929Z" fill="#fffefa"/>
<path d="M112.659 48.2627V43.7659L108.044 43.7124V31.1775L111.176 31.2138V26.7169L108.044 26.6807V15.2699L112.659 15.3234V10.8266L103.814 10.7241V48.1602L112.659 48.2627Z" fill="#fffefa"/>
<path d="M125.151 42.5053V16.8734C125.151 12.0955 122.459 10.9401 120.261 10.9146L114.437 10.8472V48.2833L120.261 48.3508C122.459 48.3762 125.151 47.2832 125.151 42.5053ZM120.866 42.3995C120.866 43.4675 120.536 43.9133 119.822 43.9051L118.723 43.8923V15.3937L119.822 15.4064C120.536 15.4147 120.866 15.8682 120.866 16.9362V42.3995Z" fill="#fffefa"/>
<path d="M129.484 11.575C128.996 13.8412 128.725 15.9066 128.725 16.8856C128.725 18.8988 129.249 20.6595 131.036 20.6802C133.311 20.7065 134.575 17.8768 134.575 15.4388C134.575 13.8134 134.015 12.5141 133.293 11.6191L136.073 11.6513L136.145 10.4147L131.289 10.3584C132.137 6.89594 133.383 3.60426 134.575 3.61806C135.08 3.62392 135.694 4.29594 135.694 5.12709C135.694 5.42261 135.622 5.73576 135.459 6.04786L135.983 6.36792C136.561 5.74663 136.813 5.0477 136.813 4.38279C136.813 3.05296 135.82 2.08102 134.755 2.06868C132.498 2.04254 130.783 6.28922 129.772 10.3409L127.931 10.3195V11.557L129.484 11.575ZM131.163 11.5945C132.354 12.4394 133.148 13.9262 133.148 15.4407C133.148 17.1954 132.083 19.1224 131.199 19.1121C130.386 19.1027 130.332 17.4029 130.332 16.8488C130.332 15.5743 130.585 13.6195 131.018 11.5928L131.163 11.5945Z" fill="#fffefa"/>
<path d="M138.271 16.8114L139.914 16.8305C139.878 16.4607 139.95 16.0182 140.023 15.6127L141.196 8.75551C141.72 7.98584 142.099 7.60236 142.658 7.60885C143.399 7.61742 143.688 8.30415 143.561 9.11537L142.225 16.8572L143.688 16.8742L144.951 9.51934C144.987 9.33506 145.005 9.15057 145.024 8.98455C145.33 8.39706 146.035 7.66643 146.703 7.67416C147.316 7.68127 147.587 8.34933 147.443 9.16033L146.63 13.3066C146.468 14.1913 146.305 15.1314 146.305 15.7594C146.305 16.8306 146.793 17.1872 147.28 17.1928C147.876 17.1997 148.725 16.7109 149.176 16.3467L148.905 15.6602C148.779 15.7326 148.472 15.8583 148.237 15.8556C148.039 15.8533 147.858 15.7589 147.858 15.4818C147.948 14.1531 148.219 12.8079 148.49 11.4073C148.598 10.8545 148.725 10.2095 148.833 9.5643C149.158 7.70261 148.526 6.10688 146.883 6.08785C146.161 6.07948 145.421 6.38489 144.843 7.20935C144.59 6.50456 144.049 6.05501 143.182 6.04497C142.496 6.03703 142.009 6.30843 141.485 7.0781L141.611 6.3223L140.077 6.30452L138.271 16.8114Z" fill="#fffefa"/>
</svg>
