<svg width="102" height="161" viewBox="0 0 102 161" fill="none" xmlns="http://www.w3.org/2000/svg">
<path d="M53.967 74.7382C54.6069 73.827 54.6069 73.0173 53.4871 73.1946C52.2074 73.3973 51.2476 73.8732 50.2878 74.0252C50.4478 72.7042 50.4478 71.5705 50.6078 70.2495C51.5675 58.4365 46.7686 58.0629 43.0894 53.6249C39.8901 49.7587 37.1707 48.8938 32.2119 49.8412C22.614 52.1711 12.8562 62.9482 6.77752 74.9241C-0.42088 89.0209 -2.82035 103.491 4.21809 111.77C10.6167 119.179 18.6149 118.56 24.3736 115.704C36.211 109.78 46.2887 91.8262 49.648 77.5277C51.2476 77.1124 52.8473 76.2112 53.967 74.7382ZM40.2101 72.5442C37.6506 70.5202 35.891 66.1021 36.6909 61.6025C37.4907 56.7791 40.69 55.3006 41.4898 60.3566C41.9697 63.1958 41.4898 67.3208 40.2101 72.5442ZM39.0903 77.0944C37.8106 81.1841 35.891 86.023 33.4916 90.9378C25.6533 107.079 15.8955 114.293 11.4165 111.278C7.25741 108.374 9.65687 93.0933 16.3754 79.7204C19.7346 73.0339 24.3736 66.9545 28.6926 62.5454C28.8526 68.5125 32.6917 73.573 36.051 75.6323C37.0108 76.2901 37.9706 76.7859 39.0903 77.0944Z" fill="#e8234d"/>
<path d="M69.3286 77.3259C77.9667 58.9521 89.0042 38.9026 95.5627 26.8507C102.441 13.9383 102.921 6.89808 101.002 1.69553C100.362 -0.146635 98.2821 0.020775 97.0024 2.16696C79.2464 31.8643 42.4546 99.7216 37.9756 136.548C36.216 150.593 41.0149 156.149 45.014 158.917C49.8129 162.368 53.812 161.087 59.2508 153.423C66.9291 142.489 73.9675 123.397 76.527 106.634C86.1248 101.713 94.1231 90.8903 95.7227 86.7499C97.1624 82.7969 98.1222 79.0818 97.3223 76.7791C96.5225 74.6383 94.9229 75.0537 93.9631 77.1492C89.804 86.2297 83.4054 95.3411 77.3268 100.353C77.4868 98.384 77.6467 96.5771 77.6467 94.7956C77.8067 84.081 75.4072 78.3066 69.3286 77.3259ZM68.5288 104.338C65.4894 104.171 64.0497 100.998 64.2097 95.7901C64.3697 92.0397 65.8094 83.2279 67.409 82.3267C68.5288 81.6635 70.1284 86.4308 69.9684 92.4486C69.8085 96.199 69.3286 100.324 68.5288 104.338ZM57.8111 104.254C59.7307 107.837 62.93 109.435 67.569 109.186C62.2901 132.211 50.2928 156.461 46.7736 152.322C43.0944 148.208 48.8531 127.213 57.8111 104.254Z" fill="#e8234d"/>
</svg>
