<svg width="1440" height="413" viewBox="0 0 1440 413" fill="none" xmlns="http://www.w3.org/2000/svg">
<g clip-path="url(#clip0)">
<path d="M1409.33 161.404C1405.7 161.233 1400.68 160.89 1394.69 160.547C1391.76 160.375 1388.55 160.204 1385.35 160.032C1382.14 159.86 1378.65 159.689 1375.31 159.689C1368.62 159.346 1361.78 159.346 1355.37 159.346C1370.57 140.303 1388 115.428 1388 115.428C1388 115.428 1368.06 136.701 1352.58 155.228C1352.58 117.143 1349.93 67.564 1349.93 67.564C1349.93 67.564 1347.28 117.143 1347.28 155.4C1333.48 138.759 1315.36 119.717 1315.36 119.717C1315.36 119.717 1331.11 142.705 1344.77 159.689C1334.6 160.032 1324.14 160.718 1315.36 161.404C1303.5 162.262 1295 163.292 1295 163.292C1295 163.292 1303.5 164.321 1315.36 165.35C1323.58 166.036 1333.48 166.894 1343.24 167.237C1329.44 185.079 1315.36 204.979 1315.36 204.979C1315.36 204.979 1332.5 186.623 1347.42 169.124C1347.84 205.322 1350.07 245.981 1350.07 245.981C1350.07 245.981 1352.16 205.151 1352.72 169.124C1365.69 184.221 1380.05 199.318 1380.05 199.318C1380.05 199.318 1368.62 182.677 1356.76 167.409C1362.76 167.237 1369.17 166.894 1375.45 166.551C1377.12 166.38 1378.79 166.38 1380.61 166.208C1382.28 166.036 1383.95 165.865 1385.63 165.693C1388.83 165.35 1392.04 165.007 1394.97 164.664C1400.82 163.978 1405.98 163.292 1409.47 162.777C1413.09 162.262 1415.18 161.919 1415.18 161.919C1415.18 161.919 1412.95 161.748 1409.33 161.404Z" fill="#72BAD1"/>
<path d="M613.604 97.4541C612.385 97.3964 610.697 97.2811 608.681 97.1657C607.697 97.108 606.618 97.0503 605.54 96.9926C604.461 96.9349 603.289 96.8772 602.164 96.8772C599.914 96.7618 597.616 96.7618 595.459 96.7618C600.57 90.3582 606.431 81.9931 606.431 81.9931C606.431 81.9931 599.726 89.1467 594.522 95.3773C594.522 82.57 593.631 65.8975 593.631 65.8975C593.631 65.8975 592.74 82.57 592.74 95.435C588.099 89.839 582.003 83.4354 582.003 83.4354C582.003 83.4354 587.301 91.1659 591.896 96.8772C588.474 96.9926 584.957 97.2234 582.003 97.4541C578.018 97.7426 575.158 98.0887 575.158 98.0887C575.158 98.0887 578.018 98.4349 582.003 98.781C584.77 99.0118 588.099 99.3002 591.38 99.4156C586.739 105.415 582.003 112.107 582.003 112.107C582.003 112.107 587.77 105.935 592.787 100.05C592.928 112.223 593.678 125.896 593.678 125.896C593.678 125.896 594.381 112.165 594.569 100.05C598.929 105.127 603.758 110.204 603.758 110.204C603.758 110.204 599.914 104.608 595.928 99.4733C597.944 99.4156 600.101 99.3002 602.211 99.1848C602.774 99.1271 603.336 99.1271 603.946 99.0695C604.508 99.0118 605.071 98.9541 605.634 98.8964C606.712 98.781 607.79 98.6656 608.775 98.5502C610.744 98.3195 612.479 98.0887 613.651 97.9156C614.87 97.7426 615.573 97.6272 615.573 97.6272C615.573 97.6272 614.823 97.5695 613.604 97.4541Z" fill="#6595B2"/>
<g clip-path="url(#clip1)">
<path d="M1148.72 262.496L1142.12 254.996C1171.02 179.796 1211.52 117.996 1211.52 117.996L1091.32 117.296L1017.82 262.496L1028.02 268.596L1056.72 269.196L1148.72 262.496Z" fill="#B3C8D3"/>
<path d="M1285.62 264.397L1293.92 254.397L1213.02 117.097L1210.92 118.297C1210.92 118.297 1219.32 134.897 1251.52 189.497C1261.72 206.897 1270.12 220.797 1276.62 231.597C1279.92 236.997 1282.72 241.597 1285.02 245.397C1286.22 247.297 1287.32 248.997 1288.22 250.597C1288.72 251.397 1289.12 252.097 1289.62 252.797C1289.82 253.097 1290.02 253.397 1290.22 253.697C1290.32 253.797 1290.42 253.997 1290.52 254.097C1288.12 257.197 1286.42 259.397 1285.32 260.697C1284.22 262.197 1283.72 262.797 1283.72 262.797L1285.62 264.397Z" fill="#B3C8D3"/>
<path d="M1135.62 353.796L1131.62 262.496H1148.72L1210.82 141.796L1270.02 240.896L1273.42 353.796H1135.62Z" fill="#FF606F"/>
<path d="M1203.32 157.396C1203.32 157.396 1205.02 185.896 1208.52 261.696C1212.02 337.496 1212.82 353.896 1212.82 353.896H1213.72C1213.72 353.896 1214.02 341.696 1210.42 263.096C1206.82 184.496 1204.82 157.396 1204.82 157.396H1203.32Z" fill="#C24751"/>
<path d="M1171.32 222.897C1171.32 222.897 1171.32 225.896 1174.02 270.797C1178.92 342.797 1179.32 353.896 1179.32 353.896L1180.22 353.797C1180.22 353.797 1180.92 346.697 1175.92 271.997C1172.97 227.897 1172.72 222.797 1172.72 222.797L1171.32 222.897Z" fill="#C24751"/>
<path d="M1157.12 249.997C1157.12 249.997 1157.12 252.897 1158.42 278.297C1161.92 335.397 1162.82 353.897 1162.82 353.897L1163.72 353.797C1163.72 353.797 1163.92 338.397 1160.22 279.197C1156.52 219.997 1158.42 249.897 1158.42 249.897L1157.12 249.997Z" fill="#C24751"/>
<path d="M1185.32 191.897C1185.32 191.897 1184.42 180.696 1187.02 254.296C1189.62 327.896 1190.52 354.296 1190.52 354.296H1191.42C1191.42 354.296 1191.52 331.896 1188.82 255.596C1186.12 179.296 1186.72 191.897 1186.72 191.897H1185.32Z" fill="#C24751"/>
<path d="M1214.82 151.396C1214.82 151.396 1215.72 173.296 1218.02 254.596C1220.22 335.996 1220.82 353.896 1220.82 353.896H1221.72C1221.72 353.896 1222.22 340.496 1219.92 256.096C1217.62 171.696 1216.32 151.396 1216.32 151.396H1214.82Z" fill="#C24751"/>
<path d="M1248.92 208.496C1248.92 208.496 1247.82 199.196 1252.72 271.296C1257.62 343.296 1258.32 353.896 1258.32 353.896L1259.22 353.797C1259.22 353.797 1259.62 347.196 1254.62 272.496C1249.62 197.796 1250.32 208.396 1250.32 208.396L1248.92 208.496Z" fill="#C24751"/>
<path d="M1233.42 182.996C1233.42 182.996 1234.22 194.496 1237.12 263.096C1240.02 331.696 1240.82 353.896 1240.82 353.896H1241.72C1241.72 353.896 1241.92 335.396 1238.92 264.296C1235.92 193.196 1234.82 182.896 1234.82 182.896L1233.42 182.996Z" fill="#C24751"/>
<path d="M1176.12 218.997L1179.12 269.197L1213.62 269.097L1210.72 218.997H1176.12Z" fill="#FFFCF2"/>
<path d="M1270.02 240.896L1210.82 141.796L1148.72 262.496H1137.92L1142.42 273.496H1150.32L1211.52 147.496L1270.22 247.796L1270.02 240.896Z" fill="#2D3962"/>
<path d="M1249.92 218.997H1217.32L1220.02 269.097L1252.72 268.997L1249.92 218.997Z" fill="#FFFCF2"/>
<path d="M1185.02 222.196L1187.52 266.396H1203.82L1201.12 222.196H1185.02Z" fill="#2D3962"/>
<path d="M1242.12 222.196H1227.22L1228.82 266.396H1244.02L1242.12 222.196Z" fill="#2D3962"/>
<path d="M1141.92 262.497H1037.02L1042.52 353.797H1146.22L1141.92 262.497Z" fill="#2D3962"/>
<path d="M1044.02 262.497H1017.82L1024.32 269.697L1044.52 269.997L1044.02 262.497Z" fill="#2D3962"/>
<path d="M1182.72 245.696H1203.72V244.496C1203.72 244.496 1201.42 243.896 1193.62 243.896C1185.82 243.896 1182.72 244.496 1182.72 244.496V245.696Z" fill="#FFFCF2"/>
<path d="M1167.62 280.597L1169.92 331.797L1205.62 331.697L1204.52 280.597H1167.62Z" fill="#FFFCF2"/>
<path d="M1177.22 284.796L1179.82 328.996H1197.22L1194.32 284.796H1177.22Z" fill="#2D3962"/>
<path d="M1175.62 307.297H1198.02V306.097C1198.02 306.097 1195.62 305.497 1187.22 305.497C1178.92 305.497 1175.62 306.097 1175.62 306.097V307.297Z" fill="#FFFCF2"/>
<path d="M1223.72 245.696H1247.32V244.496C1247.32 244.496 1244.72 243.896 1235.92 243.896C1227.12 243.896 1223.72 244.496 1223.72 244.496V245.696Z" fill="#FFFCF2"/>
<path d="M1135.22 160.697L1045.32 207.597L1061.22 176.297L1123.12 143.097L1135.22 160.697Z" fill="#4F8BAD"/>
<path d="M1119.72 160.696L1120.72 100.996L1139.52 99.6963L1143.62 143.296L1135.22 160.696H1119.72Z" fill="#2D3962"/>
<path d="M1126.32 103.396L1126.92 86.8965H1131.22L1132.12 104.896L1126.32 103.396Z" fill="#2D3962"/>
<path d="M1060.82 279.796L1063.82 331.196L1085.72 331.496L1083.12 279.796H1060.82Z" fill="#4F8BAD"/>
<path d="M1113.72 279.796H1090.92L1093.62 331.596L1115.22 331.896L1113.72 279.796Z" fill="#4F8BAD"/>
<path d="M1066.82 286.696L1068.72 325.796H1079.32L1077.32 286.696H1066.82Z" fill="#2D3962"/>
<path d="M1108.02 286.696H1097.32L1099.02 325.796H1109.82L1108.02 286.696Z" fill="#2D3962"/>
<path d="M1067.02 308.196H1079.92V306.996C1079.92 306.996 1078.52 306.396 1073.72 306.396C1068.92 306.396 1067.02 306.996 1067.02 306.996V308.196Z" fill="#4F8BAD"/>
<path d="M1096.72 308.196H1111.82V306.996C1111.82 306.996 1110.22 306.396 1104.52 306.396C1098.92 306.396 1096.72 306.996 1096.72 306.996V308.196Z" fill="#4F8BAD"/>
<path d="M1105.52 326.896L1103.82 284.796H1102.62C1102.62 284.796 1102.22 289.396 1102.82 305.096C1103.42 320.796 1104.32 326.896 1104.32 326.896H1105.52Z" fill="#4F8BAD"/>
<path d="M1074.82 326.896L1073.12 284.796H1071.92C1071.92 284.796 1071.52 289.396 1072.12 305.096C1072.72 320.796 1073.62 326.896 1073.62 326.896H1074.82Z" fill="#4F8BAD"/>
<path d="M1222.62 353.797L1219.52 293.997L1237.52 277.997L1254.82 292.697L1258.42 353.797H1222.62Z" fill="#FFFCF2"/>
<path d="M1226.42 353.796L1225.32 297.296H1251.62L1254.72 353.796H1226.42Z" fill="#2D3962"/>
<path d="M1205.62 190.596C1205.62 194.096 1208.42 196.896 1211.82 196.896C1215.22 196.896 1218.02 194.096 1218.02 190.596C1218.02 187.096 1215.22 184.296 1211.82 184.296C1208.32 184.296 1205.62 187.096 1205.62 190.596Z" fill="#2D3962"/>
<path d="M1185.72 283.396L1188.22 328.996L1189.42 328.896C1189.42 328.896 1189.72 323.896 1188.82 306.896C1187.92 289.896 1186.92 283.396 1186.92 283.396H1185.72Z" fill="#FFFCF2"/>
<path d="M1192.02 221.296L1194.52 266.896L1195.72 266.796C1195.72 266.796 1196.02 261.796 1195.12 244.796C1194.12 227.796 1193.22 221.296 1193.22 221.296H1192.02Z" fill="#FFFCF2"/>
<path d="M1232.82 221.296L1235.32 266.896L1236.52 266.796C1236.52 266.796 1236.82 261.796 1235.92 244.796C1235.02 227.796 1234.02 221.296 1234.02 221.296H1232.82Z" fill="#FFFCF2"/>
<path d="M1270.02 240.896L1286.22 264.296L1270.72 264.396L1270.02 240.896Z" fill="#2D3962"/>
<path d="M1230.32 353.797V303.497H1240.32H1247.62L1250.82 353.797L1251.72 353.697C1251.72 353.697 1251.72 350.797 1251.42 342.897C1251.32 338.997 1251.02 333.797 1250.72 327.097C1250.52 323.797 1250.32 320.097 1250.12 315.997C1249.82 311.597 1249.62 306.897 1249.32 301.597C1247.52 301.597 1244.42 301.597 1241.12 301.597C1235.22 301.597 1229.82 301.597 1228.62 301.597C1228.62 311.397 1228.72 319.597 1228.72 326.397C1228.82 332.997 1228.82 338.197 1228.82 342.197C1228.92 350.297 1229.02 353.697 1229.02 353.697H1230.32V353.797Z" fill="#4F8BAD"/>
<path d="M1229.42 329.096C1229.42 329.096 1232.52 329.096 1239.92 329.096C1247.32 329.096 1250.02 329.096 1250.02 329.096V328.196C1250.02 328.196 1247.72 327.296 1240.12 327.296C1232.52 327.296 1229.42 327.696 1229.42 327.696V329.096Z" fill="#4F8BAD"/>
</g>
<path d="M168.101 0.129395L142.293 69.2908L12.0914 86.1675L79.26 180.478L39.3153 301.261H-19.3625V315.271H50.8871L91.3371 177.666L31.7788 93.1994L159.498 76.5709L179.846 17.8061L544.924 149.302L536.15 329.172L967.814 357.029L982.5 336.5L561.263 316.864L553.426 130.732L168.101 0.129395Z" fill="#B3C8D3"/>
<path d="M997.668 387.164L982.5 336.5L966.668 355.83L991.957 398.607H1220.66L1254.81 354.055H1226.6L1220.66 381.459L997.668 387.164Z" fill="#B3C8D3"/>
<path d="M101.47 54.1514L89.2279 79.7146L95.1837 78.2255L79.136 109.414L86.829 106.767L74.1729 131.917H132.573L119.669 107.677L127.61 111.813L110.073 78.2255L115.285 79.7146L101.47 54.1514Z" fill="#2D3962"/>
<path d="M102.904 111.446L98.7915 111.882L102.181 143.801L106.294 143.365L102.904 111.446Z" fill="#2D3962"/>
<path d="M220.049 288.854L308.229 94.1924L396.325 288.854H220.049Z" fill="#FF606F"/>
<path d="M296.813 133.654H322.043V134.647C322.043 134.647 319.313 135.143 309.883 135.143C300.453 135.143 296.813 134.647 296.813 134.647V133.654Z" fill="#C24751"/>
<path d="M292.512 145.567L329.488 146.56V147.552C329.488 147.552 325.434 147.966 311.62 147.552C297.806 147.221 292.512 146.56 292.512 146.56V145.567Z" fill="#C24751"/>
<path d="M289.699 158.886L330.811 157.149L330.894 158.142C330.894 158.142 326.427 158.803 311.124 159.465C295.821 160.127 289.865 159.879 289.865 159.879L289.699 158.886Z" fill="#C24751"/>
<path d="M273.486 192.805L346.942 191.068V192.061C346.942 192.061 338.918 192.722 311.455 193.384C283.992 194.046 273.404 193.798 273.404 193.798L273.486 192.805Z" fill="#C24751"/>
<path d="M257.273 224.904L361.418 223.167V224.159C361.418 224.159 350.085 224.821 311.124 225.483C272.245 226.145 257.19 225.897 257.19 225.897L257.273 224.904Z" fill="#C24751"/>
<path d="M246.851 253.197L372.006 252.287V253.28C372.006 253.28 358.357 253.859 311.62 254.19C264.884 254.521 246.851 254.19 246.851 254.19V253.197Z" fill="#C24751"/>
<path d="M252.972 238.141L365.554 239.216V240.209C365.554 240.209 353.228 240.622 311.207 240.209C269.185 239.795 252.972 239.216 252.972 239.216V238.141Z" fill="#C24751"/>
<path d="M240.564 259.65L377.465 260.146V261.139C377.465 261.139 362.493 261.553 311.372 261.387C260.251 261.222 240.564 260.643 240.564 260.643V259.65Z" fill="#C24751"/>
<path d="M231.382 275.865L384.827 274.458V275.451C384.827 275.451 368.035 276.113 310.793 276.609C253.468 277.106 231.382 276.858 231.382 276.858V275.865Z" fill="#C24751"/>
<path d="M286.639 163.933H335.112V164.925C335.112 164.925 329.818 165.422 311.703 165.422C293.587 165.422 286.639 164.925 286.639 164.925V163.933Z" fill="#C24751"/>
<path d="M279.277 176.425L341.399 178.493V179.486C341.399 179.486 334.616 179.734 311.455 178.989C288.293 178.245 279.36 177.418 279.36 177.418L279.277 176.425Z" fill="#C24751"/>
<path d="M263.229 206.869H352.649V207.862C352.649 207.862 342.888 208.358 309.469 208.358C276.051 208.358 263.229 207.862 263.229 207.862V206.869Z" fill="#C24751"/>
<path d="M270.757 205.959H308.973V264.862H268.937L270.757 205.959Z" fill="#FFFCF2"/>
<path d="M281.262 205.959L280.021 264.862H296.979L298.881 205.959H281.262Z" fill="#2D3962"/>
<path d="M319.396 288.853L319.892 210.674H343.881L347.024 288.853H319.396Z" fill="#2D3962"/>
<path d="M304.258 266.02H267.696L269.681 204.883H310.131V266.02H304.258V264.531C304.258 264.531 305.333 264.531 308.477 264.448C308.477 264.2 308.477 263.869 308.477 263.538C308.477 263.042 308.477 262.463 308.477 261.884C308.477 260.725 308.394 259.319 308.394 257.747C308.311 254.603 308.311 250.715 308.229 245.917C308.146 241.119 308.146 235.493 308.063 228.875C308.063 222.587 307.98 215.307 307.98 207.034C300.536 207.034 290.03 207.034 277.953 207.117C275.802 207.117 273.652 207.117 271.832 207.117C271.418 219.775 271.005 230.86 270.674 240.374C270.343 249.805 270.012 257.747 269.764 264.034C282.006 264.2 290.609 264.283 296.069 264.365C301.776 264.448 304.258 264.531 304.258 264.531V266.02Z" fill="#FFFCF2"/>
<path d="M318.32 288.853L318.817 210.261L330.728 198.265L344.956 210.178L348.099 288.771L346.611 288.853C346.611 288.853 346.28 284.469 345.618 272.473C345.287 266.517 344.956 258.575 344.377 248.482C343.963 238.471 343.384 226.145 342.723 211.254C340.655 209.516 337.015 206.455 333.21 203.312C332.631 202.898 332.135 202.402 331.638 201.988C331.39 201.74 331.142 201.574 330.894 201.326C327.006 205.214 323.532 208.689 321.05 211.171C320.885 225.152 320.719 236.9 320.636 246.744C320.471 256.754 320.306 264.696 320.223 270.984C319.975 283.476 319.809 288.853 319.809 288.853H318.32Z" fill="#FFFCF2"/>
<path d="M230.968 288.853L314.598 108.339L309.718 97.584L222.034 288.853H230.968Z" fill="#2D3962"/>
<path d="M305.085 94.1924H190.932L109.37 288.854H216.906L305.085 94.1924Z" fill="#B3C8D3"/>
<path d="M229.231 126.208L161.401 164.677L171.244 141.1L224.35 106.602L229.231 126.208Z" fill="#4F8BAD"/>
<path d="M249.084 156.404L209.544 260.395L157.43 288.853H109.37L130.96 237.313L199.121 168.896L249.084 156.404Z" fill="#4F8BAD"/>
<path d="M203.257 219.196L178.854 156.404H249.084L221.703 219.196H203.257Z" fill="#FFFCF2"/>
<path d="M178.855 156.404L155.858 216.631L153.294 255.514H202.761L203.257 219.196L178.855 156.404Z" fill="#2D3962"/>
<path d="M221.704 219.195L202.761 255.513L203.257 219.195H221.704Z" fill="#FF606F"/>
<path d="M314.598 179.238C314.598 182.878 311.703 185.773 308.229 185.773C304.672 185.773 301.859 182.878 301.859 179.238C301.859 175.598 304.754 172.702 308.229 172.702C311.703 172.702 314.598 175.598 314.598 179.238Z" fill="#2D3962"/>
<path d="M316.087 179.238C316.087 179.238 316.087 179.403 316.087 179.817C316.087 179.982 316.087 180.23 316.004 180.479C316.004 180.727 315.922 181.058 315.839 181.389C315.508 182.712 314.598 184.532 312.696 185.939C311.703 186.601 310.545 187.097 309.139 187.262C307.815 187.428 306.326 187.262 305.003 186.601C303.679 186.021 302.438 184.946 301.611 183.705C300.784 182.381 300.37 180.892 300.288 179.32C300.288 177.749 300.701 176.259 301.611 174.936C302.438 173.612 303.596 172.619 305.003 172.04C306.326 171.461 307.815 171.213 309.139 171.378C310.462 171.544 311.703 172.04 312.696 172.702C314.598 174.109 315.508 175.929 315.839 177.252C315.922 177.583 316.004 177.914 316.004 178.162C316.087 178.41 316.087 178.659 316.087 178.824C316.087 179.072 316.087 179.238 316.087 179.238H314.102C314.102 179.238 314.102 179.155 314.019 179.072C314.019 178.907 313.936 178.741 313.854 178.41C313.688 177.831 313.357 176.921 312.53 175.929C311.703 175.019 310.214 173.943 308.229 174.026C307.236 174.108 306.161 174.439 305.168 175.184C304.258 175.929 303.514 177.169 303.348 178.659C303.183 180.148 303.679 181.554 304.424 182.547C305.168 183.54 306.243 184.119 307.319 184.367C309.47 184.863 311.207 183.953 312.199 182.96C313.275 181.968 313.688 180.892 313.854 180.23C313.936 179.9 314.019 179.651 314.019 179.486C314.019 179.32 314.102 179.238 314.102 179.238H316.087Z" fill="#FFFCF2"/>
<path d="M319.892 210.675L330.811 199.754L343.881 210.675H319.892Z" fill="#FFFCF2"/>
<path d="M311.785 97.2534C311.785 97.2534 298.468 126.539 266.786 196.611C235.021 266.682 223.689 291.832 223.689 291.832L216.906 288.771C216.906 288.771 219.801 264.449 252.724 191.813C285.646 119.177 301.28 92.4551 301.28 92.4551L311.785 97.2534Z" fill="#FFFCF2"/>
<path d="M406.086 289.432C406.086 289.432 400.792 275.617 392.934 255.017C388.798 244.759 383.752 232.846 378.458 220.106C375.728 213.736 372.75 207.283 369.772 200.582C368.283 197.272 366.794 193.881 365.305 190.571C364.561 188.917 363.816 187.18 363.072 185.525L360.756 180.479C357.612 173.777 354.469 167.076 351.408 160.541C349.92 157.232 348.265 154.005 346.693 150.779C345.122 147.552 343.55 144.409 342.061 141.348C340.572 138.204 339.083 135.226 337.594 132.165C336.105 129.187 334.616 126.291 333.21 123.478C330.315 117.853 327.668 112.475 325.104 107.594C323.863 105.112 322.622 102.796 321.464 100.562C320.885 99.4869 320.306 98.3287 319.727 97.3359C319.644 97.1705 319.561 97.005 319.479 96.8396C319.23 96.8396 318.982 96.8396 318.817 96.8396C314.35 96.8396 310.379 96.8396 307.153 96.8396C300.701 96.8396 296.979 96.8396 296.979 96.8396V94.3577C296.979 94.3577 298.633 94.275 302.356 94.1922C304.258 94.1095 306.74 94.1095 309.8 94.0268C311.372 94.0268 313.026 93.9441 314.846 93.9441C315.756 93.9441 316.749 93.9441 317.741 93.8613C318.238 93.8613 318.734 93.8613 319.313 93.8613C319.727 93.8613 320.14 93.8613 320.554 93.8613H321.216C321.298 93.8613 321.381 93.8613 321.381 93.8613L321.464 94.0268L321.629 94.3577C322.208 95.4332 322.87 96.5914 323.532 97.8323C324.111 98.9078 324.69 99.9833 325.269 101.059C326.51 103.292 327.751 105.692 329.157 108.256C331.887 113.385 334.947 119.259 338.339 125.877C345.039 139.114 353.146 155.412 362.493 175.432C367.291 185.36 371.261 194.791 375.066 203.312C376.969 207.614 378.789 211.75 380.526 215.638C382.263 219.609 383.752 223.415 385.241 226.972C391.114 241.45 395.995 253.032 399.138 262.297C405.838 280.663 408.568 288.771 408.568 288.771L406.086 289.432Z" fill="#B3C8D3"/>
<path d="M308.973 114.13L384.993 288.854H396.325L311.041 100.562L308.973 114.13Z" fill="#2D3962"/>
<path d="M287.301 264.862C287.301 264.862 287.549 256.01 288.045 234.749C288.541 213.57 288.789 205.959 288.789 205.959H289.534C289.534 205.959 290.113 212.412 289.617 234.418C289.038 256.424 288.541 264.862 288.541 264.862H287.301Z" fill="#FFFCF2"/>
<path d="M279.194 220.767L300.453 219.774L300.536 220.767C300.536 220.767 298.219 221.346 290.278 221.76C282.337 222.091 279.277 221.76 279.277 221.76L279.194 220.767Z" fill="#FFFCF2"/>
<path d="M278.036 249.557L299.295 248.564L299.378 249.557C299.378 249.557 297.061 250.136 289.12 250.55C281.179 250.881 278.119 250.55 278.119 250.55L278.036 249.557Z" fill="#FFFCF2"/>
<path d="M278.284 234.417L299.543 234.997V235.989C299.543 235.989 297.227 236.403 289.286 236.237C281.345 235.989 278.284 235.41 278.284 235.41V234.417Z" fill="#FFFCF2"/>
<path d="M166.529 201.244L165.04 250.136L186.63 249.64L188.45 201.244H166.529Z" fill="#4F8BAD"/>
<path d="M171.244 249.806H180.261L181.005 201.244H173.395L171.244 249.806Z" fill="#2D3962"/>
<path d="M167.274 201.243L165.702 249.391L185.803 248.895L187.54 201.905H166.447V200.912C166.447 200.912 167.77 200.912 171.162 200.83C172.899 200.83 175.049 200.747 177.945 200.747C180.923 200.747 184.562 200.664 188.864 200.664C188.698 205.462 188.533 211.832 188.285 219.692C188.036 227.386 187.706 236.568 187.292 247.323C187.292 248.399 187.209 249.391 187.209 250.384C178.193 250.55 170.252 250.715 164.13 250.881C164.461 241.78 164.792 234.087 164.958 227.634C165.206 221.429 165.454 216.383 165.619 212.494C166.033 204.718 166.198 201.243 166.198 201.243H167.274Z" fill="#4F8BAD"/>
<path d="M171.162 224.738L184.81 223.415L184.893 224.407C184.893 224.407 183.404 225.069 178.358 225.483C173.23 225.979 171.244 225.648 171.244 225.648L171.162 224.738Z" fill="#4F8BAD"/>
<path d="M169.921 236.486L183.57 236.734V237.727C183.57 237.727 182.081 238.223 176.952 238.058C171.823 237.975 169.921 237.396 169.921 237.396V236.486Z" fill="#4F8BAD"/>
<path d="M169.921 211.998L183.57 212.246V213.239C183.57 213.239 182.081 213.735 176.952 213.57C171.823 213.487 169.921 212.908 169.921 212.908V211.998Z" fill="#4F8BAD"/>
<path d="M343.136 288.936L337.76 219.94H329.901H325.103L323.945 288.853H323.201C323.201 288.853 323.118 284.882 323.118 274.21C323.118 268.833 323.118 261.884 323.201 252.784C323.284 248.234 323.284 243.187 323.366 237.644C323.449 231.853 323.532 225.483 323.614 218.451C324.69 218.451 326.758 218.451 328.826 218.451C333.624 218.451 338.256 218.451 339.083 218.451C340.076 231.44 340.903 242.36 341.647 251.543C342.309 260.477 342.805 267.592 343.219 273.135C343.964 284.221 344.294 288.853 344.294 288.853L343.136 288.936Z" fill="#4F8BAD"/>
<path d="M323.78 252.37L341.069 252.618V253.611C341.069 253.611 339.166 254.107 332.714 254.024C326.262 253.941 323.78 253.445 323.78 253.445V252.37Z" fill="#4F8BAD"/>
<path d="M219.47 126.208L224.185 71.5244H243.294L238.661 110.572L229.231 126.208H219.47Z" fill="#2D3962"/>
<path d="M227.329 73.5098L228.073 61.3486H231.382V73.5098H227.329Z" fill="#2D3962"/>
<path d="M233.698 72.6826L235.766 54.1514H240.067L238.578 72.6826H233.698Z" fill="#2D3962"/>
<path d="M467.856 173.476L451.336 208.131L459.351 206.061L437.706 248.235L448.12 244.639L430.946 278.64H509.946L492.499 245.892L503.294 251.559L479.523 206.061L486.557 208.131L467.856 173.476Z" fill="#2D3962"/>
<path d="M469.155 251.065L464.926 251.514L469.515 294.698L473.744 294.249L469.155 251.065Z" fill="#2D3962"/>
<path d="M1372.63 299.995L1360.71 325.039L1366.49 323.543L1350.88 354.022L1358.39 351.423L1346 375.995H1403L1390.41 352.328L1398.2 356.424L1381.05 323.543L1386.12 325.039L1372.63 299.995Z" fill="#2D3962"/>
<path d="M1373.57 355.734L1370.52 356.058L1373.83 387.217L1376.88 386.893L1373.57 355.734Z" fill="#2D3962"/>
<path d="M1302.73 348.772L1293.95 367.226L1298.21 366.124L1286.7 388.582L1292.24 386.667L1283.11 404.772H1325.11L1315.83 387.334L1321.57 390.352L1308.94 366.124L1312.68 367.226L1302.73 348.772Z" fill="#2D3962"/>
<path d="M1303.42 389.797L1301.18 390.036L1303.61 412.995L1305.86 412.756L1303.42 389.797Z" fill="#2D3962"/>
<path d="M392.623 70L383.841 88.4539L388.101 87.3513L376.594 109.809L382.13 107.894L373 126H415L405.725 108.562L411.464 111.579L398.826 87.3513L402.565 88.4539L392.623 70Z" fill="#2D3962"/>
<path d="M393.314 111.025L391.065 111.263L393.505 134.222L395.753 133.983L393.314 111.025Z" fill="#2D3962"/>
<path d="M454.828 6.23828L444.164 28.6466L449.337 27.3077L435.364 54.5782L442.087 52.2528L431 74.2383H482L470.737 53.0632L477.706 56.7274L462.36 27.3077L466.901 28.6466L454.828 6.23828Z" fill="#2D3962"/>
<path d="M455.666 56.0535L452.937 56.3433L455.899 84.2219L458.629 83.9322L455.666 56.0535Z" fill="#2D3962"/>
<path d="M977.623 257L968.841 275.454L973.101 274.351L961.594 296.809L967.13 294.894L958 313H1000L990.725 295.562L996.464 298.579L983.826 274.351L987.565 275.454L977.623 257Z" fill="#2D3962"/>
<path d="M978.314 298.025L976.065 298.263L978.505 321.222L980.753 320.983L978.314 298.025Z" fill="#2D3962"/>
<path d="M999.623 130L990.841 148.454L995.101 147.351L983.594 169.809L989.13 167.894L980 186H1022L1012.72 168.562L1018.46 171.579L1005.83 147.351L1009.57 148.454L999.623 130Z" fill="#2D3962"/>
<path d="M1000.31 171.025L998.065 171.263L1000.5 194.222L1002.75 193.983L1000.31 171.025Z" fill="#2D3962"/>
<path d="M1327.11 348.392L1333.14 322.772L1341.02 349.229L1327.11 348.392Z" fill="#2D3962"/>
<path d="M937 320.619L943.032 295L950.906 321.457L937 320.619Z" fill="#2D3962"/>
<path d="M626.381 188.887H698.857V287.654H626.381V188.887Z" fill="#2D3962"/>
<path d="M697.792 188.532L763.163 142.347L952.879 208.073V288.009H697.792V188.532Z" fill="#FF606F"/>
<path d="M876.58 172.154C876.58 172.154 876.595 189.608 876.542 231.339C876.488 273.07 876.514 288.047 876.514 288.047L877.456 288.091C877.456 288.091 878.375 275.47 878.461 232.199C878.548 188.928 878.15 172.227 878.15 172.227L876.58 172.154Z" fill="#C24751"/>
<path d="M899.197 188.344C899.197 188.344 899.155 203.36 898.964 239.262C898.774 275.163 898.752 288.049 898.752 288.049L899.693 288.097C899.693 288.097 900.653 277.251 900.881 240.025C901.109 202.799 900.766 188.426 900.766 188.426L899.197 188.344Z" fill="#C24751"/>
<path d="M920.432 188.344C920.432 188.344 920.374 203.36 920.144 239.261C919.914 275.162 919.877 288.047 919.877 288.047L920.819 288.097C920.819 288.097 921.79 277.252 922.059 240.026C922.329 202.8 922.001 188.427 922.001 188.427L920.432 188.344Z" fill="#C24751"/>
<path d="M939.802 188.384C939.802 188.384 940.289 203.392 941.363 239.278C942.436 275.164 942.868 288.042 942.868 288.042L943.81 288.058C943.81 288.058 944.387 277.184 943.305 239.973C942.222 202.762 941.373 188.41 941.373 188.41L939.802 188.384Z" fill="#C24751"/>
<path d="M862.555 172.187C862.555 172.187 863.042 189.634 864.115 231.351C865.189 273.068 865.62 288.039 865.62 288.039L866.563 288.057C866.563 288.057 867.14 275.417 866.058 232.159C864.975 188.901 864.126 172.217 864.126 172.217L862.555 172.187Z" fill="#C24751"/>
<path d="M845.692 160.405C845.692 160.405 846.735 179.63 849.139 225.594C851.542 271.558 852.45 288.054 852.45 288.054L853.393 288.095C853.393 288.095 853.566 274.188 851.105 226.527C848.644 178.866 847.263 160.474 847.263 160.474L845.692 160.405Z" fill="#C24751"/>
<path d="M829.004 156.685C829.004 156.685 829.853 176.465 831.792 223.759C833.73 271.054 834.472 288.027 834.472 288.027L835.415 288.058C835.415 288.058 835.73 273.737 833.75 224.696C831.77 175.656 830.575 156.736 830.575 156.736L829.004 156.685Z" fill="#C24751"/>
<path d="M789.672 142.008C789.672 142.008 790.44 163.999 792.185 216.578C793.93 269.157 794.603 288.026 794.603 288.026L795.545 288.058C795.545 288.058 795.919 272.133 794.14 217.612C792.361 163.092 791.243 142.06 791.243 142.06L789.672 142.008Z" fill="#C24751"/>
<path d="M768.913 130.502C768.913 130.502 769.617 154.225 771.21 210.948C772.804 267.671 773.422 288.026 773.422 288.026L774.365 288.058C774.365 288.058 774.784 270.876 773.162 212.059C771.541 153.242 770.484 130.554 770.484 130.554L768.913 130.502Z" fill="#C24751"/>
<path d="M750.927 130.617C750.927 130.617 751.044 154.326 751.232 211.014C751.419 267.702 751.533 288.047 751.533 288.047L752.475 288.101C752.475 288.101 753.319 270.952 753.155 212.172C752.991 153.392 752.497 130.707 752.497 130.707L750.927 130.617Z" fill="#C24751"/>
<path d="M731.589 133.409C731.589 133.409 731.51 156.698 731.232 212.379C730.954 268.06 730.9 288.044 730.9 288.044L731.841 288.107C731.841 288.107 732.827 271.273 733.146 213.537C733.465 155.8 733.157 133.514 733.157 133.514L731.589 133.409Z" fill="#C24751"/>
<path d="M708.898 136.237C708.898 136.237 709.634 159.096 711.304 213.754C712.973 268.412 713.618 288.026 713.618 288.026L714.56 288.057C714.56 288.057 714.957 271.502 713.257 214.827C711.557 158.151 710.469 136.289 710.469 136.289L708.898 136.237Z" fill="#C24751"/>
<path d="M845.489 287.826L846.006 211.173H870.98L874.253 287.826H845.489Z" fill="#2D3962"/>
<path d="M844.369 287.745L844.886 210.686L857.287 198.925L872.1 210.605L875.372 287.664L873.822 287.745C873.822 287.745 873.478 283.446 872.789 271.684C872.444 265.844 872.1 258.057 871.497 248.161C871.066 238.346 870.463 226.26 869.774 211.66C867.621 209.956 863.832 206.955 859.871 203.873C859.268 203.467 858.751 202.981 858.234 202.575C857.976 202.332 857.718 202.169 857.459 201.926C853.412 205.738 849.795 209.145 847.211 211.579C847.039 225.287 846.867 236.805 846.781 246.458C846.608 256.272 846.436 264.059 846.35 270.224C846.092 282.472 845.92 287.745 845.92 287.745H844.369Z" fill="#FFFCF2"/>
<path d="M846.006 211.173L857.374 200.466L870.981 211.173H846.006Z" fill="#FFFCF2"/>
<path d="M870.205 287.826L864.608 220.177H856.426H851.432L850.226 287.745H849.451C849.451 287.745 849.365 283.851 849.365 273.388C849.365 268.115 849.365 261.302 849.451 252.379C849.537 247.918 849.537 242.97 849.623 237.535C849.709 231.857 849.795 225.611 849.881 218.717C851.001 218.717 853.154 218.717 855.307 218.717C860.302 218.717 865.124 218.717 865.986 218.717C867.019 231.452 867.88 242.159 868.655 251.162C869.344 259.923 869.861 266.899 870.292 272.333C871.067 283.202 871.411 287.745 871.411 287.745L870.205 287.826Z" fill="#4F8BAD"/>
<path d="M850.053 251.973L868.052 252.216V253.19C868.052 253.19 866.071 253.677 859.354 253.595C852.637 253.514 850.053 253.028 850.053 253.028V251.973Z" fill="#4F8BAD"/>
<path d="M686.934 124.325H763.956L705.342 197.472L617.178 193.596L610.396 180.517L686.934 124.325Z" fill="#B3C8D3"/>
<path d="M967.896 197.471L961.599 211.519L763.956 142.732L704.857 197.471L696.622 185.845L763.956 125.777L967.896 197.471Z" fill="#FFFEFA"/>
<path fill-rule="evenodd" clip-rule="evenodd" d="M763.632 124.142L969.844 196.635L963.536 210.551L959.419 212.282L764.299 144.372L704.631 199.637L694.708 185.628L763.632 124.142ZM763.613 129.203L700.725 186.515L705.082 195.306L763.613 141.093L959.419 208.942L964.861 198.351L763.613 129.203Z" fill="#B3C8D3"/>
<path d="M803.678 106.885H839.525L831.794 288.057H806.841L803.678 106.885Z" fill="#2D3962"/>
<path d="M784.547 175.02C784.791 183.78 778.298 190.918 769.938 190.918C761.579 190.918 754.599 183.78 754.274 175.02C754.031 166.26 760.524 159.203 768.883 159.203C777.324 159.203 784.304 166.26 784.547 175.02Z" fill="#2D3962"/>
<path d="M776.594 175.02C776.756 179.156 773.591 182.563 769.695 182.563C765.718 182.563 762.391 179.238 762.31 175.02C762.147 170.883 765.313 167.476 769.208 167.476C773.104 167.476 776.513 170.883 776.594 175.02Z" fill="#FF606F"/>
<path d="M721.328 208.613L723.737 273.525H751.362L749.113 208.613H721.328Z" fill="#FFFCF2"/>
<path d="M728.109 212.488L730.17 269.65H743.61L741.384 212.488H728.109Z" fill="#2D3962"/>
<path d="M726.684 230.271H743.728V229.297C743.728 229.297 741.861 228.811 735.53 228.811C729.2 228.811 726.684 229.297 726.684 229.297V230.271Z" fill="#FFFCF2"/>
<path d="M726.73 243.428L743.753 242.598L743.706 241.625C743.706 241.625 741.817 241.23 735.494 241.538C729.171 241.847 726.682 242.455 726.682 242.455L726.73 243.428Z" fill="#FFFCF2"/>
<path d="M727.14 258.992H743.61V258.346C743.61 258.346 741.806 258.023 735.689 258.023C729.571 258.023 727.14 258.346 727.14 258.346V258.992Z" fill="#FFFCF2"/>
<path d="M733.923 210.551L735.861 269.65L736.792 269.52C736.792 269.52 737.025 263.04 736.327 241.007C735.551 218.975 734.853 210.551 734.853 210.551H733.923Z" fill="#FFFCF2"/>
<path d="M761.05 209.097L762.49 273.525H790.115L789.146 208.613L761.05 209.097Z" fill="#FFFCF2"/>
<path d="M765.438 230.271H782.481V229.297C782.481 229.297 780.615 228.811 774.284 228.811C767.953 228.811 765.438 229.297 765.438 229.297V230.271Z" fill="#FFFCF2"/>
<path d="M765.438 243.013H782.481V242.04C782.481 242.04 780.615 241.553 774.284 241.553C767.953 241.553 765.438 242.04 765.438 242.04V243.013Z" fill="#FFFCF2"/>
<path d="M765.438 258.515H782.481V257.541C782.481 257.541 780.615 257.055 774.284 257.055C767.953 257.055 765.438 257.541 765.438 257.541V258.515Z" fill="#FFFCF2"/>
<path d="M772.676 210.551L774.614 269.65L775.545 269.52C775.545 269.52 775.778 263.04 775.08 241.007C774.304 218.975 773.606 210.551 773.606 210.551H772.676Z" fill="#FFFCF2"/>
<path d="M782.56 269.65L781.414 212.489L767.974 212.489L769.285 269.65L782.56 269.65Z" fill="#2D3962"/>
<path d="M784.901 258.649L767.857 258.649L767.857 259.623C767.857 259.623 769.724 260.109 776.054 260.109C782.385 260.109 784.901 259.623 784.901 259.623L784.901 258.649Z" fill="#FFFCF2"/>
<path d="M784.855 245.492L767.832 246.322L767.879 247.294C767.879 247.294 769.767 247.69 776.09 247.381C782.413 247.073 784.903 246.465 784.903 246.465L784.855 245.492Z" fill="#FFFCF2"/>
<path d="M784.444 229.928L767.974 229.928L767.974 230.574C767.974 230.574 769.778 230.896 775.895 230.896C782.013 230.896 784.444 230.574 784.444 230.574L784.444 229.928Z" fill="#FFFCF2"/>
<path d="M776.693 271.587L774.755 212.488L773.824 212.618C773.824 212.618 773.591 219.098 774.289 241.131C775.065 263.163 775.763 271.587 775.763 271.587L776.693 271.587Z" fill="#FFFCF2"/>
<path d="M888.936 209.097L889.407 273.525H917.032L917.032 208.613L888.936 209.097Z" fill="#FFFCF2"/>
<path d="M892.355 230.271H909.399V229.297C909.399 229.297 907.532 228.811 901.201 228.811C894.871 228.811 892.355 229.297 892.355 229.297V230.271Z" fill="#FFFCF2"/>
<path d="M892.355 243.013H909.399V242.04C909.399 242.04 907.532 241.553 901.201 241.553C894.871 241.553 892.355 242.04 892.355 242.04V243.013Z" fill="#FFFCF2"/>
<path d="M892.355 258.515H909.399V257.541C909.399 257.541 907.532 257.055 901.201 257.055C894.871 257.055 892.355 257.541 892.355 257.541V258.515Z" fill="#FFFCF2"/>
<path d="M899.593 210.551L901.532 269.65L902.463 269.52C902.463 269.52 902.695 263.04 901.997 241.007C901.222 218.975 900.524 210.551 900.524 210.551H899.593Z" fill="#FFFCF2"/>
<path d="M909.477 269.65L909.477 212.489L894.891 212.489L896.202 269.65L909.477 269.65Z" fill="#2D3962"/>
<path d="M911.818 258.649L894.774 258.649L894.774 259.623C894.774 259.623 896.641 260.109 902.972 260.109C909.302 260.109 911.818 259.623 911.818 259.623L911.818 258.649Z" fill="#FFFCF2"/>
<path d="M894.774 245.429H911.818V244.456C911.818 244.456 909.951 243.969 903.621 243.969C897.29 243.969 894.774 244.456 894.774 244.456V245.429Z" fill="#FFFCF2"/>
<path d="M894.891 228.959H911.362V228.313C911.362 228.313 909.558 227.99 903.44 227.99C897.323 227.99 894.891 228.313 894.891 228.313V228.959Z" fill="#FFFCF2"/>
<path d="M903.611 271.587L901.672 212.488L900.742 212.618C900.742 212.618 900.509 219.098 901.207 241.131C901.983 263.163 902.681 271.587 902.681 271.587L903.611 271.587Z" fill="#FFFCF2"/>
<path d="M667.341 215.813L667.346 257.577L684.995 258.85L685.409 216.867L667.341 215.813Z" fill="#4F8BAD"/>
<path d="M671.877 221.684L671.571 253.436L680.159 253.936L680.385 222.18L671.877 221.684Z" fill="#2D3962"/>
<path d="M671.024 239.104L681.476 239.713L681.533 238.742C681.533 238.742 680.427 238.19 676.538 237.963C672.649 237.736 671.081 238.132 671.081 238.132L671.024 239.104Z" fill="#4F8BAD"/>
<path d="M676.466 254.534L677.076 220.362L676.104 220.305C676.104 220.305 675.562 224.012 675.307 236.753C675.052 249.495 675.494 254.477 675.494 254.477L676.466 254.534Z" fill="#4F8BAD"/>
<path d="M657.132 258.85L657.128 217.086L639.479 215.813L639.064 257.796L657.132 258.85Z" fill="#4F8BAD"/>
<path d="M652.596 252.979L652.903 221.227L644.314 220.727L644.089 252.483L652.596 252.979Z" fill="#2D3962"/>
<path d="M653.45 235.559L642.998 234.95L642.941 235.921C642.941 235.921 644.047 236.473 647.936 236.7C651.826 236.927 653.393 236.531 653.393 236.531L653.45 235.559Z" fill="#4F8BAD"/>
<path d="M648.008 220.129L647.398 254.3L648.37 254.357C648.37 254.357 648.911 250.651 649.166 237.909C649.421 225.168 648.98 220.186 648.98 220.186L648.008 220.129Z" fill="#4F8BAD"/>
<path d="M764.44 141.279L963.536 210.551L952.395 215.879V210.551L764.44 146.123L704.857 200.862L617.177 194.08L615.24 189.721L705.826 194.565L764.44 141.279Z" fill="#2D3962"/>
<path d="M874.432 287.659H844.736V336.569H861.331L874.432 287.659Z" fill="#B3C8D3"/>
<path d="M594.113 255L578.398 288.021L586.022 286.048L565.431 326.233L575.338 322.807L559 355.204H634.153L617.556 324.001L627.825 329.4L605.212 286.048L611.903 288.021L594.113 255Z" fill="#2D3962"/>
<path d="M595.349 328.491L591.326 328.918L595.691 370L599.714 369.573L595.349 328.491Z" fill="#2D3962"/>
</g>
<defs>
<clipPath id="clip0">
<rect width="1440" height="413" fill="white"/>
</clipPath>
<clipPath id="clip1">
<rect width="280.2" height="282.3" fill="white" transform="translate(1017.82 86.8965)"/>
</clipPath>
</defs>
</svg>
