<svg width="1283" height="174" viewBox="0 0 1283 174" fill="none" xmlns="http://www.w3.org/2000/svg">
<path d="M56.785 23.8792C56.785 23.8792 51.1733 78.8543 13.105 98.4242C47.8366 112.019 41.4666 172.969 41.4666 172.969L68.0083 103.653L56.785 23.8792Z" fill="#2D6C73"/>
<path d="M15.2282 99.4695C14.1665 106.341 9.91982 111.421 5.97648 110.823C2.03315 110.226 -0.393515 104.101 0.819818 97.2287C1.88149 90.3568 6.12815 85.2776 10.0715 85.8752C14.1665 86.4727 16.4415 92.5977 15.2282 99.4695Z" fill="#2D6C73"/>
<path d="M1229.71 0.87915C1229.71 0.87915 1233.66 53.5075 1263.99 70.4942C1263.99 70.4942 1229.71 87.1775 1211.21 157.854L1198.17 79.2908L1229.71 0.87915Z" fill="#2D6C73"/>
<path d="M1281.89 71.7078C1280.82 78.6845 1276.58 83.8412 1272.63 83.2345C1268.69 82.6278 1266.26 76.4095 1267.48 69.4328C1268.54 62.4562 1272.79 57.2995 1276.73 57.9062C1280.67 58.5128 1282.95 64.7312 1281.89 71.7078Z" fill="#2D6C73"/>
<path d="M51.3065 22.9644L1240.63 0.87915L1213.73 157.593L28.8164 173.779L51.3065 22.9644Z" fill="#2D6C73"/>
<path d="M69.4255 42.4358C69.4255 42.4358 69.205 40.9191 68.9844 38.9475C68.9844 37.8858 68.7639 36.8241 68.7639 35.6108C68.7639 35.0041 68.7639 34.3975 68.7639 33.7908V33.3358V32.7291C68.7639 32.1225 68.9844 31.6675 68.9844 31.0608C69.8665 31.0608 70.5281 31.0608 71.4102 31.0608H72.2923H72.9539C73.836 31.0608 74.7181 31.0608 75.6002 31.2125C77.3644 31.3641 78.9081 31.3641 80.4517 31.5158C83.3186 31.8191 85.5238 31.9708 85.5238 31.9708C85.5238 31.9708 83.5391 32.2741 80.4517 32.7291C78.9081 32.8808 77.3644 33.0325 75.6002 33.1841C74.7181 33.1841 73.836 33.3358 73.1744 33.3358H72.5128H72.2923V33.4875V33.9425C72.0718 34.5491 72.0718 35.1558 71.8513 35.6108C71.6307 36.8241 71.1897 37.8858 70.9692 38.7958C70.0871 41.0708 69.4255 42.4358 69.4255 42.4358Z" fill="#FFFEFA"/>
<path d="M66.9998 64.5795C66.9998 64.5795 65.8972 58.8162 66.3383 54.5695C66.7793 50.3229 69.2051 44.7112 69.2051 44.7112C69.2051 44.7112 70.3077 50.4745 69.8667 54.7212C69.4256 58.9678 66.9998 64.5795 66.9998 64.5795Z" fill="#FFFEFA"/>
<path d="M64.3534 86.7221C64.3534 86.7221 63.2507 80.9588 63.6918 76.7121C64.1328 72.4654 66.5586 66.8538 66.5586 66.8538C66.5586 66.8538 67.6612 72.6171 67.2202 76.8638C66.7791 81.1104 64.3534 86.7221 64.3534 86.7221Z" fill="#FFFEFA"/>
<path d="M61.9278 108.866C61.9278 108.866 60.8252 103.102 61.2662 98.8556C61.7073 94.609 64.1331 88.9973 64.1331 88.9973C64.1331 88.9973 65.2357 94.7606 64.7946 99.0073C64.1331 103.254 61.9278 108.866 61.9278 108.866Z" fill="#FFFEFA"/>
<path d="M59.2813 131.009C59.2813 131.009 58.1787 125.246 58.6198 120.999C59.0608 116.753 61.4866 111.141 61.4866 111.141C61.4866 111.141 62.5892 116.904 62.1482 121.151C61.7071 125.398 59.2813 131.009 59.2813 131.009Z" fill="#FFFEFA"/>
<path d="M56.6349 153.152C56.6349 153.152 55.5322 147.389 55.9733 143.142C56.4143 138.896 58.8401 133.284 58.8401 133.284C58.8401 133.284 59.9427 139.047 59.5017 143.294C59.0606 147.541 56.6349 153.152 56.6349 153.152Z" fill="#FFFEFA"/>
<path d="M70.087 165.286C70.087 165.286 68.1023 165.589 65.015 165.892C63.4713 166.044 61.9276 166.196 60.1634 166.347C59.2813 166.347 58.3992 166.499 57.7376 166.499H57.0761H55.7529C54.8708 166.499 54.2092 166.499 53.3271 166.499C53.3271 165.892 53.5477 165.437 53.5477 164.831L53.7682 163.921V163.466C53.9887 162.859 53.9887 162.252 54.2093 161.797C54.4298 160.584 54.8708 159.522 55.0914 158.612C55.7529 156.641 56.4145 155.276 56.4145 155.276C56.4145 155.276 56.635 156.792 56.8556 158.764C56.8556 159.826 57.0761 160.887 57.0761 162.101C57.0761 162.707 57.0761 163.314 57.0761 163.921C57.0761 164.072 57.0761 164.224 57.0761 164.224H57.5171C58.3992 164.224 59.2813 164.224 60.1634 164.376C61.9276 164.527 63.4713 164.527 65.015 164.679C67.8818 164.982 70.087 165.286 70.087 165.286Z" fill="#FFFEFA"/>
<path d="M102.725 164.831C102.725 164.831 94.3449 166.196 88.1702 166.196C81.775 166.348 73.395 165.134 73.395 165.134C73.395 165.134 81.775 163.769 87.9497 163.769C94.3449 163.769 102.725 164.831 102.725 164.831Z" fill="#FFFEFA"/>
<path d="M135.363 164.376C135.363 164.376 126.983 165.741 120.808 165.741C114.413 165.892 106.033 164.679 106.033 164.679C106.033 164.679 114.413 163.314 120.587 163.314C126.983 163.162 135.363 164.376 135.363 164.376Z" fill="#FFFEFA"/>
<path d="M168 163.769C168 163.769 159.62 165.134 153.446 165.134C147.05 165.286 138.67 164.072 138.67 164.072C138.67 164.072 147.05 162.707 153.225 162.707C159.62 162.707 168 163.769 168 163.769Z" fill="#FFFEFA"/>
<path d="M200.638 163.314C200.638 163.314 192.258 164.679 186.083 164.679C179.688 164.831 171.308 163.618 171.308 163.618C171.308 163.618 179.688 162.253 185.863 162.253C192.258 162.253 200.638 163.314 200.638 163.314Z" fill="#FFFEFA"/>
<path d="M233.275 162.859C233.275 162.859 224.895 164.224 218.721 164.224C212.325 164.376 203.946 163.163 203.946 163.163C203.946 163.163 212.325 161.798 218.5 161.798C224.895 161.798 233.275 162.859 233.275 162.859Z" fill="#FFFEFA"/>
<path d="M265.693 162.404C265.693 162.404 257.313 163.769 251.138 163.769C244.743 163.921 236.363 162.708 236.363 162.708C236.363 162.708 244.743 161.343 250.917 161.343C257.313 161.343 265.693 162.404 265.693 162.404Z" fill="#FFFEFA"/>
<path d="M298.33 161.949C298.33 161.949 289.95 163.314 283.776 163.314C277.38 163.466 269 162.252 269 162.252C269 162.252 277.38 160.887 283.555 160.887C289.95 160.887 298.33 161.949 298.33 161.949Z" fill="#FFFEFA"/>
<path d="M330.968 161.494C330.968 161.494 322.588 162.859 316.413 162.859C310.018 163.011 301.638 161.797 301.638 161.797C301.638 161.797 310.018 160.432 316.193 160.432C322.588 160.432 330.968 161.494 330.968 161.494Z" fill="#FFFEFA"/>
<path d="M363.606 161.039C363.606 161.039 355.226 162.404 349.051 162.404C342.656 162.556 334.276 161.343 334.276 161.343C334.276 161.343 342.656 159.978 348.831 159.978C355.226 159.978 363.606 161.039 363.606 161.039Z" fill="#FFFEFA"/>
<path d="M396.243 160.584C396.243 160.584 387.863 161.949 381.689 161.949C375.294 162.101 366.914 160.888 366.914 160.888C366.914 160.888 375.293 159.523 381.468 159.523C387.863 159.523 396.243 160.584 396.243 160.584Z" fill="#FFFEFA"/>
<path d="M428.881 160.129C428.881 160.129 420.501 161.494 414.326 161.494C407.931 161.646 399.551 160.433 399.551 160.433C399.551 160.433 407.931 159.068 414.106 159.068C420.501 159.068 428.881 160.129 428.881 160.129Z" fill="#FFFEFA"/>
<path d="M461.519 159.674C461.519 159.674 453.139 161.039 446.964 161.039C440.569 161.191 432.189 159.977 432.189 159.977C432.189 159.977 440.569 158.612 446.744 158.612C453.139 158.461 461.519 159.674 461.519 159.674Z" fill="#FFFEFA"/>
<path d="M494.156 159.068C494.156 159.068 485.777 160.433 479.602 160.433C473.207 160.584 464.827 159.371 464.827 159.371C464.827 159.371 473.207 158.006 479.381 158.006C485.777 158.006 494.156 159.068 494.156 159.068Z" fill="#FFFEFA"/>
<path d="M526.794 158.613C526.794 158.613 518.414 159.978 512.24 159.978C505.844 160.129 497.464 158.916 497.464 158.916C497.464 158.916 505.844 157.551 512.019 157.551C518.414 157.551 526.794 158.613 526.794 158.613Z" fill="#FFFEFA"/>
<path d="M559.432 158.158C559.432 158.158 551.052 159.523 544.877 159.523C538.482 159.674 530.102 158.461 530.102 158.461C530.102 158.461 538.482 157.096 544.656 157.096C551.052 157.096 559.432 158.158 559.432 158.158Z" fill="#FFFEFA"/>
<path d="M591.849 157.703C591.849 157.703 583.469 159.068 577.294 159.068C570.899 159.219 562.519 158.006 562.519 158.006C562.519 158.006 570.899 156.641 577.074 156.641C583.469 156.641 591.849 157.703 591.849 157.703Z" fill="#FFFEFA"/>
<path d="M624.487 157.247C624.487 157.247 616.107 158.612 609.932 158.612C603.537 158.764 595.157 157.551 595.157 157.551C595.157 157.551 603.537 156.186 609.712 156.186C616.107 156.186 624.487 157.247 624.487 157.247Z" fill="#FFFEFA"/>
<path d="M657.124 156.792C657.124 156.792 648.745 158.157 642.57 158.157C636.175 158.309 627.795 157.096 627.795 157.096C627.795 157.096 636.175 155.731 642.349 155.731C648.745 155.731 657.124 156.792 657.124 156.792Z" fill="#FFFEFA"/>
<path d="M689.762 156.337C689.762 156.337 681.382 157.702 675.207 157.702C668.812 157.854 660.432 156.641 660.432 156.641C660.432 156.641 668.812 155.276 674.987 155.276C681.382 155.276 689.762 156.337 689.762 156.337Z" fill="#FFFEFA"/>
<path d="M722.4 155.882C722.4 155.882 714.02 157.247 707.845 157.247C701.45 157.399 693.07 156.186 693.07 156.186C693.07 156.186 701.45 154.821 707.625 154.821C714.02 154.821 722.4 155.882 722.4 155.882Z" fill="#FFFEFA"/>
<path d="M755.037 155.427C755.037 155.427 746.657 156.792 740.483 156.792C734.087 156.944 725.708 155.73 725.708 155.73C725.708 155.73 734.087 154.365 740.262 154.365C746.657 154.365 755.037 155.427 755.037 155.427Z" fill="#FFFEFA"/>
<path d="M787.675 154.972C787.675 154.972 779.295 156.337 773.12 156.337C766.725 156.489 758.345 155.276 758.345 155.276C758.345 155.276 766.725 153.911 772.9 153.911C779.295 153.759 787.675 154.972 787.675 154.972Z" fill="#FFFEFA"/>
<path d="M820.313 154.517C820.313 154.517 811.933 155.882 805.758 155.882C799.363 156.034 790.983 154.821 790.983 154.821C790.983 154.821 799.363 153.456 805.538 153.456C811.933 153.304 820.313 154.517 820.313 154.517Z" fill="#FFFEFA"/>
<path d="M852.95 153.911C852.95 153.911 844.57 155.276 838.396 155.276C832.001 155.427 823.621 154.214 823.621 154.214C823.621 154.214 832.001 152.849 838.175 152.849C844.57 152.849 852.95 153.911 852.95 153.911Z" fill="#FFFEFA"/>
<path d="M885.588 153.456C885.588 153.456 877.208 154.821 871.033 154.821C864.638 154.973 856.258 153.759 856.258 153.759C856.258 153.759 864.638 152.394 870.813 152.394C877.208 152.394 885.588 153.456 885.588 153.456Z" fill="#FFFEFA"/>
<path d="M918.005 153.001C918.005 153.001 909.625 154.366 903.451 154.366C897.056 154.518 888.676 153.304 888.676 153.304C888.676 153.304 897.055 151.939 903.23 151.939C909.625 151.939 918.005 153.001 918.005 153.001Z" fill="#FFFEFA"/>
<path d="M950.643 152.546C950.643 152.546 942.263 153.911 936.088 153.911C929.693 154.062 921.313 152.849 921.313 152.849C921.313 152.849 929.693 151.484 935.868 151.484C942.263 151.484 950.643 152.546 950.643 152.546Z" fill="#FFFEFA"/>
<path d="M983.28 152.091C983.28 152.091 974.901 153.456 968.726 153.456C962.331 153.607 953.951 152.394 953.951 152.394C953.951 152.394 962.331 151.029 968.505 151.029C974.901 151.029 983.28 152.091 983.28 152.091Z" fill="#FFFEFA"/>
<path d="M1015.92 151.636C1015.92 151.636 1007.54 153.001 1001.36 153.001C994.968 153.152 986.588 151.939 986.588 151.939C986.588 151.939 994.968 150.574 1001.14 150.574C1007.54 150.574 1015.92 151.636 1015.92 151.636Z" fill="#FFFEFA"/>
<path d="M1048.56 151.181C1048.56 151.181 1040.18 152.546 1034 152.546C1027.61 152.698 1019.23 151.484 1019.23 151.484C1019.23 151.484 1027.61 150.119 1033.78 150.119C1040.18 150.119 1048.56 151.181 1048.56 151.181Z" fill="#FFFEFA"/>
<path d="M1081.19 150.726C1081.19 150.726 1072.81 152.091 1066.64 152.091C1060.24 152.243 1051.86 151.029 1051.86 151.029C1051.86 151.029 1060.24 149.664 1066.42 149.664C1072.81 149.664 1081.19 150.726 1081.19 150.726Z" fill="#FFFEFA"/>
<path d="M1113.83 150.271C1113.83 150.271 1105.45 151.636 1099.28 151.636C1092.88 151.788 1084.5 150.574 1084.5 150.574C1084.5 150.574 1092.88 149.209 1099.06 149.209C1105.45 149.209 1113.83 150.271 1113.83 150.271Z" fill="#FFFEFA"/>
<path d="M1146.47 149.816C1146.47 149.816 1138.09 151.181 1131.91 151.181C1125.52 151.333 1117.14 150.12 1117.14 150.12C1117.14 150.12 1125.52 148.755 1131.69 148.755C1138.09 148.603 1146.47 149.816 1146.47 149.816Z" fill="#FFFEFA"/>
<path d="M1179.11 149.209C1179.11 149.209 1170.73 150.574 1164.55 150.574C1158.16 150.726 1149.78 149.513 1149.78 149.513C1149.78 149.513 1158.16 148.148 1164.33 148.148C1170.73 148.148 1179.11 149.209 1179.11 149.209Z" fill="#FFFEFA"/>
<path d="M1198.51 138.896C1198.51 138.896 1198.73 140.412 1198.95 142.384C1198.95 143.446 1199.17 144.507 1199.17 145.721C1199.17 146.327 1199.17 146.934 1199.17 147.541V147.996V148.602C1199.17 149.209 1198.95 149.664 1198.95 150.271C1198.07 150.271 1197.41 150.271 1196.53 150.271H1195.65H1194.98C1194.1 150.271 1193.22 150.271 1192.34 150.119C1190.57 149.967 1189.03 149.967 1187.49 149.816C1184.62 149.512 1182.41 149.361 1182.41 149.361C1182.41 149.361 1184.62 149.057 1187.49 148.754C1189.03 148.602 1190.57 148.451 1192.34 148.299C1193.22 148.299 1194.1 148.147 1194.76 148.147H1195.43H1195.65V147.996V147.541C1195.87 146.934 1195.87 146.327 1196.09 145.872C1196.31 144.659 1196.75 143.597 1197.19 142.687C1197.85 140.261 1198.51 138.896 1198.51 138.896Z" fill="#FFFEFA"/>
<path d="M1201.6 115.842C1201.6 115.842 1202.48 121.909 1202.04 126.307C1201.38 130.705 1198.95 136.62 1198.95 136.62C1198.95 136.62 1198.07 130.554 1198.51 126.155C1198.95 121.605 1201.6 115.842 1201.6 115.842Z" fill="#FFFEFA"/>
<path d="M1204.69 92.9407C1204.69 92.9407 1205.57 99.0073 1205.13 103.406C1204.47 107.804 1202.04 113.719 1202.04 113.719C1202.04 113.719 1201.16 107.652 1201.6 103.254C1202.04 98.704 1204.69 92.9407 1204.69 92.9407Z" fill="#FFFEFA"/>
<path d="M1207.55 69.8875C1207.55 69.8875 1208.44 75.9541 1208 80.3525C1207.33 84.7508 1204.91 90.6658 1204.91 90.6658C1204.91 90.6658 1204.03 84.5991 1204.47 80.2008C1205.13 75.6508 1207.55 69.8875 1207.55 69.8875Z" fill="#FFFEFA"/>
<path d="M1210.64 46.8342C1210.64 46.8342 1211.52 52.9009 1211.08 57.2992C1210.42 61.6976 1208 67.6126 1208 67.6126C1208 67.6126 1207.11 61.5459 1207.55 57.1476C1208.22 52.5976 1210.64 46.8342 1210.64 46.8342Z" fill="#FFFEFA"/>
<path d="M1213.73 23.9324C1213.73 23.9324 1214.61 29.999 1214.17 34.3974C1213.51 38.7957 1211.08 44.7107 1211.08 44.7107C1211.08 44.7107 1210.2 38.644 1210.64 34.2457C1211.3 29.6957 1213.73 23.9324 1213.73 23.9324Z" fill="#FFFEFA"/>
<path d="M1200.72 11.7988C1200.72 11.7988 1202.92 11.4955 1205.79 11.0405C1207.33 10.8888 1208.88 10.7372 1210.64 10.5855C1211.52 10.5855 1212.41 10.4338 1213.07 10.4338H1213.73H1215.05C1215.93 10.4338 1216.6 10.4338 1217.48 10.4338C1217.48 11.0405 1217.26 11.4955 1217.26 12.1022L1217.04 13.0122V13.4672C1216.82 14.0738 1216.82 14.6805 1216.6 15.1355C1216.38 16.3488 1215.93 17.4105 1215.49 18.3205C1214.83 20.2922 1214.17 21.6572 1214.17 21.6572C1214.17 21.6572 1213.95 20.1405 1213.73 18.1688C1213.73 17.1072 1213.51 16.0455 1213.51 14.8322C1213.51 14.2255 1213.51 13.6188 1213.51 13.0122V12.8605C1213.51 12.7088 1213.51 12.7088 1213.51 12.7088C1213.51 12.7088 1213.51 12.7088 1213.29 12.7088H1213.07C1212.19 12.7088 1211.3 12.7088 1210.42 12.5572C1208.66 12.4055 1207.11 12.4055 1205.57 12.2538C1202.7 11.9505 1200.72 11.7988 1200.72 11.7988Z" fill="#FFFEFA"/>
<path d="M1167.86 12.2544C1167.86 12.2544 1176.24 10.8894 1182.64 10.7377C1189.03 10.5861 1197.41 11.6477 1197.41 11.6477C1197.41 11.6477 1189.03 13.0127 1182.64 13.1644C1176.24 13.3161 1167.86 12.2544 1167.86 12.2544Z" fill="#FFFEFA"/>
<path d="M1135.22 12.8608C1135.22 12.8608 1143.6 11.4958 1150 11.3442C1156.39 11.1925 1164.77 12.2542 1164.77 12.2542C1164.77 12.2542 1156.39 13.6192 1150 13.7708C1143.6 13.9225 1135.22 12.8608 1135.22 12.8608Z" fill="#FFFEFA"/>
<path d="M1102.58 13.4673C1102.58 13.4673 1110.96 12.1023 1117.36 11.9506C1123.75 11.799 1132.13 12.8606 1132.13 12.8606C1132.13 12.8606 1123.75 14.2256 1117.36 14.3773C1110.96 14.529 1102.58 13.4673 1102.58 13.4673Z" fill="#FFFEFA"/>
<path d="M1069.73 14.0737C1069.73 14.0737 1078.11 12.7087 1084.5 12.5571C1090.9 12.4054 1099.28 13.4671 1099.28 13.4671C1099.28 13.4671 1090.9 14.8321 1084.5 14.9837C1078.33 15.1354 1069.73 14.0737 1069.73 14.0737Z" fill="#FFFEFA"/>
<path d="M1037.09 14.6812C1037.09 14.6812 1045.47 13.3162 1051.86 13.1645C1058.26 13.0128 1066.64 14.0745 1066.64 14.0745C1066.64 14.0745 1058.26 15.4395 1051.86 15.5912C1045.47 15.7428 1037.09 14.6812 1037.09 14.6812Z" fill="#FFFEFA"/>
<path d="M1004.45 15.2876C1004.45 15.2876 1012.83 13.9226 1019.23 13.7709C1025.62 13.6193 1034 14.6809 1034 14.6809C1034 14.6809 1025.62 16.0459 1019.23 16.1976C1012.83 16.3493 1004.45 15.2876 1004.45 15.2876Z" fill="#FFFEFA"/>
<path d="M971.593 15.894C971.593 15.894 979.973 14.529 986.368 14.3774C992.763 14.2257 1001.14 15.2874 1001.14 15.2874C1001.14 15.2874 992.763 16.6524 986.368 16.804C980.193 16.9557 971.593 15.894 971.593 15.894Z" fill="#FFFEFA"/>
<path d="M938.955 16.5005C938.955 16.5005 947.335 15.1355 953.73 14.9838C960.125 14.8322 968.505 15.8938 968.505 15.8938C968.505 15.8938 960.125 17.2588 953.73 17.4105C947.335 17.5622 938.955 16.5005 938.955 16.5005Z" fill="#FFFEFA"/>
<path d="M906.318 17.1074C906.318 17.1074 914.698 15.7424 921.093 15.5908C927.488 15.4391 935.868 16.5008 935.868 16.5008C935.868 16.5008 927.488 17.8658 921.093 18.0174C914.698 18.1691 906.318 17.1074 906.318 17.1074Z" fill="#FFFEFA"/>
<path d="M873.68 17.7144C873.68 17.7144 882.06 16.3494 888.455 16.1977C894.85 16.046 903.23 17.1077 903.23 17.1077C903.23 17.1077 894.85 18.4727 888.455 18.6244C882.06 18.776 873.68 17.7144 873.68 17.7144Z" fill="#FFFEFA"/>
<path d="M840.822 18.3208C840.822 18.3208 849.201 16.9558 855.597 16.8041C861.992 16.6525 870.372 17.7141 870.372 17.7141C870.372 17.7141 861.992 19.0791 855.597 19.2308C849.201 19.3825 840.822 18.3208 840.822 18.3208Z" fill="#FFFEFA"/>
<path d="M808.184 18.9277C808.184 18.9277 816.564 17.5627 822.959 17.4111C829.354 17.2594 837.734 18.3211 837.734 18.3211C837.734 18.3211 829.354 19.6861 822.959 19.8377C816.564 19.9894 808.184 18.9277 808.184 18.9277Z" fill="#FFFEFA"/>
<path d="M775.546 19.5342C775.546 19.5342 783.926 18.1692 790.322 18.0175C796.717 17.8658 805.097 18.9275 805.097 18.9275C805.097 18.9275 796.717 20.2925 790.322 20.4442C783.926 20.5958 775.546 19.5342 775.546 19.5342Z" fill="#FFFEFA"/>
<path d="M742.688 20.1406C742.688 20.1406 751.068 18.7756 757.463 18.624C763.858 18.4723 772.238 19.534 772.238 19.534C772.238 19.534 763.858 20.899 757.463 21.0506C751.288 21.0506 742.688 20.1406 742.688 20.1406Z" fill="#FFFEFA"/>
<path d="M710.05 20.5957C710.05 20.5957 718.43 19.2307 724.825 19.079C731.221 18.9274 739.601 19.989 739.601 19.989C739.601 19.989 731.221 21.354 724.825 21.5057C718.43 21.6574 710.05 20.5957 710.05 20.5957Z" fill="#FFFEFA"/>
<path d="M677.413 21.2026C677.413 21.2026 685.793 19.8376 692.188 19.686C698.583 19.5343 706.963 20.596 706.963 20.596C706.963 20.596 698.583 21.961 692.188 22.1126C685.793 22.2643 677.413 21.2026 677.413 21.2026Z" fill="#FFFEFA"/>
<path d="M644.775 21.8091C644.775 21.8091 653.155 20.4441 659.55 20.2924C665.946 20.1408 674.326 21.2024 674.326 21.2024C674.326 21.2024 665.946 22.5674 659.55 22.7191C653.155 22.8707 644.775 21.8091 644.775 21.8091Z" fill="#FFFEFA"/>
<path d="M611.917 22.4155C611.917 22.4155 620.297 21.0505 626.692 20.8989C633.087 20.7472 641.467 21.8089 641.467 21.8089C641.467 21.8089 633.087 23.1739 626.692 23.3255C620.297 23.4772 611.917 22.4155 611.917 22.4155Z" fill="#FFFEFA"/>
<path d="M579.279 23.0225C579.279 23.0225 587.659 21.6575 594.054 21.5058C600.449 21.3541 608.829 22.4158 608.829 22.4158C608.829 22.4158 600.449 23.7808 594.054 23.9325C587.659 24.0841 579.279 23.0225 579.279 23.0225Z" fill="#FFFEFA"/>
<path d="M546.641 23.6294C546.641 23.6294 555.021 22.2644 561.416 22.1127C567.812 21.9611 576.192 23.0227 576.192 23.0227C576.192 23.0227 567.812 24.3877 561.416 24.5394C555.021 24.6911 546.641 23.6294 546.641 23.6294Z" fill="#FFFEFA"/>
<path d="M513.783 24.2358C513.783 24.2358 522.163 22.8708 528.558 22.7192C534.954 22.5675 543.334 23.6292 543.334 23.6292C543.334 23.6292 534.954 24.9942 528.558 25.1458C522.384 25.2975 513.783 24.2358 513.783 24.2358Z" fill="#FFFEFA"/>
<path d="M481.146 24.8423C481.146 24.8423 489.525 23.4773 495.921 23.3256C502.316 23.174 510.696 24.2356 510.696 24.2356C510.696 24.2356 502.316 25.6006 495.921 25.7523C489.525 25.904 481.146 24.8423 481.146 24.8423Z" fill="#FFFEFA"/>
<path d="M448.508 25.4487C448.508 25.4487 456.888 24.0837 463.283 23.9321C469.678 23.7804 478.058 24.8421 478.058 24.8421C478.058 24.8421 469.678 26.2071 463.283 26.3587C456.888 26.5104 448.508 25.4487 448.508 25.4487Z" fill="#FFFEFA"/>
<path d="M415.649 26.0562C415.649 26.0562 424.029 24.6912 430.425 24.5395C436.82 24.3878 445.2 25.4495 445.2 25.4495C445.2 25.4495 436.82 26.8145 430.425 26.9662C424.25 27.1178 415.649 26.0562 415.649 26.0562Z" fill="#FFFEFA"/>
<path d="M383.012 26.6626C383.012 26.6626 391.392 25.2976 397.787 25.1459C404.182 24.9943 412.562 26.0559 412.562 26.0559C412.562 26.0559 404.182 27.4209 397.787 27.5726C391.392 27.7243 383.012 26.6626 383.012 26.6626Z" fill="#FFFEFA"/>
<path d="M350.374 27.269C350.374 27.269 358.754 25.904 365.149 25.7524C371.545 25.6007 379.925 26.6624 379.925 26.6624C379.925 26.6624 371.545 28.0274 365.149 28.179C358.754 28.3307 350.374 27.269 350.374 27.269Z" fill="#FFFEFA"/>
<path d="M317.737 27.8755C317.737 27.8755 326.117 26.5105 332.512 26.3588C338.907 26.2072 347.287 27.2688 347.287 27.2688C347.287 27.2688 338.907 28.6338 332.512 28.7855C326.117 28.9372 317.737 27.8755 317.737 27.8755Z" fill="#FFFEFA"/>
<path d="M284.878 28.4824C284.878 28.4824 293.258 27.1174 299.654 26.9658C306.049 26.8141 314.429 27.8758 314.429 27.8758C314.429 27.8758 306.049 29.2408 299.654 29.3924C293.258 29.3924 284.878 28.4824 284.878 28.4824Z" fill="#FFFEFA"/>
<path d="M252.241 28.9375C252.241 28.9375 260.621 27.5725 267.016 27.4208C273.411 27.2692 281.791 28.3308 281.791 28.3308C281.791 28.3308 273.411 29.6958 267.016 29.8475C260.621 29.9992 252.241 28.9375 252.241 28.9375Z" fill="#FFFEFA"/>
<path d="M219.603 29.5444C219.603 29.5444 227.983 28.1794 234.378 28.0278C240.773 27.8761 249.153 28.9378 249.153 28.9378C249.153 28.9378 240.773 30.3028 234.378 30.4544C227.983 30.6061 219.603 29.5444 219.603 29.5444Z" fill="#FFFEFA"/>
<path d="M186.745 30.1509C186.745 30.1509 195.125 28.7859 201.52 28.6342C207.915 28.4825 216.295 29.5442 216.295 29.5442C216.295 29.5442 207.915 30.9092 201.52 31.0609C195.345 31.2125 186.745 30.1509 186.745 30.1509Z" fill="#FFFEFA"/>
<path d="M154.107 30.7573C154.107 30.7573 162.487 29.3923 168.882 29.2407C175.277 29.089 183.657 30.1507 183.657 30.1507C183.657 30.1507 175.277 31.5157 168.882 31.6673C162.487 31.819 154.107 30.7573 154.107 30.7573Z" fill="#FFFEFA"/>
<path d="M121.469 31.3643C121.469 31.3643 129.849 29.9993 136.245 29.8476C142.64 29.6959 151.02 30.7576 151.02 30.7576C151.02 30.7576 142.64 32.1226 136.245 32.2743C129.849 32.4259 121.469 31.3643 121.469 31.3643Z" fill="#FFFEFA"/>
<path d="M88.8315 31.9707C88.8315 31.9707 97.2115 30.6057 103.607 30.454C110.002 30.3024 118.382 31.364 118.382 31.364C118.382 31.364 110.002 32.729 103.607 32.8807C97.2115 33.0324 88.8315 31.9707 88.8315 31.9707Z" fill="#FFFEFA"/>
</svg>
