<svg width="929" height="193" viewBox="0 0 929 193" fill="none" xmlns="http://www.w3.org/2000/svg">
<path d="M59.5505 17.6913C59.5505 17.6913 52.7856 72.5364 14.3148 91.3027C48.7533 105.623 41.1048 166.427 41.1048 166.427L69.0962 97.6831L59.5505 17.6913Z" fill="#3f8caf"/>
<path d="M16.4157 92.3924C15.21 99.2405 10.8576 104.229 6.92769 103.549C2.99777 102.869 0.700259 96.6944 2.05763 89.8495C3.26336 83.0014 7.61575 78.0125 11.5457 78.6927C15.6272 79.3761 17.7731 85.5475 16.4157 92.3924Z" fill="#3f8caf"/>
<path d="M876.178 18.3268C876.178 18.3268 879.015 71.0263 908.985 88.6462C908.985 88.6462 874.366 104.606 854.383 174.879L842.992 96.0587L876.178 18.3268Z" fill="#3f8caf"/>
<path d="M926.853 90.2354C925.645 97.1882 921.291 102.255 917.361 101.565C913.431 100.876 911.136 94.6079 912.495 87.6583C913.703 80.7055 918.057 75.6391 921.987 76.3284C925.917 77.0178 928.061 83.2825 926.853 90.2354Z" fill="#3f8caf"/>
<path d="M58.2152 17.9144L887.096 18.556L865.076 174.842L39.7435 173.697L58.2152 17.9144Z" fill="#3e8daf"/>
<path d="M74.853 36.3385C74.853 36.3385 74.6644 34.8176 74.4853 32.8417C74.5076 31.7803 74.3094 30.7142 74.3349 29.5011C74.3476 28.8946 74.3604 28.2881 74.3731 27.6815L74.3826 27.2266L74.3954 26.6201C74.4081 26.0136 74.6382 25.5633 74.6509 24.9568C75.5328 24.9753 76.1942 24.9892 77.0761 25.0077L77.958 25.0262L78.6195 25.0401C79.5014 25.0587 80.3833 25.0772 81.262 25.2473C83.0226 25.436 84.566 25.4684 86.1061 25.6525C88.9659 26.0159 91.1675 26.2139 91.1675 26.2139C91.1675 26.2139 89.1769 26.4755 86.0806 26.8655C84.5341 26.9848 82.9876 27.104 81.2206 27.2186C80.3387 27.2 79.4536 27.3332 78.7922 27.3193L78.1307 27.3054L77.9103 27.3007L77.9071 27.4524L77.8975 27.9073C77.6643 28.5092 77.6516 29.1157 77.4215 29.566C77.1756 30.7744 76.7123 31.8266 76.4728 32.7318C75.5431 34.9877 74.853 36.3385 74.853 36.3385Z" fill="#182947"/>
<path d="M71.9628 58.4264C71.9628 58.4264 70.9815 52.6412 71.5116 48.4047C72.0417 44.1683 74.5848 38.6088 74.5848 38.6088C74.5848 38.6088 75.5662 44.394 75.036 48.6305C74.5059 52.8669 71.9628 58.4264 71.9628 58.4264Z" fill="#182947"/>
<path d="M68.8517 80.5084C68.8517 80.5084 67.8704 74.7232 68.4005 70.4868C68.9306 66.2503 71.4737 60.6908 71.4737 60.6908C71.4737 60.6908 72.4551 66.476 71.925 70.7125C71.3948 74.949 68.8517 80.5084 68.8517 80.5084Z" fill="#182947"/>
<path d="M65.9616 102.596C65.9616 102.596 64.9803 96.8111 65.5104 92.5747C66.0405 88.3382 68.5836 82.7787 68.5836 82.7787C68.5836 82.7787 69.5649 88.5639 69.0348 92.8004C68.2842 97.0322 65.9616 102.596 65.9616 102.596Z" fill="#182947"/>
<path d="M62.851 124.679C62.851 124.679 61.8697 118.894 62.3998 114.658C62.9299 110.421 65.473 104.862 65.473 104.862C65.473 104.862 66.4543 110.647 65.9242 114.883C65.3941 119.12 62.851 124.679 62.851 124.679Z" fill="#182947"/>
<path d="M59.7404 146.762C59.7404 146.762 58.7591 140.977 59.2892 136.74C59.8193 132.504 62.3624 126.944 62.3624 126.944C62.3624 126.944 63.3438 132.73 62.8136 136.966C62.2835 141.202 59.7404 146.762 59.7404 146.762Z" fill="#182947"/>
<path d="M72.9344 159.175C72.9344 159.175 70.9438 159.437 67.8507 159.675C66.3042 159.795 64.7577 159.914 62.9907 160.028C62.1088 160.01 61.2237 160.143 60.5623 160.129L59.9008 160.115L58.578 160.087C57.6961 160.069 57.0347 160.055 56.1527 160.036C56.1655 159.43 56.3955 158.98 56.4083 158.373L56.6478 157.468L56.6574 157.013C56.8906 156.411 56.9034 155.805 57.1334 155.354C57.3793 154.146 57.8426 153.094 58.0822 152.189C58.785 150.231 59.4751 148.88 59.4751 148.88C59.4751 148.88 59.6637 150.401 59.8428 152.377C59.8205 153.439 60.0187 154.505 59.9932 155.718C59.9805 156.324 59.9677 156.931 59.955 157.537C59.9518 157.689 59.9486 157.841 59.9486 157.841L60.3896 157.85C61.2715 157.868 62.1534 157.887 63.0321 158.057C64.7927 158.246 66.3361 158.278 67.8762 158.462C70.736 158.826 72.9344 159.175 72.9344 159.175Z" fill="#182947"/>
<path d="M104.819 160.955C104.819 160.955 96.4121 162.144 90.2388 162.014C83.8418 162.032 75.4891 160.643 75.4891 160.643C75.4891 160.643 83.8959 159.454 90.0692 159.584C96.4662 159.566 104.819 160.955 104.819 160.955Z" fill="#182947"/>
<path d="M137.462 161.035C137.462 161.035 129.055 162.223 122.882 162.094C116.485 162.111 108.132 160.722 108.132 160.722C108.132 160.722 116.539 159.533 122.713 159.663C129.106 159.797 137.462 161.035 137.462 161.035Z" fill="#182947"/>
<path d="M170.102 161.265C170.102 161.265 161.695 162.454 155.522 162.324C149.125 162.341 140.772 160.952 140.772 160.952C140.772 160.952 149.179 159.763 155.352 159.893C161.746 160.027 170.102 161.265 170.102 161.265Z" fill="#182947"/>
<path d="M202.742 161.495C202.742 161.495 194.335 162.684 188.162 162.554C181.765 162.572 173.412 161.183 173.412 161.183C173.412 161.183 181.819 159.994 187.992 160.124C194.386 160.258 202.742 161.495 202.742 161.495Z" fill="#182947"/>
<path d="M235.161 161.721C235.161 161.721 226.755 162.91 220.581 162.78C214.184 162.797 205.832 161.408 205.832 161.408C205.832 161.408 214.238 160.22 220.412 160.349C226.806 160.484 235.161 161.721 235.161 161.721Z" fill="#182947"/>
<path d="M267.802 161.951C267.802 161.951 259.395 163.14 253.221 163.01C246.824 163.028 238.472 161.639 238.472 161.639C238.472 161.639 246.879 160.45 253.052 160.58C259.446 160.714 267.802 161.951 267.802 161.951Z" fill="#182947"/>
<path d="M300.442 162.182C300.442 162.182 292.035 163.37 285.862 163.241C279.465 163.258 271.112 161.869 271.112 161.869C271.112 161.869 279.519 160.68 285.692 160.81C292.086 160.944 300.442 162.182 300.442 162.182Z" fill="#182947"/>
<path d="M333.082 162.412C333.082 162.412 324.675 163.601 318.501 163.471C312.105 163.488 303.752 162.099 303.752 162.099C303.752 162.099 312.159 160.911 318.332 161.04C324.726 161.175 333.082 162.412 333.082 162.412Z" fill="#182947"/>
<path d="M365.722 162.643C365.722 162.643 357.315 163.831 351.142 163.702C344.745 163.719 336.392 162.33 336.392 162.33C336.392 162.33 344.799 161.141 350.972 161.271C357.366 161.405 365.722 162.643 365.722 162.643Z" fill="#182947"/>
<path d="M398.362 162.873C398.362 162.873 389.955 164.062 383.782 163.932C377.385 163.949 369.032 162.56 369.032 162.56C369.032 162.56 377.439 161.372 383.612 161.501C390.006 161.635 398.362 162.873 398.362 162.873Z" fill="#182947"/>
<path d="M431.002 163.104C431.002 163.104 422.595 164.292 416.422 164.163C410.025 164.18 401.672 162.791 401.672 162.791C401.672 162.791 410.079 161.602 416.252 161.732C422.649 161.715 431.002 163.104 431.002 163.104Z" fill="#182947"/>
<path d="M463.642 163.334C463.642 163.334 455.235 164.523 449.062 164.393C442.665 164.411 434.312 163.021 434.312 163.021C434.312 163.021 442.719 161.833 448.892 161.962C455.289 161.945 463.642 163.334 463.642 163.334Z" fill="#182947"/>
<path d="M496.285 163.413C496.285 163.413 487.878 164.601 481.705 164.472C475.308 164.489 466.955 163.1 466.955 163.1C466.955 163.1 475.362 161.911 481.535 162.041C487.929 162.175 496.285 163.413 496.285 163.413Z" fill="#182947"/>
<path d="M528.925 163.644C528.925 163.644 520.518 164.832 514.345 164.703C507.948 164.72 499.595 163.331 499.595 163.331C499.595 163.331 508.002 162.142 514.175 162.272C520.569 162.406 528.925 163.644 528.925 163.644Z" fill="#182947"/>
<path d="M561.345 163.869C561.345 163.869 552.938 165.058 546.765 164.928C540.368 164.946 532.015 163.557 532.015 163.557C532.015 163.557 540.422 162.368 546.595 162.498C552.989 162.632 561.345 163.869 561.345 163.869Z" fill="#182947"/>
<path d="M593.986 164.1C593.986 164.1 585.579 165.288 579.405 165.159C573.008 165.176 564.656 163.787 564.656 163.787C564.656 163.787 573.063 162.598 579.236 162.728C585.63 162.862 593.986 164.1 593.986 164.1Z" fill="#182947"/>
<path d="M626.625 164.33C626.625 164.33 618.219 165.519 612.045 165.389C605.648 165.406 597.296 164.017 597.296 164.017C597.296 164.017 605.702 162.829 611.876 162.958C618.269 163.093 626.625 164.33 626.625 164.33Z" fill="#182947"/>
<path d="M659.265 164.561C659.265 164.561 650.859 165.749 644.685 165.62C638.288 165.637 629.936 164.248 629.936 164.248C629.936 164.248 638.342 163.059 644.516 163.189C650.91 163.323 659.265 164.561 659.265 164.561Z" fill="#182947"/>
<path d="M691.906 164.791C691.906 164.791 683.499 165.98 677.326 165.85C670.929 165.868 662.576 164.479 662.576 164.479C662.576 164.479 670.983 163.29 677.156 163.42C683.55 163.554 691.906 164.791 691.906 164.791Z" fill="#182947"/>
<path d="M724.545 165.022C724.545 165.022 716.139 166.21 709.965 166.081C703.568 166.098 695.216 164.709 695.216 164.709C695.216 164.709 703.622 163.52 709.796 163.65C716.19 163.784 724.545 165.022 724.545 165.022Z" fill="#182947"/>
<path d="M757.186 165.252C757.186 165.252 748.779 166.441 742.606 166.311C736.209 166.329 727.856 164.94 727.856 164.94C727.856 164.94 736.263 163.751 742.436 163.88C748.83 164.015 757.186 165.252 757.186 165.252Z" fill="#182947"/>
<path d="M789.825 165.483C789.825 165.483 781.419 166.672 775.245 166.542C768.848 166.559 760.496 165.17 760.496 165.17C760.496 165.17 768.902 163.982 775.076 164.111C781.473 164.094 789.825 165.483 789.825 165.483Z" fill="#182947"/>
<path d="M822.469 165.561C822.469 165.561 814.062 166.75 807.889 166.621C801.492 166.638 793.139 165.249 793.139 165.249C793.139 165.249 801.546 164.06 807.719 164.19C814.113 164.324 822.469 165.561 822.469 165.561Z" fill="#182947"/>
<path d="M842.087 155.658C842.087 155.658 842.276 157.179 842.455 159.155C842.433 160.216 842.631 161.282 842.605 162.495C842.593 163.102 842.58 163.708 842.567 164.315L842.558 164.77L842.545 165.376C842.532 165.983 842.302 166.433 842.289 167.04C841.407 167.021 840.746 167.007 839.864 166.989L838.982 166.97L838.321 166.956C837.439 166.938 836.557 166.919 835.678 166.749C833.918 166.56 832.374 166.528 830.834 166.344C827.974 165.98 825.773 165.782 825.773 165.782C825.773 165.782 827.984 165.525 830.856 165.282C832.403 165.163 833.949 165.044 835.716 164.929C836.598 164.948 837.483 164.815 838.145 164.829L838.806 164.843L839.027 164.847L839.03 164.696L839.039 164.241C839.273 163.639 839.285 163.032 839.515 162.582C839.761 161.374 840.225 160.321 840.685 159.421C841.397 157.009 842.087 155.658 842.087 155.658Z" fill="#182947"/>
<path d="M845.658 132.674C845.658 132.674 846.412 138.758 845.879 143.146C845.125 147.529 842.576 153.392 842.576 153.392C842.576 153.392 841.821 147.308 842.355 142.92C842.891 138.38 845.658 132.674 845.658 132.674Z" fill="#182947"/>
<path d="M849.226 109.842C849.226 109.842 849.98 115.926 849.447 120.314C848.693 124.698 846.144 130.561 846.144 130.561C846.144 130.561 845.389 124.477 845.923 120.089C846.459 115.549 849.226 109.842 849.226 109.842Z" fill="#182947"/>
<path d="M852.576 86.8545C852.576 86.8545 853.331 92.9384 852.797 97.3265C852.044 101.71 849.494 107.573 849.494 107.573C849.494 107.573 848.74 101.489 849.273 97.1008C850.03 92.5657 852.576 86.8545 852.576 86.8545Z" fill="#182947"/>
<path d="M856.147 63.8711C856.147 63.8711 856.901 69.955 856.368 74.3431C855.614 78.7266 853.065 84.5893 853.065 84.5893C853.065 84.5893 852.31 78.5055 852.844 74.1174C853.601 69.5823 856.147 63.8711 856.147 63.8711Z" fill="#182947"/>
<path d="M859.714 41.0392C859.714 41.0392 860.469 47.1231 859.935 51.5112C859.181 55.8947 856.632 61.7574 856.632 61.7574C856.632 61.7574 855.878 55.6736 856.411 51.2855C857.168 46.7504 859.714 41.0392 859.714 41.0392Z" fill="#182947"/>
<path d="M846.961 28.6351C846.961 28.6351 849.172 28.3781 852.048 27.9834C853.595 27.8642 855.141 27.745 856.908 27.6304C857.79 27.6489 858.675 27.5158 859.337 27.5297L859.998 27.5436L861.321 27.5714C862.203 27.5899 862.864 27.6038 863.746 27.6223C863.733 28.2289 863.503 28.6791 863.491 29.2857L863.251 30.1908L863.241 30.6457C863.008 31.2476 862.995 31.8542 862.765 32.3044C862.519 33.5129 862.056 34.565 861.596 35.4656C860.893 37.4229 860.203 38.7737 860.203 38.7737C860.203 38.7737 860.015 37.2528 859.836 35.2769C859.858 34.2155 859.66 33.1494 859.685 31.9363C859.698 31.3298 859.711 30.7233 859.723 30.1167L859.727 29.9651C859.73 29.8135 859.73 29.8135 859.73 29.8135C859.73 29.8135 859.73 29.8135 859.509 29.8088L859.289 29.8042C858.407 29.7857 857.525 29.7672 856.646 29.597C854.886 29.4083 853.342 29.3759 851.802 29.1919C848.942 28.8284 846.961 28.6351 846.961 28.6351Z" fill="#182947"/>
<path d="M814.1 28.4005C814.1 28.4005 822.507 27.2118 828.904 27.1945C835.301 27.1771 843.657 28.4145 843.657 28.4145C843.657 28.4145 835.25 29.6033 828.853 29.6206C822.456 29.6379 814.1 28.4005 814.1 28.4005Z" fill="#182947"/>
<path d="M781.457 28.3216C781.457 28.3216 789.864 27.1328 796.261 27.1155C802.658 27.0982 811.014 28.3356 811.014 28.3356C811.014 28.3356 802.607 29.5243 796.21 29.5416C789.813 29.559 781.457 28.3216 781.457 28.3216Z" fill="#182947"/>
<path d="M748.814 28.2425C748.814 28.2425 757.22 27.0537 763.617 27.0364C770.014 27.0191 778.37 28.2565 778.37 28.2565C778.37 28.2565 769.963 29.4452 763.566 29.4625C757.169 29.4799 748.814 28.2425 748.814 28.2425Z" fill="#182947"/>
<path d="M715.95 28.1588C715.95 28.1588 724.357 26.9701 730.754 26.9528C737.151 26.9354 745.507 28.1728 745.507 28.1728C745.507 28.1728 737.1 29.3616 730.703 29.3789C724.526 29.4009 715.95 28.1588 715.95 28.1588Z" fill="#182947"/>
<path d="M683.307 28.0807C683.307 28.0807 691.714 26.892 698.111 26.8746C704.508 26.8573 712.864 28.0947 712.864 28.0947C712.864 28.0947 704.457 29.2834 698.06 29.3008C691.663 29.3181 683.307 28.0807 683.307 28.0807Z" fill="#182947"/>
<path d="M650.664 28.0017C650.664 28.0017 659.07 26.813 665.467 26.7957C671.864 26.7783 680.22 28.0157 680.22 28.0157C680.22 28.0157 671.813 29.2045 665.416 29.2218C659.019 29.2391 650.664 28.0017 650.664 28.0017Z" fill="#182947"/>
<path d="M617.8 27.918C617.8 27.918 626.207 26.7293 632.604 26.7119C639.001 26.6946 647.357 27.932 647.357 27.932C647.357 27.932 638.95 29.1207 632.553 29.1381C626.376 29.16 617.8 27.918 617.8 27.918Z" fill="#182947"/>
<path d="M585.157 27.839C585.157 27.839 593.564 26.6503 599.961 26.633C606.358 26.6156 614.714 27.853 614.714 27.853C614.714 27.853 606.307 29.0417 599.91 29.0591C593.513 29.0764 585.157 27.839 585.157 27.839Z" fill="#182947"/>
<path d="M552.513 27.7604C552.513 27.7604 560.92 26.5717 567.317 26.5543C573.714 26.537 582.07 27.7744 582.07 27.7744C582.07 27.7744 573.663 28.9631 567.266 28.9805C560.869 28.9978 552.513 27.7604 552.513 27.7604Z" fill="#182947"/>
<path d="M519.87 27.6818C519.87 27.6818 528.277 26.4931 534.674 26.4757C541.071 26.4584 549.426 27.6958 549.426 27.6958C549.426 27.6958 541.02 28.8845 534.623 28.9019C528.226 28.9192 519.87 27.6818 519.87 27.6818Z" fill="#182947"/>
<path d="M487.006 27.5982C487.006 27.5982 495.413 26.4094 501.81 26.3921C508.207 26.3748 516.563 27.6122 516.563 27.6122C516.563 27.6122 508.156 28.8009 501.759 28.8182C495.362 28.8356 487.006 27.5982 487.006 27.5982Z" fill="#182947"/>
<path d="M454.363 27.5196C454.363 27.5196 462.77 26.3308 469.167 26.3135C475.564 26.2962 483.919 27.5336 483.919 27.5336C483.919 27.5336 475.513 28.7223 469.116 28.7396C462.719 28.757 454.363 27.5196 454.363 27.5196Z" fill="#182947"/>
<path d="M421.72 27.4406C421.72 27.4406 430.127 26.2519 436.524 26.2345C442.921 26.2172 451.276 27.4546 451.276 27.4546C451.276 27.4546 442.87 28.6433 436.473 28.6606C430.076 28.678 421.72 27.4406 421.72 27.4406Z" fill="#182947"/>
<path d="M388.856 27.3568C388.856 27.3568 397.263 26.1681 403.66 26.1508C410.057 26.1334 418.413 27.3708 418.413 27.3708C418.413 27.3708 410.006 28.5596 403.609 28.5769C397.435 28.4472 388.856 27.3568 388.856 27.3568Z" fill="#182947"/>
<path d="M356.216 27.1265C356.216 27.1265 364.623 25.9378 371.02 25.9204C377.417 25.9031 385.772 27.1405 385.772 27.1405C385.772 27.1405 377.366 28.3292 370.969 28.3466C364.572 28.3639 356.216 27.1265 356.216 27.1265Z" fill="#182947"/>
<path d="M323.573 27.0479C323.573 27.0479 331.98 25.8592 338.377 25.8418C344.774 25.8245 353.129 27.0619 353.129 27.0619C353.129 27.0619 344.723 28.2506 338.326 28.2679C331.929 28.2853 323.573 27.0479 323.573 27.0479Z" fill="#182947"/>
<path d="M290.93 26.9689C290.93 26.9689 299.336 25.7802 305.733 25.7628C312.13 25.7455 320.486 26.9829 320.486 26.9829C320.486 26.9829 312.079 28.1716 305.682 28.189C299.285 28.2063 290.93 26.9689 290.93 26.9689Z" fill="#182947"/>
<path d="M258.066 26.8852C258.066 26.8852 266.473 25.6964 272.87 25.6791C279.267 25.6618 287.622 26.8992 287.622 26.8992C287.622 26.8992 279.216 28.0879 272.819 28.1052C266.422 28.1226 258.066 26.8852 258.066 26.8852Z" fill="#182947"/>
<path d="M225.423 26.8067C225.423 26.8067 233.829 25.6179 240.226 25.6006C246.623 25.5833 254.979 26.8207 254.979 26.8207C254.979 26.8207 246.572 28.0094 240.175 28.0267C233.778 28.0441 225.423 26.8067 225.423 26.8067Z" fill="#182947"/>
<path d="M192.779 26.7281C192.779 26.7281 201.186 25.5393 207.583 25.522C213.98 25.5047 222.336 26.7421 222.336 26.7421C222.336 26.7421 213.929 27.9308 207.532 27.9481C201.135 27.9655 192.779 26.7281 192.779 26.7281Z" fill="#182947"/>
<path d="M159.916 26.6444C159.916 26.6444 168.322 25.4557 174.719 25.4384C181.116 25.421 189.472 26.6584 189.472 26.6584C189.472 26.6584 181.065 27.8472 174.668 27.8645C168.492 27.8865 159.916 26.6444 159.916 26.6444Z" fill="#182947"/>
<path d="M127.273 26.5653C127.273 26.5653 135.679 25.3766 142.076 25.3593C148.473 25.3419 156.829 26.5793 156.829 26.5793C156.829 26.5793 148.422 27.7681 142.025 27.7854C135.628 27.8027 127.273 26.5653 127.273 26.5653Z" fill="#182947"/>
<path d="M94.6295 26.4864C94.6295 26.4864 103.036 25.2976 109.433 25.2803C115.83 25.263 124.186 26.5004 124.186 26.5004C124.186 26.5004 115.779 27.6891 109.382 27.7064C102.985 27.7238 94.6295 26.4864 94.6295 26.4864Z" fill="#182947"/>
</svg>
