<svg width="1437" height="831" viewBox="0 0 1437 831" fill="none" xmlns="http://www.w3.org/2000/svg">
<path d="M45.9067 244.686L31.3304 275.245L38.3672 273.403L19.3511 310.492L28.4822 307.311L13.4033 337.284H82.9336L67.6035 308.483L77.1534 313.423L56.2105 273.403L62.4096 275.245L45.9067 244.686Z" fill="#2D3962"/>
<path d="M47.6496 312.93L42.8181 313.443L46.8609 351.49L51.6924 350.978L47.6496 312.93Z" fill="#2D3962"/>
<path d="M590.924 252.472L603.657 279.012L597.458 277.422L614.045 309.822L606.086 307.06L619.322 333.098H558.672L572.075 307.981L563.782 312.334L582.044 277.422L576.599 279.012L590.924 252.472Z" fill="#2D3962"/>
<path d="M589.452 311.843L585.931 344.979L590.096 345.421L593.617 312.285L589.452 311.843Z" fill="#2D3962"/>
<path d="M410.564 320.204L384.427 390.197L252.571 407.276L320.593 502.721L271.336 607.04H290.687L332.824 499.791L272.509 414.393L401.852 397.564L428.575 320.204H410.564Z" fill="#B3C8D3"/>
<path d="M337.683 372.364L325.284 398.318L331.316 396.727L315.064 428.291L322.855 425.612L310.038 451.064H369.181L356.112 426.616L364.154 430.803L346.395 396.727L351.672 398.318L337.683 372.364Z" fill="#2D3962"/>
<path d="M339.124 430.426L334.959 430.868L338.391 463.171L342.556 462.729L339.124 430.426Z" fill="#2D3962"/>
<path d="M543.09 37.8054L532.786 59.406L537.813 58.0664L524.326 84.3555L530.776 82.095L520.053 103.277H569.311L558.421 82.8485L565.122 86.3649L550.379 58.0664L554.735 59.406L543.09 37.8054Z" fill="#2D3962"/>
<path d="M544.312 86.02L540.813 86.3914L543.67 113.283L547.169 112.911L544.312 86.02Z" fill="#2D3962"/>
<path d="M159.25 74.3925L151.208 91.0534L155.145 90.0487L144.673 110.393L149.7 108.719L141.406 125.129H179.522L171.061 109.305L176.339 111.984L164.862 90.0487L168.213 91.0534L159.25 74.3925Z" fill="#2D3962"/>
<path d="M160.124 111.741L157.458 112.024L159.669 132.837L162.335 132.555L160.124 111.741Z" fill="#2D3962"/>
<path d="M0 159.288L163.354 156.441L110.913 295.924L220.486 298.771L219.23 310.074L86.4521 302.12L134.788 163.139L0.5864 166.153L0 159.288Z" fill="#B3C8D3"/>
<path d="M402.271 372.782L668.748 366.754L589 189.5L726.5 179.304L710.5 -34.6958L718.5 -43.6958L742.5 189.5L603.406 196.21L691.701 378.81L401.517 378.224L402.271 372.782Z" fill="#B3C8D3"/>
<path d="M649.648 367.508L633.982 400.495L641.606 398.485L620.998 438.673L630.883 435.24L614.547 467.557H689.69L673.104 436.412L683.408 441.77L660.789 398.485L667.491 400.495L649.648 367.508Z" fill="#2D3962"/>
<path d="M652.328 482.878L647.972 441.854L654.087 441.268L658.444 482.292L652.328 482.878Z" fill="#2D3962"/>
<path d="M194.517 614.157L0 606.789V598.752L204.57 604.528L194.517 614.157Z" fill="#B3C8D3"/>
<path d="M565.039 612.398L592.264 645.804L613.71 647.479L585.73 612.398H565.039Z" fill="#B3C8D3"/>
<path d="M271.084 654.009L829 634L865.5 580L953.48 621.157L1388 556L1459 503V516.5L1388 564.5L948.806 634L873.5 595.5L847 648L266.226 669.916L271.084 654.009Z" fill="#B3C8D3"/>
<path d="M657.271 198.722L667.491 174.107L676.454 198.303L672.182 197.047L680.392 222.918H651.239L661.543 197.801L657.271 198.722Z" fill="#2D3962"/>
<path d="M151.375 242.258L161.595 217.643L170.559 241.839L166.286 240.583L174.496 266.454H145.344L155.647 241.337L151.375 242.258Z" fill="#2D3962"/>
<path d="M463.172 612.398L552.473 415.398L641.689 612.398H463.172Z" fill="#FF606F"/>
<path d="M540.912 455.333H566.463V456.338C566.463 456.338 563.698 456.841 554.148 456.841C544.598 456.841 540.912 456.338 540.912 456.338V455.333Z" fill="#C24751"/>
<path d="M536.556 467.39L574.002 468.394V469.399C574.002 469.399 569.897 469.818 555.907 469.399C541.918 469.064 536.556 468.394 536.556 468.394V467.39Z" fill="#C24751"/>
<path d="M533.708 480.869L575.342 479.111L575.426 480.116C575.426 480.116 570.903 480.785 555.405 481.455C539.907 482.125 533.876 481.874 533.876 481.874L533.708 480.869Z" fill="#C24751"/>
<path d="M517.289 515.196L591.678 513.437V514.442C591.678 514.442 583.552 515.112 555.74 515.782C527.928 516.452 517.205 516.2 517.205 516.2L517.289 515.196Z" fill="#C24751"/>
<path d="M500.87 547.68L606.338 545.922V546.927C606.338 546.927 594.861 547.597 555.405 548.266C516.032 548.936 500.786 548.685 500.786 548.685L500.87 547.68Z" fill="#C24751"/>
<path d="M490.314 576.314L617.061 575.393V576.397C617.061 576.397 603.238 576.984 555.907 577.318C508.577 577.653 490.314 577.318 490.314 577.318V576.314Z" fill="#C24751"/>
<path d="M496.513 560.992L610.526 562.081V563.085C610.526 563.085 598.044 563.504 555.489 563.085C512.933 562.667 496.513 562.081 496.513 562.081V560.992Z" fill="#C24751"/>
<path d="M483.948 582.844L622.59 583.346V584.351C622.59 584.351 607.427 584.77 555.656 584.602C503.885 584.435 483.948 583.849 483.948 583.849V582.844Z" fill="#C24751"/>
<path d="M474.649 599.17L630.045 597.747V598.751C630.045 598.751 613.04 599.421 555.07 599.924C497.016 600.426 474.649 600.175 474.649 600.175V599.17Z" fill="#C24751"/>
<path d="M530.608 485.976H579.698V486.981C579.698 486.981 574.337 487.483 555.991 487.483C537.645 487.483 530.608 486.981 530.608 486.981V485.976Z" fill="#C24751"/>
<path d="M523.153 498.535L586.065 500.628V501.633C586.065 501.633 579.196 501.884 555.74 501.13C532.284 500.377 523.237 499.539 523.237 499.539L523.153 498.535Z" fill="#C24751"/>
<path d="M506.901 529.429H597.458V530.433C597.458 530.433 587.573 530.936 553.729 530.936C519.886 530.936 506.901 530.433 506.901 530.433V529.429Z" fill="#C24751"/>
<path d="M514.524 528.508H553.227V588.119H512.681L514.524 528.508Z" fill="#FFFCF2"/>
<path d="M525.163 528.508L523.907 588.119H541.08L543.007 528.508H525.163Z" fill="#2D3962"/>
<path d="M563.782 612.398L564.285 533.28H588.578L591.762 612.398H563.782Z" fill="#2D3962"/>
<path d="M548.452 589.207H511.425L513.435 527.336H554.4V589.207H548.452V587.7C548.452 587.7 549.541 587.7 552.724 587.616C552.724 587.365 552.724 587.03 552.724 586.695C552.724 586.193 552.724 585.607 552.724 585.021C552.724 583.849 552.64 582.426 552.64 580.835C552.557 577.653 552.557 573.718 552.473 568.862C552.389 564.006 552.389 558.313 552.305 551.615C552.305 545.252 552.222 537.885 552.222 529.512C544.682 529.512 534.043 529.512 521.812 529.596C519.634 529.596 517.456 529.596 515.613 529.596C515.195 542.406 514.776 553.625 514.441 563.253C514.105 572.797 513.77 580.835 513.519 587.198C525.917 587.365 534.629 587.449 540.158 587.533C545.939 587.616 548.452 587.7 548.452 587.7V589.207Z" fill="#FFFCF2"/>
<path d="M562.693 612.315L563.195 532.778L575.259 520.638L589.667 532.694L592.851 612.231L591.343 612.315C591.343 612.315 591.008 607.877 590.337 595.738C590.002 589.709 589.667 581.672 589.081 571.458C588.662 561.327 588.076 548.852 587.405 533.782C585.311 532.024 581.625 528.926 577.772 525.745C577.185 525.326 576.683 524.824 576.18 524.405C575.929 524.154 575.677 523.987 575.426 523.735C571.489 527.67 567.97 531.187 565.457 533.699C565.29 547.848 565.122 559.737 565.038 569.7C564.871 579.83 564.703 587.868 564.62 594.231C564.368 606.873 564.201 612.315 564.201 612.315H562.693Z" fill="#FFFCF2"/>
<path d="M474.23 612.398L558.923 429.63L553.981 418.83L465.183 612.398H474.23Z" fill="#2D3962"/>
<path d="M549.289 415.398H433.685L351.086 612.398H459.989L549.289 415.398Z" fill="#B3C8D3"/>
<path d="M472.471 447.798L403.778 486.73L413.747 462.869L467.528 427.872L472.471 447.798Z" fill="#4F8BAD"/>
<path d="M492.576 478.357L452.533 583.598L399.757 612.398H351.086L372.951 560.239L441.978 491L492.576 478.357Z" fill="#4F8BAD"/>
<path d="M446.167 541.903L421.454 478.357H492.576L464.848 541.903H446.167Z" fill="#FFFCF2"/>
<path d="M421.454 478.357L398.166 539.224L395.569 578.658H445.664L446.167 541.903L421.454 478.357Z" fill="#2D3962"/>
<path d="M464.848 541.903L445.664 578.658L446.167 541.903H464.848Z" fill="#FF606F"/>
<path d="M558.923 501.465C558.923 505.149 555.991 508.079 552.473 508.079C548.871 508.079 546.022 505.149 546.022 501.465C546.022 497.781 548.954 494.851 552.473 494.851C555.991 494.851 558.923 497.781 558.923 501.465Z" fill="#2D3962"/>
<path d="M560.431 501.465C560.431 501.465 560.431 501.632 560.431 502.051C560.431 502.219 560.431 502.47 560.347 502.721C560.347 502.972 560.263 503.307 560.18 503.642C559.845 504.981 558.923 506.823 556.996 508.247C555.991 508.916 554.818 509.419 553.394 509.586C552.054 509.754 550.546 509.586 549.206 508.916C547.865 508.33 546.609 507.242 545.771 505.986C544.933 504.647 544.514 503.139 544.431 501.549C544.431 499.958 544.85 498.451 545.771 497.111C546.609 495.772 547.781 494.767 549.206 494.181C550.546 493.595 552.054 493.344 553.394 493.511C554.734 493.679 555.991 494.181 556.996 494.851C558.923 496.274 559.845 498.116 560.18 499.456C560.263 499.791 560.347 500.125 560.347 500.377C560.431 500.628 560.431 500.879 560.431 501.046C560.431 501.214 560.431 501.465 560.431 501.465H558.42C558.42 501.465 558.42 501.381 558.337 501.298C558.337 501.13 558.253 500.963 558.169 500.628C558.002 500.042 557.667 499.121 556.829 498.116C555.991 497.195 554.483 496.107 552.473 496.19C551.467 496.274 550.378 496.609 549.373 497.363C548.452 498.116 547.698 499.372 547.53 500.879C547.363 502.386 547.865 503.809 548.619 504.814C549.373 505.819 550.462 506.405 551.551 506.656C553.729 507.158 555.488 506.237 556.494 505.233C557.583 504.228 558.002 503.14 558.169 502.47C558.253 502.135 558.337 501.884 558.337 501.716C558.337 501.549 558.42 501.465 558.42 501.465H560.431Z" fill="#FFFCF2"/>
<path d="M564.285 533.28L575.343 522.228L588.578 533.28H564.285Z" fill="#FFFCF2"/>
<path d="M556.075 418.495C556.075 418.495 542.588 448.133 510.503 519.047C478.335 589.961 466.858 615.412 466.858 615.412L459.989 612.315C459.989 612.315 462.921 587.7 496.262 514.191C529.603 440.682 545.436 413.639 545.436 413.639L556.075 418.495Z" fill="#FFFCF2"/>
<path d="M651.574 612.984C651.574 612.984 646.213 599.003 638.255 578.156C634.066 567.774 628.956 555.718 623.595 542.824C620.83 536.378 617.814 529.847 614.799 523.066C613.291 519.717 611.783 516.284 610.275 512.935C609.521 511.261 608.767 509.502 608.013 507.828L605.668 502.721C602.484 495.939 599.301 489.158 596.201 482.544C594.694 479.195 593.018 475.929 591.426 472.664C589.835 469.399 588.243 466.218 586.735 463.12C585.227 459.938 583.719 456.924 582.212 453.826C580.704 450.812 579.196 447.882 577.772 445.036C574.84 439.342 572.159 433.9 569.562 428.961C568.306 426.449 567.049 424.105 565.876 421.844C565.29 420.756 564.703 419.584 564.117 418.579C564.033 418.412 563.949 418.244 563.866 418.077C563.614 418.077 563.363 418.077 563.195 418.077C558.672 418.077 554.651 418.077 551.384 418.077C544.85 418.077 541.08 418.077 541.08 418.077V415.565C541.08 415.565 542.755 415.481 546.525 415.397C548.452 415.314 550.965 415.314 554.064 415.23C555.656 415.23 557.331 415.146 559.174 415.146C560.096 415.146 561.101 415.146 562.106 415.063C562.609 415.063 563.112 415.063 563.698 415.063C564.117 415.063 564.536 415.063 564.955 415.063H565.625C565.709 415.063 565.792 415.063 565.792 415.063L565.876 415.23L566.044 415.565C566.63 416.653 567.3 417.825 567.97 419.081C568.557 420.17 569.143 421.258 569.73 422.347C570.986 424.607 572.243 427.035 573.667 429.63C576.431 434.821 579.531 440.766 582.966 447.464C589.751 460.859 597.961 477.353 607.427 497.614C612.286 507.661 616.307 517.205 620.16 525.829C622.087 530.182 623.93 534.368 625.689 538.303C627.448 542.322 628.956 546.173 630.464 549.773C636.412 564.425 641.354 576.146 644.538 585.523C651.323 604.11 654.087 612.315 654.087 612.315L651.574 612.984Z" fill="#B3C8D3"/>
<path d="M553.227 435.491L630.213 612.398H641.69L555.321 421.844L553.227 435.491Z" fill="#2D3962"/>
<path d="M531.279 588.119C531.279 588.119 531.53 579.16 532.033 557.643C532.535 536.21 532.787 528.508 532.787 528.508H533.541C533.541 528.508 534.127 535.038 533.624 557.308C533.038 579.579 532.535 588.119 532.535 588.119H531.279Z" fill="#FFFCF2"/>
<path d="M523.069 543.494L544.598 542.489L544.682 543.494C544.682 543.494 542.336 544.08 534.294 544.499C526.252 544.834 523.153 544.499 523.153 544.499L523.069 543.494Z" fill="#FFFCF2"/>
<path d="M521.896 572.546L543.426 571.541L543.509 572.546C543.509 572.546 541.164 573.132 533.122 573.551C525.08 573.886 521.98 573.551 521.98 573.551L521.896 572.546Z" fill="#FFFCF2"/>
<path d="M522.147 557.225L543.677 557.811V558.816C543.677 558.816 541.331 559.234 533.289 559.067C525.247 558.816 522.147 558.23 522.147 558.23V557.225Z" fill="#FFFCF2"/>
<path d="M408.972 523.652L407.464 573.216L429.329 572.714L431.172 523.652H408.972Z" fill="#4F8BAD"/>
<path d="M413.747 572.797L422.878 572.881L423.632 523.652H415.925L413.747 572.797Z" fill="#2D3962"/>
<path d="M409.726 523.735L408.135 572.462L428.491 571.96L430.25 524.405H408.889V523.401C408.889 523.401 410.229 523.4 413.664 523.317C415.423 523.317 417.601 523.233 420.533 523.233C423.549 523.233 427.235 523.149 431.591 523.149C431.423 528.005 431.256 534.452 431.004 542.406C430.753 550.192 430.418 559.485 429.999 570.369C429.999 571.458 429.915 572.462 429.915 573.467C420.784 573.635 412.742 573.802 406.543 573.969C406.878 564.76 407.213 556.974 407.381 550.443C407.632 544.164 407.883 539.057 408.051 535.122C408.47 527.252 408.637 523.735 408.637 523.735H409.726Z" fill="#4F8BAD"/>
<path d="M413.664 547.513L427.486 546.173L427.57 547.178C427.57 547.178 426.062 547.848 420.952 548.266C415.758 548.769 413.747 548.434 413.747 548.434L413.664 547.513Z" fill="#4F8BAD"/>
<path d="M412.407 559.318L426.229 559.569V560.574C426.229 560.574 424.721 561.076 419.528 560.909C414.334 560.825 412.407 560.239 412.407 560.239V559.318Z" fill="#4F8BAD"/>
<path d="M412.407 534.619L426.229 534.871V535.875C426.229 535.875 424.721 536.378 419.528 536.21C414.334 536.126 412.407 535.54 412.407 535.54V534.619Z" fill="#4F8BAD"/>
<path d="M587.824 612.398L582.379 542.573H574.421H569.562L568.389 612.315H567.636C567.636 612.315 567.552 608.296 567.552 597.496C567.552 592.054 567.552 585.021 567.636 575.811C567.719 571.207 567.719 566.099 567.803 560.49C567.887 554.629 567.971 548.183 568.054 541.066C569.143 541.066 571.238 541.066 573.332 541.066C578.191 541.066 582.882 541.066 583.72 541.066C584.725 554.211 585.563 565.262 586.317 574.556C586.987 583.598 587.489 590.798 587.908 596.407C588.662 607.626 588.997 612.315 588.997 612.315L587.824 612.398Z" fill="#4F8BAD"/>
<path d="M568.222 575.393L585.73 575.644V576.649C585.73 576.649 583.803 577.151 577.269 577.067C570.735 576.984 568.222 576.481 568.222 576.481V575.393Z" fill="#4F8BAD"/>
<path d="M462.586 447.798L467.361 392.457H486.712L482.021 431.975L472.471 447.798H462.586Z" fill="#2D3962"/>
<path d="M470.544 394.383L471.298 382.159H474.649V394.383H470.544Z" fill="#2D3962"/>
<path d="M476.995 393.629L479.089 374.875H483.445L481.937 393.629H476.995Z" fill="#2D3962"/>
<path d="M149.448 486.813L143.919 480.534C168.129 417.574 202.057 365.833 202.057 365.833L101.364 365.247L39.7915 486.813L48.3362 491.921L72.3786 492.423L149.448 486.813Z" fill="#B3C8D3"/>
<path d="M264.132 488.404L271.085 480.032L203.313 365.08L201.554 366.084C201.554 366.084 208.591 379.983 235.565 425.695C244.11 440.263 251.147 451.901 256.592 460.943C259.357 465.464 261.702 469.315 263.629 472.497C264.634 474.088 265.556 475.511 266.31 476.85C266.728 477.52 267.064 478.106 267.482 478.692C267.65 478.943 267.817 479.195 267.985 479.446C268.069 479.53 268.153 479.697 268.236 479.781C266.226 482.376 264.802 484.218 263.88 485.306C262.959 486.562 262.54 487.065 262.54 487.065L264.132 488.404Z" fill="#B3C8D3"/>
<path d="M138.474 563.253L135.124 486.813H149.448L201.471 385.759L251.063 468.646L253.911 563.253H138.474Z" fill="#FF606F"/>
<path d="M195 399C195 399 196.262 423.697 199.206 482.753C202.15 541.809 203.243 563 203.243 563H204C204 563 203.832 545.081 200.804 483.844C197.776 422.607 196.262 399 196.262 399H195Z" fill="#C24751"/>
<path d="M165 459.052C165 459.052 166.667 474.688 170.75 512.143C174.833 549.545 176.25 563 176.25 563L177 562.948C177 562.948 176.5 551.571 172.333 512.766C168.167 473.961 166.167 459 166.167 459L165 459.052Z" fill="#C24751"/>
<path d="M153 484.05C153 484.05 154.262 495.947 157.206 524.371C160.15 552.795 161.243 563 161.243 563L162 562.95C162 562.95 161.832 554.289 158.72 524.819C155.607 495.35 154.093 484 154.093 484L153 484.05Z" fill="#C24751"/>
<path d="M178 433C178 433 178.951 452.589 181.198 499.399C183.444 546.209 184.222 563 184.222 563H185C185 563 185.086 548.753 182.753 500.226C180.42 451.699 179.21 433 179.21 433H178Z" fill="#C24751"/>
<path d="M205 394C205 394 205.75 419.5 207.665 480.295C209.497 541.165 210.247 563 210.247 563H210.996C210.996 563 211.163 544.53 209.247 481.416C207.332 418.303 206.249 394 206.249 394H205Z" fill="#C24751"/>
<path d="M233.008 441.465C233.008 441.465 232.648 434.45 236.739 488.97C240.83 543.415 242.249 563 242.249 563L243 562.924C243 562.924 242.499 546.364 238.325 489.878C234.151 433.391 234.177 441.39 234.177 441.39L233.008 441.465Z" fill="#C24751"/>
<path d="M220 420.076C220 420.076 221.079 441.91 223.686 494.098C226.292 546.285 227.191 565 227.191 565H228C228 565 228 549.1 225.304 495.011C222.607 440.921 221.259 420 221.259 420L220 420.076Z" fill="#C24751"/>
<path d="M172.402 450.31L174.915 492.339H203.732L201.387 450.31H172.402Z" fill="#FFFCF2"/>
<path d="M251.063 468.646L201.471 385.759L149.448 486.814H140.401L144.171 495.939H150.789L202.057 390.448L251.231 474.506L251.063 468.646Z" fill="#2D3962"/>
<path d="M234.225 450.31H206.916L209.177 492.255H236.571L234.225 450.31Z" fill="#FFFCF2"/>
<path d="M179.857 453.073L181.952 489.995H195.606L193.345 453.073H179.857Z" fill="#2D3962"/>
<path d="M227.691 453.073H215.209L216.549 489.995H229.199L227.691 453.073Z" fill="#2D3962"/>
<path d="M143.752 486.813H55.8757L60.4832 563.253H147.354L143.752 486.813Z" fill="#2D3962"/>
<path d="M61.7396 486.813H39.7915L45.2366 492.842L62.1585 493.093L61.7396 486.813Z" fill="#2D3962"/>
<path d="M177.931 472.664H195.523V471.66C195.523 471.66 193.596 471.157 187.062 471.157C180.528 471.157 177.931 471.66 177.931 471.66V472.664Z" fill="#FFFCF2"/>
<path d="M165.281 501.884L167.208 544.75H197.114L196.193 501.884H165.281Z" fill="#FFFCF2"/>
<path d="M173.323 505.484L175.501 542.406H190.078L187.648 505.484H173.323Z" fill="#2D3962"/>
<path d="M171.983 524.238H190.748V523.233C190.748 523.233 188.737 522.731 181.7 522.731C174.747 522.731 171.983 523.233 171.983 523.233V524.238Z" fill="#FFFCF2"/>
<path d="M212.277 472.664H232.047V471.66C232.047 471.66 229.869 471.157 222.497 471.157C215.125 471.157 212.277 471.66 212.277 471.66V472.664Z" fill="#FFFCF2"/>
<path d="M138.055 401.583L62.8286 440.849L76.1483 414.644L128.003 386.848L138.055 401.583Z" fill="#4F8BAD"/>
<path d="M125.155 401.583L125.992 351.6L141.741 350.428L145.176 387.015L138.055 401.583H125.155Z" fill="#2D3962"/>
<path d="M130.684 353.61L131.186 339.795H134.788L135.542 354.866L130.684 353.61Z" fill="#2D3962"/>
<path d="M75.8132 501.298L78.3264 544.331L96.5886 544.583L94.4943 501.298H75.8132Z" fill="#4F8BAD"/>
<path d="M120.128 501.298H101.028L103.29 544.666L121.385 544.917L120.128 501.298Z" fill="#4F8BAD"/>
<path d="M80.8396 507.075L82.4313 539.81H91.311L89.6356 507.075H80.8396Z" fill="#2D3962"/>
<path d="M115.353 507.075H106.39L107.814 539.81H116.861L115.353 507.075Z" fill="#2D3962"/>
<path d="M81.0071 525.075H91.8136V524.07C91.8136 524.07 90.6408 523.568 86.6198 523.568C82.5987 523.568 81.0071 524.07 81.0071 524.07V525.075Z" fill="#4F8BAD"/>
<path d="M105.887 525.075H118.537V524.07C118.537 524.07 117.196 523.568 112.421 523.568C107.73 523.568 105.887 524.07 105.887 524.07V525.075Z" fill="#4F8BAD"/>
<path d="M113.259 540.648L111.835 505.4H110.83C110.83 505.4 110.495 509.251 110.997 522.396C111.5 535.54 112.254 540.648 112.254 540.648H113.259Z" fill="#4F8BAD"/>
<path d="M87.5412 540.648L86.1171 505.4H85.1119C85.1119 505.4 84.7768 509.251 85.2794 522.396C85.782 535.54 86.536 540.648 86.536 540.648H87.5412Z" fill="#4F8BAD"/>
<path d="M211.355 563.253L208.759 513.186L223.837 499.791L238.33 512.014L241.346 563.253H211.355Z" fill="#FFFCF2"/>
<path d="M214.539 563.253L213.617 515.949H235.649L238.162 563.253H214.539Z" fill="#2D3962"/>
<path d="M197.114 426.616C197.114 429.547 199.46 431.891 202.308 431.891C205.156 431.891 207.502 429.547 207.502 426.616C207.502 423.686 205.156 421.342 202.308 421.342C199.376 421.342 197.114 423.686 197.114 426.616Z" fill="#2D3962"/>
<path d="M180.444 504.312L182.538 542.489L183.543 542.406C183.543 542.406 183.795 538.22 183.041 523.987C182.287 509.754 181.449 504.312 181.449 504.312H180.444Z" fill="#FFFCF2"/>
<path d="M185.721 452.319L187.816 490.497L188.821 490.414C188.821 490.414 189.072 486.227 188.318 471.994C187.481 457.761 186.727 452.319 186.727 452.319H185.721Z" fill="#FFFCF2"/>
<path d="M219.9 452.319L221.994 490.497L223 490.414C223 490.414 223.251 486.227 222.497 471.994C221.743 457.761 220.905 452.319 220.905 452.319H219.9Z" fill="#FFFCF2"/>
<path d="M251.063 468.646L264.634 488.32L251.65 488.404L251.063 468.646Z" fill="#2D3962"/>
<path d="M217.806 563.253V521.14H226.183H232.298L234.979 563.253L235.733 563.169C235.733 563.169 235.733 560.741 235.482 554.127C235.398 550.862 235.147 546.508 234.895 540.899C234.728 538.136 234.56 535.038 234.393 531.605C234.141 527.922 233.974 523.987 233.723 519.549C232.215 519.549 229.618 519.549 226.853 519.549C221.911 519.549 217.387 519.549 216.382 519.549C216.382 527.754 216.466 534.62 216.466 540.313C216.549 545.838 216.549 550.192 216.549 553.541C216.633 560.323 216.717 563.169 216.717 563.169H217.806V563.253Z" fill="#4F8BAD"/>
<path d="M217.052 542.573C217.052 542.573 219.649 542.573 225.848 542.573C232.047 542.573 234.309 542.573 234.309 542.573V541.82C234.309 541.82 232.382 541.066 226.016 541.066C219.649 541.066 217.052 541.401 217.052 541.401V542.573Z" fill="#4F8BAD"/>
<path d="M400.846 102.858L307.525 82.5136L232.717 167.828L233.052 222.499L208.758 250.463L209.596 355.2H330.73L364.406 225.848L400.846 102.858Z" fill="#2D3962"/>
<path d="M361.223 223.755L360.971 173.019L414.25 82.5136L472.22 172.851L474.733 222.75L507.069 250.546L510.336 355.2H330.73L329.473 252.388L361.223 223.755Z" fill="#FF606F"/>
<path d="M341 233.079L345.96 355L347 354.921C347 354.921 347 341.567 345.08 296.054C343.24 250.541 342.04 233 342.04 233L341 233.079Z" fill="#C24751"/>
<path d="M367 225L369.932 355H370.991C370.991 355 371.154 340.79 370.095 292.225C369.036 243.661 368.059 225 368.059 225H367Z" fill="#C24751"/>
<path d="M395 224L397.875 355H398.975C398.975 355 399.228 340.671 398.129 291.732C397.03 242.793 396.099 224 396.099 224H395Z" fill="#C24751"/>
<path d="M430 225L432.91 355H433.991C433.991 355 434.157 340.773 433.076 292.228C431.995 243.683 430.998 225 430.998 225H430Z" fill="#C24751"/>
<path d="M459 226L461.932 353H462.991C462.991 353 463.154 339.116 462.095 291.7C461.036 244.284 460.059 226 460.059 226H459Z" fill="#C24751"/>
<path d="M408 225L413.863 355L415 354.922C415 354.922 414.912 340.686 412.725 292.19C410.537 243.694 409.138 225 409.138 225H408Z" fill="#C24751"/>
<path d="M376 224.158L384.818 355L386 354.921C386 354.921 385.636 340.62 382.364 291.712C379.091 242.884 377.273 224 377.273 224L376 224.158Z" fill="#C24751"/>
<path d="M440 225.079L447.927 355L449 354.921C449 354.921 448.67 340.705 445.697 292.211C442.725 243.718 441.073 225 441.073 225L440 225.079Z" fill="#C24751"/>
<path d="M485 234.071L491.831 355L493 354.929C493 354.929 492.82 341.729 490.303 296.523C487.787 251.387 486.169 234 486.169 234L485 234.071Z" fill="#C24751"/>
<path d="M476 225.076L480.886 351H482C482 351 482 337.203 480.2 290.172C478.4 243.142 477.114 225 477.114 225L476 225.076Z" fill="#C24751"/>
<path d="M348 228L353.818 355H355C355 355 354.909 341.089 352.727 293.718C350.545 246.272 349.091 228 349.091 228H348Z" fill="#C24751"/>
<path d="M474.649 225.094C474.649 225.094 457.559 224.76 416.763 224.006C375.966 223.252 361.306 223.001 361.306 223.001V223.839C361.306 223.839 373.704 224.843 416.009 225.68C458.313 226.434 474.649 226.434 474.649 226.434V225.094Z" fill="#C24751"/>
<path d="M472.918 209C472.918 209 456.224 209.302 416.237 210.056C376.333 210.81 362 211.111 362 211.111V211.865C362 211.865 374.134 212.318 415.586 211.564C457.038 210.734 473 210.131 473 210.131L472.918 209Z" fill="#C24751"/>
<path d="M474 193C474 193 456.978 193.122 416.301 193.488C375.624 193.853 361 193.975 361 193.975V195.194C361 195.194 373.307 196.291 415.502 195.925C457.697 195.56 473.92 194.95 473.92 194.95L474 193Z" fill="#C24751"/>
<path d="M472.92 185.739C472.92 185.739 456.045 185.591 415.766 185.369C375.487 185.074 361 185 361 185V185.739C361 185.739 373.258 186.551 415.05 186.846C456.841 187.142 473 186.92 473 186.92L472.92 185.739Z" fill="#C24751"/>
<path d="M474 168C474 168 456.405 168.209 414.225 168.733C372.128 169.257 357 169.466 357 169.466V170.514C357 170.514 369.826 171.351 413.485 170.828C457.145 170.304 474 169.676 474 169.676V168Z" fill="#C24751"/>
<path d="M463 153.512C463 153.512 447.197 153.14 409.376 152.209C371.555 151.279 358 151 358 151V151.93C358 151.93 369.458 153.14 408.627 154.07C447.796 155 462.925 155 462.925 155L463 153.512Z" fill="#C24751"/>
<path d="M448 131C448 131 433.963 131.58 400.502 133.029C367.041 134.479 355 134.962 355 134.962V135.929C355 135.929 365.178 136.412 399.903 134.866C434.629 133.319 448 132.353 448 132.353V131Z" fill="#C24751"/>
<path d="M435 116C435 116 422.925 116.464 394.141 117.624C365.357 118.783 355 119.17 355 119.17V119.943C355 119.943 363.755 120.329 393.626 119.092C423.498 117.855 435 117.082 435 117.082V116Z" fill="#C24751"/>
<path d="M433 109C433 109 421.085 109 392.681 109C364.221 109 354 109 354 109V110C354 110 362.639 111 392.116 111C421.593 111 433 110.6 433 110.6V109Z" fill="#C24751"/>
<path d="M416.176 91.2208L361.055 180.051L359.631 167.576L414.25 82.5136L416.176 91.2208Z" fill="#2D3962"/>
<path d="M410.815 72.9691H277.367L220.738 172.349L360.971 173.019L410.815 72.9691Z" fill="#B3C8D3"/>
<path d="M361.223 223.755L361.055 213.959H233.052L196.528 252.388H329.473L361.223 223.755Z" fill="#B3C8D3"/>
<path d="M440.889 355.2L438.543 281.608L420.113 270.472L402.186 282.11L403.61 355.2H440.889Z" fill="#FFFCF2"/>
<path d="M406.459 286.798H433.768L437.203 355.2H409.056L406.459 286.798Z" fill="#2D3962"/>
<path d="M454.543 267.458H480.848L482.858 332.093L455.8 330.753L454.543 267.458Z" fill="#2D3962"/>
<path d="M391.799 200.898C391.799 200.898 391.882 203.41 392.05 209.522C392.217 215.634 392.301 217.81 392.301 217.81H393.139C393.139 217.81 393.893 215.969 393.725 209.606C393.558 203.326 393.139 200.898 393.139 200.898H391.799Z" fill="#FFFCF2"/>
<path d="M441.727 200.312C441.727 200.312 441.81 202.908 441.978 209.271C442.145 215.55 442.229 217.81 442.229 217.81H443.067C443.067 217.81 443.821 215.885 443.57 209.354C443.402 202.824 442.899 200.312 442.899 200.312H441.727Z" fill="#FFFCF2"/>
<path d="M403.192 140.952H426.48L430.25 217.978L406.291 218.815L403.192 140.952Z" fill="#2D3962"/>
<path d="M418.103 219.569H431.925L428.072 139.362H412.909H401.516L404.699 219.569H418.103V217.978C418.103 217.978 417.349 217.978 415.506 217.811C413.747 217.727 410.982 217.643 406.71 217.476C406.71 217.224 406.71 216.973 406.71 216.722C406.71 216.387 406.71 216.136 406.71 215.801C406.71 215.048 406.71 214.21 406.71 213.373C406.71 211.615 406.71 209.689 406.626 207.513C406.542 203.159 406.459 197.884 406.375 191.605C406.207 185.326 406.04 178.042 405.788 169.586C405.537 161.632 405.202 152.674 404.867 142.627C406.626 142.627 409.056 142.627 411.569 142.627C415.087 142.627 418.438 142.627 421.202 142.627C422.543 142.627 423.716 142.627 424.637 142.627C424.721 142.627 424.888 142.627 424.972 142.627H425.056C425.642 153.427 426.145 163.055 426.564 171.512C427.066 180.386 427.485 188.005 427.82 194.452C428.239 200.815 428.491 206.005 428.742 209.94C428.909 211.95 428.993 213.541 429.077 214.964C429.077 215.299 429.161 215.634 429.161 215.969C429.161 216.136 429.161 216.303 429.161 216.387V216.555V216.638C429.161 216.806 429.245 216.973 429.245 217.141C420.113 217.224 418.187 217.224 418.187 217.224L418.103 219.569Z" fill="#FFFCF2"/>
<path d="M414.668 140.785L417.768 218.229H418.857C418.857 218.229 419.024 209.773 417.935 180.805C416.763 151.92 415.841 140.785 415.841 140.785H414.668Z" fill="#FFFCF2"/>
<path d="M427.653 161.297C427.653 161.297 424.134 161.297 415.673 161.297C407.213 161.297 404.197 161.297 404.197 161.297V162.134C404.197 162.134 406.794 162.972 415.506 162.972C424.218 162.972 427.569 162.637 427.569 162.637V161.297H427.653Z" fill="#FFFCF2"/>
<path d="M428.993 181.809C428.993 181.809 425.475 181.809 417.014 181.809C408.553 181.809 405.537 181.809 405.537 181.809V182.647C405.537 182.647 408.134 183.484 416.846 183.484C425.558 183.484 428.909 183.149 428.909 183.149V181.809H428.993Z" fill="#FFFCF2"/>
<path d="M451.779 215.801H384.846V218.48C384.846 218.48 392.134 219.82 417.181 219.82C442.145 219.82 451.779 218.48 451.779 218.48V215.801Z" fill="#FFFCF2"/>
<path d="M451.193 198.303C451.193 198.303 441.14 198.303 417.014 198.303C392.888 198.303 384.259 198.303 384.259 198.303V200.312C384.259 200.312 391.547 202.322 416.595 202.322C441.559 202.322 451.193 201.484 451.193 201.484V198.303Z" fill="#FFFCF2"/>
<path d="M435.109 247.114C435.36 256.156 428.658 263.523 420.03 263.523C411.401 263.523 404.197 256.156 403.862 247.114C403.611 238.072 410.312 230.788 418.941 230.788C427.653 230.788 434.857 238.072 435.109 247.114Z" fill="#2D3962"/>
<path d="M426.899 247.114C427.066 251.384 423.799 254.9 419.778 254.9C415.673 254.9 412.239 251.467 412.155 247.114C411.988 242.844 415.255 239.327 419.276 239.327C423.297 239.327 426.815 242.844 426.899 247.114Z" fill="#FF606F"/>
<path d="M261.786 157.53H283.064L298.645 134.757H277.2L261.786 157.53Z" fill="#4F8BAD"/>
<path d="M295.043 157.53H316.321L331.902 134.757H310.457L295.043 157.53Z" fill="#4F8BAD"/>
<path d="M414.25 82.5136L477.916 172.851H472.219L412.155 87.3696L414.25 82.5136Z" fill="#2D3962"/>
<path d="M420.784 72.9691L361.054 173.019L353.683 165.4C353.683 165.4 378.646 114.328 410.815 72.8854H420.784V72.9691Z" fill="#FFFCF2"/>
<path d="M361.222 223.755L329.641 264.444L329.138 247.951L361.222 223.755Z" fill="#2D3962"/>
<path d="M361.223 223.755L329.473 252.388L323.944 244.853C323.944 244.853 340.615 227.857 361.055 213.038L361.223 223.755Z" fill="#FFFCF2"/>
<path d="M507.403 261.263L518.126 260.258L507.068 250.546L507.403 261.263Z" fill="#2D3962"/>
<path d="M513.184 255.905L474.732 222.75L474.984 229.532L510.67 257.914L513.184 255.905Z" fill="#2D3962"/>
<path d="M434.941 355.2L430.082 291.403H418.438H409.642L411.653 355.284H412.49C412.49 355.284 412.574 351.684 412.407 342.056C412.323 337.2 412.239 330.837 412.071 322.632C411.988 318.53 411.904 314.009 411.736 308.901C411.569 304.045 411.485 298.771 411.318 292.994C412.658 292.994 415.003 292.994 417.433 292.994C422.627 292.994 427.569 292.994 428.574 292.994C429.496 304.297 430.25 313.757 430.836 321.627C431.506 329.665 432.009 336.112 432.428 341.135C433.266 351.098 433.684 355.284 433.684 355.284L434.941 355.2Z" fill="#4F8BAD"/>
<path d="M431.674 321.46C431.674 321.46 428.658 321.376 421.37 321.293C414.082 321.125 411.485 321.125 411.485 321.125V321.962C411.485 321.962 413.663 322.799 421.203 322.967C428.742 323.134 431.674 322.799 431.674 322.799V321.46Z" fill="#4F8BAD"/>
<path d="M478.251 173.27L486.712 166.907L478 153.009L474.062 146.729C472.722 144.636 471.298 142.543 469.958 140.45L461.748 127.975L453.287 115.668C439.381 95.7419 429.245 82.7648 422.71 74.5599C422.459 74.225 422.124 73.8901 421.873 73.4715L421.538 73.1366L421.37 72.9692C421.286 72.8854 421.203 72.9692 421.119 72.9692C420.784 72.9692 420.532 72.9692 420.197 72.9692C419.527 72.9692 418.857 72.9692 418.271 72.9692C417.182 72.9692 416.092 72.9692 415.171 72.9692C413.328 72.9692 411.736 72.9692 410.564 72.9692C408.134 72.9692 407.045 72.9692 407.045 72.9692V74.5599C407.045 74.5599 407.967 74.6436 410.145 74.8111C411.234 74.8948 412.658 74.9785 414.333 75.0622C415.171 75.146 416.176 75.1459 417.182 75.2297C417.684 75.2297 418.271 75.3134 418.857 75.3134C419.108 75.3134 419.443 75.3134 419.695 75.3134H419.946H420.03L420.114 75.3971C421.538 77.3228 423.213 79.5833 425.14 82.095C427.067 84.7741 429.328 87.7882 431.842 91.2208C436.784 98.0024 442.816 106.375 450.02 116.673C452.533 120.357 454.962 123.873 457.224 127.138C459.486 130.403 461.497 133.585 463.507 136.431C467.361 142.292 470.795 147.232 473.476 151.502C476.24 155.688 478.418 159.12 480.094 161.716C480.932 162.972 481.686 164.06 482.272 164.981C482.439 165.232 482.523 165.4 482.691 165.567L482.775 165.735L482.858 165.818L482.942 165.902C483.026 165.986 483.11 166.153 483.193 166.237C477.916 170.423 476.743 171.26 476.743 171.26L478.251 173.27Z" fill="#B3C8D3"/>
<path d="M455.8 330.669L456.554 355.2H483.612L482.858 330.167L455.8 330.669Z" fill="#FFFCF2"/>
<path d="M484.366 355.2L481.685 267.04L467.109 258.751L465.266 259.923L453.79 267.123L455.8 355.284H456.638C456.638 355.284 456.722 350.345 456.554 336.865C456.47 330.167 456.386 321.293 456.219 309.906C455.968 298.604 455.716 284.789 455.381 268.044C457.475 266.789 461.161 264.444 464.931 262.016C466.104 261.263 467.528 260.426 467.109 260.677C473.225 264.109 478.921 267.375 480.094 268.044C481.183 300.111 481.937 321.879 482.439 335.693C482.942 349.591 483.193 355.368 483.193 355.368L484.366 355.2Z" fill="#FFFCF2"/>
<path d="M454.543 267.458L467.109 259.588L480.848 267.458H454.543Z" fill="#FFFCF2"/>
<path d="M465.015 267.542L467.025 331.088H468.114C468.114 331.088 468.45 324.139 467.696 300.362C466.942 276.584 466.104 267.458 466.104 267.458L465.015 267.542Z" fill="#FFFCF2"/>
<path d="M479.088 331.004C479.088 331.004 478.753 321.46 478.083 298.52C477.329 275.663 477.078 267.375 477.078 267.375H476.24C476.24 267.375 475.654 274.324 476.408 298.101C477.162 321.879 477.748 331.004 477.748 331.004H479.088Z" fill="#FFFCF2"/>
<path d="M481.267 280.435C481.267 280.435 477.329 280.435 467.863 280.435C458.397 280.435 454.962 280.435 454.962 280.435V281.273C454.962 281.273 457.811 282.11 467.696 282.11C477.497 282.11 481.267 281.775 481.267 281.775V280.435Z" fill="#FFFCF2"/>
<path d="M481.853 298.938C481.853 298.938 477.916 298.938 468.45 298.938C458.983 298.938 455.549 298.938 455.549 298.938V299.776C455.549 299.776 458.397 300.613 468.282 300.613C478.083 300.613 481.853 300.278 481.853 300.278V298.938Z" fill="#FFFCF2"/>
<path d="M482.44 315.85C482.44 315.85 478.502 315.85 469.036 315.85C459.57 315.85 456.135 315.85 456.135 315.85V316.688C456.135 316.688 458.984 317.525 468.869 317.525C478.67 317.525 482.44 317.19 482.44 317.19V315.85Z" fill="#FFFCF2"/>
<path d="M357.62 267.458H383.84L385.935 332.093L358.793 330.753L357.62 267.458Z" fill="#2D3962"/>
<path d="M358.793 330.669L359.547 355.2H386.605L385.851 330.167L358.793 330.669Z" fill="#FFFCF2"/>
<path d="M387.443 355.2L384.678 267.04L370.102 258.751L368.259 259.923L356.782 267.123L358.793 355.284H359.63C359.63 355.284 359.714 350.345 359.547 336.865C359.463 330.167 359.379 321.293 359.212 309.906C358.96 298.604 358.709 284.789 358.374 268.044C360.468 266.789 364.154 264.444 367.924 262.016C369.097 261.263 370.521 260.426 370.102 260.677C376.217 264.109 381.914 267.375 383.086 268.044C384.176 300.111 384.929 321.879 385.432 335.693C385.935 349.591 386.186 355.368 386.186 355.368L387.443 355.2Z" fill="#FFFCF2"/>
<path d="M357.62 267.458L370.102 259.588L383.84 267.458H357.62Z" fill="#FFFCF2"/>
<path d="M368.008 267.542L370.018 331.088H371.107C371.107 331.088 371.442 324.139 370.688 300.362C369.934 276.584 369.097 267.458 369.097 267.458L368.008 267.542Z" fill="#FFFCF2"/>
<path d="M382.081 331.004C382.081 331.004 381.746 321.46 381.076 298.52C380.322 275.663 380.071 267.375 380.071 267.375H379.233C379.233 267.375 378.647 274.324 379.401 298.101C380.155 321.879 380.741 331.004 380.741 331.004H382.081Z" fill="#FFFCF2"/>
<path d="M384.343 280.435C384.343 280.435 380.406 280.435 370.94 280.435C361.473 280.435 358.039 280.435 358.039 280.435V281.273C358.039 281.273 360.887 282.11 370.772 282.11C380.573 282.11 384.343 281.775 384.343 281.775V280.435Z" fill="#FFFCF2"/>
<path d="M384.93 298.938C384.93 298.938 380.992 298.938 371.526 298.938C362.06 298.938 358.625 298.938 358.625 298.938V299.776C358.625 299.776 361.473 300.613 371.359 300.613C381.16 300.613 384.93 300.278 384.93 300.278V298.938Z" fill="#FFFCF2"/>
<path d="M385.432 315.85C385.432 315.85 381.495 315.85 372.029 315.85C362.563 315.85 359.128 315.85 359.128 315.85V316.688C359.128 316.688 361.976 317.525 371.861 317.525C381.662 317.525 385.432 317.19 385.432 317.19V315.85Z" fill="#FFFCF2"/>
<path d="M518.377 260.342C518.377 260.342 518.88 259.337 519.802 257.579C520.22 256.742 520.807 255.653 521.393 254.398C521.728 253.812 522.063 253.142 522.398 252.472C522.734 251.886 523.069 251.216 523.404 250.546C523.404 250.463 523.571 250.379 523.488 250.295L523.32 250.044L522.901 249.625C522.65 249.374 522.398 249.039 522.147 248.788C521.561 248.118 520.891 247.449 520.22 246.695C519.634 246.025 518.964 245.355 518.21 244.686C516.786 243.346 515.445 241.839 513.854 240.332C512.346 238.909 510.754 237.318 509.079 235.811C507.403 234.304 505.728 232.797 504.053 231.29L502.796 230.202L501.456 229.113C500.618 228.36 499.696 227.69 498.859 226.936C497.1 225.513 495.424 224.09 493.749 222.834C490.314 220.322 487.214 217.81 484.45 215.885C478.754 212.117 474.984 209.522 474.984 209.522L473.811 211.364C473.811 211.364 475.319 212.703 479.591 215.885C480.68 216.638 481.937 217.559 483.361 218.648C484.785 219.736 486.293 220.992 488.052 222.415C488.974 223.085 489.895 223.839 490.9 224.592C491.906 225.346 492.911 226.183 494 227.104C496.094 228.862 498.44 230.871 501.037 232.964C503.55 235.141 505.896 237.234 507.99 239.076C510.084 241.002 512.011 242.76 513.686 244.351C515.362 246.025 516.953 247.449 518.294 248.788C518.629 249.123 518.964 249.458 519.299 249.793C519.467 249.96 519.634 250.128 519.802 250.295L519.969 250.463L520.053 250.546C520.137 250.63 520.388 250.797 520.22 250.881L520.137 251.049C520.053 251.216 519.969 251.384 519.885 251.551C517.372 256.993 516.451 259.421 516.451 259.421L518.377 260.342Z" fill="#B3C8D3"/>
<path d="M323.944 90.7185L251.649 118.18L266.477 92.1418L306.939 76.9041L323.944 90.7185Z" fill="#4F8BAD"/>
<path d="M300.153 90.7185L297.724 60.5781L325.284 60.1595L327.546 83.9369L323.944 90.7185H300.153Z" fill="#2D3962"/>
<path d="M302.583 61.834L301.912 50.5313H305.682L306.939 62.42L302.583 61.834Z" fill="#2D3962"/>
<path d="M312.384 61.1642L310.876 45.9265H316.572C316.572 45.9265 317.326 62.2526 317.745 62.42C318.164 62.5875 312.551 61.834 312.551 61.834" fill="#2D3962"/>
<path d="M420.7 126.05C420.784 129.315 418.522 132.078 415.674 132.078C412.742 132.078 410.312 129.399 410.229 126.05C410.145 122.785 412.407 120.022 415.255 120.022C418.187 120.022 420.616 122.701 420.7 126.05Z" fill="#2D3962"/>
<path d="M294.457 275.998L292.614 322.967L268.655 323.218L269.995 275.998H294.457Z" fill="#4F8BAD"/>
<path d="M236.403 275.998H261.367L259.943 323.302L236.152 323.553L236.403 275.998Z" fill="#4F8BAD"/>
<path d="M288.006 282.277L287.085 318.027H275.44L276.529 282.277H288.006Z" fill="#2D3962"/>
<path d="M242.77 282.277H254.581L253.827 318.027H241.848L242.77 282.277Z" fill="#2D3962"/>
<path d="M288.425 300.278H274.184V301.366C274.184 301.366 275.776 301.869 281.053 301.869C286.331 301.869 288.425 301.366 288.425 301.366V300.278Z" fill="#4F8BAD"/>
<path d="M255.754 300.278H239.167V301.366C239.167 301.366 241.01 301.869 247.126 301.869C253.325 301.869 255.67 301.366 255.67 301.366V300.278H255.754Z" fill="#4F8BAD"/>
<path d="M248.466 319.032L249.136 280.519H248.047C248.047 280.519 247.461 284.705 247.209 299.106C246.958 313.506 247.377 319.032 247.377 319.032H248.466Z" fill="#4F8BAD"/>
<path d="M282.226 319.032L282.896 280.519H281.807C281.807 280.519 281.221 284.705 280.969 299.106C280.718 313.506 281.137 319.032 281.137 319.032H282.226Z" fill="#4F8BAD"/>
<path d="M330.478 335.693C330.478 335.693 312.216 335.693 268.655 335.693C225.094 335.693 209.429 335.693 209.429 335.693V336.53C209.429 336.53 222.665 337.367 267.817 337.367C312.97 337.367 330.478 337.032 330.478 337.032V335.693Z" fill="#4F8BAD"/>
<path d="M196.528 252.388L208.842 263.523L213.45 252.388H196.528Z" fill="#2D3962"/>
<path d="M220.738 172.349L232.801 183.819L240.173 172.349H220.738Z" fill="#2D3962"/>
<path d="M231.461 563.253L210.937 605.198L271.336 607.04L294.959 596.24L260.864 689.508H239.921L269.074 617.84L194.517 614.157L213.617 563.253H231.461Z" fill="#B3C8D3"/>
<path d="M41.8019 14.8652L32.9221 -7.23779L25.2151 14.4465L28.9011 13.1907L21.7805 33.2843H46.9957L38.116 14.0279L41.8019 14.8652Z" fill="#2D3962"/>
<path d="M667.323 60.4944L673.355 34.875L679.219 58.5687L667.323 60.4944Z" fill="#2D3962"/>
<path d="M61.0693 205.001L67.1009 179.381L74.9754 205.838L61.0693 205.001Z" fill="#2D3962"/>
<path d="M1397.95 630L1387.65 651.517L1392.68 650.177L1379.19 676.383L1385.64 674.122L1375 695.22H1424.01L1413.2 674.876L1419.9 678.392L1405.16 650.177L1409.51 651.517L1397.95 630Z" fill="#2D3962"/>
<path d="M1399.12 678.03L1395.7 678.393L1398.55 705.118L1401.96 704.755L1399.12 678.03Z" fill="#2D3962"/>
<path d="M778.252 16L790.985 42.5403L784.786 40.9496L801.373 73.3505L793.415 70.5876L806.65 96.6256H746L759.403 71.5086L751.11 75.8622L769.372 40.9496L763.927 42.5403L778.252 16Z" fill="#2D3962"/>
<path d="M776.78 75.3714L773.259 108.507L777.424 108.949L780.945 75.8135L776.78 75.3714Z" fill="#2D3962"/>
<path d="M732.463 582.707L729.207 583.053L732.74 616.307L735.997 615.962L732.463 582.707Z" fill="#2D3962"/>
<path d="M731.423 523L718.702 549.686L724.874 548.092L708.206 580.569L716.225 577.799L703 603.982H763.834L750.4 578.764L758.712 583.128L740.408 548.092L745.823 549.686L731.423 523Z" fill="#2D3962"/>
<path d="M1371.27 503L1353.66 539.871L1362.23 537.611L1339.14 582.45L1350.21 578.644L1332 614.801H1416.02L1397.45 580.071L1408.88 586.018L1383.65 537.611L1391.15 539.871L1371.27 503Z" fill="#2D3962"/>
<path d="M1373.32 585.483L1367.4 586.111L1372.28 632L1378.2 631.372L1373.32 585.483Z" fill="#2D3962"/>
<path d="M1402 378.619L1408.03 353L1415.91 379.457L1402 378.619Z" fill="#2D3962"/>
<path d="M760.729 287L745.196 319.564L752.773 317.544L732.441 357.176L742.165 353.768L726 385.701H800.258L783.84 354.904L793.943 360.205L771.716 317.544L778.283 319.564L760.729 287Z" fill="#2D3962"/>
<path d="M762.571 359.685L757.297 360.245L761.604 400.785L766.878 400.225L762.571 359.685Z" fill="#2D3962"/>
<path d="M1347.71 94L1322.33 147.248L1334.64 144.067L1301.39 208.868L1317.39 203.343L1291 255.586H1412.38L1385.58 205.268L1402.16 213.976L1365.64 144.067L1376.45 147.248L1347.71 94Z" fill="#2D3962"/>
<path d="M1349.71 213.217L1343.21 213.906L1350.26 280.26L1356.76 279.571L1349.71 213.217Z" fill="#2D3962"/>
</svg>
