<svg width="54" height="20" viewBox="0 0 54 20" fill="none" xmlns="http://www.w3.org/2000/svg">
<path d="M0.627441 18.9118H8.19344V16.3118H3.48744V0.711844H0.627441V18.9118Z" fill="#FFFEFA"/>
<path d="M14.404 4.89784C14.404 3.59784 14.976 3.10384 15.886 3.10384C16.796 3.10384 17.368 3.59784 17.368 4.89784V14.7258C17.368 16.0258 16.796 16.5198 15.886 16.5198C14.976 16.5198 14.404 16.0258 14.404 14.7258V4.89784ZM11.544 14.5438C11.544 17.4558 13.078 19.1198 15.886 19.1198C18.694 19.1198 20.228 17.4558 20.228 14.5438V5.07984C20.228 2.16784 18.694 0.503845 15.886 0.503845C13.078 0.503845 11.544 2.16784 11.544 5.07984V14.5438Z" fill="#FFFEFA"/>
<path d="M28.7166 11.3718H30.0166V14.7258C30.0166 16.0258 29.4446 16.4938 28.5346 16.4938C27.6246 16.4938 27.0526 16.0258 27.0526 14.7258V4.89784C27.0526 3.59784 27.6246 3.10384 28.5346 3.10384C29.4446 3.10384 30.0166 3.59784 30.0166 4.89784V6.84784H32.7206V5.07984C32.7206 2.16784 31.2646 0.503845 28.4566 0.503845C25.6486 0.503845 24.1926 2.16784 24.1926 5.07984V14.5438C24.1926 17.4558 25.6486 19.1198 28.4566 19.1198C31.2646 19.1198 32.7206 17.4558 32.7206 14.5438V8.77184H28.7166V11.3718Z" fill="#FFFEFA"/>
<path d="M36.8974 18.9118H39.7574V0.711844H36.8974V18.9118Z" fill="#FFFEFA"/>
<path d="M50.2986 18.9118H53.2366V0.711844H50.6886V11.6058L47.7506 0.711844H44.1626V18.9118H46.7366V5.72984L50.2986 18.9118Z" fill="#FFFEFA"/>
</svg>
