<svg width="126" height="52" viewBox="0 0 126 52" fill="none" xmlns="http://www.w3.org/2000/svg">
<path d="M42.6963 13.2687C46.007 7.35666 46.2435 3.65176 45.1399 1.36576C44.6669 0.341002 43.9575 0.262172 43.1692 1.28693C40.0161 5.4648 33.0793 17.9984 27.9555 28.1672C22.7529 28.4825 17.8655 29.8225 12.4264 30.532C15.8948 23.9893 19.1268 18.3925 21.4128 13.9782C24.3294 8.38142 24.5659 4.51887 23.3835 2.31169C22.9105 1.44459 22.2011 1.28693 21.4916 2.23287C18.2597 6.80487 10.9287 20.4421 5.88373 30.9261C4.85897 30.9261 3.75539 30.7685 2.57297 30.6896C1.2329 30.6108 1.07525 30.9261 1.54821 31.8721C1.86352 32.5027 2.49414 33.6063 4.22835 34.3946C2.6518 37.9418 1.31173 40.7796 0.838763 42.435C-0.501307 47.2435 0.0504864 49.4506 1.2329 51.106C1.70587 51.8155 2.33649 51.579 2.6518 50.7907C4.9378 45.5093 7.38146 40.3066 9.82512 35.4193C13.53 35.4193 19.5997 34.3946 25.3542 33.6851C23.7776 36.917 22.5952 39.676 22.0434 41.2526C20.4669 46.061 21.1763 48.347 22.2799 49.9236C22.7529 50.6331 23.3046 50.5542 23.62 49.7659C26.2213 43.8539 28.9802 38.1783 31.6604 33.0545C33.3158 32.9757 34.8135 33.0545 36.0747 33.291C36.863 33.4486 37.0207 33.0545 36.9418 32.4239C36.5477 31.0838 35.6806 29.7437 33.8676 28.9554C37.2571 22.8069 40.3314 17.5254 42.6963 13.2687Z" fill="#2D3962"/>
<path d="M44.4526 36.4441C49.9706 40.9372 55.252 38.8877 59.1146 34.1581C62.4253 30.1379 63.056 25.3294 61.6371 23.4375C60.3758 21.7033 58.9569 20.5209 56.9862 19.3385C53.0448 17.0525 45.0044 21.1515 39.8806 31.3203C34.7568 41.489 38.2252 51.3425 48.2364 51.1848C54.3061 51.106 60.3758 47.4799 63.6866 42.6715C65.1055 40.6219 65.342 38.4148 65.0266 37.7841C64.7113 37.0747 64.0807 37.0747 63.6866 37.7053C60.297 42.9079 54.5426 49.2142 47.9999 48.8988C43.822 48.6624 41.9301 43.6962 44.4526 36.4441ZM45.1621 34.7099C45.3197 34.3157 45.5562 33.8428 45.7927 33.3698C49.4976 25.8812 56.0403 21.1515 57.6957 22.4916C58.7993 23.3587 57.0651 27.4577 54.5426 30.7685C52.2566 33.7639 49.0246 37.1535 45.1621 34.7099Z" fill="#2D3962"/>
<path d="M70.1751 34.1581C77.1907 29.5861 86.0194 20.1267 88.4631 10.4309C89.409 6.72604 88.9361 3.80942 86.6501 1.7599C85.5465 0.735141 84.4429 0.892794 83.2605 2.15404C75.2201 10.5098 66.2337 24.7776 63.3171 38.4936C61.504 47.007 64.4207 50.7907 69.8598 50.9484C76.166 51.106 81.9204 44.5633 83.024 42.1985C83.8911 40.3066 84.2064 38.5724 83.8123 37.3112C83.497 36.2076 82.6298 36.2864 82.0781 37.3112C79.0038 43.3809 73.4858 49.0565 69.7021 48.7412C66.1549 48.4259 67.022 41.8832 70.1751 34.1581ZM71.594 30.7685C72.1458 29.5072 72.7764 28.246 73.4858 26.9848C78.9249 16.8948 84.7582 8.14494 85.783 8.77556C86.8077 9.40618 82.3934 22.0186 71.594 30.7685Z" fill="#2D3962"/>
<path d="M88.3424 34.1581C95.3581 29.5861 104.187 20.1267 106.63 10.4309C107.576 6.72604 107.103 3.80942 104.817 1.7599C103.714 0.735141 102.61 0.892794 101.428 2.15404C93.3874 10.5098 84.401 24.7776 81.4844 38.4936C79.6713 47.007 82.588 50.7907 88.0271 50.9484C94.3333 51.106 100.088 44.5633 101.191 42.1985C102.058 40.3066 102.374 38.5724 101.98 37.3112C101.664 36.2076 100.797 36.2864 100.245 37.3112C97.1711 43.3809 91.6532 49.0565 87.8694 48.7412C84.3222 48.4259 85.1893 41.8832 88.3424 34.1581ZM89.7613 30.7685C90.3131 29.5072 90.9437 28.246 91.6532 26.9848C97.0923 16.8948 102.926 8.14494 103.95 8.77556C104.975 9.40618 100.561 22.0186 89.7613 30.7685Z" fill="#2D3962"/>
<path d="M125.744 32.9757C126.059 32.5815 126.059 32.1874 125.507 32.1874C124.877 32.1874 124.404 32.345 123.931 32.345C124.009 31.7144 124.009 31.1626 124.088 30.532C124.561 24.8564 122.196 24.3046 120.383 21.861C118.807 19.7326 117.467 19.102 115.023 19.1808C110.293 19.575 105.485 24.0681 102.489 29.4284C98.9422 35.7346 97.7598 42.5926 101.228 47.1646C104.381 51.2637 108.323 51.579 111.161 50.6331C116.994 48.6624 121.96 40.7008 123.615 34.0004C124.404 33.9216 125.192 33.6063 125.744 32.9757ZM118.964 30.8473C117.703 29.6649 116.836 27.3789 117.23 25.2505C117.624 22.9645 119.201 22.4916 119.595 25.0141C119.832 26.433 119.595 28.4037 118.964 30.8473ZM118.413 32.9757C117.782 34.8675 116.836 37.0747 115.654 39.2819C111.791 46.534 106.983 49.293 104.775 47.4799C102.726 45.7457 103.908 38.4936 107.219 32.5027C108.875 29.5072 111.161 26.9059 113.289 25.0929C113.368 28.0095 115.26 30.7685 116.915 32.0297C117.388 32.4239 117.861 32.7392 118.413 32.9757Z" fill="#2D3962"/>
</svg>
