<svg width="118" height="109" viewBox="0 0 118 109" fill="none" xmlns="http://www.w3.org/2000/svg">
<g clip-path="url(#clip0)">
<path d="M105.3 10.1966C103.9 11.7966 102.5 13.2966 101.4 14.9966C100.7 15.9966 99.0999 17.8966 98.1999 18.6966C96.9999 19.7966 96.1999 21.4966 94.9999 22.3966C93.7999 23.2966 92.5999 25.3966 91.4999 26.6966C90.3999 27.8966 89.1999 28.9966 88.1999 30.2966C87.5999 30.8966 87.0999 31.5966 86.4999 32.2966C85.8999 32.9966 85.2999 33.5966 84.7999 34.2966C83.5999 35.5966 82.3999 36.8966 81.0999 37.9966C80.2999 38.6966 79.7999 39.5966 78.8999 40.1966C78.1999 40.5966 77.5999 41.1966 76.9999 41.7966C76.9999 41.7966 76.0999 42.5966 75.1999 43.3966C74.1999 44.1966 73.2999 44.8966 73.2999 44.8966C70.8999 46.8966 68.2999 48.8966 65.6999 50.7966C64.2999 51.7966 62.7999 52.7966 61.3999 53.7966C60.6999 54.2966 59.9999 54.7966 59.1999 55.2966C58.3999 55.7966 57.6999 56.1966 56.8999 56.6966C54.1999 58.2966 51.4999 60.3966 48.4999 61.7966C47.5999 62.1966 46.7999 62.5966 45.9999 63.0966C45.1999 63.5966 44.3999 64.0966 43.4999 64.4966C42.0999 65.2966 40.4999 65.7966 38.9999 66.4966C37.4999 67.1966 35.8999 68.1966 34.3999 68.7966C32.4999 69.4966 31.5999 68.7966 33.5999 67.5966C36.5999 65.7966 40.0999 64.8966 42.9999 62.8966C44.3999 61.9966 45.8999 61.4966 47.2999 60.6966C48.6999 59.8966 50.2999 58.7966 51.5999 58.0966C52.3999 57.6966 53.1999 57.1966 53.8999 56.7966C54.5999 56.2966 55.3999 55.7966 56.0999 55.3966C57.4999 54.3966 58.9999 53.4966 60.3999 52.4966L64.4999 49.6966C65.7999 48.7966 67.2999 47.9966 68.5999 46.9966C69.9999 45.9966 71.5999 44.4966 72.9999 43.3966C74.2999 42.1966 75.6999 41.3966 76.8999 40.1966C77.9999 39.0966 79.0999 37.8966 80.2999 36.7966C81.4999 35.6966 82.5999 34.4966 83.7999 33.3966C84.3999 32.7966 85.0999 32.1966 85.6999 31.4966C86.2999 30.7966 86.8999 30.1966 87.4999 29.4966C88.6999 28.0966 89.7999 26.7966 90.9999 25.3966C90.9999 25.3966 92.5999 23.4966 94.1999 21.6966C95.7999 19.7966 97.3999 17.8966 97.3999 17.8966C99.5999 15.2966 102 11.8966 104.3 9.59663C104.4 9.49663 104.5 9.39663 104.5 9.29663L105.3 10.1966Z" fill="#2D3962"/>
<path d="M89.7 12.7968C89.6 13.1968 89.4 13.4968 89.5 13.8968C89.6 14.0968 89.4 14.5968 89.3 14.7968C89 15.0968 89.5 15.4968 89.1 15.6968C88.8 15.8968 89.1 16.3968 89.1 16.6968C89.1 16.9968 88.9 17.2968 88.8 17.5968C88.7 18.1968 89 18.8968 88.6 19.4968C88.5 19.6968 88.8 19.8968 88.5 20.0968C88.4 20.1968 88.4 20.3968 88.4 20.4968L88.4 21.3968C88.4 21.9968 88.4 22.5968 88.3 23.1968C88.3 23.7968 88.3 24.4968 88.2 25.0968C88.1 25.6968 88.5 26.2968 88.3 26.8968C88.1 27.2968 88.4 27.5968 88.4 27.8968C88.4 28.1968 88.1 28.4968 88.2 28.7968C88.2 29.0968 88.4 29.3968 88.4 29.6968C88.3 30.0968 87.2 30.2968 87 29.8968C86.7 29.1968 87.2 28.5968 86.8 27.8968C86.7 27.5968 86.9 27.2968 86.8 26.9968C86.8 26.6968 86.7 26.2968 86.7 26.0968C86.8 25.3968 86.6 24.7968 86.7 24.0968L86.7 23.1968C86.7 22.8968 87 22.5968 87 22.2968C87 21.9968 87 21.5968 87 21.1968C86.9 20.8968 87.3 20.5968 87.1 20.2968C87 19.5968 87 18.8968 87.4 18.3968C87.7 17.7968 87.5 17.0968 87.6 16.3968C87.6 16.3968 87.6 16.2968 87.6 16.0968C87.6 15.8968 87.7 15.6968 87.7 15.4968C87.8 14.9968 87.9 14.5968 87.9 14.5968C88 13.9968 87.9 13.0968 88.3 12.5968L88.3 12.4968L89.7 12.7968Z" fill="#2D3962"/>
<path d="M70.6 44.7968C71.1 44.8968 71.5 45.0968 72 44.8968C72.3 44.7968 72.8 44.7968 73.1 44.9968C73.3 45.0968 73.5 44.9968 73.7 44.9968C73.9 44.8968 74.1 44.8968 74.3 44.9968C74.7 45.1968 75.2 44.7968 75.6 44.6968C76 44.5968 76.4 44.6968 76.7 44.5968C77.5 44.4968 78.2 43.8968 79.1 44.0968C79.4 44.0968 79.5 43.6968 79.8 43.8968C80 43.9968 80.2 43.8968 80.4 43.7968C80.4 43.7968 80.7 43.6968 81 43.5968C81.3 43.4968 81.6 43.3968 81.6 43.3968C82.3 43.1968 83 42.8968 83.7 42.5968C84.5 42.2968 85.2 41.8968 86 41.6968C86.7 41.4968 87.3 40.7968 88.1 40.6968C88.6 40.6968 88.9 40.2968 89.3 40.0968C89.6 39.8968 90.1 39.9968 90.5 39.7968C90.8 39.5968 91.2 39.1968 91.5 39.0968C92 38.9968 92.6 39.8968 92.2 40.2968C91.6 40.8968 90.5 40.7968 89.9 41.4968C89.6 41.7968 89.1 41.6968 88.8 41.8968C88.4 42.0968 88.1 42.3968 87.7 42.4968C86.8 42.6968 86.2 43.1968 85.3 43.4968C85.3 43.4968 85 43.5968 84.7 43.6968C84.4 43.7968 84.1 43.8968 84.1 43.8968C83.7 43.9968 83.3 43.8968 82.9 43.9968C82.5 44.0968 82 44.3968 81.6 44.5968C81.2 44.8968 80.8 44.6968 80.4 44.8968C80.1 45.0968 79.7 45.2968 79.3 45.3968C78.9 45.4968 78.5 45.4968 78.1 45.4968C77.2 45.4968 76.4 45.8968 75.5 46.0968C75.5 46.0968 74.9 46.1968 74.3 46.1968C73.7 46.2968 73.1 46.2968 73.1 46.2968C72.7 46.2968 72.2 46.3968 71.7 46.3968C71.2 46.3968 70.7 46.2968 70.3 46.1968L70.2 46.1968L70.6 44.7968Z" fill="#2D3962"/>
<path d="M74.0999 27.7966C73.4999 28.2966 72.9999 28.8966 72.5999 29.5966C72.3999 29.9966 71.7999 30.6966 71.3999 30.9966C70.8999 31.2966 70.7999 32.0966 70.2999 32.3966C69.6999 32.6966 69.5999 33.5966 69.1999 34.1966C68.7999 34.6966 68.3999 35.0966 67.9999 35.5966C67.1999 36.5966 66.7999 37.9966 65.7999 38.7966C65.4999 39.0966 65.5999 39.5966 65.0999 39.7966C64.7999 39.9966 64.6999 40.2966 64.4999 40.4966C64.4999 40.4966 64.1999 40.8966 63.9999 41.2966C63.6999 41.6966 63.4999 42.0966 63.4999 42.0966C62.8999 43.0966 62.2999 44.1966 61.5999 45.1966C60.8999 46.2966 60.2999 47.4966 59.4999 48.5966C58.7999 49.4966 58.4999 50.8966 57.6999 51.7966C57.1999 52.2966 56.9999 53.0966 56.6999 53.6966C56.3999 54.1966 55.7999 54.5966 55.4999 55.1966C55.1999 55.6966 54.9999 56.4966 54.6999 56.9966C54.1999 57.5966 53.0999 57.2966 53.3999 56.3966C53.7999 55.0966 54.8999 54.1966 55.2999 52.8966C55.4999 52.2966 55.9999 51.8966 56.2999 51.2966C56.5999 50.7966 56.7999 50.0966 57.1999 49.5966C57.9999 48.4966 58.4999 47.2966 59.1999 46.0966C59.1999 46.0966 59.3999 45.6966 59.6999 45.2966C59.9999 44.8966 60.1999 44.4966 60.1999 44.4966C60.4999 43.9966 61.0999 43.5966 61.3999 43.0966C61.7999 42.4966 62.0999 41.7966 62.3999 41.1966C62.5999 40.5966 63.2999 40.1966 63.4999 39.5966C63.9999 38.4966 64.6999 37.2966 65.5999 36.4966C66.4999 35.4966 67.0999 34.1966 67.8999 33.0966C67.8999 33.0966 68.4999 32.2966 68.9999 31.5966C69.2999 31.1966 69.5999 30.7966 69.7999 30.5966C69.9999 30.2966 70.1999 30.0966 70.1999 30.0966C70.9999 29.0966 71.7999 27.6966 72.7999 26.8966L72.8999 26.7966L74.0999 27.7966Z" fill="#2D3962"/>
<path d="M104.4 11.7968C99.1998 10.9968 102.8 0.39675 107.1 0.0967498C111.4 -0.30325 113 4.39675 112.6 6.79675C112.2 9.19675 109.9 12.6968 104.4 11.7968Z" fill="#FF606F"/>
<path d="M90.7 15.0967C86.9 17.6967 82.9 12.2967 85.9 6.99669C87.8 3.69669 91.7 5.09668 92.9 6.89668C94.2 8.69668 94.8 12.2967 90.7 15.0967Z" fill="#FF606F"/>
<path d="M67.2999 26.9968C66.6999 23.0968 71.3999 18.0968 76.7999 20.0968C80.4999 21.4968 82.2999 28.4968 77.5999 32.1968C74.7999 34.3968 67.9999 31.2968 67.2999 26.9968Z" fill="#FF606F"/>
<path d="M90.0999 45.2967C84.2999 43.6967 86.9999 31.7967 91.6999 31.6967C96.3999 31.5967 98.8999 36.1967 98.6999 39.3967C98.4999 42.5967 96.1999 46.9967 90.0999 45.2967Z" fill="#FF606F"/>
<path d="M96.5999 37.7967C96.2999 39.4967 94.6999 40.4967 94.0999 39.5967C92.8999 37.9967 93.3999 35.7967 94.3999 34.6967C95.6999 33.2967 97.0999 34.9967 96.5999 37.7967Z" fill="#FFFCF2"/>
<path d="M78.0999 24.9969C77.7999 26.6969 76.1999 27.6969 75.5999 26.7969C74.3999 25.1969 74.8999 22.9969 75.8999 21.8969C77.1999 20.5969 78.5999 22.1969 78.0999 24.9969Z" fill="#FFFCF2"/>
<path d="M110.7 5.89681C110.4 7.59681 108.8 8.59681 108.2 7.69681C107 6.09681 107.5 3.89681 108.5 2.79681C109.8 1.39681 111.2 3.09681 110.7 5.89681Z" fill="#FFFCF2"/>
<path d="M92.3999 10.1969C92.0999 11.8969 90.4999 12.8969 89.8999 11.9969C88.6999 10.3969 89.1999 8.19686 90.1999 7.09686C91.4999 5.69686 92.8999 7.39686 92.3999 10.1969Z" fill="#FFFCF2"/>
<path d="M-1.29958e-09 90.0969C-1.29958e-09 90.0969 22.4 95.9969 34.9 108.697C34.9 108.697 45.6 94.0969 75.8 99.0969C75.8 99.0969 82.9 80.8969 110.6 66.7969C110.6 66.7969 81.2 62.1969 69 54.2969C69 54.2969 50.3 72.5969 28.1 65.0969C28.1 65.0969 18.6 83.7969 -1.29958e-09 90.0969Z" fill="#2D6C73"/>
<path d="M110.6 66.7969C110 66.9969 109.4 67.1969 108.8 67.4969C109.3 67.2969 109.8 66.9969 110.3 66.7969C110.5 66.7969 110.6 66.7969 110.6 66.7969Z" fill="#65799F"/>
<path d="M84.6001 86.4969C84.2001 86.2969 83.9001 86.0969 83.5001 86.0969C83.2001 86.0969 82.8001 85.8969 82.6001 85.6969C82.4001 85.3969 81.9001 85.6969 81.7001 85.3969C81.5001 85.0969 81.0001 85.2969 80.7001 85.1969C80.4001 85.0969 80.1001 84.8969 79.9001 84.7969C79.3001 84.5969 78.5001 84.5969 78.0001 84.0969C77.8001 83.9969 77.6001 84.1969 77.4001 83.8969C77.3001 83.6969 77.1001 83.6969 77.0001 83.6969L76.1001 83.3969C75.5001 83.1969 74.9001 83.0969 74.3001 82.7969C73.7001 82.5969 73.0001 82.3969 72.4001 82.0969C71.9001 81.7969 71.1001 81.9969 70.6001 81.4969C70.3001 81.1969 69.9001 81.2969 69.5001 81.1969C69.2001 81.0969 69.0001 80.7969 68.7001 80.6969C68.4001 80.5969 68.0001 80.5969 67.7001 80.4969C67.4001 80.2969 67.6001 79.3969 68.0001 79.2969C68.7001 79.2969 69.2001 79.9969 69.9001 79.8969C70.2001 79.8969 70.5001 80.1969 70.8001 80.2969C71.1001 80.3969 71.5001 80.3969 71.7001 80.5969C72.3001 80.8969 73.0001 80.9969 73.6001 81.1969L74.5001 81.4969C74.8001 81.5969 75.0001 81.8969 75.3001 81.9969C75.6001 82.0969 76.0001 82.1969 76.4001 82.2969C76.8001 82.2969 77.0001 82.6969 77.3001 82.6969C77.9001 82.6969 78.6001 82.8969 79.1001 83.2969C79.7001 83.6969 80.4001 83.6969 81.1001 83.8969L82.9001 84.4969C83.5001 84.6969 84.4001 84.7969 84.9001 85.1969L85.0001 85.1969L84.6001 86.4969Z" fill="#2D3962"/>
<path d="M79.8 92.3969C79.3 92.1969 78.6999 91.8969 78.0999 91.8969C77.6999 91.8969 77.1 91.6969 76.8 91.3969C76.4 91.0969 75.7999 91.2969 75.5 90.9969C75.2 90.6969 74.4 90.7969 74 90.5969C73.6 90.4969 73.1999 90.1969 72.6999 90.0969C71.7999 89.7969 70.7 89.7969 69.9 89.1969C69.6 89.0969 69.2999 89.2969 69.0999 88.8969C68.8999 88.6969 68.7 88.6969 68.5 88.5969L67.1999 88.1969C66.3999 87.9969 65.4999 87.6969 64.5999 87.4969C63.5999 87.1969 62.7 86.9969 61.7 86.5969C60.9 86.1969 59.9 86.2969 59 85.7969C58.5 85.4969 58 85.4969 57.4 85.3969C57 85.2969 56.5999 84.8969 56.0999 84.7969C55.6999 84.6969 55.1 84.6969 54.7 84.4969C54.2 84.1969 54.3 83.2969 55 83.2969C56 83.3969 56.8 84.0969 57.9 84.0969C58.4 84.0969 58.7 84.4969 59.2 84.5969C59.6 84.6969 60.1999 84.7969 60.5999 84.9969C61.5999 85.3969 62.5 85.4969 63.5 85.7969L64.9 86.1969C65.3 86.2969 65.6999 86.6969 66.1999 86.7969C66.6999 86.8969 67.3 87.0969 67.8 87.1969C68.3 87.1969 68.6999 87.5969 69.0999 87.6969C69.9999 87.7969 70.9999 87.9969 71.6999 88.4969C72.5999 88.9969 73.6999 88.9969 74.5999 89.2969L77.3 90.0969C78.2 90.3969 79.3999 90.4969 80.1999 90.9969L80.3 90.9969L79.8 92.3969Z" fill="#2D3962"/>
<path d="M49.9 100.197C49.6 99.8969 49.4 99.5969 49 99.3969C48.7 99.2969 48.4 98.9969 48.3 98.6969C48.2 98.3969 47.7 98.3969 47.6 98.0969C47.5 97.6969 47 97.6969 46.7 97.4969C46.5 97.2969 46.3 96.9969 46.1 96.7969C45.6 96.3969 44.9 96.0969 44.6 95.4969C44.5 95.2969 44.2 95.3969 44.1 95.0969C44.1 94.8969 43.9 94.7969 43.8 94.6969L43.1 94.0969C42.6 93.6969 42.1 93.2969 41.7 92.8969C41.2 92.4969 40.7 92.0969 40.2 91.5969C39.8 91.0969 39.1 90.9969 38.7 90.3969C38.5 89.9969 38.1 89.9969 37.8 89.6969C37.6 89.4969 37.5 89.0969 37.2 88.8969C37 88.6969 36.6 88.5969 36.4 88.2969C36.2 87.9969 36.7 87.1969 37.1 87.3969C37.8 87.6969 38 88.4969 38.7 88.6969C39 88.7969 39.1 89.1969 39.4 89.3969C39.6 89.5969 40 89.7969 40.2 89.9969C40.7 90.4969 41.3 90.7969 41.8 91.2969L42.5 91.8969C42.7 92.0969 42.8 92.4969 43.1 92.6969C43.4 92.8969 43.7 93.0969 44 93.2969C44.3 93.3969 44.4 93.8969 44.7 93.9969C45.3 94.2969 45.8 94.6969 46.1 95.1969C46.5 95.7969 47.2 96.0969 47.7 96.4969L49.1 97.6969C49.6 98.0969 50.4 98.4969 50.7 99.0969L50.7 99.1969L49.9 100.197Z" fill="#2D3962"/>
<path d="M41.5 103.697C41 103.297 40.6 102.997 40 102.797C39.7 102.697 39.1 102.297 38.9 101.997C38.6 101.597 38 101.697 37.7 101.297C37.5 100.897 36.7 100.897 36.3 100.597C35.9 100.397 35.6 99.9968 35.2 99.7968C34.4 99.2968 33.4 98.9968 32.7 98.2968C32.5 98.0968 32.1 98.1968 32 97.8968C31.9 97.6968 31.6 97.5968 31.5 97.4968L30.3 96.7968C29.6 96.3968 28.8 95.8968 28 95.4968C27.2 94.9968 26.3 94.5968 25.5 93.9968C24.8 93.4968 23.8 93.2968 23.2 92.5968C22.8 92.1968 22.3 92.0968 21.8 91.7968C21.4 91.5968 21.1 91.0968 20.8 90.8968C20.4 90.6968 19.9 90.4968 19.5 90.2968C19.1 89.8968 19.4 88.9968 20.1 89.1968C21.1 89.4968 21.6 90.3968 22.6 90.6968C23 90.7968 23.3 91.2968 23.7 91.4968C24.1 91.6968 24.6 91.8968 24.9 92.1968C25.7 92.7968 26.6 93.1968 27.4 93.6968L28.6 94.3968C29 94.5968 29.2 95.0968 29.6 95.2968C30 95.5968 30.6 95.7968 31 95.9968C31.5 96.1968 31.7 96.5968 32.2 96.7968C33 97.0968 33.9 97.5968 34.5 98.1968C35.2 98.8968 36.2 99.1968 37.1 99.6968L39.4 101.097C40.2 101.597 41.3 101.997 42 102.697L42.1 102.797L41.5 103.697Z" fill="#2D3962"/>
<path d="M92.6999 63.3968C92.3999 63.5968 91.9999 63.8968 91.8999 64.1968C91.7999 64.3968 91.4999 64.6968 91.1999 64.7968C90.8999 64.8968 90.8999 65.3968 90.5999 65.4968C90.1999 65.4968 90.1999 66.0968 89.9999 66.2968C89.7999 66.4968 89.4999 66.6968 89.2999 66.8968C88.8999 67.3968 88.5999 67.9968 87.8999 68.2968C87.6999 68.3968 87.7999 68.6968 87.4999 68.6968C87.2999 68.6968 87.1999 68.8968 87.0999 68.9968L86.4999 69.6968C86.0999 70.0968 85.6999 70.5968 85.2999 70.9968C84.7999 71.4968 84.3999 71.9968 83.8999 72.3968C83.3999 72.6968 83.1999 73.4968 82.6999 73.6968C82.2999 73.7968 82.1999 74.1968 81.9999 74.4968C81.7999 74.6968 81.3999 74.7968 81.1999 74.9968C80.9999 75.1968 80.8999 75.5968 80.5999 75.7968C80.2999 75.9968 79.4999 75.3968 79.6999 74.9968C79.9999 74.3968 80.7999 74.1968 80.9999 73.5968C81.0999 73.2968 81.4999 73.1968 81.6999 72.9968C81.8999 72.7968 82.0999 72.3968 82.2999 72.2968C82.8999 71.8968 83.1999 71.2968 83.5999 70.7968L84.2999 70.0968C84.4999 69.8968 84.8999 69.7968 85.0999 69.5968C85.2999 69.3968 85.5999 68.9968 85.7999 68.7968C85.9999 68.4968 86.3999 68.4968 86.4999 68.1968C86.7999 67.6968 87.1999 67.1968 87.7999 66.8968C88.3999 66.5968 88.6999 65.8968 89.1999 65.3968L90.4999 64.0968C90.8999 63.5968 91.2999 62.8968 91.8999 62.6968L91.9999 62.6968L92.6999 63.3968Z" fill="#2D3962"/>
<path d="M77.1 58.3968C76.7 58.8968 76.3 59.3968 76.1 59.8968C76 60.2968 75.5 60.7968 75.2 61.0968C74.8 61.3968 74.8 62.0968 74.4 62.2968C74 62.4968 73.9 63.2968 73.6 63.6968C73.3 64.0968 73 64.3968 72.7 64.7968C72.1 65.5968 71.8 66.6968 71 67.3968C70.8 67.5968 70.9 67.9968 70.5 68.1968C70.3 68.2968 70.2 68.5968 70 68.7968L69.2 69.9968C68.7 70.7968 68.2 71.5968 67.7 72.3968C67.1 73.2968 66.6 74.0968 66 74.9968C65.4 75.6968 65.2 76.7968 64.4 77.3968C63.9 77.7968 63.8 78.3968 63.5 78.7968C63.2 79.1968 62.8 79.4968 62.5 79.8968C62.2 80.2968 62.1 80.8968 61.7 81.1968C61.3 81.5968 60.4 81.2968 60.7 80.5968C61.1 79.5968 62.1 78.9968 62.4 77.9968C62.6 77.4968 63 77.2968 63.3 76.7968C63.6 76.3968 63.8 75.8968 64.1 75.4968C64.8 74.6968 65.2 73.6968 65.8 72.7968L66.6 71.5968C66.9 71.1968 67.3 70.8968 67.6 70.4968C67.9 70.0968 68.2 69.4968 68.4 68.9968C68.6 68.4968 69.1 68.2968 69.3 67.7968C69.7 66.8968 70.2 65.9968 70.9 65.3968C71.6 64.5968 72 63.5968 72.6 62.6968L74.2 60.2968C74.8 59.4968 75.3 58.2968 76 57.5968L76.1 57.4968L77.1 58.3968Z" fill="#2D3962"/>
<path d="M47.6 66.5968C47.4 66.9968 47.2 67.4968 47.3 67.8968C47.3 68.1968 47.1 68.6968 47 68.8968C46.7 69.1968 47 69.6968 46.7 69.8968C46.4 70.1968 46.6 70.6968 46.5 71.0968C46.4 71.3968 46.2 71.7968 46.1 72.0968C45.9 72.7968 46 73.6968 45.5 74.2968C45.4 74.4968 45.6 74.7968 45.3 74.9968C45.1 75.0968 45.2 75.2968 45.1 75.4968L44.8 76.4968C44.6 77.1968 44.5 77.8968 44.3 78.5968C44.1 79.3968 44 80.0968 43.7 80.8968C43.4 81.4968 43.6 82.3968 43.2 82.9968C42.9 83.3968 43 83.7968 42.9 84.1968C42.8 84.4968 42.5 84.7968 42.4 85.1968C42.3 85.4968 42.4 85.9968 42.2 86.2968C42 86.6968 41.1 86.5968 41 85.9968C41 85.1968 41.6 84.5968 41.5 83.6968C41.5 83.2968 41.8 82.9968 41.8 82.6968C41.9 82.3968 41.9 81.8968 42 81.5968C42.3 80.7968 42.3 80.0968 42.5 79.2968L43 78.3968C43.1 78.0968 43.4 77.7968 43.5 77.3968C43.6 76.9968 43.7 76.5968 43.7 76.1968C43.7 75.7968 44.1 75.4968 44 75.0968C44 74.3968 44.2 73.5968 44.6 72.9968C45 72.2968 45 71.4968 45.2 70.6968L45.8 68.5968C46 67.8968 46 66.8968 46.4 66.2968L46.4 66.1968L47.6 66.5968Z" fill="#2D3962"/>
<path d="M34.8999 66.7968C34.5999 67.2968 34.2999 67.6968 34.2999 68.2968C34.2999 68.5968 33.9999 69.1968 33.6999 69.3968C33.3999 69.6968 33.5999 70.2968 33.1999 70.4968C32.7999 70.7968 32.8999 71.3968 32.6999 71.8968C32.4999 72.2968 32.2999 72.5968 32.0999 72.9968C31.6999 73.7968 31.5999 74.7968 30.9999 75.4968C30.7999 75.6968 30.9999 76.0968 30.6999 76.1968C30.4999 76.2968 30.4999 76.5968 30.3999 76.7968L29.8999 77.8968C29.5999 78.5968 29.2999 79.3968 28.8999 80.1968C28.4999 80.9968 28.1999 81.7968 27.7999 82.6968C27.3999 83.3968 27.3999 84.2968 26.7999 84.9968C26.3999 85.3968 26.3999 85.8968 26.1999 86.3968C25.9999 86.7968 25.5999 87.0968 25.4999 87.4968C25.2999 87.8968 25.2999 88.3968 25.0999 88.7968C24.7999 89.1968 23.8999 88.9968 23.9999 88.3968C24.1999 87.4968 24.9999 86.7968 25.0999 85.8968C25.1999 85.4968 25.5999 85.1968 25.6999 84.7968C25.8999 84.3968 25.9999 83.8968 26.1999 83.5968C26.6999 82.7968 26.8999 81.8968 27.2999 81.0968L27.7999 79.8968C27.9999 79.4968 28.3999 79.1968 28.4999 78.7968C28.6999 78.3968 28.8999 77.8968 28.9999 77.3968C29.0999 76.8968 29.4999 76.6968 29.5999 76.1968C29.7999 75.3968 30.0999 74.4968 30.5999 73.8968C31.0999 73.0968 31.2999 72.1968 31.6999 71.3968L32.7999 69.0968C33.1999 68.2968 33.3999 67.1968 33.9999 66.5968L34.0999 66.4968L34.8999 66.7968Z" fill="#2D3962"/>
<path d="M1 89.4969C3.6 89.4969 6.3 89.5969 8.8 89.2969C9.6 89.1969 10.7 89.0969 11.9 89.0969C13.1 89.0969 14.2 88.9969 15 89.0969C17.1 89.1969 19.2 88.4969 21.2 88.6969C21.7 88.6969 22.2 88.6969 22.8 88.6969C23.4 88.5969 24 88.4969 24.6 88.3969C25.8 88.1969 27.1 87.8969 28.2 87.7969C29.2 87.6969 30.2 87.5969 31.3 87.5969C32.3 87.4969 33.3 87.3969 34.4 87.1969C35.5 86.9969 36.5 86.8969 37.6 86.6969C38.7 86.4969 39.8 86.2969 40.9 86.0969C43.1 85.5969 45.2 85.1969 47.4 84.9969C48.7 84.7969 49.8 84.0969 51.2 84.0969C52.2 83.9969 53.2 83.6969 54.2 83.3969L60.1 81.6969C62 81.0969 63.9 80.4969 65.8 79.7969C67.7 79.0969 69.7 78.3969 71.6 77.7969C75.8 76.2969 79.8 74.7969 84.3 73.3969C86.2 72.8969 88.1 72.0969 90.1 71.4969C92.1 70.8969 94.1 70.1969 96.2 69.7969C98.6 69.4969 100.9 68.5969 103.2 68.0969C105.2 67.6969 107.3 67.5969 109.4 67.1969C111.4 66.8969 113.8 66.2969 115.9 66.0969C118.5 65.8969 119.3 67.0969 116.5 67.6969C114.3 68.1969 112.1 68.3969 109.9 68.6969C107.7 68.9969 105.5 69.3969 103.4 69.9969C101.4 70.5969 99.4 70.7969 97.4 71.2969C96.4 71.4969 95.3 71.8969 94.3 72.1969C93.3 72.4969 92.2 72.7969 91.3 73.0969C86.8 74.1969 82.8 75.8969 78.6 77.2969L72.6 79.3969C70.6 80.0969 68.6 80.3969 66.6 81.0969C64.5 81.7969 61.9 82.6969 59.7 83.3969C57.6 84.1969 55.5 84.3969 53.5 84.9969C51.6 85.5969 49.6 86.1969 47.5 86.6969C45.4 87.0969 43.3 87.4969 41.4 87.6969C40.3 87.8969 39.2 87.9969 38 88.1969C36.9 88.3969 35.7 88.5969 34.6 88.6969C33.5 88.8969 32.4 89.0969 31.2 89.2969C30.1 89.3969 29 89.5969 27.8 89.6969C27.8 89.6969 27 89.7969 25.8 89.8969C25.2 89.9969 24.5 89.9969 23.8 90.0969C23.4 90.0969 23.1 90.1969 22.7 90.1969C22.3 90.1969 21.9 90.1969 21.5 90.2969C18.4 90.4969 15.2 90.6969 15.2 90.6969C14.1 90.7969 13 90.8969 11.8 90.8969C10.6 90.9969 9.4 90.9969 8.2 91.0969C5.8 91.1969 3.4 91.2969 1.4 91.1969C1.3 91.1969 1.1 91.1969 1 91.1969L1 89.4969Z" fill="#2D3962"/>
</g>
<defs>
<clipPath id="clip0">
<rect width="118" height="109" fill="white"/>
</clipPath>
</defs>
</svg>
