<svg width="118" height="56" viewBox="0 0 118 56" fill="none" xmlns="http://www.w3.org/2000/svg">
<path d="M4.27149 0.169922H118V55.1699H0L4.27149 0.169922Z" fill="#2D6C73"/>
<path d="M31.907 22.7949C27.5891 29.3413 22.5748 39.4163 21.507 43.2235C20.9034 45.452 21.4605 46.8449 22.1105 47.4485C22.4355 47.7735 22.6677 47.7735 22.8534 47.3092C26.4748 38.8128 30.4212 32.3128 33.207 27.252C34.4605 24.977 34.7855 23.4449 34.7391 22.3306C37.432 21.8663 40.357 21.402 42.632 21.6342C43.2355 21.6806 43.3284 21.3092 43.1891 20.9378C42.4927 19.127 40.7284 18.6163 38.7784 18.5699C36.132 18.477 28.4248 20.1949 24.2927 19.8699C23.8284 19.8235 23.6427 20.0556 23.782 20.4735C24.2927 22.1913 26.2891 23.2128 29.0748 23.1199C29.9105 23.0735 30.8391 22.9806 31.907 22.7949Z" fill="#2D3962"/>
<path d="M56.1575 28.3199C54.6254 32.6842 53.0468 37.7913 52.304 41.227C51.6075 44.5235 52.1647 46.1949 53.7433 47.6342C54.3468 48.1913 54.7647 47.9592 55.1361 47.402C60.754 38.7663 67.6254 30.2235 71.0147 25.7663C73.3825 22.6556 73.9861 20.6592 73.7075 19.0342C73.6147 18.3842 73.1504 18.2913 72.5933 18.8485C68.5075 23.2128 59.5004 35.1449 54.8111 42.8056C56.5754 36.0735 58.5254 30.4092 60.0111 26.0449C61.1718 22.5163 60.9397 21.3556 60.0111 20.0092C59.6397 19.452 59.1754 19.5913 58.8504 19.9628C54.0683 25.7663 46.9183 35.5163 42.6004 42.5735C44.5968 35.9806 46.8718 29.9449 48.404 25.7663C49.7504 22.1913 49.6575 20.5199 48.8683 19.1735C48.5433 18.6163 48.079 18.6628 47.7075 19.3592C45.4325 23.7235 41.6718 34.402 40.0004 41.4592C39.2575 44.6628 39.629 46.427 41.254 47.8663C41.8575 48.377 42.3218 48.1449 42.6468 47.6342C46.5933 41.3663 51.979 33.7985 56.1575 28.3199Z" fill="#2D3962"/>
<path d="M89.1628 19.452C87.8628 18.1056 85.5414 17.5949 82.8485 18.5235C77.6021 20.3806 68.92 28.9699 68.92 38.8592C68.92 42.6663 70.4057 46.1485 74.2128 47.5413C80.5271 49.8628 86.3771 44.4306 90.1378 37.5128C93.62 31.1056 94.92 21.9592 89.1628 19.452ZM86.7485 36.2128C82.8485 43.3628 77.37 47.077 74.3057 45.777C71.1485 44.4306 71.2414 36.5842 75.6985 29.6663C80.0628 22.8878 85.9592 19.7306 88.2342 20.5663C90.7878 21.4949 90.9735 28.4592 86.7485 36.2128Z" fill="#2D3962"/>
<path d="M29.907 18.7949C25.5891 25.3413 20.5748 35.4163 19.507 39.2235C18.9034 41.452 19.4605 42.8449 20.1105 43.4485C20.4355 43.7735 20.6677 43.7735 20.8534 43.3092C24.4748 34.8128 28.4212 28.3128 31.207 23.252C32.4605 20.977 32.7855 19.4449 32.7391 18.3306C35.432 17.8663 38.357 17.402 40.632 17.6342C41.2355 17.6806 41.3284 17.3092 41.1891 16.9378C40.4927 15.127 38.7284 14.6163 36.7784 14.5699C34.132 14.477 26.4248 16.1949 22.2927 15.8699C21.8284 15.8235 21.6427 16.0556 21.782 16.4735C22.2927 18.1913 24.2891 19.2128 27.0748 19.1199C27.9105 19.0735 28.8391 18.9806 29.907 18.7949Z" fill="#FFFEFA"/>
<path d="M54.1575 24.3199C52.6254 28.6842 51.0468 33.7913 50.304 37.227C49.6075 40.5235 50.1647 42.1949 51.7433 43.6342C52.3468 44.1913 52.7647 43.9592 53.1361 43.402C58.754 34.7663 65.6254 26.2235 69.0147 21.7663C71.3825 18.6556 71.9861 16.6592 71.7075 15.0342C71.6147 14.3842 71.1504 14.2913 70.5933 14.8485C66.5075 19.2128 57.5004 31.1449 52.8111 38.8056C54.5754 32.0735 56.5254 26.4092 58.0111 22.0449C59.1718 18.5163 58.9397 17.3556 58.0111 16.0092C57.6397 15.452 57.1754 15.5913 56.8504 15.9628C52.0683 21.7663 44.9183 31.5163 40.6004 38.5735C42.5968 31.9806 44.8718 25.9449 46.404 21.7663C47.7504 18.1913 47.6575 16.5199 46.8683 15.1735C46.5433 14.6163 46.079 14.6628 45.7075 15.3592C43.4325 19.7235 39.6718 30.402 38.0004 37.4592C37.2575 40.6628 37.629 42.427 39.254 43.8663C39.8575 44.377 40.3218 44.1449 40.6468 43.6342C44.5933 37.3663 49.979 29.7985 54.1575 24.3199Z" fill="#FFFEFA"/>
<path d="M87.1628 15.452C85.8628 14.1056 83.5414 13.5949 80.8485 14.5235C75.6021 16.3806 66.92 24.9699 66.92 34.8592C66.92 38.6663 68.4057 42.1485 72.2128 43.5413C78.5271 45.8628 84.3771 40.4306 88.1378 33.5128C91.62 27.1056 92.92 17.9592 87.1628 15.452ZM84.7485 32.2128C80.8485 39.3628 75.37 43.077 72.3057 41.777C69.1485 40.4306 69.2414 32.5842 73.6985 25.6663C78.0628 18.8878 83.9592 15.7306 86.2342 16.5663C88.7878 17.4949 88.9735 24.4592 84.7485 32.2128Z" fill="#FFFEFA"/>
</svg>
