<svg width="117" height="127" viewBox="0 0 117 127" fill="none" xmlns="http://www.w3.org/2000/svg">
<path d="M51.25 60.3181C51.25 60.3181 50.755 59.8105 49.7801 58.902C49.3002 58.5011 48.7901 57.8867 48.0105 57.361C47.3656 56.7909 46.5708 56.1584 45.761 55.4191C44.1412 53.9406 41.9522 52.4258 39.7329 50.6974C38.6232 49.8333 37.3788 49.0134 36.1344 48.1935C35.5047 47.7302 34.8901 47.3737 34.2603 46.9104C33.6457 46.5538 33.0159 46.0905 32.2665 45.7783C27.1391 42.4364 21.4135 39.8499 17.0519 37.9321C16.4524 37.6823 16.0027 37.495 15.4183 37.352C14.9687 37.1646 14.3843 37.0216 13.9347 36.8342C13.0354 36.4596 12.1513 36.1916 11.5518 35.9418C10.218 35.4866 9.46861 35.1743 9.46861 35.1743L8.76596 36.1875C8.76596 36.1875 9.98009 36.7939 13.4273 38.2301C15.2107 38.8728 17.3392 39.9605 20.202 41.2538C21.7008 41.8783 23.0951 42.7606 24.774 43.661C25.5385 44.08 26.4529 44.5615 27.3673 45.0429C28.2817 45.5244 29.2112 46.1126 30.1407 46.7008C31.0702 47.289 31.9997 47.8772 32.9141 48.3586C33.7089 48.9911 34.6233 49.4726 35.4029 49.9983C36.1825 50.5241 36.9622 51.0499 37.7267 51.4689C38.5063 51.9946 39.1361 52.4579 39.7658 52.9212C41.0254 53.8478 42.2697 54.6677 43.2295 55.4694C44.1893 56.2711 45.1339 56.9661 45.9135 57.4919C47.4879 58.6501 48.4779 59.6654 49.2576 60.1911C50.0372 60.7169 50.3672 61.0553 50.3672 61.0553L51.25 60.3181Z" fill="#2D3962"/>
<path d="M34.8011 47.7777C34.8011 47.7777 34.4289 47.8801 33.8238 48.1371C33.2035 48.3077 32.3351 48.5466 31.2185 48.8538C30.7222 48.9903 30.1019 49.161 29.4663 49.2453C29.0941 49.3477 28.846 49.416 28.4738 49.5184C28.1016 49.6207 27.8383 49.6027 27.4661 49.7051C26.7064 49.8236 26.0861 49.9942 25.3265 50.1127C24.5669 50.2312 23.8072 50.3497 23.1717 50.434C22.4121 50.5525 21.6524 50.671 21.0169 50.7554C20.2573 50.8739 19.6065 50.8719 18.8468 50.9904C18.2113 51.0747 17.4364 51.1069 16.8009 51.1913C16.1653 51.2756 15.6386 51.2396 14.9878 51.2376C12.7873 51.3001 11.3616 51.3303 11.3616 51.3303L11.1265 52.2094C11.1265 52.2094 11.7926 52.2976 13.4968 52.3717C15.2011 52.4458 18.0676 52.4716 22.6406 51.847C24.9347 51.5778 26.8109 51.1522 28.4389 50.7948C30.0518 50.3511 31.3077 50.0961 32.285 49.7367C33.2775 49.4637 34.0066 49.1726 34.4877 48.9498C34.9687 48.727 35.2168 48.6587 35.2168 48.6587L34.8011 47.7777Z" fill="#2D3962"/>
<path d="M17.0105 27.4754C21.7523 31.8817 9.54403 39.6457 4.58261 37.1345C-0.378818 34.6232 0.681212 29.743 3.49171 27.3537C6.17448 25.0001 12.0864 22.7762 17.0105 27.4754Z" fill="#FF606F"/>
<path d="M7.62955 29.1641C6.73017 27.8731 7.27459 26.1756 8.51198 26.1836C10.593 26.3104 11.6984 28.0185 11.5104 29.378C11.4158 31.3052 9.20356 31.2154 7.62955 29.1641Z" fill="#FFFCF2"/>
<path d="M16.7719 48.1632C19.0392 52.1371 11.4985 56.7816 7.986 54.9995C4.47349 53.2174 5.24344 49.7762 7.23864 48.0658C9.08749 46.2812 14.3035 43.7849 16.7719 48.1632Z" fill="#FF606F"/>
<path d="M10.5527 49.7417C9.65385 48.4515 10.1979 46.755 11.4346 46.763C13.5144 46.8897 14.6004 48.4833 14.4312 49.9556C14.318 51.7682 12.1257 51.7919 10.5527 49.7417Z" fill="#FFFCF2"/>
<path d="M99.5526 102.33C99.5893 102.256 92.9086 84.6236 94.938 73.0729C95.0314 73.1259 81.3994 68.5156 70.5275 47.2713C70.4908 47.3452 55.8221 46.5071 32.4377 32.8532C32.4744 32.7792 43.8012 52.3858 44.5152 62.2708C44.6453 62.2499 65.6114 70.1704 71.3415 87.5479C71.5283 87.6539 87.7139 90.0167 99.5526 102.33Z" fill="#2D3962"/>
<path d="M30.6612 29.929C32.0933 31.1109 33.3594 32.3864 34.4962 33.6826C35.7623 34.9581 37.065 36.1606 38.6265 37.3219C40.0023 38.3785 41.0462 39.6223 42.3855 40.7519C43.0551 41.3166 43.7247 41.8814 44.4872 42.4986C45.1568 43.0633 45.9193 43.6805 46.496 44.1929C49.38 46.755 52.3538 48.8999 55.3474 51.2431C56.816 52.3521 58.1553 53.4816 59.5874 54.6636C60.015 54.9983 60.3498 55.2807 60.7409 55.6884C60.7775 55.6154 60.6846 55.5631 60.7212 55.4901C60.6086 55.2395 60.4595 55.0618 60.4398 54.8635C60.4368 54.3939 60.0823 53.9132 59.95 53.4642C59.8374 53.2136 59.8177 53.0153 59.7051 52.7646C59.5925 52.5139 59.795 52.3474 59.6824 52.0967C59.5699 51.846 59.4573 51.5954 59.3447 51.3447C59.1027 51.1147 59.3418 50.8751 59.1927 50.6975C58.931 50.2691 58.6693 49.8408 58.7592 49.4235C58.7563 48.954 58.4017 48.4733 58.2694 48.0243C58.1371 47.5753 58.0048 47.1264 57.8359 46.7504C57.7036 46.3014 57.2562 45.7684 57.3461 45.3511C57.7343 45.2893 58.1788 45.3527 58.567 45.2909C58.5502 45.5621 58.6262 45.8858 58.8682 46.1158C59.0173 46.2935 59.0933 46.6171 59.0202 46.7631C58.9106 46.982 59.4113 47.1708 59.2651 47.4627C59.0626 47.6293 59.4903 47.964 59.6028 48.2147C59.7154 48.4653 59.6423 48.6113 59.7549 48.8619C59.8872 49.3109 60.3711 49.771 60.2446 50.2612C60.2644 50.4595 60.5795 50.5436 60.377 50.7102C60.3039 50.8561 60.3967 50.9085 60.453 51.0338C60.5656 51.2845 60.5853 51.4828 60.6979 51.7334C60.8302 52.1824 60.999 52.5584 61.1313 53.0073C61.2637 53.4563 61.4888 53.9576 61.6211 54.4066C61.6606 54.8032 62.1445 55.2633 62.1474 55.7329C62.0378 55.9518 62.3726 56.2342 62.4852 56.4848C62.5978 56.7355 62.3953 56.9021 62.5078 57.1527C62.5641 57.2781 62.7132 57.4557 62.8258 57.7064C63.1606 57.9888 63.4954 58.2712 63.8303 58.5536C65.2258 59.8085 67.1221 61.2521 68.5176 62.507C68.9453 62.8418 69.2801 63.1242 69.6712 63.5319C69.4658 63.2289 69.5191 62.8846 69.3137 62.5816C69.2377 62.258 68.9395 61.9026 68.8634 61.579C68.7479 60.8587 68.2808 60.1274 67.9994 59.5007C67.9233 59.1771 67.7545 58.8011 67.6419 58.5504C67.5659 58.2268 67.6193 57.8825 67.5432 57.5589C67.3744 57.1829 67.2055 56.8069 67.0366 56.4309C66.8312 56.1279 66.9212 55.7107 66.7157 55.4077C66.3049 54.8017 66.06 54.102 66.0008 53.5071C65.8853 52.7869 65.4182 52.0555 65.1368 51.4289C64.8553 50.8022 64.7033 50.155 64.4218 49.5283C64.1769 48.8287 63.617 48.045 63.5943 47.3771C63.5943 47.3771 63.5943 47.3771 63.6309 47.3041C64.0191 47.2422 64.4635 47.3057 64.8517 47.2438C64.8912 47.6404 65.0235 48.0894 65.3218 48.4448C65.5637 48.6748 65.6595 49.1968 65.6792 49.3951C65.6259 49.7393 66.1829 50.0534 66.0367 50.3453C65.8905 50.6372 66.3744 51.0973 66.5433 51.4733C66.6193 51.7969 66.6953 52.1206 66.7713 52.4442C67.0162 53.1438 67.5199 53.8022 67.5426 54.4701C67.5623 54.6684 67.9337 54.8778 67.824 55.0968C67.7509 55.2427 67.9 55.4204 67.9563 55.5457C68.0323 55.8694 68.2377 56.1724 68.3138 56.496C68.5952 57.1227 68.8767 57.7493 69.0287 58.3966C69.2736 59.0962 69.6479 59.7752 69.7634 60.4954C69.9154 61.1427 70.5485 61.7805 70.5711 62.4484C70.5178 62.7926 70.9089 63.2003 71.0777 63.5763C71.1537 63.9 71.1004 64.2442 71.1764 64.5679C71.2524 64.8915 71.5507 65.2469 71.6267 65.5705C71.8687 65.8005 72.2035 66.0829 72.4454 66.3129C73.6919 67.3902 75.0508 68.718 76.317 69.9935C77.5466 71.342 78.6833 72.6382 79.7835 74.0073C80.2872 74.6657 80.8274 75.2511 81.3311 75.9094C81.3676 75.8365 81.3479 75.6382 81.2916 75.5128C81.179 75.2622 81.4744 75.1479 81.3618 74.8973C81.3421 74.699 81.2661 74.3753 81.3392 74.2294C81.5219 73.8645 81.3333 73.2902 81.4233 72.873C81.4035 72.6747 81.5132 72.4558 81.4934 72.2575C81.4737 72.0591 81.7691 71.9449 81.7493 71.7466C81.7661 71.4753 81.783 71.2041 81.6704 70.9534C81.5578 70.7027 81.8531 70.5885 81.7406 70.3379C81.6083 69.8889 81.6053 69.4193 81.881 69.1068C82.0637 68.7419 81.8751 68.1676 81.9651 67.7504C82.055 67.3331 82.0155 66.9365 82.1054 66.5193C82.1025 66.0497 81.9139 65.4754 82.2261 65.0899C82.2261 65.0899 82.2261 65.0899 82.2626 65.0169C82.6706 65.1534 83.0785 65.2898 83.4864 65.4263C83.3767 65.6452 83.2671 65.8641 83.4359 66.2401C83.5851 66.4178 83.4388 66.7097 83.3657 66.8556C83.1632 67.0222 83.5909 67.357 83.2955 67.4712C83.0002 67.5854 83.3913 67.9931 83.3745 68.2644C83.3942 68.4627 83.1917 68.6293 83.2115 68.8276C83.2144 69.2972 83.4395 69.7985 83.1274 70.184C83.0543 70.3299 83.3328 70.487 83.074 70.5282C82.9446 70.5489 83.0009 70.6742 82.9278 70.8202C82.9475 71.0185 82.8378 71.2374 82.8576 71.4357C82.8042 71.7799 82.8071 72.2495 82.81 72.7191C82.813 73.1887 82.8159 73.6583 82.726 74.0755C82.5432 74.4404 82.954 75.0464 82.6784 75.359C82.4759 75.5255 82.6813 75.8285 82.6645 76.0998C82.6842 76.2981 82.3889 76.4124 82.3721 76.6836C82.3918 76.8819 82.5044 77.1326 82.4313 77.2785C82.8224 77.6863 83.1206 78.0416 83.4752 78.5223C84.0717 79.2331 84.7611 79.9961 85.3576 80.7069C85.9541 81.4176 86.5141 82.2013 87.1106 82.9121C87.1106 82.9121 87.558 83.4451 88.1179 84.2288C88.5288 84.8348 89.1253 85.5456 89.6853 86.3293C89.5164 85.9533 89.7554 85.7137 89.6794 85.3901C89.6034 85.0665 89.4711 84.6175 89.4879 84.3462C89.5018 83.6054 89.2569 82.9057 89.2343 82.2378C89.1582 81.9142 89.2116 81.57 89.1356 81.2463C89.0596 80.9227 89.2986 80.6831 89.2226 80.3595C89.1466 80.0359 89.1437 79.5663 88.9748 79.1903C88.8059 78.8143 89.045 78.5747 88.969 78.2511C88.7241 77.5515 88.572 76.9042 88.7351 76.341C88.8418 75.6525 88.5041 74.9005 88.4814 74.2327C88.4588 73.5648 88.3996 72.9698 88.2841 72.2496C88.2614 71.5817 87.8674 70.7044 88.0305 70.1412C88.0305 70.1412 88.0305 70.1412 88.067 70.0682C88.4749 70.2047 88.8266 70.2158 89.2345 70.3522C89.1811 70.6965 89.184 71.1661 89.3529 71.5421C89.4655 71.7927 89.4684 72.2623 89.3587 72.4812C89.2125 72.7731 89.6036 73.1809 89.4574 73.4728C89.2183 73.7123 89.6657 74.2454 89.7052 74.642C89.7812 74.9656 89.635 75.2575 89.711 75.5811C89.7337 76.249 90.1642 77.0534 89.8718 77.6372C89.8916 77.8355 90.1335 78.0655 89.931 78.2321C89.8579 78.378 89.9142 78.5034 89.9339 78.7017C90.01 79.0253 89.9931 79.2966 90.0326 79.6932C90.0918 80.2881 90.2439 80.9354 90.2665 81.6033C90.382 82.3235 90.4047 82.9914 90.5201 83.7117C90.45 84.3272 90.9171 85.0586 90.754 85.6217C90.6078 85.9136 90.8695 86.342 90.909 86.7386C90.985 87.0622 90.746 87.3018 90.822 87.6254C90.8417 87.8237 90.9543 88.0744 90.974 88.2727C92.2431 90.0178 93.2702 91.5329 93.2702 91.5329C93.8302 92.3166 94.3901 93.1003 94.9501 93.884C95.51 94.6677 96.1263 95.5767 96.6497 96.4334C97.8259 98.1262 98.8727 99.8395 99.7704 101.375C99.8267 101.501 99.883 101.626 99.9759 101.678C99.5511 101.813 99.0898 102.021 98.6651 102.156C97.5057 100.192 96.4026 98.353 95.0407 96.5555C94.5933 96.0225 94.0333 95.2388 93.5099 94.3821C92.9865 93.5254 92.4265 92.7417 92.1086 92.188C91.3037 90.7047 89.759 89.2721 89.1033 87.9665C88.9345 87.5905 88.6362 87.2351 88.3745 86.8068C88.2254 86.6291 88.0199 86.3261 87.778 86.0961L87.7414 86.169C87.0944 86.2721 86.3883 85.7803 85.7047 85.9564C85.4459 85.9977 85.0746 85.7882 84.7229 85.7771C84.4079 85.6931 84.1125 85.8073 83.7975 85.7232C83.0745 85.5027 82.4275 85.6058 81.7608 85.5106C81.4091 85.4995 81.0941 85.4154 80.7424 85.4043C80.3908 85.3932 80.056 85.1108 79.7409 85.0267C79.3893 85.0156 79.0377 85.0045 78.686 84.9934C78.3907 85.1076 77.963 84.7728 77.7042 84.8141C77.1867 84.8966 76.4834 84.8744 75.797 84.5809C75.074 84.3603 74.427 84.4634 73.7237 84.4412C73.057 84.346 72.4831 84.3032 71.8164 84.208C71.1497 84.1128 70.3734 84.2365 69.6869 83.943C69.6869 83.943 69.6869 83.943 69.5941 83.8907C69.5546 83.4941 69.3857 83.1181 69.3463 82.7215C69.7542 82.8579 70.1987 82.9214 70.5868 82.8595C70.7528 82.7659 71.2901 82.8817 71.5686 83.0388C71.94 83.2482 72.2156 82.9357 72.4941 83.0927C72.8289 83.3751 73.2339 83.042 73.549 83.1261C73.9007 83.1372 74.1792 83.2942 74.5308 83.3053C75.1975 83.4005 75.881 83.2245 76.5675 83.518C76.7897 83.5497 76.8994 83.3308 77.1414 83.5608C77.327 83.6655 77.4564 83.6449 77.6787 83.6766C77.9937 83.7607 78.3454 83.7718 78.6042 83.7306C79.178 83.7734 79.8447 83.8686 80.4186 83.9114C81.0853 84.0066 81.6957 83.9765 82.4553 84.124C83.0854 84.2922 83.5833 84.0114 84.2697 84.3049C84.6411 84.5143 84.973 84.3271 85.3246 84.3382C85.6397 84.4223 86.0111 84.6317 86.3261 84.7158C86.4555 84.6952 86.5849 84.6746 86.6778 84.7269C86.1375 84.1415 85.5973 83.5561 85.1865 82.9501C84.6828 82.2917 84.1228 81.508 83.6192 80.8496C83.1155 80.1913 82.519 79.4805 82.0153 78.8222C80.8223 77.4007 79.5927 76.0522 78.2702 74.6514C78.1774 74.599 78.1211 74.4737 78.0283 74.4213C77.5472 74.4308 77.0465 74.242 76.678 74.5022C76.4755 74.6688 76.1042 74.4594 75.8454 74.5006C75.5866 74.5419 75.2913 74.6561 75.069 74.6243C74.4023 74.5292 73.941 74.737 73.4234 74.8195C73.1646 74.8607 72.9059 74.9019 72.5908 74.8179C72.332 74.8591 71.9606 74.6497 71.7384 74.618C71.4796 74.6592 71.0914 74.7211 70.8326 74.7623C70.5373 74.8765 70.2025 74.5941 70 74.7607C69.5387 74.9685 69.0211 75.051 68.4275 74.8099C67.7973 74.6417 67.2995 74.9225 66.6891 74.9526C66.1715 75.0351 65.5976 74.9923 65.08 75.0748C64.5625 75.1573 63.9718 75.3857 63.3416 75.2175C63.3416 75.2175 63.3416 75.2175 63.2488 75.1652C63.0799 74.7892 62.9111 74.4132 62.7422 74.0372C63.0938 74.0483 63.5017 74.1848 63.7408 73.9452C63.9067 73.8516 64.2584 73.8627 64.5735 73.9468C64.852 74.1039 65.0347 73.739 65.3133 73.8961C65.6846 74.1055 65.8674 73.7406 66.219 73.7517C66.4778 73.7105 66.7929 73.7945 67.0151 73.8263C67.5327 73.7438 68.0306 73.463 68.717 73.7565C68.9392 73.7882 68.9561 73.5169 69.198 73.747C69.3837 73.8517 69.5131 73.8311 69.6425 73.8104C69.9013 73.7692 70.1235 73.8009 70.3823 73.7597C70.8633 73.7502 71.3809 73.6677 71.8985 73.5852C72.5089 73.5551 73.0265 73.4726 73.6004 73.5154C74.1377 73.6312 74.4864 73.1727 75.1166 73.3409C75.5245 73.4774 75.727 73.3108 75.9858 73.2695C76.2445 73.2283 76.6159 73.4377 76.8382 73.4694C75.9997 72.5287 75.0683 71.5355 74.3592 70.5742C73.6136 69.6857 72.6486 69.2352 71.9761 68.2008C71.4724 67.5424 70.8028 66.9776 70.1697 66.3399C68.867 65.1374 67.6572 63.9872 66.3545 62.7846C66.2053 62.6069 66.0197 62.5022 65.8705 62.3246C65.834 62.3975 65.7046 62.4182 65.5752 62.4388C64.7425 62.4372 63.9435 61.893 63.0743 61.9644C62.7227 61.9533 62.2585 61.6915 61.9068 61.6804C61.4989 61.544 61.1107 61.6058 60.7028 61.4694C59.7941 61.1442 59.0543 61.1949 58.2019 60.995C57.794 60.8586 57.4424 60.8475 57.0345 60.711C56.6265 60.5746 56.2552 60.3652 55.8473 60.2288C55.4028 60.1653 54.8655 60.0495 54.5138 60.0384C54.1256 60.1002 53.698 59.7655 53.3464 59.7544C52.6431 59.7322 51.7542 59.6052 50.9749 59.2594C50.0662 58.9341 49.2335 58.9326 48.3446 58.8056C47.585 58.6581 46.7327 58.4582 45.9731 58.3106C45.1207 58.1107 44.1587 58.1298 43.3794 57.7839L43.2865 57.7315C43.2471 57.3349 43.2639 57.0637 43.2244 56.667C43.7252 56.8558 44.2625 56.9717 44.7435 56.9621C45.0023 56.9209 45.6325 57.0891 45.911 57.2461C46.2823 57.4555 46.7436 57.2477 47.115 57.4571C47.4498 57.7395 48.0405 57.5111 48.4484 57.6475C48.8929 57.711 49.2643 57.9204 49.6159 57.9315C50.4683 58.1314 51.3375 58.06 52.1168 58.4059C52.3953 58.5629 52.6344 58.3234 52.8763 58.5534C53.062 58.6581 53.2842 58.6899 53.5065 58.7216C53.951 58.7851 54.266 58.8692 54.6739 59.0056C55.4335 59.1531 56.193 59.3007 56.9526 59.4482C57.805 59.6481 58.6011 59.7227 59.4169 59.9956C60.1399 60.2161 60.9163 60.0924 61.6956 60.4382C62.1598 60.7 62.5845 60.5652 62.9924 60.7016C63.4004 60.838 63.7717 61.0474 64.1796 61.1839C64.2725 61.2362 64.4019 61.2156 64.4947 61.268C63.8251 60.7032 63.0626 60.0861 62.393 59.5213C61.0538 58.3917 59.678 57.3351 58.3387 56.2056C56.3861 54.6366 54.4335 53.0675 52.3881 51.4462C51.9802 51.3097 51.6454 51.0273 51.1644 51.0369C50.9056 51.0781 50.7002 50.7751 50.4779 50.7434C50.2557 50.7116 49.9406 50.6275 49.7549 50.5228C49.1979 50.2087 48.7168 50.2182 48.1232 49.9771C47.901 49.9453 47.6225 49.7883 47.3074 49.7042C47.0852 49.6725 46.8798 49.3695 46.5647 49.2854C46.2496 49.2013 45.9345 49.1172 45.7123 49.0855C45.4535 49.1267 45.2481 48.8237 44.933 48.7396C44.452 48.7491 43.9147 48.6333 43.3942 48.2462C42.8371 47.9321 42.2633 47.8893 41.7259 47.7734C41.2252 47.5846 40.6879 47.4688 40.1871 47.28C39.6863 47.0912 38.9831 47.069 38.5554 46.7343C38.5554 46.7343 38.5554 46.7343 38.4626 46.6819C38.516 46.3377 38.5693 45.9934 38.7155 45.7015C38.9941 45.8586 39.3654 46.068 39.6608 45.9538C39.9196 45.9125 40.1981 46.0696 40.3472 46.2473C40.5892 46.4773 40.9211 46.2901 41.0702 46.4678C41.2756 46.7708 41.6441 46.5106 41.9226 46.6677C42.1448 46.6994 42.3868 46.9295 42.7019 47.0135C43.2027 47.2023 43.8131 47.1722 44.3336 47.5593C44.5192 47.664 44.7218 47.4974 44.8343 47.7481C44.8906 47.8734 45.1129 47.9052 45.2057 47.9575C45.4279 47.9892 45.7065 48.1463 45.9287 48.178C46.4294 48.3668 46.8739 48.4303 47.3747 48.6191C47.8754 48.8079 48.4128 48.9237 49.0064 49.1648C49.2849 49.3219 49.5071 49.3536 49.7294 49.3854C49.5437 49.2806 49.3945 49.103 49.2089 48.9983C47.9625 47.921 46.4938 46.8121 45.118 45.7555C43.7422 44.6989 42.2736 43.59 41.1003 42.3668C39.8144 40.893 37.9941 39.773 36.5057 38.4657C35.2959 37.3155 34.1957 35.9464 32.9493 34.8692C31.7394 33.719 30.1216 32.4324 28.9483 31.2093C28.104 29.3293 28.8015 28.4124 30.6612 29.929Z" fill="#2D6C73"/>
</svg>
