<svg width="303" height="282" viewBox="0 0 303 282" fill="none" xmlns="http://www.w3.org/2000/svg">
<path d="M260 141.613C260 142.758 266.869 143.903 275.701 143.903C275.864 154.37 276.846 162.384 277.991 162.384C279.136 162.384 280.117 154.37 280.28 143.903C288.621 143.739 294.836 142.758 294.836 141.613C294.836 140.468 288.458 139.487 280.28 139.323C280.28 127.875 279.299 118.879 277.991 118.879C276.682 118.879 275.701 127.875 275.701 139.16C266.869 139.323 260 140.305 260 141.613Z" fill="#B3C8D3"/>
<path d="M253 167.466C253 168.15 257.141 168.834 262.465 168.834C262.563 175.09 263.155 179.879 263.845 179.879C264.535 179.879 265.127 175.09 265.225 168.834C270.254 168.737 274 168.15 274 167.466C274 166.782 270.155 166.195 265.225 166.097C265.225 159.255 264.634 153.879 263.845 153.879C263.056 153.879 262.465 159.255 262.465 166C257.141 166.097 253 166.684 253 167.466Z" fill="#B3C8D3"/>
<path d="M72 23.4659C72 24.1501 76.1408 24.8343 81.4648 24.8343C81.5634 31.0899 82.1549 35.8794 82.8451 35.8794C83.5352 35.8794 84.1268 31.0899 84.2254 24.8343C89.2535 24.7365 93 24.1501 93 23.4659C93 22.7816 89.1549 22.1952 84.2254 22.0974C84.2254 15.2553 83.6338 9.87939 82.8451 9.87939C82.0563 9.87939 81.4648 15.2553 81.4648 21.9997C76.1408 22.0974 72 22.6839 72 23.4659Z" fill="#FF606F"/>
<path d="M144.349 45.5937C142.684 45.5325 140.341 45.41 137.689 45.2876C136.333 45.2263 134.915 45.1651 133.373 45.1039C131.893 45.0427 130.352 44.9814 128.749 44.9202C125.666 44.7978 122.521 44.7365 119.623 44.7978C126.652 37.7569 134.607 28.6345 134.607 28.6345C134.607 28.6345 125.481 36.4712 118.39 43.3284C118.39 29.1855 117.157 10.8794 117.157 10.8794C117.157 10.8794 115.985 29.1855 115.924 43.3284C109.635 37.2059 101.311 30.1651 101.311 30.1651C101.311 30.1651 108.525 38.6141 114.814 44.9202C110.189 45.0427 105.38 45.2876 101.372 45.5325C95.9462 45.8998 92 46.2672 92 46.2672C92 46.2672 95.8845 46.6345 101.311 47.0631C105.133 47.308 109.635 47.6141 114.074 47.7365C107.723 54.2876 101.311 61.6957 101.311 61.6957C101.311 61.6957 109.203 54.961 115.985 48.4712C116.17 61.8182 117.157 76.8794 117.157 76.8794C117.157 76.8794 118.143 61.8182 118.328 48.41C124.248 53.9814 130.845 59.5529 130.845 59.5529C130.845 59.5529 125.604 53.4304 120.24 47.7365C123.015 47.6753 125.913 47.5529 128.811 47.4304C129.612 47.3692 130.352 47.308 131.154 47.308C131.893 47.2467 132.695 47.1855 133.435 47.1243C134.915 47.0018 136.395 46.8794 137.689 46.7569C140.402 46.512 142.684 46.2672 144.349 46.0835C146.013 45.8998 147 45.7774 147 45.7774C147 45.7774 146.013 45.7161 144.349 45.5937Z" fill="#72BAD1"/>
<path d="M202.583 97.7515L220.952 97.3755L223.477 82.5513L227.612 83.894L229.438 107.473L179.219 107.258L210.049 59.6167C213.88 53.4578 215.133 45.7414 213.809 36.4673C212.52 31.3826 206.379 31.508 195.386 36.8433C192.271 38.8485 190.14 43.3244 188.994 50.271L181.904 48.7671L181.421 20.8374L186.792 21.5894L189.37 30.7739C208.993 17.7401 221.937 18.7248 228.203 33.728C231.748 41.1401 230.871 49.716 225.571 59.4556L202.583 97.7515ZM220.952 43.7183C220.522 40.3166 219.466 37.255 217.783 34.5337C220.075 42.1965 220.236 49.8055 218.267 57.3608C220.487 51.6317 221.382 47.0841 220.952 43.7183ZM221.113 36.6821C220.719 32.8866 218.893 30.0041 215.635 28.0347C217.855 30.756 219.395 33.2625 220.254 35.5542L221.113 36.6821ZM220.952 57.7368C224.032 52.6164 224.658 47.3885 222.832 42.0532C223.62 48.7492 222.116 55.1408 218.32 61.228L220.952 57.7368ZM256.401 97.7515L274.771 97.3755L277.295 82.5513L281.431 83.894L283.257 107.473L233.037 107.258L263.867 59.6167C267.699 53.4578 268.952 45.7414 267.627 36.4673C266.338 31.3826 260.197 31.508 249.204 36.8433C246.089 38.8485 243.958 43.3244 242.812 50.271L235.723 48.7671L235.239 20.8374L240.61 21.5894L243.188 30.7739C262.811 17.7401 275.755 18.7248 282.021 33.728C285.566 41.1401 284.689 49.716 279.39 59.4556L256.401 97.7515ZM274.771 43.7183C274.341 40.3166 273.285 37.255 271.602 34.5337C273.893 42.1965 274.054 49.8055 272.085 57.3608C274.305 51.6317 275.2 47.0841 274.771 43.7183ZM274.932 36.6821C274.538 32.8866 272.712 30.0041 269.453 28.0347C271.673 30.756 273.213 33.2625 274.072 35.5542L274.932 36.6821ZM274.771 57.7368C277.85 52.6164 278.477 47.3885 276.65 42.0532C277.438 48.7492 275.934 55.1408 272.139 61.228L274.771 57.7368Z" fill="#2D3962"/>
<path d="M4.9 55.4161L0 221.879L70.2 220.936L75.2 51.8794L4.9 55.4161Z" fill="#72BAD1"/>
<path d="M4.9 55.4162L0 221.879L26.4 221.408L29.2 54.2373L4.9 55.4162Z" fill="#2D3962"/>
<path d="M19.4 54.7085L14.5 221.643L8.80005 221.408L15.3 55.1801L19.4 54.7085Z" fill="#4F8BAD"/>
<path d="M40.1999 54.779C40.1999 54.779 39.9999 53.979 39.5999 52.479C39.1999 50.879 38.5999 48.479 37.5999 45.379C36.5999 42.179 35.1999 38.179 32.7999 33.679C32.1999 32.579 31.4999 31.479 30.7999 30.279C29.9999 29.179 29.1999 28.079 28.1999 27.079C27.1999 26.079 26.0999 25.179 24.8999 24.679C23.6999 24.179 22.2999 24.079 21.2999 24.779C20.2999 25.479 19.5999 26.979 19.3999 28.479C19.0999 29.979 19.1999 31.579 19.3999 32.979C19.7999 35.879 20.6999 38.479 21.6999 40.679C22.6999 42.879 23.8999 44.779 24.9999 46.379C26.0999 47.979 27.0999 49.279 28.0999 50.379C29.9999 52.679 31.4999 54.079 32.4999 54.979C33.4999 55.879 33.9999 56.279 33.9999 56.279L33.0999 57.479C33.0999 57.479 32.6999 57.179 31.5999 56.479C30.5999 55.679 28.9999 54.479 26.9999 52.479C24.9999 50.379 22.2999 47.479 19.8999 42.879C19.2999 41.779 18.6999 40.479 18.1999 39.079C17.6999 37.679 17.1999 36.179 16.8999 34.479C16.5999 32.779 16.3999 30.979 16.6999 28.879C16.7999 27.979 16.9999 26.879 17.3999 25.879C17.7999 24.779 18.4999 23.679 19.3999 22.879C20.3999 21.979 21.5999 21.479 22.6999 21.379C23.7999 21.279 24.7999 21.479 25.6999 21.779C27.4999 22.479 28.8999 23.579 29.9999 24.779C31.1999 25.879 32.1999 27.179 32.9999 28.379C33.7999 29.579 34.4999 30.879 35.1999 32.079C37.6999 36.979 38.9999 41.179 39.9999 44.479C40.9999 47.779 41.4999 50.179 41.7999 51.779C42.0999 53.379 42.2999 54.079 42.2999 54.079L40.1999 54.779Z" fill="#2D3962"/>
<path d="M42.3 52.7794C42.3 52.7794 42.7 52.1794 43.5 50.7794C44.3 49.3794 45.4001 47.3794 46.9001 44.4794C48.3001 41.5794 50.2001 37.8794 51.7001 33.0794C52.1 31.8794 52.5 30.6794 52.8 29.3794C53.1 28.0794 53.3001 26.6794 53.4001 25.3794C53.4001 24.6794 53.4 23.9794 53.3 23.3794C53.2 22.7794 53 22.2794 52.8 22.0794C52.6 21.9794 52.5 21.8794 52.3 21.8794C52.2 21.8794 52 21.8794 51.7001 21.8794C51.2001 21.9794 50.6 22.3794 50.1 22.7794C49 23.7794 47.9 24.9794 47 26.2794C46.1 27.5794 45.3 28.7794 44.6 30.0794C43.2 32.6794 42.1 35.0794 41.3 37.3794C39.6 41.9794 38.5 45.7794 37.8 48.6794C37.1 51.5794 36.7001 53.7794 36.4001 55.0794C36.2001 56.4794 36 57.0794 36 57.0794L34.8 56.8794C34.8 56.8794 34.8001 56.3794 34.9001 55.0794C35.0001 53.7794 35.2001 51.7794 35.7001 48.8794C36.2001 45.9794 37.0001 42.1794 38.7001 37.2794C39.5001 34.8794 40.6 32.1794 42 29.3794C42.7 27.9794 43.5 26.4794 44.5 25.0794C45.5 23.5794 46.6 22.0794 48.2001 20.7794C49.0001 20.0794 49.8 19.4794 50.8 19.0794C51.4 18.9794 51.9 18.8794 52.5 18.8794C53.1 18.8794 53.7001 19.0794 54.2001 19.4794C54.7001 19.8794 55.1001 20.3794 55.4001 20.8794C55.7001 21.3794 55.8001 21.8794 55.9001 22.3794C56.1001 23.3794 56.1 24.2794 56.1 25.0794C55.9 28.4794 55 31.3794 54.2001 33.9794C52.4001 39.0794 50.5001 42.8794 48.9001 45.7794C47.3001 48.6794 46.1 50.6794 45.3 52.0794C44.5 53.3794 44.1 53.9794 44.1 53.9794L42.3 52.7794Z" fill="#2D3962"/>
<g clip-path="url(#clip0)">
<path d="M139.668 151.994C139.668 151.994 139.668 151.765 139.668 151.306C139.668 150.848 139.668 150.274 139.553 149.357C139.439 147.638 139.324 144.886 138.521 141.333C137.718 137.779 136.342 133.193 133.361 128.378C131.87 125.971 129.92 123.564 127.512 121.5C126.251 120.468 124.989 119.551 123.499 118.863C122.122 118.176 120.517 117.717 119.256 117.832C117.994 117.946 117.421 118.52 116.962 119.437C116.503 120.468 116.503 121.959 116.733 123.449C116.962 124.939 117.306 126.43 117.765 127.92C118.223 129.41 118.797 130.671 119.37 132.047C121.664 137.206 124.301 141.103 126.251 144.084C128.2 147.065 129.806 149.128 130.723 150.504C131.755 151.879 132.214 152.453 132.214 152.453L130.15 154.172C130.15 154.172 129.576 153.714 128.544 152.682C127.398 151.65 125.677 149.93 123.499 147.179C121.205 144.428 118.338 140.645 115.471 135.142C114.095 132.391 112.604 129.181 111.687 125.054C111.343 122.99 111.114 120.698 111.687 118.061C112.031 116.8 112.719 115.424 113.751 114.278C114.783 113.132 116.274 112.444 117.65 112.214C119.026 111.985 120.402 111.985 121.664 112.214C122.925 112.444 124.072 112.902 125.104 113.361C127.168 114.278 129.003 115.539 130.608 116.915C133.705 119.551 135.998 122.647 137.718 125.512C141.159 131.359 142.535 136.632 143.338 140.759C144.026 144.886 144.14 147.752 144.026 149.701C144.026 151.535 143.911 152.453 143.911 152.453L139.668 151.994Z" fill="#4F8BAD"/>
<path d="M145.058 151.994C145.058 151.994 145.287 151.765 145.631 151.192C145.975 150.618 146.663 149.931 147.351 148.784C148.842 146.606 151.25 143.167 153.773 138.123C155.034 135.601 156.411 132.735 157.672 129.296C158.933 125.857 160.08 121.959 160.883 117.603C161.686 113.246 162.03 108.202 161.342 103.158C160.998 100.636 160.195 97.9994 158.933 95.8212C158.36 94.7895 157.557 93.8724 156.755 93.4138C155.952 92.8406 155.149 92.6114 154.232 92.8406C152.282 93.0699 150.333 94.9041 148.842 96.853C147.236 98.9165 146.09 101.209 145.058 103.617C142.993 108.317 141.732 113.017 140.7 117.259C138.75 125.857 137.948 133.079 137.374 138.581C136.801 144.084 136.686 148.096 136.572 150.618C136.457 153.14 136.457 154.401 136.457 154.401L133.705 154.058C133.705 154.058 133.59 153.026 133.475 150.618C133.361 148.211 133.131 144.428 133.361 139.04C133.475 136.289 133.59 133.193 133.934 129.525C134.278 125.857 134.737 121.844 135.654 117.259C136.457 112.673 137.718 107.629 139.782 102.241C140.815 99.6043 142.191 96.7384 144.025 94.1017C144.714 92.726 145.86 91.3503 147.122 90.0893C148.498 88.8283 149.989 87.7966 152.053 87.1087C153.2 86.8794 154.346 86.7648 155.378 86.8794C156.525 86.9941 157.672 87.338 158.589 87.9112C160.654 88.9429 162.03 90.6625 163.176 92.2675C165.355 95.592 166.158 99.0311 166.731 102.126C167.649 108.431 167.075 114.163 166.273 118.978C165.355 123.908 163.979 128.149 162.488 131.703C160.998 135.372 159.507 138.467 158.016 140.989C155.149 146.148 152.626 149.587 150.906 151.765C149.186 153.943 148.383 154.86 148.383 154.86L145.058 151.994Z" fill="#4F8BAD"/>
<path d="M63.1788 275.46L61 150.16L237.945 148.326L249.298 273.511L63.1788 275.46Z" fill="#2D3962"/>
<path d="M237.945 148.326L124.301 149.472L135.769 274.657L249.298 273.511L237.945 148.326Z" fill="#FF606F"/>
<path d="M146.09 149.243L126.365 172.4L128.774 198.308L172.58 149.014L146.09 149.243Z" fill="#C24751"/>
<path d="M202.511 148.67L131.297 225.936L133.59 250.583L229.803 148.44L202.511 148.67Z" fill="#C24751"/>
<path d="M240.354 175.495L140.471 274.657L168.681 274.313L242.877 202.664L240.354 175.495Z" fill="#C24751"/>
<path d="M245.743 234.305L204.46 273.97L232.326 273.626L248.037 259.181L245.743 234.305Z" fill="#C24751"/>
<path d="M248.037 259.181L232.326 273.626L249.298 273.511L248.037 259.181Z" fill="#FF606F"/>
<path d="M223.037 155.089L248.61 173.546L247.693 175.151C247.693 175.151 244.482 173.89 234.849 167.012C225.331 160.133 222.12 156.694 222.12 156.694L223.037 155.089Z" fill="#C24751"/>
<path d="M203.772 141.218L223.037 155.09L222.12 156.694C222.12 156.694 219.482 156.007 212.372 150.733C205.148 145.575 202.854 142.709 202.854 142.709L203.772 141.218Z" fill="#FF606F"/>
<path d="M207.327 171.827L250.789 206.333L249.757 207.938C249.757 207.938 244.482 204.957 228.312 192.003C212.028 179.164 206.295 173.432 206.295 173.432L207.327 171.827Z" fill="#C24751"/>
<path d="M192.075 159.675L207.441 171.827L206.409 173.432C206.409 173.432 204.231 172.859 198.497 168.273C192.763 163.688 191.043 161.166 191.043 161.166L192.075 159.675Z" fill="#FF606F"/>
<path d="M171.548 143.396L191.96 159.675L190.928 161.28C190.928 161.28 188.176 160.248 180.492 154.172C172.809 148.097 170.401 145.001 170.401 145.001L171.548 143.396Z" fill="#C24751"/>
<path d="M245.973 228.458L252.509 233.044L251.592 234.648C251.592 234.648 250.445 234.992 248.037 233.273C245.629 231.553 245.17 230.063 245.17 230.063L245.973 228.458Z" fill="#FF606F"/>
<path d="M228.542 215.962L246.087 228.343L245.17 229.948C245.17 229.948 242.762 229.375 236.225 224.79C229.688 220.204 227.624 217.567 227.624 217.567L228.542 215.962Z" fill="#C24751"/>
<path d="M211.34 203.811L228.542 215.963L227.624 217.568C227.624 217.568 225.331 216.994 218.794 212.524C212.373 207.938 210.308 205.416 210.308 205.416L211.34 203.811Z" fill="#FF606F"/>
<path d="M190.813 189.366L211.34 203.925L210.423 205.53C210.423 205.53 207.671 204.728 200.102 199.34C192.419 193.952 190.01 191.086 190.01 191.086L190.813 189.366Z" fill="#C24751"/>
<path d="M174.988 178.132L190.813 189.366L189.896 190.971C189.896 190.971 187.717 190.513 181.754 186.386C175.791 182.144 174.071 179.737 174.071 179.737L174.988 178.132Z" fill="#FF606F"/>
<path d="M157.443 165.636L174.988 178.017L174.071 179.737C174.071 179.737 171.662 179.164 165.126 174.578C158.589 169.992 156.525 167.356 156.525 167.356L157.443 165.636Z" fill="#C24751"/>
<path d="M141.503 154.402L157.443 165.751L156.525 167.356C156.525 167.356 154.346 166.897 148.383 162.656C142.42 158.414 140.585 156.007 140.585 156.007L141.503 154.402Z" fill="#FF606F"/>
<path d="M132.902 148.211L141.502 154.287L140.585 155.892C140.585 155.892 139.209 156.007 135.998 153.714C132.787 151.421 131.984 149.816 131.984 149.816L132.902 148.211Z" fill="#C24751"/>
<path d="M246.546 259.984L254 265.028L253.083 266.633C253.083 266.633 251.821 266.862 249.069 265.028C246.317 263.194 245.629 261.589 245.629 261.589L246.546 259.984Z" fill="#FF606F"/>
<path d="M229.918 248.864L246.431 259.984L245.514 261.589C245.514 261.589 243.22 261.13 237.028 257.003C230.835 252.876 228.886 250.469 228.886 250.469L229.918 248.864Z" fill="#FF606F"/>
<path d="M209.047 234.878L230.033 248.978L229.115 250.583C229.115 250.583 226.363 249.896 218.565 244.622C210.767 239.349 208.129 236.483 208.129 236.483L209.047 234.878Z" fill="#C24751"/>
<path d="M191.731 223.185L209.047 234.763L208.129 236.368C208.129 236.368 205.836 235.909 199.299 231.553C192.877 227.197 190.813 224.79 190.813 224.79L191.731 223.185Z" fill="#FF606F"/>
<path d="M171.548 209.657L191.731 223.185L190.813 224.79C190.813 224.79 188.176 224.102 180.607 219.058C173.039 214.013 170.63 211.262 170.63 211.262L171.548 209.657Z" fill="#C24751"/>
<path d="M155.608 198.996L171.548 209.657L170.63 211.262C170.63 211.262 168.452 210.918 162.488 206.906C156.525 202.894 154.69 200.601 154.69 200.601L155.608 198.996Z" fill="#FF606F"/>
<path d="M138.177 187.303L155.608 198.996L154.69 200.601C154.69 200.601 152.282 200.142 145.745 195.786C139.209 191.43 137.145 188.908 137.145 188.908L138.177 187.303Z" fill="#C24751"/>
<path d="M121.434 176.068L138.177 187.303L137.26 188.908C137.26 188.908 134.966 188.449 128.774 184.322C122.466 180.081 120.517 177.673 120.517 177.673L121.434 176.068Z" fill="#FF606F"/>
<path d="M210.652 267.435L228.542 280.275L227.624 281.88C227.624 281.88 225.216 281.306 218.565 276.491C211.914 271.677 209.735 269.04 209.735 269.04L210.652 267.435Z" fill="#FF606F"/>
<path d="M190.355 252.876L210.652 267.435L209.735 269.04C209.735 269.04 207.097 268.238 199.414 262.85C191.845 257.462 189.323 254.481 189.323 254.481L190.355 252.876Z" fill="#C24751"/>
<path d="M173.841 241.068L190.355 252.876L189.437 254.481C189.437 254.481 187.144 254.023 180.951 249.552C174.759 245.081 172.924 242.673 172.924 242.673L173.841 241.068Z" fill="#FF606F"/>
<path d="M154.92 227.426L173.841 241.068L172.924 242.673C172.924 242.673 170.401 241.985 163.291 236.941C156.181 231.783 153.888 229.031 153.888 229.031L154.92 227.426Z" fill="#C24751"/>
<path d="M139.553 216.536L154.805 227.541L153.888 229.031C153.888 229.031 151.709 228.573 145.975 224.56C140.241 220.433 138.521 218.141 138.521 218.141L139.553 216.536Z" fill="#FF606F"/>
<path d="M122.925 204.499L139.553 216.421L138.636 218.026C138.636 218.026 136.342 217.567 130.15 213.096C123.957 208.626 122.008 206.103 122.008 206.103L122.925 204.499Z" fill="#C24751"/>
<path d="M154.232 260.557L175.676 276.033L174.759 277.638C174.759 277.638 171.892 276.721 163.864 270.989C155.837 265.257 153.199 262.162 153.199 262.162L154.232 260.557Z" fill="#FF606F"/>
<path d="M130.838 243.705L154.232 260.557L153.314 262.162C153.314 262.162 150.333 261.13 141.502 254.825C132.787 248.52 129.92 245.31 129.92 245.31L130.838 243.705Z" fill="#C24751"/>
<path d="M85.77 149.931L94.1414 275.116H101.251L97.6963 149.816L85.77 149.931Z" fill="#4F8BAD"/>
<path d="M170.86 149.013L180.951 274.199L200.561 273.969L196.089 148.784L170.86 149.013Z" fill="#FFFCF2"/>
<path d="M168.91 148.899L198.612 148.555L198.726 149.816C198.726 149.816 195.515 150.504 184.392 150.618C173.268 150.733 168.91 150.16 168.91 150.16V148.899Z" fill="#FF606F"/>
<path d="M202.51 273.969L176.02 274.199L175.906 272.938C175.906 272.938 178.772 272.25 188.635 272.135C198.497 272.021 202.396 272.594 202.396 272.594L202.51 273.969Z" fill="#FF606F"/>
</g>
<path d="M47.0853 244.92C47.0162 244.988 46.9472 244.988 46.9472 245.056C46.8781 245.124 46.8781 245.124 46.8091 245.26C46.7401 245.396 46.7401 245.328 46.7401 245.328C46.671 245.328 46.602 245.26 46.533 245.26C46.3258 245.192 46.1187 245.192 45.8426 245.192C45.3593 245.124 44.807 245.124 44.3237 245.124C43.2882 245.124 42.1836 245.192 41.148 245.26C40.1124 245.328 39.0078 245.464 37.9723 245.6L36.3844 245.805L33.9681 246.145L33.4848 244.512L33.3468 243.764L32.9325 242.267C32.6564 241.247 32.3802 240.226 32.035 239.274C31.6899 238.322 31.3447 237.301 30.9304 236.417C30.7233 235.941 30.5162 235.532 30.2401 235.124C30.171 234.988 30.102 234.92 30.0329 234.852L29.9639 234.716L29.8949 234.988C29.8258 235.396 29.8258 235.941 29.8258 236.417C29.8258 237.437 29.8949 238.458 30.0329 239.478C30.171 240.498 30.3091 241.519 30.4472 242.607L30.7233 244.172L30.9304 245.396L31.2756 246.961L29.4806 246.689L28.1689 246.553L26.443 246.349C25.2694 246.213 24.0957 246.145 22.9221 246.009C21.7484 245.941 20.5748 245.873 19.4702 245.873C18.9179 245.873 18.3656 245.941 17.8133 246.009C17.5371 246.077 17.261 246.077 17.0539 246.145L17.261 246.281L17.6062 246.485C17.8133 246.621 18.0894 246.689 18.2965 246.825C19.2631 247.233 20.2986 247.573 21.3342 247.845C23.4053 248.458 25.5455 249.002 27.6857 249.478L30.171 250.022L29.5497 251.383L29.1355 252.403L28.5832 253.764C28.238 254.648 27.8928 255.6 27.6166 256.485C27.3405 257.369 27.0643 258.322 26.8572 259.206C26.7882 259.682 26.7191 260.09 26.6501 260.498C26.6501 260.566 26.6501 260.703 26.6501 260.771C26.6501 260.839 26.6501 260.975 26.6501 260.975L26.7191 260.907C26.9953 260.634 27.3405 260.294 27.6166 259.954C28.1689 259.206 28.7212 258.39 29.2735 257.573C29.8258 256.757 30.3091 255.941 30.7924 255.056L31.4827 253.764L32.1041 252.539L32.7945 251.179L33.761 252.403L34.6585 253.424L35.694 254.58C36.3844 255.328 37.0748 256.077 37.7652 256.757C38.4555 257.437 39.215 258.117 39.9744 258.73C40.3196 259.002 40.7338 259.274 41.079 259.478H41.148C41.148 259.478 41.148 259.342 41.079 259.206C41.079 259.138 41.0099 259.002 41.0099 258.934C40.8719 258.526 40.6647 258.049 40.4576 257.641C39.9744 256.757 39.4221 255.941 38.8698 255.056C38.3175 254.24 37.6961 253.356 37.0748 252.539L36.1083 251.315L35.2108 250.226L34.1752 249.002L35.7631 248.662L37.1438 248.322L38.7317 247.913C39.7673 247.641 40.8028 247.301 41.8384 247.029C42.874 246.689 43.8405 246.349 44.807 245.941C45.2903 245.737 45.7735 245.532 46.1187 245.26C46.3258 245.124 46.4639 244.988 46.533 244.92C46.533 244.92 46.533 244.92 46.602 244.988C46.671 245.056 46.7401 245.056 46.8781 245.056C46.8781 245.056 46.8781 245.056 46.9472 245.056C46.8781 245.056 46.8091 245.124 46.7401 245.124L47.3614 244.716C47.3614 244.716 47.3614 244.784 47.4304 244.852C47.4995 244.92 47.4304 244.988 47.4995 245.056C47.4995 245.124 47.4995 245.26 47.4304 245.328C47.1543 245.737 46.5329 246.213 45.6355 246.689C44.6689 247.165 43.4263 247.709 41.8384 248.254C41.0099 248.526 40.1815 248.798 39.215 249.138C38.4555 249.342 37.6271 249.614 36.7296 249.886C36.8677 250.022 37.0058 250.226 37.1438 250.362C37.42 250.703 37.6961 251.043 37.9723 251.383C38.5246 252.131 39.1459 252.879 39.7673 253.764C40.3886 254.58 41.0099 255.532 41.6313 256.553C41.9074 257.097 42.2526 257.573 42.4597 258.186C42.5978 258.458 42.6668 258.798 42.8049 259.206C42.8049 259.274 42.8049 259.274 42.8049 259.342V259.546C42.8049 259.682 42.8049 259.818 42.8049 259.954C42.8049 260.09 42.8049 260.226 42.7359 260.362C42.6668 260.498 42.6668 260.634 42.5978 260.703C42.5288 260.703 42.4597 260.771 42.3907 260.771C42.3217 260.839 42.2526 260.907 42.1836 260.975C42.1145 261.043 42.0455 261.043 41.9765 261.111L41.7003 261.179C41.3551 261.247 40.9409 261.179 40.5957 260.975C40.3886 260.907 40.3196 260.839 40.1815 260.771C40.0434 260.703 39.9744 260.634 39.8363 260.566C39.6292 260.43 39.4221 260.294 39.215 260.158C38.3865 259.546 37.6961 258.866 36.9367 258.186C36.1773 257.437 35.4179 256.689 34.6585 255.873C34.3133 255.464 33.8991 255.056 33.5539 254.648L33.2777 254.376L33.2087 254.308V254.376C33.2087 254.376 33.2087 254.376 33.1396 254.512C32.9325 254.92 32.7254 255.328 32.5183 255.737C32.035 256.553 31.5518 257.437 31.0685 258.254C30.5162 259.138 29.9639 259.954 29.2735 260.839C28.9283 261.247 28.5832 261.723 28.0999 262.131C27.9618 262.267 27.4095 262.675 26.9263 262.811C26.6501 262.879 26.443 262.879 26.1668 262.811C25.8907 262.811 25.7526 262.607 25.5455 262.471C25.4074 262.335 25.2694 262.131 25.2003 261.995C25.1313 261.791 24.9932 261.587 24.9932 261.383C24.9242 261.111 24.9242 261.043 24.9242 260.839C24.9242 260.703 24.9242 260.566 24.9242 260.43C24.9242 259.886 24.9932 259.41 25.1313 258.866C25.3384 257.913 25.6145 256.961 25.8907 256.009C26.1668 255.056 26.512 254.104 26.9263 253.152C27.1334 252.675 27.3405 252.199 27.4786 251.723L27.6166 251.383C27.6857 251.315 27.6166 251.315 27.6166 251.315C26.9953 251.179 26.374 251.043 25.7526 250.907C24.9932 250.703 24.2338 250.498 23.4744 250.362C22.0246 249.954 20.6438 249.614 19.4012 249.206C18.1585 248.798 17.1229 248.39 16.2945 247.913C16.2254 247.845 16.0183 247.709 15.8802 247.641C15.7422 247.505 15.535 247.437 15.466 247.301C15.397 247.165 15.2589 247.029 15.1899 246.961C15.1208 246.825 15.0518 246.689 15.0518 246.553C14.9827 246.281 14.9827 246.077 15.0518 245.873C15.0518 245.805 15.1208 245.805 15.1208 245.737V245.669C15.1899 245.6 15.1899 245.532 15.2589 245.464C15.2589 245.124 15.397 244.988 15.535 244.852C15.7422 244.784 15.8802 244.648 16.0873 244.58L16.3635 244.512C16.5016 244.444 16.5706 244.444 16.6396 244.444L16.9848 244.376C17.4681 244.308 17.8823 244.24 18.2965 244.24C19.125 244.172 19.9535 244.172 20.7819 244.172C22.3698 244.24 23.8196 244.308 25.0622 244.444C26.3049 244.58 27.4095 244.716 28.307 244.784C28.5141 244.784 28.7212 244.852 28.9283 244.852H28.9974H29.0664V244.784C28.9974 244.444 28.9283 244.104 28.8593 243.764C28.7212 243.015 28.6522 242.335 28.5141 241.587C28.307 240.158 28.1689 238.798 28.0999 237.437C28.0999 236.757 28.0309 236.077 28.0999 235.464C28.0999 235.124 28.1689 234.784 28.238 234.444C28.238 234.308 28.376 234.036 28.4451 233.764C28.5832 233.56 28.7212 233.288 28.9283 233.152C28.9974 233.083 29.1355 233.015 29.2735 232.947C29.4116 232.947 29.5497 232.879 29.6878 232.879C29.8258 232.879 29.9639 232.879 30.0329 232.879L30.3781 232.947C30.5853 233.083 30.8614 233.22 30.9995 233.356C31.2066 233.56 31.2756 233.628 31.4137 233.764C31.8279 234.308 32.1041 234.784 32.3112 235.328C33.2087 237.369 33.761 239.206 34.2442 240.771C34.4514 241.587 34.6585 242.267 34.7965 242.947C34.8656 243.288 34.9346 243.628 35.0037 243.9C35.0037 243.968 35.0727 244.104 35.0727 244.172C36.1083 244.036 37.0058 243.968 37.8342 243.832C38.8698 243.696 39.7673 243.628 40.6648 243.56C42.3217 243.424 43.7024 243.424 44.738 243.424C45.7735 243.424 46.5329 243.56 47.0162 243.696C47.1543 243.764 47.2924 243.764 47.3614 243.832C47.4995 243.9 47.5685 243.968 47.6376 243.968C47.7756 244.104 47.8447 244.172 47.8447 244.172L47.0853 244.92Z" fill="#C3C3C3"/>
<defs>
<clipPath id="clip0">
<rect width="193" height="195" fill="white" transform="translate(61 86.8794)"/>
</clipPath>
</defs>
</svg>
