<svg width="313" height="301" viewBox="0 0 313 301" fill="none" xmlns="http://www.w3.org/2000/svg">
<path d="M293.281 287.914L8.5 292.844V3.9787L293.281 17.7848V287.914Z" fill="#FFFCF2" stroke="#C7C5BB" stroke-width="4"/>
<g clip-path="url(#clip0)">
<path d="M246.8 134.379C247.2 137.579 244.1 140.579 239.8 141.079C235.5 141.579 231.8 139.479 231.4 136.279C231 133.079 234.1 130.079 238.4 129.579C242.6 129.079 246.4 131.279 246.8 134.379Z" fill="#72BAD1"/>
<path d="M206.4 192.779L199.6 175.679C199.6 175.679 238.9 156.779 285.6 165.579L283.4 184.479C283.4 184.479 303.2 182.879 306.5 190.379C310 198.279 301.6 278.879 301.6 278.879C301.6 278.879 258 300.879 214.1 289.179C214.1 289.179 186.5 217.879 187.5 207.179C188.4 196.979 206.4 192.779 206.4 192.779Z" fill="#72BAD1"/>
<path d="M293.5 248.879C303.6 257.679 302.8 269.879 291.6 276.279C280.4 282.679 263.1 280.679 253 271.979C242.9 263.179 243.7 250.979 254.9 244.579C266.1 238.279 283.4 240.179 293.5 248.879Z" fill="#2D3962"/>
<path d="M286.5 254.679C286.5 254.679 286.4 254.579 286 254.179C285.7 253.879 285.5 253.779 285.5 253.779L287.9 250.979C287.9 250.979 288.5 250.279 289.2 249.679C289.9 249.079 290.7 248.579 291 248.779C291.5 249.279 290.6 250.579 290.6 250.579L286.5 254.679Z" fill="#4F8BAD"/>
<path d="M288 256.679C288 256.679 287.9 256.579 287.6 256.179C287.3 255.779 287.3 255.679 287.3 255.679L290.2 253.379C290.2 253.379 290.9 252.879 291.8 252.379C292.6 251.879 293.5 251.579 293.7 251.879C294.2 252.579 292.9 253.579 292.9 253.579L288 256.679Z" fill="#4F8BAD"/>
<path d="M289 258.779C289 258.779 288.9 258.579 288.8 258.279C288.7 257.879 288.6 257.779 288.6 257.779L292 256.279C292 256.279 292.9 255.979 293.8 255.679C294.7 255.479 295.6 255.279 295.8 255.679C295.9 256.079 295.7 256.479 295.3 256.779C295 257.079 294.6 257.279 294.6 257.279L289 258.779Z" fill="#4F8BAD"/>
<path d="M289.3 260.879C289.3 260.879 289.3 260.679 289.3 260.379C289.3 259.979 289.3 259.879 289.3 259.879L293 259.379C293 259.379 293.9 259.279 294.8 259.279C295.7 259.279 296.7 259.479 296.7 259.879C296.7 260.279 296.3 260.579 295.9 260.779C295.5 260.979 295.1 260.979 295.1 260.979L289.3 260.879Z" fill="#4F8BAD"/>
<path d="M288.9 262.979C288.9 262.979 288.9 262.779 289 262.479C289.1 262.079 289.2 261.979 289.2 261.979L292.8 262.679C292.8 262.679 293.7 262.879 294.6 263.279C295.5 263.579 296.3 264.079 296.2 264.479C296.1 264.879 295.6 265.079 295.2 265.079C294.8 265.079 294.4 265.079 294.4 265.079L288.9 262.979Z" fill="#4F8BAD"/>
<path d="M287.8 264.779C287.8 264.779 287.9 264.679 288.1 264.279C288.3 263.979 288.4 263.879 288.4 263.879L291.6 265.779C291.6 265.779 292.4 266.279 293.1 266.879C293.8 267.479 294.5 268.179 294.2 268.479C294 268.779 293.5 268.779 293.1 268.679C292.7 268.579 292.3 268.379 292.3 268.379L287.8 264.779Z" fill="#4F8BAD"/>
<path d="M286.1 266.379C286.1 266.379 286.2 266.279 286.6 265.979C286.9 265.679 287.1 265.579 287.1 265.579L289.7 268.279C289.7 268.279 290.3 268.979 290.8 269.779C291.3 270.579 291.8 271.379 291.5 271.679C290.9 272.179 289.7 271.079 289.7 271.079L286.1 266.379Z" fill="#4F8BAD"/>
<path d="M283.9 267.779C283.9 267.779 284 267.679 284.4 267.579C284.8 267.379 284.9 267.279 284.9 267.279L286.7 270.579C286.7 270.579 288.3 273.879 287.9 274.179C287.7 274.279 287.3 274.079 287 273.779C286.7 273.479 286.5 273.179 286.5 273.179L283.9 267.779Z" fill="#4F8BAD"/>
<path d="M281.4 268.679C281.4 268.679 281.6 268.579 282.1 268.479C282.6 268.379 282.7 268.279 282.7 268.279L284 271.779C284 271.779 284.3 272.679 284.5 273.579C284.7 274.479 284.8 275.479 284.4 275.579C283.7 275.779 283 274.379 283 274.379L281.4 268.679Z" fill="#4F8BAD"/>
<path d="M278.7 269.179C278.7 269.179 278.9 269.179 279.4 269.079C279.9 268.979 280.1 268.979 280.1 268.979L280.8 272.579C280.8 272.579 281.3 276.279 280.6 276.379C279.9 276.479 279.4 274.879 279.4 274.879L278.7 269.179Z" fill="#4F8BAD"/>
<path d="M275.9 269.379C275.9 269.379 276.1 269.379 276.6 269.379C277.1 269.379 277.3 269.379 277.3 269.379L277.5 273.079C277.5 273.079 277.5 276.779 276.8 276.779C276.1 276.779 275.8 275.179 275.8 275.179L275.9 269.379Z" fill="#4F8BAD"/>
<path d="M273 269.179C273 269.179 273.2 269.179 273.7 269.279C274.2 269.379 274.4 269.379 274.4 269.379L274.2 273.079C274.2 273.079 273.8 276.779 273.1 276.679C272.4 276.579 272.3 274.979 272.3 274.979L273 269.179Z" fill="#4F8BAD"/>
<path d="M270.2 268.679C270.2 268.679 270.4 268.679 270.9 268.879C271.4 268.979 271.6 268.979 271.6 268.979L270.9 272.579C270.9 272.579 270 276.179 269.3 275.979C268.6 275.879 268.7 274.179 268.7 274.179L270.2 268.679Z" fill="#4F8BAD"/>
<path d="M267.5 267.779C267.5 267.779 267.7 267.879 268.2 267.979C268.7 268.179 268.9 268.179 268.9 268.179L267.8 271.679C267.8 271.679 266.5 275.179 265.8 274.879C265.1 274.679 265.5 273.079 265.5 273.079L267.5 267.779Z" fill="#4F8BAD"/>
<path d="M264.9 266.679C264.9 266.679 265.1 266.779 265.5 266.979C265.9 267.179 266.1 267.279 266.1 267.279L264.6 270.679C264.6 270.679 262.9 273.979 262.2 273.579C261.6 273.279 262.1 271.679 262.1 271.679L264.9 266.679Z" fill="#4F8BAD"/>
<path d="M262.6 265.179C262.6 265.179 262.8 265.279 263.2 265.579C263.6 265.879 263.7 265.979 263.7 265.979L261.7 269.079C261.7 269.079 261.2 269.879 260.5 270.579C259.9 271.279 259.2 271.879 258.9 271.679C258.3 271.279 259.1 269.779 259.1 269.779L262.6 265.179Z" fill="#4F8BAD"/>
<path d="M260.7 263.379C260.7 263.379 260.8 263.479 261.2 263.879C261.5 264.179 261.7 264.379 261.7 264.379L259.2 267.079C259.2 267.079 258.6 267.779 257.8 268.279C257.1 268.879 256.3 269.379 256 269.079C255.5 268.579 256.5 267.279 256.5 267.279L260.7 263.379Z" fill="#4F8BAD"/>
<path d="M259.2 261.379C259.2 261.379 259.3 261.579 259.6 261.879C259.8 262.279 259.9 262.379 259.9 262.379L256.9 264.579C256.9 264.579 256.1 265.079 255.3 265.579C254.5 265.979 253.6 266.379 253.4 265.979C253 265.279 254.2 264.279 254.2 264.279L259.2 261.379Z" fill="#4F8BAD"/>
<path d="M258.3 259.279C258.3 259.279 258.4 259.479 258.5 259.779C258.6 260.179 258.7 260.279 258.7 260.279L255.3 261.679C255.3 261.679 254.4 261.979 253.5 262.179C252.6 262.379 251.6 262.479 251.5 262.079C251.4 261.679 251.7 261.279 252 261.079C252.3 260.779 252.7 260.679 252.7 260.679L258.3 259.279Z" fill="#4F8BAD"/>
<path d="M258 257.179C258 257.179 258 257.379 258 257.679C258 258.079 258 258.179 258 258.179L254.3 258.579C254.3 258.579 253.4 258.679 252.5 258.579C251.6 258.479 250.6 258.279 250.6 257.879C250.6 257.479 251 257.179 251.4 256.979C251.8 256.779 252.2 256.779 252.2 256.779L258 257.179Z" fill="#4F8BAD"/>
<path d="M258.5 255.179C258.5 255.179 258.5 255.379 258.4 255.679C258.3 255.979 258.2 256.179 258.2 256.179L254.6 255.379C254.6 255.379 253.7 255.179 252.9 254.779C252 254.379 251.2 253.879 251.4 253.479C251.5 253.079 252 252.979 252.4 252.879C252.8 252.879 253.2 252.979 253.2 252.979L258.5 255.179Z" fill="#4F8BAD"/>
<path d="M259.6 253.279C259.6 253.279 259.5 253.379 259.3 253.779C259.1 254.079 259 254.179 259 254.179L255.9 252.279C255.9 252.279 255.1 251.779 254.4 251.179C253.7 250.579 253.1 249.879 253.3 249.479C253.5 249.179 254 249.179 254.4 249.279C254.8 249.379 255.2 249.579 255.2 249.579L259.6 253.279Z" fill="#4F8BAD"/>
<path d="M261.4 251.779C261.4 251.779 261.3 251.879 260.9 252.179C260.6 252.479 260.4 252.579 260.4 252.579L257.9 249.879C257.9 249.879 257.3 249.179 256.8 248.379C256.3 247.579 255.9 246.779 256.2 246.479C256.8 245.979 258 247.079 258 247.079L261.4 251.779Z" fill="#4F8BAD"/>
<path d="M263.6 250.479C263.6 250.479 263.4 250.579 263 250.779C262.6 250.979 262.4 251.079 262.4 251.079L260.6 247.879C260.6 247.879 260.2 247.079 259.9 246.179C259.6 245.279 259.3 244.379 259.7 244.179C260.4 243.879 261.3 245.179 261.3 245.179L263.6 250.479Z" fill="#4F8BAD"/>
<path d="M266.2 249.579C266.2 249.579 266 249.679 265.5 249.779C265 249.879 264.9 249.979 264.9 249.979L263.7 246.479C263.7 246.479 263.4 245.579 263.3 244.679C263.1 243.779 263.1 242.779 263.4 242.679C264.1 242.479 264.8 243.979 264.8 243.979L266.2 249.579Z" fill="#4F8BAD"/>
<path d="M268.9 249.079C268.9 249.079 268.7 249.079 268.2 249.179C267.7 249.279 267.5 249.279 267.5 249.279L266.8 245.679C266.8 245.679 266.3 241.979 267 241.879C267.7 241.779 268.2 243.379 268.2 243.379L268.9 249.079Z" fill="#4F8BAD"/>
<path d="M271.7 248.879C271.7 248.879 271.5 248.879 271 248.879C270.5 248.879 270.3 248.879 270.3 248.879L270.1 245.179C270.1 245.179 270.1 241.479 270.8 241.479C271.5 241.479 271.8 243.079 271.8 243.079L271.7 248.879Z" fill="#4F8BAD"/>
<path d="M274.6 249.179C274.6 249.179 274.4 249.179 273.9 249.079C273.4 248.979 273.2 248.979 273.2 248.979L273.5 245.279C273.5 245.279 274 241.579 274.7 241.679C275.4 241.779 275.4 243.379 275.4 243.379L274.6 249.179Z" fill="#4F8BAD"/>
<path d="M277.4 249.679C277.4 249.679 277.2 249.579 276.7 249.479C276.2 249.379 276 249.279 276 249.279L276.7 245.679C276.7 245.679 277.6 242.079 278.3 242.279C279 242.479 278.8 244.079 278.8 244.079L277.4 249.679Z" fill="#4F8BAD"/>
<path d="M280.1 250.579C280.1 250.579 279.9 250.479 279.4 250.379C278.9 250.179 278.8 250.179 278.8 250.179L279.9 246.679C279.9 246.679 281.2 243.179 281.9 243.479C282.6 243.679 282.2 245.279 282.2 245.279L280.1 250.579Z" fill="#4F8BAD"/>
<path d="M282.6 251.779C282.6 251.779 282.4 251.679 282 251.479C281.6 251.279 281.4 251.179 281.4 251.179L283 247.879C283 247.879 284.8 244.579 285.4 244.979C286 245.279 285.5 246.879 285.5 246.879L282.6 251.779Z" fill="#4F8BAD"/>
<path d="M284.9 253.279C284.9 253.279 284.7 253.179 284.3 252.879C283.9 252.579 283.8 252.479 283.8 252.479L285.9 249.379C285.9 249.379 286.4 248.679 287.1 247.979C287.7 247.279 288.4 246.679 288.7 246.879C289.3 247.279 288.5 248.779 288.5 248.779L284.9 253.279Z" fill="#4F8BAD"/>
<path d="M257.9 260.379C264 273.379 257.9 285.479 244.4 287.279C230.9 289.179 215.1 280.079 209 267.079C202.9 254.079 209 241.979 222.5 240.179C236 238.279 251.9 247.379 257.9 260.379Z" fill="#2D3962"/>
<path d="M257.7 258.179C257.7 258.179 257.8 258.479 258.1 258.879C258.3 259.379 258.7 259.979 259 260.779C259.7 262.379 260.4 264.679 260.8 266.979C261.2 269.279 261.1 271.679 260.8 273.479C260.7 273.879 260.7 274.279 260.6 274.679C260.5 274.979 260.4 275.379 260.3 275.579C260.2 276.079 260.1 276.379 260.1 276.379L259.2 276.079C259.2 276.079 259.2 275.579 259.5 274.279C259.6 272.979 259.9 270.879 259.5 267.579C259 264.279 258.2 262.179 257.7 260.779C257.2 259.379 257 258.779 257 258.779L257.7 258.179Z" fill="#4F8BAD"/>
<path d="M249.1 262.279C249.1 262.279 249 262.079 248.8 261.679C248.6 261.179 248.6 261.079 248.6 261.079L252 259.579C252 259.579 252.9 259.279 253.8 258.979C254.7 258.679 255.6 258.579 255.8 258.879C256.1 259.579 254.7 260.379 254.7 260.379L249.1 262.279Z" fill="#4F8BAD"/>
<path d="M249.8 264.879C249.8 264.879 249.8 264.679 249.7 264.179C249.6 263.679 249.6 263.579 249.6 263.579L253.2 262.579C253.2 262.579 254.1 262.379 255 262.279C255.9 262.179 256.9 262.179 257 262.579C257.2 263.279 255.6 263.879 255.6 263.879L249.8 264.879Z" fill="#4F8BAD"/>
<path d="M250 267.379C250 267.379 250 267.179 250 266.779C250 266.279 250 266.179 250 266.179L253.7 265.879C253.7 265.879 254.6 265.879 255.5 265.879C256.4 265.979 257.4 266.179 257.4 266.479C257.4 267.279 255.8 267.479 255.8 267.479L250 267.379Z" fill="#4F8BAD"/>
<path d="M249.7 269.779C249.7 269.779 249.7 269.579 249.8 269.179C249.9 268.779 249.9 268.579 249.9 268.579L253.6 269.079C253.6 269.079 254.5 269.279 255.4 269.479C256.3 269.779 257.2 270.179 257.1 270.479C256.9 271.279 255.3 271.079 255.3 271.079L249.7 269.779Z" fill="#4F8BAD"/>
<path d="M248.8 271.879C248.8 271.879 248.9 271.679 249 271.379C249.2 270.979 249.2 270.879 249.2 270.879L252.6 272.279C252.6 272.279 253.4 272.679 254.2 273.179C255 273.679 255.7 274.279 255.6 274.679C255.4 275.079 254.9 275.079 254.5 275.079C254.1 275.079 253.7 274.879 253.7 274.879L248.8 271.879Z" fill="#4F8BAD"/>
<path d="M247.5 273.579C247.5 273.579 247.6 273.479 247.9 273.179C248.2 272.879 248.3 272.779 248.3 272.779L251.2 275.079C251.2 275.079 251.9 275.679 252.5 276.379C253.1 277.079 253.7 277.879 253.4 278.179C253.1 278.479 252.7 278.379 252.3 278.279C251.9 278.079 251.6 277.879 251.6 277.879L247.5 273.579Z" fill="#4F8BAD"/>
<path d="M245.6 274.979C245.6 274.979 245.7 274.879 246.1 274.679C246.5 274.479 246.6 274.379 246.6 274.379L248.8 277.379C248.8 277.379 249.3 278.179 249.7 278.979C250.1 279.779 250.4 280.679 250.1 280.879C249.8 281.079 249.3 280.879 249 280.679C248.7 280.379 248.4 280.079 248.4 280.079L245.6 274.979Z" fill="#4F8BAD"/>
<path d="M243.4 275.879C243.4 275.879 243.6 275.779 244 275.679C244.4 275.579 244.6 275.479 244.6 275.479L246 278.879C246 278.879 246.3 279.779 246.5 280.679C246.7 281.579 246.8 282.579 246.4 282.679C245.7 282.979 245 281.479 245 281.479L243.4 275.879Z" fill="#4F8BAD"/>
<path d="M241 276.779C241 276.779 241 276.679 241 276.379C241 276.279 241 276.279 241 276.279C241.1 276.279 241.2 276.279 241.4 276.279C241.6 276.279 241.8 276.279 241.9 276.179C241.9 276.179 242.2 276.179 242.1 276.179H242L242.3 279.879C242.3 279.879 242.3 280.079 242.4 280.479C242.4 280.679 242.4 280.879 242.4 281.079C242.4 281.279 242.5 281.479 242.5 281.779C242.5 282.679 242.5 283.679 242.3 283.679C242.1 283.679 241.9 283.279 241.7 282.979C241.5 282.579 241.4 282.179 241.4 282.179L241 276.779Z" fill="#4F8BAD"/>
<path d="M238.3 276.279C238.3 276.279 238.5 276.279 239 276.279C239.5 276.279 239.6 276.279 239.6 276.279V279.979C239.6 279.979 239.6 280.879 239.4 281.779C239.3 282.679 239 283.579 238.6 283.579C237.9 283.579 237.7 281.879 237.7 281.879L238.3 276.279Z" fill="#4F8BAD"/>
<path d="M235.6 275.879C235.6 275.879 235.8 275.879 236.3 275.979C236.8 276.079 237 276.079 237 276.079L236.4 279.679C236.4 279.679 235.6 283.279 234.9 283.179C234.2 283.079 234.3 281.379 234.3 281.379L235.6 275.879Z" fill="#4F8BAD"/>
<path d="M233 274.979C233 274.979 233.2 275.079 233.7 275.179C234.2 275.379 234.3 275.379 234.3 275.379L233.2 278.879C233.2 278.879 231.9 282.379 231.2 282.079C230.5 281.879 230.9 280.279 230.9 280.279L233 274.979Z" fill="#4F8BAD"/>
<path d="M230.4 273.879C230.4 273.879 230.6 273.979 231 274.179C231.5 274.379 231.6 274.479 231.6 274.479L230.1 277.879C230.1 277.879 228.4 281.179 227.8 280.879C227.2 280.579 227.7 278.979 227.7 278.979L230.4 273.879Z" fill="#4F8BAD"/>
<path d="M228 272.379C228 272.379 228.2 272.479 228.6 272.779C229 273.079 229.2 273.179 229.2 273.179L227.3 276.379C227.3 276.379 225.2 279.479 224.6 279.079C224 278.679 224.7 277.179 224.7 277.179L228 272.379Z" fill="#4F8BAD"/>
<path d="M225.7 270.679C225.7 270.679 225.9 270.779 226.3 271.179C226.7 271.479 226.8 271.579 226.8 271.579L224.5 274.479C224.5 274.479 222.1 277.279 221.6 276.879C221.1 276.479 221.9 275.079 221.9 275.079L225.7 270.679Z" fill="#4F8BAD"/>
<path d="M223.7 268.679C223.7 268.679 223.9 268.879 224.2 269.179C224.6 269.579 224.7 269.679 224.7 269.679L222.1 272.379C222.1 272.379 219.4 274.879 218.9 274.379C218.4 273.879 219.4 272.579 219.4 272.579L223.7 268.679Z" fill="#4F8BAD"/>
<path d="M221.9 266.479C221.9 266.479 222 266.679 222.3 267.079C222.6 267.479 222.7 267.579 222.7 267.579L219.8 269.879C219.8 269.879 216.8 272.079 216.4 271.479C216 270.879 217.1 269.779 217.1 269.779L221.9 266.479Z" fill="#4F8BAD"/>
<path d="M220.4 264.179C220.4 264.179 220.5 264.379 220.8 264.779C221 265.179 221.1 265.379 221.1 265.379L218 267.379C218 267.379 214.8 269.179 214.4 268.579C214 267.979 215.3 266.979 215.3 266.979L220.4 264.179Z" fill="#4F8BAD"/>
<path d="M219.3 261.679C219.3 261.679 219.4 261.879 219.5 262.279C219.7 262.679 219.8 262.879 219.8 262.879L216.4 264.379C216.4 264.379 215.5 264.679 214.6 264.979C213.7 265.279 212.8 265.379 212.6 265.079C212.3 264.379 213.8 263.579 213.8 263.579L219.3 261.679Z" fill="#4F8BAD"/>
<path d="M218.6 259.079C218.6 259.079 218.6 259.279 218.8 259.779C218.9 260.279 218.9 260.379 218.9 260.379L215.3 261.379C215.3 261.379 214.4 261.579 213.5 261.679C212.6 261.779 211.6 261.779 211.5 261.379C211.3 260.679 212.9 260.079 212.9 260.079L218.6 259.079Z" fill="#4F8BAD"/>
<path d="M218.4 256.579C218.4 256.579 218.4 256.779 218.4 257.179C218.4 257.579 218.4 257.779 218.4 257.779L214.7 258.079C214.7 258.079 213.8 258.079 212.8 258.079C211.9 257.979 210.9 257.879 210.9 257.479C210.9 256.679 212.5 256.479 212.5 256.479L218.4 256.579Z" fill="#4F8BAD"/>
<path d="M218.7 254.179C218.7 254.179 218.7 254.379 218.6 254.779C218.5 255.179 218.5 255.379 218.5 255.379L214.8 254.879C214.8 254.879 213.9 254.679 213 254.479C212.1 254.179 211.2 253.779 211.3 253.479C211.5 252.679 213.1 252.779 213.1 252.779L218.7 254.179Z" fill="#4F8BAD"/>
<path d="M219.5 252.079C219.5 252.079 219.4 252.279 219.3 252.579C219.1 252.979 219.1 253.079 219.1 253.079L215.7 251.679C215.7 251.679 214.9 251.279 214.1 250.779C213.3 250.279 212.6 249.679 212.7 249.379C212.9 248.979 213.4 248.979 213.8 248.979C214.2 248.979 214.6 249.179 214.6 249.179L219.5 252.079Z" fill="#4F8BAD"/>
<path d="M220.9 250.279C220.9 250.279 220.8 250.379 220.5 250.679C220.2 250.979 220.1 251.079 220.1 251.079L217.2 248.779C217.2 248.779 216.5 248.179 215.9 247.479C215.3 246.779 214.7 245.979 215 245.679C215.3 245.379 215.8 245.479 216.2 245.579C216.6 245.779 216.9 245.979 216.9 245.979L220.9 250.279Z" fill="#4F8BAD"/>
<path d="M222.7 248.979C222.7 248.979 222.6 249.079 222.2 249.279C221.8 249.479 221.7 249.579 221.7 249.579L219.5 246.579C219.5 246.579 219 245.779 218.6 244.979C218.2 244.179 217.9 243.279 218.2 243.079C218.5 242.879 219 243.079 219.3 243.279C219.6 243.579 219.9 243.879 219.9 243.879L222.7 248.979Z" fill="#4F8BAD"/>
<path d="M224.9 248.079C224.9 248.079 224.7 248.179 224.3 248.279C223.9 248.379 223.7 248.479 223.7 248.479L222.3 245.079C222.3 245.079 222 244.179 221.8 243.279C221.6 242.379 221.5 241.379 221.9 241.279C222.6 240.979 223.3 242.479 223.3 242.479L224.9 248.079Z" fill="#4F8BAD"/>
<path d="M227.4 247.079C227.4 247.079 227.4 247.179 227.4 247.479C227.4 247.479 227.4 247.579 227.4 247.679C227.3 247.679 227.2 247.679 227 247.679C226.8 247.679 226.6 247.679 226.5 247.779C226.1 247.779 226.4 247.779 226.4 247.779L226.1 244.079C226.1 244.079 226.1 243.879 226 243.479C226 243.279 225.9 243.079 225.9 242.879C225.9 242.679 225.8 242.479 225.8 242.179C225.8 241.279 225.8 240.279 226 240.279C226.2 240.279 226.4 240.679 226.6 240.979C226.8 241.379 226.9 241.779 226.9 241.779L227.4 247.079Z" fill="#4F8BAD"/>
<path d="M230.1 247.679C230.1 247.679 229.9 247.679 229.4 247.679C228.9 247.679 228.7 247.679 228.7 247.679V243.979C228.7 243.979 228.7 243.079 228.9 242.179C229 241.279 229.3 240.379 229.7 240.379C230.4 240.379 230.6 242.079 230.6 242.079L230.1 247.679Z" fill="#4F8BAD"/>
<path d="M232.8 248.079C232.8 248.079 232.6 248.079 232.1 247.979C231.6 247.879 231.4 247.879 231.4 247.879L232 244.279C232 244.279 232.8 240.679 233.5 240.779C234.2 240.879 234.1 242.579 234.1 242.579L232.8 248.079Z" fill="#4F8BAD"/>
<path d="M235.4 248.879C235.4 248.879 235.2 248.779 234.7 248.679C234.2 248.479 234.1 248.479 234.1 248.479L235.2 244.979C235.2 244.979 236.5 241.479 237.2 241.779C237.9 241.979 237.5 243.579 237.5 243.579L235.4 248.879Z" fill="#4F8BAD"/>
<path d="M238 250.079C238 250.079 237.8 249.979 237.4 249.779C236.9 249.579 236.8 249.479 236.8 249.479L238.3 246.079C238.3 246.079 240 242.779 240.6 243.079C241.2 243.379 240.7 244.979 240.7 244.979L238 250.079Z" fill="#4F8BAD"/>
<path d="M240.4 251.579C240.4 251.579 240.2 251.479 239.8 251.179C239.4 250.879 239.2 250.779 239.2 250.779L241.1 247.579C241.1 247.579 243.2 244.479 243.8 244.879C244.4 245.279 243.7 246.779 243.7 246.779L240.4 251.579Z" fill="#4F8BAD"/>
<path d="M242.7 253.279C242.7 253.279 242.5 253.179 242.1 252.779C241.7 252.479 241.6 252.379 241.6 252.379L243.9 249.479C243.9 249.479 246.3 246.679 246.8 247.079C247.3 247.479 246.5 248.879 246.5 248.879L242.7 253.279Z" fill="#4F8BAD"/>
<path d="M244.7 255.279C244.7 255.279 244.5 255.079 244.2 254.779C243.8 254.379 243.7 254.279 243.7 254.279L246.3 251.579C246.3 251.579 249 249.079 249.5 249.579C250 250.079 249 251.379 249 251.379L244.7 255.279Z" fill="#4F8BAD"/>
<path d="M246.5 257.479C246.5 257.479 246.4 257.279 246.1 256.879C245.8 256.479 245.7 256.379 245.7 256.379L248.6 254.079C248.6 254.079 251.6 251.879 252 252.479C252.4 253.079 251.3 254.179 251.3 254.179L246.5 257.479Z" fill="#4F8BAD"/>
<path d="M248 259.779C248 259.779 247.9 259.579 247.6 259.179C247.4 258.779 247.3 258.579 247.3 258.579L250.4 256.579C250.4 256.579 253.6 254.779 254 255.379C254.4 255.979 253.1 256.979 253.1 256.979L248 259.779Z" fill="#4F8BAD"/>
<path d="M268.8 223.479C282.2 226.079 286.7 236.079 279 245.879C271.3 255.679 254.2 261.579 240.8 259.079C227.4 256.479 222.9 246.479 230.6 236.679C238.3 226.879 255.4 220.979 268.8 223.479Z" fill="#2D3962"/>
<path d="M268.9 222.779C268.9 222.779 269.5 222.879 270.5 223.179C270.8 223.279 271.1 223.279 271.4 223.379C271.7 223.479 272.1 223.579 272.5 223.779C272.9 223.879 273.3 223.979 273.7 224.179C274.1 224.379 274.6 224.579 275 224.779C276.9 225.679 279.1 226.979 280.9 229.379C281.9 230.479 282.5 231.979 283 233.579C283.4 235.179 283.4 236.979 283.1 238.779C282.3 242.379 280.3 245.779 277.4 248.579C274.5 251.479 271 253.879 267.1 255.779C263.2 257.679 258.8 259.079 254.3 259.779C249.8 260.579 245.1 260.579 240.4 259.779C238.1 259.279 235.8 258.579 233.7 257.579C231.6 256.479 229.6 254.979 228.2 253.079C226.8 251.179 225.9 248.779 225.9 246.479C225.8 244.079 226.5 241.879 227.5 239.879C229.6 235.879 232.7 232.779 235.9 230.479C239.2 228.179 242.6 226.479 245.8 225.179C249.1 223.979 252.2 223.179 255 222.679C255.7 222.579 256.4 222.479 257 222.379C257.3 222.379 257.7 222.279 258 222.279C258.3 222.279 258.6 222.279 258.9 222.179C259.5 222.179 260.1 222.079 260.7 222.079C261.3 222.079 261.8 222.079 262.3 222.079C263.3 222.079 264.2 222.179 265 222.179C265.4 222.179 265.8 222.279 266.1 222.279C266.4 222.279 266.7 222.379 267 222.379C268.3 222.679 268.9 222.779 268.9 222.779L268.7 223.779C268.7 223.779 268.5 223.779 267.9 223.679C267.6 223.679 267.3 223.579 266.9 223.579C266.5 223.479 266 223.479 265.4 223.479C263.1 223.279 259.4 223.279 254.1 224.279C251.5 224.779 248.5 225.679 245.2 226.979C241.9 228.379 238.3 230.279 234.9 233.179C233.2 234.679 231.5 236.379 230.2 238.479C228.8 240.579 227.8 242.979 227.6 245.679C227.5 248.279 228.4 251.179 230.5 253.279C232.5 255.379 235.4 256.979 238.6 257.879C241.8 258.779 245.1 259.079 248.1 258.979C251.2 258.879 254.2 258.479 257 257.879C262.6 256.579 267.4 254.479 271.4 251.879C275.3 249.279 278.5 246.179 280.3 242.879C280.8 242.079 281.1 241.179 281.5 240.379C281.7 239.979 281.7 239.579 281.9 239.079C282 238.879 282 238.679 282.1 238.479C282.1 238.279 282.2 238.079 282.2 237.879C282.5 236.279 282.3 234.679 281.9 233.279C281 230.479 279.2 228.579 277.5 227.379C275.8 226.079 274.1 225.379 272.8 224.879C272.1 224.679 271.6 224.479 271.1 224.279C270.6 224.179 270.2 224.079 269.9 223.979C269.2 223.779 268.9 223.779 268.9 223.779V222.779Z" fill="#4F8BAD"/>
<path d="M264.6 226.479C264.6 226.479 264.4 226.479 263.9 226.279C263.4 226.179 263.2 226.079 263.2 226.079L263.9 222.479C263.9 222.479 264.1 221.579 264.4 220.679C264.7 219.779 265.1 218.979 265.5 219.079C266.2 219.279 266 220.879 266 220.879L264.6 226.479Z" fill="#4F8BAD"/>
<path d="M267 227.379C267 227.379 266.8 227.279 266.4 227.079C266 226.879 265.8 226.779 265.8 226.779L267.1 223.279C267.1 223.279 267.5 222.479 267.9 221.579C268.4 220.779 268.9 219.979 269.3 220.179C270 220.479 269.5 222.079 269.5 222.079L267 227.379Z" fill="#4F8BAD"/>
<path d="M269 228.679C269 228.679 268.9 228.579 268.5 228.379C268.2 228.079 268 228.079 268 228.079L270 224.979C270 224.979 270.5 224.179 271.2 223.579C271.8 222.879 272.6 222.279 272.9 222.479C273.2 222.679 273.2 223.179 273.1 223.579C273 223.979 272.8 224.379 272.8 224.379L269 228.679Z" fill="#4F8BAD"/>
<path d="M270.4 230.279C270.4 230.279 270.3 230.179 270.1 229.879C269.9 229.579 269.8 229.479 269.8 229.479L272.6 227.079C272.6 227.079 273.3 226.479 274.1 226.079C274.9 225.579 275.8 225.279 276 225.579C276.3 225.879 276.1 226.379 275.8 226.779C275.6 227.179 275.3 227.379 275.3 227.379L270.4 230.279Z" fill="#4F8BAD"/>
<path d="M271.1 232.079C271.1 232.079 271.1 231.979 271 231.579C270.9 231.279 270.9 231.179 270.9 231.179L274.4 229.879C274.4 229.879 275.3 229.579 276.2 229.379C277.1 229.179 278.1 229.179 278.2 229.579C278.3 229.979 278 230.379 277.6 230.679C277.2 230.979 276.9 231.079 276.9 231.079L271.1 232.079Z" fill="#4F8BAD"/>
<path d="M271.1 234.079C271.1 234.079 271.1 233.879 271.1 233.579C271.1 233.179 271.2 233.079 271.2 233.079H274.9C274.9 233.079 275.8 233.079 276.7 233.279C277.6 233.479 278.5 233.779 278.5 234.179C278.5 234.579 278 234.879 277.6 234.979C277.2 235.079 276.8 235.079 276.8 235.079L271.1 234.079Z" fill="#4F8BAD"/>
<path d="M270.3 236.279C270.3 236.279 270.4 236.079 270.5 235.679C270.7 235.279 270.7 235.179 270.7 235.179L274.2 236.379C274.2 236.379 275.1 236.679 275.9 237.179C276.7 237.579 277.5 238.179 277.4 238.479C277.3 238.879 276.8 238.979 276.3 238.879C275.9 238.879 275.5 238.779 275.5 238.779L270.3 236.279Z" fill="#4F8BAD"/>
<path d="M269 238.479C269 238.479 269.1 238.279 269.4 237.879C269.7 237.479 269.8 237.379 269.8 237.379L273 239.279C273 239.279 273.8 239.779 274.5 240.379C275.2 240.979 275.9 241.679 275.6 241.979C275.2 242.579 273.7 241.879 273.7 241.879L269 238.479Z" fill="#4F8BAD"/>
<path d="M267.2 240.479C267.2 240.479 267.3 240.379 267.7 239.979C268 239.579 268.2 239.479 268.2 239.479L271 241.979C271 241.979 271.7 242.579 272.3 243.379C272.9 244.079 273.4 244.879 273.2 245.179C272.7 245.679 271.4 244.779 271.4 244.779L267.2 240.479Z" fill="#4F8BAD"/>
<path d="M265.1 242.279C265.1 242.279 265.3 242.179 265.7 241.879C266.1 241.579 266.2 241.479 266.2 241.479L268.6 244.279C268.6 244.279 270.8 247.179 270.3 247.679C269.7 248.079 268.6 246.979 268.6 246.979L265.1 242.279Z" fill="#4F8BAD"/>
<path d="M262.6 243.879C262.6 243.879 262.8 243.779 263.2 243.479C263.6 243.179 263.8 243.079 263.8 243.079L265.8 246.179C265.8 246.179 267.7 249.379 267.1 249.779C266.5 250.179 265.5 248.879 265.5 248.879L262.6 243.879Z" fill="#4F8BAD"/>
<path d="M260 245.279C260 245.279 260.2 245.179 260.7 244.979C261.2 244.779 261.3 244.679 261.3 244.679L263 247.979C263 247.979 264.5 251.379 263.9 251.679C263.3 251.979 262.4 250.579 262.4 250.579L260 245.279Z" fill="#4F8BAD"/>
<path d="M257.3 246.279C257.3 246.279 257.5 246.179 258 245.979C258.5 245.779 258.7 245.779 258.7 245.779L260.1 249.179C260.1 249.179 261.3 252.679 260.6 252.879C260 253.079 259.2 251.679 259.2 251.679L257.3 246.279Z" fill="#4F8BAD"/>
<path d="M254.5 247.179C254.5 247.179 254.7 247.079 255.2 246.979C255.7 246.879 255.9 246.779 255.9 246.779L256.9 250.379C256.9 250.379 257.8 253.979 257.1 254.179C256.4 254.379 255.8 252.879 255.8 252.879L254.5 247.179Z" fill="#4F8BAD"/>
<path d="M251.6 247.679C251.6 247.679 251.8 247.679 252.3 247.579C252.8 247.479 253 247.479 253 247.479L253.7 251.079C253.7 251.079 254.2 254.779 253.5 254.879C252.8 254.979 252.3 253.479 252.3 253.479L251.6 247.679Z" fill="#4F8BAD"/>
<path d="M248.7 247.979C248.7 247.979 248.9 247.979 249.4 247.879C249.9 247.879 250.1 247.879 250.1 247.879L250.4 251.579C250.4 251.579 250.6 255.279 249.8 255.279C249.1 255.279 248.8 253.679 248.8 253.679L248.7 247.979Z" fill="#4F8BAD"/>
<path d="M245.8 247.879C245.8 247.879 246 247.879 246.5 247.879C247 247.879 247.2 247.879 247.2 247.879L247.1 251.579C247.1 251.579 246.9 255.279 246.1 255.279C245.4 255.279 245.3 253.579 245.3 253.579L245.8 247.879Z" fill="#4F8BAD"/>
<path d="M243 247.479C243 247.479 243.2 247.479 243.7 247.579C244.2 247.679 244.4 247.679 244.4 247.679L243.9 251.379C243.9 251.379 243.7 252.279 243.5 253.179C243.2 254.079 242.8 254.979 242.5 254.879C241.8 254.779 241.9 253.079 241.9 253.079L243 247.479Z" fill="#4F8BAD"/>
<path d="M240.4 246.779C240.4 246.779 240.6 246.879 241 246.979C241.4 247.179 241.6 247.179 241.6 247.179L240.6 250.679C240.6 250.679 240.3 251.579 239.9 252.379C239.5 253.179 239 253.979 238.6 253.879C237.9 253.679 238.2 252.079 238.2 252.079L240.4 246.779Z" fill="#4F8BAD"/>
<path d="M238.2 245.579C238.2 245.579 238.4 245.679 238.7 245.879C239.1 246.079 239.2 246.179 239.2 246.179L237.5 249.479C237.5 249.479 237 250.279 236.5 251.079C236 251.779 235.3 252.479 234.9 252.279C234.2 251.879 234.9 250.379 234.9 250.379L238.2 245.579Z" fill="#4F8BAD"/>
<path d="M236.5 244.079C236.5 244.079 236.6 244.179 236.9 244.479C237.2 244.779 237.3 244.879 237.3 244.879L234.8 247.679C234.8 247.679 234.2 248.379 233.4 248.879C232.7 249.479 231.9 249.979 231.6 249.679C231.3 249.379 231.4 248.879 231.6 248.479C231.8 248.079 232.1 247.779 232.1 247.779L236.5 244.079Z" fill="#4F8BAD"/>
<path d="M235.5 242.379C235.5 242.379 235.6 242.479 235.7 242.879C235.9 243.179 235.9 243.279 235.9 243.279L232.7 245.079C232.7 245.079 231.9 245.479 231 245.779C230.1 246.079 229.2 246.279 229 245.879C228.8 245.479 229.1 245.079 229.4 244.779C229.7 244.479 230.1 244.279 230.1 244.279L235.5 242.379Z" fill="#4F8BAD"/>
<path d="M235.2 240.479C235.2 240.479 235.2 240.679 235.2 240.979C235.2 241.279 235.3 241.479 235.3 241.479L231.6 242.079C231.6 242.079 230.7 242.179 229.8 242.179C228.9 242.179 227.9 241.979 227.9 241.579C227.9 241.179 228.3 240.879 228.7 240.679C229.1 240.479 229.5 240.479 229.5 240.479H235.2Z" fill="#4F8BAD"/>
<path d="M235.6 238.379C235.6 238.379 235.6 238.579 235.5 238.979C235.4 239.379 235.3 239.479 235.3 239.479L231.7 238.779C231.7 238.779 230.8 238.579 229.9 238.279C229 237.979 228.2 237.479 228.3 237.079C228.4 236.679 228.9 236.479 229.3 236.479C229.7 236.479 230.1 236.479 230.1 236.479L235.6 238.379Z" fill="#4F8BAD"/>
<path d="M236.7 236.179C236.7 236.179 236.6 236.379 236.4 236.779C236.2 237.179 236.1 237.279 236.1 237.279L232.8 235.679C232.8 235.679 232 235.279 231.2 234.679C230.4 234.179 229.7 233.479 229.9 233.179C230.3 232.479 231.8 233.079 231.8 233.079L236.7 236.179Z" fill="#4F8BAD"/>
<path d="M238.3 234.079C238.3 234.079 238.2 234.279 237.9 234.579C237.6 234.979 237.5 235.079 237.5 235.079L234.6 232.779C234.6 232.779 233.9 232.179 233.3 231.479C232.7 230.779 232.1 230.079 232.3 229.779C232.8 229.179 234.2 230.079 234.2 230.079L238.3 234.079Z" fill="#4F8BAD"/>
<path d="M240.3 232.179C240.3 232.179 240.1 232.279 239.8 232.679C239.4 232.979 239.3 233.179 239.3 233.179L236.8 230.479C236.8 230.479 234.4 227.679 234.9 227.179C235.4 226.679 236.7 227.779 236.7 227.779L240.3 232.179Z" fill="#4F8BAD"/>
<path d="M242.6 230.479C242.6 230.479 242.4 230.579 242 230.879C241.6 231.179 241.4 231.279 241.4 231.279L239.2 228.279C239.2 228.279 237.2 225.179 237.8 224.779C238.4 224.379 239.5 225.579 239.5 225.579L242.6 230.479Z" fill="#4F8BAD"/>
<path d="M245.2 228.979C245.2 228.979 245 229.079 244.5 229.379C244 229.579 243.9 229.679 243.9 229.679L242.1 226.479C242.1 226.479 240.4 223.179 241 222.879C241.6 222.579 242.6 223.879 242.6 223.879L245.2 228.979Z" fill="#4F8BAD"/>
<path d="M247.9 227.779C247.9 227.779 247.7 227.879 247.2 228.079C246.7 228.279 246.5 228.379 246.5 228.379L245 224.979C245 224.979 243.7 221.579 244.3 221.279C244.9 220.979 245.8 222.379 245.8 222.379L247.9 227.779Z" fill="#4F8BAD"/>
<path d="M250.7 226.879C250.7 226.879 250.5 226.979 250 227.079C249.5 227.279 249.3 227.279 249.3 227.279L248.1 223.779C248.1 223.779 247.1 220.179 247.8 219.979C248.5 219.779 249.1 221.279 249.1 221.279L250.7 226.879Z" fill="#4F8BAD"/>
<path d="M253.5 226.179C253.5 226.179 253.3 226.179 252.8 226.379C252.3 226.479 252.1 226.479 252.1 226.479L251.2 222.879C251.2 222.879 250.5 219.279 251.2 219.079C251.9 218.979 252.4 220.479 252.4 220.479L253.5 226.179Z" fill="#4F8BAD"/>
<path d="M256.4 225.779C256.4 225.779 256.2 225.779 255.7 225.879C255.2 225.979 255 225.979 255 225.979L254.5 222.279C254.5 222.279 254.2 218.579 254.9 218.479C255.6 218.379 256 219.979 256 219.979L256.4 225.779Z" fill="#4F8BAD"/>
<path d="M259.3 225.679C259.3 225.679 259.1 225.679 258.6 225.679C258.1 225.679 257.9 225.679 257.9 225.679L257.8 221.979C257.8 221.979 257.9 218.279 258.6 218.279C259.3 218.279 259.5 219.879 259.5 219.879L259.3 225.679Z" fill="#4F8BAD"/>
<path d="M262.2 225.979C262.2 225.979 262 225.979 261.5 225.879C261 225.779 260.8 225.779 260.8 225.779L261.1 222.079C261.1 222.079 261.6 218.379 262.3 218.479C263 218.579 263 220.179 263 220.179L262.2 225.979Z" fill="#4F8BAD"/>
<path d="M294.2 229.079C284.1 240.679 268 243.979 258.4 236.479C248.7 228.879 249.1 213.379 259.2 201.779C269.3 190.179 285.4 186.879 295 194.379C304.7 201.979 304.3 217.479 294.2 229.079Z" fill="#2D3962"/>
<path d="M282.5 238.679C282.5 238.679 282 238.879 281.2 239.179C280.4 239.479 279.2 239.879 277.7 240.279C276.2 240.679 274.5 240.979 272.6 241.079C270.7 241.179 268.6 241.079 266.6 240.779C264.6 240.379 262.6 239.779 260.9 238.779C259.2 237.879 257.7 236.779 256.6 235.679C255.5 234.579 254.7 233.579 254.2 232.879C253.7 232.079 253.4 231.679 253.4 231.679L254.3 231.179C254.3 231.179 254.4 231.379 254.8 231.779C255 231.979 255.2 232.279 255.4 232.579C255.7 232.879 256 233.279 256.4 233.679C257.2 234.479 258.3 235.579 259.9 236.579C261.5 237.579 263.7 238.679 266.5 239.279C269.3 239.879 271.8 239.879 273.8 239.679C275.8 239.479 277.5 239.179 278.7 238.879C279.9 238.579 280.8 238.279 281.4 238.079C282 237.879 282.3 237.779 282.3 237.779L282.5 238.679Z" fill="#4F8BAD"/>
<path d="M284.1 223.479C284.1 223.479 284.2 223.279 284.6 222.979C284.9 222.579 285.1 222.479 285.1 222.479L287.9 224.879C287.9 224.879 290.6 227.479 290.1 227.979C289.6 228.479 288.3 227.579 288.3 227.579L284.1 223.479Z" fill="#4F8BAD"/>
<path d="M282 225.279C282 225.279 282.2 225.179 282.6 224.779C283 224.479 283.1 224.379 283.1 224.379L285.5 227.179C285.5 227.179 287.8 230.079 287.2 230.579C286.6 231.079 285.4 229.879 285.4 229.879L282 225.279Z" fill="#4F8BAD"/>
<path d="M279.7 226.779C279.7 226.779 279.9 226.679 280.3 226.379C280.7 226.079 280.9 226.079 280.9 226.079L282.9 229.179C282.9 229.179 284.8 232.379 284.1 232.779C283.5 233.179 282.5 231.879 282.5 231.879L279.7 226.779Z" fill="#4F8BAD"/>
<path d="M277.2 227.979C277.2 227.979 277.4 227.879 277.8 227.679C278.3 227.479 278.4 227.379 278.4 227.379L279.9 230.779C279.9 230.779 280.2 231.679 280.5 232.579C280.8 233.479 280.9 234.379 280.6 234.579C279.9 234.879 279.1 233.479 279.1 233.479L277.2 227.979Z" fill="#4F8BAD"/>
<path d="M274.6 228.679C274.6 228.679 274.8 228.679 275.3 228.479C275.8 228.379 275.9 228.379 275.9 228.379L276.9 231.979C276.9 231.979 277.1 232.879 277.2 233.779C277.3 234.679 277.3 235.679 277 235.779C276.3 235.979 275.7 234.379 275.7 234.379L274.6 228.679Z" fill="#4F8BAD"/>
<path d="M272 228.979C272 228.979 272.2 228.979 272.7 228.979C273.2 228.979 273.3 228.979 273.3 228.979L273.7 232.679C273.7 232.679 273.8 233.579 273.7 234.479C273.7 235.379 273.5 236.379 273.1 236.379C272.3 236.379 272.1 234.779 272.1 234.779L272 228.979Z" fill="#4F8BAD"/>
<path d="M269.5 228.679C269.5 228.679 269.7 228.679 270.1 228.779C270.5 228.879 270.7 228.879 270.7 228.879L270.3 232.579C270.3 232.579 270.2 233.479 269.9 234.379C269.7 235.279 269.3 236.179 268.9 236.079C268.1 235.979 268.2 234.279 268.2 234.279L269.5 228.679Z" fill="#4F8BAD"/>
<path d="M267.2 227.979C267.2 227.979 267.4 228.079 267.8 228.179C268.2 228.379 268.3 228.379 268.3 228.379L267.1 231.879C267.1 231.879 266.8 232.779 266.3 233.579C265.9 234.379 265.3 235.179 264.9 234.979C264.5 234.779 264.4 234.379 264.5 233.879C264.5 233.479 264.6 233.079 264.6 233.079L267.2 227.979Z" fill="#4F8BAD"/>
<path d="M265.1 226.479C265.1 226.479 265.3 226.679 265.8 226.979C266 227.179 266.1 227.279 266.2 227.279C266.1 227.479 265.9 227.679 265.8 227.779C265.3 228.579 265 228.979 265 228.979L264.1 230.379C264.1 230.379 263.5 231.079 262.9 231.779C262.2 232.479 261.5 232.979 261.2 232.779C260.7 232.379 261.5 230.979 261.5 230.979L265.1 226.479Z" fill="#4F8BAD"/>
<path d="M263.8 224.979C263.8 224.979 263.9 225.079 264.2 225.479C264.4 225.779 264.5 225.979 264.5 225.979L261.7 228.379C261.7 228.379 261 228.979 260.2 229.479C259.4 229.979 258.5 230.379 258.3 229.979C258.1 229.679 258.2 229.179 258.5 228.879C258.7 228.479 259 228.279 259 228.279L263.8 224.979Z" fill="#4F8BAD"/>
<path d="M262.8 222.879C262.8 222.879 262.9 223.079 263 223.479C263.1 223.879 263.2 223.979 263.2 223.979L259.9 225.579C259.9 225.579 259 225.979 258.2 226.179C257.3 226.479 256.4 226.579 256.2 226.179C256.1 225.779 256.3 225.379 256.7 225.179C257 224.879 257.4 224.679 257.4 224.679L262.8 222.879Z" fill="#4F8BAD"/>
<path d="M262.4 220.479C262.4 220.479 262.4 220.679 262.5 221.079C262.6 221.479 262.6 221.679 262.6 221.679L259 222.379C259 222.379 258.1 222.479 257.2 222.579C256.3 222.579 255.3 222.479 255.3 222.079C255 221.279 256.6 220.879 256.6 220.879L262.4 220.479Z" fill="#4F8BAD"/>
<path d="M262.4 217.88C262.4 217.88 262.4 218.08 262.4 218.58C262.4 219.08 262.4 219.18 262.4 219.18L258.7 219.08C258.7 219.08 257.8 218.98 256.9 218.88C256 218.68 255.1 218.48 255.1 218.08C255.2 217.28 256.8 217.28 256.8 217.28L262.4 217.88Z" fill="#4F8BAD"/>
<path d="M263 215.279C263 215.279 262.9 215.479 262.8 215.979C262.7 216.479 262.6 216.579 262.6 216.579L259 215.779C259 215.779 258.1 215.579 257.2 215.179C256.3 214.879 255.5 214.379 255.6 214.079C255.8 213.379 257.4 213.579 257.4 213.579L263 215.279Z" fill="#4F8BAD"/>
<path d="M264 212.779C264 212.779 263.9 212.979 263.7 213.379C263.5 213.779 263.4 213.979 263.4 213.979L260 212.679C260 212.679 259.2 212.279 258.4 211.779C257.6 211.279 256.8 210.779 257 210.379C257.3 209.679 258.9 210.179 258.9 210.179L264 212.779Z" fill="#4F8BAD"/>
<path d="M265.4 210.379C265.4 210.379 265.3 210.579 265 210.979C264.7 211.379 264.6 211.579 264.6 211.579L261.4 209.679C261.4 209.679 260.6 209.179 259.9 208.579C259.2 207.979 258.5 207.279 258.7 206.979C259.1 206.379 260.6 207.079 260.6 207.079L265.4 210.379Z" fill="#4F8BAD"/>
<path d="M267.2 208.179C267.2 208.179 267 208.379 266.7 208.779C266.4 209.179 266.3 209.279 266.3 209.279L263.4 206.979C263.4 206.979 262.7 206.379 262.1 205.679C261.5 204.979 260.9 204.179 261.1 203.979C261.5 203.479 262.9 204.379 262.9 204.379L267.2 208.179Z" fill="#4F8BAD"/>
<path d="M269.2 206.279C269.2 206.279 269 206.379 268.7 206.779C268.3 207.079 268.2 207.279 268.2 207.279L265.6 204.579C265.6 204.579 263.2 201.779 263.7 201.279C264.2 200.779 265.5 201.879 265.5 201.879L269.2 206.279Z" fill="#4F8BAD"/>
<path d="M271.4 204.679C271.4 204.679 271.2 204.779 270.8 205.079C270.4 205.379 270.2 205.479 270.2 205.479L268 202.479C268 202.479 266 199.379 266.6 198.979C267.2 198.579 268.3 199.779 268.3 199.779L271.4 204.679Z" fill="#4F8BAD"/>
<path d="M273.9 203.379C273.9 203.379 273.7 203.479 273.3 203.679C272.9 203.879 272.7 203.979 272.7 203.979L271 200.679C271 200.679 270.6 199.879 270.3 198.979C270 198.079 269.8 197.179 270.1 196.979C270.8 196.679 271.6 198.079 271.6 198.079L273.9 203.379Z" fill="#4F8BAD"/>
<path d="M276.4 202.579C276.4 202.579 276.2 202.679 275.7 202.779C275.3 202.879 275.2 202.879 275.2 202.879L274 199.379C274 199.379 273.7 198.479 273.6 197.579C273.4 196.679 273.4 195.679 273.7 195.579C274.4 195.379 275.1 196.879 275.1 196.879L276.4 202.579Z" fill="#4F8BAD"/>
<path d="M279.1 202.079C279.1 202.079 278.9 202.079 278.4 202.179C277.9 202.279 277.8 202.279 277.8 202.279L277.2 198.579C277.2 198.579 277.1 197.679 277.1 196.679C277.1 195.779 277.2 194.779 277.6 194.779C278.4 194.679 278.7 196.279 278.7 196.279L279.1 202.079Z" fill="#4F8BAD"/>
<path d="M281.6 202.179C281.6 202.179 281.4 202.179 281 202.079C280.5 202.079 280.4 201.979 280.4 201.979L280.5 198.279C280.5 198.279 280.6 197.379 280.8 196.479C281 195.579 281.3 194.679 281.7 194.679C282.5 194.779 282.5 196.379 282.5 196.379L281.6 202.179Z" fill="#4F8BAD"/>
<path d="M283.9 202.78C283.9 202.78 283.7 202.68 283.3 202.58C282.9 202.48 282.7 202.38 282.7 202.38L283.6 198.78C283.6 198.78 283.9 197.88 284.2 197.08C284.6 196.18 285.1 195.38 285.5 195.58C286.3 195.88 285.9 197.48 285.9 197.48L283.9 202.78Z" fill="#4F8BAD"/>
<path d="M286 203.98C286 203.98 285.9 203.88 285.5 203.68C285.2 203.48 285 203.38 285 203.38L286.8 200.18C286.8 200.18 287.3 199.38 287.9 198.68C288.5 197.98 289.2 197.28 289.5 197.48C289.8 197.68 289.8 198.18 289.7 198.58C289.6 198.98 289.4 199.38 289.4 199.38L286 203.98Z" fill="#4F8BAD"/>
<path d="M287.6 205.58C287.6 205.58 287.5 205.48 287.2 205.18C286.9 204.88 286.8 204.78 286.8 204.78L289.4 202.18C289.4 202.18 290.1 201.58 290.8 200.98C291.5 200.38 292.4 199.98 292.7 200.28C293 200.58 292.8 201.08 292.6 201.48C292.4 201.88 292.1 202.18 292.1 202.18L287.6 205.58Z" fill="#4F8BAD"/>
<path d="M288.7 207.579C288.7 207.579 288.6 207.379 288.4 207.079C288.2 206.679 288.2 206.579 288.2 206.579L291.4 204.779C291.4 204.779 292.2 204.379 293.1 204.079C294 203.779 294.9 203.579 295.1 203.879C295.3 204.279 295 204.679 294.7 204.979C294.4 205.279 294.1 205.479 294.1 205.479L288.7 207.579Z" fill="#4F8BAD"/>
<path d="M289.4 209.88C289.4 209.88 289.4 209.68 289.3 209.28C289.2 208.88 289.2 208.68 289.2 208.68L292.8 207.68C292.8 207.68 293.7 207.48 294.6 207.38C295.5 207.28 296.5 207.28 296.6 207.68C296.8 208.48 295.2 208.98 295.2 208.98L289.4 209.88Z" fill="#4F8BAD"/>
<path d="M289.5 212.379C289.5 212.379 289.5 212.179 289.5 211.679C289.5 211.179 289.5 211.079 289.5 211.079L293.2 210.979C293.2 210.979 294.1 210.979 295 211.079C295.9 211.179 296.8 211.379 296.8 211.779C296.8 212.579 295.2 212.679 295.2 212.679L289.5 212.379Z" fill="#4F8BAD"/>
<path d="M289.1 214.979C289.1 214.979 289.1 214.779 289.2 214.279C289.3 213.779 289.3 213.679 289.3 213.679L293 214.279C293 214.279 293.9 214.479 294.8 214.779C295.7 215.079 296.6 215.479 296.5 215.779C296.3 216.479 294.7 216.379 294.7 216.379L289.1 214.979Z" fill="#4F8BAD"/>
<path d="M288.2 217.48C288.2 217.48 288.3 217.28 288.4 216.88C288.6 216.38 288.6 216.28 288.6 216.28L292.1 217.48C292.1 217.48 293 217.78 293.8 218.28C294.6 218.68 295.4 219.28 295.3 219.58C295 220.28 293.4 219.88 293.4 219.88L288.2 217.48Z" fill="#4F8BAD"/>
<path d="M286.9 219.98C286.9 219.98 287 219.78 287.3 219.38C287.5 218.98 287.6 218.78 287.6 218.78L290.9 220.48C290.9 220.48 291.7 220.98 292.4 221.48C293.2 222.08 293.8 222.68 293.7 222.98C293.3 223.58 291.8 222.98 291.8 222.98L286.9 219.98Z" fill="#4F8BAD"/>
<path d="M285.3 222.179C285.3 222.179 285.4 221.979 285.7 221.579C286 221.179 286.1 221.079 286.1 221.079L289.1 223.279C289.1 223.279 292 225.579 291.5 226.179C291.1 226.779 289.6 225.879 289.6 225.879L285.3 222.179Z" fill="#4F8BAD"/>
<path d="M239.7 197.979C253.9 205.279 260 220.679 253.2 232.379C246.5 244.079 229.5 247.579 215.2 240.279C201 232.979 194.9 217.579 201.7 205.879C208.4 194.179 225.4 190.679 239.7 197.979Z" fill="#2D3962"/>
<path d="M253.9 210.879C253.9 210.879 254 211.079 254.2 211.479C254.4 211.879 254.7 212.479 255 213.379C255.6 214.979 256.4 217.479 256.6 220.479C256.8 223.479 256.4 227.079 254.9 230.579C253.4 234.079 250.8 237.279 247.6 239.679C244.4 242.079 240.5 243.479 236.9 244.279C233.2 244.979 229.7 244.979 226.8 244.679C225.3 244.579 224 244.179 222.8 243.979C221.6 243.679 220.6 243.379 219.8 243.079C218.2 242.479 217.2 242.079 217.2 242.079L217.6 241.179C217.6 241.179 218 241.279 219 241.579C219.9 241.879 221.4 242.379 223.7 242.779C224.3 242.879 224.9 242.979 225.5 243.079C226.2 243.179 226.9 243.179 227.6 243.279C229.1 243.379 230.8 243.479 232.7 243.279C233.7 243.279 234.6 243.079 235.7 242.879C236.7 242.679 237.8 242.479 239 242.079C239.6 241.879 240.2 241.779 240.7 241.479C241.3 241.279 241.9 240.979 242.5 240.779C243.1 240.479 243.7 240.179 244.3 239.879C244.9 239.579 245.5 239.179 246.1 238.779C250.8 235.679 253.5 231.379 254.7 227.679C255.9 223.879 255.8 220.579 255.4 218.079C255 215.579 254.4 213.879 254 212.779C253.8 212.179 253.6 211.779 253.5 211.579C253.4 211.279 253.3 211.179 253.3 211.179L253.9 210.879Z" fill="#4F8BAD"/>
<path d="M235.8 208.179C235.8 208.179 235.6 208.079 235.2 207.879C234.8 207.679 234.6 207.579 234.6 207.579L236.3 204.279C236.3 204.279 238.2 201.079 238.8 201.479C239.4 201.879 238.8 203.379 238.8 203.379L235.8 208.179Z" fill="#4F8BAD"/>
<path d="M238 209.779C238 209.779 237.8 209.679 237.4 209.379C237 209.079 236.9 208.979 236.9 208.979L239.1 205.979C239.1 205.979 239.7 205.279 240.3 204.579C240.9 203.879 241.7 203.279 242 203.579C242.6 203.979 241.7 205.479 241.7 205.479L238 209.779Z" fill="#4F8BAD"/>
<path d="M240 211.679C240 211.679 239.9 211.479 239.5 211.179C239.2 210.779 239 210.679 239 210.679L241.6 208.079C241.6 208.079 242.3 207.479 243 206.879C243.7 206.279 244.6 205.879 244.8 206.079C245.3 206.579 244.3 207.879 244.3 207.879L240 211.679Z" fill="#4F8BAD"/>
<path d="M241.5 213.779C241.5 213.779 241.4 213.579 241.1 213.179C240.8 212.779 240.7 212.679 240.7 212.679L243.7 210.479C243.7 210.479 244.5 209.979 245.3 209.579C246.1 209.179 247 208.779 247.2 209.179C247.6 209.779 246.4 210.879 246.4 210.879L241.5 213.779Z" fill="#4F8BAD"/>
<path d="M242.7 216.179C242.7 216.179 242.6 215.979 242.4 215.579C242.2 215.179 242.2 214.979 242.2 214.979L245.5 213.379C245.5 213.379 246.3 212.979 247.2 212.779C248.1 212.479 249 212.379 249.2 212.679C249.5 213.379 248.1 214.179 248.1 214.179L242.7 216.179Z" fill="#4F8BAD"/>
<path d="M243.3 218.579C243.3 218.579 243.3 218.379 243.2 217.979C243.1 217.579 243.1 217.379 243.1 217.379L246.7 216.479C246.7 216.479 247.6 216.279 248.5 216.179C249.4 216.079 250.4 216.079 250.5 216.479C250.7 217.279 249.1 217.779 249.1 217.779L243.3 218.579Z" fill="#4F8BAD"/>
<path d="M243.4 221.079C243.4 221.079 243.4 220.879 243.4 220.479C243.4 220.079 243.4 219.879 243.4 219.879L247.1 219.779C247.1 219.779 248 219.779 248.9 219.879C249.8 219.979 250.7 220.279 250.7 220.679C250.7 221.479 249 221.579 249 221.579L243.4 221.079Z" fill="#4F8BAD"/>
<path d="M242.9 223.379C242.9 223.379 242.9 223.179 243.1 222.779C243.2 222.379 243.3 222.179 243.3 222.179L246.9 222.979C246.9 222.979 247.8 223.179 248.7 223.579C249.6 223.879 250.4 224.379 250.3 224.779C250.1 225.579 248.5 225.279 248.5 225.279L242.9 223.379Z" fill="#4F8BAD"/>
<path d="M241.7 225.679C241.7 225.679 241.8 225.479 242.1 224.979C242.2 224.779 242.3 224.579 242.4 224.479C242.4 224.479 242.4 224.379 242.4 224.479C243.3 224.879 243.7 225.079 243.7 225.079L245.8 226.079C245.8 226.079 246.6 226.479 247.4 227.079C248.1 227.679 248.8 228.279 248.7 228.579C248.4 229.179 246.9 228.579 246.9 228.579L241.7 225.679Z" fill="#4F8BAD"/>
<path d="M240.3 227.479C240.3 227.479 240.4 227.379 240.7 226.979C241 226.679 241.1 226.579 241.1 226.579L244 228.879C244 228.879 244.7 229.479 245.3 230.179C245.9 230.879 246.4 231.679 246.2 231.979C245.7 232.579 244.3 231.579 244.3 231.579L240.3 227.479Z" fill="#4F8BAD"/>
<path d="M238.3 228.979C238.3 228.979 238.5 228.879 238.8 228.579C239.2 228.279 239.3 228.279 239.3 228.279L241.6 231.179C241.6 231.179 242.1 231.979 242.6 232.779C243.1 233.579 243.4 234.479 243.1 234.679C242.5 235.079 241.4 233.879 241.4 233.879L238.3 228.979Z" fill="#4F8BAD"/>
<path d="M236 230.179C236 230.179 236.2 230.079 236.6 229.879C237 229.679 237.2 229.679 237.2 229.679L238.8 232.979C238.8 232.979 239.2 233.779 239.4 234.679C239.7 235.579 239.8 236.479 239.5 236.679C238.8 236.979 238 235.579 238 235.579L236 230.179Z" fill="#4F8BAD"/>
<path d="M233.4 230.879C233.4 230.879 233.6 230.879 234.1 230.679C234.6 230.579 234.7 230.579 234.7 230.579L235.7 234.179C235.7 234.179 235.9 235.079 236 235.979C236.1 236.879 236.1 237.879 235.7 237.979C235 238.179 234.4 236.579 234.4 236.579L233.4 230.879Z" fill="#4F8BAD"/>
<path d="M230.7 231.079C230.7 231.079 230.9 231.079 231.4 231.079C231.9 231.079 232.1 231.079 232.1 231.079L232.5 234.779C232.5 234.779 232.6 235.679 232.5 236.679C232.5 237.579 232.3 238.579 231.9 238.579C231.2 238.579 230.9 236.979 230.9 236.979L230.7 231.079Z" fill="#4F8BAD"/>
<path d="M228 230.979C228 230.979 228.2 230.979 228.7 231.079C229.2 231.079 229.4 231.179 229.4 231.179L229.2 234.879C229.2 234.879 229.1 235.779 228.9 236.679C228.7 237.579 228.4 238.479 228.1 238.479C227.4 238.379 227.3 236.779 227.3 236.779L228 230.979Z" fill="#4F8BAD"/>
<path d="M225.3 230.379C225.3 230.379 225.5 230.379 226 230.579C226.5 230.679 226.7 230.779 226.7 230.779L226 234.379C226 234.379 225.8 235.279 225.5 236.179C225.2 237.079 224.8 237.879 224.4 237.779C223.7 237.579 223.9 235.979 223.9 235.979L225.3 230.379Z" fill="#4F8BAD"/>
<path d="M222.7 229.479C222.7 229.479 222.9 229.579 223.4 229.779C223.9 229.979 224 230.079 224 230.079L222.7 233.579C222.7 233.579 221.3 236.979 220.6 236.679C219.9 236.379 220.3 234.779 220.3 234.779L222.7 229.479Z" fill="#4F8BAD"/>
<path d="M220.3 228.179C220.3 228.179 220.5 228.279 220.9 228.579C221.3 228.879 221.5 228.879 221.5 228.879L219.8 232.179C219.8 232.179 219.3 232.979 218.8 233.679C218.2 234.379 217.6 235.079 217.3 234.979C216.7 234.579 217.3 233.079 217.3 233.079L220.3 228.179Z" fill="#4F8BAD"/>
<path d="M218.1 226.579C218.1 226.579 218.3 226.679 218.6 226.979C219 227.279 219.1 227.379 219.1 227.379L216.9 230.379C216.9 230.379 216.3 231.079 215.7 231.779C215 232.479 214.3 232.979 214 232.779C213.4 232.279 214.3 230.879 214.3 230.879L218.1 226.579Z" fill="#4F8BAD"/>
<path d="M216.2 224.579C216.2 224.579 216.3 224.779 216.7 225.079C217 225.479 217.1 225.579 217.1 225.579L214.5 228.179C214.5 228.179 213.8 228.779 213.1 229.379C212.3 229.879 211.5 230.379 211.3 230.079C210.8 229.479 211.9 228.279 211.9 228.279L216.2 224.579Z" fill="#4F8BAD"/>
<path d="M214.6 222.379C214.6 222.379 214.7 222.579 215 222.979C215.3 223.379 215.3 223.479 215.3 223.479L212.3 225.579C212.3 225.579 211.5 226.079 210.7 226.479C209.9 226.879 209 227.179 208.8 226.879C208.4 226.279 209.7 225.179 209.7 225.179L214.6 222.379Z" fill="#4F8BAD"/>
<path d="M213.6 220.079C213.6 220.079 213.7 220.279 213.8 220.679C214 221.079 214 221.279 214 221.279L210.6 222.779C210.6 222.779 209.7 223.079 208.8 223.379C207.9 223.679 207 223.779 206.8 223.379C206.5 222.679 208 221.879 208 221.879L213.6 220.079Z" fill="#4F8BAD"/>
<path d="M213 217.579C213 217.579 213 217.779 213.1 218.179C213.2 218.579 213.2 218.779 213.2 218.779L209.6 219.579C209.6 219.579 208.7 219.779 207.8 219.779C206.9 219.879 205.9 219.779 205.9 219.379C205.8 218.579 207.3 218.179 207.3 218.179L213 217.579Z" fill="#4F8BAD"/>
<path d="M213 215.179C213 215.179 213 215.379 213 215.779C213 216.179 213 216.379 213 216.379H209.3C209.3 216.379 208.4 216.379 207.5 216.179C206.6 216.079 205.7 215.779 205.7 215.379C205.7 214.579 207.4 214.479 207.4 214.479L213 215.179Z" fill="#4F8BAD"/>
<path d="M213.6 212.779C213.6 212.779 213.5 212.979 213.4 213.379C213.3 213.779 213.2 213.979 213.2 213.979L209.6 213.079C209.6 213.079 208.7 212.779 207.9 212.479C207 212.079 206.2 211.679 206.3 211.279C206.5 210.479 208.1 210.779 208.1 210.779L213.6 212.779Z" fill="#4F8BAD"/>
<path d="M213.5 209.979C213.5 209.979 213.8 210.179 214.5 210.679L214.6 210.779C214.6 210.879 214.5 210.979 214.4 211.079C214.3 211.279 214.2 211.379 214.2 211.479C214.1 211.579 214.1 211.579 214.1 211.679C214.1 211.779 214.1 211.679 214.1 211.679L211 209.579C211 209.579 210.8 209.479 210.5 209.279C210.2 209.079 209.8 208.879 209.4 208.579C208.6 208.079 207.9 207.479 208 207.279C208.1 207.079 208.6 207.179 209 207.279C209.2 207.379 209.4 207.379 209.6 207.479C209.7 207.579 209.8 207.579 209.8 207.579L213.5 209.979Z" fill="#4F8BAD"/>
<path d="M216.3 208.879C216.3 208.879 216.2 208.979 215.9 209.379C215.6 209.679 215.5 209.779 215.5 209.779L212.7 207.379C212.7 207.379 212 206.779 211.4 206.079C210.8 205.379 210.3 204.579 210.6 204.279C211.2 203.679 212.4 204.679 212.4 204.679L216.3 208.879Z" fill="#4F8BAD"/>
<path d="M218.3 207.379C218.3 207.379 218.1 207.479 217.8 207.779C217.4 207.979 217.3 208.079 217.3 208.079L215.1 205.079C215.1 205.079 214.6 204.279 214.2 203.479C213.8 202.679 213.4 201.779 213.8 201.579C214.4 201.179 215.5 202.379 215.5 202.379L218.3 207.379Z" fill="#4F8BAD"/>
<path d="M220.6 206.279C220.6 206.279 220.4 206.379 220 206.579C219.6 206.779 219.4 206.779 219.4 206.779L217.9 203.379C217.9 203.379 217.6 202.479 217.3 201.579C217 200.679 216.9 199.779 217.2 199.579C217.9 199.279 218.7 200.679 218.7 200.679L220.6 206.279Z" fill="#4F8BAD"/>
<path d="M223.2 205.579C223.2 205.579 223 205.579 222.5 205.679C222.1 205.879 221.9 205.879 221.9 205.879L221 202.279C221 202.279 220.8 201.379 220.7 200.479C220.6 199.579 220.6 198.579 221 198.479C221.7 198.279 222.3 199.879 222.3 199.879L223.2 205.579Z" fill="#4F8BAD"/>
<path d="M225.9 205.379C225.9 205.379 225.7 205.379 225.2 205.379C224.7 205.379 224.5 205.379 224.5 205.379L224.2 201.679C224.2 201.679 224.2 200.779 224.2 199.879C224.3 198.979 224.4 197.979 224.8 197.979C225.5 197.979 225.8 199.579 225.8 199.579L225.9 205.379Z" fill="#4F8BAD"/>
<path d="M228.6 205.579C228.6 205.579 228.4 205.579 227.9 205.479C227.4 205.379 227.2 205.379 227.2 205.379L227.5 201.679C227.5 201.679 227.6 200.779 227.8 199.879C228 198.979 228.3 198.079 228.7 198.079C229.4 198.179 229.5 199.779 229.5 199.779L228.6 205.579Z" fill="#4F8BAD"/>
<path d="M231.3 206.179C231.3 206.179 231.1 206.079 230.6 205.979C230.2 205.879 230 205.779 230 205.779L230.8 202.179C230.8 202.179 231 201.279 231.4 200.379C231.7 199.479 232.2 198.679 232.5 198.779C233.2 198.979 233 200.579 233 200.579L231.3 206.179Z" fill="#4F8BAD"/>
<path d="M233.9 207.179C233.9 207.179 233.7 207.079 233.2 206.879C232.7 206.679 232.6 206.579 232.6 206.579L233.9 203.079C233.9 203.079 235.4 199.679 236.1 199.979C236.8 200.279 236.3 201.879 236.3 201.879L233.9 207.179Z" fill="#4F8BAD"/>
<path d="M207.1 172.979C207.1 172.979 218.1 147.679 240.4 144.779C262.7 141.979 277.3 162.079 277.3 162.079C277.3 162.079 252.7 177.179 207.1 172.979Z" fill="#72BAD1"/>
<path d="M200 189.979L193.7 173.879L192.9 171.879L192.6 171.079L192.4 170.579V170.479L192.5 170.379L192.7 170.279L193.6 169.879L194.1 169.679C195.4 169.079 196.8 168.579 198.1 168.079C199.4 167.579 200.8 167.079 202.2 166.579C203.6 166.079 204.9 165.579 206.3 165.179C217.3 161.579 228.7 159.179 240.1 157.879C251.6 156.579 263.2 156.379 274.7 157.479C276.1 157.579 277.6 157.679 279 157.879L283.3 158.579L287.6 159.279L288.7 159.479C288.8 159.479 288.9 159.479 288.9 159.579V159.879L288.8 160.379L288.6 161.779L288.3 163.879L286.3 180.079L288.1 179.979C289 179.979 289.9 179.979 290.8 179.979C292.6 179.979 294.4 180.079 296.3 180.279C298.1 180.479 299.9 180.679 301.7 181.079C303.5 181.479 305.3 181.979 307 182.879C307.9 183.279 308.7 183.779 309.4 184.479C310.2 185.079 310.8 185.879 311.3 186.779C311.6 187.179 311.7 187.679 311.8 188.179C311.9 188.679 312 189.079 312.1 189.579C312.2 190.479 312.3 191.379 312.4 192.379C312.6 196.079 312.5 199.679 312.4 203.279C312.2 210.479 311.7 217.779 311.2 224.979C310.7 232.179 310.1 239.379 309.5 246.579C308.9 253.779 308.2 260.979 307.5 268.179L306.4 278.979L305.8 284.379L305.7 284.879C305.7 285.079 305.7 285.379 305.5 285.479L304.6 285.879L303.4 286.479C302.6 286.879 301.7 287.179 300.9 287.579C294.2 290.379 287.3 292.679 280.3 294.679C276.8 295.679 273.3 296.479 269.7 297.279C266.2 298.079 262.6 298.679 259 299.179C255.4 299.679 251.8 300.079 248.2 300.279C244.6 300.479 240.9 300.679 237.3 300.579C233.7 300.579 230 300.279 226.4 299.979C222.8 299.579 219.2 299.079 215.6 298.379L212.9 297.879L210.2 297.279L208.9 296.979L207.9 296.779C207.8 296.779 207.8 296.779 207.8 296.679L207.7 296.479L207.6 296.179L207.4 295.779L206.4 293.279L202.6 283.179C200.1 276.379 197.6 269.579 195.2 262.779C192.8 255.979 190.4 249.179 188.1 242.279C186.2 234.879 184 227.979 182.1 220.979C181.1 217.479 180.2 213.979 179.5 210.379C179.4 209.479 179.2 208.579 179.1 207.679C179 206.779 179 205.779 179.1 204.779C179.4 202.879 180.2 201.079 181.4 199.479C183.7 196.479 186.9 194.379 190.2 192.779C193.5 191.179 196.9 189.879 200.5 188.979L200.7 189.979C200.7 189.979 199.9 190.179 198.2 190.679C196.5 191.279 193.9 192.079 190.4 193.879C188.7 194.779 186.8 195.879 184.9 197.479C183 199.079 181 201.179 180.3 204.179C179.9 205.679 180.1 207.279 180.4 208.979C180.5 209.779 180.7 210.679 180.9 211.579C181.1 212.479 181.3 213.379 181.5 214.279C182.4 217.979 183.5 221.879 184.8 226.179C187.4 234.779 190.7 244.579 194.7 255.879C198.7 267.079 203.3 279.779 208.8 293.979L209.2 294.979L209.5 295.079L210.2 295.279C211.1 295.479 212.1 295.779 213 295.979C213.9 296.179 214.9 296.379 215.9 296.579C216.9 296.779 217.8 296.979 218.8 297.079C222.7 297.779 226.8 298.179 231 298.479C235.2 298.679 239.5 298.779 244 298.679C248.4 298.479 253 298.079 257.6 297.479C266.9 296.279 276.5 294.179 286.3 291.079C291.2 289.579 296.2 287.779 301.1 285.679C301.7 285.379 302.3 285.179 302.9 284.879C303.4 284.679 303.9 284.379 304.5 284.179C304.6 282.979 304.8 281.779 304.9 280.579C305.2 277.779 305.5 275.079 305.8 272.279C308 250.279 309.8 229.979 310.8 211.279C311 206.579 311.2 201.979 311.2 197.579C311.2 195.379 311.2 193.179 311 190.979C311 190.479 310.9 189.879 310.8 189.379C310.8 189.079 310.7 188.879 310.7 188.579L310.5 187.879C310.2 186.979 309.6 186.179 308.8 185.579C307.3 184.279 305.4 183.479 303.4 182.979C301.4 182.479 299.4 182.079 297.4 181.879C295.4 181.679 293.4 181.579 291.4 181.479C290.4 181.479 289.4 181.479 288.5 181.479C288 181.479 287.5 181.479 287 181.479H286.1L284.7 181.579C285.5 175.179 286.3 169.079 287 163.179C287.1 162.479 287.2 161.779 287.3 161.079L287.4 160.679L287 160.579C285.6 160.379 284.3 160.179 282.9 159.979C281.6 159.779 280.2 159.579 278.9 159.379C277.6 159.179 276.3 159.079 275 158.979C273.7 158.879 272.4 158.779 271.1 158.579C270.5 158.479 269.8 158.479 269.2 158.379C268.6 158.379 267.9 158.379 267.3 158.279C264.8 158.179 262.3 158.079 260 158.079C257.6 158.079 255.3 158.179 253 158.179C251.9 158.179 250.7 158.279 249.6 158.379C248.5 158.479 247.4 158.579 246.3 158.579C228.8 159.879 215 163.479 204.5 166.879C203.2 167.379 201.9 167.779 200.7 168.179C199.5 168.679 198.3 169.079 197.2 169.479C196.1 169.979 195 170.479 194 170.879L193.8 170.979C193.8 170.979 193.6 170.979 193.7 171.079C193.8 171.279 193.8 171.379 193.9 171.579C194.1 172.079 194.3 172.579 194.5 173.079C196 176.879 197.2 179.979 198.1 182.479C200 187.379 200.9 189.679 200.9 189.679L200 189.979Z" fill="#72BAD1"/>
<path d="M193.5 170.179C193.5 170.179 193.8 170.279 194.5 170.479C195.2 170.679 196.2 170.979 197.4 171.279C199.9 171.879 203.7 172.479 208.2 172.879C209.3 172.979 210.5 173.079 211.7 173.179C212.9 173.179 214.2 173.279 215.5 173.279C216.1 173.279 216.8 173.279 217.5 173.379C218.2 173.379 218.8 173.379 219.5 173.379C220.9 173.379 222.3 173.379 223.7 173.279C225.1 173.179 226.5 173.079 228 172.979C229.5 172.879 230.9 172.879 232.4 172.679C235.3 172.379 238.4 172.079 241.3 171.579C244.3 171.079 247.3 170.679 250.2 170.079C253.1 169.479 256 168.979 258.7 168.279C261.4 167.579 264.1 166.979 266.6 166.279C269.1 165.579 271.4 164.879 273.6 164.179C274.7 163.879 275.7 163.579 276.7 163.279C277.7 162.979 278.6 162.579 279.5 162.279C281.2 161.679 282.8 161.179 284 160.679C286.5 159.779 287.9 159.279 287.9 159.279L288.2 160.179C288.2 160.179 285.7 161.179 279 163.679C277.3 164.379 275.3 164.979 273 165.679C271.9 166.079 270.6 166.379 269.3 166.779C268 167.179 266.6 167.679 265.2 167.979C263.7 168.379 262.2 168.779 260.5 169.179C259.7 169.379 258.8 169.579 258 169.779C257.1 169.979 256.2 170.279 255.3 170.379C251.6 171.079 247.6 172.079 243.1 172.679C238.6 173.479 234.4 173.779 230.6 174.179C228.7 174.279 226.8 174.379 225.1 174.479C224.7 174.479 224.2 174.479 223.8 174.579C223.4 174.579 222.9 174.579 222.5 174.579C221.7 174.579 220.8 174.579 220 174.579C219.2 174.579 218.4 174.579 217.6 174.579C216.8 174.579 216.1 174.479 215.4 174.479C213.9 174.379 212.6 174.379 211.3 174.279C208.7 174.079 206.4 173.879 204.4 173.579C202.4 173.379 200.7 172.979 199.3 172.679C197.9 172.379 196.7 172.079 195.8 171.779C194.9 171.579 194.2 171.279 193.8 171.179C193.4 171.079 193.2 170.979 193.2 170.979L193.5 170.179Z" fill="#FFFCF2"/>
<path d="M281.2 162.679C281.2 162.679 281.1 162.479 280.8 162.079C280.5 161.679 280.1 161.079 279.4 160.379C278.1 158.879 276.1 156.679 273 153.879C269.9 151.179 265.6 147.979 259.7 145.379C256.7 144.079 253.3 142.979 249.5 142.379C245.7 141.779 241.5 141.679 237.1 142.479C232.7 143.179 228.7 144.579 225.3 146.279C221.9 147.979 219.1 149.979 216.7 151.979C211.9 156.079 208.8 160.079 206.6 163.279C204.4 166.479 203.2 168.979 202.4 170.579C202 171.379 201.8 171.979 201.6 172.379C201.4 172.779 201.4 172.979 201.4 172.979L200.7 172.679C200.7 172.679 200.9 171.979 201.5 170.479C202.1 168.979 203.2 166.579 205.2 163.379C207.2 160.179 210.1 156.079 214.9 151.679C217.3 149.479 220.2 147.379 223.7 145.479C225.5 144.579 227.4 143.679 229.5 142.879C231.6 142.079 233.8 141.579 236.2 141.079C238.6 140.579 240.9 140.479 243.1 140.379C245.3 140.379 247.5 140.479 249.5 140.879C253.6 141.479 257.2 142.679 260.3 143.979C266.5 146.779 270.9 150.179 274.1 152.979C277.3 155.779 279.3 158.079 280.5 159.679C281.7 161.179 282.3 161.979 282.3 161.979L281.2 162.679Z" fill="#72BAD1"/>
<path d="M247.9 132.879C247.9 132.879 247.9 133.079 247.9 133.579C247.9 133.979 247.9 134.679 247.7 135.479C247.3 137.079 246.1 139.079 243.8 140.579C241.6 141.979 238.4 142.779 235.1 142.179C234.3 141.979 233.5 141.779 232.7 141.379C231.9 141.079 231.2 140.579 230.5 139.979C229.1 138.879 228.1 137.179 227.9 135.279C227.7 133.379 228.3 131.579 229.3 130.079C229.8 129.379 230.4 128.679 231.1 128.179C231.8 127.679 232.5 127.179 233.3 126.879C236.3 125.479 239.6 125.479 242.1 126.379C244.6 127.179 246.4 128.979 247.1 130.379C247.5 131.079 247.7 131.679 247.8 132.179C247.9 132.679 247.9 132.879 247.9 132.879L246.9 132.979C246.9 132.979 246.9 132.879 246.8 132.679C246.8 132.479 246.7 132.179 246.5 131.879C246.2 131.179 245.6 129.979 244.1 128.879C242.6 127.779 240.2 126.979 237 127.379C235.5 127.579 233.8 128.179 232.2 129.279C230.7 130.379 229.3 132.179 229.2 134.379C229.1 136.579 230.5 138.379 232.1 139.479C233.7 140.479 235.5 140.979 237.2 140.979C238.8 140.979 240.3 140.679 241.6 140.179C242.8 139.679 243.8 138.979 244.6 138.279C246.1 136.879 246.6 135.379 246.8 134.479C246.9 133.979 246.9 133.679 246.9 133.379C246.9 133.179 246.9 132.979 246.9 132.979L247.9 132.879Z" fill="#72BAD1"/>
<path d="M194 209.479C196.4 235.579 211.2 268.479 211.2 268.479L227.3 269.279C227.3 269.279 215.9 239.579 213.5 210.979C213.6 210.979 205.8 210.479 194 209.479Z" fill="#FFFCF2"/>
<path d="M225.2 169.279C225.2 169.279 219.1 169.679 213.6 168.479C213.6 168.479 219.8 153.079 235.1 149.079C235.2 149.079 226 158.479 225.2 169.279Z" fill="#FFFCF2"/>
<path d="M299.6 235.679C298.1 235.579 297.3 230.779 297.7 218.279C297.9 211.979 298.2 204.979 298.3 199.479C298.3 196.779 298.3 194.479 298.2 192.879C298.1 192.079 298 191.479 298 191.179C297.9 190.779 297.8 190.579 297.9 190.379C298 190.279 298.3 190.179 298.9 190.479C299.4 190.779 299.9 191.479 300.3 192.279C301.1 193.979 301.7 196.379 302.2 199.179C303.1 204.779 303.4 211.979 303.2 218.379C302.6 231.079 301 235.779 299.6 235.679Z" fill="#FFFCF2"/>
<path d="M299.5 237.179C298.4 237.079 297.3 239.179 297.1 241.779C296.9 244.379 297.7 246.579 298.8 246.679C299.9 246.779 301 244.679 301.2 242.079C301.4 239.379 300.6 237.279 299.5 237.179Z" fill="#FFFCF2"/>
<path d="M216.5 211.079C216.5 211.079 221 247.079 230.3 269.779L237.4 269.879C237.4 269.879 226.5 244.179 223.3 211.779L216.5 211.079Z" fill="#FFFCF2"/>
<path d="M270.6 160.279C269.9 160.879 266.2 157.779 261.3 154.879C256.3 151.879 251.9 150.179 252.1 149.279C252.2 148.879 253.5 148.679 255.6 149.079C257.6 149.479 260.3 150.379 263 152.079C265.7 153.679 267.8 155.579 269.2 157.179C270.4 158.779 270.9 159.979 270.6 160.279Z" fill="#FFFCF2"/>
<path d="M271.9 161.679C271.6 161.879 271.2 161.879 270.9 161.579C270.6 161.279 270.6 160.879 270.9 160.579C271.2 160.379 271.6 160.379 271.9 160.679C272.2 160.979 272.2 161.479 271.9 161.679Z" fill="#FFFCF2"/>
</g>
<path d="M152 210.038C152 210.802 156.71 211.565 162.766 211.565C162.879 218.542 163.551 223.884 164.336 223.884C165.121 223.884 165.794 218.542 165.907 211.565C171.626 211.456 175.888 210.802 175.888 210.038C175.888 209.275 171.514 208.621 165.907 208.512C165.907 200.881 165.234 194.884 164.336 194.884C163.439 194.884 162.766 200.881 162.766 208.403C156.71 208.512 152 209.166 152 210.038Z" fill="#B3C8D3"/>
<path d="M46.0369 51.8109L46.0968 51.7508C46.9954 50.85 47.894 49.889 48.7327 48.9882C50.53 47.1865 52.2074 45.3848 53.765 43.8233C56.8203 40.7003 59.0369 38.4181 59.0369 38.4181C59.0369 38.4181 56.5806 40.4601 53.2857 43.3428C51.6083 44.7842 49.8111 46.4658 47.9539 48.2074C46.9954 49.0482 46.0968 49.9491 45.1982 50.85C45.0783 50.9701 44.9585 51.0301 44.8986 51.1502C44.5991 38.298 43.7604 23.8843 43.7604 23.8843C43.7604 23.8843 42.9217 38.3581 42.7419 51.1502C37.1705 45.8052 31.0599 40.34 31.0599 40.34C31.0599 40.34 36.2719 46.2256 41.4839 51.6908C39.447 51.6908 37.3502 51.7508 35.2535 51.8109C34.5346 51.8109 33.7558 51.8709 33.0369 51.8709C32.318 51.931 31.5991 51.931 30.8802 51.991C29.4424 52.0511 28.1244 52.1712 26.8065 52.2313C21.7143 52.5316 18 52.8318 18 52.8318C18 52.8318 21.7143 53.0721 26.8065 53.2522C28.0645 53.3123 29.4424 53.3724 30.8802 53.4324C31.5991 53.4324 32.318 53.4925 33.0369 53.4925C33.7558 53.4925 34.4747 53.5525 35.2535 53.5525C37.53 53.6126 39.8064 53.7327 41.9631 53.7327C41.3041 54.3933 40.5853 55.114 39.8664 55.8948C38.9677 56.7956 38.129 57.7565 37.2304 58.6574C35.4931 60.5192 33.8157 62.3809 32.3779 64.0025C29.5023 67.3056 27.4654 69.768 27.4654 69.768C27.4654 69.768 29.7419 67.5459 32.917 64.543C34.4747 63.0416 36.2719 61.2999 38.0691 59.4982C38.9677 58.5973 39.9263 57.6965 40.8249 56.8557C41.4839 56.2551 42.0829 55.5945 42.682 54.9939C42.682 55.054 42.682 55.1741 42.682 55.2341C42.682 68.8071 43.7604 86.7041 43.7604 86.7041C43.7604 86.7041 44.8387 68.8071 44.8387 55.2341C44.8387 55.1741 44.8387 55.1741 44.8387 55.114C50.8295 61.1197 59.0369 68.3266 59.0369 68.3266C59.0369 68.3266 51.5484 59.9787 45.4977 53.9129C56.4608 53.8528 70 52.952 70 52.952C70 52.952 56.9401 51.931 46.0369 51.8109Z" fill="#FF606F"/>
<path d="M47.0853 142.925C47.0162 142.993 46.9472 142.993 46.9472 143.061C46.8781 143.129 46.8781 143.129 46.8091 143.265C46.7401 143.401 46.7401 143.333 46.7401 143.333C46.671 143.333 46.602 143.265 46.533 143.265C46.3258 143.197 46.1187 143.197 45.8426 143.197C45.3593 143.129 44.807 143.129 44.3237 143.129C43.2882 143.129 42.1836 143.197 41.148 143.265C40.1124 143.333 39.0078 143.469 37.9723 143.605L36.3844 143.809L33.9681 144.15L33.4848 142.517L33.3468 141.769L32.9325 140.272C32.6564 139.252 32.3802 138.231 32.035 137.279C31.6899 136.326 31.3447 135.306 30.9304 134.422C30.7233 133.946 30.5162 133.537 30.2401 133.129C30.171 132.993 30.102 132.925 30.0329 132.857L29.9639 132.721L29.8949 132.993C29.8258 133.401 29.8258 133.946 29.8258 134.422C29.8258 135.442 29.8949 136.463 30.0329 137.483C30.171 138.503 30.3091 139.524 30.4472 140.612L30.7233 142.177L30.9304 143.401L31.2756 144.966L29.4806 144.694L28.1689 144.558L26.443 144.354C25.2694 144.218 24.0957 144.15 22.9221 144.014C21.7484 143.946 20.5748 143.877 19.4702 143.877C18.9179 143.877 18.3656 143.946 17.8133 144.014C17.5371 144.082 17.261 144.082 17.0539 144.15L17.261 144.286L17.6062 144.49C17.8133 144.626 18.0894 144.694 18.2965 144.83C19.2631 145.238 20.2986 145.578 21.3342 145.85C23.4053 146.463 25.5455 147.007 27.6857 147.483L30.171 148.027L29.5497 149.388L29.1355 150.408L28.5832 151.769C28.238 152.653 27.8928 153.605 27.6166 154.49C27.3405 155.374 27.0643 156.326 26.8572 157.211C26.7882 157.687 26.7191 158.095 26.6501 158.503C26.6501 158.571 26.6501 158.707 26.6501 158.775C26.6501 158.843 26.6501 158.98 26.6501 158.98L26.7191 158.911C26.9953 158.639 27.3405 158.299 27.6166 157.959C28.1689 157.211 28.7212 156.394 29.2735 155.578C29.8258 154.762 30.3091 153.946 30.7924 153.061L31.4827 151.769L32.1041 150.544L32.7945 149.184L33.761 150.408L34.6585 151.428L35.694 152.585C36.3844 153.333 37.0748 154.082 37.7652 154.762C38.4555 155.442 39.215 156.122 39.9744 156.735C40.3196 157.007 40.7338 157.279 41.079 157.483H41.148C41.148 157.483 41.148 157.347 41.079 157.211C41.079 157.143 41.0099 157.007 41.0099 156.939C40.8719 156.531 40.6647 156.054 40.4576 155.646C39.9744 154.762 39.4221 153.946 38.8698 153.061C38.3175 152.245 37.6961 151.36 37.0748 150.544L36.1083 149.32L35.2108 148.231L34.1752 147.007L35.7631 146.667L37.1438 146.326L38.7317 145.918C39.7673 145.646 40.8028 145.306 41.8384 145.034C42.874 144.694 43.8405 144.354 44.807 143.946C45.2903 143.741 45.7735 143.537 46.1187 143.265C46.3258 143.129 46.4639 142.993 46.533 142.925C46.533 142.925 46.533 142.925 46.602 142.993C46.671 143.061 46.7401 143.061 46.8781 143.061C46.8781 143.061 46.8781 143.061 46.9472 143.061C46.8781 143.061 46.8091 143.129 46.7401 143.129L47.3614 142.721C47.3614 142.721 47.3614 142.789 47.4304 142.857C47.4995 142.925 47.4304 142.993 47.4995 143.061C47.4995 143.129 47.4995 143.265 47.4304 143.333C47.1543 143.741 46.5329 144.218 45.6355 144.694C44.6689 145.17 43.4263 145.714 41.8384 146.258C41.0099 146.531 40.1815 146.803 39.215 147.143C38.4555 147.347 37.6271 147.619 36.7296 147.891C36.8677 148.027 37.0058 148.231 37.1438 148.367C37.42 148.707 37.6961 149.048 37.9723 149.388C38.5246 150.136 39.1459 150.884 39.7673 151.769C40.3886 152.585 41.0099 153.537 41.6313 154.558C41.9074 155.102 42.2526 155.578 42.4597 156.19C42.5978 156.463 42.6668 156.803 42.8049 157.211C42.8049 157.279 42.8049 157.279 42.8049 157.347V157.551C42.8049 157.687 42.8049 157.823 42.8049 157.959C42.8049 158.095 42.8049 158.231 42.7359 158.367C42.6668 158.503 42.6668 158.639 42.5978 158.707C42.5288 158.707 42.4597 158.775 42.3907 158.775C42.3217 158.843 42.2526 158.911 42.1836 158.98C42.1145 159.048 42.0455 159.048 41.9765 159.116L41.7003 159.184C41.3551 159.252 40.9409 159.184 40.5957 158.98C40.3886 158.911 40.3196 158.843 40.1815 158.775C40.0434 158.707 39.9744 158.639 39.8363 158.571C39.6292 158.435 39.4221 158.299 39.215 158.163C38.3865 157.551 37.6961 156.871 36.9367 156.19C36.1773 155.442 35.4179 154.694 34.6585 153.877C34.3133 153.469 33.8991 153.061 33.5539 152.653L33.2777 152.381L33.2087 152.313V152.381C33.2087 152.381 33.2087 152.381 33.1396 152.517C32.9325 152.925 32.7254 153.333 32.5183 153.741C32.035 154.558 31.5518 155.442 31.0685 156.258C30.5162 157.143 29.9639 157.959 29.2735 158.843C28.9283 159.252 28.5832 159.728 28.0999 160.136C27.9618 160.272 27.4095 160.68 26.9263 160.816C26.6501 160.884 26.443 160.884 26.1668 160.816C25.8907 160.816 25.7526 160.612 25.5455 160.476C25.4074 160.34 25.2694 160.136 25.2003 160C25.1313 159.796 24.9932 159.592 24.9932 159.388C24.9242 159.116 24.9242 159.048 24.9242 158.843C24.9242 158.707 24.9242 158.571 24.9242 158.435C24.9242 157.891 24.9932 157.415 25.1313 156.871C25.3384 155.918 25.6145 154.966 25.8907 154.014C26.1668 153.061 26.512 152.109 26.9263 151.156C27.1334 150.68 27.3405 150.204 27.4786 149.728L27.6166 149.388C27.6857 149.32 27.6166 149.32 27.6166 149.32C26.9953 149.184 26.374 149.048 25.7526 148.911C24.9932 148.707 24.2338 148.503 23.4744 148.367C22.0246 147.959 20.6438 147.619 19.4012 147.211C18.1585 146.803 17.1229 146.394 16.2945 145.918C16.2254 145.85 16.0183 145.714 15.8802 145.646C15.7422 145.51 15.535 145.442 15.466 145.306C15.397 145.17 15.2589 145.034 15.1899 144.966C15.1208 144.83 15.0518 144.694 15.0518 144.558C14.9827 144.286 14.9827 144.082 15.0518 143.877C15.0518 143.809 15.1208 143.809 15.1208 143.741V143.673C15.1899 143.605 15.1899 143.537 15.2589 143.469C15.2589 143.129 15.397 142.993 15.535 142.857C15.7422 142.789 15.8802 142.653 16.0873 142.585L16.3635 142.517C16.5016 142.449 16.5706 142.449 16.6396 142.449L16.9848 142.381C17.4681 142.313 17.8823 142.245 18.2965 142.245C19.125 142.177 19.9535 142.177 20.7819 142.177C22.3698 142.245 23.8196 142.313 25.0622 142.449C26.3049 142.585 27.4095 142.721 28.307 142.789C28.5141 142.789 28.7212 142.857 28.9283 142.857H28.9974H29.0664V142.789C28.9974 142.449 28.9283 142.109 28.8593 141.769C28.7212 141.02 28.6522 140.34 28.5141 139.592C28.307 138.163 28.1689 136.803 28.0999 135.442C28.0999 134.762 28.0309 134.082 28.0999 133.469C28.0999 133.129 28.1689 132.789 28.238 132.449C28.238 132.313 28.376 132.041 28.4451 131.769C28.5832 131.565 28.7212 131.292 28.9283 131.156C28.9974 131.088 29.1355 131.02 29.2735 130.952C29.4116 130.952 29.5497 130.884 29.6878 130.884C29.8258 130.884 29.9639 130.884 30.0329 130.884L30.3781 130.952C30.5853 131.088 30.8614 131.224 30.9995 131.36C31.2066 131.565 31.2756 131.633 31.4137 131.769C31.8279 132.313 32.1041 132.789 32.3112 133.333C33.2087 135.374 33.761 137.211 34.2442 138.775C34.4514 139.592 34.6585 140.272 34.7965 140.952C34.8656 141.292 34.9346 141.633 35.0037 141.905C35.0037 141.973 35.0727 142.109 35.0727 142.177C36.1083 142.041 37.0058 141.973 37.8342 141.837C38.8698 141.701 39.7673 141.633 40.6648 141.565C42.3217 141.428 43.7024 141.428 44.738 141.428C45.7735 141.428 46.5329 141.565 47.0162 141.701C47.1543 141.769 47.2924 141.769 47.3614 141.837C47.4995 141.905 47.5685 141.973 47.6376 141.973C47.7756 142.109 47.8447 142.177 47.8447 142.177L47.0853 142.925Z" fill="#C3C3C3"/>
<path d="M216.085 37.9251C216.016 37.9931 215.947 37.9931 215.947 38.0611C215.878 38.1292 215.878 38.1292 215.809 38.2652C215.74 38.4013 215.74 38.3333 215.74 38.3333C215.671 38.3333 215.602 38.2652 215.533 38.2652C215.326 38.1972 215.119 38.1972 214.843 38.1972C214.359 38.1292 213.807 38.1292 213.324 38.1292C212.288 38.1292 211.184 38.1972 210.148 38.2652C209.112 38.3333 208.008 38.4693 206.972 38.6054L205.384 38.8094L202.968 39.1496L202.485 37.5169L202.347 36.7686L201.933 35.272C201.656 34.2516 201.38 33.2312 201.035 32.2788C200.69 31.3265 200.345 30.306 199.93 29.4217C199.723 28.9455 199.516 28.5373 199.24 28.1292C199.171 27.9931 199.102 27.9251 199.033 27.8571L198.964 27.721L198.895 27.9931C198.826 28.4013 198.826 28.9455 198.826 29.4217C198.826 30.4421 198.895 31.4625 199.033 32.4829C199.171 33.5033 199.309 34.5237 199.447 35.6122L199.723 37.1768L199.93 38.4013L200.276 39.9659L198.481 39.6938L197.169 39.5577L195.443 39.3537C194.269 39.2176 193.096 39.1496 191.922 39.0135C190.748 38.9455 189.575 38.8775 188.47 38.8775C187.918 38.8775 187.366 38.9455 186.813 39.0135C186.537 39.0816 186.261 39.0816 186.054 39.1496L186.261 39.2856L186.606 39.4897C186.813 39.6258 187.089 39.6938 187.297 39.8299C188.263 40.238 189.299 40.5782 190.334 40.8503C192.405 41.4625 194.546 42.0067 196.686 42.4829L199.171 43.0271L198.55 44.3877L198.135 45.4081L197.583 46.7686C197.238 47.653 196.893 48.6054 196.617 49.4897C196.34 50.3741 196.064 51.3265 195.857 52.2108C195.788 52.687 195.719 53.0952 195.65 53.5033C195.65 53.5714 195.65 53.7074 195.65 53.7754C195.65 53.8435 195.65 53.9795 195.65 53.9795L195.719 53.9115C195.995 53.6394 196.34 53.2992 196.617 52.9591C197.169 52.2108 197.721 51.3945 198.274 50.5782C198.826 49.7618 199.309 48.9455 199.792 48.0611L200.483 46.7686L201.104 45.5441L201.794 44.1836L202.761 45.4081L203.658 46.4285L204.694 47.585C205.384 48.3333 206.075 49.0816 206.765 49.7618C207.456 50.4421 208.215 51.1224 208.974 51.7346C209.32 52.0067 209.734 52.2788 210.079 52.4829H210.148C210.148 52.4829 210.148 52.3469 210.079 52.2108C210.079 52.1428 210.01 52.0067 210.01 51.9387C209.872 51.5305 209.665 51.0543 209.458 50.6462C208.974 49.7618 208.422 48.9455 207.87 48.0611C207.317 47.2448 206.696 46.3605 206.075 45.5441L205.108 44.3197L204.211 43.2312L203.175 42.0067L204.763 41.6666L206.144 41.3265L207.732 40.9183C208.767 40.6462 209.803 40.306 210.838 40.0339C211.874 39.6938 212.84 39.3537 213.807 38.9455C214.29 38.7414 214.774 38.5373 215.119 38.2652C215.326 38.1292 215.464 37.9931 215.533 37.9251C215.533 37.9251 215.533 37.9251 215.602 37.9931C215.671 38.0611 215.74 38.0611 215.878 38.0611C215.878 38.0611 215.878 38.0611 215.947 38.0611C215.878 38.0611 215.809 38.1292 215.74 38.1292L216.361 37.721C216.361 37.721 216.361 37.789 216.43 37.8571C216.499 37.9251 216.43 37.9931 216.499 38.0611C216.499 38.1292 216.499 38.2652 216.43 38.3333C216.154 38.7414 215.533 39.2176 214.635 39.6938C213.669 40.17 212.426 40.7142 210.838 41.2584C210.01 41.5305 209.181 41.8026 208.215 42.1428C207.456 42.3469 206.627 42.619 205.73 42.8911C205.868 43.0271 206.006 43.2312 206.144 43.3673C206.42 43.7074 206.696 44.0475 206.972 44.3877C207.525 45.136 208.146 45.8843 208.767 46.7686C209.389 47.585 210.01 48.5373 210.631 49.5577C210.907 50.102 211.253 50.5782 211.46 51.1904C211.598 51.4625 211.667 51.8026 211.805 52.2108C211.805 52.2788 211.805 52.2788 211.805 52.3469V52.5509C211.805 52.687 211.805 52.8231 211.805 52.9591C211.805 53.0952 211.805 53.2312 211.736 53.3673C211.667 53.5033 211.667 53.6394 211.598 53.7074C211.529 53.7074 211.46 53.7754 211.391 53.7754C211.322 53.8435 211.253 53.9115 211.184 53.9795C211.115 54.0475 211.046 54.0475 210.976 54.1156L210.7 54.1836C210.355 54.2516 209.941 54.1836 209.596 53.9795C209.389 53.9115 209.32 53.8435 209.181 53.7754C209.043 53.7074 208.974 53.6394 208.836 53.5714C208.629 53.4353 208.422 53.2992 208.215 53.1632C207.387 52.5509 206.696 51.8707 205.937 51.1904C205.177 50.4421 204.418 49.6938 203.658 48.8775C203.313 48.4693 202.899 48.0611 202.554 47.653L202.278 47.3809L202.209 47.3128V47.3809C202.209 47.3809 202.209 47.3809 202.14 47.5169C201.933 47.9251 201.725 48.3333 201.518 48.7414C201.035 49.5577 200.552 50.4421 200.069 51.2584C199.516 52.1428 198.964 52.9591 198.274 53.8435C197.928 54.2516 197.583 54.7278 197.1 55.136C196.962 55.272 196.41 55.6802 195.926 55.8162C195.65 55.8843 195.443 55.8843 195.167 55.8162C194.891 55.8162 194.753 55.6122 194.546 55.4761C194.407 55.3401 194.269 55.136 194.2 54.9999C194.131 54.7958 193.993 54.5918 193.993 54.3877C193.924 54.1156 193.924 54.0475 193.924 53.8435C193.924 53.7074 193.924 53.5714 193.924 53.4353C193.924 52.8911 193.993 52.4149 194.131 51.8707C194.338 50.9183 194.615 49.9659 194.891 49.0135C195.167 48.0611 195.512 47.1088 195.926 46.1564C196.133 45.6802 196.34 45.204 196.479 44.7278L196.617 44.3877C196.686 44.3197 196.617 44.3197 196.617 44.3197C195.995 44.1836 195.374 44.0475 194.753 43.9115C193.993 43.7074 193.234 43.5033 192.474 43.3673C191.025 42.9591 189.644 42.619 188.401 42.2108C187.158 41.8026 186.123 41.3945 185.294 40.9183C185.225 40.8503 185.018 40.7142 184.88 40.6462C184.742 40.5101 184.535 40.4421 184.466 40.306C184.397 40.17 184.259 40.0339 184.19 39.9659C184.121 39.8299 184.052 39.6938 184.052 39.5577C183.983 39.2856 183.983 39.0816 184.052 38.8775C184.052 38.8094 184.121 38.8094 184.121 38.7414V38.6734C184.19 38.6054 184.19 38.5373 184.259 38.4693C184.259 38.1292 184.397 37.9931 184.535 37.8571C184.742 37.789 184.88 37.653 185.087 37.585L185.363 37.5169C185.502 37.4489 185.571 37.4489 185.64 37.4489L185.985 37.3809C186.468 37.3128 186.882 37.2448 187.297 37.2448C188.125 37.1768 188.953 37.1768 189.782 37.1768C191.37 37.2448 192.82 37.3128 194.062 37.4489C195.305 37.585 196.41 37.721 197.307 37.789C197.514 37.789 197.721 37.8571 197.928 37.8571H197.997H198.066V37.789C197.997 37.4489 197.928 37.1088 197.859 36.7686C197.721 36.0203 197.652 35.3401 197.514 34.5918C197.307 33.1632 197.169 31.8026 197.1 30.4421C197.1 29.7618 197.031 29.0816 197.1 28.4693C197.1 28.1292 197.169 27.789 197.238 27.4489C197.238 27.3128 197.376 27.0407 197.445 26.7686C197.583 26.5645 197.721 26.2924 197.928 26.1564C197.997 26.0884 198.135 26.0203 198.274 25.9523C198.412 25.9523 198.55 25.8843 198.688 25.8843C198.826 25.8843 198.964 25.8843 199.033 25.8843L199.378 25.9523C199.585 26.0884 199.861 26.2244 199.999 26.3605C200.207 26.5645 200.276 26.6326 200.414 26.7686C200.828 27.3128 201.104 27.789 201.311 28.3333C202.209 30.3741 202.761 32.2108 203.244 33.7754C203.451 34.5918 203.658 35.272 203.797 35.9523C203.866 36.2924 203.935 36.6326 204.004 36.9047C204.004 36.9727 204.073 37.1088 204.073 37.1768C205.108 37.0407 206.006 36.9727 206.834 36.8367C207.87 36.7006 208.767 36.6326 209.665 36.5645C211.322 36.4285 212.702 36.4285 213.738 36.4285C214.774 36.4285 215.533 36.5645 216.016 36.7006C216.154 36.7686 216.292 36.7686 216.361 36.8367C216.499 36.9047 216.569 36.9727 216.638 36.9727C216.776 37.1088 216.845 37.1768 216.845 37.1768L216.085 37.9251Z" fill="#C3C3C3"/>
<path d="M142.085 259.925C142.016 259.993 141.947 259.993 141.947 260.061C141.878 260.129 141.878 260.129 141.809 260.265C141.74 260.401 141.74 260.333 141.74 260.333C141.671 260.333 141.602 260.265 141.533 260.265C141.326 260.197 141.119 260.197 140.843 260.197C140.359 260.129 139.807 260.129 139.324 260.129C138.288 260.129 137.184 260.197 136.148 260.265C135.112 260.333 134.008 260.469 132.972 260.605L131.384 260.809L128.968 261.15L128.485 259.517L128.347 258.769L127.933 257.272C127.656 256.252 127.38 255.231 127.035 254.279C126.69 253.326 126.345 252.306 125.93 251.422C125.723 250.946 125.516 250.537 125.24 250.129C125.171 249.993 125.102 249.925 125.033 249.857L124.964 249.721L124.895 249.993C124.826 250.401 124.826 250.946 124.826 251.422C124.826 252.442 124.895 253.463 125.033 254.483C125.171 255.503 125.309 256.524 125.447 257.612L125.723 259.177L125.93 260.401L126.276 261.966L124.481 261.694L123.169 261.558L121.443 261.354C120.269 261.218 119.096 261.15 117.922 261.014C116.748 260.946 115.575 260.877 114.47 260.877C113.918 260.877 113.366 260.946 112.813 261.014C112.537 261.082 112.261 261.082 112.054 261.15L112.261 261.286L112.606 261.49C112.813 261.626 113.089 261.694 113.297 261.83C114.263 262.238 115.299 262.578 116.334 262.85C118.405 263.463 120.546 264.007 122.686 264.483L125.171 265.027L124.55 266.388L124.135 267.408L123.583 268.769C123.238 269.653 122.893 270.605 122.617 271.49C122.34 272.374 122.064 273.326 121.857 274.211C121.788 274.687 121.719 275.095 121.65 275.503C121.65 275.571 121.65 275.707 121.65 275.775C121.65 275.843 121.65 275.98 121.65 275.98L121.719 275.911C121.995 275.639 122.34 275.299 122.617 274.959C123.169 274.211 123.721 273.394 124.274 272.578C124.826 271.762 125.309 270.946 125.792 270.061L126.483 268.769L127.104 267.544L127.794 266.184L128.761 267.408L129.658 268.428L130.694 269.585C131.384 270.333 132.075 271.082 132.765 271.762C133.456 272.442 134.215 273.122 134.974 273.735C135.32 274.007 135.734 274.279 136.079 274.483H136.148C136.148 274.483 136.148 274.347 136.079 274.211C136.079 274.143 136.01 274.007 136.01 273.939C135.872 273.531 135.665 273.054 135.458 272.646C134.974 271.762 134.422 270.946 133.87 270.061C133.317 269.245 132.696 268.36 132.075 267.544L131.108 266.32L130.211 265.231L129.175 264.007L130.763 263.667L132.144 263.326L133.732 262.918C134.767 262.646 135.803 262.306 136.838 262.034C137.874 261.694 138.84 261.354 139.807 260.946C140.29 260.741 140.774 260.537 141.119 260.265C141.326 260.129 141.464 259.993 141.533 259.925C141.533 259.925 141.533 259.925 141.602 259.993C141.671 260.061 141.74 260.061 141.878 260.061C141.878 260.061 141.878 260.061 141.947 260.061C141.878 260.061 141.809 260.129 141.74 260.129L142.361 259.721C142.361 259.721 142.361 259.789 142.43 259.857C142.499 259.925 142.43 259.993 142.499 260.061C142.499 260.129 142.499 260.265 142.43 260.333C142.154 260.741 141.533 261.218 140.635 261.694C139.669 262.17 138.426 262.714 136.838 263.258C136.01 263.531 135.181 263.803 134.215 264.143C133.456 264.347 132.627 264.619 131.73 264.891C131.868 265.027 132.006 265.231 132.144 265.367C132.42 265.707 132.696 266.048 132.972 266.388C133.525 267.136 134.146 267.884 134.767 268.769C135.389 269.585 136.01 270.537 136.631 271.558C136.907 272.102 137.253 272.578 137.46 273.19C137.598 273.463 137.667 273.803 137.805 274.211C137.805 274.279 137.805 274.279 137.805 274.347V274.551C137.805 274.687 137.805 274.823 137.805 274.959C137.805 275.095 137.805 275.231 137.736 275.367C137.667 275.503 137.667 275.639 137.598 275.707C137.529 275.707 137.46 275.775 137.391 275.775C137.322 275.843 137.253 275.911 137.184 275.98C137.115 276.048 137.046 276.048 136.976 276.116L136.7 276.184C136.355 276.252 135.941 276.184 135.596 275.98C135.389 275.911 135.32 275.843 135.181 275.775C135.043 275.707 134.974 275.639 134.836 275.571C134.629 275.435 134.422 275.299 134.215 275.163C133.387 274.551 132.696 273.871 131.937 273.19C131.177 272.442 130.418 271.694 129.658 270.877C129.313 270.469 128.899 270.061 128.554 269.653L128.278 269.381L128.209 269.313V269.381C128.209 269.381 128.209 269.381 128.14 269.517C127.933 269.925 127.725 270.333 127.518 270.741C127.035 271.558 126.552 272.442 126.069 273.258C125.516 274.143 124.964 274.959 124.274 275.843C123.928 276.252 123.583 276.728 123.1 277.136C122.962 277.272 122.41 277.68 121.926 277.816C121.65 277.884 121.443 277.884 121.167 277.816C120.891 277.816 120.753 277.612 120.546 277.476C120.407 277.34 120.269 277.136 120.2 277C120.131 276.796 119.993 276.592 119.993 276.388C119.924 276.116 119.924 276.048 119.924 275.843C119.924 275.707 119.924 275.571 119.924 275.435C119.924 274.891 119.993 274.415 120.131 273.871C120.338 272.918 120.615 271.966 120.891 271.014C121.167 270.061 121.512 269.109 121.926 268.156C122.133 267.68 122.34 267.204 122.479 266.728L122.617 266.388C122.686 266.32 122.617 266.32 122.617 266.32C121.995 266.184 121.374 266.048 120.753 265.911C119.993 265.707 119.234 265.503 118.474 265.367C117.025 264.959 115.644 264.619 114.401 264.211C113.158 263.803 112.123 263.394 111.294 262.918C111.225 262.85 111.018 262.714 110.88 262.646C110.742 262.51 110.535 262.442 110.466 262.306C110.397 262.17 110.259 262.034 110.19 261.966C110.121 261.83 110.052 261.694 110.052 261.558C109.983 261.286 109.983 261.082 110.052 260.877C110.052 260.809 110.121 260.809 110.121 260.741V260.673C110.19 260.605 110.19 260.537 110.259 260.469C110.259 260.129 110.397 259.993 110.535 259.857C110.742 259.789 110.88 259.653 111.087 259.585L111.363 259.517C111.502 259.449 111.571 259.449 111.64 259.449L111.985 259.381C112.468 259.313 112.882 259.245 113.297 259.245C114.125 259.177 114.953 259.177 115.782 259.177C117.37 259.245 118.82 259.313 120.062 259.449C121.305 259.585 122.41 259.721 123.307 259.789C123.514 259.789 123.721 259.857 123.928 259.857H123.997H124.066V259.789C123.997 259.449 123.928 259.109 123.859 258.769C123.721 258.02 123.652 257.34 123.514 256.592C123.307 255.163 123.169 253.803 123.1 252.442C123.1 251.762 123.031 251.082 123.1 250.469C123.1 250.129 123.169 249.789 123.238 249.449C123.238 249.313 123.376 249.041 123.445 248.769C123.583 248.565 123.721 248.292 123.928 248.156C123.997 248.088 124.135 248.02 124.274 247.952C124.412 247.952 124.55 247.884 124.688 247.884C124.826 247.884 124.964 247.884 125.033 247.884L125.378 247.952C125.585 248.088 125.861 248.224 125.999 248.36C126.207 248.565 126.276 248.633 126.414 248.769C126.828 249.313 127.104 249.789 127.311 250.333C128.209 252.374 128.761 254.211 129.244 255.775C129.451 256.592 129.658 257.272 129.797 257.952C129.866 258.292 129.935 258.633 130.004 258.905C130.004 258.973 130.073 259.109 130.073 259.177C131.108 259.041 132.006 258.973 132.834 258.837C133.87 258.701 134.767 258.633 135.665 258.565C137.322 258.428 138.702 258.428 139.738 258.428C140.774 258.428 141.533 258.565 142.016 258.701C142.154 258.769 142.292 258.769 142.361 258.837C142.499 258.905 142.569 258.973 142.638 258.973C142.776 259.109 142.845 259.177 142.845 259.177L142.085 259.925Z" fill="#C3C3C3"/>
<g clip-path="url(#clip1)">
<path d="M31.6 196.079C31.7 196.079 30.5 195.779 28.2 195.579C26 195.379 22.7 195.279 19.1 195.979C17.3 196.379 15.4 196.979 13.7 197.879C12.9 198.379 12 198.879 11.3 199.579C10.5 200.179 9.9 200.979 9.3 201.879C8.1 203.579 7.3 205.679 6.9 208.079C6.5 210.379 6.5 212.879 6.9 215.279C7.6 220.279 9.6 225.279 11.8 229.679C14.1 234.179 16.7 238.079 19 241.479C21.4 244.779 23.5 247.479 25 249.279C25.8 250.179 26.4 250.879 26.8 251.379C27.2 251.779 27.4 252.079 27.4 252.079L24.2 255.079C24.2 255.079 24.1 254.979 23.8 254.779C23.5 254.579 23.1 254.279 22.6 253.779C21.5 252.779 19.8 251.279 17.5 248.779C15.2 246.279 12.4 242.879 9.2 238.079C7.6 235.679 6 232.879 4.5 229.579C3 226.279 1.5 222.479 0.6 218.079C0.2 215.679 0 213.479 0 211.279C0.1 209.079 0.4 206.979 0.9 205.079C1.5 203.079 2.2 201.279 3.2 199.679C4.2 198.079 5.4 196.579 6.7 195.479C8 194.279 9.4 193.479 10.8 192.779C12.2 192.079 13.5 191.579 14.8 191.279C17.4 190.579 19.6 190.379 21.6 190.279C25.5 190.179 28.3 190.779 30 191.179C30.9 191.379 31.5 191.579 31.9 191.679C32.3 191.779 32.5 191.879 32.5 191.879L31.6 196.079Z" fill="#FF606F"/>
<path d="M6.7999 208.079C7.1999 205.779 8.0999 203.679 9.1999 201.879C9.7999 201.079 10.4999 200.279 11.1999 199.579C11.8999 198.879 12.7999 198.379 13.5999 197.879C13.9999 195.679 14.1999 193.379 14.0999 191.279C12.9999 191.579 11.7999 192.079 10.6999 192.679C9.2999 193.379 7.8999 194.279 6.5999 195.379C5.2999 196.579 4.0999 197.979 3.0999 199.579C2.0999 201.179 1.3999 203.079 0.799902 204.979C0.299902 206.879 -9.76548e-05 209.079 -0.100098 211.179C-0.100098 211.979 -0.100098 212.879 -9.76548e-05 213.679C2.2999 212.879 4.4999 211.979 6.3999 210.779C6.4999 209.979 6.5999 208.979 6.7999 208.079Z" fill="#2D3962"/>
<path d="M31.9 178.579L19.7 260.479C19.7 260.479 34 269.579 58.9 274.179C83.7999 278.779 97.7 274.179 97.7 274.179L112.5 195.079L31.9 178.579Z" fill="#FF606F"/>
<path d="M97.9 257.979L107.6 200.579L96.5 201.679L85.5 265.179C90 263.479 94.2 260.979 97.9 257.979Z" fill="#FFFCF2"/>
<path d="M110.8 203.679L112.4 195.079L31.8999 178.579L29.8999 191.579C56.2999 200.479 83.4999 204.979 110.8 203.679Z" fill="#C24751"/>
<path d="M70.3999 207.479L60.8999 220.579L64.3999 220.279L52.1999 236.179L56.7999 235.479L47.0999 248.179L79.7999 254.279L75.0999 239.379L79.0999 242.479L72.6999 221.879L75.4999 223.279L70.3999 207.479Z" fill="#2D3962"/>
<path d="M62.3758 239.477L60.9768 257.724L64.5664 257.999L65.9654 239.752L62.3758 239.477Z" fill="#2D3962"/>
<path d="M22.1999 176.779C24.4999 164.279 126.1 184.679 124.1 195.579C122.1 206.479 19.8999 189.379 22.1999 176.779Z" fill="#2D3962"/>
<path d="M114.8 192.579C114.8 192.579 95.4999 192.479 72.4999 188.279C49.4999 184.079 31.3999 177.179 31.3999 177.179C31.3999 177.179 50.6999 177.279 73.6999 181.479C96.7999 185.779 114.8 192.579 114.8 192.579Z" fill="#B3C8D3"/>
<path d="M25.5999 263.679C25.5999 263.679 29.6999 261.379 36.0999 263.079C42.3999 264.779 48.1999 271.779 48.1999 271.779C48.1999 271.779 33.5999 268.479 25.5999 263.679Z" fill="#2D3962"/>
<path d="M49.2998 271.979C49.2998 271.979 53.7998 267.379 59.1998 274.179L49.2998 271.979Z" fill="#2D3962"/>
<path d="M117.2 194.679C117.3 194.979 115.2 195.679 111.7 196.079C108.2 196.479 103.4 196.579 98 196.179C87.4 195.279 79 193.079 79.1 192.479C79.2 191.779 87.7 192.879 98.2 193.679C103.4 194.079 108.1 194.279 111.6 194.279C115 194.479 117.1 194.379 117.2 194.679Z" fill="#FFFCF2"/>
<path d="M120.5 194.079C120.6 194.379 120 194.679 119.3 194.879C118.6 195.079 118 194.879 117.9 194.679C117.9 194.379 118.4 194.079 119.1 193.979C119.8 193.679 120.4 193.779 120.5 194.079Z" fill="#FFFCF2"/>
</g>
<g clip-path="url(#clip2)">
<path d="M164.31 75.0085C164.215 74.9941 165.406 74.8708 167.635 75.0038C169.769 75.1225 172.939 75.4976 176.278 76.7038C177.94 77.3562 179.669 78.2199 181.161 79.3504C181.852 79.9578 182.639 80.5795 183.205 81.3695C183.881 82.0754 184.337 82.9496 184.777 83.9223C185.673 85.7692 186.128 87.9527 186.156 90.3743C186.198 92.6975 185.829 95.1602 185.091 97.467C183.683 102.292 181.031 106.931 178.277 110.949C175.412 115.052 172.349 118.521 169.647 121.54C166.864 124.447 164.457 126.805 162.757 128.363C161.858 129.135 161.181 129.738 160.725 130.173C160.283 130.51 160.048 130.777 160.048 130.777L162.664 134.191C162.664 134.191 162.775 134.107 163.091 133.953C163.407 133.799 163.834 133.561 164.386 133.14C165.586 132.313 167.433 131.079 170.002 128.947C172.571 126.814 175.752 123.867 179.521 119.597C181.406 117.463 183.35 114.934 185.272 111.898C187.194 108.863 189.191 105.335 190.702 101.129C191.439 98.8226 191.955 96.6841 192.281 94.5169C192.51 92.3353 192.534 90.2235 192.337 88.2801C192.059 86.2238 191.655 84.3501 190.936 82.6305C190.216 80.9108 189.29 79.2609 188.21 77.9908C187.144 76.6221 185.923 75.6331 184.688 74.7426C183.453 73.8521 182.284 73.173 181.085 72.6909C178.702 71.6282 176.628 71.1155 174.73 70.73C171.016 70.0718 168.249 70.261 166.565 70.4111C165.674 70.4789 165.071 70.5899 164.674 70.631C164.277 70.6721 164.071 70.7419 164.071 70.7419L164.31 75.0085Z" fill="#FF606F"/>
<path d="M186.251 90.3888C186.209 88.0657 185.659 85.8678 184.873 83.9368C184.417 83.0626 183.866 82.1741 183.3 81.384C182.734 80.594 181.948 79.9723 181.257 79.3649C181.199 77.1403 181.348 74.8459 181.754 72.7915C182.762 73.2449 183.835 73.9097 184.798 74.6586C186.034 75.5491 187.239 76.6366 188.32 77.9067C189.386 79.2754 190.326 80.8268 191.046 82.5465C191.766 84.2661 192.154 86.2383 192.447 88.1961C192.644 90.1395 192.606 92.3498 192.391 94.4328C192.273 95.2209 192.14 96.1075 191.926 96.8812C189.845 95.7631 187.874 94.5608 186.235 93.106C186.257 92.3036 186.309 91.3041 186.251 90.3888Z" fill="#2D3962"/>
<path d="M166.611 57.7262L166.169 140.157C166.169 140.157 151.149 147.069 126.658 148.027C102.168 148.985 89.5558 142.459 89.5558 142.459L87.0972 62.4136L166.611 57.7262Z" fill="#FF606F"/>
<path d="M160.039 127.683L161.426 69.8797L151.806 72.1948L150.035 136.171C153.779 133.993 157.16 131.057 160.039 127.683Z" fill="#FFFCF2"/>
<path d="M87.4513 71.1293L87.1927 62.4279L166.61 57.7262L166.601 70.8195C140.04 75.7982 113.365 76.3278 87.4513 71.1293Z" fill="#C24751"/>
<path d="M117.495 81.3633L125.357 97.0556L121.724 96.1781L131.97 115.33L127.246 113.846L135.382 129.136L100 130.584L107.366 115.183L102.655 117.91L112.735 96.6016L109.563 97.6765L117.495 81.3633Z" fill="#2D3962"/>
<path d="M120.732 117.297L119.236 137.287L115.416 137.019L116.912 117.029L120.732 117.297Z" fill="#2D3962"/>
<path d="M176.152 57.345C175.801 44.7012 75.6296 50.2167 75.9307 61.2413C76.2317 72.2659 176.489 70.0873 176.152 57.345Z" fill="#2D3962"/>
<path d="M85.2674 59.6206C85.2674 59.6206 103.738 62.2918 126.353 61.4551C148.967 60.6184 167.296 56.4187 167.296 56.4187C167.296 56.4187 148.825 53.7475 126.21 54.5842C103.485 55.5051 85.2674 59.6206 85.2674 59.6206Z" fill="#B3C8D3"/>
<path d="M169.869 58.3462C170.019 58.6236 168.075 59.6693 164.705 60.6596C161.336 61.65 156.638 62.568 151.265 63.0978C140.699 64.0251 132.073 63.3008 132.068 62.6948C132.047 61.9908 140.584 61.6185 151.035 60.6101C156.211 60.1145 160.862 59.508 164.3 58.9102C167.674 58.5257 169.72 58.0689 169.869 58.3462Z" fill="#FFFCF2"/>
<path d="M173.008 57.1939C173.158 57.4712 172.62 57.8681 171.966 58.184C171.313 58.4998 170.689 58.406 170.557 58.2268C170.506 57.9324 170.946 57.5526 171.616 57.3349C172.253 56.9209 172.859 56.9165 173.008 57.1939Z" fill="#FFFCF2"/>
</g>
<path d="M215.298 72.3462V86.7407L244.839 86.3647L244.517 99.4702L232.056 104.358V107.527L269.17 107.903L269.224 103.767L259.395 99.7925L259.126 86.1499L266.538 86.0425L269.17 91.6284L272.607 91.897L273.091 68.8013H269.331L266.108 74.8706L258.965 74.7632L258.105 27.7124L264.551 25.0806L264.443 21.5894H239.414V24.3823L246.128 28.7866L215.298 72.3462ZM225.396 74.3872L245.752 44.2017L245.107 74.6021L225.396 74.3872ZM248.813 37.1655C249.386 40.3166 249.422 43.772 248.921 47.5317C248.348 45.7772 248.312 42.3218 248.813 37.1655ZM249.512 54.2456V60.2075C249.44 67.1541 249.082 72.0776 248.438 74.978C248.187 69.5353 248.312 61.3354 248.813 50.3784L249.189 49.4653L249.512 54.2456ZM253.057 50.3784C253.092 47.2274 253.236 42.9842 253.486 37.6489C253.773 32.2778 254.095 29.5923 254.453 29.5923C254.453 39.7616 254.328 48.23 254.077 54.9976L254.023 65.7935L253.755 65.8472C253.289 61.4071 253.075 57.1102 253.11 52.9565C253.11 52.3478 253.092 51.4884 253.057 50.3784ZM252.896 23.8989C249.744 24.4718 246.289 24.5256 242.529 24.0601C244.32 23.4871 247.775 23.4334 252.896 23.8989Z" fill="#2D3962"/>
<g clip-path="url(#clip3)">
<path d="M47 119.784C47 120.484 51.2 121.184 56.6 121.184C56.7 127.584 57.3 132.484 58 132.484C58.7 132.484 59.3 127.584 59.4 121.184C64.5 121.084 68.3 120.484 68.3 119.784C68.3 119.084 64.4 118.484 59.4 118.384C59.4 111.384 58.8 105.884 58 105.884C57.2 105.884 56.6 111.384 56.6 118.284C51.2 118.384 47 118.984 47 119.784Z" fill="#B3C8D3"/>
</g>
<path d="M131 181.219C131 182.193 136.888 183.166 144.458 183.166C144.598 192.068 145.439 198.884 146.421 198.884C147.402 198.884 148.243 192.068 148.383 183.166C155.533 183.027 160.86 182.193 160.86 181.219C160.86 180.245 155.393 179.411 148.383 179.271C148.383 169.535 147.542 161.884 146.421 161.884C145.299 161.884 144.458 169.535 144.458 179.132C136.888 179.271 131 180.106 131 181.219Z" fill="#B3C8D3"/>
<defs>
<clipPath id="clip0">
<rect width="133.7" height="174.3" fill="white" transform="translate(179 125.879)"/>
</clipPath>
<clipPath id="clip1">
<rect width="124.1" height="103.4" fill="white" transform="translate(0 172.879)"/>
</clipPath>
<clipPath id="clip2">
<rect width="120" height="103" fill="white" transform="matrix(-0.988926 -0.148412 -0.148412 0.988926 197.958 56.689)"/>
</clipPath>
<clipPath id="clip3">
<rect width="21.4" height="26.6" fill="white" transform="translate(47 105.884)"/>
</clipPath>
</defs>
</svg>
