<svg width="307" height="300" viewBox="0 0 307 300" fill="none" xmlns="http://www.w3.org/2000/svg">
<path d="M52.3487 68.5937C50.6839 68.5325 48.3408 68.41 45.6895 68.2876C44.333 68.2263 42.9148 68.1651 41.3733 68.1039C39.8935 68.0427 38.352 67.9814 36.7489 67.9202C33.6659 67.7978 30.5213 67.7365 27.6233 67.7978C34.6525 60.7569 42.6065 51.6345 42.6065 51.6345C42.6065 51.6345 33.4809 59.4712 26.3901 66.3284C26.3901 52.1855 25.1569 33.8794 25.1569 33.8794C25.1569 33.8794 23.9854 52.1855 23.9238 66.3284C17.6345 60.2059 9.31054 53.1651 9.31054 53.1651C9.31054 53.1651 16.5247 61.6141 22.8139 67.9202C18.1895 68.0427 13.38 68.2876 9.3722 68.5325C3.94619 68.8998 0 69.2672 0 69.2672C0 69.2672 3.88453 69.6345 9.31054 70.0631C13.1334 70.308 17.6345 70.6141 22.074 70.7365C15.7231 77.2876 9.31054 84.6957 9.31054 84.6957C9.31054 84.6957 17.2029 77.961 23.9854 71.4712C24.1704 84.8182 25.1569 99.8794 25.1569 99.8794C25.1569 99.8794 26.1435 84.8182 26.3285 71.41C32.2478 76.9814 38.8453 82.5529 38.8453 82.5529C38.8453 82.5529 33.6043 76.4304 28.2399 70.7365C31.0146 70.6753 33.9126 70.5529 36.8105 70.4304C37.6121 70.3692 38.352 70.308 39.1536 70.308C39.8935 70.2467 40.6951 70.1855 41.435 70.1243C42.9148 70.0018 44.3946 69.8794 45.6895 69.7569C48.4025 69.512 50.6839 69.2672 52.3487 69.0835C54.0135 68.8998 55 68.7774 55 68.7774C55 68.7774 54.0135 68.7161 52.3487 68.5937Z" fill="#72BAD1"/>
<path d="M51.9753 276.178C50.704 276.132 48.9148 276.039 46.8901 275.946C45.8543 275.9 44.7713 275.853 43.5942 275.807C42.4641 275.761 41.287 275.714 40.0628 275.668C37.7085 275.575 35.3072 275.529 33.0942 275.575C38.4619 270.241 44.5359 263.33 44.5359 263.33C44.5359 263.33 37.5673 269.267 32.1525 274.462C32.1525 263.748 31.2108 249.879 31.2108 249.879C31.2108 249.879 30.3161 263.748 30.2691 274.462C25.4664 269.824 19.1099 264.49 19.1099 264.49C19.1099 264.49 24.6188 270.891 29.4215 275.668C25.8901 275.761 22.2175 275.946 19.157 276.132C15.0135 276.41 12 276.688 12 276.688C12 276.688 14.9664 276.967 19.1099 277.291C22.0291 277.477 25.4664 277.709 28.8565 277.801C24.0067 282.764 19.1099 288.377 19.1099 288.377C19.1099 288.377 25.1368 283.275 30.3161 278.358C30.4574 288.469 31.2108 299.879 31.2108 299.879C31.2108 299.879 31.9641 288.469 32.1054 278.312C36.6256 282.532 41.6637 286.753 41.6637 286.753C41.6637 286.753 37.6614 282.115 33.565 277.801C35.6839 277.755 37.8969 277.662 40.1099 277.57C40.722 277.523 41.287 277.477 41.8991 277.477C42.4641 277.43 43.0762 277.384 43.6413 277.338C44.7713 277.245 45.9013 277.152 46.8901 277.059C48.9619 276.874 50.704 276.688 51.9753 276.549C53.2466 276.41 54 276.317 54 276.317C54 276.317 53.2466 276.271 51.9753 276.178Z" fill="#FF606F"/>
<path d="M255.701 115.679C254.627 129.358 251.565 136.268 246.517 136.412C240.143 136.161 237.117 127.209 237.439 109.556C237.905 97.883 240.573 91.7778 245.442 91.2407C252.783 90.8468 256.202 98.993 255.701 115.679ZM237.01 85.2788C237.332 76.5418 238.245 70.383 239.749 66.8022C242.614 60.3211 248.611 60.7687 257.742 68.145C261.502 71.3319 263.74 75.5571 264.456 80.8208L271.814 79.4243L272.352 53.0522L266.712 53.7505L264.026 62.4517C242.22 50.2414 228.72 51.1724 223.528 65.2446C221.487 71.8332 220.503 84.8849 220.574 104.4H220.682C220.001 130.682 227.771 143.77 243.992 143.663C261.681 143.591 270.955 135.409 271.814 119.117C272.781 96.2358 264.349 84.6343 246.517 84.312C243.007 84.2404 239.839 84.5627 237.01 85.2788ZM262.576 116.377C262.003 120.674 260.517 124.559 258.118 128.033C261.377 118.293 261.591 108.625 258.763 99.0288C261.914 106.298 263.185 112.081 262.576 116.377ZM262.845 125.293C262.272 130.127 259.676 133.78 255.057 136.25C258.243 132.813 260.446 129.644 261.663 126.744L262.845 125.293ZM262.2 97.4175C266.569 103.899 267.446 110.523 264.832 117.291C265.942 108.804 263.812 100.694 258.44 92.9595L262.2 97.4175Z" fill="#C7C5BB"/>
<path d="M252.701 110.679C251.627 124.358 248.565 131.268 243.517 131.412C237.143 131.161 234.117 122.209 234.439 104.556C234.905 92.883 237.573 86.7778 242.442 86.2407C249.783 85.8468 253.202 93.993 252.701 110.679ZM234.01 80.2788C234.332 71.5418 235.245 65.383 236.749 61.8022C239.614 55.3211 245.611 55.7687 254.742 63.145C258.502 66.3319 260.74 70.5571 261.456 75.8208L268.814 74.4243L269.352 48.0522L263.712 48.7505L261.026 57.4517C239.22 45.2414 225.72 46.1724 220.528 60.2446C218.487 66.8332 217.503 79.8849 217.574 99.3999H217.682C217.001 125.682 224.771 138.77 240.992 138.663C258.681 138.591 267.955 130.409 268.814 114.117C269.781 91.2358 261.349 79.6343 243.517 79.312C240.007 79.2404 236.839 79.5627 234.01 80.2788ZM259.576 111.377C259.003 115.674 257.517 119.559 255.118 123.033C258.377 113.293 258.591 103.625 255.763 94.0288C258.914 101.298 260.185 107.081 259.576 111.377ZM259.845 120.293C259.272 125.127 256.676 128.78 252.057 131.25C255.243 127.813 257.446 124.644 258.663 121.744L259.845 120.293ZM259.2 92.4175C263.569 98.8986 264.446 105.523 261.832 112.291C262.942 103.804 260.812 95.6938 255.44 87.9595L259.2 92.4175Z" fill="#2D3962"/>
<path d="M267 158.613C267 159.758 273.869 160.903 282.701 160.903C282.864 171.37 283.846 179.384 284.991 179.384C286.136 179.384 287.117 171.37 287.28 160.903C295.621 160.739 301.836 159.758 301.836 158.613C301.836 157.468 295.458 156.487 287.28 156.323C287.28 144.875 286.299 135.879 284.991 135.879C283.682 135.879 282.701 144.875 282.701 156.16C273.869 156.323 267 157.305 267 158.613Z" fill="#B3C8D3"/>
<path d="M287 189.943C287 190.601 290.925 191.259 295.972 191.259C296.065 197.274 296.626 201.879 297.28 201.879C297.935 201.879 298.495 197.274 298.589 191.259C303.355 191.165 306.907 190.601 306.907 189.943C306.907 189.285 303.262 188.721 298.589 188.628C298.589 182.049 298.028 176.879 297.28 176.879C296.533 176.879 295.972 182.049 295.972 188.534C290.925 188.628 287 189.191 287 189.943Z" fill="#B3C8D3"/>
<path d="M209.1 257.379C209.1 257.379 210.1 256.479 212.3 254.479C214.4 252.479 217.7 249.379 221.9 245.079C226.2 240.679 231.5 234.979 237.3 227.479C240.2 223.679 243.2 219.479 246 214.679C248.8 209.879 251.5 204.379 253 198.279C253.7 195.279 254.1 192.279 253.9 189.579C253.8 188.179 253.6 186.879 253.3 185.679C253 184.479 252.5 183.379 252 182.279C249.8 178.079 245.8 175.879 241.8 174.879C237.8 173.979 233.9 174.179 230.5 174.779C227.1 175.379 224.1 176.379 221.7 177.479C216.7 179.679 213.5 181.979 211.5 183.479C210.5 184.279 209.8 184.779 209.3 185.179C208.8 185.579 208.6 185.779 208.6 185.779L206.6 183.479C206.6 183.479 206.8 183.279 207.1 182.879C207.5 182.479 208.1 181.779 208.9 180.979C210.7 179.279 213.5 176.679 218.5 173.879C221 172.479 224.1 171.079 227.8 170.079C231.5 169.079 236 168.379 241.2 169.079C243.8 169.379 246.5 170.179 249.1 171.579C250.4 172.279 251.7 173.179 252.9 174.179C254.1 175.279 255.2 176.479 256.2 177.879C257.1 179.279 257.9 180.879 258.5 182.479C259.1 184.179 259.5 185.879 259.7 187.679C260.1 191.279 259.8 194.979 259 198.579C257.4 205.879 254.3 211.979 251.3 217.279C248.2 222.579 245 227.079 241.9 231.079C235.7 238.979 230 244.679 225.6 249.079C221.1 253.379 217.7 256.379 215.5 258.279C213.3 260.179 212.2 260.979 212.2 260.979L209.1 257.379Z" fill="#FF606F"/>
<path d="M71.4 214.579C71.4 214.579 62 218.379 58.5 208.479C55.6 200.079 67.7 179.379 62.7 168.079C60.4 162.979 54.2 159.779 41.7 166.479L41.9 172.079C71.6 158.579 35.5 210.979 41.6 234.279C45.5 248.679 61.5 255.879 82.5 257.879L71.4 214.579Z" fill="#FF606F"/>
<path d="M60.6001 215.679C60.9001 214.879 61.3001 214.079 61.7001 213.279C65.8001 216.779 71.4001 214.579 71.4001 214.579L82.5001 257.879C73.0001 256.979 64.6001 254.979 57.9001 251.879C55.2001 239.479 57.1001 227.479 60.6001 215.679Z" fill="#2D3962"/>
<path d="M126.8 130.179C126.5 160.879 115.4 173.879 115.4 173.879L173.8 171.979C173.8 171.979 164.1 159.579 162.3 131.979L126.8 130.179Z" fill="#FF606F"/>
<path d="M229.4 219.479C231.8 253.679 196.3 283.979 150.2 287.179C104.1 290.379 64.8 265.279 62.4 231.079C60 196.879 95.5 166.579 141.6 163.379C187.7 160.179 227 185.279 229.4 219.479Z" fill="#FF606F"/>
<path d="M89.2001 178.079C89.2001 178.079 89.5 178.179 90.3 178.479C91.1 178.779 92.2001 179.079 93.7001 179.579C96.7001 180.479 101 181.679 106.3 182.679C116.8 184.779 131.2 186.079 145.6 185.479C147.4 185.479 149.2 185.279 151 185.079C152.8 184.979 154.6 184.779 156.3 184.679C159.8 184.279 163.3 183.779 166.6 183.279C169.9 182.779 173.1 181.979 176.1 181.479C176.9 181.379 177.6 181.179 178.3 181.079C179 180.879 179.7 180.679 180.4 180.479C181.8 180.079 183.2 179.779 184.5 179.379C189.8 178.079 194 176.579 197 175.579C200 174.579 201.7 173.979 201.7 173.979L202.9 177.179C202.9 177.179 200 178.579 191.9 181.779C189.9 182.579 187.4 183.179 184.6 184.079C183.2 184.479 181.7 184.979 180.1 185.379C178.5 185.779 176.8 186.179 175 186.579C173.2 186.979 171.3 187.379 169.3 187.879C167.3 188.279 165.1 188.579 162.9 188.879C161.8 189.079 160.6 189.179 159.4 189.379C158.8 189.479 158.2 189.579 157.6 189.679C157 189.779 156.4 189.779 155.7 189.879C153.2 190.079 150.6 190.279 147.8 190.579C136.8 191.179 127.4 190.579 119.6 189.679C111.8 188.779 105.7 187.279 101 186.079C96.3 184.779 93.0001 183.579 90.9001 182.679C88.8001 181.879 87.8 181.279 87.8 181.279L89.2001 178.079Z" fill="#C24751"/>
<path d="M82.4001 183.18C82.4001 183.18 82.9001 183.38 83.7001 183.78C84.6001 184.18 85.8 184.68 87.5 185.28C90.8 186.48 95.6 188.08 101.5 189.48C113.2 192.48 129.3 194.68 145.5 194.08C153.6 193.78 161.6 192.98 169 191.58C176.4 190.28 183.3 188.38 189 186.58C194.7 184.68 199.5 182.88 202.7 181.48C205.9 180.08 207.8 179.28 207.8 179.28L208.4 180.58C208.4 180.58 207.6 180.98 205.7 181.88C204.7 182.28 203.5 182.88 202 183.58C200.4 184.18 198.6 184.98 196.3 185.88C191.8 187.58 185.8 189.78 177.8 191.68C169.9 193.68 159.9 195.38 147.7 195.98C141.6 196.28 136 196.18 130.8 195.88C125.6 195.58 120.9 195.08 116.7 194.38C108.2 193.08 101.5 191.38 96.3 189.78C91.1 188.18 87.5001 186.78 85.2001 185.88C82.9001 184.88 81.8 184.38 81.8 184.38L82.4001 183.18Z" fill="#C24751"/>
<path d="M191.2 198.379C159.7 197.079 131.8 217.879 124.3 239.879C122.9 243.979 122.2 248.079 122.3 252.079C122.9 272.179 148.7 294.179 193.7 268.779C208.7 260.279 217.6 250.179 221.5 240.279C229.8 219.379 215.9 199.379 191.2 198.379Z" fill="#C24751"/>
<path d="M125.6 146.179L130.4 143.679L134.6 147.479L142.5 142.779L150.8 147.479L157.7 144.279L163.7 144.979L162.3 132.879L127.7 129.379L125.6 146.179Z" fill="#2D3962"/>
<path d="M128.8 120.179L125.8 142.579L130.6 136.679L134.7 146.179L142.9 134.479L150.8 146.179L156.8 137.779L163.9 144.379L160.8 119.579L128.8 120.179Z" fill="#A49D9E"/>
<path d="M132.7 123.979L134.1 136.479L142.6 126.379L132.7 123.979Z" fill="#FFFCF2"/>
<path d="M128.8 120.179C128.8 120.179 141.7 111.279 160.8 119.479C160.8 119.579 146.9 126.879 128.8 120.179Z" fill="#FFFCF2"/>
<path d="M156.1 122.779C156.1 122.779 156.4 122.579 156.9 122.179C157.4 121.779 158.3 121.179 159.3 120.179C159.8 119.679 160.4 119.179 161 118.579C161.6 117.979 162.3 117.279 163 116.379C164.4 114.779 165.9 112.679 167.2 110.079C168.5 107.479 169.7 104.379 170.2 100.679C170.4 98.8794 170.5 96.8794 170.3 94.8794C170.1 92.8794 169.7 90.7794 168.8 88.6794C167.2 84.4794 164.2 80.3794 159.5 77.6794C154.9 74.9794 148.9 73.7794 142.6 74.3794C136.2 74.9794 130.5 76.8794 126.2 79.9794C122 83.0794 119.4 87.3794 118.3 91.5794C117.7 93.6794 117.5 95.7794 117.5 97.6794C117.5 98.6794 117.6 99.5794 117.6 100.579C117.7 101.479 117.8 102.379 118 103.279C118.7 106.779 120 109.679 121.3 111.979C122.7 114.279 124.1 116.179 125.5 117.479C126.2 118.179 126.8 118.779 127.4 119.279C128 119.779 128.6 120.179 129.1 120.579C129.6 120.879 130.1 121.179 130.4 121.479C130.8 121.679 131.1 121.879 131.4 121.979C131.9 122.279 132.2 122.379 132.2 122.379L131.5 123.779C131.5 123.779 131.3 123.679 130.8 123.479C130.3 123.279 129.5 122.879 128.5 122.279C126.5 121.079 123.2 118.879 120 114.179C118.4 111.879 116.9 108.979 115.8 105.379C114.8 101.779 114.2 97.3794 115 92.5794C115.4 90.1794 116.2 87.6794 117.6 85.2794C118.9 82.8794 120.7 80.5794 123 78.5794C125.3 76.5794 128.1 74.9794 131.1 73.7794C134.2 72.5794 137.5 71.7794 141.1 71.3794C144.6 70.9794 148.1 70.9794 151.4 71.5794C154.7 72.1794 157.8 73.2794 160.5 74.7794C165.9 77.8794 169.6 82.7794 171.3 87.5794C172.2 89.9794 172.7 92.3794 172.9 94.6794C173.1 96.9794 173 99.1794 172.7 101.179C172.1 105.279 170.7 108.679 169.2 111.479C168.9 112.179 168.4 112.879 168 113.479C167.6 114.079 167.2 114.679 166.8 115.279C166.4 115.779 166 116.379 165.6 116.879C165.2 117.379 164.8 117.779 164.4 118.279C162.9 119.979 161.5 121.279 160.4 122.179C159.3 123.179 158.4 123.679 157.8 124.179C157.2 124.579 157 124.779 157 124.779L156.1 122.779Z" fill="#A49D9E"/>
<path d="M112.5 173.879L126.8 177.879C126.8 177.879 98.1 189.879 90.1 228.979L68 216.579C68 216.579 77.6 185.479 112.5 173.879Z" fill="#FFFCF2"/>
<path d="M205.7 190.279C206 189.979 206.9 190.179 208.2 190.879C208.9 191.279 209.7 191.779 210.5 192.479C211.3 193.179 212.3 193.979 213.2 194.979C213.7 195.479 214.1 195.979 214.7 196.479C215.2 197.079 215.6 197.679 216.1 198.279C217.1 199.479 218 200.979 219 202.479C220.8 205.579 222.5 209.279 223.5 213.279C225.7 221.379 225.3 229.079 224.2 234.279C223.9 235.579 223.6 236.779 223.3 237.779C222.9 238.779 222.6 239.679 222.2 240.279C221.5 241.679 221 242.279 220.5 242.179C220.1 242.079 219.8 241.179 219.7 239.779C219.6 239.079 219.6 238.179 219.6 237.179C219.6 236.179 219.5 235.079 219.5 233.779C219.4 228.779 219.1 222.079 217.1 214.979C216.2 211.379 214.8 208.179 213.5 205.279C212.8 203.879 212.2 202.479 211.4 201.179C211.1 200.579 210.7 199.979 210.4 199.379C210.1 198.779 209.7 198.279 209.4 197.779C208.1 195.679 207 193.979 206.3 192.679C205.7 191.379 205.4 190.579 205.7 190.279Z" fill="#FFFCF2"/>
<path d="M201.8 187.079C202.2 186.479 203.3 186.579 204.1 187.279C205 187.979 205.3 188.979 204.8 189.479C204.3 190.079 203.3 189.879 202.5 189.279C201.7 188.679 201.4 187.679 201.8 187.079Z" fill="#FFFCF2"/>
<path d="M223.9 246.079C231 243.379 244 260.879 208.7 263.579C208.7 263.679 216.8 248.779 223.9 246.079Z" fill="#FF606F"/>
<path d="M55.1999 202.279C54.8999 202.279 54.6999 199.979 55.2999 196.379C55.8999 192.779 57.3999 188.079 58.5999 182.779C59.7999 177.579 60.1999 172.779 59.0999 169.679C58.0999 166.479 56.2999 165.079 56.5999 164.679C56.6999 164.579 57.2999 164.779 58.0999 165.379C58.8999 165.979 59.9999 167.179 60.7999 168.979C61.5999 170.679 62.0999 172.979 62.0999 175.479C62.0999 177.979 61.6999 180.679 61.0999 183.379C59.7999 188.779 58.0999 193.379 57.0999 196.779C55.9999 200.179 55.5999 202.379 55.1999 202.279Z" fill="#FFFCF2"/>
<path d="M55.1999 205.779C54.8999 205.779 54.5999 205.179 54.5999 204.479C54.5999 203.679 54.7999 203.079 55.0999 203.079C55.3999 203.079 55.5999 203.679 55.5999 204.379C55.6999 205.179 55.4999 205.779 55.1999 205.779Z" fill="#FFFCF2"/>
<path d="M155.6 58.3794C155.6 58.3794 155.4 58.7794 155 59.3794C154.8 59.6794 154.6 60.0794 154.3 60.4794C154.1 60.8794 153.8 61.3794 153.5 61.8794C153.4 62.1794 153.2 62.3794 153.1 62.6794L152.9 63.0794L152.7 63.3794C152.5 63.7794 152.3 64.1794 152.1 64.5794L152 64.8794C152 64.9794 152 64.9794 152 64.9794H152.1C152.2 64.9794 152.2 64.8794 152.2 64.8794C152.2 64.8794 152.1 64.8794 152.1 64.9794V65.0794C152.1 65.0794 152.1 65.0794 152.2 65.0794L152.5 64.9794C153 64.8794 153.4 64.7794 153.8 64.6794L154.2 64.5794C154.3 64.5794 154.5 64.4794 154.6 64.4794C154.9 64.3794 155.2 64.2794 155.5 64.1794C156.1 63.9794 156.6 63.8794 157.1 63.7794C157.6 63.5794 158 63.4794 158.3 63.3794C159 63.1794 159.4 62.9794 159.4 62.9794C159.4 62.9794 159.1 63.2794 158.5 63.7794C158.2 63.9794 157.9 64.2794 157.5 64.5794C157.1 64.8794 156.6 65.1794 156.1 65.5794C155.8 65.7794 155.6 65.8794 155.3 66.0794C155.2 66.1794 155 66.2794 154.9 66.3794C154.7 66.4794 154.5 66.5794 154.4 66.6794C153.7 67.0794 152.9 67.4794 152 67.8794L151.4 68.1794C151.2 68.2794 151 68.2794 150.8 68.2794C150.4 68.3794 150 68.3794 149.6 68.4794C148.8 68.5794 148 68.6794 147.3 68.7794C147.5 68.0794 147.8 67.2794 148.1 66.5794C148.2 66.1794 148.4 65.7794 148.6 65.4794C148.7 65.2794 148.7 65.0794 148.9 64.8794L149.3 64.2794C149.9 63.5794 150.5 62.8794 151 62.2794L151.4 61.7794C151.5 61.6794 151.6 61.5794 151.8 61.4794C152 61.2794 152.3 61.0794 152.5 60.8794C152.9 60.4794 153.4 60.0794 153.7 59.7794C154.1 59.4794 154.5 59.1794 154.8 58.9794C155.2 58.6794 155.6 58.3794 155.6 58.3794Z" fill="#B3C8D3"/>
<path d="M161 62.1794C161 62.1794 161.3 61.8794 161.7 61.3794C162.1 60.8794 162.8 60.1794 163.4 59.2794C164 58.4794 164.7 57.4794 165.1 56.4794C165.3 55.9794 165.4 55.4794 165.4 55.1794C165.4 54.7794 165.3 54.6794 165.3 54.6794C165.3 54.6794 165.1 54.4794 164.8 54.4794C164.4 54.3794 163.9 54.4794 163.4 54.4794C162.3 54.6794 161.2 55.0794 160.3 55.4794C159.3 55.8794 158.5 56.2794 157.9 56.5794C157.3 56.8794 157 57.0794 157 57.0794C157 57.0794 157.2 56.7794 157.6 56.1794C158 55.6794 158.6 54.8794 159.5 54.0794C160.3 53.2794 161.4 52.4794 162.7 51.8794C163.4 51.5794 164.1 51.3794 165 51.3794C165.8 51.3794 167 51.6794 167.7 52.5794C168.4 53.4794 168.5 54.6794 168.3 55.4794C168.1 56.3794 167.7 56.9794 167.3 57.5794C166.4 58.7794 165.4 59.5794 164.5 60.1794C163.6 60.7794 162.7 61.2794 162.1 61.4794C161.3 62.0794 161 62.1794 161 62.1794Z" fill="#B3C8D3"/>
<path d="M137.4 55.4795C137.4 55.4795 138.6 56.6795 140.2 58.5795C140.6 59.0795 141 59.4795 141.4 60.0795C141.8 60.6795 142.1 61.1795 142.5 61.7795C142.6 61.8795 142.8 62.2795 142.9 62.4795L143.4 63.3795C143.7 63.9795 144.1 64.5795 144.4 65.1795C145.1 66.3795 145.7 67.6795 146.3 68.7795C145.1 68.2795 143.8 67.7795 142.5 67.2795C141.9 66.9795 141.2 66.7795 140.6 66.4795L139.7 66.0795C139.4 65.9795 139 65.7795 138.9 65.6795C138.3 65.3795 137.7 65.0795 137.1 64.6795C136.5 64.3795 136 63.9795 135.5 63.5795C133.5 62.1795 132.2 61.0795 132.2 61.0795C132.2 61.0795 133.9 61.4795 136.2 62.1795C136.8 62.3795 137.3 62.5795 138 62.6795C138.6 62.8795 139.3 62.9795 139.9 63.1795C140.1 63.2795 140 63.1795 140.1 63.1795C140.1 63.1795 140.1 63.1795 140.1 63.0795L140 62.9795C140 62.9795 140 62.9795 140.1 63.0795C140.1 63.0795 140.1 63.0795 140.2 63.0795C140.2 63.0795 140.2 63.0795 140.2 62.9795C140.2 62.9795 140.2 62.9795 140.2 62.7795C140 62.1795 139.7 61.4795 139.5 60.8795C139.3 60.2795 139 59.6795 138.8 59.1795C138 57.1795 137.4 55.4795 137.4 55.4795Z" fill="#B3C8D3"/>
<path d="M122.7 46.0794C122.7 46.0794 122.9 45.7794 123.4 45.4794C123.9 45.1794 124.7 44.8794 125.7 44.7794C127.7 44.6794 130.1 45.4794 131.6 46.7794C133.2 47.9794 134.6 49.8794 135.4 51.4794C135.8 52.2794 136.1 52.9794 136.3 53.4794C136.5 53.9794 136.6 54.2794 136.6 54.2794C136.6 54.2794 135.6 53.4794 134.2 52.4794C132.9 51.4794 131.2 50.2794 129.7 49.1794C128.3 48.0794 126.8 46.8794 125.4 46.2794C124.7 45.9794 124 45.8794 123.5 45.8794C123 45.9794 122.7 46.0794 122.7 46.0794Z" fill="#B3C8D3"/>
<path d="M131 60.4794C131 60.4794 130.7 60.3794 130.2 60.1794C129.7 59.9794 129 59.7794 128.1 59.3794C126.5 58.6794 124.5 57.4794 123.2 55.9794C121.9 54.4794 120.8 52.1794 120.8 50.1794C120.8 49.1794 121 48.3794 121.3 47.8794C121.6 47.3794 121.8 47.1794 121.8 47.1794C121.8 47.1794 121.7 47.4794 121.8 47.9794C121.8 48.4794 122 49.1794 122.4 49.8794C123.1 51.2794 124.4 52.6794 125.6 53.9794C126.8 55.3794 128.1 56.9794 129.2 58.1794C129.8 58.7794 130.3 59.3794 130.6 59.7794C130.8 60.1794 131 60.4794 131 60.4794Z" fill="#B3C8D3"/>
<path d="M146.3 24.8794C146.3 24.8794 144 18.0794 144 12.8794C144 7.67939 146.3 0.879395 146.3 0.879395C146.3 0.879395 148.6 7.67939 148.6 12.8794C148.6 18.0794 146.3 24.8794 146.3 24.8794Z" fill="#B3C8D3"/>
<path d="M146.3 50.8794C146.3 50.8794 144 44.0794 144 38.8794C144 33.6794 146.3 26.8794 146.3 26.8794C146.3 26.8794 148.6 33.6794 148.6 38.8794C148.6 44.0794 146.3 50.8794 146.3 50.8794Z" fill="#B3C8D3"/>
<path d="M146.3 64.5793C146.3 64.5793 144 61.2793 144 58.6793C144 56.1793 146.3 52.7793 146.3 52.7793C146.3 52.7793 148.6 56.0793 148.6 58.6793C148.6 61.2793 146.3 64.5793 146.3 64.5793Z" fill="#B3C8D3"/>
<path d="M62 111.613C62 112.758 68.8692 113.903 77.7009 113.903C77.8645 124.37 78.8458 132.384 79.9907 132.384C81.1355 132.384 82.1168 124.37 82.2804 113.903C90.6215 113.739 96.8364 112.758 96.8364 111.613C96.8364 110.468 90.4579 109.487 82.2804 109.323C82.2804 97.8747 81.2991 88.8794 79.9907 88.8794C78.6822 88.8794 77.7009 97.8747 77.7009 109.16C68.8692 109.323 62 110.305 62 111.613Z" fill="#B3C8D3"/>
<path d="M285.085 248.92C285.016 248.988 284.947 248.988 284.947 249.056C284.878 249.124 284.878 249.124 284.809 249.26C284.74 249.396 284.74 249.328 284.74 249.328C284.671 249.328 284.602 249.26 284.533 249.26C284.326 249.192 284.119 249.192 283.843 249.192C283.359 249.124 282.807 249.124 282.324 249.124C281.288 249.124 280.184 249.192 279.148 249.26C278.112 249.328 277.008 249.464 275.972 249.6L274.384 249.805L271.968 250.145L271.485 248.512L271.347 247.764L270.933 246.267C270.656 245.247 270.38 244.226 270.035 243.274C269.69 242.322 269.345 241.301 268.93 240.417C268.723 239.941 268.516 239.532 268.24 239.124C268.171 238.988 268.102 238.92 268.033 238.852L267.964 238.716L267.895 238.988C267.826 239.396 267.826 239.941 267.826 240.417C267.826 241.437 267.895 242.458 268.033 243.478C268.171 244.498 268.309 245.519 268.447 246.607L268.723 248.172L268.93 249.396L269.276 250.961L267.481 250.689L266.169 250.553L264.443 250.349C263.269 250.213 262.096 250.145 260.922 250.009C259.748 249.941 258.575 249.873 257.47 249.873C256.918 249.873 256.366 249.941 255.813 250.009C255.537 250.077 255.261 250.077 255.054 250.145L255.261 250.281L255.606 250.485C255.813 250.621 256.089 250.689 256.297 250.825C257.263 251.233 258.299 251.573 259.334 251.845C261.405 252.458 263.546 253.002 265.686 253.478L268.171 254.022L267.55 255.383L267.135 256.403L266.583 257.764C266.238 258.648 265.893 259.6 265.617 260.485C265.34 261.369 265.064 262.322 264.857 263.206C264.788 263.682 264.719 264.09 264.65 264.498C264.65 264.566 264.65 264.703 264.65 264.771C264.65 264.839 264.65 264.975 264.65 264.975L264.719 264.907C264.995 264.634 265.34 264.294 265.617 263.954C266.169 263.206 266.721 262.39 267.274 261.573C267.826 260.757 268.309 259.941 268.792 259.056L269.483 257.764L270.104 256.539L270.794 255.179L271.761 256.403L272.658 257.424L273.694 258.58C274.384 259.328 275.075 260.077 275.765 260.757C276.456 261.437 277.215 262.117 277.974 262.73C278.32 263.002 278.734 263.274 279.079 263.478H279.148C279.148 263.478 279.148 263.342 279.079 263.206C279.079 263.138 279.01 263.002 279.01 262.934C278.872 262.526 278.665 262.049 278.458 261.641C277.974 260.757 277.422 259.941 276.87 259.056C276.317 258.24 275.696 257.356 275.075 256.539L274.108 255.315L273.211 254.226L272.175 253.002L273.763 252.662L275.144 252.322L276.732 251.913C277.767 251.641 278.803 251.301 279.838 251.029C280.874 250.689 281.84 250.349 282.807 249.941C283.29 249.737 283.774 249.532 284.119 249.26C284.326 249.124 284.464 248.988 284.533 248.92C284.533 248.92 284.533 248.92 284.602 248.988C284.671 249.056 284.74 249.056 284.878 249.056C284.878 249.056 284.878 249.056 284.947 249.056C284.878 249.056 284.809 249.124 284.74 249.124L285.361 248.716C285.361 248.716 285.361 248.784 285.43 248.852C285.499 248.92 285.43 248.988 285.499 249.056C285.499 249.124 285.499 249.26 285.43 249.328C285.154 249.737 284.533 250.213 283.635 250.689C282.669 251.165 281.426 251.709 279.838 252.254C279.01 252.526 278.181 252.798 277.215 253.138C276.456 253.342 275.627 253.614 274.73 253.886C274.868 254.022 275.006 254.226 275.144 254.362C275.42 254.703 275.696 255.043 275.972 255.383C276.525 256.131 277.146 256.879 277.767 257.764C278.389 258.58 279.01 259.532 279.631 260.553C279.907 261.097 280.253 261.573 280.46 262.186C280.598 262.458 280.667 262.798 280.805 263.206C280.805 263.274 280.805 263.274 280.805 263.342V263.546C280.805 263.682 280.805 263.818 280.805 263.954C280.805 264.09 280.805 264.226 280.736 264.362C280.667 264.498 280.667 264.634 280.598 264.703C280.529 264.703 280.46 264.771 280.391 264.771C280.322 264.839 280.253 264.907 280.184 264.975C280.115 265.043 280.046 265.043 279.976 265.111L279.7 265.179C279.355 265.247 278.941 265.179 278.596 264.975C278.389 264.907 278.32 264.839 278.181 264.771C278.043 264.703 277.974 264.634 277.836 264.566C277.629 264.43 277.422 264.294 277.215 264.158C276.387 263.546 275.696 262.866 274.937 262.186C274.177 261.437 273.418 260.689 272.658 259.873C272.313 259.464 271.899 259.056 271.554 258.648L271.278 258.376L271.209 258.308V258.376C271.209 258.376 271.209 258.376 271.14 258.512C270.933 258.92 270.725 259.328 270.518 259.737C270.035 260.553 269.552 261.437 269.069 262.254C268.516 263.138 267.964 263.954 267.274 264.839C266.928 265.247 266.583 265.723 266.1 266.131C265.962 266.267 265.41 266.675 264.926 266.811C264.65 266.879 264.443 266.879 264.167 266.811C263.891 266.811 263.753 266.607 263.546 266.471C263.407 266.335 263.269 266.131 263.2 265.995C263.131 265.791 262.993 265.587 262.993 265.383C262.924 265.111 262.924 265.043 262.924 264.839C262.924 264.703 262.924 264.566 262.924 264.43C262.924 263.886 262.993 263.41 263.131 262.866C263.338 261.913 263.615 260.961 263.891 260.009C264.167 259.056 264.512 258.104 264.926 257.152C265.133 256.675 265.34 256.199 265.479 255.723L265.617 255.383C265.686 255.315 265.617 255.315 265.617 255.315C264.995 255.179 264.374 255.043 263.753 254.907C262.993 254.703 262.234 254.498 261.474 254.362C260.025 253.954 258.644 253.614 257.401 253.206C256.158 252.798 255.123 252.39 254.294 251.913C254.225 251.845 254.018 251.709 253.88 251.641C253.742 251.505 253.535 251.437 253.466 251.301C253.397 251.165 253.259 251.029 253.19 250.961C253.121 250.825 253.052 250.689 253.052 250.553C252.983 250.281 252.983 250.077 253.052 249.873C253.052 249.805 253.121 249.805 253.121 249.737V249.669C253.19 249.6 253.19 249.532 253.259 249.464C253.259 249.124 253.397 248.988 253.535 248.852C253.742 248.784 253.88 248.648 254.087 248.58L254.363 248.512C254.502 248.444 254.571 248.444 254.64 248.444L254.985 248.376C255.468 248.308 255.882 248.24 256.297 248.24C257.125 248.172 257.953 248.172 258.782 248.172C260.37 248.24 261.82 248.308 263.062 248.444C264.305 248.58 265.41 248.716 266.307 248.784C266.514 248.784 266.721 248.852 266.928 248.852H266.997H267.066V248.784C266.997 248.444 266.928 248.104 266.859 247.764C266.721 247.015 266.652 246.335 266.514 245.587C266.307 244.158 266.169 242.798 266.1 241.437C266.1 240.757 266.031 240.077 266.1 239.464C266.1 239.124 266.169 238.784 266.238 238.444C266.238 238.308 266.376 238.036 266.445 237.764C266.583 237.56 266.721 237.288 266.928 237.152C266.997 237.083 267.135 237.015 267.274 236.947C267.412 236.947 267.55 236.879 267.688 236.879C267.826 236.879 267.964 236.879 268.033 236.879L268.378 236.947C268.585 237.083 268.861 237.22 268.999 237.356C269.207 237.56 269.276 237.628 269.414 237.764C269.828 238.308 270.104 238.784 270.311 239.328C271.209 241.369 271.761 243.206 272.244 244.771C272.451 245.587 272.658 246.267 272.797 246.947C272.866 247.288 272.935 247.628 273.004 247.9C273.004 247.968 273.073 248.104 273.073 248.172C274.108 248.036 275.006 247.968 275.834 247.832C276.87 247.696 277.767 247.628 278.665 247.56C280.322 247.424 281.702 247.424 282.738 247.424C283.774 247.424 284.533 247.56 285.016 247.696C285.154 247.764 285.292 247.764 285.361 247.832C285.499 247.9 285.569 247.968 285.638 247.968C285.776 248.104 285.845 248.172 285.845 248.172L285.085 248.92Z" fill="#C3C3C3"/>
</svg>
