<svg width="302" height="284" viewBox="0 0 302 284" fill="none" xmlns="http://www.w3.org/2000/svg">
<path d="M2.5 20.3794H290.438L284.06 281.379H2.5V20.3794Z" fill="#6EB9D2" stroke="#4F8BAD" stroke-width="5"/>
<mask id="mask0" style="mask-type:alpha" maskUnits="userSpaceOnUse" x="0" y="17" width="293" height="267">
<path d="M0 17.8794H293L286.5 283.879H0V17.8794Z" fill="#6EB9D2"/>
</mask>
<g mask="url(#mask0)">
<path d="M241.22 241.783C241.22 241.783 277.82 258.083 281.02 293.383C285.22 339.083 197.82 354.783 121.22 354.783C44.6198 354.783 -50.7802 339.083 -43.5802 291.483C-36.9802 247.483 8.01976 239.283 8.01976 239.283L241.22 241.783Z" fill="#FFFCF2"/>
<path d="M241.22 244.283C224.62 243.783 207.82 243.383 191.82 243.783C182.02 244.183 162.52 243.683 152.72 243.083C139.72 242.283 125.62 243.683 113.62 242.683C101.72 241.583 83.2197 242.783 69.1197 242.683C56.1197 242.583 43.1197 241.883 30.0197 241.783C23.2197 241.683 16.3197 241.683 9.3197 241.683H8.61971H8.3197H8.2197L7.9197 241.783L7.3197 241.883C6.5197 242.083 5.7197 242.283 4.9197 242.583C3.3197 243.083 1.7197 243.583 0.119705 244.183C-3.0803 245.383 -6.1803 246.783 -9.1803 248.483C-15.1803 251.683 -20.6803 255.783 -25.3803 260.483C-30.0803 265.183 -33.9803 270.583 -36.8803 276.483C-38.6803 280.283 -39.5803 284.083 -40.2803 287.883C-40.5803 289.783 -40.8803 291.783 -41.0803 293.683C-41.2803 295.583 -41.3803 297.483 -41.3803 299.483C-41.1803 305.583 -38.1803 311.183 -34.0803 315.783C-34.0803 315.783 -33.6803 316.183 -32.9803 316.983C-32.5803 317.383 -32.1803 317.783 -31.6803 318.283C-31.1803 318.783 -30.5803 319.283 -29.8803 319.883C-27.2803 322.183 -23.4803 324.983 -19.2803 327.383C-15.1803 329.783 -10.7803 331.783 -7.48029 333.183C-4.18029 334.583 -1.88029 335.383 -1.88029 335.383C9.61971 339.683 22.0197 342.683 34.6197 344.983C47.2197 347.283 60.1197 348.883 73.0197 350.083C87.0197 351.383 100.82 351.983 114.72 352.083C128.62 352.183 142.72 351.883 157.22 351.083C169.62 350.483 182.52 348.883 195.42 346.583C208.32 344.283 221.12 341.383 233.42 337.783C240.62 335.783 247.62 332.883 254.02 329.283C260.42 325.683 266.42 321.283 271.02 315.783C274.92 311.183 277.92 305.883 278.82 299.883C279.72 293.983 278.82 287.483 276.82 281.583C274.82 275.683 271.22 269.683 266.82 264.483C262.42 259.283 257.22 254.783 252.22 250.883C245.92 246.083 241.82 243.083 241.52 241.683C241.32 240.983 242.22 240.783 244.22 241.283C246.22 241.783 249.22 243.083 253.22 245.583C259.32 249.483 264.92 254.283 269.62 259.883C274.32 265.483 278.22 271.883 280.62 278.883C283.02 285.883 284.32 293.183 283.42 300.783C283.42 301.683 283.12 302.683 282.92 303.583C282.72 304.483 282.62 305.483 282.22 306.383C281.62 308.183 281.02 309.983 280.12 311.583C278.52 314.983 276.22 317.983 273.82 320.883C269.22 326.083 263.52 329.883 257.52 332.983C251.62 336.083 245.42 338.583 239.22 340.883C233.02 343.083 226.12 345.183 219.42 346.983C212.62 348.783 205.92 350.083 200.02 350.983C185.42 353.183 171.32 354.783 157.32 355.783C143.32 356.783 129.42 357.383 115.22 357.183C115.22 357.183 105.12 357.083 95.0197 356.583C84.9197 356.083 74.9197 355.283 74.9197 355.283C61.8197 354.183 48.9197 351.583 36.1197 349.283C29.1197 347.983 21.4197 346.383 13.7197 344.383C6.0197 342.383 -1.5803 339.983 -8.2803 337.383C-14.9803 334.883 -21.1803 331.483 -26.6803 327.383C-32.1803 323.283 -37.1803 318.483 -40.8803 312.683C-44.4803 307.083 -46.3803 299.983 -45.8803 292.883C-45.7803 291.983 -45.6803 291.083 -45.5803 290.283L-45.1803 287.783C-44.9803 286.083 -44.4803 284.383 -44.0803 282.783C-43.1803 279.483 -42.0803 276.183 -40.5803 272.983C-39.0803 269.783 -37.3803 266.783 -35.3803 263.983C-33.3803 261.183 -31.1803 258.483 -28.6803 256.083C-23.7803 251.283 -18.2803 247.483 -12.4803 244.583C-9.28029 242.883 -5.98029 241.383 -2.48029 240.083C-0.780293 239.483 0.919704 238.883 2.7197 238.283C3.61971 237.983 4.5197 237.783 5.4197 237.483L6.7197 237.183L7.4197 236.983L8.2197 236.783C15.4197 236.783 22.7197 236.883 30.0197 236.883C44.4197 236.883 58.8197 236.783 72.9197 236.983L152.12 237.883C179.22 238.183 212.92 237.683 238.92 238.883C239.82 238.883 240.72 238.983 241.62 238.983L241.22 244.283Z" fill="#B3C8D3"/>
<path d="M150.42 329.883C184.02 314.183 200.32 278.383 210.02 241.383L241.22 241.783C241.22 241.783 277.819 258.083 281.02 293.383C285.22 339.083 197.82 354.783 121.22 354.783C44.6195 354.783 -50.7805 339.083 -43.5805 291.483C-42.8805 286.483 -41.5805 282.083 -39.9805 277.983C-37.0805 280.583 -34.1805 283.183 -31.1805 285.683C18.5195 327.283 89.1195 358.683 150.42 329.883Z" fill="#B3C8D3"/>
<path d="M248.92 245.983C248.92 245.983 132.52 346.483 -17.9803 330.583C-17.9803 330.583 -25.9803 326.883 -30.8803 321.983C-35.7803 317.083 44.0197 323.883 105.42 305.983C166.82 287.983 213.82 239.183 213.82 239.183L241.22 241.783L248.92 245.983Z" fill="#FF606F"/>
<path d="M204.72 247.783C204.72 247.783 201.92 265.683 195.72 281.783C195.72 281.783 232.22 261.183 250.82 243.983C250.82 243.983 236.62 235.983 230.52 235.483L204.72 247.783Z" fill="#2D3962"/>
<path d="M-2.78027 242.483C-2.78027 242.483 36.8197 347.883 248.82 334.483L267.62 323.083C267.62 323.083 180.12 328.183 112.32 308.483C44.5197 288.783 28.1197 241.183 28.1197 241.183L8.01973 239.183L-2.78027 242.483Z" fill="#FF606F"/>
<path d="M225.22 206.883L241.22 241.783C241.22 241.783 174.22 252.883 126.42 252.883C78.6195 252.883 8.01953 239.183 8.01953 239.183L32.2195 199.383L225.22 206.883Z" fill="#FF606F"/>
<path d="M40.6196 209.883C40.2196 210.583 39.7196 211.183 39.7196 211.983C39.7196 212.483 39.2196 213.283 38.8196 213.583C38.2196 213.983 38.7196 214.983 38.1196 215.283C37.4196 215.583 37.7196 216.683 37.5196 217.283C37.3196 217.883 36.8196 218.283 36.5196 218.883C36.0196 220.083 35.9196 221.583 34.9196 222.483C34.6196 222.783 35.0196 223.383 34.4196 223.583C34.1196 223.783 34.0196 224.083 33.9196 224.383L33.2196 226.083C32.7196 227.183 32.3196 228.283 31.8196 229.483C31.3196 230.683 30.8196 231.883 30.2196 233.183C29.5196 234.183 29.7196 235.683 28.8196 236.583C28.2196 237.083 28.3196 237.983 28.0196 238.583C27.7196 239.183 27.1196 239.483 26.8196 240.083C26.5196 240.683 26.6196 241.483 26.2196 241.983C25.7196 242.583 23.9196 241.983 24.0196 241.083C24.1196 239.683 25.5196 238.883 25.5196 237.383C25.5196 236.683 26.2196 236.383 26.4196 235.783C26.6196 235.183 26.7196 234.483 27.1196 233.983C27.9196 232.783 28.1196 231.483 28.6196 230.283L29.4196 228.583C29.6196 227.983 30.3196 227.683 30.6196 227.083C30.9196 226.483 31.1196 225.683 31.3196 224.983C31.4196 224.283 32.1196 223.983 32.2196 223.283C32.4196 222.083 32.8196 220.783 33.7196 219.883C34.6196 218.783 34.7196 217.383 35.2196 216.183L36.7196 212.783C37.2196 211.583 37.4196 209.983 38.4196 209.083L38.5196 208.983L40.6196 209.883Z" fill="#B3C8D3"/>
<path d="M69.1195 214.583C68.8195 215.283 68.5196 215.983 68.7196 216.783C68.8196 217.283 68.5196 218.083 68.2196 218.483C67.7196 218.983 68.4196 219.783 67.8196 220.183C67.2196 220.583 67.7195 221.583 67.6195 222.183C67.5195 222.783 67.1196 223.283 67.0196 223.883C66.7196 225.083 67.0196 226.483 66.2196 227.583C66.0196 227.983 66.5196 228.383 66.0196 228.683C65.7196 228.883 65.8196 229.283 65.7196 229.483L65.3196 231.183C65.1196 232.283 64.9196 233.483 64.7196 234.583C64.4196 235.783 64.3196 237.083 63.9196 238.283C63.4196 239.383 64.0196 240.683 63.3196 241.783C62.8196 242.383 63.1196 243.183 63.0196 243.783C62.9196 244.383 62.3196 244.883 62.2196 245.383C62.1196 245.983 62.3196 246.683 62.0196 247.283C61.6196 247.983 59.8195 247.783 59.6195 246.883C59.4195 245.583 60.6196 244.483 60.3196 243.083C60.2196 242.483 60.8196 241.983 60.8196 241.383C60.9196 240.783 60.8195 240.083 61.1195 239.583C61.6195 238.383 61.5196 237.083 61.8196 235.783L62.2196 233.983C62.3196 233.383 62.9196 232.883 63.0196 232.383C63.1196 231.783 63.2196 230.983 63.2196 230.283C63.1196 229.583 63.8196 229.183 63.7196 228.583C63.6196 227.383 63.8196 226.183 64.4196 225.183C65.0196 223.983 64.8195 222.583 65.1195 221.383L65.9196 217.883C66.2196 216.683 66.0196 215.083 66.7196 214.083L66.8196 213.983L69.1195 214.583Z" fill="#B3C8D3"/>
<path d="M104.62 215.083C104.42 215.883 104.22 216.683 104.42 217.483C104.62 217.983 104.42 218.883 104.12 219.383C103.72 219.983 104.42 220.783 103.92 221.283C103.42 221.783 104.02 222.783 103.92 223.483C103.82 224.083 103.52 224.683 103.52 225.383C103.42 226.683 103.82 228.183 103.12 229.483C102.92 229.883 103.52 230.283 103.02 230.683C102.72 230.983 102.82 231.283 102.82 231.583L102.62 233.483C102.52 234.683 102.52 235.983 102.32 237.283C102.22 238.683 102.12 239.983 101.92 241.383C101.62 242.583 102.22 243.983 101.62 245.183C101.22 245.883 101.62 246.683 101.52 247.383C101.42 247.983 100.92 248.583 100.92 249.283C100.82 249.883 101.12 250.683 100.92 251.283C100.62 252.083 98.7197 252.083 98.5197 251.183C98.2197 249.783 99.2197 248.483 98.8197 247.083C98.6197 246.383 99.2197 245.883 99.1197 245.183C99.2197 244.583 99.0197 243.783 99.2197 243.183C99.6197 241.783 99.4197 240.483 99.5197 239.083L99.7197 237.083C99.8197 236.483 100.32 235.883 100.32 235.183C100.42 234.483 100.32 233.683 100.32 232.983C100.12 232.283 100.82 231.683 100.62 231.083C100.42 229.883 100.42 228.483 101.02 227.283C101.52 225.983 101.22 224.483 101.32 223.083L101.72 219.283C101.82 217.983 101.52 216.283 102.12 215.083L102.22 214.983L104.62 215.083Z" fill="#B3C8D3"/>
<path d="M145.72 215.083C145.52 215.883 145.32 216.683 145.52 217.483C145.72 217.983 145.52 218.883 145.22 219.383C144.82 219.983 145.52 220.783 145.02 221.283C144.52 221.783 145.12 222.783 145.02 223.483C144.92 224.083 144.62 224.683 144.62 225.383C144.52 226.683 144.92 228.183 144.22 229.483C144.02 229.883 144.62 230.283 144.12 230.683C143.82 230.983 143.92 231.283 143.92 231.583L143.72 233.483C143.62 234.683 143.62 235.983 143.42 237.283C143.32 238.683 143.22 239.983 143.02 241.383C142.72 242.583 143.32 243.983 142.72 245.183C142.32 245.883 142.72 246.683 142.62 247.383C142.52 247.983 142.02 248.583 142.02 249.283C141.92 249.883 142.22 250.683 142.02 251.283C141.72 252.083 139.82 252.083 139.62 251.183C139.32 249.783 140.32 248.483 139.92 247.083C139.72 246.383 140.32 245.883 140.22 245.183C140.32 244.583 140.12 243.783 140.32 243.183C140.72 241.783 140.52 240.483 140.62 239.083L140.82 237.083C140.92 236.483 141.42 235.883 141.42 235.183C141.52 234.483 141.42 233.683 141.42 232.983C141.22 232.283 141.92 231.683 141.72 231.083C141.52 229.883 141.52 228.483 142.12 227.283C142.62 225.983 142.32 224.483 142.42 223.083L142.82 219.283C142.92 217.983 142.62 216.283 143.22 215.083L143.32 214.983L145.72 215.083Z" fill="#B3C8D3"/>
<path d="M186.42 212.183C186.22 212.983 186.12 213.783 186.42 214.583C186.62 215.083 186.52 215.983 186.22 216.483C185.82 217.083 186.62 217.783 186.12 218.383C185.62 218.983 186.32 219.883 186.32 220.483C186.32 221.083 186.02 221.683 186.02 222.383C186.02 223.683 186.52 225.083 185.92 226.383C185.82 226.783 186.32 227.183 185.92 227.583C185.72 227.883 185.82 228.183 185.82 228.483L185.72 230.383C185.72 231.583 185.72 232.783 185.72 234.083C185.72 235.383 185.72 236.783 185.62 238.083C185.32 239.283 186.12 240.583 185.62 241.783C185.22 242.483 185.72 243.283 185.62 243.983C185.62 244.583 185.12 245.183 185.12 245.883C185.12 246.483 185.42 247.283 185.32 247.883C185.02 248.683 183.22 248.783 182.92 247.883C182.52 246.483 183.52 245.183 182.92 243.783C182.72 243.183 183.22 242.583 183.12 241.883C183.12 241.283 182.92 240.483 183.12 239.983C183.42 238.583 183.12 237.283 183.12 235.883L183.22 233.983C183.22 233.383 183.72 232.783 183.72 232.083C183.72 231.383 183.62 230.583 183.62 229.883C183.42 229.183 184.02 228.583 183.82 227.983C183.52 226.783 183.42 225.383 183.92 224.283C184.32 222.983 183.92 221.483 183.92 220.183L184.02 216.383C184.02 215.083 183.62 213.483 184.12 212.183V212.083L186.42 212.183Z" fill="#B3C8D3"/>
<path d="M86.5197 215.183C86.2197 215.883 85.9197 216.583 86.1197 217.383C86.2197 217.883 85.9197 218.683 85.6197 219.083C85.1197 219.583 85.8197 220.383 85.2197 220.783C84.6197 221.183 85.1197 222.183 85.0197 222.783C84.9197 223.383 84.5197 223.883 84.4197 224.483C84.1197 225.683 84.4197 227.083 83.6197 228.183C83.4197 228.583 83.9197 228.983 83.4197 229.283C83.1197 229.483 83.2197 229.883 83.1197 230.083L82.7197 231.783C82.5197 232.883 82.3197 234.083 82.1197 235.183C81.8197 236.383 81.7197 237.683 81.3197 238.883C80.8197 239.983 81.4197 241.283 80.7197 242.383C80.2197 242.983 80.5197 243.783 80.4197 244.383C80.3197 244.983 79.7197 245.483 79.6197 245.983C79.5197 246.583 79.7197 247.283 79.4197 247.883C79.0197 248.583 77.2197 248.383 77.0197 247.483C76.8197 246.183 78.0197 245.083 77.7197 243.683C77.6197 243.083 78.2197 242.583 78.2197 241.983C78.3197 241.383 78.2197 240.683 78.5197 240.183C79.0197 238.983 78.9197 237.683 79.2197 236.383L79.6197 234.583C79.7197 233.983 80.3197 233.483 80.4197 232.983C80.5197 232.383 80.6197 231.583 80.6197 230.883C80.5197 230.183 81.2197 229.783 81.1197 229.183C81.0197 227.983 81.2197 226.783 81.9197 225.683C82.5197 224.483 82.3197 223.083 82.6197 221.883L83.4197 218.383C83.7197 217.183 83.5197 215.583 84.2197 214.583L84.3197 214.483L86.5197 215.183Z" fill="#B3C8D3"/>
<path d="M124.92 216.483C124.82 217.283 124.72 218.083 125.12 218.883C125.42 219.383 125.32 220.283 125.12 220.783C124.82 221.483 125.72 222.083 125.22 222.683C124.82 223.283 125.52 224.083 125.62 224.783C125.62 225.383 125.52 226.083 125.52 226.683C125.62 227.983 126.32 229.383 125.82 230.683C125.72 231.083 126.32 231.383 125.92 231.883C125.72 232.183 125.82 232.483 125.92 232.783L126.02 234.683C126.12 235.883 126.32 237.083 126.42 238.383C126.52 239.783 126.72 240.983 126.72 242.383C126.62 243.583 127.52 244.783 127.12 246.083C126.82 246.883 127.32 247.483 127.42 248.283C127.42 248.883 127.02 249.583 127.12 250.183C127.12 250.783 127.52 251.483 127.52 252.183C127.32 252.983 125.52 253.283 125.12 252.483C124.52 251.183 125.32 249.783 124.72 248.483C124.42 247.883 124.82 247.183 124.72 246.583C124.72 245.983 124.42 245.283 124.42 244.683C124.52 243.283 124.12 241.983 124.02 240.683L123.82 238.783C123.82 238.183 124.22 237.483 124.12 236.883C124.02 236.183 123.92 235.383 123.72 234.683C123.42 233.983 123.92 233.383 123.72 232.783C123.32 231.583 123.02 230.283 123.42 229.083C123.62 227.683 123.12 226.383 123.02 224.983L122.72 220.983C122.62 219.683 122.02 218.083 122.42 216.783V216.683L124.92 216.483Z" fill="#B3C8D3"/>
<path d="M213.42 204.283C213.52 205.183 213.62 206.083 214.22 206.783C214.62 207.183 214.82 208.283 214.72 208.783C214.62 209.583 215.62 209.983 215.32 210.783C215.02 211.483 216.02 212.283 216.22 212.983C216.42 213.683 216.42 214.383 216.62 214.983C217.02 216.383 218.02 217.683 217.92 219.183C217.92 219.683 218.62 219.883 218.32 220.483C218.22 220.883 218.42 221.183 218.52 221.483L219.12 223.483C219.52 224.783 220.02 226.083 220.42 227.383C220.82 228.783 221.42 230.183 221.72 231.683C221.92 232.983 223.02 234.183 223.02 235.583C222.92 236.483 223.62 237.083 223.82 237.883C224.02 238.583 223.82 239.383 224.02 239.983C224.22 240.683 224.82 241.283 224.82 241.983C224.82 242.883 223.12 243.583 222.52 242.783C221.62 241.483 222.12 239.783 221.12 238.483C220.72 237.883 220.92 237.083 220.62 236.483C220.42 235.783 220.02 235.083 219.92 234.483C219.72 232.883 218.92 231.683 218.52 230.183L217.92 228.183C217.72 227.483 217.92 226.683 217.72 226.083C217.52 225.383 217.12 224.483 216.82 223.883C216.42 223.183 216.72 222.383 216.32 221.783C215.62 220.583 215.12 219.183 215.12 217.783C215.02 216.283 214.12 214.883 213.72 213.483L212.52 209.483C212.12 208.083 211.12 206.483 211.22 205.083V204.883L213.42 204.283Z" fill="#B3C8D3"/>
<path d="M164.12 213.483C164.02 214.283 163.92 215.183 164.32 215.883C164.62 216.383 164.52 217.283 164.32 217.783C164.02 218.483 164.92 219.083 164.42 219.683C164.02 220.283 164.72 221.183 164.82 221.883C164.82 222.483 164.72 223.183 164.72 223.783C164.82 225.083 165.52 226.483 165.02 227.883C164.92 228.283 165.52 228.683 165.12 229.083C164.92 229.383 165.02 229.783 165.12 230.083L165.22 231.983C165.32 233.183 165.52 234.483 165.62 235.783C165.72 237.183 165.92 238.483 165.92 239.983C165.82 241.183 166.72 242.483 166.32 243.883C166.02 244.683 166.52 245.383 166.62 246.083C166.62 246.683 166.22 247.383 166.32 248.083C166.32 248.683 166.72 249.483 166.72 250.083C166.52 250.883 164.72 251.283 164.32 250.383C163.72 248.983 164.52 247.583 163.92 246.183C163.62 245.583 164.02 244.883 163.92 244.283C163.92 243.683 163.62 242.883 163.62 242.283C163.72 240.783 163.32 239.483 163.22 238.083L163.02 236.083C163.02 235.483 163.42 234.783 163.32 234.083C163.22 233.383 163.12 232.583 162.92 231.883C162.62 231.183 163.12 230.483 162.92 229.883C162.52 228.683 162.22 227.283 162.62 225.983C162.82 224.583 162.32 223.183 162.22 221.783L161.92 217.883C161.82 216.583 161.22 214.883 161.62 213.583V213.483H164.12Z" fill="#B3C8D3"/>
<path d="M201.22 210.283C201.22 211.083 201.12 211.883 201.52 212.683C201.82 213.083 201.82 214.083 201.62 214.583C201.32 215.283 202.22 215.883 201.82 216.483C201.42 217.083 202.22 217.883 202.32 218.583C202.42 219.183 202.22 219.883 202.32 220.483C202.42 221.783 203.22 223.183 202.72 224.483C202.62 224.883 203.22 225.183 202.82 225.683C202.62 225.983 202.82 226.283 202.82 226.683L203.02 228.583C203.12 229.783 203.42 231.083 203.52 232.283C203.72 233.683 203.92 234.983 204.02 236.383C203.92 237.583 204.82 238.883 204.52 240.183C204.22 240.983 204.82 241.683 204.92 242.383C205.02 242.983 204.62 243.683 204.72 244.283C204.82 244.883 205.22 245.583 205.22 246.283C205.12 247.083 203.32 247.483 202.82 246.683C202.22 245.383 203.02 243.883 202.22 242.583C201.92 241.983 202.32 241.283 202.12 240.683C202.02 240.083 201.72 239.383 201.82 238.783C201.92 237.383 201.42 236.083 201.22 234.683L201.02 232.783C200.92 232.183 201.32 231.483 201.22 230.883C201.12 230.183 200.92 229.383 200.72 228.683C200.42 227.983 200.92 227.383 200.62 226.683C200.12 225.483 199.92 224.183 200.22 222.883C200.42 221.483 199.82 220.083 199.62 218.783L199.22 214.983C199.12 213.683 198.42 212.083 198.72 210.783V210.683L201.22 210.283Z" fill="#B3C8D3"/>
<path d="M54.9195 214.683C54.5195 215.283 54.2195 215.983 54.2195 216.683C54.3195 217.183 53.9195 217.883 53.5195 218.183C53.0195 218.583 53.6195 219.483 53.0195 219.783C52.4195 220.083 52.8195 221.083 52.6195 221.683C52.4195 222.183 52.0195 222.683 51.8195 223.183C51.4195 224.283 51.6195 225.683 50.6195 226.583C50.4195 226.883 50.8195 227.383 50.3195 227.583C50.0195 227.783 50.0195 228.083 49.9195 228.383L49.4195 229.983C49.1195 230.983 48.8195 232.083 48.4195 233.183C48.0195 234.283 47.7195 235.483 47.2195 236.583C46.6195 237.483 47.0195 238.883 46.2195 239.783C45.7195 240.283 45.9195 241.083 45.7195 241.683C45.5195 242.183 44.9195 242.583 44.7195 243.083C44.5195 243.583 44.6195 244.383 44.3195 244.783C43.9195 245.383 42.1195 244.983 42.0195 244.083C42.0195 242.783 43.2195 241.983 43.1195 240.583C43.1195 239.983 43.7195 239.583 43.8195 239.083C44.0195 238.583 44.0195 237.883 44.3195 237.383C44.9195 236.283 45.0195 235.083 45.4195 233.883L46.0195 232.283C46.2195 231.783 46.8195 231.383 47.0195 230.883C47.2195 230.283 47.3195 229.583 47.4195 228.983C47.4195 228.383 48.1195 227.983 48.1195 227.383C48.1195 226.283 48.4195 225.083 49.2195 224.183C49.9195 223.183 49.9195 221.783 50.3195 220.683L51.4195 217.483C51.8195 216.383 51.8195 214.883 52.6195 213.983L52.7195 213.883L54.9195 214.683Z" fill="#B3C8D3"/>
<path d="M229.72 260.983C229.32 260.583 229.02 260.083 228.32 260.083C227.92 260.083 227.42 259.583 227.32 259.183C227.12 258.683 226.32 258.983 226.22 258.383C226.12 257.783 225.22 257.983 224.92 257.683C224.52 257.383 224.32 256.983 224.02 256.683C223.32 256.183 222.12 256.083 221.72 255.083C221.52 254.783 221.02 255.183 221.02 254.583C221.02 254.283 220.72 254.283 220.52 254.083L219.42 253.283C218.72 252.783 217.92 252.383 217.22 251.883C216.42 251.283 215.62 250.883 214.92 250.183C214.42 249.483 213.12 249.583 212.72 248.783C212.52 248.183 211.82 248.283 211.42 247.983C211.02 247.683 211.02 247.083 210.62 246.883C210.22 246.583 209.62 246.583 209.32 246.283C209.02 245.783 210.02 244.183 210.72 244.283C211.72 244.483 212.02 245.783 213.12 245.883C213.62 245.983 213.72 246.583 214.12 246.783C214.52 247.083 215.02 247.183 215.32 247.483C216.02 248.283 216.92 248.483 217.72 249.083L218.82 249.883C219.22 250.183 219.22 250.783 219.62 250.983C220.02 251.283 220.52 251.483 221.02 251.683C221.52 251.783 221.52 252.483 222.02 252.583C222.92 252.783 223.72 253.283 224.12 254.083C224.72 254.883 225.72 255.083 226.52 255.683L228.62 257.283C229.32 257.783 230.52 258.083 231.02 258.983L231.12 259.083L229.72 260.983Z" fill="#5B7CA0"/>
<path d="M207.82 275.083C207.62 274.583 207.32 274.183 206.82 274.083C206.42 273.983 206.12 273.483 206.12 273.183C206.12 272.683 205.22 272.883 205.32 272.283C205.42 271.683 204.52 271.783 204.22 271.483C203.92 271.183 203.82 270.783 203.62 270.483C203.02 269.883 202.02 269.683 201.92 268.683C201.82 268.383 201.22 268.683 201.42 268.183C201.42 267.883 201.22 267.783 201.12 267.683L200.32 266.883C199.82 266.383 199.22 265.883 198.62 265.283C198.02 264.683 197.42 264.183 196.92 263.483C196.62 262.783 195.42 262.783 195.22 261.883C195.12 261.283 194.52 261.283 194.22 260.983C193.92 260.683 194.02 260.083 193.72 259.783C193.42 259.483 192.92 259.383 192.72 259.083C192.52 258.583 193.82 257.183 194.42 257.383C195.32 257.683 195.22 258.883 196.22 259.183C196.62 259.283 196.62 259.883 196.92 260.083C197.22 260.383 197.62 260.583 197.82 260.883C198.22 261.683 199.02 261.983 199.62 262.683L200.42 263.583C200.72 263.883 200.62 264.483 200.92 264.783C201.22 265.083 201.62 265.383 202.02 265.583C202.52 265.783 202.32 266.383 202.72 266.583C203.52 266.883 204.12 267.383 204.32 268.283C204.62 269.183 205.62 269.483 206.22 270.083L207.82 271.783C208.42 272.383 209.42 272.783 209.62 273.683V273.783L207.82 275.083Z" fill="#B3C8D3"/>
<path d="M192.22 284.083C192.02 283.683 191.82 283.183 191.22 283.083C190.82 283.083 190.619 282.583 190.519 282.183C190.519 281.683 189.62 281.983 189.72 281.383C189.82 280.783 188.92 280.883 188.72 280.583C188.52 280.283 188.419 279.883 188.119 279.583C187.619 278.983 186.619 278.783 186.519 277.883C186.419 277.583 185.919 277.883 186.019 277.383C186.019 277.083 185.82 277.083 185.72 276.883L184.92 276.083C184.42 275.583 183.82 275.083 183.32 274.583C182.82 273.983 182.22 273.483 181.72 272.883C181.42 272.183 180.319 272.183 180.119 271.383C180.119 270.883 179.419 270.883 179.119 270.483C178.919 270.183 178.92 269.683 178.72 269.383C178.42 269.083 177.92 269.083 177.72 268.683C177.62 268.183 178.82 266.883 179.42 266.983C180.32 267.283 180.119 268.483 181.119 268.583C181.519 268.683 181.42 269.283 181.82 269.483C182.02 269.783 182.52 269.883 182.72 270.183C183.12 270.983 183.92 271.283 184.42 271.783L185.22 272.583C185.42 272.883 185.419 273.383 185.619 273.683C185.919 273.983 186.319 274.283 186.619 274.483C187.019 274.583 186.92 275.283 187.32 275.383C188.02 275.683 188.72 276.183 188.82 276.983C189.12 277.783 190.019 278.083 190.519 278.683L192.019 280.283C192.519 280.883 193.52 281.183 193.72 282.083V282.183L192.22 284.083Z" fill="#B3C8D3"/>
<path d="M174.62 293.083C174.52 292.683 174.42 292.283 173.92 292.183C173.62 292.083 173.42 291.683 173.52 291.383C173.62 290.983 172.82 291.083 173.02 290.583C173.22 290.083 172.42 290.083 172.22 289.883C172.02 289.583 172.12 289.283 171.92 288.983C171.52 288.483 170.72 288.183 170.82 287.383C170.82 287.183 170.22 287.283 170.52 286.883C170.62 286.583 170.42 286.583 170.32 286.483L169.82 285.683C169.52 285.183 169.02 284.783 168.72 284.283C168.32 283.683 167.92 283.283 167.62 282.583C167.52 281.983 166.42 281.883 166.52 281.083C166.62 280.583 166.02 280.583 165.82 280.283C165.62 279.983 165.82 279.483 165.72 279.283C165.52 278.983 165.02 278.883 165.02 278.583C165.02 278.183 166.52 276.983 167.02 277.183C167.82 277.483 167.42 278.583 168.22 278.783C168.62 278.883 168.32 279.383 168.62 279.583C168.82 279.883 169.22 279.983 169.22 280.283C169.42 280.983 170.02 281.283 170.42 281.883L170.92 282.683C171.12 282.983 170.92 283.483 171.02 283.683C171.22 283.983 171.52 284.283 171.82 284.483C172.22 284.583 171.92 285.183 172.22 285.383C172.82 285.683 173.32 286.183 173.22 286.883C173.32 287.583 174.02 287.983 174.42 288.483L175.42 290.083C175.82 290.583 176.62 290.983 176.52 291.783V291.883L174.62 293.083Z" fill="#B3C8D3"/>
<path d="M32.4195 252.283C31.8195 252.283 31.2195 252.283 30.7195 252.783C30.4195 253.083 29.7195 253.183 29.3195 252.983C28.8195 252.783 28.5195 253.683 28.0195 253.283C27.5195 252.983 27.0195 253.783 26.5195 253.883C26.0195 253.983 25.5195 253.883 25.1195 253.983C24.2195 254.183 23.3195 255.083 22.2195 254.683C21.9195 254.683 21.8195 255.283 21.3195 254.883C21.0195 254.683 20.8195 254.883 20.6195 254.983L19.3195 255.283C18.4195 255.483 17.6195 255.883 16.7195 256.083C15.7195 256.283 14.8195 256.683 13.8195 256.783C12.9195 256.783 12.1195 257.783 11.1195 257.583C10.5195 257.383 10.1195 257.983 9.61951 258.083C9.11951 258.183 8.61951 257.883 8.11951 257.983C7.61951 258.083 7.21951 258.583 6.71951 258.583C6.11951 258.483 5.51951 256.783 6.01951 256.283C6.91951 255.583 8.11951 256.283 8.91951 255.383C9.31951 255.083 9.91951 255.383 10.3195 255.183C10.7195 255.083 11.2195 254.683 11.7195 254.683C12.8195 254.683 13.6195 254.083 14.6195 253.783L16.0195 253.383C16.4195 253.283 17.0195 253.583 17.5195 253.483C18.0195 253.383 18.6195 253.083 19.0195 252.883C19.4195 252.583 20.0195 252.983 20.4195 252.683C21.2195 252.083 22.1195 251.783 23.1195 251.983C24.2195 252.083 25.1195 251.383 26.0195 251.083L28.7195 250.383C29.6195 250.183 30.7195 249.383 31.7195 249.583H31.8195L32.4195 252.283Z" fill="#B3C8D3"/>
<path d="M44.2195 266.983C43.7195 267.083 43.2195 267.283 42.9195 267.783C42.8195 268.083 42.2195 268.283 41.8195 268.283C41.3195 268.183 41.3195 269.083 40.8195 268.883C40.3195 268.683 40.1195 269.583 39.7195 269.783C39.4195 269.983 38.9195 269.983 38.5195 270.183C37.8195 270.583 37.3195 271.583 36.3195 271.483C36.0195 271.483 36.1195 272.083 35.6195 271.883C35.3195 271.783 35.2195 271.983 35.0195 272.083L34.0195 272.683C33.3195 273.083 32.7195 273.583 32.0195 273.983C31.3195 274.383 30.6195 274.883 29.8195 275.283C29.0195 275.483 28.7195 276.583 27.8195 276.583C27.2195 276.483 27.0195 277.183 26.6195 277.383C26.3195 277.583 25.7195 277.383 25.3195 277.583C25.0195 277.783 24.7195 278.283 24.3195 278.383C23.8195 278.483 22.7195 276.883 23.0195 276.283C23.5195 275.483 24.7195 275.783 25.2195 274.883C25.4195 274.483 26.0195 274.683 26.3195 274.383C26.6195 274.183 26.9195 273.783 27.3195 273.683C28.2195 273.383 28.7195 272.683 29.5195 272.283L30.6195 271.683C30.9195 271.483 31.5195 271.683 31.9195 271.483C32.3195 271.283 32.7195 270.883 33.0195 270.583C33.3195 270.183 33.9195 270.483 34.1195 270.083C34.6195 269.383 35.3195 268.883 36.2195 268.883C37.1195 268.783 37.7195 267.883 38.4195 267.483L40.5195 266.283C41.2195 265.883 41.9195 264.983 42.8195 264.983H42.9195L44.2195 266.983Z" fill="#B3C8D3"/>
<path d="M57.6196 280.783C57.0196 280.783 56.5196 280.883 56.1196 281.283C55.9196 281.583 55.2196 281.683 54.8196 281.583C54.3196 281.383 54.1196 282.283 53.6196 281.983C53.1196 281.683 52.7196 282.483 52.3196 282.683C51.9196 282.783 51.4196 282.783 51.0196 282.883C50.2196 283.183 49.4196 283.983 48.4196 283.783C48.1196 283.783 48.0196 284.383 47.6196 284.083C47.3196 283.883 47.2196 284.083 47.0196 284.183L45.8196 284.583C45.0196 284.883 44.2196 285.183 43.4196 285.483C42.5196 285.783 41.7196 286.183 40.8196 286.383C39.9196 286.383 39.4196 287.483 38.4196 287.283C37.8196 287.083 37.5196 287.683 37.0196 287.883C36.6196 287.983 36.0196 287.683 35.6196 287.883C35.2196 287.983 34.8196 288.483 34.4196 288.483C33.8196 288.483 33.1196 286.683 33.6196 286.183C34.3196 285.483 35.5196 286.083 36.2196 285.183C36.5196 284.783 37.1196 285.183 37.5196 284.883C37.9196 284.783 38.3196 284.383 38.7196 284.383C39.7196 284.283 40.4196 283.683 41.3196 283.383L42.6196 282.983C43.0196 282.883 43.6196 283.183 44.0196 282.983C44.4196 282.883 44.9196 282.583 45.3196 282.283C45.7196 281.883 46.3196 282.283 46.6196 281.983C47.3196 281.383 48.1196 280.983 49.0196 281.183C50.0196 281.183 50.8196 280.483 51.6196 280.183L54.1196 279.383C54.9196 279.083 55.9196 278.283 56.8196 278.483H56.9196L57.6196 280.783Z" fill="#B3C8D3"/>
<path d="M309.52 342.983C309.52 342.983 309.72 342.683 310.22 342.083C310.62 341.483 311.32 340.583 312.32 339.383C314.12 336.983 316.82 333.283 320.22 327.983C323.62 322.683 327.82 315.883 331.62 306.483C332.52 304.083 333.42 301.683 334.12 298.883C334.82 296.183 335.32 293.183 335.42 289.983C335.42 286.783 334.92 283.183 333.12 279.883C331.32 276.583 328.52 273.883 325.22 271.983C321.92 270.083 318.42 269.083 315.12 268.483C311.82 267.883 308.72 267.683 305.72 267.683C299.72 267.683 294.42 268.483 289.72 269.383C280.22 271.283 273.02 273.783 267.42 275.883C261.92 278.083 258.12 279.883 255.72 281.183C254.52 281.783 253.62 282.283 253.02 282.583C252.42 282.883 252.22 283.083 252.22 283.083L253.72 285.583C253.72 285.583 253.92 285.483 254.52 285.283C255.02 285.083 255.82 284.783 257.02 284.283C259.22 283.383 262.82 282.083 268.02 280.383C273.22 278.683 280.22 276.583 289.22 274.983C293.72 274.183 298.82 273.483 304.42 273.383C307.22 273.383 310.12 273.483 313.02 273.883C315.92 274.383 318.92 275.083 321.62 276.583C324.32 277.983 326.52 279.883 327.82 282.183C329.12 284.383 329.72 286.983 329.72 289.583C329.72 294.883 328.12 299.983 326.52 304.383C323.02 313.283 319.02 320.083 315.82 325.283C312.62 330.483 310.12 334.183 308.52 336.483C306.92 338.783 306.12 339.883 306.12 339.883L309.52 342.983Z" fill="#2D3962"/>
<path d="M-5.08028 116.583C-2.28028 120.683 2.21972 122.383 3.61972 118.583C5.01972 114.883 2.61972 111.383 0.119724 111.583C-2.48028 111.783 -7.28028 113.483 -5.08028 116.583Z" fill="#C3C3C3"/>
<path d="M263.42 161.483C266.22 165.583 270.719 167.283 272.119 163.483C273.519 159.783 271.119 156.283 268.619 156.483C266.019 156.583 261.32 158.283 263.42 161.483Z" fill="#C3C3C3"/>
<path d="M91.6196 71.0832C95.3196 67.7832 96.2196 62.9832 92.3196 62.1832C88.4196 61.3832 85.3196 64.1832 85.9196 66.6832C86.4196 69.2832 88.8196 73.6832 91.6196 71.0832Z" fill="#C3C3C3"/>
<path d="M120.52 34.3832C117.12 34.0832 114.32 35.7832 115.72 38.0832C117.12 40.4832 119.92 40.6832 121.02 39.2832C121.92 37.8832 123.02 34.5832 120.52 34.3832Z" fill="#C3C3C3"/>
<path d="M-0.180366 210.683C-3.58037 210.383 -6.38036 212.083 -4.98036 214.383C-3.58036 216.783 -0.780365 216.983 0.319634 215.583C1.31963 214.083 2.41963 210.883 -0.180366 210.683Z" fill="#C3C3C3"/>
<path d="M248.82 83.3832C245.42 83.0832 242.62 84.7832 244.02 87.0832C245.42 89.4832 248.22 89.6832 249.32 88.2832C250.22 86.7832 251.42 83.5832 248.82 83.3832Z" fill="#C3C3C3"/>
<path d="M203.82 117.283C200.42 116.983 197.62 118.683 199.02 120.983C200.42 123.383 203.22 123.583 204.22 122.183C205.32 120.783 206.42 117.583 203.82 117.283Z" fill="#C3C3C3"/>
<path d="M36.7195 51.2831C33.3195 50.9831 30.5195 52.6831 31.9195 54.9831C33.3195 57.3831 36.1195 57.5831 37.1195 56.1831C38.2195 54.6831 39.3195 51.4831 36.7195 51.2831Z" fill="#C3C3C3"/>
<path d="M92.1197 276.683C88.7197 276.383 85.9197 278.083 87.3197 280.383C88.7197 282.783 91.5197 282.983 92.6197 281.583C93.6197 280.183 94.7197 276.883 92.1197 276.683Z" fill="#C3C3C3"/>
<path d="M194.92 47.9831C191.52 47.6831 188.72 49.3831 190.12 51.6831C191.52 54.0831 194.32 54.2831 195.32 52.8831C196.32 51.4831 197.52 48.2831 194.92 47.9831Z" fill="#C3C3C3"/>
<path d="M223.22 201.183C178.62 229.883 82.6196 241.883 24.5196 212.083L22.8196 214.883C22.8196 214.883 120.92 267.683 241.22 241.683L223.22 201.183Z" fill="#2D3962"/>
<path d="M139.12 82.5831C82.8198 77.3831 7.61982 89.6831 6.01982 158.483C4.41982 227.283 93.4198 231.583 132.62 231.583C171.82 231.583 233.12 220.183 242.92 172.383C252.62 124.483 215.02 89.5831 139.12 82.5831Z" fill="#FFFCF2"/>
<path d="M139.32 80.0832C146.22 80.8832 153.22 81.8832 160.02 83.1832C166.82 84.4832 173.62 85.8832 180.22 87.4832C184.22 88.3832 190.22 90.2832 195.92 92.6832C201.72 95.0832 207.12 98.0832 210.62 100.383C215.22 103.483 220.12 106.583 224.52 110.183C228.92 113.783 232.92 117.883 235.52 122.383C238.12 126.883 241.42 132.483 243.72 138.983C246.02 145.383 247.22 152.483 247.12 158.583C247.02 164.283 246.22 169.783 244.72 175.283C243.32 180.783 241.12 185.983 238.22 190.883C232.42 201.083 223.22 209.783 212.92 215.983C202.52 222.283 191.02 226.283 179.82 228.483C172.72 229.983 166.52 232.283 159.12 232.283C153.62 232.483 148.22 233.183 142.72 233.483C142.72 233.483 140.72 233.583 137.62 233.683C134.52 233.783 130.42 233.783 126.32 233.683C118.12 233.583 110.02 233.083 110.02 233.083C99.6197 232.483 88.9197 231.383 78.2197 229.483C67.5197 227.583 56.8197 224.783 46.6197 220.483C41.1197 218.183 35.8197 215.383 30.8197 211.983C25.8197 208.683 21.2197 204.683 17.3197 200.083C9.31972 190.883 4.51973 178.883 3.71973 166.283C3.51973 164.983 3.61973 163.583 3.61973 162.283C3.61973 160.883 3.61973 159.583 3.61973 158.183C3.71973 156.783 3.71972 155.483 3.81972 154.083L3.91972 151.983C4.01972 151.283 4.11973 150.583 4.11973 149.883C4.31973 148.483 4.41973 147.083 4.61973 145.783C4.91973 144.383 5.11972 143.083 5.41972 141.683C5.51972 140.983 5.61972 140.283 5.81972 139.583L6.41972 137.583C6.81972 136.183 7.11973 134.783 7.61973 133.483C11.1197 122.683 17.7197 112.483 26.5197 105.483C31.6197 101.383 37.0197 97.6832 42.6197 94.4832C48.2197 91.2832 54.2197 88.5832 60.3197 86.5832C70.9197 83.1832 81.9197 81.9832 92.7197 80.7832C103.62 79.5832 116.32 78.5832 127.32 79.2832C134.12 79.7832 138.32 81.2832 138.92 82.3832C139.22 82.9832 138.62 83.3832 136.92 83.7832C135.32 84.0832 132.62 84.2832 128.82 84.1832C123.02 84.0832 117.22 84.0832 111.42 84.1832C105.62 84.2832 99.8197 84.5832 94.0197 84.9832C82.5197 85.9832 70.9197 87.9832 60.2197 92.2832C57.7197 93.1832 55.3197 94.2832 52.8197 95.1832C50.4197 96.2832 47.9197 97.2832 45.6197 98.4832C40.9197 100.783 36.3197 103.483 32.3197 106.883C28.2197 110.183 24.3197 114.283 21.1197 118.783C17.8197 123.183 15.4197 128.083 13.5197 132.483C13.0197 133.883 12.4197 135.183 11.9197 136.583C11.5197 137.983 11.1197 139.383 10.6197 140.783C10.0197 143.583 9.31973 146.383 9.01973 149.283C8.51973 152.083 8.51972 154.983 8.31972 157.783C8.21972 159.183 8.31972 160.583 8.41972 161.983L8.51973 164.083C8.51973 164.783 8.61973 165.483 8.71973 166.183C9.11973 171.783 10.6197 177.183 12.6197 182.283C14.7197 187.383 17.5197 192.183 21.1197 196.383C21.1197 196.383 21.2197 196.483 21.3197 196.683C21.4197 196.883 21.7197 197.083 22.0197 197.483C22.6197 198.083 23.4197 198.983 24.5197 200.083C25.6197 201.183 26.9197 202.283 28.3197 203.483C29.8197 204.583 31.3197 205.883 33.0197 207.083C34.7197 208.183 36.3197 209.383 38.0197 210.283C38.8197 210.783 39.6197 211.183 40.4197 211.683C41.2197 212.083 41.9197 212.483 42.6197 212.783C45.3197 214.183 47.2197 214.983 47.2197 214.983C52.0197 217.183 56.9197 219.183 62.0197 220.883C67.0197 222.683 72.2197 224.083 77.5197 225.083C88.9197 227.383 103.22 228.583 114.92 228.783C126.62 228.783 137.42 230.083 148.02 228.783C168.42 226.583 191.32 221.583 209.42 212.283C219.52 206.983 228.62 198.983 234.32 188.983C237.22 183.983 239.22 178.483 240.32 172.883C241.52 167.283 242.02 161.483 241.82 155.883C241.82 155.883 241.82 155.683 241.82 155.183C241.82 154.683 241.72 154.083 241.62 153.183C241.52 152.283 241.52 151.283 241.32 150.083C241.12 148.883 241.02 147.583 240.62 146.083C240.42 145.383 240.32 144.583 240.12 143.783C239.92 142.983 239.72 142.183 239.42 141.383C239.02 139.783 238.32 138.083 237.72 136.383C236.32 132.983 234.42 129.483 232.22 126.183C229.92 122.983 227.42 119.883 224.82 117.183C223.52 115.883 222.22 114.683 220.92 113.483C219.62 112.383 218.42 111.283 217.12 110.483C214.72 108.683 212.62 107.283 211.22 106.283C210.52 105.783 209.92 105.483 209.52 105.183C209.12 104.983 208.92 104.783 208.92 104.783C204.22 101.983 198.92 99.3832 193.32 97.1832C187.72 94.9832 181.82 93.1832 175.82 91.5832C163.92 88.4832 151.72 86.5832 141.12 85.0832C140.42 84.9832 139.62 84.8832 138.92 84.7832L139.32 80.0832Z" fill="#B3C8D3"/>
<path d="M151.02 215.683C209.52 207.083 227.62 152.283 230.32 119.583C242.52 134.083 246.92 152.083 242.82 172.383C233.02 220.183 171.72 231.583 132.52 231.583C98.2197 231.583 25.6197 228.283 9.21973 181.183C15.4197 186.183 43.4197 231.383 151.02 215.683Z" fill="#B3C8D3"/>
<path d="M118.02 168.183C118.02 168.183 111.82 155.383 95.2198 153.083C95.2198 153.083 84.4198 176.383 65.9198 177.483C52.4198 178.383 37.0198 168.583 37.0198 168.583C37.0198 168.583 47.7198 189.783 77.0198 191.483C107.32 193.283 118.02 168.183 118.02 168.183Z" fill="#FF606F"/>
<path d="M171.12 94.1831C171.12 94.1831 169.82 94.7831 167.52 95.8831C165.22 96.9831 161.92 98.3831 157.92 100.083C153.92 101.783 149.22 103.583 144.02 105.283C138.92 106.983 133.32 108.583 127.72 109.583C124.92 110.083 122.12 110.383 119.42 110.383C118.72 110.383 118.12 110.283 117.42 110.283C116.82 110.183 116.12 110.183 115.52 109.983C114.32 109.783 113.32 109.383 112.72 108.883C112.22 108.483 112.12 108.283 112.22 107.383C112.32 106.583 112.72 105.583 113.32 104.683C114.42 102.783 115.92 101.083 117.42 99.5831C120.32 96.4831 123.12 94.1831 125.02 92.5831C126.02 91.7831 126.72 91.1831 127.32 90.7831C127.82 90.3831 128.12 90.1831 128.12 90.1831L126.22 87.6831C126.22 87.6831 125.62 87.9831 124.32 88.7831C123.02 89.5831 121.02 90.9831 118.32 93.1831C116.92 94.2831 115.42 95.6831 113.72 97.3831C112.02 99.0831 110.22 101.083 108.62 104.183C108.22 104.983 107.92 105.883 107.72 106.883C107.62 107.983 107.62 109.283 108.22 110.483C108.32 110.783 108.52 111.083 108.72 111.283C108.92 111.583 109.12 111.783 109.32 112.083C109.82 112.483 110.32 112.883 110.82 113.183L111.62 113.583C111.92 113.683 112.12 113.783 112.42 113.883L113.22 114.183L114.02 114.383C116.02 114.883 118.12 114.983 120.22 114.983C122.32 114.983 124.52 114.783 126.72 114.383C131.22 113.683 135.22 112.683 138.82 111.583C142.42 110.483 145.72 109.383 148.62 108.283C154.42 106.083 159.02 103.983 162.52 102.283C166.02 100.583 168.52 99.1831 170.02 98.2831C171.62 97.3831 172.32 96.8831 172.32 96.8831L171.12 94.1831Z" fill="#B3C8D3"/>
<path d="M123.32 90.5832L147.22 26.7832L169.52 29.9832L172.22 96.3832C133.32 99.7832 123.32 90.5832 123.32 90.5832Z" fill="#A49D9E"/>
<path d="M169.52 29.9832C169.52 29.9832 160.62 22.5832 147.22 26.8832C147.22 26.8832 154.52 32.1832 169.52 29.9832Z" fill="#FFFCF2"/>
<path d="M138.72 50.2832C139.32 50.7832 139.82 51.2832 140.52 51.4832C140.92 51.5832 141.62 52.1832 141.92 52.4832C142.32 52.9832 143.12 52.7832 143.42 53.2832C143.62 53.4832 143.92 53.6832 144.22 53.7832C144.52 53.8832 144.92 53.8832 145.22 54.0832C145.72 54.2832 146.22 54.6832 146.72 54.8832C147.82 55.2832 149.12 55.3832 150.22 56.0832C150.62 56.2832 151.02 55.9832 151.32 56.3832C151.52 56.5832 151.82 56.5832 152.12 56.6832L153.82 56.9832C154.92 57.1832 156.02 57.2832 157.22 57.3832C158.42 57.4832 159.62 57.4832 160.92 57.5832C162.02 57.7832 163.22 57.1832 164.32 57.3832C165.02 57.4832 165.62 57.1832 166.32 57.0832C166.92 56.9832 167.52 57.1832 168.02 57.0832C168.62 56.9832 169.22 56.6832 169.82 56.5832C170.52 56.5832 171.02 57.5832 170.22 57.9832C169.02 58.5832 167.62 58.1832 166.42 58.6832C165.82 58.8832 165.22 58.6832 164.62 58.7832C164.02 58.8832 163.32 58.9832 162.82 58.9832C161.52 58.8832 160.22 59.0832 158.92 58.9832C158.92 58.9832 158.42 58.9832 158.02 58.8832C157.52 58.8832 157.12 58.7832 157.12 58.7832C156.52 58.6832 155.92 58.3832 155.42 58.2832C154.82 58.1832 154.02 58.0832 153.32 58.0832C152.62 58.0832 152.12 57.6832 151.52 57.5832C150.32 57.4832 149.12 57.2832 148.12 56.5832C147.52 56.2832 146.92 56.0832 146.32 55.8832C145.72 55.6832 145.12 55.4832 144.52 55.1832C144.52 55.2832 141.32 53.4832 141.32 53.4832C140.22 52.8832 138.82 52.1832 138.02 51.2832L137.92 51.1832L138.72 50.2832Z" fill="#FFFCF2"/>
<path d="M136.12 56.5833C136.72 57.1833 137.32 57.7833 138.12 58.0833C138.62 58.2833 139.32 58.8833 139.62 59.3833C140.02 59.9833 140.92 59.8833 141.22 60.4833C141.52 61.0833 142.52 61.1833 143.12 61.5833C143.62 61.9833 144.22 62.2833 144.72 62.6833C145.32 62.9833 146.02 63.2833 146.62 63.4833C147.22 63.7833 147.92 63.9833 148.52 64.3833C148.92 64.5833 149.32 64.3833 149.62 64.8833C149.82 65.1833 150.22 65.1833 150.52 65.2833L152.42 65.7833C153.02 65.9833 153.62 66.0833 154.22 66.1833C154.82 66.2833 155.52 66.3833 156.12 66.4833C156.82 66.4833 157.52 66.5833 158.22 66.5833C158.92 66.5833 159.62 66.5833 160.32 66.5833C160.92 66.6833 161.52 66.4833 162.22 66.3833C162.82 66.2833 163.52 66.0833 164.12 66.0833C164.92 66.1833 165.52 65.6833 166.22 65.4833C166.82 65.2833 167.52 65.2833 168.12 65.0833C168.72 64.7833 169.32 64.2833 169.82 64.0833C170.52 63.7833 171.42 64.5833 170.62 65.2833C169.42 66.2833 167.82 66.3833 166.62 67.0833C166.02 67.3833 165.32 67.3833 164.62 67.5833C163.92 67.6833 163.22 68.0833 162.62 67.9833C161.12 68.0833 159.72 68.2833 158.22 68.2833L156.12 68.0833C155.42 68.0833 154.82 67.5833 154.12 67.4833C153.42 67.3833 152.52 67.2833 151.82 67.0833C151.12 66.9833 150.52 66.4833 149.82 66.4833C148.52 66.2833 147.12 65.7833 146.12 64.9833C144.92 64.0833 143.42 63.6833 142.22 62.9833C142.22 62.9833 141.32 62.3833 140.52 61.8833C140.12 61.5833 139.62 61.2833 139.32 61.0833C139.02 60.8833 138.82 60.6833 138.82 60.6833C137.72 59.7833 136.22 58.9833 135.32 57.9833L135.22 57.8833L136.12 56.5833Z" fill="#FFFCF2"/>
<path d="M132.72 66.1831C133.42 66.6831 134.12 67.2831 134.92 67.4831C135.42 67.5831 136.22 68.2831 136.62 68.5831C137.12 69.0831 138.02 68.9831 138.42 69.4831C138.62 69.7831 139.02 69.8831 139.42 69.9831C139.82 70.0831 140.22 70.1831 140.62 70.2831C141.22 70.5831 141.82 70.8831 142.42 71.1831C143.72 71.6831 145.32 71.7831 146.62 72.4831C147.02 72.6831 147.52 72.3831 147.92 72.7831C148.22 72.9831 148.52 72.9831 148.92 73.0831C148.92 73.0831 149.42 73.1831 149.92 73.2831C150.42 73.3831 150.92 73.4831 150.92 73.4831C151.52 73.5831 152.22 73.6831 152.92 73.7831C153.62 73.8831 154.32 73.8831 154.92 73.9831C155.62 74.0831 156.42 74.0831 157.12 74.0831C157.82 74.0831 158.62 74.1831 159.32 74.1831C160.62 74.3831 162.02 73.7831 163.42 73.9831C164.22 74.0831 165.02 73.7831 165.82 73.6831C166.52 73.5831 167.22 73.7831 167.92 73.6831C168.62 73.5831 169.32 73.1831 170.02 73.1831C170.82 73.0831 171.42 74.0831 170.42 74.5831C169.02 75.1831 167.42 74.8831 165.92 75.3831C165.22 75.5831 164.52 75.3831 163.82 75.4831C163.12 75.5831 162.32 75.6831 161.62 75.6831C160.02 75.5831 158.62 75.7831 157.02 75.7831C157.02 75.7831 156.52 75.7831 155.92 75.7831C155.42 75.7831 154.82 75.6831 154.82 75.6831C154.12 75.5831 153.42 75.2831 152.72 75.1831C151.92 75.0831 151.02 74.9831 150.32 74.9831C149.52 74.9831 148.92 74.5831 148.22 74.4831C146.82 74.3831 145.32 74.0831 144.12 73.3831C142.72 72.7831 141.22 72.4831 139.72 71.8831C139.72 71.9831 135.82 70.0831 135.82 70.0831C134.52 69.3831 132.82 68.5831 131.82 67.6831L131.72 67.5831L132.72 66.1831Z" fill="#FFFCF2"/>
<path d="M129.72 73.4832C129.72 73.4832 133.02 65.0832 137.62 53.5832C139.92 47.7832 142.42 41.1832 145.02 34.4832C145.62 32.7832 146.32 31.0832 146.92 29.3832L147.42 28.0832L147.62 27.4832L147.72 27.3832C148.52 27.0832 149.32 26.7832 150.02 26.5832C153.32 25.5832 156.82 25.2832 160.02 25.8832C161.62 26.1832 163.22 26.6832 164.72 27.4832C165.42 27.8832 166.22 28.2832 166.92 28.7832C167.22 28.9832 167.62 29.2832 167.92 29.5832C168.12 29.6832 168.22 29.8832 168.42 29.9832C168.52 30.0832 168.62 30.0832 168.62 30.1832H168.72C168.92 33.6832 169.02 37.1832 169.22 40.6832C169.62 47.8832 169.92 54.8832 170.32 61.0832C171.02 73.4832 171.52 82.4832 171.52 82.4832C171.52 82.4832 171.32 73.4832 171.12 61.0832C170.92 54.8832 170.82 47.7832 170.62 40.5832C170.52 38.7832 170.52 36.9832 170.42 35.1832L170.32 32.4832V31.0832V30.3832V30.0832C170.32 29.8832 170.32 29.6832 170.22 29.4832L169.82 29.0832C169.72 29.0832 169.72 28.9832 169.62 28.8832C169.42 28.6832 169.32 28.5832 169.12 28.3832C168.72 28.0832 168.42 27.7832 168.02 27.4832C167.32 26.8832 166.52 26.4832 165.72 25.9832C164.12 25.0832 162.32 24.5832 160.62 24.1832C157.12 23.5832 153.32 23.8832 149.82 24.9832C148.92 25.2832 148.02 25.6832 147.12 25.9832L146.72 26.2832C146.62 26.3832 146.62 26.4832 146.62 26.5832L146.42 27.0832L146.22 27.6832L145.72 28.9832C145.12 30.6832 144.52 32.3832 143.82 34.0832C141.42 40.8832 139.02 47.4832 136.92 53.3832C132.72 65.0832 129.72 73.4832 129.72 73.4832Z" fill="#A49D9E"/>
<path d="M128.72 147.683C125.52 159.683 126.72 170.283 131.22 171.283C135.82 172.283 142.02 163.383 145.22 151.283C148.42 139.283 147.22 128.683 142.72 127.683C138.12 126.683 131.82 135.683 128.72 147.683Z" fill="#5B7CA0"/>
<path d="M69.7198 136.183C66.5198 148.183 67.7198 158.783 72.2198 159.783C76.8198 160.783 83.0198 151.883 86.2198 139.783C89.4198 127.783 88.2198 117.183 83.7198 116.183C79.2198 115.183 72.9198 124.183 69.7198 136.183Z" fill="#5B7CA0"/>
<path d="M93.9197 140.083C93.9197 140.083 94.1197 139.383 94.4197 138.183C94.7197 136.983 95.0197 135.283 95.3197 133.283C95.8197 129.283 95.8197 123.883 93.5197 119.483C92.9197 118.383 92.1197 117.383 91.0197 116.483C90.0197 115.583 88.6197 114.983 87.2197 114.783C85.8197 114.583 84.4197 114.783 83.3197 115.183C82.1197 115.583 81.1197 116.183 80.3197 116.883C78.6197 118.183 77.5197 119.583 76.8197 120.583C76.4197 121.083 76.2197 121.483 76.0197 121.783C75.8197 122.083 75.7197 122.183 75.7197 122.183C75.7197 122.183 75.8197 122.083 76.1197 121.783C76.3197 121.583 76.7197 121.183 77.2197 120.783C78.1197 119.983 79.5197 118.883 81.2197 118.083C82.9197 117.283 85.0197 116.783 86.7197 117.283C88.5197 117.783 89.8197 119.283 90.7197 120.983C92.6197 124.383 93.4197 129.383 93.7197 133.283C93.9197 135.283 93.9197 136.983 93.9197 138.183C93.9197 139.383 93.9197 140.083 93.9197 140.083Z" fill="#5B7CA0"/>
<path d="M152.82 151.583C152.82 151.583 153.02 150.883 153.32 149.683C153.62 148.483 153.92 146.783 154.22 144.783C154.72 140.783 154.72 135.383 152.42 130.983C151.82 129.883 151.02 128.883 149.92 127.983C148.92 127.083 147.52 126.483 146.12 126.283C144.72 126.083 143.32 126.283 142.22 126.683C141.02 127.083 140.02 127.683 139.22 128.383C137.52 129.683 136.42 131.083 135.72 132.083C135.32 132.583 135.12 132.983 134.92 133.283C134.72 133.583 134.62 133.683 134.62 133.683C134.62 133.683 134.72 133.583 135.02 133.283C135.22 133.083 135.62 132.683 136.12 132.283C137.02 131.483 138.42 130.383 140.12 129.583C141.82 128.783 143.92 128.283 145.62 128.783C147.42 129.283 148.72 130.783 149.62 132.483C151.52 135.883 152.32 140.883 152.62 144.783C152.82 146.783 152.82 148.483 152.82 149.683C152.82 150.883 152.82 151.583 152.82 151.583Z" fill="#5B7CA0"/>
<path d="M160.12 166.983C160.12 166.983 160.02 167.083 159.92 167.283C159.82 167.483 159.52 167.783 159.22 168.183C158.62 168.983 157.72 170.183 156.52 171.483C155.32 172.783 153.82 174.283 152.22 175.683C150.52 177.083 148.62 178.483 146.62 179.683C142.62 182.083 138.12 183.583 134.72 184.283C133.82 184.383 133.12 184.583 132.42 184.683C131.72 184.783 131.12 184.783 130.62 184.783C129.62 184.883 129.02 184.883 129.02 184.883L129.12 187.983C129.12 187.983 130.22 188.283 133.32 188.383C134.82 188.283 136.92 188.283 139.42 187.583C142.02 187.083 145.02 185.883 148.42 183.983C151.82 182.083 154.32 179.883 156.32 177.983C158.22 176.083 159.62 174.283 160.52 172.883C161.52 171.483 162.02 170.383 162.32 169.583C162.62 168.883 162.72 168.483 162.72 168.483L160.12 166.983Z" fill="#B3C8D3"/>
<path d="M137.92 133.983C136.92 133.383 132.92 139.283 130.62 147.383C130.12 149.483 129.52 151.383 129.32 153.183C129.22 154.083 129.02 154.983 128.92 155.783C128.82 156.583 128.82 157.383 128.82 158.083C128.72 159.483 128.92 160.683 129.12 161.483C129.32 162.283 129.52 162.683 129.82 162.683C130.12 162.683 130.32 162.283 130.62 161.483C130.92 160.783 131.12 159.683 131.52 158.383C131.72 157.783 131.82 157.083 132.02 156.283C132.22 155.483 132.52 154.683 132.72 153.883C133.12 152.183 133.72 150.283 134.22 148.383C136.42 140.583 138.62 134.383 137.92 133.983Z" fill="#FFFCF2"/>
<path d="M139.22 131.683C138.92 131.483 138.42 131.683 138.12 132.183C137.82 132.683 137.92 133.283 138.22 133.483C138.52 133.683 139.12 133.483 139.32 132.983C139.62 132.483 139.52 131.883 139.22 131.683Z" fill="#FFFCF2"/>
<path d="M78.4197 124.383C77.5197 123.783 73.6197 128.883 71.4197 136.183C70.9197 138.083 70.4197 139.783 70.2197 141.483C70.1197 142.283 70.0197 143.083 69.9197 143.783C69.9197 144.483 69.9197 145.183 69.9197 145.883C69.9197 147.183 70.1197 148.183 70.3197 148.883C70.5197 149.583 70.7197 149.983 71.0197 149.983C71.3197 149.983 71.5197 149.583 71.8197 148.983C72.1197 148.283 72.2197 147.383 72.6197 146.283C72.8197 145.683 72.9197 145.083 73.1197 144.383C73.3197 143.683 73.5197 142.983 73.7197 142.283C74.1197 140.783 74.6197 139.083 75.1197 137.383C77.1197 130.383 79.2197 124.883 78.4197 124.383Z" fill="#FFFCF2"/>
<path d="M79.6198 122.383C79.3198 122.183 78.8198 122.383 78.5198 122.783C78.2198 123.183 78.3198 123.783 78.6198 123.983C78.9198 124.183 79.4198 123.983 79.7198 123.583C80.0198 123.083 80.0198 122.583 79.6198 122.383Z" fill="#FFFCF2"/>
<path d="M271.82 191.183C271.82 191.183 269.02 192.883 264.82 195.483C263.72 196.183 262.42 196.983 261.12 197.783C259.92 198.683 258.62 199.583 257.32 200.483C256.02 201.383 254.72 202.483 253.32 203.483C252.02 204.483 250.72 205.683 249.42 206.683C248.12 207.783 246.92 208.983 245.62 210.083C244.42 211.183 243.22 212.383 242.22 213.583C241.12 214.783 240.12 215.883 239.22 216.983C238.32 218.083 237.42 219.183 236.72 220.183C235.22 222.183 234.12 223.883 233.42 225.183C232.72 226.383 232.42 227.183 232.42 227.183C232.42 227.183 233.12 226.683 234.32 226.083C235.52 225.383 237.32 224.583 239.42 223.783C240.52 223.383 241.72 222.983 242.92 222.583C244.12 222.183 245.52 221.883 246.92 221.483C248.32 221.183 249.72 220.783 251.22 220.583C252.72 220.383 254.12 219.983 255.62 219.883C257.12 219.683 258.52 219.483 260.02 219.383C261.52 219.283 262.92 219.083 264.32 219.083C265.72 218.983 267.02 218.983 268.32 218.883C269.52 218.883 270.62 218.883 271.72 218.983C276.42 219.083 279.52 219.183 279.52 219.183L271.82 191.183Z" fill="#2D3962"/>
<path d="M270.02 228.883C270.02 228.883 267.82 228.483 264.42 227.783C263.52 227.583 262.62 227.483 261.72 227.283C260.62 227.083 259.52 226.983 258.32 226.783C257.12 226.583 256.02 226.483 254.72 226.283C253.52 226.083 252.32 226.083 251.12 225.983C249.92 225.883 248.72 225.883 247.62 225.783C246.42 225.783 245.32 225.783 244.12 225.783C243.02 225.783 241.92 225.783 240.92 225.883C239.92 225.983 238.92 225.983 238.12 226.083C237.22 226.183 236.42 226.283 235.72 226.383C235.02 226.483 234.42 226.583 233.92 226.683C232.92 226.883 232.42 226.983 232.42 226.983C232.42 226.983 233.02 227.183 233.92 227.483C234.42 227.683 234.92 227.883 235.62 228.183C236.22 228.483 236.92 228.783 237.72 229.083C238.42 229.483 239.32 229.883 240.12 230.283C240.92 230.683 241.82 231.183 242.72 231.783C243.62 232.283 244.52 232.883 245.42 233.383C246.32 233.983 247.22 234.583 248.12 235.283C249.02 235.883 249.92 236.483 250.72 237.183C251.52 237.783 252.32 238.483 253.02 239.083C253.72 239.683 254.42 240.283 255.12 240.783C255.82 241.383 256.52 242.083 257.22 242.583C259.82 244.883 261.52 246.383 261.52 246.383L270.02 228.883Z" fill="#2D3962"/>
</g>
<path d="M223 9.87939H302L295 127.879H223V9.87939Z" fill="#4F8BAD"/>
<path d="M244.094 52.9028C247.281 49.7518 251.273 47.3169 256.071 45.5981C271.647 40.2987 281.996 46.9767 287.116 65.6323C292.523 96.4624 284.377 112.576 262.678 113.972C252.938 114.438 246.493 111.681 243.342 105.701L241.838 113.328L237.111 112.952L237.756 94.314L248.176 92.8101C250.217 106.238 255.122 110.696 262.893 106.184C271.809 100.347 273.903 87.0093 269.177 66.1694C264.522 53.422 257.056 50.3784 246.779 57.0386C244.13 59.2228 242.626 63.2511 242.268 69.1235L235.554 71.1108L237.434 20.5151L284.699 20.0317L286.203 42.3755L283.034 43.02L277.019 28.8403L247.263 28.0347L244.094 52.9028ZM277.395 87.2778C277.896 83.0884 276.822 77.4487 274.172 70.3589C276.571 79.6688 276.392 89.0861 273.635 98.6108C275.64 95.2091 276.893 91.4315 277.395 87.2778ZM277.609 95.9253L276.589 97.3218C275.586 100.186 273.742 103.284 271.057 106.614C274.96 104.179 277.144 100.616 277.609 95.9253ZM277.072 68.7476L273.903 64.397C278.415 71.9523 280.205 79.8657 279.274 88.1372C281.459 81.5487 280.725 75.0854 277.072 68.7476Z" fill="#FFFEFA"/>
</svg>
