<svg width="330" height="305" viewBox="0 0 330 305" fill="none" xmlns="http://www.w3.org/2000/svg">
<mask id="mask0" style="mask-type:alpha" maskUnits="userSpaceOnUse" x="0" y="0" width="330" height="289">
<rect x="4.33252" y="0.600098" width="325.608" height="283.174" transform="rotate(0.781859 4.33252 0.600098)" fill="#C4C4C4"/>
</mask>
<g mask="url(#mask0)">
<path d="M256.603 287.848C256.603 287.848 235.22 319.732 173.607 319.87C111.995 320.076 92.4624 289.841 92.4624 289.841C92.4624 289.841 209.04 278.228 256.603 287.848Z" fill="#2D3962"/>
<path d="M169.906 223.05C249.406 225.043 289.362 286.062 289.362 286.062H57.7839C57.7839 286.062 86.4999 220.92 169.906 223.05Z" fill="#FF606F"/>
<path d="M81.9082 254.384C99.453 238.168 127.689 222.02 169.906 223.05C212.124 224.15 243.17 241.809 263.045 258.164C260.509 259.057 240.977 275.411 177.856 274.655C114.736 273.968 81.9082 254.384 81.9082 254.384Z" fill="#2D3962"/>
<path d="M242.005 145.815C272.091 122.314 299.848 80.5359 299.848 80.5359L307.249 86.1018C307.249 86.1018 318.969 165.742 271.68 191.785L242.005 145.815Z" fill="#FF606F"/>
<path d="M299.848 80.5359L307.25 86.1018C307.25 86.1018 307.935 90.9805 308.346 98.7453C302.521 97.3023 297.243 94.6911 292.24 91.3241C297.038 84.7275 299.848 80.5359 299.848 80.5359Z" fill="#FFFCF2"/>
<path d="M57.784 160.108C8.23354 190.067 -13.629 235.969 31.8779 274.655L36.5383 268.196C25.4357 232.533 66.1452 221.126 66.1452 221.126L57.784 160.108Z" fill="#FF606F"/>
<path d="M171.62 140.867C244.746 143.547 297.586 156.809 300.944 206.627C304.303 256.446 199.376 258.095 173.539 258.095C147.701 258.095 47.2297 254.865 35.2362 206.627C24.1336 161.825 83.6215 137.569 171.62 140.867Z" fill="#FF606F"/>
<path d="M195.196 252.804C195.196 252.804 195.401 251.498 195.95 248.75C196.361 245.933 196.909 241.535 196.498 235.419C195.95 229.304 194.647 225.249 193.688 222.844C193.208 221.607 192.797 220.783 192.523 220.302C192.386 220.027 192.317 219.89 192.249 219.752C192.18 219.683 192.18 219.615 192.18 219.615L193.345 218.859C193.345 218.859 193.551 218.996 193.894 219.477C194.236 219.958 194.853 220.645 195.47 221.814C196.087 222.982 196.909 224.562 197.594 226.692C198.28 228.823 198.965 231.571 199.171 234.938C199.719 241.672 198.897 246.276 198.348 249.162C197.663 252.048 197.252 253.285 197.252 253.285L195.196 252.804Z" fill="#2D3962"/>
<path d="M266.883 158.115C266.883 158.115 286.963 185.738 268.459 206.421C252.559 224.218 197.869 241.672 120.013 229.097C76.8367 222.157 57.7841 199.275 51.8901 164.024C51.8901 164.024 64.7746 155.641 77.385 151.793C89.9953 147.945 252.628 152.274 252.628 152.274C252.628 152.274 263.045 156.328 266.883 158.115Z" fill="#2D3962"/>
<path d="M245.02 149.32C245.02 149.32 245.5 149.457 246.528 149.663C247.076 149.801 247.693 149.938 248.515 150.144C249.338 150.35 250.229 150.556 251.325 150.9C255.574 152.068 262.154 154.473 270.515 159.421C278.808 164.437 283.811 168.835 286.826 171.652C288.334 173.026 289.362 174.126 290.047 174.813C290.733 175.5 291.007 175.843 291.007 175.843L290.321 176.462C290.321 176.462 289.088 175.431 286.209 172.957C283.194 170.484 278.259 166.361 269.83 161.207C261.331 156.122 254.889 153.786 250.777 152.48C249.749 152.137 248.858 151.862 248.104 151.656C247.35 151.45 246.733 151.312 246.254 151.175C245.294 150.9 244.814 150.763 244.814 150.763L245.02 149.32Z" fill="#FFFCF2"/>
<path d="M129.814 23.434C124.125 13.1268 88.2818 0.964303 75.0546 14.2263C60.3197 28.9999 72.9986 53.1875 68.8865 56.0736C64.7745 58.8909 46.5443 51.9507 42.7749 56.0736C39.0055 60.1964 54.4257 76.6193 52.8494 78.8181C51.2732 81.017 41.5413 77.5813 41.5413 77.5813L42.7749 81.0857C42.7749 81.0857 57.5783 86.4455 58.8119 81.4293C60.0456 76.3444 55.0426 68.1674 56.2762 65.0065C57.5098 61.8456 82.5249 78.612 93.4219 54.5618L129.814 23.434Z" fill="#FF606F"/>
<path d="M154.829 36.2148C154.829 36.2148 144.754 20.273 134.543 19.1049C124.263 18.0054 88.2134 36.6958 85.6776 43.9796C83.1418 51.2634 91.503 62.3264 91.503 62.3264" fill="#FFFCF2"/>
<path d="M124.605 18.4866C124.605 18.4866 124.948 18.4179 125.702 18.2117C126.044 18.143 126.524 18.0056 127.072 17.7994C127.62 17.662 128.306 17.5246 129.128 17.3871C129.882 17.181 130.842 17.1123 131.87 16.9749C132.418 16.9749 133.035 16.9749 133.652 16.9749C134.268 16.9749 134.885 17.181 135.571 17.3184C138.175 17.9369 140.916 19.4486 143.658 21.5787C146.399 23.7089 148.386 25.8391 149.963 27.6256C151.539 29.4122 152.704 30.8552 153.595 32.0921C154.486 33.2603 155.103 34.0848 155.446 34.6346C155.857 35.1843 155.994 35.4591 155.994 35.4591L154.829 36.215C154.829 36.215 154.006 35.5278 152.087 33.5351C151.128 32.5044 149.826 31.1988 148.249 29.6184C146.605 27.9692 144.686 25.9765 142.013 23.915C139.408 21.8536 136.941 20.4793 134.817 19.9296C134.268 19.8609 133.789 19.6547 133.309 19.586C132.829 19.586 132.349 19.5173 131.938 19.5173C130.979 19.586 130.156 19.586 129.471 19.7922C128.032 19.9983 126.935 20.2044 126.25 20.3419C125.564 20.4793 125.222 20.548 125.222 20.548L124.605 18.4866Z" fill="#FF606F"/>
<path d="M137.147 36.7646C142.972 35.4591 148.455 34.9781 153.595 34.5658H153.527C182.243 9.69102 184.024 24.0524 175.937 32.7105C180.529 31.13 194.168 26.9384 199.719 30.0306C205.27 33.0541 204.722 39.7881 202.529 42.1244C237.413 61.5707 229.463 110.908 237.413 128.224C248.584 152.343 321.436 211.163 193.414 218.859C61.8961 226.761 64.0206 164.712 64.5004 131.522C64.9801 98.2644 72.793 51.1948 137.147 36.7646Z" fill="#FFFCF2"/>
<path d="M202.255 40.9563C202.255 40.9563 202.803 41.2999 203.831 41.9183C204.311 42.2619 204.996 42.6055 205.681 43.0865C206.367 43.5675 207.189 44.1859 208.08 44.8043C208.971 45.4228 209.862 46.2473 210.89 47.0719C211.918 47.9652 212.946 48.9272 213.974 50.0267C216.099 52.2255 218.292 54.9741 220.348 58.135C224.46 64.4568 227.749 72.7025 229.942 81.7042C232.204 90.7745 233.369 100.601 234.671 110.29C235.357 115.1 236.042 119.978 237.344 124.445L237.892 126.094L238.509 127.674C238.783 128.224 239.058 128.705 239.263 129.186C239.537 129.667 239.811 130.217 240.086 130.698C240.634 131.729 241.251 132.691 241.867 133.653C242.484 134.615 243.101 135.577 243.786 136.539C246.322 140.318 248.927 143.891 251.394 147.395C253.792 150.831 256.054 154.198 258.042 157.29C262.017 163.543 264.895 169.109 266.608 173.095C267.02 174.126 267.362 175.019 267.705 175.843C267.979 176.668 268.185 177.355 268.39 177.905C268.733 179.004 268.939 179.623 268.939 179.623L267.157 180.104C267.157 180.104 266.814 179.073 265.923 176.737C264.964 174.469 263.456 170.827 260.577 165.811C257.699 160.795 253.45 154.542 247.693 146.571C246.254 144.578 244.746 142.448 243.17 140.18C241.593 137.913 239.949 135.508 238.372 132.897C237.55 131.591 236.796 130.148 236.111 128.636C235.425 127.056 234.877 125.475 234.466 123.826C233.575 120.528 232.958 117.024 232.41 113.382C231.382 106.098 230.628 99.3639 229.6 93.317C228.572 87.2013 227.407 81.7042 225.967 76.8254C223.02 66.9992 219.045 59.7154 215.07 54.768C214.591 54.1495 214.111 53.5311 213.631 52.9814C213.152 52.4317 212.672 51.882 212.192 51.4009C211.233 50.4389 210.342 49.5456 209.519 48.7211C208.628 47.9652 207.874 47.2781 207.12 46.6596C206.367 46.1099 205.681 45.5602 205.064 45.1479C203.899 44.2546 202.871 43.7049 202.323 43.2926C201.706 42.8803 201.432 42.6742 201.432 42.6742L202.255 40.9563Z" fill="#C3C3C3"/>
<path d="M102.743 47.5527C66.1453 111.664 94.0388 172.682 127.21 194.877C159.078 216.179 273.462 226.486 266.129 171.583C277.163 194.877 271.886 218.927 195.059 222.775C66.1453 229.166 51.7531 170.552 56.0022 135.576C60.0457 102.112 71.7651 68.3046 102.743 47.5527Z" fill="#C3C3C3"/>
<path d="M196.841 73.8706C196.841 73.8706 163.601 82.2538 133.309 82.1851C133.309 82.1851 119.397 113.725 133.309 118.054C147.222 122.383 170.523 105.273 170.523 105.273C170.523 105.273 192.866 118.535 203.283 112.213C213.769 105.96 196.841 73.8706 196.841 73.8706Z" fill="#FFB2B3"/>
<path d="M150.58 98.6765C150.443 102.731 148.866 106.029 147.016 105.96C145.165 105.892 143.795 102.525 143.932 98.4704C144.069 94.4162 145.645 91.1179 147.496 91.1866C149.346 91.2553 150.717 94.6223 150.58 98.6765Z" fill="#5B7CA0"/>
<path d="M134.543 109.74C132.761 112.282 133.926 116.268 137.215 118.604C140.505 120.94 144.617 120.734 146.468 118.192C148.249 115.649 147.084 111.664 143.795 109.328C140.505 106.991 136.393 107.197 134.543 109.74Z" fill="#FF606F"/>
<path d="M191.289 106.922C189.781 109.19 190.946 112.557 193.893 114.481C196.772 116.405 200.336 116.061 201.843 113.794C203.351 111.526 202.118 108.159 199.239 106.235C196.292 104.311 192.728 104.655 191.289 106.922Z" fill="#FF606F"/>
<path d="M187.109 94.8973C186.835 98.9515 185.19 102.181 183.339 102.044C181.489 101.906 180.255 98.5392 180.461 94.485C180.735 90.4309 182.38 87.2013 184.23 87.3387C186.081 87.4761 187.314 90.8432 187.109 94.8973Z" fill="#5B7CA0"/>
<path d="M167.782 92.8359C172.511 104.998 186.835 109.259 183.682 114.893C180.461 120.528 158.187 116.405 167.782 92.8359Z" fill="#FF606F"/>
<path d="M181.969 124.926C181.9 124.926 181.489 125.338 180.598 125.819C179.707 126.3 178.473 126.918 176.828 127.468C175.184 127.949 173.196 128.293 171.003 128.155C168.81 127.949 166.548 127.262 164.629 126.094C162.642 124.926 160.997 123.345 159.695 121.765C158.393 120.184 157.296 118.535 156.542 117.161C155.72 115.718 155.103 114.55 154.76 113.656C154.349 112.763 154.144 112.282 154.144 112.282L155.857 111.595C155.857 111.595 155.994 111.801 156.268 112.213C156.542 112.626 156.953 113.382 157.639 114.412C157.981 114.962 158.324 115.512 158.804 116.199C159.215 116.886 159.763 117.573 160.38 118.398C161.614 119.978 163.259 121.833 165.589 123.483C167.988 125.063 170.386 125.544 172.374 125.613C174.361 125.682 176.006 125.269 177.308 124.926C178.542 124.582 179.433 124.17 180.05 123.964C180.598 123.689 180.872 123.62 180.872 123.62L181.969 124.926Z" fill="#5B7CA0"/>
<path d="M289.362 286.062C289.362 286.062 189.713 266.547 57.7839 286.062C57.7839 286.062 165.794 312.517 289.362 286.062Z" fill="#FF606F"/>
<path d="M212.055 254.11C211.575 254.453 210.821 255.759 210.273 257.202L210.205 257.339C210.205 257.339 210.205 257.339 210.136 257.339L209.931 257.271C209.588 257.202 209.108 257.133 208.628 257.064C207.6 256.927 206.504 256.858 205.339 256.79C203.077 256.652 200.678 256.652 198.348 256.652C193.619 256.721 188.822 256.858 184.024 257.202C179.227 257.477 174.43 257.82 169.701 258.301C167.302 258.507 164.972 258.782 162.642 259.126L160.928 259.401L159.558 259.607C159.558 259.607 159.558 259.538 159.558 259.676C159.558 259.813 159.558 260.019 159.558 260.157V261.256C159.626 262.699 159.763 264.211 159.969 265.654C160.174 267.097 160.449 268.608 160.791 269.983C160.86 270.326 160.997 270.67 161.065 271.013C161.134 271.357 161.271 271.632 161.34 271.975C161.408 272.25 161.545 272.594 161.614 272.8C161.682 272.937 161.682 272.937 161.682 272.937L162.71 273.075C164.149 273.281 165.657 273.35 167.234 273.487C170.318 273.693 173.47 273.762 176.691 273.762C183.065 273.831 189.439 273.693 195.744 273.418C198.896 273.281 202.049 273.075 205.133 272.731C206.641 272.594 208.217 272.388 209.588 272.182L210.616 271.975C210.616 271.907 210.684 271.701 210.684 271.494C210.753 270.807 210.821 269.983 210.89 269.227C210.959 267.646 210.959 265.997 210.821 264.348C210.684 262.699 210.479 261.05 210.205 259.607C210.136 259.195 210.068 258.851 209.931 258.507L209.793 258.026L209.656 257.614C209.588 257.477 209.588 257.271 209.519 257.202C209.451 257.133 209.382 256.996 209.382 256.927L209.314 256.79C209.314 256.79 209.314 256.79 209.245 256.721C209.245 256.721 209.245 256.721 209.245 256.652C209.245 256.652 209.177 256.652 209.314 256.583C209.451 256.446 209.588 256.309 209.725 256.24L213.906 252.667C213.906 252.667 213.974 252.735 214.111 252.941C214.248 253.148 214.522 253.422 214.796 253.766C215.276 254.522 216.03 255.759 216.578 257.545C217.195 259.332 217.743 261.6 218.086 264.554C218.223 265.997 218.429 267.646 218.429 269.502C218.429 270.395 218.429 271.426 218.36 272.456C218.36 272.731 218.292 273.006 218.292 273.281C218.292 273.418 218.223 273.625 218.223 273.831L218.086 274.449C218.018 274.861 217.881 275.274 217.743 275.686C217.606 276.098 217.469 276.511 217.332 276.923C217.195 277.129 217.058 277.404 216.921 277.61C216.715 277.816 216.578 278.091 216.373 278.229C215.962 278.641 215.413 278.916 214.865 279.191C213.837 279.672 212.192 280.084 211.575 280.221C209.862 280.634 208.149 280.908 206.367 281.183C202.734 281.733 198.622 282.077 194.099 282.42C189.576 282.695 184.504 282.901 179.021 282.97C176.28 282.97 173.402 282.97 170.318 282.901C168.81 282.832 167.234 282.764 165.657 282.695C164.012 282.558 162.436 282.489 160.517 282.145C160.38 282.145 160.106 282.077 159.832 282.008C159.558 281.939 159.284 281.87 159.009 281.802C158.461 281.664 157.913 281.527 157.433 281.252C156.405 280.84 155.651 280.015 155.034 279.191L154.143 277.885C154.006 277.679 153.869 277.404 153.801 277.198L153.527 276.579C153.184 275.892 153.047 275.274 152.841 274.655C152.087 272.25 151.745 270.051 151.402 267.921C151.128 265.791 150.922 263.867 150.854 261.943C150.854 261.462 150.854 260.981 150.854 260.5C150.854 260.294 150.854 260.019 150.854 259.744C150.854 259.332 150.922 258.92 150.922 258.507C150.991 257.683 151.128 256.996 151.196 256.24C151.334 255.553 151.676 254.934 151.882 254.316L152.156 253.972L152.293 253.766L152.362 253.697V253.629C152.43 253.629 152.293 253.56 152.43 253.629C152.636 253.422 152.773 253.148 152.978 253.01C153.39 252.598 153.869 252.323 154.418 252.117C155.514 251.636 156.816 251.361 157.913 251.155L158.53 251.017L159.009 250.949L159.969 250.811C160.586 250.743 161.271 250.674 161.888 250.536C164.355 250.262 166.754 250.055 169.015 249.849C173.539 249.506 177.651 249.368 181.42 249.231C188.959 249.025 194.99 249.162 199.719 249.506C204.448 249.781 207.874 250.262 210.136 250.811C211.301 251.086 212.124 251.361 212.809 251.773C213.152 251.979 213.426 252.186 213.631 252.323C213.837 252.529 213.974 252.667 213.974 252.667L212.055 254.11Z" fill="#FFFCF2"/>
<path d="M31.8779 79.5739C31.8779 83.7655 35.3047 87.2012 39.4853 87.2012C43.6659 87.2012 47.0926 83.7655 47.0926 79.5739C47.0926 75.3136 43.6659 71.9466 39.4853 71.9466C35.3047 71.8779 31.8779 75.3136 31.8779 79.5739Z" fill="#FFFCF2"/>
<path d="M30.5073 79.5741C30.5073 79.5741 30.5073 79.4367 30.5073 79.1618C30.5073 78.8869 30.5758 78.4746 30.6443 77.9249C30.8499 76.8255 31.3297 75.1076 32.9745 73.3898C33.7969 72.5652 34.8249 71.6719 36.2642 71.1909C37.6348 70.6412 39.3482 70.3663 41.1301 70.7099C42.912 71.0535 44.831 71.9467 46.2702 73.6646C47.7094 75.3138 48.6689 77.6501 48.4633 80.1925C48.3262 82.735 47.0241 84.9338 45.4478 86.3768C43.8029 87.8199 41.884 88.507 40.1021 88.5757C38.3202 88.7131 36.7439 88.3009 35.4417 87.6824C34.1396 87.064 33.1801 86.1707 32.4948 85.3461C31.1241 83.6283 30.7129 82.0478 30.5758 81.0858C30.5073 80.6048 30.5073 80.1925 30.4387 79.9864C30.5073 79.6428 30.5073 79.5741 30.5073 79.5741H31.8779C31.8779 79.5741 31.8779 79.6428 31.9465 79.8489C32.015 80.0551 32.015 80.3299 32.1521 80.6735C32.3577 81.3607 32.8374 82.5288 33.934 83.7657C35.0305 84.9338 36.881 86.2394 39.4853 86.102C40.7874 86.0333 42.1581 85.621 43.3917 84.5903C44.5568 83.6283 45.5848 82.1165 45.7904 80.2612C45.9961 78.4059 45.3792 76.6881 44.3512 75.5199C43.3232 74.2831 42.0211 73.5959 40.7189 73.321C39.4167 73.0462 38.1831 73.1836 37.1551 73.5959C36.1271 73.9395 35.3047 74.5579 34.7564 75.1763C33.5228 76.4132 33.1116 77.6501 32.906 78.4059C32.7004 79.2305 32.7004 79.6428 32.7004 79.5741H30.5073Z" fill="#C3C3C3"/>
<path d="M34.688 254.247C34.4138 258.439 34.9621 263.042 36.5384 268.196L31.878 274.655C25.847 269.502 20.9811 264.279 17.2117 258.92C22.4888 255.553 28.794 253.629 34.688 254.247Z" fill="#FFFCF2"/>
<path d="M35.8529 268.196C35.8529 268.196 42.0896 266.272 43.3232 269.089C44.5568 271.907 42.2267 274.999 40.993 274.655C39.7594 274.243 41.3357 269.914 39.7594 269.845C38.1831 269.776 35.99 272.388 35.8529 275.136C35.7159 277.885 39.2111 278.297 39.4167 280.427C39.5538 282.557 35.8529 286.405 35.8529 286.405C35.8529 286.405 29.8904 285.306 29.5478 281.801C29.2051 278.297 31.1926 274.655 31.1926 274.655L35.8529 268.196Z" fill="#FF606F"/>
<path d="M302.246 78.5432C302.246 78.5432 303 75.3824 303.206 73.3896C303.549 70.1601 303 67.8925 300.876 68.3735C299.437 68.717 295.119 80.6734 299.916 84.0404C306.016 88.3007 313.76 86.9952 319.037 83.4907C323.424 80.6047 325.068 75.3824 325.068 75.3824C325.068 75.3824 318.695 73.3896 313.897 74.2142C308.963 75.0388 302.246 78.5432 302.246 78.5432Z" fill="#FF606F"/>
<path d="M191.015 93.2481C191.015 93.2481 190.946 92.9046 190.809 92.2174C190.672 91.599 190.467 90.7057 190.056 89.8124C189.644 88.9191 189.096 87.9571 188.342 87.4074C187.588 86.7889 186.766 86.6515 186.081 86.8577C185.327 86.9951 184.504 87.6135 183.819 88.4381C183.065 89.2627 182.448 90.156 181.968 91.0493C181.489 91.9425 181.077 92.7671 180.872 93.3168C180.598 93.9353 180.461 94.2788 180.461 94.2788C180.461 94.2788 180.461 93.8666 180.529 93.2481C180.598 92.6297 180.666 91.6677 180.94 90.637C181.215 89.6062 181.557 88.3694 182.243 87.2699C182.928 86.1705 184.024 85.0024 185.532 84.5901C186.286 84.3839 187.109 84.4526 187.862 84.7275C188.616 85.0024 189.233 85.4834 189.713 86.0331C190.672 87.1325 191.015 88.4381 191.152 89.5375C191.289 90.637 191.221 91.599 191.152 92.2174C191.084 92.9046 191.015 93.2481 191.015 93.2481Z" fill="#5B7CA0"/>
<path d="M155.172 100.669C155.172 100.669 155.172 100.257 155.172 99.5012C155.172 98.7453 155.103 97.7146 154.897 96.6151C154.692 95.5157 154.281 94.2788 153.664 93.1794C153.047 92.1487 152.225 91.2554 151.334 90.8431C150.511 90.4308 149.483 90.4308 148.524 90.9805C147.564 91.5302 146.673 92.561 146.056 93.523C145.44 94.485 144.96 95.3783 144.686 96.0654C144.412 96.7526 144.206 97.1649 144.206 97.1649C144.206 97.1649 144.275 96.7526 144.343 95.9967C144.48 95.2408 144.617 94.2101 145.028 93.042C145.44 91.8738 146.125 90.4995 147.427 89.4688C148.044 88.9191 148.866 88.5068 149.757 88.4381C150.648 88.3006 151.608 88.5068 152.362 88.8504C153.869 89.6062 154.897 91.0492 155.446 92.4922C155.994 93.9353 156.131 95.447 156.063 96.6838C155.994 97.9207 155.788 98.9514 155.583 99.7073C155.309 100.257 155.172 100.669 155.172 100.669Z" fill="#5B7CA0"/>
<path d="M95.6836 52.5004C99.5901 49.0647 104.113 46.3161 108.705 44.0485C113.365 41.7809 118.231 40.063 123.166 38.62C128.1 37.177 133.103 36.0776 138.175 35.253C140.711 34.8407 143.247 34.4284 145.782 34.0848C147.084 33.9474 148.318 33.7413 149.62 33.6038L151.539 33.3977L152.978 33.2603L154.349 32.0921L156.131 30.6491C157.296 29.6871 158.53 28.7251 159.763 27.8318C162.231 25.9765 164.698 24.1899 167.439 22.6782C168.81 21.9223 170.181 21.1665 171.688 20.548C173.196 19.9296 174.772 19.4486 176.554 19.3799C177.445 19.3799 178.473 19.5173 179.501 20.1357C180.461 20.7542 181.146 21.8536 181.352 22.8156C181.763 24.8084 181.215 26.5262 180.666 28.1067C179.775 30.2368 178.473 32.1608 176.965 33.81L175.458 31.6111C179.707 29.8245 184.093 28.3128 188.753 27.5569C191.084 27.2134 193.482 27.0072 195.95 27.4195C198.348 27.7631 200.953 28.7251 202.734 30.7865C204.516 32.848 205.202 35.5966 204.996 38.139C204.79 40.6815 203.968 43.1552 202.46 45.1479C201.09 47.0719 199.513 48.8585 197.8 50.439C197.389 50.8513 196.909 51.2635 196.498 51.6071L195.812 52.1568L195.264 52.5691H195.47C196.909 52.844 198.28 53.325 199.65 53.9434C202.323 55.249 204.722 57.5166 205.681 60.54C206.161 62.0518 206.298 63.6322 206.024 65.2126C205.75 66.7244 205.133 68.2361 204.311 69.473C202.597 72.0154 200.199 73.802 197.663 75.1076L197.046 73.8707C197.046 73.8707 197.457 73.6646 198.417 73.0461C199.308 72.4277 200.815 71.397 202.323 69.473C203.077 68.5109 203.762 67.2054 204.105 65.6936C204.448 64.1819 204.379 62.3266 203.557 60.54C202.734 58.7534 201.158 57.173 198.965 56.0736C197.869 55.5239 196.703 55.1116 195.333 54.8367C195.059 54.768 194.51 54.6993 193.962 54.6306L193.071 54.5619C192.728 54.5619 192.386 54.5619 192.043 54.4931C191.358 54.4931 190.604 54.4244 189.85 54.4244C189.507 54.4244 189.096 54.4244 188.753 54.4244H188.205H187.931H187.725C189.028 53.7373 190.604 52.9127 191.837 52.1568C192.454 51.8133 193.003 51.401 193.551 50.9887L194.099 50.5077L194.579 50.0954C195.812 49.0647 196.978 47.8965 198.211 46.5222C198.828 45.8351 199.376 45.1479 199.925 44.3921C200.541 43.6362 201.021 42.8803 201.432 42.0558C202.186 40.3379 202.666 38.3452 202.46 36.3524C202.255 34.3597 201.295 32.5044 199.445 31.3363C197.663 30.1681 195.264 29.7558 192.728 29.8245C187.657 29.962 182.106 31.7485 176.486 34.0848L170.66 36.4899L174.978 31.886C175.937 30.924 176.897 29.5497 177.651 28.1067C178.131 27.2134 178.473 26.2514 178.679 25.3581C178.884 24.4648 178.884 23.5715 178.61 23.0218C178.405 22.472 177.994 22.2659 177.24 22.1285C176.486 22.0598 175.663 22.1285 174.772 22.3346C173.059 22.8156 171.346 23.5715 169.838 24.3961C168.262 25.2206 166.822 26.1139 165.52 27.0072C162.847 28.7938 160.586 30.5804 158.735 32.0234C157.844 32.7793 157.022 33.4664 156.268 34.0161C155.446 34.7033 154.76 35.3217 154.144 35.8027C153.321 35.8714 152.499 35.9401 151.676 36.0089C150.991 36.0776 150.306 36.1463 149.62 36.215C148.25 36.3524 146.947 36.4899 145.714 36.696C143.178 37.0396 140.711 37.3832 138.381 37.7954C133.72 38.5513 129.54 39.5133 125.77 40.4753C118.3 42.4681 112.543 44.8043 108.362 46.8658C104.113 48.996 101.44 50.8513 99.7271 52.1568C98.0138 53.4624 97.3284 54.0808 97.3284 54.0808L95.6836 52.5004Z" fill="#C3C3C3"/>
<path d="M41.9526 170.896C41.9526 170.896 42.1582 171.102 42.4323 171.446C42.7065 171.789 43.1177 172.339 43.6659 173.026C44.6254 174.4 46.0646 176.393 47.3668 178.936C50.1767 183.952 52.781 191.373 53.8776 199C54.0832 199.962 54.0832 200.924 54.1517 201.886C54.2203 202.848 54.2888 203.81 54.3573 204.772C54.4259 206.696 54.3573 208.552 54.3573 210.338C54.2203 212.125 54.0832 213.843 53.8776 215.492C53.809 216.316 53.672 217.141 53.5349 217.897C53.3978 218.653 53.2608 219.409 53.1237 220.096C52.7125 222.982 51.9586 225.249 51.5474 226.899C51.1362 228.548 50.8621 229.441 50.8621 229.441L49.697 229.097C49.697 229.097 49.9711 227.448 50.9991 223.119C51.6845 218.722 53.2608 211.506 52.0957 200.375C50.6565 189.243 47.1612 182.097 44.831 177.767C43.5974 175.637 42.6379 174.126 41.9526 173.164C41.2672 172.202 40.9246 171.789 40.9246 171.789L41.9526 170.896Z" fill="#FFFCF2"/>
<path d="M147.633 97.1648C147.564 98.7453 146.947 99.9821 146.262 99.9821C145.577 99.9821 145.028 98.6766 145.097 97.0961C145.165 95.5157 145.782 94.2788 146.468 94.2788C147.153 94.2788 147.701 95.5844 147.633 97.1648Z" fill="#FFFCF2"/>
<path d="M184.093 93.1107C184.025 94.8973 183.408 96.2716 182.722 96.2716C182.037 96.2716 181.489 94.8286 181.557 93.042C181.626 91.2554 182.243 89.8811 182.928 89.8811C183.682 89.8811 184.162 91.3928 184.093 93.1107Z" fill="#FFFCF2"/>
<path d="M128.786 255.415L124.125 273.693L118.506 271.632L123.646 253.079L128.786 255.415Z" fill="#FF606F"/>
<path d="M235.563 252.117L244.883 270.601L240.223 272.8L231.725 252.117H235.563Z" fill="#FF606F"/>
<path d="M35.9213 269.57C35.8528 269.502 35.0989 268.54 34.4821 266.891C33.7968 265.31 33.3856 263.042 33.1114 260.844C32.9058 258.645 32.8373 256.446 32.9058 254.797C32.9744 253.148 32.9744 252.048 32.9744 252.048L34.208 252.117C34.208 252.117 34.3451 252.598 34.4821 253.903C34.5507 254.522 34.6192 255.346 34.6192 256.446C34.6877 257.545 34.8248 258.782 34.8933 260.363C35.236 263.523 35.7157 265.585 36.1269 266.891C36.3326 267.509 36.4696 267.99 36.6752 268.265C36.8123 268.54 36.8808 268.677 36.8808 268.677L35.9213 269.57Z" fill="#FF606F"/>
<path d="M31.9464 275.411C31.9464 275.411 30.7813 274.518 29.1364 273.075C27.4916 271.701 25.367 269.708 23.2425 267.646C22.2145 266.547 21.255 265.516 20.2955 264.485C19.4045 263.455 18.5821 262.424 17.8968 261.599C16.6632 259.744 15.7722 258.576 15.7722 258.576L16.8002 257.958C16.8002 257.958 17.28 258.37 18.3765 259.675C18.6507 260.019 18.9248 260.363 19.336 260.775C19.7472 261.187 20.1584 261.668 20.6382 262.218C21.1179 262.768 21.5976 263.386 22.2145 264.004C22.8313 264.623 23.5166 265.379 24.202 266.135C27.2175 269.158 29.342 271.22 30.7127 272.594C32.0834 273.899 32.6317 274.587 32.6317 274.587L31.9464 275.411Z" fill="#FF606F"/>
<path d="M306.701 85.6208C306.701 85.6208 307.798 93.523 308.003 100.257L306.701 85.6208Z" fill="#FF606F"/>
<path d="M307.592 85.4834C307.592 85.4834 307.729 86.3767 307.866 87.751C307.935 88.4381 308.072 89.2627 308.14 90.0873C308.209 90.9806 308.278 91.8739 308.346 92.7672C308.62 96.4778 308.894 100.188 308.894 100.188L307.661 100.257C307.661 100.257 306.975 98.6766 306.564 93.2482C306.427 90.4996 306.29 88.6443 306.29 87.4074C306.29 86.1705 306.359 85.6208 306.359 85.6208L307.592 85.4834Z" fill="#FF606F"/>
<path d="M299.368 82.46C299.368 82.46 296.147 87.2013 292.377 92.2174L299.368 82.46Z" fill="#FF606F"/>
<path d="M291.624 91.6678C291.624 91.6678 292.652 90.2248 295.187 86.7203C297.655 83.2159 298.614 81.979 298.614 81.979L299.368 82.46C299.368 82.46 299.368 84.0404 296.764 87.6823C294.159 91.3242 292.857 92.4924 292.857 92.4924L291.624 91.6678Z" fill="#FF606F"/>
<path d="M13.6478 203.123C13.6478 203.123 24.065 224.837 8.78186 241.603C8.78186 241.603 2.54522 223.806 13.6478 203.123Z" fill="#C3C3C3"/>
<path d="M296.627 165.33C296.627 165.33 291.829 148.22 305.81 137.913C305.81 137.982 301.972 156.397 296.627 165.33Z" fill="#C3C3C3"/>
<path d="M13.6477 215.286L21.3921 212.469L22.0089 214.186C22.0089 214.186 21.4606 215.354 18.5822 216.385C15.7037 217.416 14.2645 217.004 14.2645 217.004L13.6477 215.286Z" fill="#FFFCF2"/>
<path d="M14.333 222.501L20.4325 223.394L20.1584 225.181C20.1584 225.181 19.336 226.005 17.0744 225.662C14.8127 225.318 14.0588 224.287 14.0588 224.287L14.333 222.501Z" fill="#FFFCF2"/>
<path d="M295.324 255.003C297.517 261.325 302.863 265.104 306.016 260.706C309.168 256.308 307.318 250.949 303.891 250.262C300.396 249.574 293.611 250.124 295.324 255.003Z" fill="#C3C3C3"/>
<path d="M257.973 99.3637C260.029 104.723 264.621 107.747 267.225 103.899C269.761 100.051 268.048 95.5844 265.101 95.1034C262.085 94.6224 256.397 95.3096 257.973 99.3637Z" fill="#C3C3C3"/>
<path d="M10.7694 154.061C12.894 157.29 16.4578 158.527 17.5544 155.641C18.6509 152.686 16.8005 150.007 14.813 150.144C12.7569 150.281 9.12461 151.656 10.7694 154.061Z" fill="#C3C3C3"/>
<path d="M42.1581 35.8027C44.2827 39.0323 47.8465 40.2691 48.943 37.3831C50.0396 34.4284 48.1891 31.7485 46.2016 31.8859C44.1456 32.0234 40.5133 33.3976 42.1581 35.8027Z" fill="#C3C3C3"/>
<path d="M225.419 157.634C227.544 160.864 231.108 162.1 232.204 159.214C233.301 156.26 231.45 153.58 229.463 153.717C227.475 153.855 223.843 155.229 225.419 157.634Z" fill="#C3C3C3"/>
<path d="M242.69 50.0952C244.814 53.3247 248.378 54.5616 249.475 51.6756C250.571 48.7209 248.721 46.041 246.733 46.1784C244.677 46.3158 241.045 47.6214 242.69 50.0952Z" fill="#C3C3C3"/>
<path d="M174.018 0.0709782C176.143 3.30057 179.707 4.53744 180.803 1.65142C181.9 -1.30332 180.05 -3.98319 178.062 -3.84576C176.006 -3.70834 172.374 -2.40275 174.018 0.0709782Z" fill="#C3C3C3"/>
<path d="M106.512 203.604C108.637 206.834 112.2 208.071 113.297 205.185C114.394 202.23 112.543 199.55 110.556 199.687C108.5 199.825 104.867 201.13 106.512 203.604Z" fill="#FFFCF2"/>
<path d="M280.864 127.743C282.988 130.972 286.552 132.209 287.649 129.323C288.745 126.369 286.895 123.689 284.907 123.826C282.92 123.964 279.219 125.269 280.864 127.743Z" fill="#FFFCF2"/>
<path d="M136.393 2.95692C139.203 0.345764 140.025 -3.29612 136.941 -3.98327C133.926 -4.67042 131.527 -2.40283 131.938 -0.478814C132.35 1.51391 134.2 4.94965 136.393 2.95692Z" fill="#C3C3C3"/>
<path d="M315.337 195.496C312.732 195.29 310.539 196.595 311.567 198.382C312.664 200.237 314.857 200.375 315.679 199.275C316.433 198.176 317.324 195.702 315.337 195.496Z" fill="#C3C3C3"/>
<path d="M56.7561 257.408C54.1517 257.202 51.9586 258.507 52.9867 260.294C54.0832 262.149 56.2763 262.286 57.0987 261.187C57.8526 260.088 58.7436 257.545 56.7561 257.408Z" fill="#C3C3C3"/>
<path d="M41.267 128.774C38.6627 128.567 36.4696 129.873 37.4976 131.66C38.5942 133.515 40.7873 133.652 41.6097 132.553C42.4321 131.453 43.3231 128.98 41.267 128.774Z" fill="#C3C3C3"/>
<path d="M76.768 171.926C74.1637 171.72 71.9706 173.026 72.9986 174.812C74.0952 176.668 76.2883 176.805 77.1107 175.706C77.8646 174.606 78.7555 172.064 76.768 171.926Z" fill="#FFFCF2"/>
<path d="M175.937 193.228C173.333 193.022 171.14 194.328 172.168 196.114C173.265 197.97 175.458 198.107 176.28 197.008C177.034 195.908 177.925 193.366 175.937 193.228Z" fill="#C3C3C3"/>
<path d="M98.0136 87.8884C95.4093 87.6822 93.2162 88.9878 94.2442 90.7744C95.3408 92.6297 97.5339 92.7671 98.3563 91.6677C99.1787 90.5682 100.07 88.0258 98.0136 87.8884Z" fill="#C3C3C3"/>
<path d="M251.463 237.549C249.818 239.611 249.749 242.222 251.874 242.29C253.998 242.359 255.369 240.573 254.821 239.336C254.341 238.03 252.696 235.969 251.463 237.549Z" fill="#FFFCF2"/>
<path d="M137.764 44.5294C136.119 46.5908 136.05 49.202 138.175 49.2707C140.3 49.3394 141.67 47.5528 141.122 46.3159C140.642 45.0791 138.997 42.9489 137.764 44.5294Z" fill="#C3C3C3"/>
<path d="M276.683 219.477C274.079 219.271 271.886 220.577 272.914 222.363C274.01 224.219 276.203 224.356 277.026 223.257C277.848 222.157 278.739 219.615 276.683 219.477Z" fill="#FFFCF2"/>
<path d="M96.0947 15.8752C93.4904 15.669 91.2973 16.9746 92.3253 18.7612C93.4218 20.6165 95.6149 20.7539 96.4373 19.6545C97.1912 18.5551 98.0822 16.0126 96.0947 15.8752Z" fill="#FFFCF2"/>
<path d="M35.236 206.627C32.6317 206.421 30.4386 207.727 31.4666 209.513C32.5632 211.369 34.7563 211.506 35.5787 210.407C36.4011 209.307 37.2921 206.765 35.236 206.627Z" fill="#FFFCF2"/>
<path d="M282.988 60.0588C280.384 59.8526 278.191 61.1582 279.219 62.9448C280.315 64.8001 282.509 64.9375 283.331 63.8381C284.085 62.8074 284.976 60.2649 282.988 60.0588Z" fill="#C3C3C3"/>
<path d="M99.6587 275.136C97.0543 274.93 94.8612 276.236 95.8892 278.022C96.9858 279.877 99.1789 280.015 100.001 278.915C100.755 277.885 101.646 275.342 99.6587 275.136Z" fill="#FFFCF2"/>
<path d="M219.868 36.902C217.264 36.6959 215.071 38.0015 216.099 39.7881C217.195 41.6434 219.388 41.8495 220.211 40.6813C220.965 39.5819 221.856 37.1082 219.868 36.902Z" fill="#C3C3C3"/>
<path d="M245.157 112.42C242.553 112.213 240.36 113.519 241.388 115.306C242.484 117.161 244.677 117.298 245.5 116.199C246.322 115.099 247.145 112.557 245.157 112.42Z" fill="#C3C3C3"/>
<path d="M314.925 141.074C312.321 140.868 310.128 142.173 311.156 143.96C312.252 145.815 314.445 145.952 315.268 144.853C316.022 143.754 316.913 141.211 314.925 141.074Z" fill="#C3C3C3"/>
</g>
<path d="M3 185.879L121 182.879L117 296.879H3V185.879Z" fill="#2D3962"/>
<path d="M47.7744 288.985L48.043 284.688L36.7637 282.056L39.0195 197.139L14.6348 209.654V212.447L23.5508 213.199L25.4844 281.143L14.4736 285.44V288.609L47.7744 288.985ZM30.6943 271.368C30.1572 264.779 30.2109 260.321 30.8555 257.994C31.3926 262.792 31.3389 267.25 30.6943 271.368ZM33.5947 264.546L33.2188 263.418C32.7174 249.203 32.5921 238.568 32.8428 231.514C33.5589 235.238 33.9528 241.576 34.0244 250.528V258.316L33.5947 264.546ZM29.2979 239.356V231.568C29.3695 222.616 29.7633 216.278 30.4795 212.554C30.7301 219.608 30.6048 230.243 30.1035 244.458L29.7275 245.586L29.2979 239.356ZM74.1465 274.751L92.5156 274.375L95.04 259.551L99.1758 260.894L101.002 284.473L50.7822 284.258L81.6123 236.617C85.4437 230.458 86.6969 222.741 85.3721 213.467C84.083 208.383 77.9421 208.508 66.9492 213.843C63.834 215.848 61.7035 220.324 60.5576 227.271L53.4678 225.767L52.9844 197.837L58.3555 198.589L60.9336 207.774C80.556 194.74 93.5003 195.725 99.7666 210.728C103.312 218.14 102.434 226.716 97.1348 236.456L74.1465 274.751ZM92.5156 220.718C92.0859 217.317 91.0296 214.255 89.3467 211.534C91.6383 219.196 91.7995 226.806 89.8301 234.361C92.0501 228.632 92.9453 224.084 92.5156 220.718ZM92.6768 213.682C92.2829 209.887 90.4567 207.004 87.1982 205.035C89.4183 207.756 90.958 210.263 91.8174 212.554L92.6768 213.682ZM92.5156 234.737C95.5951 229.616 96.2217 224.389 94.3955 219.053C95.1833 225.749 93.6794 232.141 89.8838 238.228L92.5156 234.737Z" fill="#182948"/>
<path d="M45.7744 285.985L46.043 281.688L34.7637 279.056L37.0195 194.139L12.6348 206.654V209.447L21.5508 210.199L23.4844 278.143L12.4736 282.44V285.609L45.7744 285.985ZM28.6943 268.368C28.1572 261.779 28.2109 257.321 28.8555 254.994C29.3926 259.792 29.3389 264.25 28.6943 268.368ZM31.5947 261.546L31.2188 260.418C30.7174 246.203 30.5921 235.568 30.8428 228.514C31.5589 232.238 31.9528 238.576 32.0244 247.528V255.316L31.5947 261.546ZM27.2979 236.356V228.568C27.3695 219.616 27.7633 213.278 28.4795 209.554C28.7301 216.608 28.6048 227.243 28.1035 241.458L27.7275 242.586L27.2979 236.356ZM72.1465 271.751L90.5156 271.375L93.04 256.551L97.1758 257.894L99.002 281.473L48.7822 281.258L79.6123 233.617C83.4437 227.458 84.6969 219.741 83.3721 210.467C82.083 205.383 75.9421 205.508 64.9492 210.843C61.834 212.848 59.7035 217.324 58.5576 224.271L51.4678 222.767L50.9844 194.837L56.3555 195.589L58.9336 204.774C78.556 191.74 91.5003 192.725 97.7666 207.728C101.312 215.14 100.434 223.716 95.1348 233.456L72.1465 271.751ZM90.5156 217.718C90.0859 214.317 89.0296 211.255 87.3467 208.534C89.6383 216.196 89.7995 223.806 87.8301 231.361C90.0501 225.632 90.9453 221.084 90.5156 217.718ZM90.6768 210.682C90.2829 206.887 88.4567 204.004 85.1982 202.035C87.4183 204.756 88.958 207.263 89.8174 209.554L90.6768 210.682ZM90.5156 231.737C93.5951 226.616 94.2217 221.389 92.3955 216.053C93.1833 222.749 91.6794 229.141 87.8838 235.228L90.5156 231.737Z" fill="#FFFEFA"/>
</svg>
