<svg width="313" height="277" viewBox="0 0 313 277" fill="none" xmlns="http://www.w3.org/2000/svg">
<rect x="13.9607" y="0.879395" width="293.32" height="274" fill="#C4C4C4"/>
<path d="M200.163 113.985L200.432 109.688L189.152 107.056L191.408 22.1392L167.023 34.6538V37.4468L175.939 38.1987L177.873 106.143L166.862 110.44V113.609L200.163 113.985ZM183.083 96.3677C182.546 89.7791 182.6 85.3211 183.244 82.9937C183.781 87.7918 183.728 92.2498 183.083 96.3677ZM185.983 89.5464L185.607 88.4185C185.106 74.203 184.981 63.5682 185.231 56.5142C185.948 60.2381 186.341 66.576 186.413 75.5278V83.3159L185.983 89.5464ZM181.687 64.356V56.5679C181.758 47.616 182.152 41.2782 182.868 37.5542C183.119 44.6082 182.993 55.243 182.492 69.4585L182.116 70.5864L181.687 64.356ZM239.855 85.6792C238.781 99.3576 235.72 106.268 230.671 106.412C224.297 106.161 221.271 97.2091 221.594 79.5562C222.059 67.883 224.727 61.7778 229.597 61.2407C236.937 60.8468 240.357 68.993 239.855 85.6792ZM221.164 55.2788C221.486 46.5418 222.399 40.383 223.903 36.8022C226.768 30.3211 232.766 30.7687 241.896 38.145C245.656 41.3319 247.894 45.5571 248.61 50.8208L255.969 49.4243L256.506 23.0522L250.866 23.7505L248.181 32.4517C226.374 20.2414 212.875 21.1724 207.683 35.2446C205.642 41.8332 204.657 54.8849 204.729 74.3999H204.836C204.156 100.682 211.926 113.77 228.146 113.663C245.835 113.591 255.109 105.409 255.969 89.1167C256.936 66.2358 248.503 54.6343 230.671 54.312C227.162 54.2404 223.993 54.5627 221.164 55.2788ZM246.73 86.3774C246.158 90.6743 244.672 94.5594 242.272 98.0327C245.531 88.2931 245.746 78.6252 242.917 69.0288C246.068 76.2977 247.339 82.0806 246.73 86.3774ZM246.999 95.2935C246.426 100.127 243.83 103.78 239.211 106.25C242.398 102.813 244.6 99.644 245.817 96.7437L246.999 95.2935ZM246.354 67.4175C250.723 73.8986 251.6 80.5229 248.986 87.2905C250.096 78.8042 247.966 70.6938 242.595 62.9595L246.354 67.4175Z" fill="#2D3962"/>
<path d="M132.762 49.0082C130.708 48.9294 127.865 48.7717 124.469 48.614C122.811 48.5352 120.994 48.4563 119.178 48.3775C117.361 48.2986 115.387 48.2198 113.491 48.2198C109.7 48.0621 105.83 48.0621 102.197 48.0621C110.806 39.3102 120.678 27.8775 120.678 27.8775C120.678 27.8775 109.384 37.6544 100.618 46.1698C100.618 28.6659 99.1173 5.87939 99.1173 5.87939C99.1173 5.87939 97.6167 28.6659 97.6167 46.2486C89.7979 38.6006 79.5308 29.8486 79.5308 29.8486C79.5308 29.8486 88.4553 40.414 96.1951 48.2198C90.4297 48.3775 84.5064 48.6929 79.5308 49.0082C72.8177 49.4025 68 49.8755 68 49.8755C68 49.8755 72.8177 50.3486 79.5308 50.8217C84.1905 51.1371 89.7979 51.5313 95.3264 51.689C87.5075 59.889 79.5308 69.0352 79.5308 69.0352C79.5308 69.0352 89.2451 60.5986 97.6957 52.5563C97.9326 69.1929 99.1963 87.8794 99.1963 87.8794C99.1963 87.8794 100.381 69.114 100.697 52.5563C108.042 59.4948 116.177 66.4332 116.177 66.4332C116.177 66.4332 109.7 58.7852 102.987 51.7679C106.383 51.689 110.016 51.5313 113.57 51.3736C114.518 51.2948 115.466 51.2948 116.492 51.2159C117.44 51.1371 118.388 51.0582 119.336 50.9794C121.152 50.8217 122.969 50.664 124.627 50.5063C127.944 50.1909 130.866 49.8755 132.841 49.639C134.894 49.4025 136.079 49.2448 136.079 49.2448C136.079 49.2448 134.815 49.1659 132.762 49.0082Z" fill="#939393"/>
<g clip-path="url(#clip0)">
<path d="M36.4774 276.879H68.9969L81.9405 255.724H34.8728L36.4774 276.879Z" fill="#2D3962"/>
<path d="M257.375 234.675L303.907 239.056L313 276.879H267.751L257.375 234.675Z" fill="#425176"/>
<path d="M27.8127 239.055C50.1699 212.985 79.6941 220.785 95.419 211.382C111.037 202.086 158.212 134.879 158.212 134.879C158.212 134.879 184.955 134.879 185.596 134.879C250.314 134.879 231.059 202.941 243.575 211.382C256.091 219.93 289.894 213.412 303.907 239.055H27.8127Z" fill="#425176"/>
<path d="M261.119 239.055C247.105 213.519 218.116 224.524 208.381 212.985C200.038 203.048 222.93 134.879 158.212 134.879C93.4935 134.879 90.4983 201.979 74.7734 211.382C59.0485 220.785 29.4173 212.985 7.16712 239.055L0 276.879H36.4774L49.8489 261.6C49.8489 261.6 55.9463 269.934 70.4945 269.934C85.0427 269.934 95.2051 261.6 95.2051 261.6C95.2051 261.6 100.982 272.499 122.162 272.071C144.091 271.644 156.928 261.6 156.928 261.6C156.928 261.6 162.063 269.186 178.75 270.148C202.391 271.537 213.837 261.6 213.837 261.6L219.186 276.879H267.751L261.119 239.055Z" fill="#FF606F"/>
<path d="M187.094 183.174C187.094 183.174 186.88 184.243 186.345 186.059C186.238 186.487 186.131 187.021 185.917 187.662C185.703 188.196 185.489 188.837 185.275 189.478C185.062 190.119 184.848 190.867 184.527 191.615C184.206 192.363 183.885 193.111 183.564 193.966C182.173 197.385 180.034 201.232 176.932 205.292C173.936 209.352 169.978 213.626 164.844 217.259C159.816 220.998 153.612 224.097 146.552 225.806C145.696 226.02 144.733 226.127 143.877 226.341C142.915 226.447 142.059 226.661 141.096 226.661C140.133 226.661 139.278 226.768 138.315 226.768H137.566H136.817L135.427 226.661C133.501 226.661 131.576 226.234 129.65 225.913C128.687 225.7 127.725 225.379 126.762 225.058C126.334 224.952 125.799 224.845 125.371 224.631L123.981 223.99C122.055 223.242 120.343 222.174 118.632 221.105C117.776 220.464 117.027 219.93 116.172 219.289C115.316 218.648 114.674 217.9 113.925 217.152C111.037 214.267 108.684 210.741 106.972 206.894C105.367 203.048 104.405 198.881 104.084 194.714C103.763 190.547 104.191 186.273 104.833 182.213C108.149 165.758 119.274 151.441 133.073 143.961C136.603 142.145 140.133 140.649 143.877 139.687C145.696 139.153 147.621 138.94 149.44 138.619C150.403 138.512 151.258 138.512 152.221 138.405C153.184 138.405 154.04 138.192 155.002 138.298C156.821 138.405 158.639 138.405 160.351 138.833C161.207 139.046 162.063 139.046 162.918 139.367C163.774 139.581 164.63 139.901 165.379 140.115C166.234 140.329 166.983 140.756 167.732 141.077C168.481 141.397 169.337 141.718 169.978 142.145C171.369 143 172.867 143.748 174.15 144.816C179.285 148.663 182.815 153.684 184.741 158.386C186.773 163.194 187.415 167.681 187.629 171.314C187.629 172.276 187.736 173.131 187.736 173.879C187.736 174.733 187.629 175.481 187.629 176.122C187.629 176.87 187.522 177.511 187.522 178.046C187.415 178.687 187.308 179.221 187.308 179.648C187.201 182.213 187.094 183.174 187.094 183.174L185.168 182.747C185.168 182.747 185.168 182.32 185.382 181.358C185.489 180.931 185.489 180.289 185.596 179.542C185.596 179.221 185.703 178.794 185.703 178.366C185.703 177.939 185.703 177.405 185.703 176.977C185.81 174.947 185.81 172.276 185.382 168.964C185.275 168.109 185.062 167.254 184.955 166.399C184.741 165.545 184.527 164.583 184.206 163.621C183.992 162.66 183.564 161.698 183.136 160.736C182.922 160.202 182.815 159.668 182.494 159.241C182.28 158.706 181.959 158.279 181.745 157.745C181.424 157.21 181.211 156.676 180.89 156.142C180.569 155.608 180.248 155.073 179.82 154.646C179.178 153.578 178.322 152.616 177.466 151.548C177.253 151.334 177.039 151.013 176.825 150.8C176.611 150.586 176.29 150.372 176.076 150.052C175.541 149.624 175.006 149.09 174.578 148.556C174.043 148.128 173.402 147.701 172.867 147.274C172.225 146.846 171.69 146.312 170.941 145.991C170.299 145.564 169.551 145.244 168.909 144.816C168.16 144.496 167.411 144.175 166.662 143.855C166.234 143.748 165.914 143.534 165.486 143.427C165.058 143.32 164.63 143.213 164.309 143.107C163.453 142.893 162.704 142.572 161.849 142.466C158.426 141.824 154.681 141.611 150.724 141.931C146.766 142.466 142.701 143.427 138.636 145.137C134.571 146.846 130.613 149.411 126.762 152.509C123.018 155.608 119.381 159.347 116.279 163.835C113.176 168.323 110.609 173.344 109.004 179.007C107.4 184.67 106.758 190.44 107.293 195.782C107.828 201.125 109.432 206.146 112.107 210.314C114.674 214.481 118.204 217.9 122.055 220.143C125.906 222.387 130.185 223.669 134.25 224.097C138.422 224.524 142.38 224.097 146.017 223.349C147.835 222.922 149.654 222.494 151.258 221.853C152.114 221.532 152.97 221.319 153.719 220.891C154.468 220.571 155.323 220.143 156.072 219.823C162.17 216.831 166.876 212.985 170.62 209.245C178.001 201.552 181.211 194.5 182.922 189.799C183.35 188.624 183.778 187.662 183.992 186.7C184.206 185.845 184.42 185.098 184.527 184.456C184.848 183.281 184.955 182.747 184.955 182.747L187.094 183.174Z" fill="#FFFCF2"/>
<path d="M181.745 182.961C177.68 203.475 158.96 220.144 139.919 220.144C120.878 220.144 108.684 203.475 112.748 182.961C116.813 162.446 135.533 145.778 154.574 145.778C173.615 145.671 185.703 162.339 181.745 182.961Z" fill="#FFFCF2"/>
<path d="M112.427 196.53C114.781 210.42 125.264 220.143 139.919 220.143C158.96 220.143 177.68 203.475 181.745 182.96C183.029 176.656 182.708 170.673 181.104 165.438C181.104 165.438 163.881 169.925 144.091 178.9C124.301 187.769 112.427 196.53 112.427 196.53Z" fill="#B3C8D3"/>
<path d="M57.658 226.127C57.658 226.127 58.4068 226.127 59.6904 226.127C60.3323 226.127 61.0811 226.127 62.0438 226.127C62.8996 226.02 63.9693 225.913 65.039 225.806C65.5739 225.699 66.1087 225.699 66.7506 225.593C67.2854 225.486 67.9273 225.379 68.4621 225.165C69.104 225.058 69.6388 224.845 70.2806 224.738C70.9225 224.524 71.4573 224.31 72.0992 224.097C72.741 223.883 73.3828 223.669 74.0247 223.456C74.6665 223.135 75.3083 222.921 75.8432 222.601C77.1269 222.067 78.3036 221.426 79.4802 220.678C84.187 218.006 88.2519 214.267 90.9262 211.382C93.6005 208.497 94.9912 206.36 94.7772 206.574L107.186 219.182C106.972 219.395 104.084 221.426 99.484 223.563C94.9912 225.699 88.6798 228.05 82.2615 229.012C80.6569 229.225 79.0524 229.439 77.4478 229.546C76.699 229.546 75.8432 229.653 75.0944 229.653C74.3456 229.653 73.5968 229.546 72.848 229.546C72.0992 229.546 71.3504 229.439 70.7085 229.439C69.9597 229.332 69.3179 229.225 68.6761 229.119C68.0342 229.012 67.3924 228.905 66.7506 228.798C66.1087 228.691 65.5739 228.477 64.9321 228.371C63.7554 228.05 62.7926 227.836 61.9368 227.516C61.0811 227.195 60.3323 226.875 59.6904 226.661C58.2998 226.341 57.658 226.127 57.658 226.127Z" fill="#C24751"/>
<path d="M221.004 227.516C221.004 227.516 220.362 227.836 219.186 228.478C218.009 229.012 216.297 229.76 214.051 230.401C211.804 231.042 209.13 231.576 206.028 231.79C203.033 232.003 199.717 231.79 196.401 231.256C189.768 230.08 183.564 227.302 179.071 224.738C174.578 222.174 171.904 219.716 171.583 219.395L187.094 207.215C186.773 206.894 187.736 209.031 189.875 212.13C192.015 215.228 195.438 219.075 199.824 222.067C204.103 225.058 209.344 226.875 213.623 227.409C215.762 227.73 217.581 227.73 218.865 227.73C220.255 227.516 221.004 227.516 221.004 227.516Z" fill="#C24751"/>
<path d="M153.077 150.372C153.077 150.372 153.291 161.591 151.579 169.711C149.868 177.832 145.161 187.982 145.161 187.982C145.161 187.982 144.947 176.763 146.659 168.643C148.37 160.523 153.077 150.372 153.077 150.372Z" fill="#2D3962"/>
<path d="M124.194 165.544C124.194 165.544 132.003 170.246 136.496 175.054C140.989 179.862 145.161 187.982 145.161 187.982C145.161 187.982 137.352 183.281 132.859 178.473C128.366 173.558 124.194 165.544 124.194 165.544Z" fill="#2D3962"/>
<path d="M2.35327 237.025L270.853 236.277V238.949C270.853 238.949 241.543 240.338 141.31 240.658C41.0771 240.872 2.46024 239.696 2.46024 239.696L2.35327 237.025Z" fill="#C24751"/>
<path d="M47.9233 266.088C47.9233 266.088 48.4582 262.134 49.6349 252.732C50.8116 243.329 51.3464 240.017 51.3464 240.017L53.2719 240.231C53.2719 240.231 54.8765 243.329 53.5929 253.052C52.3092 262.776 51.0255 266.408 51.0255 266.408L47.9233 266.088Z" fill="#C24751"/>
<path d="M91.9958 268.438C91.9958 268.438 92.5307 263.951 93.9213 253.159C95.205 242.367 95.7399 238.521 95.7399 238.521L97.6654 238.735C97.6654 238.735 99.2699 242.261 97.7723 253.373C96.3817 264.592 94.9911 268.759 94.9911 268.759L91.9958 268.438Z" fill="#C24751"/>
<path d="M154.681 268.545C154.681 268.545 155.109 264.058 155.965 253.266C156.928 242.474 157.249 238.628 157.249 238.628L159.174 238.842C159.174 238.842 160.886 242.261 159.923 253.48C158.96 264.699 157.677 268.866 157.677 268.866L154.681 268.545Z" fill="#C24751"/>
<path d="M211.911 264.271C211.911 264.271 212.232 260.318 212.874 250.916C213.623 241.513 213.837 238.201 213.837 238.201L215.762 238.308C215.762 238.308 217.474 241.299 216.832 251.022C216.083 260.745 214.907 264.485 214.907 264.485L211.911 264.271Z" fill="#C24751"/>
<path d="M153.291 209.138C153.077 208.818 153.077 208.39 153.398 207.856C153.612 207.322 154.146 206.574 154.895 205.826C155.323 205.399 155.751 204.971 156.286 204.544C156.821 204.01 157.356 203.475 157.891 202.941C158.211 202.621 158.532 202.3 158.853 202.086C159.174 201.766 159.495 201.445 159.923 201.018C160.672 200.27 161.528 199.522 162.276 198.667C165.592 195.141 168.802 190.761 171.048 186.914C173.294 183.175 174.685 180.29 175.434 180.503C176.183 180.61 176.29 184.136 174.792 188.624C173.401 193.111 170.299 198.561 166.555 202.514C165.699 203.582 164.63 204.33 163.881 205.185C163.453 205.612 163.025 205.933 162.597 206.254C162.169 206.574 161.741 206.895 161.314 207.108C160.565 207.643 159.816 208.07 159.174 208.497C158.532 208.818 157.891 209.138 157.249 209.352C156.072 209.779 155.216 209.993 154.681 209.993C153.933 209.779 153.505 209.566 153.291 209.138Z" fill="#FFFCF2"/>
<path d="M152.221 209.78C151.9 209.245 151.258 208.925 150.51 208.925C149.761 208.925 148.798 209.138 147.835 209.459C145.91 210.207 144.733 211.81 145.161 212.985C145.589 214.16 147.621 214.374 149.654 213.519C150.724 213.092 151.472 212.344 151.9 211.703C152.435 210.955 152.542 210.314 152.221 209.78Z" fill="#FFFCF2"/>
<path d="M257 165.394C257 166.579 264.065 167.763 273.15 167.763C273.318 178.59 274.327 186.879 275.505 186.879C276.682 186.879 277.692 178.59 277.86 167.763C286.439 167.594 292.832 166.579 292.832 165.394C292.832 164.21 286.271 163.195 277.86 163.026C277.86 151.184 276.85 141.879 275.505 141.879C274.159 141.879 273.15 151.184 273.15 162.857C264.065 163.026 257 164.041 257 165.394Z" fill="#FFFEFA"/>
</g>
<path d="M27 125.394C27 126.579 34.0654 127.763 43.1495 127.763C43.3178 138.59 44.3271 146.879 45.5047 146.879C46.6822 146.879 47.6916 138.59 47.8598 127.763C56.4393 127.594 62.8318 126.579 62.8318 125.394C62.8318 124.21 56.271 123.195 47.8598 123.026C47.8598 111.184 46.8505 101.879 45.5047 101.879C44.1589 101.879 43.1495 111.184 43.1495 122.857C34.0654 123.026 27 124.041 27 125.394Z" fill="#FFFEFA"/>
<path d="M27 24.4207C27 25.0523 30.7465 25.6839 35.5634 25.6839C35.6526 31.4583 36.1878 35.8794 36.8122 35.8794C37.4366 35.8794 37.9718 31.4583 38.061 25.6839C42.6103 25.5937 46 25.0523 46 24.4207C46 23.7892 42.5211 23.2478 38.061 23.1576C38.061 16.8418 37.5258 11.8794 36.8122 11.8794C36.0986 11.8794 35.5634 16.8418 35.5634 23.0674C30.7465 23.1576 27 23.6989 27 24.4207Z" fill="#FFFEFA"/>
<path d="M51 161.079C51 161.894 55.9296 162.71 62.2676 162.71C62.385 170.169 63.0892 175.879 63.9108 175.879C64.7324 175.879 65.4366 170.169 65.554 162.71C71.5399 162.594 76 161.894 76 161.079C76 160.263 71.4225 159.564 65.554 159.447C65.554 151.289 64.8498 144.879 63.9108 144.879C62.9718 144.879 62.2676 151.289 62.2676 159.331C55.9296 159.447 51 160.146 51 161.079Z" fill="#939393"/>
<defs>
<clipPath id="clip0">
<rect width="313" height="142" fill="white" transform="translate(0 134.879)"/>
</clipPath>
</defs>
</svg>
