<svg width="323" height="643" viewBox="0 0 323 643" fill="none" xmlns="http://www.w3.org/2000/svg">
<path d="M24.4036 293.329L13.5982 12.8794H307.781V287.431L24.4036 293.329Z" fill="#FFFEFA" stroke="#C3C3C3" stroke-width="5"/>
<path d="M307.781 582.446L15.5 590.311V308.918L307.781 313.342V582.446Z" fill="#FFFEFA" stroke="#C3C3C3" stroke-width="5"/>
<g clip-path="url(#clip0)">
<path d="M50.8413 575.695C50.8413 575.695 50.7491 575.88 50.4726 576.064C50.1961 576.341 49.8275 576.801 49.3667 577.354C48.4451 578.46 47.247 580.119 46.0489 582.239C44.8508 584.358 43.6527 587.031 43.0997 589.888C42.8232 591.363 42.731 592.837 42.9154 594.312C43.0997 595.786 43.4683 597.261 44.1135 598.643C45.4959 601.408 47.7999 603.62 50.2883 605.371C52.7767 607.03 55.4494 608.32 57.7534 609.241C60.0574 610.163 62.085 610.808 63.4674 611.177C64.8498 611.545 65.6793 611.822 65.6793 611.822L65.0342 614.218C65.0342 614.218 64.6655 614.218 63.7439 614.034C62.8223 613.849 61.4399 613.757 59.4123 613.204C58.3985 612.928 57.2004 612.651 55.9102 612.191C54.6199 611.73 53.1453 611.085 51.4864 610.347C50.6569 609.979 49.8275 609.426 48.998 608.965C48.1686 608.412 47.247 607.859 46.3254 607.122C44.4821 605.739 42.731 603.804 41.2565 601.316C39.7819 598.827 39.2289 596.063 39.1367 593.667C39.0446 591.27 39.5054 589.059 40.1505 587.215C41.3486 583.529 43.0997 580.949 44.4821 579.013C45.8645 577.078 47.0626 575.88 47.8921 575.142C48.7216 574.405 49.0902 574.037 49.0902 574.037L50.8413 575.695Z" fill="#4F8BAD"/>
<path d="M265.762 577.354C265.762 577.354 265.947 577.539 266.223 577.907C266.5 578.276 266.868 578.737 267.329 579.382C268.251 580.672 269.541 582.515 270.831 584.912C272.029 587.308 273.32 590.349 273.873 593.851C274.149 595.602 274.241 597.445 273.965 599.381C273.688 601.224 273.043 603.159 272.214 604.818C270.37 608.228 267.421 610.808 264.564 612.651C261.615 614.495 258.758 615.693 256.177 616.614C253.689 617.444 251.477 618.089 250.003 618.458C248.528 618.826 247.606 619.01 247.606 619.01L247.053 616.614C247.053 616.614 247.422 616.43 248.252 616.154C249.081 615.785 250.371 615.416 252.307 614.679C253.228 614.31 254.334 613.942 255.532 613.389C256.73 612.928 258.113 612.283 259.587 611.546C260.325 611.177 261.062 610.716 261.891 610.255C262.629 609.702 263.458 609.242 264.196 608.597C265.762 607.398 267.329 605.832 268.527 603.896C270.923 600.026 270.831 595.879 270.094 592.561C269.357 589.243 268.159 586.663 267.145 584.635C266.131 582.7 265.301 581.317 264.749 580.396C264.196 579.566 263.919 579.106 263.919 579.106L265.762 577.354Z" fill="#4F8BAD"/>
<path d="M157.288 546.389C94.1574 545.191 42.7312 557.816 42.7312 557.816L68.7208 629.608C68.7208 629.608 150.007 657.164 244.565 633.018L271.384 562.24C271.384 562.24 220.419 547.679 157.288 546.389Z" fill="#FF606F"/>
<path d="M42.7312 557.817L68.7208 629.609C68.7208 629.609 90.6553 637.074 124.939 640.76L118.304 547.495C75.4486 550.352 42.7312 557.817 42.7312 557.817Z" fill="#2D3962"/>
<path d="M232.584 635.23L248.897 566.203L251.293 566.756L250.924 568.231C239.22 617.997 234.98 635.783 234.98 635.783L233.782 635.507C233.782 635.507 236.179 620.116 248.344 568.599C248.62 567.493 248.897 566.387 248.897 566.203C250.003 566.48 251.109 566.756 251.293 566.756C239.496 616.798 234.52 635.691 234.52 635.691L232.584 635.23Z" fill="#C24751"/>
<path d="M80.7018 633.571C80.7018 633.571 78.0291 622.973 71.4856 597.629C65.0343 572.286 62.7302 563.162 62.7302 563.162L63.9283 562.885C63.9283 562.885 67.0618 570.258 73.7896 596.523C80.5174 622.789 82.545 633.018 82.545 633.018L80.7018 633.571Z" fill="#4F8BAD"/>
<path d="M96.0928 635.046C96.0928 635.046 96.2771 625.093 96.7379 601.223C97.1987 577.446 97.383 568.875 97.383 568.875H98.5811C98.5811 568.875 99.6871 576.156 99.2263 600.855C98.7655 625.553 98.0282 635.046 98.0282 635.046H96.0928Z" fill="#4F8BAD"/>
<path d="M120.884 568.23C120.884 568.23 121.806 579.105 123.834 605.278C125.953 631.36 126.691 640.76 126.691 640.76L125.492 640.852C125.492 640.852 123.649 633.018 121.437 606.016C119.225 578.921 118.949 568.507 118.949 568.507L120.884 568.23Z" fill="#2D3962"/>
<path d="M145.676 642.418C145.676 642.418 146.413 632.005 148.072 607.214C149.823 582.423 150.376 573.483 150.376 573.483L151.574 573.576C151.574 573.576 152.311 581.225 150.468 606.937C148.717 632.65 147.427 642.603 147.427 642.603L145.676 642.418Z" fill="#C24751"/>
<path d="M173.877 573.944C173.877 573.944 174.062 584.266 174.338 609.057C174.707 633.848 174.799 642.695 174.799 642.695H173.601C173.601 642.695 172.311 635.23 171.942 609.518C171.573 583.805 171.942 573.944 171.942 573.944H173.877Z" fill="#C24751"/>
<path d="M203.369 572.47C203.369 572.47 202.079 582.976 198.945 608.136C195.812 633.295 194.706 642.327 194.706 642.327L193.508 642.142C193.508 642.142 193.231 634.401 196.457 608.32C199.682 582.239 201.434 572.286 201.434 572.286L203.369 572.47Z" fill="#C24751"/>
<path d="M210.097 639.285C210.097 639.285 212.677 629.056 218.668 604.449C224.751 579.935 226.962 571.087 226.962 571.087L228.161 571.364C228.161 571.364 227.515 579.105 221.248 604.541C214.981 629.977 212.032 639.654 212.032 639.654L210.097 639.285Z" fill="#C24751"/>
<path d="M122.635 598.459C122.635 598.459 124.94 598.643 128.81 599.012C130.746 599.196 133.142 599.38 135.907 599.657C138.672 599.933 141.805 600.026 145.215 600.21C146.874 600.302 148.717 600.394 150.56 600.486C152.404 600.578 154.247 600.671 156.275 600.671C160.145 600.671 164.293 600.763 168.532 600.763C170.652 600.855 172.864 600.763 174.983 600.671C177.195 600.578 179.407 600.486 181.619 600.394C183.831 600.302 186.135 600.21 188.347 600.118C190.559 600.026 192.863 599.749 195.075 599.565C199.59 599.104 204.106 598.827 208.53 598.275C212.954 597.629 217.286 596.984 221.525 596.431C223.645 596.063 225.672 595.878 227.7 595.51C229.727 595.141 231.663 594.68 233.598 594.312C237.377 593.574 241.063 592.837 244.381 592.192C246.04 591.916 247.607 591.455 249.081 591.086C250.556 590.717 252.03 590.349 253.321 589.98C255.993 589.243 258.297 588.69 260.233 588.137C264.104 587.123 266.223 586.57 266.223 586.57L267.421 590.441C267.421 590.441 263.735 591.916 253.321 595.233C248.16 597.076 241.155 598.551 232.124 600.579C227.608 601.684 222.539 602.329 216.825 603.251C213.968 603.712 211.019 604.081 207.885 604.541C204.752 604.818 201.434 605.094 198.024 605.463C194.614 605.739 191.296 606.108 188.162 606.292C184.937 606.385 181.895 606.477 179.038 606.569C176.089 606.661 173.324 606.753 170.652 606.753C167.979 606.661 165.399 606.661 163.002 606.569C153.233 606.477 145.492 605.555 139.409 605.094C133.326 604.449 129.087 603.712 126.23 603.251C123.465 602.79 122.083 602.606 122.083 602.606L122.635 598.459Z" fill="#FFFCF2"/>
<path d="M47.6158 582.331C47.6158 582.331 48.6296 582.7 50.6572 583.345C52.5926 584.082 55.4496 584.911 58.9517 585.925C65.8638 587.861 75.1722 590.441 84.5726 592.284C86.9688 592.745 89.2729 593.298 91.5769 593.759C93.881 594.127 96.185 594.588 98.3969 594.957C102.821 595.694 106.968 596.431 110.562 596.892C117.751 597.814 122.543 598.459 122.543 598.459L122.082 602.514C122.082 602.514 119.963 602.698 114.157 602.514C108.35 602.33 98.9499 601.5 84.5726 598.643C77.384 597.261 71.4857 595.51 66.509 594.127C61.5322 592.561 57.6614 591.27 54.6201 589.98C51.5788 588.782 49.4591 587.861 48.0766 587.123C46.6942 586.478 46.0491 586.11 46.0491 586.11L47.6158 582.331Z" fill="#4F8BAD"/>
<path d="M42.7312 557.817C42.7312 557.817 137.381 527.681 271.292 562.241C271.384 562.241 159.5 591.824 42.7312 557.817Z" fill="#2D3962"/>
<path d="M146.321 564.176L140.238 480.403L156.551 479.205C156.551 479.205 165.306 487.776 167.518 519.018C169.73 550.26 162.541 562.886 162.541 562.886L146.321 564.176Z" fill="#2D3962"/>
<path d="M261.339 525.561L270.278 541.044L310 544.177L248.62 436.074L279.218 437.549L222.539 329.723L246.408 329.538L208.899 268.713L222.999 266.87L187.609 204.847L202.632 203.096L173.969 144.575L182.54 146.787L169.361 103.656L175.444 107.711L169.546 41.4487L141.436 105.131L150.837 102.089L128.81 139.045L140.699 140.059L108.258 215.077L124.11 212.68L86.7844 295.163L101.162 290.094L76.278 346.311L91.7612 343.823L29.2756 457.916L65.0343 450.359L9 542.979L46.049 540.214L61.8086 516.714L56.1868 539.477L156.274 532.104L262.352 540.491L261.339 525.561Z" fill="#2D6C73"/>
<path d="M248.62 436.074L208.438 435.061L196.18 412.574L193.231 433.033L152.404 433.586L98.6734 443.171L101.899 419.486L87.1532 446.12L65.0344 450.359L53.5142 469.344L108.627 450.912L192.402 447.041L264.288 463.722L248.62 436.074Z" fill="#2D3962"/>
<path d="M222.539 329.723L207.977 329.63L192.678 299.31L195.167 330.183L151.298 332.303L112.59 341.611L111.115 328.617L101.162 342.164L91.7612 343.823L84.8491 356.449L130.838 342.901L231.11 345.943L222.539 329.723Z" fill="#2D3962"/>
<path d="M208.899 268.713L174.246 272.215L164.937 262.539L158.302 275.349L120.147 283.827L123.465 267.792L110.839 287.053L101.162 290.094L98.7654 295.624L143.556 282.721L217.746 283.09L208.899 268.713Z" fill="#2D3962"/>
<path d="M187.609 204.847H176.734L174.522 198.488L167.795 205.676L156.459 206.782L152.496 190.378L146.597 207.335L124.11 212.68L119.871 222.081L147.15 211.298L194.245 216.459L187.609 204.847Z" fill="#2D3962"/>
<path d="M173.969 144.575L167.242 143.469L163.832 138.584L159.039 141.81L154.431 141.718L153.417 132.502L147.888 140.243L140.699 140.059L134.985 153.238L151.666 147.155L176.089 148.906L173.969 144.575Z" fill="#2D3962"/>
<path d="M160.882 99.7856L150.837 102.09L147.242 108.08L170.559 107.619L169.361 103.656L160.882 99.7856Z" fill="#2D3962"/>
<path d="M128.257 419.854C126.414 421.421 122.543 408.887 122.543 408.887C122.543 408.887 114.341 416.721 112.313 415.707C110.286 414.694 119.041 406.307 119.041 406.307C119.041 406.307 108.166 401.883 109.548 400.132C110.931 398.381 120.977 401.976 120.977 401.976C120.977 401.976 122.82 387.507 124.847 388.797C126.783 390.087 125.861 402.897 125.861 402.897C125.861 402.897 137.842 399.395 138.119 401.607C138.395 403.819 127.059 407.229 127.059 407.229C127.059 407.229 129.548 418.841 128.257 419.854Z" fill="#B3C8D3"/>
<path d="M177.379 48.7293C175.26 50.4803 170.744 36.0114 170.744 36.0114C170.744 36.0114 161.251 45.043 158.947 43.8449C156.643 42.6468 166.689 33.0623 166.689 33.0623C166.689 33.0623 154.155 27.9935 155.721 25.966C157.288 23.9385 168.901 28.0857 168.901 28.0857C168.901 28.0857 171.112 11.4049 173.324 12.8794C175.536 14.354 174.522 29.0994 174.522 29.0994C174.522 29.0994 188.347 25.1366 188.623 27.6249C188.9 30.2053 175.813 34.076 175.813 34.076C175.813 34.076 178.854 47.5313 177.379 48.7293Z" fill="#FF606F"/>
<path d="M120.7 312.95C119.778 313.779 117.751 307.328 117.751 307.328C117.751 307.328 113.511 311.383 112.498 310.83C111.484 310.277 116 306.038 116 306.038C116 306.038 110.378 303.734 111.115 302.905C111.853 301.983 117.014 303.826 117.014 303.826C117.014 303.826 117.935 296.361 118.949 297.006C119.963 297.651 119.502 304.195 119.502 304.195C119.502 304.195 125.677 302.444 125.769 303.55C125.861 304.656 120.055 306.407 120.055 306.407C120.055 306.407 121.345 312.397 120.7 312.95Z" fill="#B3C8D3"/>
<path d="M171.481 368.429C170.559 369.259 168.532 362.808 168.532 362.808C168.532 362.808 164.292 366.863 163.279 366.31C162.265 365.757 166.781 361.517 166.781 361.517C166.781 361.517 161.159 359.213 161.896 358.384C162.634 357.462 167.795 359.306 167.795 359.306C167.795 359.306 168.716 351.841 169.73 352.486C170.744 353.131 170.283 359.674 170.283 359.674C170.283 359.674 176.458 357.923 176.55 359.029C176.642 360.135 170.836 361.886 170.836 361.886C170.836 361.886 172.126 367.876 171.481 368.429Z" fill="#B3C8D3"/>
<path d="M183.831 261.341C182.909 262.17 180.882 255.719 180.882 255.719C180.882 255.719 176.642 259.774 175.628 259.221C174.615 258.668 179.13 254.429 179.13 254.429C179.13 254.429 173.509 252.125 174.246 251.295C174.983 250.374 180.144 252.217 180.144 252.217C180.144 252.217 181.158 244.752 182.08 245.397C183.093 246.042 182.633 252.585 182.633 252.585C182.633 252.585 188.807 250.834 188.9 251.94C188.992 253.046 183.186 254.797 183.186 254.797C183.186 254.797 184.476 260.788 183.831 261.341Z" fill="#B3C8D3"/>
<path d="M174.154 171.025C173.693 172.13 168.993 167.246 168.993 167.246C168.993 167.246 166.965 172.776 165.859 172.683C164.661 172.683 166.873 166.785 166.873 166.785C166.873 166.785 160.882 167.246 161.067 166.14C161.343 165.034 166.781 164.389 166.781 164.389C166.781 164.389 164.384 157.293 165.583 157.477C166.781 157.661 169.269 163.744 169.269 163.744C169.269 163.744 173.969 159.413 174.614 160.426C175.26 161.348 170.744 165.495 170.744 165.495C170.744 165.495 174.43 170.287 174.154 171.025Z" fill="#B3C8D3"/>
<path d="M161.527 116.19C161.159 117.112 157.38 113.149 157.38 113.149C157.38 113.149 155.721 117.572 154.8 117.572C153.878 117.572 155.629 112.78 155.629 112.78C155.629 112.78 150.745 113.149 150.929 112.227C151.113 111.306 155.537 110.845 155.537 110.845C155.537 110.845 153.602 105.039 154.523 105.223C155.537 105.315 157.472 110.292 157.472 110.292C157.472 110.292 161.343 106.79 161.804 107.527C162.357 108.264 158.67 111.674 158.67 111.674C158.67 111.674 161.804 115.545 161.527 116.19Z" fill="#B3C8D3"/>
<path d="M77.2919 492.568C74.9878 491.923 83.0981 481.601 83.0981 481.601C83.0981 481.601 71.9465 479.205 71.67 476.993C71.3935 474.781 83.2824 477.27 83.2824 477.27C83.2824 477.27 80.7019 465.842 82.9137 465.934C85.1256 466.026 87.8905 476.44 87.8905 476.44C87.8905 476.44 100.885 469.805 100.977 472.109C100.977 474.413 90.0102 480.956 90.0102 480.956C90.0102 480.956 99.6872 488.882 97.9361 490.356C96.2772 491.831 86.9689 484.458 86.9689 484.458C86.9689 484.458 78.8586 493.029 77.2919 492.568Z" fill="#B3C8D3"/>
<path d="M227.054 483.26C224.935 482.615 232.4 473.03 232.4 473.03C232.4 473.03 222.078 470.911 221.801 468.791C221.525 466.763 232.584 468.975 232.584 468.975C232.584 468.975 230.188 458.285 232.308 458.469C234.335 458.561 236.916 468.238 236.916 468.238C236.916 468.238 248.989 462.063 248.989 464.183C248.989 466.395 238.759 472.385 238.759 472.385C238.759 472.385 247.699 479.666 246.132 481.048C244.565 482.431 235.994 475.519 235.994 475.519C235.994 475.519 228.529 483.629 227.054 483.26Z" fill="#B3C8D3"/>
<path d="M224.382 385.11C223.368 387.23 214.613 377.461 214.613 377.461C214.613 377.461 210.373 388.06 208.161 387.875C205.95 387.783 210.465 376.54 210.465 376.54C210.465 376.54 198.761 377 199.222 374.881C199.775 372.761 210.373 371.84 210.373 371.84C210.373 371.84 206.134 357.831 208.438 358.2C210.742 358.569 215.166 370.549 215.166 370.549C215.166 370.549 224.658 362.439 225.764 364.375C226.87 366.31 218.023 374.051 218.023 374.051C218.023 374.051 225.027 383.636 224.382 385.11Z" fill="#B3C8D3"/>
<path d="M136.275 245.028C134.432 245.305 137.013 235.26 137.013 235.26C137.013 235.26 128.257 237.103 127.336 235.536C126.414 233.969 135.722 232.126 135.722 232.126C135.722 232.126 130.285 224.661 131.944 224.016C133.603 223.463 138.764 230.006 138.764 230.006C138.764 230.006 146.044 221.159 146.782 222.818C147.519 224.477 141.621 232.587 141.621 232.587C141.621 232.587 151.021 235.26 150.284 236.826C149.547 238.393 140.515 235.997 140.515 235.997C140.515 235.997 137.566 244.844 136.275 245.028Z" fill="#B3C8D3"/>
<path d="M149.178 517.635C146.69 516.068 160.053 506.668 160.053 506.668C160.053 506.668 147.611 499.848 148.072 497.084C148.533 494.319 161.804 501.599 161.804 501.599C161.804 501.599 162.91 487.038 165.491 487.96C168.071 488.882 167.61 502.245 167.61 502.245C167.61 502.245 185.49 499.019 184.752 501.784C183.923 504.549 168.44 508.235 168.44 508.235C168.44 508.235 177.011 521.137 174.522 522.243C172.034 523.349 163.647 511.184 163.647 511.184C163.647 511.184 150.837 518.741 149.178 517.635Z" fill="#B3C8D3"/>
<path d="M196.365 246.503C196.365 246.503 194.429 245.858 191.849 244.752C190.558 244.199 189.084 243.462 187.701 242.724C186.319 241.895 185.029 240.881 183.923 239.867C182.817 238.854 181.803 237.563 180.881 236.273C179.96 234.891 179.222 233.601 178.577 232.31C177.932 231.112 177.379 230.006 177.103 229.177C176.734 228.348 176.55 227.887 176.55 227.887C176.55 227.887 177.011 228.163 177.748 228.532C178.485 228.9 179.591 229.546 180.789 230.191C181.987 230.836 183.278 231.665 184.568 232.587C185.858 233.416 187.148 234.338 188.162 235.352C189.176 236.365 190.19 237.563 191.111 238.854C192.125 240.052 192.955 241.25 193.784 242.448C195.351 244.66 196.365 246.503 196.365 246.503Z" fill="#FF606F"/>
<path d="M213.691 244.476C213.691 244.476 213.875 244.844 214.06 245.581C214.336 246.319 214.613 247.333 214.613 248.715C214.613 250.005 214.336 251.848 212.861 253.507C212.493 253.876 212.032 254.244 211.571 254.521C211.11 254.797 210.557 255.074 210.097 255.166C209.636 255.258 209.083 255.35 208.622 255.443C208.161 255.443 207.7 255.443 207.24 255.443C203.83 254.982 201.433 252.678 199.774 250.927C198.945 250.005 198.392 249.084 197.931 248.531C197.563 247.885 197.286 247.517 197.286 247.517C197.286 247.517 197.747 247.609 198.484 247.701C199.222 247.885 200.143 248.07 201.341 248.254C203.553 248.715 206.318 249.176 207.885 249.268C208.714 249.36 209.083 249.452 209.544 249.452C210.097 249.452 210.926 248.807 211.571 247.978C212.216 247.148 212.677 246.319 213.046 245.581C213.507 244.844 213.691 244.476 213.691 244.476Z" fill="#FF606F"/>
<path d="M106.599 264.105C106.599 264.105 105.77 264.935 104.479 265.856C103.189 266.778 101.53 267.699 100.056 267.884C98.5811 268.068 96.7379 267.423 95.3554 266.686C93.973 265.948 92.9592 265.211 92.9592 265.211C92.9592 265.211 93.8808 264.382 95.1711 263.552C96.4614 262.723 98.0281 261.801 99.5027 261.617C100.977 261.433 102.636 262.078 104.111 262.723C105.585 263.46 106.599 264.105 106.599 264.105Z" fill="#FF606F"/>
<path d="M138.672 256.364C138.672 256.364 136.828 257.838 134.156 259.497C131.483 261.34 127.796 262.999 124.386 263.921C122.728 264.382 120.792 264.474 118.949 264.658C117.106 264.75 115.262 264.75 113.696 264.566C110.47 264.289 108.166 263.921 108.166 263.921C108.166 263.921 110.286 262.815 113.143 261.525C114.617 260.972 116.184 260.142 117.843 259.497C119.502 258.852 121.253 258.391 122.82 257.93C126.045 257.101 130.008 256.917 133.05 256.548C136.275 256.364 138.672 256.364 138.672 256.364Z" fill="#FF606F"/>
<path d="M166.781 239.499C166.781 239.499 166.504 240.051 165.951 240.881C165.398 241.71 164.753 243.001 163.74 244.199C161.804 246.871 158.855 249.728 155.814 251.664C152.772 253.415 148.809 254.705 145.584 255.166C144.017 255.442 142.634 255.626 141.621 255.719C140.607 255.811 140.054 255.811 140.054 255.811C140.054 255.811 140.515 255.442 141.252 254.797C141.989 254.152 143.095 253.322 144.293 252.309C146.782 250.373 149.731 247.885 152.588 246.226C155.353 244.475 158.947 243.093 161.712 241.71C163.187 241.065 164.385 240.42 165.214 240.051C166.228 239.683 166.781 239.499 166.781 239.499Z" fill="#FF606F"/>
<path d="M176.089 227.518C176.089 227.518 176.273 228.716 176.181 230.283C176.181 231.85 175.628 233.785 174.799 235.075C173.785 236.273 172.126 237.195 170.559 237.656C169.085 238.116 167.794 238.301 167.794 238.301C167.794 238.301 167.887 237.01 168.255 235.536C168.624 234.061 168.993 232.31 169.822 231.204C170.559 230.099 172.218 229.269 173.508 228.532C174.983 227.979 176.089 227.518 176.089 227.518Z" fill="#FF606F"/>
<path d="M171.02 187.06C171.02 187.06 171.573 187.06 172.403 187.06C172.863 187.06 173.324 187.06 173.877 187.06C174.43 187.06 175.075 186.968 175.721 186.968C178.393 186.784 181.619 186.415 184.292 186.415C187.056 186.507 190.282 186.876 192.955 187.337C195.627 187.613 197.747 187.982 197.747 187.982C197.747 187.982 195.996 189.088 193.416 190.378C190.835 191.484 187.333 192.682 184.199 192.59C181.066 192.59 177.472 191.392 174.891 189.917C174.246 189.548 173.693 189.18 173.14 188.903C172.679 188.535 172.218 188.258 171.85 187.982C171.389 187.429 171.02 187.06 171.02 187.06Z" fill="#FF606F"/>
<path d="M152.404 166.601C152.404 166.601 153.694 168.259 155.537 170.195C156.459 171.209 157.473 172.222 158.486 173.328C159.5 174.342 160.514 175.448 161.343 176.462C163.002 178.489 164.845 181.07 166.597 183.097C167.518 184.111 168.255 185.032 168.901 185.585C169.546 186.23 169.822 186.599 169.822 186.599C169.822 186.599 169.269 186.599 168.44 186.507C167.518 186.415 166.32 186.138 164.938 185.77C162.173 184.94 158.763 183.005 156.643 180.517C155.537 179.319 154.708 177.752 154.063 176.185C153.417 174.618 152.957 173.052 152.772 171.577C152.127 168.628 152.404 166.601 152.404 166.601Z" fill="#FF606F"/>
<path d="M136.367 186.507C136.367 186.507 136.644 186.046 137.013 185.309C137.473 184.572 137.934 183.466 138.579 182.268C139.777 179.872 141.16 176.922 142.727 174.526C143.556 173.42 144.385 172.222 145.399 171.209C146.321 170.103 147.335 169.089 148.348 168.167C150.192 166.324 151.758 164.942 151.943 164.85C152.035 165.218 152.035 165.218 152.035 165.218C152.035 165.218 152.035 165.218 151.943 164.85C152.035 165.034 151.851 167.061 151.298 169.734C150.929 171.024 150.56 172.499 150.007 173.973C149.362 175.356 148.809 176.83 147.888 178.028C146.229 180.609 143.28 182.913 140.883 184.387C139.593 185.125 138.579 185.678 137.75 185.954C136.828 186.323 136.367 186.507 136.367 186.507Z" fill="#FF606F"/>
<path d="M115.447 189.64C115.447 189.64 115.908 189.732 116.553 189.732C117.198 189.732 118.212 189.732 119.133 189.64C121.161 189.456 123.373 188.903 125.124 188.534C126.967 188.258 129.363 188.166 131.391 187.889C132.405 187.797 133.326 187.613 134.063 187.428C134.801 187.336 135.169 187.244 135.169 187.244C135.169 187.244 134.985 187.613 134.616 188.258C134.248 188.903 133.695 189.732 132.865 190.562C131.391 192.313 128.718 194.248 125.953 194.617C123.188 195.078 119.963 193.972 118.027 192.497C117.014 191.76 116.368 191.023 115.908 190.47C115.631 190.009 115.447 189.64 115.447 189.64Z" fill="#FF606F"/>
<path d="M162.634 81.9987C162.634 81.9987 161.528 81.5379 160.145 80.7085C158.855 79.8791 157.196 78.681 156.643 77.2065C155.998 75.8241 155.998 73.8887 156.367 72.322C156.643 70.7553 157.104 69.6494 157.104 69.6494C157.104 69.6494 158.118 70.3867 159.316 71.3083C160.422 72.322 161.804 73.4279 162.357 74.7182C162.818 76.0084 163.002 77.7594 162.91 79.234C162.818 80.8007 162.634 81.9987 162.634 81.9987Z" fill="#FF606F"/>
<path d="M174.246 94.1635C174.246 94.1635 173.048 94.3479 171.481 94.1635C171.112 94.1635 170.651 94.0714 170.191 93.9792C169.73 93.8871 169.361 93.7027 168.9 93.5184C168.071 93.1498 167.242 92.7812 166.689 92.2282C166.136 91.6752 165.675 90.8458 165.306 90.0164C165.122 89.6477 164.937 89.187 164.845 88.8183C164.753 88.3575 164.661 87.9889 164.661 87.6202C164.384 86.0535 164.477 84.8555 164.477 84.8555C164.477 84.8555 165.675 85.2241 167.057 85.7771C167.426 85.9614 167.794 86.0535 168.071 86.2379C168.44 86.4222 168.808 86.5143 169.177 86.6987C169.914 87.0673 170.467 87.4359 170.928 87.8967C171.389 88.3575 171.85 88.9105 172.126 89.6477C172.31 90.0164 172.495 90.385 172.587 90.7537C172.771 91.1223 172.956 91.3988 173.048 91.7674C173.785 92.9655 174.246 94.1635 174.246 94.1635Z" fill="#FF606F"/>
<path d="M147.427 130.475C147.427 130.475 146.597 131.396 145.307 132.318C144.662 132.779 143.925 133.239 143.095 133.608C142.266 133.977 141.436 134.253 140.699 134.253C139.132 134.253 137.197 133.424 135.907 132.502C135.261 132.041 134.708 131.488 134.34 131.12C133.971 130.751 133.787 130.475 133.787 130.475C133.787 130.475 134.063 130.382 134.524 130.198C134.985 130.014 135.538 129.737 136.275 129.369C137.566 128.816 139.132 128.078 140.515 127.986C141.16 127.986 141.897 128.078 142.634 128.355C143.372 128.631 144.109 128.908 144.846 129.184C146.321 129.83 147.427 130.475 147.427 130.475Z" fill="#FF606F"/>
<path d="M162.173 126.143C162.173 126.143 161.435 127.249 160.33 128.447C159.224 129.645 157.657 131.028 156.09 131.58C154.523 132.133 152.404 131.673 150.837 131.304C149.27 130.935 148.072 130.382 148.072 130.382C148.072 130.382 148.994 129.369 150.192 128.263C151.39 127.157 152.957 126.051 154.339 125.59C155.814 125.129 157.657 125.221 159.316 125.498C160.975 125.774 162.173 126.143 162.173 126.143Z" fill="#FF606F"/>
<path d="M175.168 119.968C175.168 119.968 174.707 121.074 173.877 122.364C173.048 123.655 171.85 125.129 170.467 125.866C169.085 126.512 167.149 126.512 165.583 126.327C164.016 126.143 162.818 125.866 162.818 125.866C162.818 125.866 163.371 124.761 164.292 123.47C165.214 122.18 166.412 120.89 167.702 120.245C168.993 119.6 170.836 119.507 172.311 119.6C173.969 119.784 175.168 119.968 175.168 119.968Z" fill="#FF606F"/>
<path d="M170.928 303.918C170.928 303.918 169.73 304.102 168.163 304.102C166.596 304.102 164.753 303.826 163.463 303.088C162.173 302.351 161.067 300.784 160.421 299.31C159.684 297.927 159.408 296.729 159.408 296.729C159.408 296.729 160.698 296.637 162.173 296.729C163.647 296.822 165.49 297.006 166.781 297.743C167.979 298.48 169.085 299.955 169.822 301.337C170.467 302.812 170.928 303.918 170.928 303.918Z" fill="#FF606F"/>
<path d="M195.627 314.055C195.627 314.055 193.692 314.332 191.019 314.332C188.347 314.424 185.029 313.871 182.356 312.857C181.066 312.304 179.776 311.475 178.485 310.645C177.287 309.816 176.089 308.802 175.167 307.881C173.232 306.038 172.034 304.563 172.034 304.563C172.034 304.563 174.061 304.747 176.55 305.116C177.84 305.392 179.223 305.577 180.697 305.853C182.08 306.13 183.462 306.59 184.752 307.143C187.241 308.065 189.821 310 191.941 311.383C194.061 312.765 195.627 314.055 195.627 314.055Z" fill="#FF606F"/>
<path d="M221.801 312.489C221.801 312.489 221.525 312.857 220.88 313.41C220.327 313.963 219.497 314.885 218.299 315.622C216.087 317.281 212.677 318.571 209.636 318.756C206.595 318.848 203.277 317.834 200.881 316.636C199.682 316.083 198.669 315.438 197.931 315.069C197.286 314.608 196.825 314.332 196.825 314.332C196.825 314.332 197.286 314.24 198.116 314.055C198.945 313.871 200.051 313.779 201.249 313.503C203.738 313.134 206.779 312.489 209.267 312.489C211.756 312.304 214.705 312.765 217.193 312.673C218.483 312.765 219.497 312.581 220.327 312.581C221.34 312.581 221.801 312.489 221.801 312.489Z" fill="#FF606F"/>
<path d="M232.123 302.075C232.123 302.075 232.308 303.273 232.123 304.839C232.123 306.498 231.386 308.342 230.372 309.632C229.819 310.277 228.99 310.646 228.16 311.014C227.331 311.383 226.501 311.659 225.672 311.751C224.013 311.936 222.815 311.844 222.815 311.844C222.815 311.844 223.184 310.646 223.737 309.263C224.013 308.618 224.29 307.881 224.658 307.143C224.935 306.406 225.395 305.853 225.764 305.392C226.594 304.379 228.252 303.826 229.543 303.088C230.925 302.536 232.123 302.075 232.123 302.075Z" fill="#FF606F"/>
<path d="M95.5397 328.34C95.5397 328.34 94.5259 329.078 93.1435 329.723C92.4062 330.091 91.5767 330.368 90.7473 330.552C90.2865 330.644 89.9178 330.736 89.457 330.829C88.9962 330.829 88.6276 330.829 88.2589 330.736C86.6922 330.46 85.0333 329.354 83.9273 328.156C83.3744 327.603 82.9136 327.05 82.6371 326.589C82.3606 326.129 82.1763 325.944 82.1763 325.944C82.1763 325.944 83.2822 325.668 84.849 325.207C86.2314 324.93 87.9824 324.377 89.2727 324.654C89.6414 324.746 89.9178 324.838 90.2865 325.023C90.6551 325.115 91.0238 325.299 91.3003 325.483C92.0376 325.852 92.6827 326.313 93.3278 326.681C94.6181 327.511 95.5397 328.34 95.5397 328.34Z" fill="#FF606F"/>
<path d="M125.032 321.981C125.032 321.981 123.465 323.456 121.069 325.299C118.672 326.958 115.262 328.893 112.037 329.63C108.903 330.46 104.94 330.183 101.991 329.722C100.517 329.446 99.2263 329.169 98.3968 328.893C97.4752 328.616 97.0144 328.432 97.0144 328.432C97.0144 328.432 99.042 327.695 101.807 326.681C104.479 325.667 107.797 324.377 110.654 323.64C113.604 322.995 117.106 322.626 119.963 322.442C122.82 322.073 125.032 321.981 125.032 321.981Z" fill="#FF606F"/>
<path d="M150.837 306.038C150.837 306.038 149.639 307.881 147.888 310.185C146.137 312.581 143.464 315.254 140.791 317.005C139.501 317.926 137.842 318.571 136.275 319.124C134.616 319.677 133.05 320.23 131.575 320.507C128.626 321.06 126.506 321.336 126.506 321.336C126.506 321.336 128.073 319.677 130.193 317.742C131.299 316.82 132.404 315.622 133.695 314.608C134.893 313.502 136.275 312.673 137.565 311.751C140.054 310.093 143.556 308.802 146.137 307.696C148.717 306.683 150.837 306.038 150.837 306.038Z" fill="#FF606F"/>
<path d="M162.173 296.084C162.173 296.084 161.988 297.283 161.527 298.757C161.067 300.232 160.329 301.983 159.223 302.996C158.117 304.01 156.274 304.471 154.707 304.747C153.141 305.024 151.943 305.024 151.943 305.024C151.943 305.024 152.219 303.826 152.68 302.351C153.233 300.877 153.97 299.218 155.076 298.296C156.09 297.283 157.933 296.73 159.408 296.453C160.974 296.177 162.173 296.084 162.173 296.084Z" fill="#FF606F"/>
<path d="M135.907 370.272C135.907 370.272 134.709 370.18 133.234 369.812C131.759 369.443 129.916 368.798 128.902 367.692C127.796 366.678 127.151 364.927 126.783 363.36C126.414 361.794 126.414 360.596 126.414 360.596C126.414 360.596 127.704 360.78 129.087 361.241C130.469 361.702 132.312 362.255 133.326 363.268C134.34 364.282 134.985 365.941 135.446 367.508C135.722 369.074 135.907 370.272 135.907 370.272Z" fill="#FF606F"/>
<path d="M159.408 387.967C159.408 387.967 157.288 387.598 154.616 386.677C151.851 385.94 148.533 384.373 145.952 382.622C144.662 381.792 143.556 380.502 142.45 379.304C141.344 378.106 140.331 376.816 139.593 375.618C138.026 373.222 137.013 371.378 137.013 371.378C137.013 371.378 139.04 372.116 141.621 373.314C142.911 373.959 144.386 374.512 145.768 375.341C147.15 376.079 148.533 377 149.731 377.83C152.127 379.581 154.431 382.253 156.367 384.281C158.118 386.216 159.408 387.967 159.408 387.967Z" fill="#FF606F"/>
<path d="M186.227 399.855C186.227 399.855 184.107 399.948 181.25 399.855C178.301 399.855 174.799 399.026 171.85 397.92C170.467 397.275 168.993 396.353 167.703 395.432C167.057 394.971 166.412 394.418 165.767 393.957C165.122 393.404 164.569 392.851 164.108 392.39C162.081 390.363 160.698 388.704 160.698 388.704C160.698 388.704 162.818 388.981 165.583 389.626C166.228 389.81 166.965 389.994 167.703 390.179C168.44 390.363 169.269 390.547 170.007 390.732C171.573 391.1 173.048 391.653 174.43 392.298C177.195 393.404 179.96 395.524 182.356 396.998C184.568 398.473 186.227 399.855 186.227 399.855Z" fill="#FF606F"/>
<path d="M215.258 403.45C215.258 403.45 213.322 404.279 210.465 405.017C209.728 405.201 208.991 405.385 208.254 405.57C207.424 405.754 206.687 405.846 205.857 405.938C204.198 406.123 202.447 406.123 200.973 406.03C199.406 405.846 197.747 405.385 196.18 404.832C195.351 404.556 194.614 404.279 193.876 404.003C193.139 403.634 192.494 403.266 191.849 402.897C189.268 401.515 187.609 400.317 187.609 400.317C187.609 400.317 189.729 400.04 192.586 399.856C193.323 399.856 194.061 399.856 194.798 399.764C195.535 399.671 196.365 399.671 197.194 399.671C198.761 399.579 200.328 399.671 201.802 399.856C203.277 399.948 204.844 400.317 206.318 400.685C207.055 400.869 207.793 401.146 208.53 401.33C209.267 401.515 210.005 401.699 210.65 401.883C213.23 402.621 215.258 403.45 215.258 403.45Z" fill="#FF606F"/>
<path d="M243.736 396.63C243.736 396.63 242.169 398.012 239.865 399.763C237.561 401.606 234.243 403.173 231.202 404.095C229.727 404.463 227.976 404.556 226.317 404.648C225.488 404.648 224.658 404.648 223.829 404.648C223 404.648 222.262 404.463 221.525 404.371C218.668 403.91 216.64 403.358 216.64 403.358C216.64 403.358 218.576 402.344 221.156 401.33C221.801 401.054 222.447 400.777 223.184 400.501C223.921 400.132 224.566 399.855 225.304 399.579C226.778 398.934 228.253 398.565 229.635 398.197C232.4 397.367 235.902 397.367 238.667 396.999C241.616 396.63 243.736 396.63 243.736 396.63Z" fill="#FF606F"/>
<path d="M257.099 389.534C257.099 389.534 256.638 390.639 255.901 392.022C255.164 393.404 253.966 394.971 252.676 395.708C251.293 396.445 249.358 396.446 247.791 396.353C246.224 396.261 245.026 395.985 245.026 395.985C245.026 395.985 245.579 394.879 246.409 393.589C247.238 392.298 248.344 390.916 249.634 390.271C250.832 389.534 252.676 389.441 254.242 389.441C255.809 389.441 257.099 389.534 257.099 389.534Z" fill="#FF606F"/>
<path d="M68.5364 381.977C68.5364 381.977 67.9835 380.871 67.5227 379.396C67.0618 377.922 66.6932 376.078 67.0618 374.604C67.4305 373.129 68.5364 371.655 69.7345 370.549C70.8405 369.443 71.8542 368.798 71.8542 368.798C71.8542 368.798 72.3151 369.996 72.6837 371.47C73.0524 372.945 73.421 374.788 73.0524 376.171C72.6837 377.553 71.5778 379.028 70.4718 380.133C69.458 381.239 68.5364 381.977 68.5364 381.977Z" fill="#FF606F"/>
<path d="M75.0799 406.491C75.0799 406.491 74.6191 406.675 73.6975 406.952C72.7759 407.136 71.3935 407.228 69.7345 406.583C68.0756 405.938 66.601 404.371 65.6794 402.62C64.6657 400.869 64.297 399.118 64.1127 397.459C63.8362 394.142 64.85 390.547 65.9559 387.875C67.0619 385.202 68.1678 383.451 68.1678 383.451C68.1678 383.451 68.5364 385.571 68.9972 388.243C69.4581 391.008 70.011 394.326 70.1954 396.906C70.4718 399.487 70.3797 402.344 71.4856 404.095C71.5778 404.371 71.7621 404.463 71.9464 404.74C72.1307 404.924 72.3151 405.201 72.4994 405.293C72.868 405.569 73.3288 405.938 73.6975 406.03C74.6191 406.215 75.0799 406.491 75.0799 406.491Z" fill="#FF606F"/>
<path d="M99.5949 391.93C99.5949 391.93 98.5811 393.773 97.0143 396.17C96.1849 397.368 95.1711 398.566 94.1573 399.856C93.0514 401.054 91.7611 402.16 90.563 403.081C87.9825 404.832 84.4803 406.031 81.5312 406.491C80.7939 406.584 80.0566 406.583 79.5036 406.676C78.8585 406.676 78.3977 406.676 77.9369 406.676C77.0153 406.583 76.5544 406.491 76.5544 406.491C76.5544 406.491 77.0152 406.215 77.7525 405.754C78.1212 405.57 78.4898 405.293 78.9506 404.832C79.4115 404.464 79.8723 404.095 80.4252 403.634C82.4528 401.883 84.849 399.579 87.153 398.013C88.3511 397.183 89.7336 396.446 91.116 395.709C92.4984 394.971 93.973 394.418 95.1711 393.866C97.6595 392.575 99.5949 391.93 99.5949 391.93Z" fill="#FF606F"/>
<path d="M120.331 371.747C120.331 371.747 119.502 373.682 118.212 376.171C116.829 378.659 114.986 381.7 112.866 383.82C110.747 385.94 107.613 387.691 105.125 388.981C102.636 390.271 100.701 391.008 100.701 391.008C100.701 391.008 101.623 389.073 103.097 386.677C104.572 384.281 106.507 381.424 108.627 379.304C110.654 377.184 113.604 375.341 116.092 373.959C118.396 372.576 120.331 371.747 120.331 371.747Z" fill="#FF606F"/>
<path d="M130.561 360.688C130.561 360.688 130.192 365.665 128.257 367.784C126.23 369.996 121.345 370.733 121.345 370.733C121.345 370.733 121.714 365.757 123.649 363.637C125.677 361.425 130.561 360.688 130.561 360.688Z" fill="#FF606F"/>
<path d="M181.895 479.666C181.895 479.666 179.868 479.297 177.195 478.652C174.522 477.915 171.112 476.901 168.624 475.242C166.136 473.675 163.647 471.095 161.896 468.975C160.145 466.855 158.947 465.104 158.947 465.104C158.947 465.104 160.975 465.565 163.647 466.487C166.228 467.408 169.546 468.514 171.942 470.081C174.338 471.74 176.919 474.044 178.762 476.071C180.605 478.007 181.895 479.666 181.895 479.666Z" fill="#FF606F"/>
<path d="M207.424 492.66C207.424 492.66 205.396 492.568 202.632 492.107C199.867 491.646 196.457 490.909 193.692 489.619C191.019 488.236 188.439 485.932 186.411 483.905C184.384 481.969 183.093 480.311 183.093 480.311C183.093 480.311 185.213 480.587 187.886 481.14C190.558 481.693 193.876 482.615 196.457 483.997C199.037 485.195 201.802 487.315 203.83 489.158C205.949 491.093 207.424 492.66 207.424 492.66Z" fill="#FF606F"/>
<path d="M234.704 501.046C234.704 501.046 232.676 501.415 229.819 501.692C229.082 501.784 228.345 501.784 227.608 501.784C226.87 501.784 226.041 501.692 225.211 501.692C223.645 501.507 221.986 501.323 220.511 500.862C217.654 499.848 214.613 498.097 212.401 496.346C210.189 494.595 208.714 493.213 208.714 493.213C208.714 493.213 210.834 493.213 213.599 493.489C216.364 493.766 219.774 494.042 222.446 494.964C223.829 495.425 225.211 495.978 226.594 496.623C227.331 496.991 227.976 497.36 228.621 497.729C229.266 498.097 229.912 498.374 230.557 498.742C232.861 499.941 234.704 501.046 234.704 501.046Z" fill="#FF606F"/>
<path d="M262.26 496.807C262.26 496.807 261.984 497.176 261.431 497.913C260.878 498.558 260.048 499.572 258.942 500.494C256.731 502.521 253.228 504.18 250.095 504.549C249.265 504.641 248.436 504.641 247.607 504.641C246.777 504.641 245.948 504.456 245.118 504.364C243.459 504.18 241.892 503.627 240.602 503.166C239.22 502.705 238.114 502.152 237.377 501.784C236.639 501.415 236.178 501.139 236.178 501.139C236.178 501.139 236.639 501.047 237.561 500.77C238.39 500.586 239.588 500.401 240.879 500.033C242.169 499.664 243.644 499.388 245.118 499.019C245.855 498.835 246.593 498.743 247.33 498.558C248.067 498.374 248.712 498.282 249.358 498.19C252.03 497.821 255.164 497.913 257.744 497.452C259.127 497.36 260.233 497.084 261.062 496.899C261.707 496.899 262.26 496.807 262.26 496.807Z" fill="#FF606F"/>
<path d="M274.61 472.017C274.61 472.017 274.702 472.477 274.886 473.399C275.071 474.228 275.255 475.519 275.439 476.901C275.624 479.758 275.531 483.536 274.149 486.393C273.596 487.868 272.49 489.343 271.476 490.633C270.923 491.278 270.278 491.831 269.633 492.384C269.357 492.66 269.08 492.937 268.711 493.121C268.343 493.305 268.066 493.582 267.79 493.766C267.145 494.135 266.592 494.503 266.039 494.78C265.486 495.056 265.025 495.241 264.564 495.425C263.735 495.794 263.274 495.886 263.274 495.886C263.274 495.886 263.55 495.425 263.919 494.688C264.103 494.319 264.38 493.858 264.656 493.398C264.841 492.845 265.117 492.292 265.394 491.739C265.486 491.462 265.67 491.186 265.854 490.817C265.947 490.541 266.131 490.172 266.223 489.803C266.5 489.158 266.684 488.513 266.96 487.776C267.421 486.393 267.974 485.103 268.435 483.813C269.541 481.417 271.015 478.56 272.398 476.164C273.596 473.86 274.61 472.017 274.61 472.017Z" fill="#FF606F"/>
<path d="M58.03 506.853C58.03 506.853 56.0946 507.405 53.2376 507.866C51.8552 508.143 50.2884 508.235 48.6295 508.235C47.8 508.235 46.9706 508.235 46.2333 508.143C45.4038 508.051 44.6665 507.866 43.9293 507.774C43.192 507.59 42.4547 507.405 41.6252 507.129C40.8879 506.852 40.1506 506.484 39.4133 506.115C37.9387 505.378 36.5563 504.456 35.4504 503.719C34.3444 502.89 33.3307 502.06 32.7777 501.415C32.1326 500.77 31.7639 500.401 31.7639 500.401C31.7639 500.401 32.3169 500.401 33.1463 500.494C33.9758 500.586 35.1739 500.586 36.5563 500.77C37.9387 500.862 39.4133 500.954 40.9801 501.139C41.7174 501.231 42.4547 501.323 43.192 501.415C43.9293 501.507 44.6665 501.599 45.3117 501.784C45.9568 501.968 46.6941 502.152 47.4314 502.429C48.1687 502.613 48.906 502.89 49.5511 503.166C51.0257 503.719 52.4081 504.364 53.6062 504.917C56.0946 505.839 58.03 506.853 58.03 506.853Z" fill="#FF606F"/>
<path d="M86.508 505.194C86.508 505.194 84.7569 506.299 82.1764 507.405C79.5959 508.696 76.1859 509.709 73.2367 509.986C71.7621 510.17 70.1032 509.894 68.4443 509.709C66.8776 509.433 65.3108 509.156 63.9284 508.696C61.2557 507.774 59.3203 506.945 59.3203 506.945C59.3203 506.945 61.3479 506.207 63.9284 505.562C65.2187 505.286 66.6932 504.825 68.26 504.456C69.7346 504.088 71.3013 503.996 72.6838 503.811C75.5408 503.535 78.8586 504.088 81.6234 504.364C84.3883 504.733 86.508 505.194 86.508 505.194Z" fill="#FF606F"/>
<path d="M113.696 496.623C113.696 496.623 112.221 498.098 110.009 499.756C107.797 501.6 104.756 503.351 101.899 504.364C100.517 504.825 98.8576 505.102 97.1987 505.286C95.632 505.47 93.973 505.47 92.5906 505.378C89.7336 505.194 87.7061 504.917 87.7061 504.917C87.7061 504.917 89.4571 503.719 91.8533 502.337C93.0514 501.692 94.4339 500.862 95.7241 500.217C97.1065 499.48 98.5811 498.927 99.8714 498.466C102.544 497.545 106.046 497.268 108.719 496.9C111.576 496.623 113.696 496.623 113.696 496.623Z" fill="#FF606F"/>
<path d="M138.764 482.891C138.764 482.891 137.565 484.55 135.722 486.67C133.879 488.789 131.206 491.185 128.626 492.66C127.336 493.397 125.769 493.95 124.294 494.411C122.727 494.872 121.253 495.24 119.87 495.425C117.106 495.886 114.986 495.978 114.986 495.978C114.986 495.978 116.46 494.411 118.488 492.568C119.502 491.646 120.7 490.632 121.898 489.619C123.096 488.605 124.386 487.776 125.677 487.038C128.165 485.564 131.483 484.642 134.155 483.813C136.736 483.26 138.764 482.891 138.764 482.891Z" fill="#FF606F"/>
<path d="M161.435 465.473C161.435 465.473 160.422 467.316 158.855 469.62C157.288 471.924 155.076 474.689 152.772 476.624C150.376 478.468 147.058 479.758 144.478 480.772C141.805 481.693 139.87 482.154 139.87 482.154C139.87 482.154 140.976 480.403 142.727 478.191C144.386 475.979 146.69 473.491 148.994 471.74C151.206 469.897 154.339 468.33 156.827 467.316C159.5 466.118 161.435 465.473 161.435 465.473Z" fill="#FF606F"/>
<path d="M56.1682 335.074C55.0179 335.032 53.3991 334.946 51.5673 334.861C50.63 334.818 49.6502 334.775 48.5852 334.733C47.5628 334.69 46.4978 334.647 45.3901 334.605C43.2601 334.519 41.0874 334.477 39.0852 334.519C43.9417 329.612 49.4372 323.254 49.4372 323.254C49.4372 323.254 43.1323 328.716 38.2332 333.495C38.2332 323.638 37.3812 310.879 37.3812 310.879C37.3812 310.879 36.5717 323.638 36.5291 333.495C32.1839 329.228 26.4327 324.321 26.4327 324.321C26.4327 324.321 31.417 330.21 35.7623 334.605C32.5673 334.69 29.2444 334.861 26.4753 335.032C22.7265 335.288 20 335.544 20 335.544C20 335.544 22.6839 335.8 26.4327 336.098C29.074 336.269 32.1839 336.482 35.2511 336.568C30.8632 341.134 26.4327 346.297 26.4327 346.297C26.4327 346.297 31.8857 341.603 36.5717 337.08C36.6996 346.382 37.3812 356.879 37.3812 356.879C37.3812 356.879 38.0628 346.382 38.1906 337.037C42.2803 340.92 46.8386 344.803 46.8386 344.803C46.8386 344.803 43.2175 340.536 39.5112 336.568C41.4283 336.525 43.4305 336.44 45.4327 336.354C45.9865 336.312 46.4978 336.269 47.0516 336.269C47.5628 336.226 48.1166 336.184 48.6278 336.141C49.6502 336.056 50.6726 335.97 51.5673 335.885C53.4417 335.714 55.0179 335.544 56.1682 335.416C57.3184 335.288 58 335.202 58 335.202C58 335.202 57.3184 335.16 56.1682 335.074Z" fill="#FF606F"/>
<path d="M256 51.613C256 52.7579 262.869 53.9028 271.701 53.9028C271.864 64.37 272.846 72.3841 273.991 72.3841C275.136 72.3841 276.117 64.37 276.28 53.9028C284.621 53.7392 290.836 52.7579 290.836 51.613C290.836 50.4682 284.458 49.4869 276.28 49.3233C276.28 37.8747 275.299 28.8794 273.991 28.8794C272.682 28.8794 271.701 37.8747 271.701 49.1598C262.869 49.3233 256 50.3046 256 51.613Z" fill="#B3C8D3"/>
<path d="M70 155.613C70 156.758 76.8692 157.903 85.7009 157.903C85.8645 168.37 86.8458 176.384 87.9907 176.384C89.1355 176.384 90.1168 168.37 90.2804 157.903C98.6215 157.739 104.836 156.758 104.836 155.613C104.836 154.468 98.4579 153.487 90.2804 153.323C90.2804 141.875 89.2991 132.879 87.9907 132.879C86.6822 132.879 85.7009 141.875 85.7009 153.16C76.8692 153.323 70 154.305 70 155.613Z" fill="#FF606F"/>
<path d="M249 77.4659C249 78.1501 253.141 78.8343 258.465 78.8343C258.563 85.0899 259.155 89.8794 259.845 89.8794C260.535 89.8794 261.127 85.0899 261.225 78.8343C266.254 78.7365 270 78.1501 270 77.4659C270 76.7816 266.155 76.1952 261.225 76.0974C261.225 69.2553 260.634 63.8794 259.845 63.8794C259.056 63.8794 258.465 69.2553 258.465 75.9997C253.141 76.0974 249 76.6839 249 77.4659Z" fill="#B3C8D3"/>
<path d="M267 260.466C267 261.15 271.141 261.834 276.465 261.834C276.563 268.09 277.155 272.879 277.845 272.879C278.535 272.879 279.127 268.09 279.225 261.834C284.254 261.737 288 261.15 288 260.466C288 259.782 284.155 259.195 279.225 259.097C279.225 252.255 278.634 246.879 277.845 246.879C277.056 246.879 276.465 252.255 276.465 259C271.141 259.097 267 259.684 267 260.466Z" fill="#B3C8D3"/>
<path d="M289 451.24C289 451.661 291.563 452.082 294.859 452.082C294.92 455.932 295.286 458.879 295.714 458.879C296.141 458.879 296.507 455.932 296.568 452.082C299.681 452.022 302 451.661 302 451.24C302 450.819 299.62 450.458 296.568 450.398C296.568 446.188 296.202 442.879 295.714 442.879C295.225 442.879 294.859 446.188 294.859 450.338C291.563 450.398 289 450.759 289 451.24Z" fill="#B3C8D3"/>
<path d="M21 411.466C21 412.15 25.1408 412.834 30.4648 412.834C30.5634 419.09 31.1549 423.879 31.8451 423.879C32.5352 423.879 33.1268 419.09 33.2254 412.834C38.2535 412.737 42 412.15 42 411.466C42 410.782 38.1549 410.195 33.2254 410.097C33.2254 403.255 32.6338 397.879 31.8451 397.879C31.0563 397.879 30.4648 403.255 30.4648 410C25.1408 410.097 21 410.684 21 411.466Z" fill="#B3C8D3"/>
<path d="M258.349 165.594C256.684 165.532 254.341 165.41 251.689 165.288C250.333 165.226 248.915 165.165 247.373 165.104C245.893 165.043 244.352 164.981 242.749 164.92C239.666 164.798 236.521 164.737 233.623 164.798C240.652 157.757 248.607 148.634 248.607 148.634C248.607 148.634 239.481 156.471 232.39 163.328C232.39 149.186 231.157 130.879 231.157 130.879C231.157 130.879 229.985 149.186 229.924 163.328C223.635 157.206 215.311 150.165 215.311 150.165C215.311 150.165 222.525 158.614 228.814 164.92C224.189 165.043 219.38 165.288 215.372 165.532C209.946 165.9 206 166.267 206 166.267C206 166.267 209.885 166.634 215.311 167.063C219.133 167.308 223.635 167.614 228.074 167.737C221.723 174.288 215.311 181.696 215.311 181.696C215.311 181.696 223.203 174.961 229.985 168.471C230.17 181.818 231.157 196.879 231.157 196.879C231.157 196.879 232.143 181.818 232.328 168.41C238.248 173.981 244.845 179.553 244.845 179.553C244.845 179.553 239.604 173.43 234.24 167.737C237.015 167.675 239.913 167.553 242.811 167.43C243.612 167.369 244.352 167.308 245.154 167.308C245.893 167.247 246.695 167.186 247.435 167.124C248.915 167.002 250.395 166.879 251.689 166.757C254.402 166.512 256.684 166.267 258.349 166.083C260.013 165.9 261 165.777 261 165.777C261 165.777 260.013 165.716 258.349 165.594Z" fill="#72BAD1"/>
<path d="M94.3487 245.594C92.6839 245.532 90.3408 245.41 87.6895 245.288C86.333 245.226 84.9148 245.165 83.3733 245.104C81.8935 245.043 80.352 244.981 78.7489 244.92C75.6659 244.798 72.5213 244.737 69.6233 244.798C76.6525 237.757 84.6065 228.634 84.6065 228.634C84.6065 228.634 75.4809 236.471 68.3901 243.328C68.3901 229.186 67.1569 210.879 67.1569 210.879C67.1569 210.879 65.9854 229.186 65.9238 243.328C59.6345 237.206 51.3105 230.165 51.3105 230.165C51.3105 230.165 58.5247 238.614 64.8139 244.92C60.1895 245.043 55.38 245.288 51.3722 245.532C45.9462 245.9 42 246.267 42 246.267C42 246.267 45.8845 246.634 51.3105 247.063C55.1334 247.308 59.6345 247.614 64.074 247.737C57.7231 254.288 51.3105 261.696 51.3105 261.696C51.3105 261.696 59.2029 254.961 65.9854 248.471C66.1704 261.818 67.1569 276.879 67.1569 276.879C67.1569 276.879 68.1435 261.818 68.3285 248.41C74.2478 253.981 80.8453 259.553 80.8453 259.553C80.8453 259.553 75.6043 253.43 70.2399 247.737C73.0146 247.675 75.9126 247.553 78.8105 247.43C79.6121 247.369 80.352 247.308 81.1536 247.308C81.8935 247.247 82.6951 247.186 83.435 247.124C84.9148 247.002 86.3946 246.879 87.6895 246.757C90.4025 246.512 92.6839 246.267 94.3487 246.083C96.0135 245.9 97 245.777 97 245.777C97 245.777 96.0135 245.716 94.3487 245.594Z" fill="#72BAD1"/>
</g>
<rect x="8" y="5.87939" width="121" height="117" fill="#C4C4C4"/>
<rect x="188" y="312.879" width="121" height="117" fill="#C4C4C4"/>
<path d="M42.1904 100.756L60.5596 100.38L63.084 85.5562L67.2197 86.8989L69.0459 110.478L18.8262 110.263L49.6562 62.6216C53.4876 56.4627 54.7409 48.7463 53.416 39.4722C52.127 34.3875 45.986 34.5129 34.9932 39.8481C31.8779 41.8534 29.7474 46.3293 28.6016 53.2759L21.5117 51.772L21.0283 23.8423L26.3994 24.5942L28.9775 33.7788C48.5999 20.745 61.5443 21.7297 67.8105 36.7329C71.3555 44.145 70.4782 52.7209 65.1787 62.4604L42.1904 100.756ZM60.5596 46.7231C60.1299 43.3215 59.0736 40.2599 57.3906 37.5386C59.6823 45.2013 59.8434 52.8104 57.874 60.3657C60.0941 54.6366 60.9893 50.089 60.5596 46.7231ZM60.7207 39.687C60.3268 35.8914 58.5007 33.009 55.2422 31.0396C57.4622 33.7609 59.002 36.2674 59.8613 38.5591L60.7207 39.687ZM60.5596 60.7417C63.639 55.6213 64.2656 50.3934 62.4395 45.0581C63.2272 51.7541 61.7233 58.1457 57.9277 64.2329L60.5596 60.7417ZM82.4736 70.8394C96.8324 70.9468 104.101 75.8166 104.28 85.4487C104.961 99.1629 101.362 106.557 93.4844 107.631C88.722 107.882 84.1387 104.104 79.7344 96.2983L72.6445 100.703C74.8646 110.048 79.8776 115.527 87.6836 117.138C111.209 120.647 123.151 111.91 123.509 90.9272C123.294 78.7528 116.061 70.6424 101.81 66.5962C111.549 62.908 116.992 56.4269 118.138 47.1528C118.209 24.6659 106.626 18.2026 83.3867 27.7632L82.7422 19.3306L77.4248 19.5991L75.5986 41.7817L84.3535 40.4927C94.487 31.1112 100.162 31.2007 101.38 40.7612C101.953 52.8641 95.7581 60.5269 82.7959 63.7495L82.4736 70.8394ZM106.751 109.243C108.506 107.989 109.92 105.751 110.994 102.529C111.03 105.608 109.616 107.846 106.751 109.243ZM108.953 87.6509C109.383 91.0168 108.488 95.5643 106.268 101.293C108.237 93.7381 108.076 86.1291 105.784 78.4663C107.467 81.1877 108.523 84.2492 108.953 87.6509ZM109.114 80.6147L108.255 79.4868C107.396 77.1951 105.856 74.6886 103.636 71.9673C106.894 73.9367 108.72 76.8192 109.114 80.6147ZM108.631 102.583L105.999 106.074C109.795 99.9865 111.299 93.5949 110.511 86.8989C112.337 92.2342 111.71 97.4621 108.631 102.583ZM80.4863 108.92C77.6217 107.524 76.2074 105.286 76.2432 102.207C77.3174 105.429 78.7318 107.667 80.4863 108.92ZM106.214 46.6694C105.784 50.0353 104.728 53.0789 103.045 55.8003C105.337 48.1375 105.498 40.5285 103.528 32.9731C105.748 38.7023 106.644 43.2677 106.214 46.6694ZM106.214 32.5972C109.293 37.7176 109.92 42.9455 108.094 48.2808C108.882 41.5848 107.378 35.1932 103.582 29.106L106.214 32.5972Z" fill="#2D3962"/>
<path d="M39.1904 97.7563L57.5596 97.3804L60.084 82.5562L64.2197 83.8989L66.0459 107.478L15.8262 107.263L46.6562 59.6216C50.4876 53.4627 51.7409 45.7463 50.416 36.4722C49.127 31.3875 42.986 31.5129 31.9932 36.8481C28.8779 38.8534 26.7474 43.3293 25.6016 50.2759L18.5117 48.772L18.0283 20.8423L23.3994 21.5942L25.9775 30.7788C45.5999 17.745 58.5443 18.7297 64.8105 33.7329C68.3555 41.145 67.4782 49.7209 62.1787 59.4604L39.1904 97.7563ZM57.5596 43.7231C57.1299 40.3215 56.0736 37.2599 54.3906 34.5386C56.6823 42.2013 56.8434 49.8104 54.874 57.3657C57.0941 51.6366 57.9893 47.089 57.5596 43.7231ZM57.7207 36.687C57.3268 32.8914 55.5007 30.009 52.2422 28.0396C54.4622 30.7609 56.002 33.2674 56.8613 35.5591L57.7207 36.687ZM57.5596 57.7417C60.639 52.6213 61.2656 47.3934 59.4395 42.0581C60.2272 48.7541 58.7233 55.1457 54.9277 61.2329L57.5596 57.7417ZM79.4736 67.8394C93.8324 67.9468 101.101 72.8166 101.28 82.4487C101.961 96.1629 98.362 103.557 90.4844 104.631C85.722 104.882 81.1387 101.104 76.7344 93.2983L69.6445 97.7026C71.8646 107.048 76.8776 112.527 84.6836 114.138C108.209 117.647 120.151 108.91 120.509 87.9272C120.294 75.7528 113.061 67.6424 98.8096 63.5962C108.549 59.908 113.992 53.4269 115.138 44.1528C115.209 21.6659 103.626 15.2026 80.3867 24.7632L79.7422 16.3306L74.4248 16.5991L72.5986 38.7817L81.3535 37.4927C91.487 28.1112 97.1624 28.2007 98.3799 37.7612C98.9528 49.8641 92.7581 57.5269 79.7959 60.7495L79.4736 67.8394ZM103.751 106.243C105.506 104.989 106.92 102.751 107.994 99.5288C108.03 102.608 106.616 104.846 103.751 106.243ZM105.953 84.6509C106.383 88.0168 105.488 92.5643 103.268 98.2935C105.237 90.7381 105.076 83.1291 102.784 75.4663C104.467 78.1877 105.523 81.2492 105.953 84.6509ZM106.114 77.6147L105.255 76.4868C104.396 74.1951 102.856 71.6886 100.636 68.9673C103.894 70.9367 105.72 73.8192 106.114 77.6147ZM105.631 99.5825L102.999 103.074C106.795 96.9865 108.299 90.5949 107.511 83.8989C109.337 89.2342 108.71 94.4621 105.631 99.5825ZM77.4863 105.92C74.6217 104.524 73.2074 102.286 73.2432 99.2065C74.3174 102.429 75.7318 104.667 77.4863 105.92ZM103.214 43.6694C102.784 47.0353 101.728 50.0789 100.045 52.8003C102.337 45.1375 102.498 37.5285 100.528 29.9731C102.748 35.7023 103.644 40.2677 103.214 43.6694ZM103.214 29.5972C106.293 34.7176 106.92 39.9455 105.094 45.2808C105.882 38.5848 104.378 32.1932 100.582 26.106L103.214 29.5972Z" fill="#FFFEFA"/>
<path d="M220.753 411.751L239.122 411.375L241.646 396.551L245.782 397.894L247.608 421.473L197.389 421.258L228.219 373.617C232.05 367.458 233.303 359.741 231.979 350.467C230.689 345.383 224.549 345.508 213.556 350.843C210.44 352.848 208.31 357.324 207.164 364.271L200.074 362.767L199.591 334.837L204.962 335.589L207.54 344.774C227.162 331.74 240.107 332.725 246.373 347.728C249.918 355.14 249.041 363.716 243.741 373.456L220.753 411.751ZM239.122 357.718C238.692 354.317 237.636 351.255 235.953 348.534C238.245 356.196 238.406 363.806 236.437 371.361C238.657 365.632 239.552 361.084 239.122 357.718ZM239.283 350.682C238.889 346.887 237.063 344.004 233.805 342.035C236.025 344.756 237.564 347.263 238.424 349.554L239.283 350.682ZM239.122 371.737C242.201 366.616 242.828 361.389 241.002 356.053C241.79 362.749 240.286 369.141 236.49 375.228L239.122 371.737ZM251.207 386.346V400.741L280.748 400.365L280.426 413.47L267.965 418.358V421.527L305.079 421.903L305.133 417.767L295.304 413.792L295.035 400.15L302.447 400.042L305.079 405.628L308.517 405.897L309 382.801H305.24L302.018 388.871L294.874 388.763L294.015 341.712L300.46 339.081L300.353 335.589H275.323V338.382L282.037 342.787L251.207 386.346ZM261.305 388.387L281.661 358.202L281.017 388.602L261.305 388.387ZM284.723 351.166C285.296 354.317 285.331 357.772 284.83 361.532C284.257 359.777 284.221 356.322 284.723 351.166ZM285.421 368.246V374.208C285.349 381.154 284.991 386.078 284.347 388.978C284.096 383.535 284.221 375.335 284.723 364.378L285.099 363.465L285.421 368.246ZM288.966 364.378C289.002 361.227 289.145 356.984 289.396 351.649C289.682 346.278 290.004 343.592 290.362 343.592C290.362 353.762 290.237 362.23 289.986 368.998L289.933 379.793L289.664 379.847C289.199 375.407 288.984 371.11 289.02 366.957C289.02 366.348 289.002 365.488 288.966 364.378ZM288.805 337.899C285.654 338.472 282.198 338.526 278.438 338.06C280.229 337.487 283.684 337.433 288.805 337.899Z" fill="#2D3962"/>
<path d="M217.753 408.751L236.122 408.375L238.646 393.551L242.782 394.894L244.608 418.473L194.389 418.258L225.219 370.617C229.05 364.458 230.303 356.741 228.979 347.467C227.689 342.383 221.549 342.508 210.556 347.843C207.44 349.848 205.31 354.324 204.164 361.271L197.074 359.767L196.591 331.837L201.962 332.589L204.54 341.774C224.162 328.74 237.107 329.725 243.373 344.728C246.918 352.14 246.041 360.716 240.741 370.456L217.753 408.751ZM236.122 354.718C235.692 351.317 234.636 348.255 232.953 345.534C235.245 353.196 235.406 360.806 233.437 368.361C235.657 362.632 236.552 358.084 236.122 354.718ZM236.283 347.682C235.889 343.887 234.063 341.004 230.805 339.035C233.025 341.756 234.564 344.263 235.424 346.554L236.283 347.682ZM236.122 368.737C239.201 363.616 239.828 358.389 238.002 353.053C238.79 359.749 237.286 366.141 233.49 372.228L236.122 368.737ZM248.207 383.346V397.741L277.748 397.365L277.426 410.47L264.965 415.358V418.527L302.079 418.903L302.133 414.767L292.304 410.792L292.035 397.15L299.447 397.042L302.079 402.628L305.517 402.897L306 379.801H302.24L299.018 385.871L291.874 385.763L291.015 338.712L297.46 336.081L297.353 332.589H272.323V335.382L279.037 339.787L248.207 383.346ZM258.305 385.387L278.661 355.202L278.017 385.602L258.305 385.387ZM281.723 348.166C282.296 351.317 282.331 354.772 281.83 358.532C281.257 356.777 281.221 353.322 281.723 348.166ZM282.421 365.246V371.208C282.349 378.154 281.991 383.078 281.347 385.978C281.096 380.535 281.221 372.335 281.723 361.378L282.099 360.465L282.421 365.246ZM285.966 361.378C286.002 358.227 286.145 353.984 286.396 348.649C286.682 343.278 287.004 340.592 287.362 340.592C287.362 350.762 287.237 359.23 286.986 365.998L286.933 376.793L286.664 376.847C286.199 372.407 285.984 368.11 286.02 363.957C286.02 363.348 286.002 362.488 285.966 361.378ZM285.805 334.899C282.654 335.472 279.198 335.526 275.438 335.06C277.229 334.487 280.684 334.433 285.805 334.899Z" fill="#FFFEFA"/>
<defs>
<clipPath id="clip0">
<rect width="301" height="630" fill="white" transform="translate(9 12.8794)"/>
</clipPath>
</defs>
</svg>
