<svg width="298" height="292" viewBox="0 0 298 292" fill="none" xmlns="http://www.w3.org/2000/svg">
<path d="M4.32022 6.87939L297.64 11.8794V280.879L0.5 284.379L4.32022 6.87939Z" fill="#2D3962"/>
<g clip-path="url(#clip0)">
<path d="M57.946 204.125L40.2578 219.075L59.0245 291.88L75.9577 218.642L57.946 204.125Z" fill="#FF606F"/>
<path d="M67.2216 211.6L57.9461 204.125L48.9941 211.708C55.1419 212.358 61.1817 212.467 67.2216 211.6Z" fill="#2D3962"/>
<path d="M64.0937 273.678C64.0937 273.678 64.0937 272.595 63.9858 270.428C63.878 268.262 63.7701 264.903 63.5544 260.353C63.3387 255.802 62.9073 249.952 62.2601 242.802C61.9366 239.227 61.5052 235.326 60.858 231.101C60.5345 229.043 60.2109 226.767 59.5638 224.601C59.2402 223.517 58.9166 222.434 58.4852 221.35C58.2695 220.809 57.946 220.375 57.7302 220.05C57.6224 219.942 57.4067 219.725 57.4067 219.725C57.2988 219.725 57.2988 219.725 57.191 219.834C56.9753 220.05 56.6517 220.484 56.436 221.025C56.2203 221.567 56.0046 222.109 55.8967 222.651C55.5731 223.734 55.3574 224.926 55.1417 226.009C54.7103 228.284 54.4946 230.451 54.2789 232.509C53.8475 236.735 53.7396 240.527 53.5239 243.993C53.3082 250.927 53.2003 256.452 53.2003 260.786C53.2003 265.12 53.2003 268.153 53.3082 270.103C53.3082 272.053 53.3082 272.92 53.3082 272.92H52.5532C52.5532 272.92 52.4454 272.162 52.3375 270.428C52.2297 268.587 52.1218 265.77 52.0139 261.653C51.9061 257.536 51.7982 252.119 52.0139 245.077C52.1218 241.61 52.2297 237.71 52.5532 233.376C52.7689 231.209 52.9846 228.934 53.3082 226.551C53.5239 225.359 53.7396 224.167 54.0632 222.867C54.171 222.217 54.3867 221.567 54.6025 221.025C54.8182 220.375 55.1417 219.725 55.5732 219.075C55.7889 218.75 56.1124 218.425 56.6517 218.209C57.0831 217.992 57.8381 217.992 58.2695 218.209C58.3774 218.317 58.4852 218.317 58.5931 218.425C58.7009 218.534 58.8088 218.534 58.8088 218.642C59.0245 218.75 59.0245 218.967 59.2402 219.075C59.4559 219.4 59.6716 219.725 59.7795 220.05C60.4266 221.242 60.7502 222.434 61.0737 223.626C61.7209 226.009 62.0444 228.284 62.368 230.451C63.0151 234.893 63.4465 238.902 63.7701 242.585C64.4172 249.952 64.7408 255.802 64.9565 260.461C65.1722 265.011 65.2801 268.37 65.2801 270.537C65.2801 272.703 65.2801 273.678 65.2801 273.678H64.0937Z" fill="#C24751"/>
<path d="M68.3 257.319C68.3 257.319 68.3 256.886 68.1922 256.127C68.0843 255.261 67.9765 254.069 67.8686 252.336C67.7608 250.602 67.5451 248.435 67.4372 245.727C67.3293 243.018 67.2215 239.768 67.3293 235.976C67.4372 232.184 67.8686 229.043 68.4079 226.334C69.055 223.734 69.9179 221.675 71.2121 220.267C71.8592 219.617 72.6142 219.184 73.2613 218.967C73.9085 218.75 74.5556 218.75 74.987 218.75C75.8499 218.859 76.2813 219.075 76.2813 219.184L75.8499 219.942C75.8499 219.942 75.742 219.942 75.6342 219.834C75.5263 219.834 75.2027 219.725 74.8792 219.725C74.232 219.725 73.1535 219.834 72.1828 220.917C71.2121 221.892 70.4571 223.734 69.81 226.226C69.2707 228.717 68.8393 231.859 68.7315 235.651C68.6236 239.551 68.6236 242.802 68.7315 245.51C68.8393 248.219 68.9472 250.494 69.055 252.119C69.1629 253.852 69.2707 255.044 69.2707 255.911C69.2707 256.669 69.3786 257.102 69.3786 257.102L68.3 257.319Z" fill="#C24751"/>
<path d="M39.9343 218.859C40.0422 218.859 40.7972 218.534 42.0914 218.75C42.7385 218.859 43.4935 219.184 44.2485 219.725C45.0035 220.267 45.6506 220.917 46.1899 221.784C47.2684 223.517 48.1313 225.684 48.6706 228.067C49.2098 230.451 49.5334 233.051 49.6412 235.543C49.9648 240.635 49.857 245.727 49.6412 249.627C49.5334 250.602 49.5334 251.469 49.5334 252.227C49.4255 252.986 49.4255 253.636 49.4255 254.177C49.3177 255.261 49.3177 255.911 49.3177 255.911L48.2391 255.802C48.2391 255.802 48.2391 254.719 48.2391 251.685C48.2391 250.169 48.347 248.219 48.347 245.727C48.347 243.235 48.347 240.093 48.1313 236.301C48.0234 234.459 47.8077 232.726 47.6999 231.101C47.4841 229.584 47.2684 228.067 46.837 226.876C46.1899 224.384 45.3271 222.434 44.2485 221.35C43.2778 220.159 42.0914 219.834 41.4443 219.834C40.6893 219.834 40.3657 219.942 40.4736 219.942L39.9343 218.859Z" fill="#C24751"/>
<path d="M83.9389 196.216C83.9389 202.499 72.3985 207.7 58.1617 207.808C43.817 207.916 32.2766 202.824 32.1687 196.432C32.1687 190.149 43.7091 184.948 57.946 184.84C72.2906 184.84 83.9389 189.824 83.9389 196.216Z" fill="#FF606F"/>
<path d="M76.0657 187.982C71.4279 186.032 65.0645 184.84 58.0539 184.84C50.7198 184.84 44.1407 186.249 39.5029 188.415C51.4748 191.557 63.8781 190.365 76.0657 187.982Z" fill="#2D3962"/>
<path d="M81.4583 196.974C81.9976 188.957 53.7397 190.474 51.6904 197.949C49.3176 207.05 80.919 205.316 81.4583 196.974Z" fill="#C24751"/>
<path d="M60.2111 195.999C60.2111 197.299 57.5148 198.274 50.6121 198.166C43.6015 198.057 34.9731 196.757 34.9731 195.457C34.9731 194.157 43.7094 193.29 50.7199 193.399C57.6226 193.615 60.2111 194.699 60.2111 195.999Z" fill="#FFFCF2"/>
<path d="M61.074 196.107C61.074 197.082 62.1525 197.949 63.6625 197.949C65.0646 197.949 66.251 197.191 66.3589 196.216C66.3589 195.241 65.2803 194.374 63.7703 194.374C62.2604 194.265 61.074 195.024 61.074 196.107Z" fill="#FFFCF2"/>
<path d="M38.9636 111.169L36.4829 127.853L79.3012 128.178L77.1441 113.553L38.9636 111.169Z" fill="#FF606F"/>
<path d="M103.784 152.23C104.755 170.106 85.1254 185.815 59.8875 187.224C34.6495 188.632 13.2943 175.306 12.3236 157.43C11.3529 139.554 30.9824 123.845 56.2204 122.436C81.4584 120.92 102.706 134.246 103.784 152.23Z" fill="#FF606F"/>
<path d="M82.7527 136.629C66.3588 135.871 51.7984 147.463 47.8078 159.814C47.0528 162.089 46.7292 164.472 46.7292 166.639C46.945 178.015 60.3189 190.474 83.8312 176.281C91.7046 171.514 96.3424 165.881 98.3916 160.247C102.814 148.655 95.6953 137.279 82.7527 136.629Z" fill="#C24751"/>
<path d="M12 147.896C12 147.896 25.8054 147.571 58.9168 146.813C92.0281 146.055 103.892 145.729 103.892 145.729V147.03C103.892 147.03 93.8617 148.655 59.5639 149.413C25.2661 150.28 12 149.955 12 149.955V147.896Z" fill="#C24751"/>
<path d="M102.921 166.422C102.921 166.422 89.3317 166.206 56.8674 165.556C24.4032 164.906 12.7549 164.689 12.7549 164.689V163.389C12.7549 163.389 22.6775 162.197 56.3282 162.847C89.9788 163.497 102.921 164.256 102.921 164.256V166.422Z" fill="#C2515C"/>
<path d="M37.4536 120.703L46.5134 112.577L50.504 121.895L58.9167 116.369L64.7408 120.703L70.7807 117.344L78.2227 120.811L77.1441 105.102L39.7186 106.185L37.4536 120.703Z" fill="#2D3962"/>
<path d="M41.2286 93.6181L38.1008 116.911L47.3763 109.869L50.8277 120.378L58.5932 110.411L64.4174 119.728L70.1337 110.194L78.007 117.561L76.2814 93.5098L41.2286 93.6181Z" fill="#A49D9E"/>
<path d="M44.2485 96.3267L44.1406 108.352L55.3575 98.2768L44.2485 96.3267Z" fill="#FFFCF2"/>
<path d="M41.2285 93.618C41.2285 93.618 59.2402 84.4091 76.2813 93.4013C76.2813 93.5097 60.2109 100.227 41.2285 93.618Z" fill="#FFFCF2"/>
<path d="M63.986 93.1847C63.986 93.1847 64.0938 93.0764 64.3095 92.9681C64.5252 92.7514 64.8488 92.5347 65.3881 92.1013C65.8195 91.7763 66.3588 91.2346 67.0059 90.5846C67.653 89.9346 68.1923 89.0678 68.8394 87.9844C69.3787 86.9011 69.918 85.601 70.1337 84.0842C70.3494 82.5675 70.2415 80.834 69.5944 79.1006C68.9473 77.3672 67.653 75.6337 65.7116 74.5503C63.7703 73.4669 61.2896 72.9252 58.7011 73.1419C56.0047 73.3586 53.6319 74.117 51.7984 75.4171C49.9649 76.7171 48.8863 78.4506 48.4549 80.184C48.2392 81.0507 48.1313 81.9174 48.1313 82.6758C48.1313 83.5425 48.2392 84.3009 48.347 84.9509C48.6706 86.3594 49.2099 87.5511 49.7492 88.5261C50.2884 89.5012 50.9355 90.2596 51.4748 90.8013C52.0141 91.343 52.5534 91.7763 52.9848 92.1013C53.2005 92.2097 53.4162 92.318 53.5241 92.4264C53.7398 92.5347 53.8476 92.5347 53.9555 92.643C53.9555 92.8597 54.0633 92.9681 54.0633 92.9681L53.7398 93.7264C53.7398 93.7264 53.6319 93.7264 53.4162 93.6181C53.2005 93.5098 52.8769 93.4014 52.4455 93.1847C51.5827 92.643 50.1806 91.7763 48.7785 89.8262C48.1313 88.8512 47.4842 87.6594 46.9449 86.0343C46.5135 84.5176 46.2978 82.6758 46.6214 80.6174C46.9449 78.5589 48.1313 76.2838 50.0727 74.6587C52.122 73.0336 54.8183 71.9502 57.8382 71.7335C59.3482 71.6252 60.8582 71.6252 62.2603 71.8419C63.6624 72.0585 64.9567 72.6002 66.1431 73.2503C68.5159 74.5503 70.0258 76.6088 70.8887 78.6672C71.6436 80.7257 71.7515 82.7841 71.5358 84.5176C71.3201 86.251 70.6729 87.7678 70.0258 88.9595C69.3787 90.1512 68.6237 91.018 67.9766 91.7763C67.3295 92.5347 66.6823 92.9681 66.2509 93.4014C65.8195 93.8348 65.3881 94.0515 65.1724 94.2681C64.9567 94.4848 64.8488 94.4848 64.8488 94.4848L63.986 93.1847Z" fill="#A49D9E"/>
<path d="M42.415 127.42L51.0433 129.912C51.0433 129.912 33.6787 137.062 28.6096 159.597L15.3435 152.013C15.2356 151.905 21.2755 134.245 42.415 127.42Z" fill="#FFFCF2"/>
<path d="M99.5781 153.205C99.2545 153.313 98.9309 152.88 98.4995 152.121C98.2838 151.796 98.0681 151.363 97.7445 150.821C97.6367 150.605 97.421 150.28 97.3131 150.063C97.2053 149.738 96.9895 149.521 96.7738 149.196C95.3717 146.813 93.3225 143.779 90.3026 141.071C90.0868 140.854 89.979 140.746 89.7633 140.529C89.5476 140.421 89.3319 140.204 89.224 140.096C88.7926 139.771 88.469 139.446 88.1455 139.121C87.3905 138.579 86.6355 137.929 85.8805 137.496C85.557 137.279 85.1255 136.954 84.802 136.737C84.4784 136.521 84.047 136.304 83.7234 136.087C83.5077 135.979 83.3999 135.871 83.1842 135.762C82.9684 135.654 82.8606 135.545 82.6449 135.437C82.3213 135.22 81.9977 135.112 81.6742 134.895C81.1349 134.57 80.4878 134.245 80.0564 134.029C79.6249 133.704 79.1935 133.487 78.7621 133.27C78.115 132.837 77.6836 132.404 77.7914 132.187C77.8993 131.862 78.3307 131.754 79.1935 131.645C79.6249 131.645 80.1642 131.645 80.8113 131.645C81.4585 131.754 82.1056 131.754 82.8606 131.97C83.1841 132.079 83.6156 132.187 84.047 132.295C84.2627 132.404 84.4784 132.404 84.6941 132.512C84.9098 132.62 85.1255 132.62 85.3412 132.729C85.7727 132.945 86.2041 133.054 86.6355 133.27C87.0669 133.487 87.4983 133.704 87.9298 133.92C88.9005 134.354 89.7633 135.004 90.6261 135.545C91.0575 135.871 91.489 136.196 92.0282 136.629C92.2439 136.846 92.4597 136.954 92.6754 137.171C92.8911 137.387 93.1068 137.604 93.3225 137.821C96.8817 141.071 98.9309 144.971 99.6859 148.005C99.7938 148.33 99.9016 148.763 99.9016 149.088C99.9016 149.413 100.009 149.738 100.009 150.063C100.009 150.713 100.117 151.146 100.117 151.688C100.117 152.663 99.9016 153.205 99.5781 153.205Z" fill="#FFFCF2"/>
<path d="M100.009 156.022C99.578 156.022 99.1466 155.588 99.0387 155.047C98.9309 154.505 99.3623 153.963 99.7937 153.855C100.225 153.747 100.657 154.18 100.764 154.83C100.764 155.48 100.441 156.022 100.009 156.022Z" fill="#FFFCF2"/>
<path d="M49.5335 213.008L44.3564 216.909L57.299 215.717L57.1911 213.225L49.5335 213.008Z" fill="#FFFCF2"/>
<path d="M60.5346 17.8887C60.5346 17.8887 58.9167 13.0134 58.9167 9.43822C58.9167 5.75467 60.5346 0.879395 60.5346 0.879395C60.5346 0.879395 62.1524 5.75467 62.1524 9.32988C62.1524 13.0134 60.5346 17.8887 60.5346 17.8887Z" fill="#B3C8D3"/>
<path d="M60.6425 36.3065C60.6425 36.3065 59.0247 31.4312 59.0247 27.856C59.0247 24.1725 60.6425 19.4055 60.6425 19.4055C60.6425 19.4055 62.2603 24.2808 62.2603 27.856C62.1524 31.4312 60.6425 36.3065 60.6425 36.3065Z" fill="#B3C8D3"/>
<path d="M60.6425 54.7242C60.6425 54.7242 59.0247 49.8489 59.0247 46.2737C59.0247 42.5902 60.6425 37.8232 60.6425 37.8232C60.6425 37.8232 62.2603 42.6985 62.2603 46.2737C62.2603 49.8489 60.6425 54.7242 60.6425 54.7242Z" fill="#B3C8D3"/>
<path d="M60.6425 68.5916C60.6425 68.5916 59.0247 65.0164 59.0247 62.3079C59.0247 59.5994 60.6425 56.0242 60.6425 56.0242C60.6425 56.0242 62.2603 59.5994 62.2603 62.3079C62.2603 65.0164 60.6425 68.5916 60.6425 68.5916Z" fill="#B3C8D3"/>
<path d="M66.4665 62.1995C66.4665 62.1995 66.1429 63.0662 65.7115 64.2579C65.6036 64.5829 65.4958 64.908 65.2801 65.233C65.2801 65.4497 65.2801 65.4496 65.2801 65.4496C65.3879 65.558 65.4958 65.4496 65.4958 65.4496C65.4958 65.4496 65.3879 65.558 65.3879 65.6663C65.3879 65.6663 65.4958 65.7747 65.6036 65.7747C65.9272 65.7747 66.2507 65.6663 66.5743 65.6663C67.8686 65.558 68.7314 65.4496 68.7314 65.4496C68.7314 65.4496 67.9764 65.9913 66.8979 66.6414C66.5743 66.7497 66.3586 66.9664 66.035 67.1831C65.6036 67.3998 64.9565 67.7248 64.3094 67.9415C63.0151 68.4832 61.3973 69.1332 60.103 69.5666C60.858 68.3748 61.8287 67.0747 62.6915 65.9913C63.123 65.4496 63.5544 64.908 63.8779 64.4746C64.0936 64.2579 64.4172 63.9329 64.6329 63.7162C65.8193 62.8495 66.4665 62.1995 66.4665 62.1995Z" fill="#B3C8D3"/>
<path d="M74.6633 52.7739C74.6633 52.7739 74.2319 53.6406 73.5848 54.6157C73.2612 55.1574 72.9376 55.6991 72.5062 56.3491C72.0748 56.8908 71.6434 57.5409 71.212 57.9742C70.3491 58.9493 69.1627 60.0327 68.2999 60.791C67.3292 61.5494 66.5742 62.1995 66.5742 62.1995C66.5742 62.1995 66.8978 61.3327 67.4371 60.141C67.9763 58.9493 68.7313 57.6492 69.5942 56.5658C70.0256 56.0241 70.5648 55.5908 71.1041 55.0491C71.6434 54.6157 72.1827 54.1823 72.7219 53.8573C73.8005 53.2073 74.6633 52.7739 74.6633 52.7739Z" fill="#B3C8D3"/>
<path d="M84.9097 46.0569C84.9097 46.0569 84.6939 46.1652 84.3704 46.3819C84.0468 46.5986 83.6154 46.9236 83.184 47.2486C82.2133 48.007 81.0269 48.9821 79.9483 49.7404C78.8698 50.4988 77.5755 51.1488 76.3891 51.7989C75.3106 52.4489 74.4478 52.7739 74.4478 52.7739C74.4478 52.7739 74.8792 52.0156 75.6342 50.9322C76.3891 49.9571 77.4677 48.7654 78.6541 47.8987C79.7326 47.1403 81.3505 46.4902 82.5369 46.2736C83.184 46.1652 83.7233 46.0569 84.0468 46.0569C84.6939 46.0569 84.9097 46.0569 84.9097 46.0569Z" fill="#B3C8D3"/>
<path d="M89.7629 52.449C89.7629 52.449 89.8708 52.2323 89.9787 51.9073C90.0865 51.5823 90.1944 51.0406 90.4101 50.4989C90.5179 49.9572 90.6258 49.3072 90.5179 48.7655C90.4101 48.2238 90.3022 47.7904 90.0865 47.4654C89.8708 47.1404 89.4394 46.9237 88.9001 46.707C88.3608 46.4903 87.7137 46.382 87.1744 46.2737C86.6352 46.2737 86.0959 46.1653 85.6645 46.1653C85.233 46.1653 85.0173 46.1653 85.0173 46.1653C85.0173 46.1653 85.233 46.057 85.5566 45.8403C85.8802 45.6236 86.4194 45.4069 86.9587 45.1903C87.6058 44.9736 88.3608 44.7569 89.2237 44.8652C90.0865 44.9736 91.0572 45.2986 91.7043 46.057C92.3515 46.8154 92.4593 47.8988 92.3515 48.7655C92.2436 49.6322 91.8122 50.2822 91.3808 50.8239C90.9493 51.3656 90.6258 51.799 90.3022 52.0157C89.9787 52.2323 89.7629 52.449 89.7629 52.449Z" fill="#B3C8D3"/>
<path d="M80.2717 60.2494C80.2717 60.2494 80.9189 59.5994 81.7817 58.7327C82.6445 57.866 83.7231 56.7826 84.8016 55.9158C85.8802 55.1575 87.0666 54.2907 88.1451 53.6407C88.6844 53.3157 89.1158 52.9907 89.3315 52.774C89.6551 52.5573 89.8708 52.449 89.8708 52.449C89.8708 52.449 89.7629 52.6657 89.6551 52.9907C89.5472 53.3157 89.2237 53.8574 88.9001 54.3991C88.253 55.4825 87.2823 56.7826 86.0959 57.6493C85.0173 58.516 83.5074 59.166 82.321 59.5994C81.1346 60.0327 80.2717 60.2494 80.2717 60.2494Z" fill="#B3C8D3"/>
<path d="M68.947 65.4498C68.947 65.4498 69.702 64.9081 70.6727 64.1497C71.7512 63.4997 73.0455 62.633 74.2319 62.0913C74.879 61.8746 75.5262 61.5496 76.1733 61.3329C76.8204 61.1162 77.5754 60.8995 78.1147 60.7912C79.3011 60.4662 80.1639 60.2495 80.1639 60.2495C80.1639 60.2495 79.5168 60.8996 78.5461 61.7663C78.1147 62.1996 77.4675 62.633 76.9283 63.0663C76.2811 63.4997 75.7419 63.8247 75.0947 64.1497C73.8005 64.6914 72.2905 65.1248 71.1041 65.2331C69.9177 65.4498 68.947 65.4498 68.947 65.4498Z" fill="#B3C8D3"/>
<path d="M56.1125 61.8745C56.1125 61.8745 56.7596 62.5245 57.6224 63.4996C57.8381 63.7163 58.0538 64.0413 58.2696 64.258C58.3774 64.3663 58.4853 64.4747 58.5931 64.6913C58.8088 65.0164 58.9167 65.233 59.1324 65.5581C59.8874 66.7498 60.6424 68.1582 61.2895 69.3499C59.9952 68.9166 58.4853 68.2665 57.191 67.7248C56.8674 67.6165 56.5439 67.3998 56.3282 67.2915C56.1125 67.1831 56.0046 67.0748 55.7889 67.0748C55.4653 66.8581 55.1418 66.7498 54.9261 66.5331C53.8475 65.8831 53.0925 65.3414 53.0925 65.3414C53.0925 65.3414 54.0632 65.4497 55.2496 65.5581C55.5732 65.5581 55.8968 65.6664 56.2203 65.6664C56.436 65.6664 56.5439 65.6664 56.7596 65.7747H56.8674C56.9753 65.6664 56.8674 65.5581 56.8674 65.5581C56.8674 65.5581 56.9753 65.6664 57.0832 65.5581V65.4497C57.0832 65.233 56.9753 65.1247 56.9753 64.908C56.8674 64.583 56.7596 64.258 56.6517 63.933C56.3282 62.8496 56.1125 61.8745 56.1125 61.8745Z" fill="#B3C8D3"/>
<path d="M48.8862 51.5823C48.8862 51.5823 49.6412 52.124 50.6119 52.8824C51.1512 53.3157 51.6905 53.7491 52.1219 54.2908C52.6611 54.8325 53.2004 55.3742 53.524 55.9159C54.279 57.1076 54.9261 58.516 55.3575 59.7077C55.7889 60.8995 56.0046 61.7662 56.0046 61.7662C56.0046 61.7662 55.3575 61.1162 54.4947 60.2494C53.7397 59.3827 52.6611 58.2993 51.9062 57.2159C51.5826 56.6742 51.1512 56.0242 50.8276 55.3742C50.504 54.7241 50.1805 54.0741 49.8569 53.5324C49.3176 52.449 48.8862 51.5823 48.8862 51.5823Z" fill="#B3C8D3"/>
<path d="M38.9636 44.2151C38.9636 44.2151 39.1793 44.2151 39.6108 44.2151C40.0422 44.2151 40.5814 44.3234 41.2286 44.5401C42.5228 44.8651 44.0328 45.5152 45.1113 46.3819C46.1899 47.2486 47.2684 48.5487 47.9156 49.6321C48.5627 50.7155 48.9941 51.5822 48.9941 51.5822C48.9941 51.5822 48.2391 51.1488 47.1606 50.3904C46.082 49.7404 44.7878 48.8737 43.8171 48.1153C42.8464 47.2486 41.66 46.2735 40.7972 45.5152C40.3657 45.1901 39.9343 44.7568 39.6108 44.5401C39.1793 44.3234 38.9636 44.2151 38.9636 44.2151Z" fill="#B3C8D3"/>
<path d="M33.1395 50.9322C33.1395 50.9322 33.0316 50.7155 32.7081 50.4989C32.4924 50.1738 32.1688 49.7405 31.8452 49.0905C31.7374 48.7654 31.5217 48.4404 31.5217 48.0071C31.5217 47.7904 31.4138 47.5737 31.4138 47.4654C31.4138 47.2487 31.4138 47.032 31.4138 46.8153C31.4138 45.9486 31.7374 44.9735 32.3845 44.3235C33.0316 43.6735 33.8945 43.2401 34.7573 43.1318C34.973 43.1318 35.1887 43.1318 35.4044 43.0234C35.6201 43.0234 35.8359 43.0234 36.0516 43.0234C36.483 43.0234 36.8065 43.1318 37.1301 43.2401C37.7772 43.4568 38.3165 43.6735 38.6401 43.8902C38.7479 44.1068 38.9636 44.2152 38.9636 44.2152C38.9636 44.2152 38.7479 44.2152 38.3165 44.2152C37.8851 44.2152 37.3458 44.2152 36.8066 44.3235C36.483 44.4318 36.1594 44.4318 35.9437 44.5402C35.8359 44.5402 35.6201 44.6485 35.5123 44.6485C35.4044 44.7569 35.2966 44.7569 35.0809 44.8652C34.5416 45.0819 34.1102 45.4069 33.8945 45.7319C33.5709 46.0569 33.3552 46.4903 33.1395 47.032C33.1395 47.1403 33.0316 47.357 33.0316 47.4654C33.0316 47.5737 33.0316 47.7904 32.9238 47.8987C32.8159 48.2237 32.9238 48.5488 32.8159 48.7654C32.8159 49.3071 32.8159 49.8488 32.9238 50.2822C33.0316 50.7155 33.1395 50.9322 33.1395 50.9322Z" fill="#B3C8D3"/>
<path d="M41.8756 59.816C41.8756 59.816 41.0128 59.491 39.8264 59.0577C39.2871 58.7326 38.64 58.516 37.9929 58.0826C37.3457 57.6492 36.6986 57.2159 36.2672 56.7825C35.1886 55.8075 34.3258 54.3991 33.7865 53.2073C33.5708 52.5573 33.3551 52.1239 33.2473 51.6906C33.1394 51.2572 33.1394 51.0405 33.1394 51.0405C33.1394 51.0405 33.3551 51.2572 33.5708 51.4739C33.7865 51.7989 34.218 52.1239 34.6494 52.5573C35.6201 53.424 36.6986 54.2907 37.6693 55.1574C38.1007 55.5908 38.64 56.1325 39.0714 56.6742C39.5028 57.2159 40.0421 57.7576 40.3657 58.1909C41.2285 59.0577 41.8756 59.816 41.8756 59.816Z" fill="#B3C8D3"/>
<path d="M53.0927 65.4498C53.0927 65.4498 52.122 65.3414 50.9356 65.1247C49.6413 64.9081 48.1314 64.4747 46.945 63.8247C46.2978 63.4996 45.7586 63.0663 45.1114 62.6329C44.5722 62.1996 43.925 61.7662 43.4936 61.3329C42.5229 60.4661 41.9836 59.7078 41.9836 59.7078C41.9836 59.7078 42.8465 59.9244 44.0329 60.3578C44.5722 60.5745 45.3271 60.7912 45.9743 61.0078C46.6214 61.2245 47.2685 61.5495 47.9156 61.8746C49.102 62.4163 50.3963 63.3913 51.367 64.0413C52.3377 64.7997 53.0927 65.4498 53.0927 65.4498Z" fill="#B3C8D3"/>
</g>
<g clip-path="url(#clip1)">
<path d="M229.8 224.179C229.6 235.879 225.4 240.879 225.4 240.879L247.8 240.179C247.8 240.179 244.1 235.379 243.4 224.779L229.8 224.179Z" fill="#FF606F"/>
<path d="M269.1 258.479C270 271.579 256.4 283.179 238.7 284.379C221 285.579 205.9 275.879 205 262.779C204.2 249.679 217.8 238.079 235.5 236.879C253.1 235.679 268.2 245.379 269.1 258.479Z" fill="#FF606F"/>
<path d="M206.2 267.979C210.2 278.279 223.4 285.379 238.7 284.279C252.3 283.379 263.5 276.279 267.5 267.079L206.2 267.979Z" fill="#FF606F"/>
<path d="M264 266.079C264.7 265.779 265.3 265.579 266 265.279C269.2 256.579 263.9 248.379 254.4 247.879C242.3 247.379 231.6 255.879 228.7 264.979C240.4 266.879 252.4 270.179 264 266.079Z" fill="#C24751"/>
<path d="M264 266.079C252.4 270.179 240.4 266.879 228.8 264.979C228.3 266.679 228 268.379 228 269.979C228.2 278.28 238.1 287.379 255.4 276.979C261.2 273.479 264.6 269.279 266.1 265.179C265.4 265.479 264.7 265.779 264 266.079Z" fill="#C24751"/>
<path d="M229.3 230.279L231.2 229.279L232.8 230.779L235.8 228.979L239 230.779L241.6 229.579L243.9 229.879L243.4 225.179L230.2 223.879L229.3 230.279Z" fill="#2D3962"/>
<path d="M230.6 220.279L229.4 228.879L231.2 226.579L232.8 230.279L236 225.779L239 230.279L241.3 227.079L244 229.579L242.8 220.079L230.6 220.279Z" fill="#A49D9E"/>
<path d="M232.1 221.779L232.6 226.579L235.9 222.679L232.1 221.779Z" fill="#FFFCF2"/>
<path d="M230.6 220.279C230.6 220.279 235.6 216.879 242.9 220.079C242.8 220.079 237.5 222.879 230.6 220.279Z" fill="#FFFCF2"/>
<path d="M241 221.279C241 221.279 241.1 221.179 241.3 221.079C241.5 220.879 241.8 220.679 242.2 220.279C242.4 220.079 242.6 219.879 242.9 219.679C243.1 219.479 243.4 219.179 243.7 218.879C244.2 218.279 244.8 217.479 245.3 216.479C245.8 215.479 246.3 214.279 246.4 212.879C246.5 212.179 246.5 211.379 246.4 210.679C246.3 209.879 246.2 209.079 245.8 208.279C245.2 206.679 244 205.079 242.3 204.079C240.5 202.979 238.2 202.579 235.8 202.779C233.4 202.979 231.1 203.779 229.5 204.879C227.9 206.079 226.9 207.679 226.5 209.279C226.3 210.079 226.2 210.879 226.2 211.679C226.2 212.079 226.2 212.379 226.3 212.779C226.4 213.179 226.4 213.479 226.5 213.779C226.8 215.079 227.2 216.179 227.8 217.079C228.3 217.979 228.9 218.679 229.4 219.179C229.7 219.479 229.9 219.679 230.1 219.879C230.3 220.079 230.5 220.279 230.7 220.379C230.9 220.479 231.1 220.579 231.2 220.679C231.4 220.779 231.5 220.879 231.6 220.879C231.8 220.979 231.9 221.079 231.9 221.079L231.6 221.579C231.6 221.579 231.5 221.579 231.3 221.479C231.1 221.379 230.8 221.279 230.4 220.979C229.6 220.479 228.4 219.679 227.2 217.879C226.6 216.979 226 215.879 225.6 214.479C225.2 213.079 225 211.379 225.3 209.579C225.5 208.679 225.8 207.679 226.3 206.779C226.8 205.879 227.5 204.979 228.4 204.179C229.3 203.379 230.3 202.779 231.5 202.379C232.7 201.879 234 201.679 235.3 201.479C236.7 201.279 238 201.379 239.3 201.579C240.6 201.779 241.8 202.279 242.8 202.779C244.9 203.979 246.3 205.879 246.9 207.679C247.3 208.579 247.4 209.579 247.5 210.379C247.6 211.279 247.5 212.079 247.4 212.879C247.2 214.479 246.6 215.779 246.1 216.779C246 217.079 245.8 217.279 245.7 217.579C245.6 217.779 245.4 218.079 245.2 218.279C245 218.479 244.9 218.679 244.7 218.879C244.5 219.079 244.4 219.279 244.2 219.379C243.6 220.079 243.1 220.479 242.7 220.879C242.3 221.279 241.9 221.479 241.7 221.679C241.5 221.879 241.4 221.879 241.4 221.879L241 221.279Z" fill="#A49D9E"/>
<path d="M224.3 240.879L229.8 242.379C229.8 242.379 218.8 246.979 215.6 261.179L207.1 256.379C207.1 256.479 210.9 245.279 224.3 240.879Z" fill="#FFFCF2"/>
<path d="M266.3 257.679C266.1 257.679 265.8 257.479 265.5 256.879C265.4 256.579 265.1 256.279 265 255.979C264.9 255.779 264.8 255.579 264.7 255.379C264.6 255.179 264.5 254.979 264.3 254.779C263.3 253.079 261.7 250.879 259.5 248.879C259.4 248.779 259.2 248.579 259.1 248.479C259 248.379 258.8 248.279 258.7 248.179C258.4 247.979 258.1 247.679 257.9 247.479C257.3 247.079 256.8 246.679 256.2 246.279C255.9 246.079 255.7 245.879 255.4 245.779C255.1 245.579 254.9 245.479 254.6 245.279C254.5 245.179 254.4 245.079 254.2 245.079C254.1 244.979 254 244.979 253.8 244.879C253.6 244.779 253.3 244.579 253.1 244.479C252.7 244.179 252.2 244.079 251.9 243.779C251.5 243.579 251.2 243.379 251 243.279C250.5 242.979 250.2 242.679 250.3 242.479C250.3 242.279 250.7 242.079 251.3 242.079C251.6 242.079 252 242.079 252.5 242.079C252.9 242.179 253.5 242.179 254 242.379C254.3 242.479 254.6 242.579 254.9 242.579C255 242.579 255.2 242.679 255.4 242.679C255.5 242.779 255.7 242.779 255.9 242.879C256.2 242.979 256.5 243.079 256.9 243.279C257.2 243.379 257.5 243.579 257.9 243.779C258.6 244.079 259.2 244.579 259.9 244.979C260.2 245.179 260.6 245.479 260.9 245.779C261.1 245.879 261.2 246.079 261.4 246.179C261.6 246.279 261.7 246.479 261.9 246.579C264.5 248.879 266.1 251.879 266.6 254.079C266.7 254.379 266.8 254.579 266.8 254.879C266.8 255.179 266.9 255.379 266.9 255.579C266.9 256.079 267 256.379 266.9 256.779C266.7 257.279 266.6 257.679 266.3 257.679Z" fill="#FFFCF2"/>
<path d="M266.6 259.779C266.2 259.779 265.9 259.479 265.9 259.079C265.9 258.679 266.1 258.279 266.5 258.179C266.8 258.079 267.2 258.479 267.2 258.879C267.2 259.379 266.9 259.779 266.6 259.779Z" fill="#FFFCF2"/>
<path d="M236.9 155.579C236.9 155.579 235.4 151.079 235.4 147.779C235.4 144.379 236.8 139.979 236.8 139.979C236.8 139.979 238.3 144.479 238.3 147.779C238.3 151.079 236.9 155.579 236.9 155.579Z" fill="#B3C8D3"/>
<path d="M237 172.579C237 172.579 235.5 168.079 235.5 164.779C235.5 161.379 236.9 156.979 236.9 156.979C236.9 156.979 238.4 161.479 238.4 164.779C238.4 168.079 237 172.579 237 172.579Z" fill="#B3C8D3"/>
<path d="M237.1 189.579C237.1 189.579 235.6 185.079 235.6 181.779C235.6 178.379 237 173.979 237 173.979C237 173.979 238.5 178.479 238.5 181.779C238.5 185.079 237.1 189.579 237.1 189.579Z" fill="#B3C8D3"/>
<path d="M237.1 202.38C237.1 202.38 235.6 199.08 235.6 196.58C235.6 194.08 237.1 190.78 237.1 190.78C237.1 190.78 238.6 194.08 238.6 196.58C238.6 199.08 237.1 202.38 237.1 202.38Z" fill="#B3C8D3"/>
<path d="M242.5 196.479C242.5 196.479 242.2 197.279 241.8 198.379C241.7 198.679 241.6 198.979 241.4 199.279C241.4 199.479 241.4 199.479 241.4 199.479C241.5 199.579 241.6 199.479 241.6 199.479C241.6 199.479 241.5 199.579 241.5 199.679C241.5 199.679 241.6 199.779 241.7 199.779C242 199.779 242.3 199.679 242.6 199.679C243.8 199.579 244.6 199.479 244.6 199.479C244.6 199.479 243.9 199.979 242.9 200.579C242.6 200.679 242.4 200.879 242.1 201.079C241.7 201.279 241.1 201.579 240.5 201.779C239.3 202.279 237.9 202.879 236.6 203.279C237.3 202.179 238.2 200.979 239 199.979C239.4 199.479 239.8 198.979 240.1 198.579C240.3 198.379 240.6 198.079 240.8 197.879C241.9 197.079 242.5 196.479 242.5 196.479Z" fill="#B3C8D3"/>
<path d="M250 187.779C250 187.779 249.6 188.579 249 189.479C248.7 189.979 248.4 190.479 248 191.079C247.6 191.579 247.2 192.179 246.8 192.579C246 193.479 244.9 194.479 244.1 195.179C243.2 195.879 242.5 196.479 242.5 196.479C242.5 196.479 242.8 195.679 243.3 194.579C243.8 193.479 244.5 192.279 245.3 191.279C245.7 190.779 246.2 190.379 246.7 189.879C247.2 189.479 247.7 189.079 248.2 188.779C249.3 188.179 250 187.779 250 187.779Z" fill="#B3C8D3"/>
<path d="M259.6 181.479C259.6 181.479 259.4 181.579 259.1 181.779C258.8 181.979 258.4 182.279 258 182.579C257.1 183.279 256 184.179 255.1 184.879C254.1 185.579 252.9 186.279 251.8 186.779C250.8 187.379 250 187.679 250 187.679C250 187.679 250.4 186.979 251.1 185.979C251.8 185.079 252.8 183.879 253.9 183.179C254.9 182.479 256.4 181.879 257.5 181.679C258.1 181.579 258.6 181.479 258.9 181.479C259.4 181.479 259.6 181.479 259.6 181.479Z" fill="#B3C8D3"/>
<path d="M264.1 187.379C264.1 187.379 264.2 187.179 264.3 186.879C264.4 186.579 264.5 186.079 264.7 185.579C264.8 185.079 264.9 184.479 264.8 183.979C264.7 183.479 264.6 183.079 264.4 182.779C264.2 182.479 263.8 182.279 263.3 182.079C262.8 181.879 262.2 181.779 261.7 181.679C261.2 181.679 260.7 181.579 260.3 181.579C259.9 181.579 259.7 181.579 259.7 181.579C259.7 181.579 259.9 181.479 260.2 181.279C260.5 181.079 261 180.879 261.5 180.679C262.1 180.479 262.8 180.279 263.6 180.379C264.4 180.479 265.3 180.779 265.9 181.479C266.5 182.179 266.6 183.179 266.5 183.979C266.4 184.779 266 185.379 265.6 185.879C265.2 186.379 264.9 186.779 264.6 186.979C264.2 187.179 264.1 187.379 264.1 187.379Z" fill="#B3C8D3"/>
<path d="M255.3 194.679C255.3 194.679 255.9 194.079 256.7 193.279C257.5 192.479 258.5 191.479 259.5 190.679C260.5 189.979 261.6 189.179 262.6 188.579C263.1 188.279 263.5 187.979 263.7 187.779C264 187.579 264.2 187.479 264.2 187.479C264.2 187.479 264 187.579 263.9 187.879C263.8 188.179 263.5 188.679 263.2 189.179C262.6 190.179 261.7 191.379 260.6 192.179C259.6 192.979 258.2 193.579 257.1 193.979C256.1 194.479 255.3 194.679 255.3 194.679Z" fill="#B3C8D3"/>
<path d="M244.8 199.479C244.8 199.479 245.5 198.979 246.4 198.279C247.4 197.679 248.6 196.879 249.7 196.379C250.3 196.179 250.9 195.879 251.5 195.679C252.1 195.479 252.8 195.279 253.3 195.179C254.4 194.879 255.2 194.679 255.2 194.679C255.2 194.679 254.6 195.279 253.7 196.079C253.3 196.479 252.7 196.879 252.2 197.279C251.6 197.679 251.1 198.079 250.5 198.279C249.3 198.779 247.9 199.179 246.8 199.379C245.7 199.379 244.8 199.479 244.8 199.479Z" fill="#B3C8D3"/>
<path d="M232.9 196.179C232.9 196.179 233.5 196.779 234.3 197.679C234.5 197.879 234.7 198.179 234.9 198.379C235 198.479 235.1 198.579 235.2 198.779C235.4 199.079 235.5 199.279 235.7 199.579C236.4 200.679 237.1 201.979 237.7 203.079C236.5 202.679 235.1 202.079 233.9 201.579C233.6 201.479 233.3 201.379 233.1 201.179C232.9 201.079 232.8 200.979 232.6 200.979C232.3 200.779 232 200.679 231.8 200.479C230.8 199.879 230.1 199.379 230.1 199.379C230.1 199.379 231 199.379 232.1 199.579C232.4 199.579 232.7 199.679 233 199.679C233.2 199.679 233.3 199.679 233.5 199.779H233.6C233.7 199.679 233.6 199.579 233.6 199.579C233.6 199.579 233.7 199.679 233.8 199.579V199.479C233.8 199.279 233.7 199.179 233.7 198.979C233.6 198.679 233.5 198.379 233.4 198.079C233.1 197.079 232.9 196.179 232.9 196.179Z" fill="#B3C8D3"/>
<path d="M226.2 186.779C226.2 186.779 226.9 187.279 227.9 187.979C228.4 188.379 228.9 188.779 229.3 189.279C229.8 189.779 230.3 190.279 230.6 190.779C231.3 191.879 231.9 193.179 232.3 194.279C232.7 195.379 232.9 196.179 232.9 196.179C232.9 196.179 232.3 195.579 231.5 194.779C230.7 193.879 229.7 192.879 229 191.879C228.7 191.379 228.3 190.779 228 190.279C227.7 189.679 227.4 189.079 227.1 188.579C226.6 187.479 226.2 186.779 226.2 186.779Z" fill="#B3C8D3"/>
<path d="M216.9 179.979C216.9 179.979 217.1 179.979 217.5 179.979C217.9 179.979 218.4 180.079 219 180.279C220.2 180.579 221.6 181.179 222.6 181.979C223.6 182.779 224.6 183.979 225.2 184.979C225.8 185.979 226.2 186.779 226.2 186.779C226.2 186.779 225.5 186.379 224.5 185.679C223.5 185.079 222.3 184.279 221.4 183.579C220.5 182.779 219.4 181.879 218.5 181.179C218.1 180.879 217.7 180.479 217.4 180.279C217.1 180.079 216.9 179.979 216.9 179.979Z" fill="#B3C8D3"/>
<path d="M211.5 186.179C211.5 186.179 211.4 185.979 211.1 185.779C210.9 185.479 210.6 185.079 210.3 184.479C210.2 184.179 210 183.879 210 183.479C210 183.279 209.9 183.079 209.9 182.979C209.9 182.779 209.9 182.579 209.9 182.379C209.9 181.579 210.2 180.679 210.7 180.079C211.3 179.479 212.1 179.079 212.9 178.979C213.1 178.979 213.3 178.979 213.5 178.879C213.7 178.879 213.9 178.879 214.1 178.879C214.5 178.879 214.8 178.979 215.1 179.079C215.7 179.279 216.2 179.479 216.5 179.679C216.8 179.879 217 179.979 217 179.979C217 179.979 216.8 179.979 216.4 179.979C216 179.979 215.5 179.979 215 180.079C214.7 180.179 214.5 180.179 214.2 180.279C214.1 180.279 213.9 180.379 213.8 180.379C213.7 180.479 213.6 180.479 213.4 180.579C212.9 180.779 212.5 181.079 212.3 181.379C212 181.679 211.8 182.079 211.6 182.579C211.6 182.679 211.5 182.879 211.5 182.979C211.5 183.079 211.5 183.279 211.4 183.379C211.3 183.679 211.4 183.979 211.3 184.179C211.3 184.679 211.4 185.179 211.4 185.579C211.5 185.979 211.5 186.179 211.5 186.179Z" fill="#B3C8D3"/>
<path d="M219.7 194.279C219.7 194.279 218.9 194.079 217.8 193.579C217.3 193.279 216.7 193.079 216.1 192.679C215.5 192.279 214.9 191.879 214.5 191.479C213.5 190.579 212.7 189.279 212.2 188.179C212 187.579 211.8 187.179 211.7 186.779C211.6 186.379 211.6 186.179 211.6 186.179C211.6 186.179 211.8 186.379 212 186.579C212.2 186.879 212.6 187.179 213 187.579C213.9 188.279 214.9 189.179 215.8 189.979C216.2 190.379 216.7 190.879 217.1 191.379C217.5 191.879 218 192.279 218.4 192.779C219.1 193.579 219.7 194.279 219.7 194.279Z" fill="#B3C8D3"/>
<path d="M230.1 199.479C230.1 199.479 229.2 199.379 228.1 199.179C226.9 198.979 225.5 198.579 224.4 198.079C223.8 197.779 223.3 197.379 222.7 196.979C222.2 196.579 221.6 196.179 221.2 195.779C220.3 194.979 219.8 194.379 219.8 194.379C219.8 194.379 220.6 194.579 221.7 194.979C222.2 195.179 222.9 195.379 223.5 195.579C224.1 195.779 224.7 196.079 225.3 196.379C226.4 196.879 227.6 197.779 228.6 198.379C229.4 198.879 230.1 199.479 230.1 199.479Z" fill="#B3C8D3"/>
</g>
<path d="M238.992 110.751L257.361 110.375L259.886 95.5513L264.021 96.894L265.848 120.473L215.628 120.258L246.458 72.6167C250.289 66.4578 251.543 58.7414 250.218 49.4673C248.929 44.3826 242.788 44.508 231.795 49.8433C228.68 51.8485 226.549 56.3244 225.403 63.271L218.313 61.7671L217.83 33.8374L223.201 34.5894L225.779 43.7739C245.402 30.7401 258.346 31.7248 264.612 46.728C268.157 54.1401 267.28 62.716 261.98 72.4556L238.992 110.751ZM257.361 56.7183C256.932 53.3166 255.875 50.255 254.192 47.5337C256.484 55.1965 256.645 62.8055 254.676 70.3608C256.896 64.6317 257.791 60.0841 257.361 56.7183ZM257.522 49.6821C257.129 45.8866 255.302 43.0041 252.044 41.0347C254.264 43.756 255.804 46.2625 256.663 48.5542L257.522 49.6821ZM257.361 70.7368C260.441 65.6164 261.067 60.3885 259.241 55.0532C260.029 61.7492 258.525 68.1408 254.729 74.228L257.361 70.7368Z" fill="white"/>
<g clip-path="url(#clip2)">
<path d="M166.5 119.279L163.5 99.8793L141.7 99.7793L139.8 119.179L126.4 139.079L118 151.479L154.6 199.579L189.8 149.779L166.5 119.279Z" fill="#72BAD1"/>
<path d="M140.8 120.979C142.3 116.679 143 110.579 143 110.579C143 110.579 149.2 115.679 147.8 123.079C146.3 131.479 139 140.879 123.4 148.679C123.4 148.679 138.8 126.479 140.8 120.979Z" fill="#FFFCF2"/>
<path d="M118.2 151.279L118 151.479L154.6 199.479L189.7 149.779L189.5 149.579C189.5 149.579 175 152.279 153.4 153.179C132 154.079 118.2 151.279 118.2 151.279Z" fill="#4F8BAD"/>
<path d="M140.9 107.279L143.9 105.779L146.5 107.979L151.3 105.179L156.5 107.679L160.7 105.779L164.4 106.079L163.4 99.2794L142 97.8794L140.9 107.279Z" fill="#2D3962"/>
<path d="M142.6 92.6794L141 105.279L143.9 101.879L146.6 107.179L151.4 100.479L156.5 106.879L160.1 102.079L164.6 105.779L162.3 91.8794L142.6 92.6794Z" fill="#A49D9E"/>
<path d="M145 94.6792L146.1 101.679L151.2 95.9792L145 94.6792Z" fill="#FFFCF2"/>
<path d="M142.6 92.6793C142.6 92.6793 150.5 87.4793 162.3 91.8793C162.3 91.8793 153.8 96.1793 142.6 92.6793Z" fill="#FFFCF2"/>
<path d="M163.6 100.779C163.6 99.8794 163.4 99.0794 163.4 98.2794C163.4 97.7794 163.3 96.7794 163.2 96.2794C163 95.5794 163.2 94.8794 163 94.2794C162.9 93.9794 162.9 93.5794 162.9 93.1794C162.9 92.9794 162.9 92.7794 162.9 92.5794C162.9 92.4794 162.9 92.3794 162.9 92.2794V92.1794V92.0794C162.9 91.9794 162.9 91.8794 162.9 91.7794V91.5794V91.4794H162.8L162.4 91.2794C162.2 91.1794 162.1 91.1794 161.9 91.0794C161.6 90.9794 161.2 90.8794 160.9 90.7794C159.6 90.3794 158.1 89.6794 156.6 89.7794C156.1 89.7794 155.8 89.4794 155.3 89.5794C154.9 89.6794 154.6 89.5794 154.3 89.5794C154.3 89.5794 152.2 89.4794 152.2 89.5794C151.5 89.5794 150.9 89.5794 150.2 89.6794C149.5 89.7794 148.8 89.8794 148.2 89.9794C146.7 90.2794 145.4 90.6794 144 91.3794C143.7 91.5794 143.4 91.6794 143.1 91.8794L142.9 91.9794L142.8 92.0794L142.6 92.1794L142.4 92.2794C142.4 92.2794 142.3 92.2794 142.3 92.3794V92.4794L142 92.9794C141.9 93.6794 141.8 94.3794 141.9 94.9794C142 95.7794 141.8 96.5794 141.7 97.2794C141.7 97.9794 141.7 98.5794 141.7 99.2794C141.7 99.9794 141.6 100.679 141.6 101.379C141.6 102.179 141.5 102.479 141.7 101.479C141.9 100.779 142 100.079 142.1 99.3794C142.2 98.6794 142.3 97.9794 142.5 97.2794C142.7 96.5794 142.6 95.9794 142.8 95.2794C142.9 94.5794 143.1 93.8794 143.2 93.2794C143.2 92.9794 143.2 93.0794 143.2 93.0794C143.3 93.0794 143.4 92.9794 143.4 92.9794C143.7 92.7794 144 92.6794 144.4 92.5794C145.1 92.3794 145.7 92.1794 146.4 91.9794C146.4 91.9794 146.5 91.9794 146.7 91.8794C146.9 91.7794 147.1 91.7794 147.4 91.6794C147.6 91.5794 147.9 91.5794 148.1 91.4794C148.3 91.4794 148.4 91.3794 148.4 91.3794C149 91.2794 149.6 90.8794 150.3 90.8794C151 90.7794 151.9 90.7794 152.6 90.8794C153.3 90.9794 154 90.6794 154.6 90.8794C155.2 91.0794 155.9 91.0794 156.5 91.1794C157.2 91.2794 157.8 91.2794 158.5 91.3794C158.9 91.3794 159.2 91.4794 159.6 91.5794C160 91.6794 160.3 91.7794 160.6 91.8794C160.9 91.9794 161.3 92.0794 161.6 92.2794L161.9 92.3794H162C162 92.3794 162 92.3794 162 92.4794C162 92.4794 162.2 93.4794 162.4 94.4794C162.6 95.4794 162.8 96.4794 162.8 96.4794C162.9 97.1794 163.1 97.9794 163.2 98.6794C163.4 99.4794 163.6 100.179 163.7 100.879C163.6 100.679 163.6 100.679 163.6 100.779Z" fill="#A49D9E"/>
<path d="M158.6 91.4793C158.6 91.4793 158.7 91.3793 159 91.1793C159.3 90.9793 159.7 90.6793 160.2 90.2793C160.7 89.8793 161.3 89.2793 162 88.4793C162.7 87.6793 163.4 86.7793 164.1 85.4793C164.8 84.2793 165.3 82.7793 165.5 80.9793C165.6 80.0793 165.6 79.1793 165.4 78.1793C165.2 77.1793 165 76.2793 164.5 75.2793C163.6 73.3793 161.8 71.5793 159.5 70.4793C158.3 69.9793 157 69.4793 155.6 69.3793C154.2 69.1793 152.7 69.1793 151.2 69.3793C148.1 69.6793 145.3 70.5793 143.2 71.9793C141.1 73.3793 139.7 75.3793 139.1 77.2793C138.5 79.2793 138.6 81.1793 139 82.8793C139.4 84.4793 140.1 85.8793 140.8 86.9793C141.5 88.0793 142.3 88.8793 143 89.4793C143.7 90.0793 144.3 90.4793 144.8 90.7793C145.1 90.8793 145.3 91.0793 145.5 91.1793C145.7 91.2793 145.9 91.3793 146 91.3793C146.3 91.4793 146.4 91.5793 146.4 91.5793L146.1 92.1793C146.1 92.1793 146 92.1793 145.7 92.0793C145.5 91.9793 145.1 91.8793 144.6 91.5793C143.6 91.0793 142 90.0793 140.3 87.9793C139.5 86.9793 138.6 85.5793 138.1 83.8793C137.5 82.1793 137.2 80.0793 137.7 77.7793C138.1 75.4793 139.5 73.0793 141.8 71.2793C144.1 69.4793 147.2 68.4793 150.5 68.0793C153.9 67.6793 157.1 67.9793 159.8 69.2793C162.5 70.4793 164.5 72.5793 165.6 74.7793C166.7 76.9793 166.9 79.2793 166.7 81.2793C166.4 83.2793 165.8 84.8793 165.1 86.1793C164.3 87.4793 163.6 88.5793 162.8 89.2793C162.1 90.0793 161.4 90.6793 160.8 91.0793C160.3 91.5793 159.8 91.7793 159.6 91.9793C159.3 92.1793 159.2 92.2793 159.2 92.2793L158.6 91.4793Z" fill="#A49D9E"/>
<path d="M184.2 147.379C183.7 147.779 180.5 144.279 177.2 139.479C173.9 134.779 171.6 130.679 172.1 130.279C172.6 129.879 175.8 133.379 179.1 138.179C182.5 142.879 184.8 147.079 184.2 147.379Z" fill="#FFFCF2"/>
<path d="M185.3 148.879C185.1 148.979 184.7 148.879 184.5 148.579C184.3 148.279 184.3 147.879 184.5 147.679C184.7 147.579 185.1 147.679 185.3 147.979C185.5 148.379 185.5 148.779 185.3 148.879Z" fill="#FFFCF2"/>
<path d="M160.5 153.079C160.5 153.079 160.4 152.379 160.3 151.079C160.1 149.679 159.9 147.579 159.5 144.779C159.1 141.879 158.5 138.279 157.7 133.879C157.3 131.679 156.7 129.279 156 126.679C155.6 125.379 155.2 124.079 154.7 122.779C154.4 122.179 154.1 121.479 153.7 120.979C153.5 120.779 153.3 120.579 153.1 120.479C153 120.479 152.9 120.479 152.6 120.579C152.2 120.879 151.8 121.579 151.5 122.179C151.2 122.779 151 123.479 150.7 124.179C150.3 125.579 150 126.879 149.7 128.179C149.1 130.779 148.8 133.179 148.4 135.279C147.8 139.579 147.4 143.079 147.1 145.779C146.8 148.479 146.7 150.379 146.6 151.579C146.5 152.779 146.5 153.379 146.5 153.379H145.8C145.8 153.379 145.8 152.879 145.8 151.779C145.8 150.679 145.9 148.879 146 146.279C146.2 143.679 146.4 140.279 147 135.879C147.3 133.679 147.6 131.279 148.2 128.579C148.5 127.279 148.8 125.879 149.2 124.379C149.4 123.679 149.7 122.879 150 122.179C150.3 121.379 150.7 120.679 151.3 119.879C151.6 119.479 152.1 119.079 152.8 119.079C153.1 119.079 153.5 119.179 153.7 119.279C154 119.379 154.2 119.579 154.3 119.779C155 120.479 155.3 121.179 155.7 121.879C156.4 123.279 156.8 124.679 157.2 126.079C158 128.779 158.5 131.279 158.9 133.579C159.8 138.179 160.3 141.879 160.7 144.679C161.1 147.579 161.3 149.679 161.4 150.979C161.5 152.379 161.6 152.979 161.6 152.979L160.5 153.079Z" fill="#6595B2"/>
<path d="M130.5 152.579C130.5 152.579 131.2 150.679 132.9 146.279C134.6 141.879 135.2 140.279 135.2 140.279L135.8 140.479C135.8 140.479 135.9 142.079 134.1 146.679C132.3 151.279 131.3 152.979 131.3 152.979L130.5 152.579Z" fill="#6595B2"/>
<path d="M135.3 140.279C135.3 140.279 135.7 139.279 136.7 136.979C137.7 134.679 139.1 131.179 141.4 126.279C142 125.079 142.5 123.879 143.2 122.779C143.5 122.179 143.9 121.579 144.2 121.079C144.4 120.779 144.6 120.479 144.8 120.179C144.9 120.079 144.9 120.079 145 119.979C145.1 119.879 145.2 119.779 145.4 119.679C145.5 119.579 145.7 119.479 145.8 119.479C145.9 119.479 146.1 119.379 146.2 119.379H146.3C146.4 119.379 146.4 119.379 146.5 119.379C146.6 119.479 146.7 119.479 146.8 119.579L146.9 119.679C146.9 119.779 147 119.779 147 119.879C147.1 119.979 147.1 120.079 147.2 120.279C147.2 120.379 147.3 120.579 147.3 120.679V120.879C147.3 121.079 147.3 121.179 147.4 121.379C147.4 121.979 147.4 122.579 147.4 123.179C147.4 124.379 147.3 125.479 147.1 126.579L146.4 126.479C146.4 126.479 146.4 126.079 146.3 124.979C146.3 124.479 146.3 123.779 146.2 122.879C146.2 122.479 146.2 121.979 146.1 121.479C146.1 121.379 146.1 121.179 146 121.079V120.879V120.779C146 120.679 145.9 120.679 145.9 120.679L145.8 120.779C145.7 120.979 145.5 121.179 145.4 121.379C145.1 121.779 144.8 122.279 144.5 122.879C143.9 123.979 143.3 125.279 142.6 126.679C140.2 131.679 138.7 135.279 137.7 137.479C136.7 139.779 136.2 140.679 136.2 140.679L135.3 140.279Z" fill="#72BAD1"/>
<path d="M147.2 126.479C147.2 126.479 146.5 130.579 144.8 140.279C143.1 150.079 142.5 153.579 142.5 153.579L141.8 153.479C141.8 153.479 141.6 150.379 143.4 140.279C145.2 130.179 146.2 126.279 146.2 126.279L147.2 126.479Z" fill="#6595B2"/>
<path d="M140 119.979C140 119.979 140 120.179 139.9 120.779C139.9 121.079 139.9 121.379 139.8 121.779C139.7 122.179 139.7 122.679 139.6 123.179C139.3 125.279 138.6 128.579 137 132.979C135.4 137.379 134 140.179 133.2 141.979C132.3 143.779 132 144.479 132 144.479L131.4 144.179C131.4 144.179 131.6 143.479 132.2 141.679C132.8 139.879 134.1 137.079 135.7 132.679C137.3 128.279 138.1 125.079 138.4 122.979C138.5 122.479 138.6 121.979 138.6 121.679C138.7 121.279 138.7 120.979 138.7 120.779C138.8 120.279 138.8 120.079 138.8 120.079L140 119.979Z" fill="#72BAD1"/>
<path d="M132 144.379C132 144.379 131.3 145.679 129.8 148.679C129 150.179 128.5 151.279 128.1 151.879C127.7 152.579 127.6 152.779 127.6 152.779L127 152.479C127 152.479 127 152.179 127.2 151.479C127.4 150.779 127.8 149.679 128.6 148.079C130.2 144.879 131.1 143.879 131.1 143.879L132 144.379Z" fill="#6595B2"/>
<path d="M175.4 151.779C175.4 151.779 174.4 149.379 172 144.079C170.8 141.379 169.3 138.079 167.3 133.979C166.3 131.979 165.2 129.679 164 127.279C163.4 126.079 162.7 124.879 162 123.579C161.6 122.979 161.2 122.379 160.8 121.679C160.6 121.379 160.4 121.079 160.1 120.779C160 120.679 159.9 120.479 159.8 120.479C159.8 120.779 159.7 121.179 159.8 121.479C159.8 122.179 159.9 122.879 160 123.679C160.2 125.079 160.4 126.479 160.6 127.779C161.1 130.379 161.6 132.779 162 134.879C162.9 139.179 163.8 142.579 164.4 145.279C165.7 150.579 166.3 152.779 166.3 152.779L165.6 152.979C165.6 152.979 164.9 151.179 163.5 146.179C162.8 143.679 161.9 140.379 160.9 136.079C160.4 133.879 159.9 131.479 159.3 128.879C159 127.579 158.8 126.079 158.6 124.579C158.5 123.779 158.4 123.079 158.4 122.279C158.4 121.879 158.4 121.479 158.4 120.979C158.4 120.879 158.4 120.779 158.4 120.679C158.4 120.579 158.4 120.579 158.4 120.479V120.379V120.279C158.4 120.079 158.5 119.879 158.6 119.679C158.6 119.579 158.7 119.479 158.8 119.479C158.9 119.379 158.9 119.379 159 119.279C159.1 119.179 159.2 119.179 159.2 119.179L159.5 119.079C159.7 119.079 159.8 119.079 160 119.179L160.3 119.279L160.5 119.479C160.6 119.579 160.7 119.579 160.7 119.679L160.8 119.779C161.1 120.079 161.4 120.479 161.6 120.779C162.1 121.479 162.5 122.079 162.9 122.779C163.7 124.079 164.4 125.379 165 126.679C166.3 129.179 167.4 131.479 168.4 133.579C170.4 137.779 171.9 141.179 173 143.879C175.3 149.279 176.2 151.579 176.2 151.579L175.4 151.779Z" fill="#6595B2"/>
<path d="M179.6 151.379C179.6 151.379 179.3 150.879 178.8 150.079C178.3 149.279 177.6 147.979 176.7 146.579C175 143.679 172.8 139.679 170.8 135.579C168.8 131.479 167.1 127.279 166.4 123.879C166 122.179 165.9 120.679 166 119.679C166 119.379 166.1 119.179 166.1 118.979C166.1 118.779 166.2 118.579 166.2 118.479C166.3 118.179 166.3 118.079 166.3 118.079L167.2 118.379C167.2 118.379 167.2 118.579 167.1 119.179C167.1 119.779 167 120.579 167.2 121.879C167.6 124.479 169 128.579 171.8 134.579C173.2 137.579 174.5 140.079 175.6 142.179C176.7 144.279 177.6 145.979 178.3 147.279C179.7 149.879 180.3 151.079 180.3 151.079L179.6 151.379Z" fill="#6595B2"/>
<path d="M161.9 152.679C161.9 152.679 161.9 153.279 161.8 154.479C161.7 155.679 161.5 157.479 161.2 159.979C160.9 162.479 160.5 165.579 159.8 169.479C159.4 171.379 159 173.479 158.4 175.779C158.1 176.879 157.7 178.079 157.1 179.279C156.8 179.879 156.5 180.479 155.9 181.079C155.6 181.379 155.3 181.679 154.8 181.779C154.3 181.879 153.7 181.779 153.3 181.579C152.9 181.379 152.6 181.079 152.4 180.779C152.2 180.479 151.9 180.179 151.8 179.879C151.4 179.279 151.1 178.679 150.9 178.079C150.4 176.879 150 175.779 149.6 174.679C148.9 172.479 148.4 170.379 148 168.579C147.2 164.879 146.6 161.879 146.2 159.579C145.8 157.279 145.6 155.579 145.4 154.579C145.3 153.479 145.2 152.979 145.2 152.979L145.9 152.879C145.9 152.879 146 153.279 146.2 154.279C146.4 155.279 146.7 156.779 147.2 158.879C147.7 161.079 148.2 163.979 149.1 167.579C149.5 169.379 150 171.479 150.7 173.679C151 174.779 151.4 175.979 151.9 177.079C152.1 177.679 152.4 178.279 152.7 178.779C153 179.279 153.4 179.879 153.8 180.179C154 180.379 154.2 180.479 154.3 180.479C154.4 180.479 154.6 180.479 154.8 180.279C155.2 179.979 155.5 179.479 155.8 178.879C156.4 177.779 156.7 176.579 157.1 175.479C157.8 173.179 158.2 171.079 158.6 169.179C159.3 165.279 159.7 162.079 160.1 159.679C160.4 157.179 160.6 155.479 160.8 154.279C160.9 153.079 161 152.579 161 152.579L161.9 152.679Z" fill="#72BAD1"/>
<path d="M131.8 152.579C131.8 152.579 132.8 154.679 135.1 159.279C136.3 161.579 137.7 164.479 139.6 168.079C140.6 169.879 141.6 171.779 142.8 173.879C143.4 174.879 144 175.979 144.7 177.079C145.4 178.179 146.1 179.279 147 180.279C147.1 180.379 147.2 180.479 147.3 180.579V180.479C147.3 180.379 147.3 180.379 147.3 180.279C147.3 180.179 147.3 179.979 147.3 179.879C147.3 179.579 147.3 179.279 147.3 178.979C147.2 177.779 147 176.479 146.8 175.379C146.4 173.079 145.9 170.979 145.5 169.079C144.6 165.279 143.8 162.279 143.2 159.979C142 155.279 141.4 153.379 141.4 153.379L142.1 153.179C142.1 153.179 142.7 154.779 144.1 159.179C144.8 161.379 145.6 164.279 146.6 168.079C147.1 169.979 147.6 172.079 148 174.479C148.2 175.679 148.4 176.979 148.6 178.279C148.7 178.979 148.7 179.679 148.7 180.479C148.7 180.579 148.7 180.679 148.7 180.779C148.7 180.879 148.7 180.979 148.6 181.179C148.5 181.479 148.3 181.879 148.1 181.979C147.8 182.179 147.5 182.179 147.2 182.179C147 182.079 146.9 182.079 146.7 181.979L146.5 181.879C146.4 181.879 146.4 181.779 146.4 181.779C145.8 181.179 145.3 180.579 144.9 180.079C144.5 179.479 144.1 178.879 143.7 178.379C143 177.279 142.3 176.079 141.7 175.079C140.5 172.879 139.4 170.879 138.4 169.079C136.5 165.379 135 162.479 133.9 160.179C131.7 155.579 130.8 153.479 130.8 153.479L131.8 152.579Z" fill="#72BAD1"/>
<path d="M140.5 182.079C140.5 182.079 140.5 181.779 140.5 181.179C140.4 180.579 140.3 179.579 139.9 178.379C139.2 175.779 137.6 171.879 134.8 166.679C132 161.479 129.8 158.079 128.4 155.879C127 153.779 126.4 152.879 126.4 152.879L127 152.479C127 152.479 127.7 153.079 129.1 155.079C130.6 157.079 132.9 160.279 135.9 165.779C138.9 171.279 140.4 175.279 141.1 178.079C141.4 179.479 141.5 180.479 141.6 181.079C141.6 181.779 141.6 182.079 141.6 182.079H140.5Z" fill="#72BAD1"/>
<path d="M176.4 151.779C176.4 151.779 175.5 153.979 173.5 158.779C172.5 161.179 171.2 164.179 169.5 167.879C168.7 169.679 167.7 171.779 166.6 173.879C166.1 174.979 165.5 176.079 164.8 177.279C164.1 178.479 163.5 179.579 162.5 180.779L162.3 180.979C162.2 181.079 162.2 181.079 162 181.179C161.7 181.379 161.4 181.579 161.1 181.579C160.8 181.579 160.5 181.479 160.3 181.279C160.1 181.079 159.9 180.779 159.9 180.479C159.8 180.279 159.8 180.179 159.8 180.079C159.8 179.979 159.8 179.879 159.8 179.779C159.8 179.579 159.8 179.379 159.8 179.279C159.8 178.879 159.8 178.579 159.8 178.279C159.9 176.979 160.1 175.679 160.2 174.479C160.6 172.079 161 169.979 161.4 168.079C162.2 164.279 163 161.179 163.5 158.879C164.7 154.179 165.2 152.179 165.2 152.179L165.9 152.379C165.9 152.379 165.6 154.079 164.7 158.579C164.2 160.879 163.6 163.779 162.8 167.679C162.4 169.579 162 171.779 161.6 174.079C161.4 175.279 161.2 176.479 161.1 177.779C161.1 178.379 161 179.079 161.1 179.679C161.1 179.779 161.1 179.879 161.1 179.879V179.979C161.5 179.579 161.9 178.979 162.3 178.379C162.7 177.779 163 177.179 163.3 176.679C164 175.479 164.5 174.379 165.1 173.279C166.2 171.079 167.2 169.079 168.1 167.179C169.8 163.479 171.2 160.379 172.2 158.079C174.3 153.379 175.2 151.279 175.2 151.279L176.4 151.779Z" fill="#72BAD1"/>
<path d="M180.7 151.179C180.7 151.179 180.4 151.579 180 152.379C179.5 153.179 178.9 154.279 178.2 155.679C176.7 158.379 174.8 162.079 173 165.879C171.3 169.679 169.7 173.479 169 176.479C168.6 177.979 168.4 179.179 168.3 180.079C168.3 180.279 168.3 180.479 168.3 180.679C168.3 180.879 168.3 180.979 168.3 181.079C168.3 181.279 168.3 181.379 168.3 181.379L167.4 181.479C167.4 181.479 167.4 181.279 167.3 180.679C167.3 180.379 167.3 180.079 167.3 179.579C167.3 179.179 167.4 178.579 167.5 177.979C167.9 175.479 169 171.479 171.6 165.779C174.2 160.079 176.4 156.379 177.9 153.979C179.4 151.579 180.1 150.679 180.1 150.679L180.7 151.179Z" fill="#72BAD1"/>
<path d="M152.8 41.8794C152.8 41.8794 150.5 35.0794 150.5 29.8794C150.5 24.6794 152.8 17.8794 152.8 17.8794C152.8 17.8794 155.1 24.6794 155.1 29.8794C155.1 35.0794 152.8 41.8794 152.8 41.8794Z" fill="#B3C8D3"/>
<path d="M152.8 61.8794C152.8 61.8794 150.5 56.7794 150.5 52.8794C150.5 48.9794 152.8 43.8794 152.8 43.8794C152.8 43.8794 155.1 48.9794 155.1 52.8794C155.1 56.7794 152.8 61.8794 152.8 61.8794Z" fill="#B3C8D3"/>
<path d="M142.5 53.1794C142.5 53.1794 143.9 54.1794 145.7 55.7794C146.1 56.1794 146.7 56.5794 147.1 57.0794C147.3 57.2794 147.5 57.5794 147.8 57.8794L148.2 58.2794L148.8 58.9794C150.4 60.9794 152.2 63.4794 153.7 65.5794C151.2 64.7794 148.4 63.6794 146 62.6794L145 62.4794L144.5 62.2794C144.2 62.0794 143.9 61.9794 143.6 61.8794C143 61.5794 142.5 61.1794 142 60.8794C140 59.5794 138.6 58.5794 138.6 58.5794C138.6 58.5794 140.3 58.8794 142.6 59.4794C143.2 59.5794 143.8 59.7794 144.4 59.8794C144.7 59.9794 145 59.9794 145.4 60.0794C145.5 60.0794 145.8 60.1794 145.9 60.1794H146C146.2 60.0794 146 59.8794 146 59.8794C146 59.8794 146.2 60.0794 146.3 59.8794V59.7794C146.3 59.6794 146.2 59.4794 146.1 59.3794C145.9 59.0794 145.8 58.7794 145.6 58.4794C145.3 57.8794 145 57.3794 144.7 56.8794C143.3 54.7794 142.5 53.1794 142.5 53.1794Z" fill="#B3C8D3"/>
<path d="M136.2 57.2794C136.2 57.2794 135.7 57.0794 134.8 56.6794C133.9 56.2794 132.6 55.7794 131.2 54.8794C129.8 54.0794 128.3 52.9794 126.9 51.4794C126.2 50.6794 125.6 49.8794 125.2 48.7794C125.1 48.4794 125 48.1794 125 47.8794C125 47.5794 124.9 47.2794 124.9 46.8794C124.9 46.1794 125.2 45.3794 125.7 44.7794C126.2 44.1794 126.8 43.7794 127.5 43.5794C128.1 43.3794 128.7 43.3794 129.3 43.3794C130.4 43.4794 131.5 43.7794 132.4 44.1794C134.2 44.9794 135.8 46.0794 137 47.1794C138.2 48.2794 139.1 49.2794 139.8 50.0794C140.4 50.8794 140.8 51.2794 140.8 51.2794C140.8 51.2794 140.3 50.9794 139.5 50.3794C138.7 49.8794 137.6 49.0794 136.2 48.3794C134.9 47.6794 133.3 46.9794 131.7 46.5794C130.9 46.3794 130.1 46.2794 129.4 46.2794C128.7 46.2794 128.3 46.5794 128.2 46.6794C128 46.8794 127.8 47.2794 128 47.9794C128.1 48.5794 128.5 49.3794 129 49.9794C129.9 51.3794 131 52.6794 132.1 53.6794C133.2 54.7794 134.2 55.5794 135 56.2794C135.7 56.8794 136.2 57.2794 136.2 57.2794Z" fill="#B3C8D3"/>
<path d="M162.1 52.4795C162.1 52.4795 161.9 52.8795 161.6 53.5795C161.3 54.2795 160.9 55.1795 160.4 56.2795C159.9 57.3795 159.5 58.5795 158.9 59.8795V59.9795C158.9 59.9795 158.9 59.9795 158.9 60.0795C158.9 60.0795 158.9 60.0795 159 60.0795H159.1C159.1 60.0795 159 60.0795 159 60.1795C159 60.1795 159 60.1795 159 60.2795C159 60.2795 159 60.2795 159.1 60.2795C159.1 60.2795 159.2 60.2795 159.3 60.2795C160 60.0795 160.6 59.9795 161.3 59.7795C161.9 59.6795 162.5 59.3795 163.1 59.2795C165.4 58.6795 167.1 58.2795 167.1 58.2795C167.1 58.2795 165.7 59.3795 163.7 60.6795C163.2 60.9795 162.7 61.3795 162.1 61.6795C161.5 61.9795 160.9 62.2795 160.3 62.5795C160.2 62.5795 160.2 62.6795 160 62.6795L159.6 62.8795L158.7 63.2795C158.1 63.5795 157.4 63.7795 156.8 64.0795C155.5 64.5795 154.2 65.0795 153 65.4795C153.6 64.3795 154.2 63.0795 154.9 61.8795C155.2 61.2795 155.6 60.6795 155.9 60.0795C156.1 59.7795 156.2 59.4795 156.4 59.1795L156.6 58.7795L156.7 58.5795L156.8 58.4795C157.6 57.2795 158.4 56.2795 159.2 55.3795C160 54.4795 160.7 53.6795 161.3 53.1795C161.8 52.7795 162.1 52.4795 162.1 52.4795Z" fill="#B3C8D3"/>
<path d="M169.5 56.8794C169.5 56.8794 169.9 56.4794 170.7 55.8794C171.4 55.1794 172.4 54.2794 173.4 53.0794C174.4 51.8794 175.4 50.4794 176.1 48.9794C176.4 48.2794 176.6 47.4794 176.6 46.8794C176.6 46.1794 176.5 45.7794 176.2 45.4794C176 45.1794 175.5 44.9794 174.9 44.8794C174.2 44.7794 173.5 44.8794 172.7 45.0794C171.1 45.4794 169.6 46.2794 168.3 47.0794C167 47.8794 165.9 48.6794 165.1 49.2794C164.3 49.8794 163.9 50.2794 163.9 50.2794C163.9 50.2794 164.2 49.7794 164.8 48.9794C165.4 48.1794 166.2 47.0794 167.4 45.8794C168.6 44.6794 170 43.4794 171.9 42.5794C172.9 42.1794 173.9 41.8794 175.1 41.8794C176.3 41.8794 177.6 42.2794 178.6 43.3794C179.5 44.4794 179.8 45.8794 179.6 47.0794C179.4 48.2794 179 49.2794 178.4 50.1794C177.3 51.8794 175.8 53.1794 174.5 54.1794C173.2 55.1794 171.9 55.7794 171 56.2794C170 56.5794 169.5 56.8794 169.5 56.8794Z" fill="#B3C8D3"/>
</g>
<defs>
<clipPath id="clip0">
<rect width="92" height="291" fill="white" transform="translate(12 0.879395)"/>
</clipPath>
<clipPath id="clip1">
<rect width="64.1" height="144.6" fill="white" transform="translate(205 139.879)"/>
</clipPath>
<clipPath id="clip2">
<rect width="71.8" height="181.7" fill="white" transform="translate(118 17.8794)"/>
</clipPath>
</defs>
</svg>
