<svg width="294" height="290" viewBox="0 0 294 290" fill="none" xmlns="http://www.w3.org/2000/svg">
<path d="M2 14.8794H286.357L291.283 281.879H2V14.8794Z" fill="#FFFCF2" stroke="#C7C5BB" stroke-width="4"/>
<g clip-path="url(#clip0)">
<path d="M61.0369 139.806L61.0968 139.746C61.9954 138.845 62.894 137.884 63.7327 136.983C65.53 135.182 67.2074 133.38 68.765 131.818C71.8203 128.695 74.0369 126.413 74.0369 126.413C74.0369 126.413 71.5806 128.455 68.2857 131.338C66.6083 132.779 64.8111 134.461 62.9539 136.203C61.9954 137.043 61.0968 137.944 60.1982 138.845C60.0783 138.965 59.9585 139.025 59.8986 139.145C59.5991 126.293 58.7604 111.879 58.7604 111.879C58.7604 111.879 57.9217 126.353 57.7419 139.145C52.1705 133.8 46.0599 128.335 46.0599 128.335C46.0599 128.335 51.2719 134.221 56.4839 139.686C54.447 139.686 52.3502 139.746 50.2535 139.806C49.5346 139.806 48.7558 139.866 48.0369 139.866C47.318 139.926 46.5991 139.926 45.8802 139.986C44.4424 140.046 43.1244 140.166 41.8065 140.226C36.7143 140.527 33 140.827 33 140.827C33 140.827 36.7143 141.067 41.8065 141.247C43.0645 141.307 44.4424 141.367 45.8802 141.428C46.5991 141.428 47.318 141.488 48.0369 141.488C48.7558 141.488 49.4747 141.548 50.2535 141.548C52.53 141.608 54.8064 141.728 56.9631 141.728C56.3041 142.388 55.5853 143.109 54.8664 143.89C53.9677 144.791 53.129 145.752 52.2304 146.653C50.4931 148.514 48.8157 150.376 47.3779 151.998C44.5023 155.301 42.4654 157.763 42.4654 157.763C42.4654 157.763 44.7419 155.541 47.917 152.538C49.4747 151.037 51.2719 149.295 53.0691 147.493C53.9677 146.592 54.9263 145.692 55.8249 144.851C56.4839 144.25 57.0829 143.59 57.682 142.989C57.682 143.049 57.682 143.169 57.682 143.229C57.682 156.802 58.7604 174.699 58.7604 174.699C58.7604 174.699 59.8387 156.802 59.8387 143.229C59.8387 143.169 59.8387 143.169 59.8387 143.109C65.8295 149.115 74.0369 156.322 74.0369 156.322C74.0369 156.322 66.5484 147.974 60.4977 141.908C71.4608 141.848 85 140.947 85 140.947C85 140.947 71.9401 139.926 61.0369 139.806Z" fill="#FF606F"/>
</g>
<path d="M239.874 97.9272C241.557 83.7834 246.301 76.6219 254.107 76.4429C264.026 76.7293 268.735 85.9855 268.233 104.211C267.481 116.243 263.31 122.545 255.719 123.118C244.404 123.547 239.122 115.151 239.874 97.9272ZM241.271 53.8843C242.703 44.7534 246.785 40.1343 253.517 40.0269C262.039 40.2059 266.067 46.1857 265.602 57.9663C264.993 65.7365 261.43 69.8185 254.913 70.2124C245.138 70.4631 240.59 65.0203 241.271 53.8843ZM267.857 72.2534C274.41 69.4246 278.224 63.964 279.298 55.8716C280.73 40.9399 272.996 33.4562 256.095 33.4204C238.263 33.4562 228.899 39.1138 228.004 50.3931C227.324 61.8514 231.62 69.2098 240.895 72.4683C230.403 75.8341 224.799 83.2642 224.083 94.7583C223.009 117.46 232.713 128.972 253.194 129.294C270.74 129.939 280.497 121.059 282.467 102.654C283.684 86.2541 278.814 76.1206 267.857 72.2534ZM270.006 118.66C271.76 117.406 273.175 115.168 274.249 111.946C274.285 115.025 272.87 117.263 270.006 118.66ZM272.208 97.0679C272.638 100.434 271.743 104.981 269.522 110.71C271.492 103.155 271.331 95.5461 269.039 87.8833C270.722 90.6047 271.778 93.6662 272.208 97.0679ZM272.369 90.0317L271.51 88.9038C270.65 86.6121 269.111 84.1056 266.891 81.3843C270.149 83.3537 271.975 86.2362 272.369 90.0317ZM271.886 112L269.254 115.491C273.049 109.403 274.553 103.012 273.766 96.3159C275.592 101.651 274.965 106.879 271.886 112ZM242.667 119.68C239.802 118.284 238.388 116.046 238.424 112.966C239.498 116.189 240.912 118.427 242.667 119.68ZM237.35 54.0454C237.779 51.2524 238.836 48.728 240.519 46.4722C238.227 52.8101 238.066 59.0763 240.035 65.271C237.815 60.5444 236.92 56.8026 237.35 54.0454ZM237.188 48.2983C237.582 45.1473 239.409 42.7661 242.667 41.1548C240.447 43.3748 238.907 45.4338 238.048 47.3315L237.188 48.2983ZM237.35 65.5396C234.27 61.3501 233.644 57.0711 235.47 52.7026C234.682 58.1812 236.186 63.4269 239.981 68.4399L237.35 65.5396Z" fill="#C7C5BB"/>
<path d="M235.874 95.9272C237.557 81.7834 242.301 74.6219 250.107 74.4429C260.026 74.7293 264.735 83.9855 264.233 102.211C263.481 114.243 259.31 120.545 251.719 121.118C240.404 121.547 235.122 113.151 235.874 95.9272ZM237.271 51.8843C238.703 42.7534 242.785 38.1343 249.517 38.0269C258.039 38.2059 262.067 44.1857 261.602 55.9663C260.993 63.7365 257.43 67.8185 250.913 68.2124C241.138 68.4631 236.59 63.0203 237.271 51.8843ZM263.857 70.2534C270.41 67.4246 274.224 61.964 275.298 53.8716C276.73 38.9399 268.996 31.4562 252.095 31.4204C234.263 31.4562 224.899 37.1138 224.004 48.3931C223.324 59.8514 227.62 67.2098 236.895 70.4683C226.403 73.8341 220.799 81.2642 220.083 92.7583C219.009 115.46 228.713 126.972 249.194 127.294C266.74 127.939 276.497 119.059 278.467 100.654C279.684 84.2541 274.814 74.1206 263.857 70.2534ZM266.006 116.66C267.76 115.406 269.175 113.168 270.249 109.946C270.285 113.025 268.87 115.263 266.006 116.66ZM268.208 95.0679C268.638 98.4338 267.743 102.981 265.522 108.71C267.492 101.155 267.331 93.5461 265.039 85.8833C266.722 88.6047 267.778 91.6662 268.208 95.0679ZM268.369 88.0317L267.51 86.9038C266.65 84.6121 265.111 82.1056 262.891 79.3843C266.149 81.3537 267.975 84.2362 268.369 88.0317ZM267.886 110L265.254 113.491C269.049 107.403 270.553 101.012 269.766 94.3159C271.592 99.6512 270.965 104.879 267.886 110ZM238.667 117.68C235.802 116.284 234.388 114.046 234.424 110.966C235.498 114.189 236.912 116.427 238.667 117.68ZM233.35 52.0454C233.779 49.2524 234.836 46.728 236.519 44.4722C234.227 50.8101 234.066 57.0763 236.035 63.271C233.815 58.5444 232.92 54.8026 233.35 52.0454ZM233.188 46.2983C233.582 43.1473 235.409 40.7661 238.667 39.1548C236.447 41.3748 234.907 43.4338 234.048 45.3315L233.188 46.2983ZM233.35 63.5396C230.27 59.3501 229.644 55.0711 231.47 50.7026C230.682 56.1812 232.186 61.4269 235.981 66.4399L233.35 63.5396Z" fill="#2D3962"/>
<g clip-path="url(#clip1)">
<path d="M24 46.214C24 47.1877 29.8879 48.1613 37.4579 48.1613C37.5981 57.0636 38.4393 63.8794 39.4206 63.8794C40.4019 63.8794 41.243 57.0636 41.3832 48.1613C48.5327 48.0223 53.8598 47.1877 53.8598 46.214C53.8598 45.2403 48.3925 44.4057 41.3832 44.2666C41.3832 34.5298 40.5421 26.8794 39.4206 26.8794C38.2991 26.8794 37.4579 34.5298 37.4579 44.1275C29.8879 44.2666 24 45.1012 24 46.214Z" fill="#B3C8D3"/>
</g>
<g clip-path="url(#clip2)">
<path d="M239 162.394C239 163.579 246.065 164.763 255.15 164.763C255.318 175.59 256.327 183.879 257.505 183.879C258.682 183.879 259.692 175.59 259.86 164.763C268.439 164.594 274.832 163.579 274.832 162.394C274.832 161.21 268.271 160.195 259.86 160.026C259.86 148.184 258.85 138.879 257.505 138.879C256.159 138.879 255.15 148.184 255.15 159.857C246.065 160.026 239 161.041 239 162.394Z" fill="#B3C8D3"/>
</g>
<g clip-path="url(#clip3)">
<path d="M56 60.0335C56 60.7967 60.7103 61.5598 66.7664 61.5598C66.8785 68.5373 67.5514 73.8794 68.3364 73.8794C69.1215 73.8794 69.7944 68.5373 69.9065 61.5598C75.6262 61.4508 79.8878 60.7967 79.8878 60.0335C79.8878 59.2704 75.514 58.6162 69.9065 58.5072C69.9065 50.8756 69.2336 44.8794 68.3364 44.8794C67.4393 44.8794 66.7664 50.8756 66.7664 58.3982C60.7103 58.5072 56 59.1613 56 60.0335Z" fill="#B3C8D3"/>
</g>
<g clip-path="url(#clip4)">
<path d="M215 189.034C215 189.797 219.71 190.56 225.766 190.56C225.879 197.537 226.551 202.879 227.336 202.879C228.121 202.879 228.794 197.537 228.907 190.56C234.626 190.451 238.888 189.797 238.888 189.034C238.888 188.27 234.514 187.616 228.907 187.507C228.907 179.876 228.234 173.879 227.336 173.879C226.439 173.879 225.766 179.876 225.766 187.398C219.71 187.507 215 188.161 215 189.034Z" fill="#B3C8D3"/>
</g>
<g clip-path="url(#clip5)">
<path d="M180.228 201.236C180.522 209.678 196 209.973 196 209.973C196 209.973 185.028 213.703 168.473 215.077C152.015 216.55 140.162 214.783 140.162 214.783C140.162 214.783 155.64 211.641 154.66 203.395L180.228 201.236Z" fill="#2D3962"/>
<path d="M156.325 190.339C153.484 190.143 150.644 189.947 147.901 189.554C146.529 189.358 145.158 189.161 143.786 188.867C142.415 188.572 141.043 188.278 139.966 187.787C139.672 187.689 139.378 187.493 139.182 187.394C139.084 187.296 138.986 187.296 138.888 187.198L138.79 187.1C138.594 186.904 138.496 186.315 138.398 185.726C138.3 184.548 138.3 183.173 138.496 181.799C138.692 180.425 138.888 179.148 139.182 177.774C139.28 177.087 139.476 176.4 139.574 175.713L139.77 174.731L139.966 173.946L140.259 172.964L139.574 172.277L138.986 171.688L138.3 171.001C137.908 170.51 137.419 170.117 137.027 169.626C135.753 168.154 134.48 166.681 133.5 165.111C133.01 164.325 132.52 163.54 132.227 162.755C131.933 161.969 131.737 161.184 131.737 160.595C131.737 160.497 131.835 160.497 132.031 160.399C132.325 160.202 132.618 160.006 133.108 159.908C133.892 159.613 134.872 159.319 135.851 159.123C137.81 158.73 139.77 158.534 141.729 158.435C143.688 158.337 145.745 158.239 147.803 158.239C148.782 158.239 149.86 158.239 150.839 158.337C151.329 158.337 151.819 158.337 152.309 158.435C152.505 158.435 152.799 158.435 152.995 158.534C153.093 158.534 153.191 158.534 153.288 158.534H153.386V158.435C153.484 158.239 153.288 158.632 153.288 158.632L153.876 157.356C153.974 157.257 152.505 156.767 148.684 156.472C146.823 156.276 144.276 156.178 141.043 156.276C139.378 156.374 137.615 156.472 135.655 156.767C134.676 156.963 133.598 157.159 132.423 157.454C131.835 157.65 131.247 157.846 130.659 158.239C130.365 158.435 130.071 158.632 129.68 159.024C129.386 159.319 129.092 159.908 128.994 160.399C128.896 161.38 128.994 162.362 129.386 163.246C129.68 164.129 130.169 165.013 130.659 165.896C131.737 167.663 133.108 169.43 134.578 171.197C135.263 171.982 135.949 172.768 136.537 173.357C136.733 173.553 136.929 173.749 137.125 173.946V174.044L137.027 174.338C136.929 174.731 136.831 175.124 136.733 175.418C136.537 176.105 136.439 176.891 136.243 177.578C135.949 178.952 135.753 180.425 135.655 181.701C135.557 183.075 135.459 184.351 135.557 185.627C135.655 186.315 135.753 187.002 135.949 187.689C136.047 188.082 136.243 188.376 136.537 188.769L136.733 189.063C136.831 189.161 136.929 189.161 136.929 189.26L137.125 189.456L137.321 189.652C137.908 190.045 138.496 190.241 138.986 190.438C139.574 190.634 140.064 190.83 140.553 190.928C141.533 191.223 142.513 191.419 143.394 191.517C145.158 191.812 146.725 192.008 148.096 192.106C150.839 192.401 152.799 192.401 154.072 192.499C155.346 192.499 155.933 192.499 155.933 192.499L156.325 190.339Z" fill="#2D3962"/>
<path d="M175.134 138.41L180.326 201.923L154.856 204.181L149.37 139.784L175.134 138.41Z" fill="#2D3962"/>
<path d="M153.386 148.717L156.129 179.934L157.011 148.619L153.386 148.717Z" fill="#4F8BAD"/>
<path d="M173.077 146.165L178.269 210.169L170.824 211.052L163.281 148.226L173.077 146.165Z" fill="#4F8BAD"/>
<path d="M189.535 136.348C189.535 136.348 177.779 134.385 162.693 135.759C147.607 137.035 133.696 141.551 133.696 141.551C133.696 141.551 144.962 143.711 162.497 142.238C179.934 140.668 189.535 136.348 189.535 136.348Z" fill="#2D3962"/>
<path d="M172.685 138.115L159.558 38.3787L152.897 32.3906L147.215 39.1641L151.819 139.784C151.721 139.882 159.264 140.766 172.685 138.115Z" fill="#B3C8D3"/>
<path d="M175.82 162.46C175.82 162.46 175.526 162.558 174.84 162.657C174.252 162.853 173.273 163.049 172.195 163.246C171.118 163.442 169.844 163.638 168.473 163.835C167.787 163.933 167.101 164.031 166.317 164.129C165.926 164.129 165.632 164.227 165.24 164.227L164.162 164.325C162.693 164.424 161.223 164.62 159.852 164.62C159.166 164.62 158.48 164.62 157.893 164.62C157.599 164.62 157.305 164.62 157.011 164.62C156.717 164.62 156.423 164.62 156.129 164.62C153.876 164.522 152.407 164.424 152.407 164.424L152.309 165.994C152.309 165.994 152.995 166.19 154.758 166.485C155.64 166.583 156.815 166.878 158.383 166.878C159.166 166.878 160.048 166.878 160.93 166.878C161.909 166.878 162.889 166.779 164.064 166.681C168.571 166.289 171.705 165.503 173.665 164.914C175.624 164.325 176.408 163.835 176.408 163.835L175.82 162.46Z" fill="#2D3962"/>
<path d="M176.212 167.172C176.212 167.172 175.918 167.27 175.232 167.368C174.644 167.565 173.665 167.761 172.587 167.957C171.509 168.154 170.236 168.35 168.864 168.546C168.179 168.645 167.493 168.743 166.709 168.841C166.317 168.841 166.024 168.939 165.632 168.939L164.554 169.037C163.085 169.135 161.615 169.332 160.244 169.332C159.558 169.332 158.872 169.332 158.285 169.332C157.991 169.332 157.697 169.332 157.403 169.332C157.109 169.332 156.815 169.332 156.521 169.332C154.268 169.234 152.799 169.135 152.799 169.135L152.701 170.706C152.701 170.706 153.386 170.902 155.15 171.197C156.031 171.295 157.207 171.59 158.774 171.59C159.558 171.59 160.44 171.59 161.321 171.59C162.301 171.59 163.281 171.491 164.456 171.393C168.962 171.001 172.097 170.215 174.056 169.626C176.016 169.037 176.799 168.546 176.799 168.546L176.212 167.172Z" fill="#2D3962"/>
<path d="M177.093 185.431C177.093 185.431 176.799 185.529 176.212 185.627C175.624 185.824 174.742 185.922 173.763 186.216C172.783 186.413 171.509 186.609 170.236 186.805C169.55 186.903 168.864 187.002 168.179 187.1C167.885 187.1 167.493 187.198 167.101 187.198L166.024 187.296C164.652 187.394 163.281 187.591 161.909 187.492C161.223 187.492 160.636 187.492 160.048 187.492C159.754 187.492 159.46 187.492 159.166 187.492C158.872 187.492 158.578 187.492 158.382 187.492C156.325 187.394 154.856 187.296 154.856 187.296L154.66 188.867C154.66 188.867 155.248 189.063 157.011 189.358C157.893 189.456 158.97 189.75 160.44 189.75C161.125 189.75 162.007 189.75 162.889 189.848C163.77 189.848 164.75 189.75 165.828 189.652C170.138 189.259 173.077 188.572 174.938 187.885C176.799 187.296 177.485 186.903 177.485 186.903L177.093 185.431Z" fill="#2D3962"/>
<path d="M176.701 180.523C176.701 180.523 176.408 180.621 175.82 180.719C175.232 180.915 174.35 181.014 173.371 181.308C172.391 181.504 171.118 181.701 169.844 181.897C169.158 181.995 168.473 182.093 167.787 182.192C167.493 182.192 167.101 182.29 166.709 182.29L165.632 182.388C164.26 182.486 162.791 182.682 161.517 182.584C160.832 182.584 160.244 182.584 159.656 182.584C159.362 182.584 159.068 182.584 158.774 182.584C158.48 182.584 158.187 182.584 157.991 182.584C155.933 182.486 154.464 182.388 154.464 182.388L154.268 183.959C154.268 183.959 154.856 184.155 156.521 184.449C157.403 184.548 158.48 184.842 159.95 184.842C160.636 184.842 161.517 184.842 162.399 184.94C163.281 184.94 164.26 184.842 165.338 184.744C169.648 184.351 172.587 183.664 174.448 182.977C176.31 182.388 176.995 181.995 176.995 181.995L176.701 180.523Z" fill="#2D3962"/>
<path d="M186.987 207.911C186.987 207.911 186.4 208.107 185.42 208.304C184.44 208.5 182.971 208.794 181.11 209.187C180.228 209.383 179.248 209.482 178.269 209.678C177.289 209.874 176.212 210.071 175.036 210.169C173.958 210.267 172.783 210.463 171.607 210.561C171.02 210.66 170.432 210.758 169.844 210.758C169.256 210.758 168.669 210.856 168.081 210.856C166.905 210.954 165.73 211.052 164.554 211.15C163.966 211.249 163.379 211.249 162.791 211.249C162.203 211.249 161.615 211.249 161.027 211.347C158.774 211.347 156.717 211.543 154.856 211.445C151.231 211.347 148.88 211.249 148.88 211.249V212.034C148.88 212.034 149.958 212.132 152.799 212.328C153.484 212.328 154.366 212.427 155.248 212.427C155.737 212.427 156.227 212.525 156.815 212.525C157.403 212.525 157.893 212.525 158.578 212.525C159.754 212.525 161.125 212.525 162.693 212.427C163.085 212.427 163.477 212.427 163.868 212.427C164.26 212.427 164.652 212.328 165.044 212.328C165.828 212.23 166.709 212.23 167.591 212.132C174.84 211.543 179.738 210.561 182.873 209.874C184.44 209.58 185.518 209.187 186.302 208.991C186.987 208.794 187.379 208.696 187.379 208.696L186.987 207.911Z" fill="#4F8BAD"/>
<path d="M149.762 0.879395C149.762 0.879395 149.468 1.37022 148.88 2.15555C148.586 2.54821 148.292 3.03904 147.999 3.62804C147.705 4.21703 147.411 4.90419 147.117 5.59135C146.627 7.06384 146.137 9.02715 146.235 10.9905C146.235 12.9538 146.627 14.9171 147.215 16.3896C147.705 17.8621 148.39 19.1382 148.978 20.4144C149.076 20.7089 149.272 21.1015 149.37 21.396C149.468 21.6905 149.566 22.0832 149.664 22.3777C149.958 23.0649 150.056 23.752 150.252 24.341C150.546 25.7153 150.742 26.9915 150.742 27.875C150.839 28.8566 150.839 29.3475 150.839 29.3475C150.839 29.3475 151.231 28.9548 151.721 28.1695C152.309 27.3841 152.995 26.3043 153.68 24.7337C153.974 23.9483 154.268 23.163 154.464 22.1814C154.562 21.6905 154.66 21.1997 154.66 20.7089C154.66 20.2181 154.758 19.7272 154.758 19.2364C154.758 17.2731 154.268 15.3098 153.778 13.8373C153.191 12.3648 152.603 11.0886 152.015 9.81248C151.427 8.53632 150.937 7.162 150.546 5.78768C150.35 5.10052 150.252 4.41336 150.154 3.92253C149.958 3.33354 149.958 2.74454 149.86 2.35188C149.86 1.46839 149.762 0.879395 149.762 0.879395Z" fill="#FF606F"/>
<path d="M107.246 242.76L116.553 107.684L113.222 98.5542L108.52 106.407L85.1067 240.404L107.246 242.76Z" fill="#B3C8D3"/>
<path d="M107.246 242.76L105.679 287.818L78.9351 284.971L85.1067 240.404L107.246 242.76Z" fill="#2D3962"/>
<path d="M116.846 53.2017C116.846 53.2017 117.14 53.8888 117.63 55.165C118.218 56.4411 118.708 58.2081 119.296 60.3678C119.687 62.5274 120.079 65.1779 119.883 67.8284C119.785 70.4788 119.198 73.1293 118.512 75.289C117.826 77.4486 116.944 79.6083 116.161 81.6697C115.965 82.1606 115.867 82.7496 115.671 83.2404C115.475 83.7312 115.377 84.3202 115.279 84.811C114.985 85.8909 114.789 86.8725 114.593 87.8542C114.299 89.8175 114.006 91.6826 114.006 92.9588C113.908 94.235 113.81 95.0203 113.81 95.0203C113.81 95.0203 113.418 94.3331 112.928 93.1551C112.34 91.9771 111.654 90.2102 111.067 88.0505C110.871 86.9707 110.479 85.7927 110.381 84.5165C110.283 83.9275 110.283 83.2404 110.185 82.5532C110.185 81.8661 110.185 81.1789 110.185 80.5899C110.381 77.9394 110.969 75.289 111.654 73.1293C112.34 70.9697 113.222 68.81 113.908 66.7485C114.691 64.6871 115.181 62.4292 115.671 60.4659C116.063 58.5026 116.357 56.6375 116.553 55.3613C116.749 53.8888 116.846 53.2017 116.846 53.2017Z" fill="#FF606F"/>
<path d="M105.483 247.668L113.81 245.312L113.908 243.545L79.131 239.03L78.9351 240.797L85.9884 245.116L105.483 247.668Z" fill="#2D3962"/>
<path d="M71 285.167L114.299 289.879L113.614 283.302L105.189 283.498L80.7962 280.848L71.7837 279.474L71 285.167Z" fill="#2D3962"/>
<path d="M103.817 253.46C107.246 252.282 110.577 251.398 114.103 250.613C117.63 249.926 121.157 249.337 124.879 249.631C125.859 249.73 126.741 249.73 127.818 250.22L128.21 250.417C128.308 250.515 128.504 250.613 128.602 250.711C128.896 250.908 129.092 251.202 129.386 251.497C129.777 252.086 129.973 252.871 129.875 253.46C129.777 254.736 129.288 255.62 128.798 256.503C128.308 257.387 127.818 258.074 127.23 258.859C126.055 260.332 124.879 261.608 123.606 262.884C123.018 263.473 122.332 264.16 121.647 264.749L120.373 265.927V266.025L120.471 266.221L120.667 266.614C120.863 267.105 121.059 267.596 121.255 268.185C121.549 269.265 121.842 270.344 122.038 271.424C122.136 272.602 122.136 273.78 121.647 275.056C121.157 276.333 119.981 277.314 118.904 277.805C117.826 278.296 116.65 278.59 115.475 278.689C114.397 278.787 113.222 278.787 112.144 278.787C109.989 278.689 107.932 278.296 105.777 277.805L106.168 276.234C106.168 276.234 106.56 276.234 107.344 276.431C108.128 276.529 109.401 276.725 111.263 276.823C112.144 276.823 113.222 276.823 114.495 276.725C115.671 276.627 117.042 276.333 118.218 275.744C118.806 275.351 119.197 274.958 119.491 274.369C119.687 273.78 119.785 272.995 119.687 272.111C119.589 271.228 119.393 270.246 119.1 269.265C118.904 268.774 118.708 268.283 118.512 267.792C118.414 267.498 118.316 267.301 118.218 267.007C118.022 266.516 117.728 265.927 117.434 265.436C119.1 264.062 119.491 263.669 120.471 262.688C121.353 261.804 122.43 260.822 123.41 259.743C124.487 258.663 125.369 257.485 126.153 256.405C126.545 255.816 126.839 255.325 127.132 254.736C127.426 254.245 127.524 253.656 127.524 253.362C127.524 253.067 127.426 252.969 127.132 252.773C126.937 252.675 126.741 252.576 126.545 252.576C126.447 252.576 126.349 252.478 126.153 252.478L125.761 252.38C125.173 252.282 124.683 252.184 124.096 252.184C123.508 252.184 123.018 252.086 122.43 252.184C120.275 252.184 118.414 252.38 116.65 252.675C114.887 252.969 113.418 253.165 112.046 253.46C109.401 254.049 107.442 254.54 106.168 254.834C104.895 255.129 104.307 255.325 104.307 255.325L103.817 253.46Z" fill="#2D3962"/>
<path d="M86.478 245.606L81.5798 280.946L93.2374 282.124L96.2742 246.686L86.478 245.606Z" fill="#4F8BAD"/>
<path d="M82.6575 259.841L105.777 261.313L105.679 262.982C105.679 262.982 103.132 263.571 94.511 263.08C85.8903 262.491 82.5596 261.509 82.5596 261.509L82.6575 259.841Z" fill="#2D3962"/>
<path d="M82.1676 264.651L106.56 267.007L106.364 268.577C106.364 268.577 103.621 269.166 94.5109 268.283C85.4004 267.399 81.9717 266.319 81.9717 266.319L82.1676 264.651Z" fill="#2D3962"/>
<path d="M85.2046 239.815L87.1638 227.053C87.1638 227.053 89.221 231.274 88.4373 237.95C88.4373 237.95 90.1027 228.918 91.6701 228.82C93.2375 228.722 92.5518 239.128 92.5518 239.128C92.5518 239.128 95.0988 229.507 96.7641 229.213C98.4295 228.918 98.5275 239.618 98.5275 239.618C98.5275 239.618 99.8989 231.274 101.662 230.98C103.426 230.784 103.524 239.815 103.524 239.815C103.524 239.815 104.797 234.023 106.854 230.98L107.148 243.054L85.2046 239.815Z" fill="#2D3962"/>
<path d="M85.3026 239.226L107.246 242.073L107.148 242.858C107.148 242.858 104.699 242.956 96.4703 241.876C88.2414 240.796 85.2046 240.011 85.2046 240.011L85.3026 239.226Z" fill="#4F8BAD"/>
</g>
<g clip-path="url(#clip6)">
<path d="M283.762 232.008C281.708 231.929 278.865 231.772 275.469 231.614C273.811 231.535 271.994 231.456 270.178 231.377C268.361 231.299 266.387 231.22 264.491 231.22C260.7 231.062 256.83 231.062 253.197 231.062C261.806 222.31 271.678 210.877 271.678 210.877C271.678 210.877 260.384 220.654 251.618 229.17C251.618 211.666 250.117 188.879 250.117 188.879C250.117 188.879 248.617 211.666 248.617 229.249C240.798 221.601 230.531 212.849 230.531 212.849C230.531 212.849 239.455 223.414 247.195 231.22C241.43 231.377 235.506 231.693 230.531 232.008C223.818 232.402 219 232.876 219 232.876C219 232.876 223.818 233.349 230.531 233.822C235.19 234.137 240.798 234.531 246.326 234.689C238.508 242.889 230.531 252.035 230.531 252.035C230.531 252.035 240.245 243.599 248.696 235.556C248.933 252.193 250.196 270.879 250.196 270.879C250.196 270.879 251.381 252.114 251.697 235.556C259.042 242.495 267.177 249.433 267.177 249.433C267.177 249.433 260.7 241.785 253.987 234.768C257.383 234.689 261.016 234.531 264.57 234.374C265.518 234.295 266.466 234.295 267.492 234.216C268.44 234.137 269.388 234.058 270.336 233.979C272.152 233.822 273.969 233.664 275.627 233.506C278.944 233.191 281.866 232.876 283.841 232.639C285.894 232.402 287.079 232.245 287.079 232.245C287.079 232.245 285.815 232.166 283.762 232.008Z" fill="#72BAD1"/>
</g>
<defs>
<clipPath id="clip0">
<rect width="52" height="63" fill="white" transform="translate(33 111.879)"/>
</clipPath>
<clipPath id="clip1">
<rect width="30" height="37" fill="white" transform="translate(24 26.8794)"/>
</clipPath>
<clipPath id="clip2">
<rect width="36" height="45" fill="white" transform="translate(239 138.879)"/>
</clipPath>
<clipPath id="clip3">
<rect width="24" height="29" fill="white" transform="translate(56 44.8794)"/>
</clipPath>
<clipPath id="clip4">
<rect width="24" height="29" fill="white" transform="translate(215 173.879)"/>
</clipPath>
<clipPath id="clip5">
<rect width="125" height="289" fill="white" transform="translate(71 0.879395)"/>
</clipPath>
<clipPath id="clip6">
<rect width="68" height="82" fill="white" transform="translate(219 188.879)"/>
</clipPath>
</defs>
</svg>
