<svg width="317" height="303" viewBox="0 0 317 303" fill="none" xmlns="http://www.w3.org/2000/svg">
<rect x="13.3203" y="21.8794" width="293.32" height="274" fill="#C4C4C4"/>
<mask id="mask0" style="mask-type:alpha" maskUnits="userSpaceOnUse" x="13" y="21" width="294" height="275">
<rect x="13.3203" y="21.8794" width="293.32" height="274" fill="#C4C4C4"/>
</mask>
<g mask="url(#mask0)">
<path d="M333.214 322.337L-6.14021 324.094L-12.3293 29.2455L348.7 27.2921L333.214 322.337Z" fill="#C24751"/>
<path d="M-10.394 98.8724L83.0827 99.3449L82.8388 112.184L249.055 117.148L249.753 100.107L342.756 100.607L344.282 84.4127L-11.0918 86.2358L-10.394 98.8724Z" fill="#2D3962"/>
<path d="M166.898 144.214C106.849 144.5 84.2481 185.48 84.2481 185.48L85.3705 322.019L242.998 321.248L248.422 184.633C248.422 184.633 226.947 143.928 166.898 144.214Z" fill="#2D3962"/>
<path d="M86.1302 285.176L86.6124 323.467L243.157 322.713L244.733 284.301L86.1302 285.176Z" fill="#C24751"/>
<path d="M245.978 181.645C245.978 181.645 245.815 181.513 245.805 181.226C245.637 180.951 245.306 180.544 244.97 179.994C244.139 178.905 243.136 177.398 241.483 175.508C238.178 171.729 233.086 166.789 226.093 162.136C219.1 157.484 210.052 153.274 199.781 150.597C189.51 147.919 178.174 146.76 166.721 146.906C155.277 147.338 143.717 149.075 133.318 152.307C122.92 155.538 113.684 160.265 106.366 165.279C99.0492 170.293 93.6508 175.593 90.1155 179.458C88.4296 181.456 87.206 182.988 86.2907 184.208C85.833 184.818 85.5294 185.273 85.3753 185.428C85.2258 185.728 85.0717 185.883 85.0717 185.883L83.4471 184.855C83.4471 184.855 84.045 183.658 86.0299 181.062C87.856 178.478 91.0737 174.637 96.4861 169.767C101.898 164.897 109.669 159.13 120.647 154.127C131.624 149.125 145.973 145.019 163.453 144.274C164.565 144.19 165.676 144.106 166.628 144.034C167.744 144.094 168.697 144.022 169.813 144.082C171.881 144.069 173.954 144.201 176.022 144.188C176.498 144.152 176.979 144.26 177.456 144.224C177.936 144.332 178.413 144.296 178.894 144.403C179.851 144.475 180.808 144.546 181.77 144.762C183.684 144.905 185.603 145.192 187.358 145.347C189.118 145.646 190.878 145.944 192.643 146.387C193.446 146.614 194.403 146.686 195.206 146.913C195.687 147.02 196.005 146.996 196.485 147.104C196.966 147.211 197.288 147.331 197.769 147.439C199.375 147.893 200.981 148.347 202.587 148.802C203.39 149.029 204.193 149.256 204.838 149.495C205.641 149.722 206.29 150.105 207.093 150.332C218.68 154.35 226.971 159.768 233.016 164.635C238.903 169.515 242.543 173.845 244.705 176.704C245.204 177.386 245.703 178.068 246.039 178.618C246.375 179.168 246.707 179.575 246.88 179.994C247.379 180.675 247.552 181.094 247.552 181.094L245.978 181.645Z" fill="#FF606F"/>
<path d="M167.967 85.0809C167.967 85.0809 167.741 89.6682 167.532 100.558C167.136 111.462 167.077 115.406 167.077 115.406L165.96 115.491C165.96 115.491 164.923 112.26 165.303 100.884C165.684 89.509 166.292 85.208 166.292 85.208L167.967 85.0809Z" fill="#4F8BAD"/>
<path d="M167.704 115.624C167.704 115.624 167.649 119.724 167.224 129.681C166.983 139.624 166.728 143.266 166.728 143.266L165.62 143.352C165.62 143.352 164.603 140.437 165.013 130.009C165.428 119.738 166.038 115.595 166.038 115.595L167.704 115.624Z" fill="#FF606F"/>
<path d="M249.462 82.148C249.462 82.148 246.477 87.6572 239.079 100.808C231.845 113.944 229.168 118.655 229.168 118.655L228.33 118.118C228.33 118.118 229.697 113.682 237.243 99.902C244.793 86.2751 248.119 81.1959 248.119 81.1959L249.462 82.148Z" fill="#4F8BAD"/>
<path d="M230.832 118.825C230.832 118.825 227.838 124.028 220.92 136.673C214.003 149.319 211.486 153.861 211.486 153.861L210.648 153.324C210.648 153.324 211.854 149.057 219.253 135.905C226.487 122.769 229.657 118.011 229.657 118.011L230.832 118.825Z" fill="#FF606F"/>
<path d="M91.5455 84.7344C91.5455 84.7344 93.3268 88.7614 97.4399 98.6274C101.549 108.339 103.151 111.916 103.151 111.916L102.161 112.473C102.161 112.473 99.9202 110.04 95.6318 99.8794C91.3434 89.7191 90.0631 85.6461 90.0631 85.6461L91.5455 84.7344Z" fill="#4F8BAD"/>
<path d="M103.224 113.167C103.224 113.167 105.727 118.994 111.806 133.19C117.881 147.231 120.028 152.314 120.028 152.314L119.037 152.871C119.037 152.871 116.254 149.088 109.995 134.443C103.737 119.797 101.736 113.924 101.736 113.924L103.224 113.167Z" fill="#FF606F"/>
<path d="M135.361 84.8854C135.361 84.8854 135.855 89.2502 137.263 99.8338C138.666 110.261 139.147 114.155 139.147 114.155L138.067 114.399C138.067 114.399 136.527 111.377 135.109 100.479C133.692 89.5815 133.744 85.33 133.744 85.33L135.361 84.8854Z" fill="#4F8BAD"/>
<path d="M139.21 114.28C139.21 114.28 139.715 118.959 141.139 130.015C142.564 141.071 143.05 145.122 143.05 145.122L141.969 145.366C141.969 145.366 140.421 142.186 138.982 130.66C137.543 119.133 137.405 114.582 137.405 114.582L139.21 114.28Z" fill="#FF606F"/>
<path d="M205.352 85.6066C205.352 85.6066 203.959 90.4046 200.54 101.615C197.126 112.981 196.05 116.972 196.05 116.972L195.029 116.753C195.029 116.753 195.097 113.009 198.503 101.332C201.909 89.6554 203.816 85.1224 203.816 85.1224L205.352 85.6066Z" fill="#4F8BAD"/>
<path d="M197.203 117.174C197.203 117.174 195.967 121.49 192.867 131.892C189.767 142.294 188.683 145.973 188.683 145.973L187.662 145.754C187.662 145.754 187.57 142.337 190.831 131.609C193.923 120.897 195.673 116.845 195.673 116.845L197.203 117.174Z" fill="#FF606F"/>
<path d="M232.172 167.638C232.172 167.638 234.693 163.883 240.519 155.076C246.508 146.254 248.555 143.155 248.555 143.155L249.387 143.69C249.387 143.69 248.328 147.002 242.184 156.145C236.039 165.288 233.343 168.6 233.343 168.6L232.172 167.638Z" fill="#FF606F"/>
<path d="M83.769 142.916C83.769 142.916 86.1592 146.378 91.9547 154.434C97.7543 162.644 99.8007 165.524 99.8007 165.524L98.9975 166.212C98.9975 166.212 96.4876 164.451 90.5162 155.95C84.5448 147.449 82.6461 143.942 82.6461 143.942L83.769 142.916Z" fill="#FF606F"/>
<path d="M129.188 148.794C129.188 148.794 127.838 143.596 124.566 131.215C121.293 118.835 120.136 114.401 120.136 114.401L121.159 113.999C121.159 113.999 123.149 117.421 126.434 130.269C129.892 143.102 130.722 148.19 130.722 148.19L129.188 148.794Z" fill="#FF606F"/>
<path d="M120.005 113.681C120.005 113.681 118.664 108.795 115.764 97.3228C112.689 85.7097 111.713 81.5737 111.713 81.5737L112.735 81.171C112.735 81.171 114.714 84.2804 117.803 96.3614C120.888 108.286 121.709 113.062 121.709 113.062L120.005 113.681Z" fill="#4F8BAD"/>
<path d="M152.809 143.211C152.809 143.211 152.662 138.96 152.312 128.884C151.963 118.809 151.832 115.03 151.832 115.03L152.987 114.949C152.987 114.949 154.247 117.859 154.613 128.407C154.979 138.955 154.736 143.075 154.736 143.075L152.809 143.211Z" fill="#FF606F"/>
<path d="M151.226 115.127C151.226 115.127 151.045 110.087 150.602 97.8007C150.164 85.6721 150.005 81.2617 150.005 81.2617L151.18 81.1822C151.18 81.1822 152.485 84.7256 152.945 97.4842C153.399 110.085 153.184 114.995 153.184 114.995L151.226 115.127Z" fill="#4F8BAD"/>
<path d="M184.889 81.4046C184.889 81.4046 184.33 86.6349 182.739 99.1767C181.326 111.704 180.749 116.307 180.749 116.307L179.678 116.239C179.678 116.239 179.029 112.366 180.606 99.3537C182.183 86.3417 183.107 81.3954 183.107 81.3954L184.889 81.4046Z" fill="#4F8BAD"/>
<path d="M181.89 116.351C181.89 116.351 181.478 120.468 180.173 130.47C179.045 140.457 178.619 144.104 178.619 144.104L177.552 144.036C177.552 144.036 176.93 140.948 178.049 130.648C179.168 120.347 180.115 116.343 180.115 116.343L181.89 116.351Z" fill="#FF606F"/>
<path d="M228.075 81.951C228.075 81.951 225.725 87.4288 220.08 100.329C214.435 113.228 212.397 117.904 212.397 117.904L211.555 117.517C211.555 117.517 212.44 113.258 218.235 99.7252C224.034 86.347 226.727 81.3016 226.727 81.3016L228.075 81.951Z" fill="#4F8BAD"/>
<path d="M213.924 117.927C213.924 117.927 211.885 122.603 207.028 133.883C202.171 145.163 200.448 149.191 200.448 149.191L199.607 148.804C199.607 148.804 200.172 145.038 205.187 133.434C210.202 121.83 212.58 117.432 212.58 117.432L213.924 117.927Z" fill="#FF606F"/>
<path d="M249.576 115.172C249.576 115.172 249.106 115.981 248.005 117.769C246.905 119.557 246.435 120.366 246.435 120.366L245.602 119.831C245.602 119.831 245.083 118.807 246.343 116.852C247.439 114.911 248.244 114.377 248.244 114.377L249.576 115.172Z" fill="#4F8BAD"/>
<path d="M247.489 120.379C247.489 120.379 243.869 126.397 235.052 141.037C226.236 155.676 223.25 160.867 223.25 160.867L222.415 160.331C222.415 160.331 224.257 155.4 233.389 140.27C242.521 125.141 246.318 119.567 246.318 119.567L247.489 120.379Z" fill="#FF606F"/>
<path d="M84.0199 116.094C84.0199 116.094 87.8197 122.371 96.9713 137.401C106.123 152.431 109.404 157.831 109.404 157.831L108.592 158.368C108.592 158.368 105.018 154.383 95.5244 138.923C86.027 123.308 82.7257 117.14 82.7257 117.14L84.0199 116.094Z" fill="#FF606F"/>
<path d="M84.9418 166.349C84.9418 166.349 85.9609 167.784 88.5008 171.065C91.0408 174.346 91.8887 175.49 91.8887 175.49L91.0887 176.177C91.0887 176.177 89.6078 175.856 87.0639 172.422C84.52 168.989 83.8233 167.371 83.8233 167.371L84.9418 166.349Z" fill="#FF606F"/>
<path d="M248.181 169.012C248.181 169.012 247.236 170.164 244.706 172.982C242.34 175.785 241.39 176.785 241.39 176.785L240.721 176.088C240.721 176.088 240.843 174.557 243.368 171.587C245.894 168.617 247.176 167.89 247.176 167.89L248.181 169.012Z" fill="#FF606F"/>
<path d="M140.045 130.862C140.045 130.862 137.987 131.466 133.239 132.87C128.332 134.288 126.593 134.864 126.593 134.864L126.405 133.883C126.405 133.883 127.643 132.495 132.705 130.922C137.768 129.348 139.678 129.185 139.678 129.185L140.045 130.862Z" fill="#FF606F"/>
<path d="M181.768 102.463C181.768 102.463 179.387 102.511 173.833 102.666C168.279 102.821 166.215 102.845 166.215 102.845L166.185 101.909C166.185 101.909 167.902 100.974 173.773 100.794C179.644 100.615 181.721 100.992 181.721 100.992L181.768 102.463Z" fill="#4F8BAD"/>
<path d="M204.798 136.347C204.798 136.347 202.855 135.643 198.163 134.015C193.47 132.388 191.851 131.801 191.851 131.801L192.147 130.897C192.147 130.897 193.898 130.449 198.755 132.208C203.611 133.967 205.242 134.991 205.242 134.991L204.798 136.347Z" fill="#FF606F"/>
<path d="M222.969 129.766C222.969 129.766 221.162 128.585 216.893 125.833C212.623 123.082 211.142 122.02 211.142 122.02L211.762 121.065C211.762 121.065 213.538 121.051 217.968 123.788C222.403 126.673 223.895 128.183 223.895 128.183L222.969 129.766Z" fill="#FF606F"/>
<path d="M243.417 150.051C243.417 150.051 241.927 148.83 238.611 145.967C235.133 143.119 233.97 142.019 233.97 142.019L234.596 141.206C234.596 141.206 236.217 141.207 239.864 144.341C243.346 147.34 244.521 148.891 244.521 148.891L243.417 150.051Z" fill="#FF606F"/>
<path d="M246.129 118.317C246.129 118.317 244.31 116.83 239.854 113.48C235.398 110.131 233.91 108.914 233.91 108.914L234.536 108.104C234.536 108.104 236.48 108.225 241.106 111.86C245.727 115.345 247.231 117.162 247.231 117.162L246.129 118.317Z" fill="#4F8BAD"/>
<path d="M225.206 155.955C225.206 155.955 223.55 154.599 219.737 151.329C215.924 148.059 214.437 146.989 214.437 146.989L215.064 146.176C215.064 146.176 216.85 146.313 220.829 149.718C224.808 153.124 226.144 154.661 226.144 154.661L225.206 155.955Z" fill="#FF606F"/>
<path d="M220.226 96.1905C220.226 96.1905 217.492 95.5663 211.056 93.971C204.624 92.519 202.209 91.867 202.209 91.867L202.499 90.8361C202.499 90.8361 204.723 90.3554 211.478 91.923C218.233 93.4906 220.66 94.5725 220.66 94.5725L220.226 96.1905Z" fill="#4F8BAD"/>
<path d="M178.131 137.781C178.131 137.781 176.375 137.647 171.911 137.457C167.605 137.255 166.008 137.108 166.008 137.108L166.138 136.121C166.138 136.121 167.543 135.169 172.171 135.485C176.639 135.813 178.403 136.225 178.403 136.225L178.131 137.781Z" fill="#FF606F"/>
<path d="M196.686 112.967C196.686 112.967 194.283 112.604 188.667 111.52C183.051 110.436 180.97 110.187 180.97 110.187L181.26 109.168C181.26 109.168 183.154 108.437 189.092 109.636C194.867 110.706 197.123 111.508 197.123 111.508L196.686 112.967Z" fill="#4F8BAD"/>
<path d="M166.218 111.179C166.218 111.179 164.154 111.202 159.079 111.457C153.999 111.578 152.256 111.711 152.256 111.711L152.226 110.773C152.226 110.773 153.785 109.847 159.019 109.58C164.257 109.447 166.175 109.838 166.175 109.838L166.218 111.179Z" fill="#4F8BAD"/>
<path d="M152.136 100.647C152.136 100.647 149.763 101.116 144.228 102.255C138.692 103.394 136.637 103.837 136.637 103.837L136.449 102.886C136.449 102.886 138.004 101.654 143.852 100.352C149.705 99.1865 151.931 99.1442 151.931 99.1442L152.136 100.647Z" fill="#4F8BAD"/>
<path d="M135.088 90.7845C135.088 90.7845 132.4 91.5751 125.762 93.545C119.282 95.5016 116.912 96.2654 116.912 96.2654L116.725 95.2939C116.725 95.2939 118.434 93.7394 125.231 91.7561C132.029 89.7728 134.729 89.4043 134.729 89.4043L135.088 90.7845Z" fill="#4F8BAD"/>
<path d="M122.98 117.051C122.98 117.051 120.45 118.142 114.602 120.684C108.753 123.226 106.698 124.13 106.698 124.13L106.351 123.147C106.351 123.147 107.743 121.432 113.911 118.863C120.075 116.149 122.461 115.649 122.461 115.649L122.98 117.051Z" fill="#FF606F"/>
<path d="M112.774 136.745C112.774 136.745 110.876 138.113 106.448 141.355C102.021 144.596 100.441 145.786 100.441 145.786L99.9346 144.937C99.9346 144.937 100.691 143.077 105.275 139.672C109.859 136.266 111.93 135.33 111.93 135.33L112.774 136.745Z" fill="#FF606F"/>
<path d="M82.599 104.227C82.599 104.227 84.4949 102.863 89.0821 99.7653C93.6653 96.5189 95.2479 95.4814 95.2479 95.4814L95.7536 96.328C95.7536 96.328 94.8373 98.1973 90.0934 101.458C85.3496 104.719 83.4417 105.638 83.4417 105.638L82.599 104.227Z" fill="#4F8BAD"/>
<path d="M106.041 154.644C106.041 154.644 104.618 155.825 100.98 158.711C97.3408 161.597 96.0755 162.614 96.0755 162.614L95.5683 161.76C95.5683 161.76 96.1693 160.055 99.8041 157.02C103.6 153.969 105.196 153.222 105.196 153.222L106.041 154.644Z" fill="#FF606F"/>
<path d="M81.4458 98.4677L81.4778 26.1046L82.9977 26.0096C82.9977 26.0096 83.6853 33.8663 83.7875 60.8768C83.6996 87.8993 82.9657 98.3727 82.9657 98.3727L81.4458 98.4677Z" fill="#4F8BAD"/>
<path d="M83.5609 284.839L83.7433 98.3324L85.2848 98.2394C85.2848 98.2394 86.1075 118.578 86.0231 188.123C85.9388 257.669 85.2887 284.576 85.2887 284.576L83.5609 284.839Z" fill="#FF606F"/>
<path d="M247.701 101.156L251.986 27.039L253.439 27.0959C253.439 27.0959 253.721 35.1208 252.156 62.8329C250.592 90.545 249.334 101.201 249.334 101.201L247.701 101.156Z" fill="#4F8BAD"/>
<path d="M240.531 287.009L251.263 101.185L252.728 101.243C252.728 101.243 252.36 121.623 248.251 190.86C244.33 260.241 241.996 287.067 241.996 287.067L240.531 287.009Z" fill="#FF606F"/>
<path d="M249.528 111.429L342.598 109.872L342.487 111.053C342.487 111.053 332.38 111.805 297.557 112.384C262.893 112.953 249.417 112.609 249.417 112.609L249.528 111.429Z" fill="#FF606F"/>
<path d="M248.894 130.602L341.648 129.063L341.536 130.244C341.536 130.244 331.429 130.997 296.765 131.566C262.101 132.136 248.782 131.783 248.782 131.783L248.894 130.602Z" fill="#FF606F"/>
<path d="M248.122 153.115L340.767 150.02L340.815 151.17C340.815 151.17 330.724 152.143 296.099 153.265C261.474 154.387 248.17 154.265 248.17 154.265L248.122 153.115Z" fill="#FF606F"/>
<path d="M247.15 181.941L339.494 181.367L339.382 182.561C339.382 182.561 329.267 183.201 294.737 183.41C260.207 183.619 247.038 183.135 247.038 183.135L247.15 181.941Z" fill="#FF606F"/>
<path d="M246.576 205.385L338.541 203.89L338.429 205.071C338.429 205.071 328.322 205.825 293.974 206.377C259.625 206.929 246.464 206.567 246.464 206.567L246.576 205.385Z" fill="#FF606F"/>
<path d="M245.704 226.155L337.669 224.658L337.557 225.839C337.557 225.839 327.45 226.593 293.259 227.136C258.911 227.689 245.75 227.326 245.75 227.326L245.704 226.155Z" fill="#FF606F"/>
<path d="M244.638 252.885L336.556 253.066L336.443 254.269C336.443 254.269 326.326 254.921 292.09 254.739C257.859 254.688 244.525 254.087 244.525 254.087L244.638 252.885Z" fill="#FF606F"/>
<path d="M336.189 285.028L244.056 288.623L244.007 287.479C244.007 287.479 254.097 286.521 288.391 285.204C322.842 283.877 335.987 284.02 335.987 284.02L336.189 285.028Z" fill="#FF606F"/>
<path d="M-9.91431 108.447L83.3214 106.996L83.2097 108.178C83.2097 108.178 72.9444 108.943 38.2792 109.518C3.45601 110.102 -9.86286 109.75 -9.86286 109.75L-9.91431 108.447Z" fill="#FF606F"/>
<path d="M-9.34155 126.213L83.6498 123.537L83.6974 124.693C83.6974 124.693 73.5992 125.549 38.8077 126.58C4.01624 127.611 -9.29394 127.369 -9.29394 127.369L-9.34155 126.213Z" fill="#FF606F"/>
<path d="M-8.55143 152.019L84.0448 150.489L83.9332 151.67C83.9332 151.67 73.8262 152.423 39.1619 152.993C4.49755 153.563 -8.82104 153.209 -8.82104 153.209L-8.55143 152.019Z" fill="#FF606F"/>
<path d="M-8.72876 170.318L83.9977 166.157L84.0475 167.297C84.0475 167.297 73.9646 168.367 39.3698 169.917C4.77502 171.468 -8.52106 171.448 -8.52106 171.448L-8.72876 170.318Z" fill="#FF606F"/>
<path d="M-7.56318 188.038L84.0864 186.559L83.9747 187.741C83.9747 187.741 73.8675 188.495 39.6767 189.039C5.48589 189.582 -7.67485 189.22 -7.67485 189.22L-7.56318 188.038Z" fill="#FF606F"/>
<path d="M-6.92798 207.308L84.4061 205.846L84.4524 207.018C84.4524 207.018 74.5032 207.763 40.3122 208.308C6.27916 208.843 -6.88166 208.48 -6.88166 208.48L-6.92798 207.308Z" fill="#FF606F"/>
<path d="M-6.28643 229.397L85.1916 225.522L85.2411 226.663C85.2411 226.663 75.31 227.603 41.0296 229.15C6.9016 230.562 -6.39484 230.547 -6.39484 230.547L-6.28643 229.397Z" fill="#FF606F"/>
<path d="M-5.50483 255.33L85.8291 253.869L85.7174 255.05C85.7174 255.05 75.7682 255.795 41.5773 256.339C7.54428 256.874 -5.61651 256.511 -5.61651 256.511L-5.50483 255.33Z" fill="#FF606F"/>
<path d="M-4.93164 273.056L86.3008 270.142L86.3487 271.295C86.3487 271.295 76.4145 272.263 42.2569 273.24C8.26258 274.336 -4.8837 274.208 -4.8837 274.208L-4.93164 273.056Z" fill="#FF606F"/>
<path d="M-4.39795 290.742L86.2259 290.508L86.1132 291.706C86.1132 291.706 76.1553 292.342 42.4071 292.382C8.659 292.422 -4.35259 291.93 -4.35259 291.93L-4.39795 290.742Z" fill="#FF606F"/>
<path d="M266.385 101.379L266.916 85.6006L268.313 85.497C268.313 85.497 268.893 87.1853 268.735 93.0207C268.577 98.856 267.777 101.119 267.777 101.119L266.385 101.379Z" fill="#4F8BAD"/>
<path d="M266.325 111.195L266.53 101.443L267.896 101.338C267.896 101.338 268.613 102.382 268.386 106.012C268.33 109.628 267.52 111.103 267.52 111.103L266.325 111.195Z" fill="#FF606F"/>
<path d="M269.763 153.085L268.264 130.952L269.708 130.851C269.708 130.851 270.513 133.161 271.166 141.474C271.638 149.8 271.207 152.985 271.207 152.985L269.763 153.085Z" fill="#FF606F"/>
<path d="M295.186 206.738L297.381 183.291L298.774 183.344C298.774 183.344 299.209 185.986 298.448 194.695C297.688 203.404 296.58 206.791 296.58 206.791L295.186 206.738Z" fill="#FF606F"/>
<path d="M295.469 131.422L297.413 111.147L298.8 111.2C298.8 111.2 299.222 113.527 298.596 120.965C297.803 128.573 296.857 131.474 296.857 131.474L295.469 131.422Z" fill="#FF606F"/>
<path d="M291.341 181.927L293.691 151.993L295.102 152.047C295.102 152.047 295.563 155.32 294.705 166.564C293.846 177.807 292.752 181.981 292.752 181.981L291.341 181.927Z" fill="#FF606F"/>
<path d="M270.433 226.157L270.982 205.634L272.4 205.532C272.4 205.532 273.006 207.694 272.912 215.421C272.635 223.004 271.85 226.054 271.85 226.054L270.433 226.157Z" fill="#FF606F"/>
<path d="M289.444 254.164L290.281 226.354L291.717 226.253C291.717 226.253 292.359 229.204 292 239.636C291.642 250.068 290.88 254.063 290.88 254.063L289.444 254.164Z" fill="#FF606F"/>
<path d="M268.796 287.3L267.676 252.94L269.18 252.843C269.18 252.843 270.076 256.577 270.562 269.339C271.048 282.102 270.488 287.192 270.488 287.192L268.796 287.3Z" fill="#FF606F"/>
<path d="M39.2147 188.38L38.9263 169.638L40.3609 169.537C40.3609 169.537 41.1489 171.531 41.2142 178.621C41.2796 185.712 40.6547 188.436 40.6547 188.436L39.2147 188.38Z" fill="#FF606F"/>
<path d="M42.933 229.011L42.7246 207.575L44.1699 207.474C44.1699 207.474 44.9754 209.784 44.8899 217.676C44.9907 225.713 44.1922 228.765 44.1922 228.765L42.933 229.011Z" fill="#FF606F"/>
<path d="M31.5348 272.765L31.3125 255.761L32.7355 255.659C32.7355 255.659 33.5112 257.494 33.5474 263.795C33.5836 270.097 32.9578 272.663 32.9578 272.663L31.5348 272.765Z" fill="#FF606F"/>
<path d="M27.8355 208.241L27.684 188.229L29.1168 188.128C29.1168 188.128 29.9091 190.279 29.9849 197.683C30.0607 205.088 29.4474 208.127 29.4474 208.127L27.8355 208.241Z" fill="#FF606F"/>
<path d="M56.1456 291.639L56.7165 271.748L58.1305 271.646C58.1305 271.646 58.7348 273.807 58.6299 281.219C58.3482 288.643 57.5596 291.536 57.5596 291.536L56.1456 291.639Z" fill="#FF606F"/>
<path d="M61.6559 255.764L63.8621 226.784L65.2735 226.838C65.2735 226.838 65.7297 229.954 64.8604 240.884C63.9859 251.656 63.0673 255.818 63.0673 255.818L61.6559 255.764Z" fill="#FF606F"/>
<path d="M26.4989 322.52L24.9312 290.722L26.425 290.625C26.425 290.625 27.302 294.042 27.9322 305.845C28.5623 317.648 27.9927 322.422 27.9927 322.422L26.4989 322.52Z" fill="#FF606F"/>
<path d="M75.1108 322.811L76.017 291.836L77.4593 291.735C77.4593 291.735 78.121 295.159 77.801 306.694C77.4809 318.229 76.5531 322.71 76.5531 322.71L75.1108 322.811Z" fill="#FF606F"/>
<path d="M70.6583 207.707L71.5757 187.64L72.9873 187.694C72.9873 187.694 73.5881 189.855 73.1309 197.29C72.6737 204.725 71.8889 207.617 71.8889 207.617L70.6583 207.707Z" fill="#FF606F"/>
<path d="M28.0558 152.338L25.1853 126.214L26.6106 125.956C26.6106 125.956 27.6022 128.723 28.6529 138.422C29.7035 148.122 29.3022 152.091 29.3022 152.091L28.0558 152.338Z" fill="#FF606F"/>
<path d="M68.3534 98.1913L67.8779 84.0479L69.2912 83.9453C69.2912 83.9453 70.0507 85.4655 70.2251 90.6514C70.4047 95.9945 69.7667 98.0888 69.7667 98.0888L68.3534 98.1913Z" fill="#4F8BAD"/>
<path d="M68.9253 108.923L68.5791 98.2539L69.9643 98.1497C69.9643 98.1497 70.6925 99.1959 70.8249 103.275C70.9521 107.198 70.3105 108.819 70.3105 108.819L68.9253 108.923Z" fill="#FF606F"/>
<path d="M64.4699 167.358L64.8518 152.376L66.2498 152.273C66.2498 152.273 66.8311 153.961 66.6628 159.483C66.4945 165.005 65.6932 167.268 65.6932 167.268L64.4699 167.358Z" fill="#FF606F"/>
<path d="M35.2232 127.035L35.6704 108.73L37.0822 108.627C37.0822 108.627 37.6802 110.632 37.554 117.414C37.4278 124.197 36.635 126.932 36.635 126.932L35.2232 127.035Z" fill="#FF606F"/>
<path d="M293.322 285.964L291.136 303.406L289.766 303.354C289.766 303.354 289.36 301.344 290.18 294.843C291.001 288.341 291.951 285.913 291.951 285.913L293.322 285.964Z" fill="#FF606F"/>
<path d="M103.603 323.459C103.603 323.459 103.385 317.629 102.867 303.763C102.349 289.897 102.161 284.854 102.161 284.854L103.341 284.777C103.341 284.777 104.681 288.955 105.217 303.293C105.758 317.79 105.571 323.33 105.571 323.33L103.603 323.459Z" fill="#FF606F"/>
<path d="M121.746 323.509C121.746 323.509 121.73 317.669 121.425 303.795C121.12 289.922 121.132 284.869 121.132 284.869L122.296 284.79C122.296 284.79 123.613 288.964 123.741 303.323C124.063 317.668 123.486 323.233 123.486 323.233L121.746 323.509Z" fill="#FF606F"/>
<path d="M138.339 323.473C138.339 323.473 138.708 317.776 139.73 303.842C140.757 290.064 141.15 285.152 141.15 285.152L142.247 285.225C142.247 285.225 143.108 289.409 141.914 303.672C140.901 317.921 139.982 323.503 139.982 323.503L138.339 323.473Z" fill="#FF606F"/>
<path d="M158.093 323.61C158.093 323.61 158.082 317.772 158.179 304.036C158.276 290.3 158.292 285.249 158.292 285.249L159.439 285.168C159.439 285.168 160.542 289.352 160.461 303.56C160.386 317.926 159.808 323.332 159.808 323.332L158.093 323.61Z" fill="#FF606F"/>
<path d="M192.173 323.986C192.173 323.986 192.163 318.303 191.865 304.588C191.568 290.872 191.586 285.977 191.586 285.977L192.748 285.898C192.748 285.898 194.057 289.913 194.179 304.114C194.493 318.302 193.916 323.867 193.916 323.867L192.173 323.986Z" fill="#FF606F"/>
<path d="M209.255 323.932C209.255 323.932 209.239 318.092 208.94 304.376C208.836 290.647 208.654 285.608 208.654 285.608L209.817 285.529C209.817 285.529 211.133 289.702 211.255 303.903C211.382 318.262 210.999 323.814 210.999 323.814L209.255 323.932Z" fill="#FF606F"/>
<path d="M225.853 324.055C225.853 324.055 226.217 318.201 227.244 304.423C228.267 290.488 228.66 285.576 228.66 285.576L229.758 285.648C229.758 285.648 230.62 289.832 229.43 304.253C228.422 318.66 227.502 324.242 227.502 324.242L225.853 324.055Z" fill="#FF606F"/>
<path d="M173.97 324.717C173.97 324.717 174.513 318.852 175.708 304.751C176.902 290.65 177.294 285.74 177.294 285.74L178.384 285.812C178.384 285.812 179.062 290.165 177.877 304.58C176.698 319.152 175.602 324.746 175.602 324.746L173.97 324.717Z" fill="#FF606F"/>
<path d="M243.592 297.189L228.206 297.669L228.325 296.453C228.325 296.453 230.05 295.788 235.761 295.629C241.472 295.469 243.712 295.972 243.712 295.972L243.592 297.189Z" fill="#FF606F"/>
<path d="M85.53 322.612C85.53 322.612 85.5051 316.929 85.5592 303.346C85.6133 289.763 85.4318 284.88 85.4318 284.88L86.5474 284.807C86.5474 284.807 87.6294 288.842 87.7788 302.885C87.7423 316.94 87.3836 322.332 87.3836 322.332L85.53 322.612Z" fill="#FF606F"/>
<path d="M241.652 323.439C241.652 323.439 241.82 317.907 242.446 304.772C243.072 291.638 243.268 286.893 243.268 286.893L244.351 286.817C244.351 286.817 245.216 290.858 244.606 304.464C243.997 318.07 243.276 323.325 243.276 323.325L241.652 323.439Z" fill="#FF606F"/>
<path d="M244.04 285.52L86.0728 288.063L86.1585 286.233C86.1585 286.233 103.375 285.044 162.418 284.151C221.302 283.268 244.126 283.689 244.126 283.689L244.04 285.52Z" fill="#FF606F"/>
<path d="M159.383 276.179C235.908 275.525 232.365 208.609 229.767 207.362C227.011 206.124 214.268 221.365 214.268 221.365C214.268 221.365 218.783 187.923 211.493 192.561C203.74 197.539 185.683 219.015 185.683 219.015C185.683 219.015 188.196 206.561 180.201 209.528C175.965 211.026 158.892 229.328 158.892 229.328C158.892 229.328 146.249 200.488 131.228 195.15C119.282 191.032 129.108 232.655 129.108 232.655C129.108 232.655 111.792 210.167 105.791 211.302C101.523 212.023 99.0844 276.647 159.383 276.179Z" fill="#FF606F"/>
<path d="M-40.6902 48.0352L374.418 45.9258C374.418 45.9258 346.096 57.8627 343.983 82.6479L-11.4224 84.3261C-14.4739 61.0326 -40.6902 48.0352 -40.6902 48.0352Z" fill="#C3C3C3"/>
<path d="M350.459 65.5215C350.459 65.5215 294.914 66.1539 161.976 67.4607C29.0447 68.9026 -18.7501 69.3586 -18.7501 69.3586L-18.79 68.4126C-18.79 68.4126 21.5244 67.0337 159.364 65.5794C297.203 64.1251 350.396 64.0349 350.396 64.0349L350.459 65.5215Z" fill="#FFFCF2"/>
<path d="M-72.1162 -8.12842L405.845 -12.9189C405.845 -12.9189 366.922 -0.892317 364.803 23.6021L-32.2928 26.7577C-35.3437 3.59813 -72.1162 -8.12842 -72.1162 -8.12842Z" fill="#C3C3C3"/>
<path d="M-40.8632 46.3328L-42.5728 28.7832L375.797 25.4854L374.07 44.1111L-40.8632 46.3328Z" fill="#C3C3C3"/>
<path d="M14.8747 45.2272L18.5309 64.3379L24.537 64.1539L29.7327 64.0363L29.1698 45.1343L30.1422 45.0546C30.1422 45.0546 30.3364 46.1171 30.59 49.1773C30.7978 50.7007 30.8573 52.6985 31.0972 55.2977C31.1384 56.6808 31.1796 58.0639 31.3875 59.5873C31.4103 60.3557 31.4378 61.2777 31.4607 62.0461C31.4973 63.2755 31.5339 64.5049 31.5751 65.888C29.9543 66.0208 27.5185 66.0663 24.7586 66.1384C21.0262 66.2901 17.7755 66.2484 16.803 66.328C16.0357 62.3856 15.4441 58.8909 15.0376 56.1513C14.6356 53.5654 14.252 51.5942 14.0396 49.9171C13.4572 46.7298 13.4206 45.5004 13.4206 45.5004L14.8747 45.2272Z" fill="#FFFCF2"/>
<path d="M110.145 45.9152L111.683 64.8743L117.846 64.6772L123.038 64.5596L125.714 45.409L126.69 45.4829C126.69 45.4829 126.727 46.7112 126.494 49.8085C126.378 51.3572 126.276 53.3664 126.029 56.0031C125.904 57.2447 125.788 58.7934 125.51 60.3553C125.371 61.1362 125.236 62.0707 125.259 62.8384C125.134 64.08 125.004 65.168 124.721 66.5764C123.264 66.6959 120.83 66.7414 118.234 66.8002C114.343 66.9651 110.933 66.9367 109.961 67.0163C109.676 62.8841 109.413 59.5195 109.169 56.7691C109.092 54.1589 108.87 52.1762 108.824 50.6408C108.728 47.4165 108.692 46.1882 108.692 46.1882L110.145 45.9152Z" fill="#FFFCF2"/>
<path d="M210.838 46.5894L210.267 65.554L216.426 65.3569L221.452 65.2526L225.098 46.036L226.078 46.2633C226.078 46.2633 226.114 47.4907 225.72 50.5991C225.604 52.1466 225.178 54.181 224.77 56.8291C224.483 58.083 224.367 59.6306 224.089 61.1914C223.95 61.9718 223.815 62.9057 223.676 63.6861C223.547 64.7733 223.259 66.0273 222.972 67.2813C221.516 67.4006 219.246 67.4329 216.652 67.4916C212.763 67.6565 209.193 67.6414 208.222 67.721C208.32 65.5597 208.418 63.3984 208.363 61.5573C208.479 60.0097 208.438 58.6289 208.559 57.2347C208.643 54.6132 208.746 52.6053 208.862 51.0578C209.094 47.9627 209.215 46.5685 209.215 46.5685L210.838 46.5894Z" fill="#FFFCF2"/>
<path d="M307.275 47.3578L303.636 66.1674L309.931 65.9583L314.775 65.8679L321.63 46.4894L322.61 46.8681C322.61 46.8681 322.325 48.1154 321.448 51.2469C321.01 52.8126 320.425 54.8494 319.535 57.523C319.088 58.7835 318.65 60.3492 318.051 61.9281C317.751 62.7176 317.456 63.6597 317.157 64.4491C316.705 65.557 316.414 66.6517 315.967 67.9122C314.678 68.0177 312.417 68.0497 310.156 68.0817C305.956 68.1194 302.405 68.2569 301.277 68.3492C301.692 66.0204 302.117 63.9968 302.541 61.9732C302.818 60.4207 303.099 59.0207 303.385 57.7734C303.957 55.2788 304.381 53.2552 304.654 51.55C305.369 48.4318 305.655 47.1845 305.655 47.1845L307.275 47.3578Z" fill="#FFFCF2"/>
<path d="M-42.627 28.1206L375.579 22.7435L375.631 23.957C375.631 23.957 329.925 25.0964 173.754 27.1765C17.5822 29.2566 -42.5754 29.3341 -42.5754 29.3341L-42.627 28.1206Z" fill="#FFFCF2"/>
<path d="M109.267 248.821L85.3215 249.392L85.4124 247.444C85.4124 247.444 88.075 246.425 96.9557 246.218C105.836 246.011 109.358 246.873 109.358 246.873L109.267 248.821Z" fill="#FF606F"/>
<path d="M221.81 249.029L109.245 250.973L109.306 248.463C109.306 248.463 121.608 247.028 163.723 246.354C205.838 245.681 222.035 246.64 222.035 246.64L221.81 249.029Z" fill="#2D3962"/>
<path d="M245.68 249.675L221.734 250.246L221.825 248.297C221.825 248.297 224.488 247.278 233.369 247.071C242.25 246.863 245.613 247.737 245.613 247.737L245.68 249.675Z" fill="#FF606F"/>
<path d="M116.138 256.975L113.898 256.987L115.166 237.556L117.406 237.544L116.138 256.975Z" fill="#2D3962"/>
<path d="M115.198 284.225L112.757 284.249L114.476 257.052L116.744 257.042L115.198 284.225Z" fill="#FF606F"/>
<path d="M144.875 276.806L143.186 237.895L145.629 237.582L147.323 276.651L144.875 276.806Z" fill="#2D3962"/>
<path d="M145.51 284.543L145.272 276.885L147.456 276.714L147.858 284.203L145.51 284.543Z" fill="#FF606F"/>
<path d="M176.139 277.093L173.879 276.791L178.153 237.94L180.408 238.086L176.139 277.093Z" fill="#2D3962"/>
<path d="M175.992 284.712L173.82 284.416L174.587 276.859L176.758 277.154L175.992 284.712Z" fill="#FF606F"/>
<path d="M205.657 264.948L205.986 238.132L208.476 238.112L208.147 264.928L205.657 264.948Z" fill="#2D3962"/>
<path d="M205.937 284.872L206.153 265.018L208.607 264.995L208.386 284.692L205.937 284.872Z" fill="#FF606F"/>
<path d="M115.82 243.998L121.711 236.25L117.022 227.366L111.476 235.715L115.82 243.998Z" fill="#2D3962"/>
<path d="M143.919 242.902L150.074 233.417L143.746 224.023L138.421 234.074L143.919 242.902Z" fill="#2D3962"/>
<path d="M178.092 243.312L184.977 236.118L181.063 226.242L174.53 234.192L178.092 243.312Z" fill="#2D3962"/>
<path d="M206.633 244.399L213.128 235.359L207.268 225.464L201.448 235.237L206.633 244.399Z" fill="#2D3962"/>
<path d="M177.029 184.688C177.304 187.809 177.103 191.433 176.243 195.103C175.384 198.773 173.855 202.176 171.97 204.818C170.255 207.605 168.348 209.62 166.906 210.819C166.271 211.491 165.63 212.006 165.147 212.353C164.665 212.701 164.506 212.869 164.506 212.869C164.506 212.869 164.659 212.544 164.977 212.208C165.29 211.716 165.596 211.066 166.062 210.249C166.993 208.615 168.062 206.187 168.954 203.456C169.847 200.726 170.394 197.548 170.454 194.561C170.677 191.563 170.413 188.756 170.16 186.261C169.963 185.333 169.93 184.393 169.902 183.61C169.874 182.827 169.682 182.056 169.66 181.429C169.446 180.031 169.571 178.923 169.538 177.984C169.636 176.093 170.097 175.12 171.067 174.582C171.878 174.212 173.046 174.602 174.252 176.088C174.773 176.837 175.306 177.9 175.854 179.431C176.397 180.807 176.787 182.507 177.029 184.688Z" fill="#FF606F"/>
<path d="M200.155 187.839C199.689 188.338 199.062 188.848 198.435 189.358C197.808 189.868 197.186 190.533 196.559 191.044C195.31 192.219 194.071 193.704 192.983 194.868C192.361 195.533 191.9 196.187 191.434 196.686C190.973 197.34 190.507 197.839 190.201 198.326C189.59 199.301 189.124 199.8 189.124 199.8C189.124 199.8 189.263 199.169 189.547 198.062C189.686 197.431 189.826 196.799 189.96 196.013C190.094 195.227 190.388 194.43 190.683 193.632C191.852 190.133 194.13 186.089 196.628 183.738C197.566 182.895 198.509 182.207 199.303 181.841C200.096 181.474 200.734 181.274 201.372 181.074C202.498 180.994 203.152 181.259 203.339 182.022C203.688 182.774 203.554 183.561 202.943 184.536C202.637 185.023 202.332 185.511 201.865 186.01C201.404 186.663 200.777 187.174 200.155 187.839Z" fill="#FF606F"/>
<path d="M145.731 182.794C145.821 185.305 145.618 188.937 145.725 191.918C145.776 193.331 145.993 194.732 146.027 195.674C146.227 196.604 146.249 197.232 146.249 197.232C146.249 197.232 145.9 196.783 145.206 196.044C144.678 195.293 143.806 194.251 143.09 192.884C141.657 190.15 140.517 186.294 140.41 183.313C140.247 178.761 141.855 177.079 143.198 177.302C144.879 177.66 145.768 179.173 145.731 182.794Z" fill="#FF606F"/>
<path d="M120.151 191.519C119.572 194.077 119.212 198.037 119.499 201.324C119.619 204.622 120.05 207.269 120.05 207.269C120.05 207.269 118.799 205.15 117.842 201.908C116.724 198.835 116.063 194.471 116.78 191.116C117.192 188.57 118.306 186.92 119.115 186.079C119.924 185.237 120.593 185.192 120.945 185.64C121.291 185.932 121.481 186.549 121.181 187.514C121.047 188.467 120.585 189.6 120.151 191.519Z" fill="#FF606F"/>
<path d="M228.096 195.15C227.82 196.577 227.387 198.171 226.624 199.632C225.86 201.093 224.934 202.565 223.997 203.726C223.06 204.886 221.944 205.59 221.311 206.103C220.509 206.472 220.033 206.818 220.033 206.818C220.033 206.818 220.341 206.328 220.969 205.658C221.435 205 222.047 203.862 222.659 202.725C223.103 201.442 223.709 200.149 223.986 198.722C224.262 197.295 224.538 195.868 224.825 194.753C225.512 191.108 226.118 189.814 227.093 189.746C227.738 189.544 228.61 191.204 228.096 195.15Z" fill="#FF606F"/>
<path d="M189.072 170.546C190.004 173.159 189.984 177.253 188.922 180.315C188.616 181.123 188.472 181.762 188.154 182.256C187.843 182.906 187.693 183.389 187.37 183.725C186.897 184.544 186.579 185.038 186.579 185.038C186.579 185.038 186.724 184.399 186.863 183.602C187.013 183.12 186.996 182.649 187.14 182.01C187.129 181.695 187.117 181.381 187.273 181.056C187.262 180.742 187.251 180.428 187.239 180.114C187.31 177.433 186.528 174.338 185.941 172.017C185.378 170.323 184.998 169.09 184.97 168.305C184.941 167.52 185.086 166.88 185.409 166.544C185.732 166.207 186.406 166.319 187.097 166.902C187.788 167.485 188.502 168.696 189.072 170.546Z" fill="#FF606F"/>
<path d="M156.592 203.014C156.682 205.524 156.639 208.986 157.232 211.619C157.42 212.235 157.609 212.851 157.631 213.478C157.819 214.094 158.002 214.554 158.179 214.856C158.539 215.618 158.888 216.066 158.888 216.066C158.888 216.066 158.379 215.786 157.693 215.204C157.35 214.913 157.001 214.465 156.652 214.017C156.304 213.569 155.784 212.976 155.595 212.359C154.173 209.783 153.215 206.232 153.114 203.409C152.962 199.174 153.907 197.694 154.908 197.783C155.909 197.872 156.463 199.406 156.592 203.014Z" fill="#FF606F"/>
<path d="M-40.7444 47.1157L374.045 42.8039L374.096 44.0207C374.096 44.0207 328.705 45.1523 173.931 46.7754C19.1569 48.3986 -40.693 48.3325 -40.693 48.3325L-40.7444 47.1157Z" fill="#FFFCF2"/>
</g>
<g clip-path="url(#clip0)">
<path d="M84.5 131.879L42.7 99.6792C42.7 99.6792 5.60001 202.679 4.20001 225.979C2.80001 249.279 19.5 306.879 39.5 302.679C59.5 298.479 44.9 246.379 47.9 235.879C54.9 210.579 84.5 131.879 84.5 131.879Z" fill="#72BAD1"/>
<path d="M71.3001 189.579L70.6001 188.379L71.7001 187.779C71.7001 187.779 72.3001 187.579 72.6001 188.079C72.8001 188.579 72.4001 188.979 72.4001 188.979L71.3001 189.579Z" fill="#FFFCF2"/>
<path d="M68.3001 183.979L67.6001 182.779L68.7001 182.179C68.7001 182.179 69.3001 181.979 69.6001 182.479C69.8001 182.979 69.4001 183.379 69.4001 183.379L68.3001 183.979Z" fill="#FFFCF2"/>
<path d="M65.3001 178.379L64.6001 177.179L65.7001 176.579C65.7001 176.579 66.3001 176.379 66.6001 176.879C66.9001 177.379 66.4001 177.779 66.4001 177.779L65.3001 178.379Z" fill="#FFFCF2"/>
<path d="M62.2 172.779L61.5 171.579L62.6 170.979C62.6 170.979 63.2 170.779 63.5 171.279C63.7 171.779 63.3 172.179 63.3 172.179L62.2 172.779Z" fill="#FFFCF2"/>
<path d="M59.2 167.179L58.5 165.979L59.6 165.379C59.6 165.379 60.2 165.179 60.5 165.679C60.8 166.179 60.3 166.579 60.3 166.579L59.2 167.179Z" fill="#FFFCF2"/>
<path d="M56.2 161.579L55.5 160.379L56.6 159.779C56.6 159.779 57.2 159.579 57.5 160.079C57.7 160.579 57.3 160.979 57.3 160.979L56.2 161.579Z" fill="#FFFCF2"/>
<path d="M53.2 155.979L52.5 154.779L53.6 154.179C53.6 154.179 54.2 153.979 54.5 154.479C54.8 154.979 54.3 155.379 54.3 155.379L53.2 155.979Z" fill="#FFFCF2"/>
<path d="M50.2 150.379L49.5 149.179L50.6 148.579C50.6 148.579 51.2 148.379 51.5 148.879C51.7 149.379 51.3 149.779 51.3 149.779L50.2 150.379Z" fill="#FFFCF2"/>
<path d="M47.2 144.779L46.5 143.579L47.6 142.979C47.6 142.979 48.2 142.779 48.5 143.279C48.8 143.779 48.3 144.179 48.3 144.179L47.2 144.779Z" fill="#FFFCF2"/>
<path d="M44.2 139.179L43.5 137.879L44.6 137.279C44.6 137.279 45.2 137.079 45.5 137.579C45.8 138.079 45.3 138.479 45.3 138.479L44.2 139.179Z" fill="#FFFCF2"/>
<path d="M41.2 133.579L40.5 132.379L41.6 131.779C41.6 131.779 42.2 131.579 42.5 132.079C42.7 132.579 42.3 132.979 42.3 132.979L41.2 133.579Z" fill="#FFFCF2"/>
<path d="M38.2 127.979L37.5 126.779L38.6 126.179C38.6 126.179 39.2 125.979 39.5 126.479C39.7 126.979 39.3 127.379 39.3 127.379L38.2 127.979Z" fill="#FFFCF2"/>
<path d="M35.2 122.379L34.5 121.179L35.6 120.579C35.6 120.579 36.2 120.379 36.5 120.879C36.7 121.379 36.3 121.779 36.3 121.779L35.2 122.379Z" fill="#FFFCF2"/>
<path d="M90.1999 135.379L88.7999 135.779L88.3999 134.579C88.3999 134.579 88.3999 133.979 88.8999 133.779C89.3999 133.579 89.7999 134.179 89.7999 134.179L90.1999 135.379Z" fill="#FFFCF2"/>
<path d="M84.0998 137.179L82.6998 137.579L82.2998 136.379C82.2998 136.379 82.2998 135.779 82.7998 135.579C83.2998 135.379 83.6998 135.979 83.6998 135.979L84.0998 137.179Z" fill="#FFFCF2"/>
<path d="M78 139.079L76.6 139.479L76.2 138.279C76.2 138.279 76.2 137.679 76.7 137.479C77.2 137.279 77.6 137.879 77.6 137.879L78 139.079Z" fill="#FFFCF2"/>
<path d="M71.8999 140.879L70.4999 141.279L70.0999 140.079C70.0999 140.079 70.0999 139.479 70.5999 139.279C71.0999 139.079 71.4999 139.679 71.4999 139.679L71.8999 140.879Z" fill="#FFFCF2"/>
<path d="M65.8 142.779L64.4 143.179L64 141.979C64 141.979 64 141.379 64.5 141.179C65 140.979 65.4 141.579 65.4 141.579L65.8 142.779Z" fill="#FFFCF2"/>
<path d="M59.8 144.579L58.4 144.979L58 143.779C58 143.779 58 143.179 58.5 142.979C59 142.779 59.4 143.379 59.4 143.379L59.8 144.579Z" fill="#FFFCF2"/>
<path d="M53.7 146.479L52.3 146.879L52 145.679C52 145.679 52 145.079 52.5 144.879C53 144.679 53.4 145.279 53.4 145.279L53.7 146.479Z" fill="#FFFCF2"/>
<path d="M47.5998 148.379L46.1998 148.779L45.7998 147.579C45.7998 147.579 45.7998 146.979 46.2998 146.779C46.7998 146.579 47.1998 147.179 47.1998 147.179L47.5998 148.379Z" fill="#FFFCF2"/>
<path d="M41.5 150.179L40.0999 150.579L39.7 149.379C39.7 149.379 39.7 148.779 40.2 148.579C40.7 148.379 41.0999 148.979 41.0999 148.979L41.5 150.179Z" fill="#FFFCF2"/>
<path d="M35.3999 152.079L33.9999 152.479L33.5999 151.279C33.5999 151.279 33.5999 150.679 34.0999 150.479C34.6999 150.279 34.9999 150.879 34.9999 150.879L35.3999 152.079Z" fill="#FFFCF2"/>
<path d="M29.2999 153.879L27.9999 154.279L27.5999 153.079C27.5999 153.079 27.5999 152.479 28.0999 152.279C28.5999 152.079 28.9999 152.679 28.9999 152.679L29.2999 153.879Z" fill="#FFFCF2"/>
<path d="M23.1999 155.779L21.7999 156.179L21.3999 154.979C21.3999 154.979 21.3999 154.379 21.8999 154.179C22.3999 153.979 22.7999 154.579 22.7999 154.579L23.1999 155.779Z" fill="#FFFCF2"/>
<path d="M79.2 178.279L77.8 178.679L77.5 177.479C77.5 177.479 77.5 176.879 78 176.679C78.5 176.579 78.9 177.079 78.9 177.079L79.2 178.279Z" fill="#FFFCF2"/>
<path d="M73.0999 179.979L71.6999 180.379L71.3999 179.179C71.3999 179.179 71.3999 178.579 71.8999 178.379C72.3999 178.279 72.7999 178.779 72.7999 178.779L73.0999 179.979Z" fill="#FFFCF2"/>
<path d="M66.9 181.679L65.5 182.079L65.2 180.879C65.2 180.879 65.2 180.279 65.7 180.079C66.2 179.979 66.6 180.479 66.6 180.479L66.9 181.679Z" fill="#FFFCF2"/>
<path d="M60.8001 183.279L59.4001 183.679L59.1001 182.479C59.1001 182.479 59.1001 181.879 59.6001 181.679C60.1001 181.579 60.5001 182.079 60.5001 182.079L60.8001 183.279Z" fill="#FFFCF2"/>
<path d="M54.5999 184.979L53.1999 185.379L52.8999 184.179C52.8999 184.179 52.8999 183.579 53.3999 183.379C53.8999 183.279 54.2999 183.779 54.2999 183.779L54.5999 184.979Z" fill="#FFFCF2"/>
<path d="M48.5 186.679L47.1 187.079L46.8 185.879C46.8 185.879 46.8 185.279 47.3 185.079C47.8 184.979 48.2001 185.479 48.2001 185.479L48.5 186.679Z" fill="#FFFCF2"/>
<path d="M42.4 188.279L41 188.679L40.7 187.479C40.7 187.479 40.7 186.879 41.2 186.679C41.7 186.579 42.0999 187.079 42.0999 187.079L42.4 188.279Z" fill="#FFFCF2"/>
<path d="M36.2 189.979L34.8 190.379L34.5 189.179C34.5 189.179 34.5 188.579 35 188.379C35.5 188.279 35.9 188.779 35.9 188.779L36.2 189.979Z" fill="#FFFCF2"/>
<path d="M30.0999 191.679L28.6999 192.079L28.3999 190.879C28.3999 190.879 28.3999 190.279 28.8999 190.079C29.3999 189.979 29.7999 190.479 29.7999 190.479L30.0999 191.679Z" fill="#FFFCF2"/>
<path d="M23.9 193.379L22.5 193.779L22.2 192.579C22.2 192.579 22.2 191.979 22.7 191.779C23.2 191.679 23.6 192.179 23.6 192.179L23.9 193.379Z" fill="#FFFCF2"/>
<path d="M17.8001 194.979L16.4001 195.379L16.1001 194.179C16.1001 194.179 16.1001 193.579 16.6001 193.379C17.1001 193.279 17.5001 193.779 17.5001 193.779L17.8001 194.979Z" fill="#FFFCF2"/>
<path d="M11.5999 196.679L10.1999 197.079L9.8999 195.879C9.8999 195.879 9.8999 195.279 10.3999 195.079C10.8999 194.979 11.2999 195.479 11.2999 195.479L11.5999 196.679Z" fill="#FFFCF2"/>
<path d="M5.49998 198.379L4.39998 198.679L4.09998 197.479C4.09998 197.479 3.99998 196.879 4.39998 196.779C4.79998 196.679 5.09998 197.279 5.09998 197.279L5.49998 198.379Z" fill="#FFFCF2"/>
<path d="M56.9 220.779L55.5 221.179L55.2 219.979C55.2 219.979 55.2 219.379 55.7 219.179C56.2 219.079 56.5999 219.579 56.5999 219.579L56.9 220.779Z" fill="#FFFCF2"/>
<path d="M50.8001 222.479L49.4001 222.879L49.1001 221.679C49.1001 221.679 49.1001 221.079 49.6001 220.879C50.1001 220.779 50.5001 221.279 50.5001 221.279L50.8001 222.479Z" fill="#FFFCF2"/>
<path d="M44.7 224.179L43.3 224.579L43 223.379C43 223.379 43 222.779 43.5 222.579C44 222.479 44.4 222.979 44.4 222.979L44.7 224.179Z" fill="#FFFCF2"/>
<path d="M38.5 225.879L37.1 226.279L36.8 225.079C36.8 225.079 36.8 224.479 37.3 224.279C37.8 224.179 38.2001 224.679 38.2001 224.679L38.5 225.879Z" fill="#FFFCF2"/>
<path d="M32.4 227.479L31 227.879L30.7 226.679C30.7 226.679 30.7 226.079 31.2 225.879C31.7 225.779 32.0999 226.279 32.0999 226.279L32.4 227.479Z" fill="#FFFCF2"/>
<path d="M26.3001 229.179L24.9001 229.579L24.6001 228.379C24.6001 228.379 24.6001 227.779 25.1001 227.579C25.6001 227.479 26.0001 227.979 26.0001 227.979L26.3001 229.179Z" fill="#FFFCF2"/>
<path d="M20.0999 230.879L18.6999 231.279L18.3999 230.079C18.3999 230.079 18.3999 229.479 18.8999 229.279C19.3999 229.179 19.7999 229.679 19.7999 229.679L20.0999 230.879Z" fill="#FFFCF2"/>
<path d="M14 232.579L12.6 232.979L12.3 231.779C12.3 231.779 12.3 231.179 12.8 230.979C13.3 230.879 13.7 231.379 13.7 231.379L14 232.579Z" fill="#FFFCF2"/>
<path d="M7.8001 234.279L6.4001 234.679L6.1001 233.479C6.1001 233.479 6.1001 232.879 6.6001 232.679C7.1001 232.579 7.5001 233.079 7.5001 233.079L7.8001 234.279Z" fill="#FFFCF2"/>
<path d="M1.7 235.979L0.3 236.379L0 235.079C0 235.079 0 234.479 0.5 234.279C1 234.179 1.4 234.679 1.4 234.679L1.7 235.979Z" fill="#FFFCF2"/>
<path d="M50.3 260.679L49 261.179L48.6 259.979C48.6 259.979 48.5 259.379 49 259.179C49.5 258.979 49.9 259.479 49.9 259.479L50.3 260.679Z" fill="#FFFCF2"/>
<path d="M44.3 262.879L43 263.379L42.6 262.179C42.6 262.179 42.5 261.579 43 261.379C43.5 261.179 43.9 261.679 43.9 261.679L44.3 262.879Z" fill="#FFFCF2"/>
<path d="M38.3 264.979L37 265.479L36.6 264.279C36.6 264.279 36.5 263.679 37 263.479C37.5 263.279 37.9 263.879 37.9 263.879L38.3 264.979Z" fill="#FFFCF2"/>
<path d="M32.3 267.079L31 267.579L30.6 266.379C30.6 266.379 30.5 265.779 31 265.579C31.5 265.379 31.9 265.879 31.9 265.879L32.3 267.079Z" fill="#FFFCF2"/>
<path d="M26.3 269.179L25 269.679L24.6 268.479C24.6 268.479 24.5 267.879 25 267.679C25.5 267.479 25.9 267.979 25.9 267.979L26.3 269.179Z" fill="#FFFCF2"/>
<path d="M20.3 271.379L19 271.879L18.6 270.679C18.6 270.679 18.5 270.079 19 269.879C19.5 269.679 19.9 270.179 19.9 270.179L20.3 271.379Z" fill="#FFFCF2"/>
<path d="M14.2999 273.479L13.3999 273.779L12.9999 272.579C12.9999 272.579 12.8999 271.979 13.1999 271.879C13.4999 271.779 13.8999 272.279 13.8999 272.279L14.2999 273.479Z" fill="#FFFCF2"/>
<path d="M80.9 154.979L80.3 153.679L81.4 153.079C81.4 153.079 82 152.979 82.3 153.379C82.5 153.879 82.1 154.279 82.1 154.279L80.9 154.979Z" fill="#FFFCF2"/>
<path d="M78.1 149.279L77.5 147.979L78.6 147.379C78.6 147.379 79.2 147.279 79.5 147.679C79.7 148.179 79.3 148.579 79.3 148.579L78.1 149.279Z" fill="#FFFCF2"/>
<path d="M75.3 143.579L74.7 142.279L75.8 141.679C75.8 141.679 76.4 141.579 76.7 141.979C76.9 142.479 76.5 142.879 76.5 142.879L75.3 143.579Z" fill="#FFFCF2"/>
<path d="M72.4 137.879L71.8 136.579L72.9 135.979C72.9 135.979 73.5 135.879 73.8 136.279C74 136.779 73.6 137.179 73.6 137.179L72.4 137.879Z" fill="#FFFCF2"/>
<path d="M69.6 132.179L69 130.879L70.1 130.279C70.1 130.279 70.7 130.179 71 130.579C71.2 131.079 70.8 131.479 70.8 131.479L69.6 132.179Z" fill="#FFFCF2"/>
<path d="M66.6999 126.479L66.0999 125.179L67.1999 124.579C67.1999 124.579 67.7999 124.479 68.0999 124.879C68.2999 125.379 67.8999 125.779 67.8999 125.779L66.6999 126.479Z" fill="#FFFCF2"/>
<path d="M63.9001 120.879L63.3 119.579L64.4001 118.979C64.4001 118.979 65.0001 118.879 65.3001 119.279C65.5001 119.779 65.1 120.179 65.1 120.179L63.9001 120.879Z" fill="#FFFCF2"/>
<path d="M61.0999 115.179L60.3999 113.879L61.4999 113.279C61.4999 113.279 62.0999 113.179 62.3999 113.579C62.5999 114.079 62.1999 114.479 62.1999 114.479L61.0999 115.179Z" fill="#FFFCF2"/>
<path d="M58.2 109.479L57.7 108.579L58.7999 107.979C58.7999 107.979 59.3999 107.779 59.5999 108.179C59.7999 108.579 59.2999 108.979 59.2999 108.979L58.2 109.479Z" fill="#FFFCF2"/>
<path d="M53.5001 220.879L52.9001 219.579L54.0001 218.979C54.0001 218.979 54.6001 218.879 54.9001 219.279C55.1001 219.779 54.7001 220.179 54.7001 220.179L53.5001 220.879Z" fill="#FFFCF2"/>
<path d="M50.6 215.179L50 213.879L51.1 213.279C51.1 213.279 51.7 213.179 52 213.579C52.2 214.079 51.8 214.479 51.8 214.479L50.6 215.179Z" fill="#FFFCF2"/>
<path d="M47.7999 209.479L47.2 208.179L48.2999 207.579C48.2999 207.579 48.9 207.479 49.2 207.879C49.4 208.379 49 208.779 49 208.779L47.7999 209.479Z" fill="#FFFCF2"/>
<path d="M45.0001 203.779L44.4001 202.479L45.5001 201.879C45.5001 201.879 46.1001 201.779 46.4001 202.179C46.6001 202.679 46.2001 203.079 46.2001 203.079L45.0001 203.779Z" fill="#FFFCF2"/>
<path d="M42.2001 198.079L41.6001 196.779L42.7001 196.179C42.7001 196.179 43.3001 196.079 43.6001 196.479C43.8001 196.979 43.4001 197.379 43.4001 197.379L42.2001 198.079Z" fill="#FFFCF2"/>
<path d="M39.4001 192.379L38.8 191.079L39.9001 190.479C39.9001 190.479 40.5 190.379 40.8 190.779C41 191.279 40.6 191.679 40.6 191.679L39.4001 192.379Z" fill="#FFFCF2"/>
<path d="M36.6 186.679L36 185.379L37.1 184.779C37.1 184.779 37.7 184.679 38 185.079C38.2 185.579 37.8 185.979 37.8 185.979L36.6 186.679Z" fill="#FFFCF2"/>
<path d="M33.7001 180.979L33.1001 179.679L34.2001 179.079C34.2001 179.079 34.8001 178.979 35.1001 179.379C35.3001 179.879 34.9001 180.279 34.9001 180.279L33.7001 180.979Z" fill="#FFFCF2"/>
<path d="M30.9 175.279L30.3 173.979L31.4 173.379C31.4 173.379 32 173.279 32.3 173.679C32.5 174.179 32.1 174.579 32.1 174.579L30.9 175.279Z" fill="#FFFCF2"/>
<path d="M28.1 169.579L27.5 168.279L28.6 167.679C28.6 167.679 29.2 167.579 29.5 167.979C29.7 168.479 29.3 168.879 29.3 168.879L28.1 169.579Z" fill="#FFFCF2"/>
<path d="M25.2999 163.879L24.7 162.579L25.7999 161.979C25.7999 161.979 26.4 161.879 26.7 162.279C26.9 162.779 26.5 163.179 26.5 163.179L25.2999 163.879Z" fill="#FFFCF2"/>
<path d="M22.5 158.179L21.8 156.879L22.9 156.279C22.9 156.279 23.5 156.179 23.8 156.579C24 157.079 23.6 157.479 23.6 157.479L22.5 158.179Z" fill="#FFFCF2"/>
<path d="M50.7 270.579L50 269.379L51.1 268.779C51.1 268.779 51.7 268.579 52 269.079C52.3 269.579 51.8 269.979 51.8 269.979L50.7 270.579Z" fill="#FFFCF2"/>
<path d="M47.5999 264.979L46.8999 263.779L47.9999 263.179C47.9999 263.179 48.5999 262.979 48.8999 263.479C49.1999 263.979 48.6999 264.379 48.6999 264.379L47.5999 264.979Z" fill="#FFFCF2"/>
<path d="M44.5999 259.379L43.8999 258.179L44.9999 257.579C44.9999 257.579 45.5999 257.379 45.8999 257.879C46.1999 258.379 45.6999 258.779 45.6999 258.779L44.5999 259.379Z" fill="#FFFCF2"/>
<path d="M41.5 253.779L40.8 252.579L41.9001 251.979C41.9001 251.979 42.5 251.779 42.8 252.279C43.1 252.779 42.6 253.179 42.6 253.179L41.5 253.779Z" fill="#FFFCF2"/>
<path d="M38.4 248.179L37.7 246.979L38.7999 246.379C38.7999 246.379 39.4 246.179 39.7 246.679C40 247.179 39.5 247.579 39.5 247.579L38.4 248.179Z" fill="#FFFCF2"/>
<path d="M36.7999 241.379C37.1999 241.279 33.7 243.179 35.2 242.379C35.2 242.379 35.2 242.379 35.2 242.279C35.1 242.179 35.1 242.079 35 241.979C34.9 241.879 34.8999 241.779 34.7999 241.679C34.7999 241.679 34.8 241.579 34.7 241.579C35.3 241.279 35.5 241.079 35.5 241.079L35.7999 240.879C35.7999 240.879 36.3999 240.679 36.5999 241.079C36.6999 241.279 36.6 241.479 36.5 241.579V241.679L35.5 242.179C35.5 242.179 35.4999 242.079 35.5999 242.079L35.7 241.979L36.7999 241.379Z" fill="#FFFCF2"/>
<path d="M32.2999 237.079L31.5999 235.879L32.6999 235.279C32.6999 235.279 33.2999 235.079 33.5999 235.579C33.8999 236.079 33.3999 236.479 33.3999 236.479L32.2999 237.079Z" fill="#FFFCF2"/>
<path d="M29.2 231.479L28.5 230.279L29.6 229.679C29.6 229.679 30.2 229.479 30.5 229.979C30.8 230.479 30.3 230.879 30.3 230.879L29.2 231.479Z" fill="#FFFCF2"/>
<path d="M26.2 225.879L25.5 224.679L26.6 224.079C26.6 224.079 27.2 223.879 27.5 224.379C27.8 224.879 27.3 225.279 27.3 225.279L26.2 225.879Z" fill="#FFFCF2"/>
<path d="M23.0999 220.379L22.3999 219.179L23.4999 218.579C23.4999 218.579 24.0999 218.379 24.3999 218.879C24.6999 219.379 24.1999 219.779 24.1999 219.779L23.0999 220.379Z" fill="#FFFCF2"/>
<path d="M20 214.779L19.3 213.579L20.4 212.979C20.4 212.979 21 212.779 21.3 213.279C21.6 213.779 21.1 214.179 21.1 214.179L20 214.779Z" fill="#FFFCF2"/>
<path d="M17 209.179L16.3 207.979L17.4 207.379C17.4 207.379 18 207.179 18.3 207.679C18.6 208.179 18.1 208.579 18.1 208.579L17 209.179Z" fill="#FFFCF2"/>
<path d="M13.9 203.579L13.2 202.379L14.3 201.779C14.3 201.779 14.9 201.579 15.2 202.079C15.5 202.579 15 202.979 15 202.979L13.9 203.579Z" fill="#FFFCF2"/>
<path d="M10.9 197.979L10.2 196.779L11.3 196.179C11.3 196.179 11.9 195.979 12.2 196.479C12.5 196.979 12 197.379 12 197.379L10.9 197.979Z" fill="#FFFCF2"/>
<path d="M37.7001 295.079L36.9001 293.879L38.0001 293.179C38.0001 293.179 38.6001 292.979 38.9001 293.379C39.2001 293.779 38.8001 294.379 38.8001 294.379L37.7001 295.079Z" fill="#FFFCF2"/>
<path d="M34.2001 289.78L33.4001 288.58L34.5001 287.88C34.5001 287.88 35.1001 287.68 35.4001 288.08C35.7001 288.48 35.3001 289.08 35.3001 289.08L34.2001 289.78Z" fill="#FFFCF2"/>
<path d="M30.7001 284.479L29.9001 283.279L31.0001 282.579C31.0001 282.579 31.6001 282.379 31.9001 282.779C32.2001 283.179 31.8001 283.779 31.8001 283.779L30.7001 284.479Z" fill="#FFFCF2"/>
<path d="M27.2001 279.179L26.4001 277.979L27.5001 277.279C27.5001 277.279 28.1001 277.079 28.4001 277.479C28.7001 277.879 28.3001 278.479 28.3001 278.479L27.2001 279.179Z" fill="#FFFCF2"/>
<path d="M23.7001 273.879L22.9001 272.679L24.0001 271.979C24.0001 271.979 24.6001 271.779 24.9001 272.179C25.2001 272.579 24.8001 273.179 24.8001 273.179L23.7001 273.879Z" fill="#FFFCF2"/>
<path d="M20.2001 268.579L19.4001 267.379L20.5001 266.679C20.5001 266.679 21.1001 266.479 21.4001 266.879C21.7001 267.279 21.3001 267.879 21.3001 267.879L20.2001 268.579Z" fill="#FFFCF2"/>
<path d="M16.6 263.28L15.8 262.08L16.9 261.38C16.9 261.38 17.5 261.18 17.8 261.58C18.1 261.98 17.7 262.58 17.7 262.58L16.6 263.28Z" fill="#FFFCF2"/>
<path d="M13.1 257.979L12.3 256.779L13.4 256.079C13.4 256.079 14 255.879 14.3 256.279C14.6 256.679 14.2 257.279 14.2 257.279L13.1 257.979Z" fill="#FFFCF2"/>
<path d="M9.60005 252.679L8.80005 251.479L9.90005 250.779C9.90005 250.779 10.5 250.579 10.8 250.979C11.1 251.379 10.7 251.979 10.7 251.979L9.60005 252.679Z" fill="#FFFCF2"/>
<path d="M6.10005 247.379L5.30005 246.179L6.40005 245.479C6.40005 245.479 7.00005 245.279 7.30005 245.679C7.60005 246.079 7.20005 246.679 7.20005 246.679L6.10005 247.379Z" fill="#FFFCF2"/>
<path d="M2.60005 242.079L1.80005 240.879L2.90005 240.179C2.90005 240.179 3.50005 239.979 3.80005 240.379C4.10005 240.779 3.70005 241.379 3.70005 241.379L2.60005 242.079Z" fill="#FFFCF2"/>
<path d="M39.6001 302.979L38.9001 301.779L40.0001 301.079C40.0001 301.079 40.6001 300.879 40.9001 301.379C41.2001 301.879 40.7001 302.379 40.7001 302.379L39.6001 302.979Z" fill="#FFFCF2"/>
<path d="M36.3001 297.479L35.6001 296.279L36.7001 295.579C36.7001 295.579 37.3001 295.379 37.6001 295.879C37.9001 296.379 37.4001 296.879 37.4001 296.879L36.3001 297.479Z" fill="#FFFCF2"/>
<path d="M8.29997 205.879C8.29997 205.879 21.9 225.079 6.59997 249.879C6.59997 249.879 -0.900031 229.679 8.29997 205.879Z" fill="#4F8BAD"/>
<path d="M50.0999 283.279C50.0999 283.279 35.8999 280.979 24.8999 295.279C24.8999 295.279 33.7999 306.079 41.8999 301.979C49.8999 297.779 50.0999 283.279 50.0999 283.279Z" fill="#4F8BAD"/>
<path d="M25.8001 293.979C25.8001 293.979 25.9001 294.079 26.1001 294.279C26.3001 294.479 26.5001 294.779 26.9001 295.179C27.6001 295.979 28.6001 297.079 30.0001 298.179C31.4001 299.279 33.2001 300.379 35.2001 300.779C36.2001 300.979 37.3001 301.079 38.4001 300.879C38.9001 300.779 39.5001 300.579 40.0001 300.479C40.5001 300.279 41.1001 300.079 41.5001 299.779C42.0001 299.479 42.4001 299.179 42.9001 298.779C43.3001 298.379 43.7001 297.979 44.1001 297.579C44.8001 296.779 45.4001 295.779 45.9001 294.779C46.8001 292.779 47.3001 290.679 47.7001 288.979C48.0001 287.179 48.2001 285.679 48.3001 284.579C48.4001 283.479 48.4001 282.879 48.4001 282.879L49.7001 282.979C49.7001 282.979 49.7001 283.279 49.7001 283.879C49.7001 284.479 49.7001 285.579 49.6001 286.979C49.5001 288.479 49.2001 290.379 48.5001 292.879C48.1001 294.079 47.6001 295.479 46.8001 296.879C46.0001 298.279 44.8001 299.779 43.1001 300.879C41.4001 301.979 39.6001 302.579 37.8001 302.679C36.1001 302.779 34.5001 302.479 33.2001 301.979C31.9001 301.479 30.8001 300.779 29.9001 300.179C29.0001 299.579 28.3001 298.879 27.7001 298.279C26.5001 297.079 25.8001 296.179 25.3001 295.479C24.9001 294.879 24.6001 294.579 24.6001 294.579L25.8001 293.979Z" fill="#72BAD1"/>
<path d="M9.09995 206.08C9.09995 206.08 8.39995 208.78 7.39995 212.78C7.19995 213.78 6.89995 214.88 6.69995 216.08C6.59995 216.68 6.39995 217.28 6.29995 217.88C6.19995 218.48 6.09995 219.08 5.99995 219.78C5.79995 221.08 5.49995 222.38 5.39995 223.68C5.29995 224.38 5.19995 224.98 5.19995 225.68C5.09995 226.38 5.09995 227.08 5.09995 227.68C4.99995 233.18 5.69995 238.68 6.29995 242.78C6.59995 244.78 6.89995 246.58 7.19995 247.68C7.39995 248.88 7.59995 249.58 7.59995 249.58L6.39995 249.88C6.39995 249.88 6.29995 249.58 6.09995 248.88C5.89995 248.18 5.59995 247.08 5.19995 245.48C4.79995 243.88 4.39995 241.68 3.99995 238.88C3.59995 236.08 3.19995 232.68 3.19995 228.38C3.19995 227.28 3.19995 226.28 3.29995 225.28C3.39995 224.28 3.49995 223.38 3.59995 222.48C3.89995 220.68 4.19995 219.08 4.49995 217.68C4.79995 216.28 5.19995 214.98 5.39995 213.78C5.69995 212.58 5.99995 211.58 6.19995 210.68C7.19995 207.18 7.79995 205.58 7.79995 205.58L9.09995 206.08Z" fill="#72BAD1"/>
<path d="M84.5 131.879C84.5 131.879 56.7 125.679 42.7 99.6792C42.7 99.6792 69.7999 116.779 84.5 131.879Z" fill="#2D3962"/>
<path d="M71.7001 82.9794C67.2001 79.9794 55.0001 124.679 59.0001 127.279C63.1001 129.879 78.1001 87.1794 71.7001 82.9794Z" fill="#FFFCF2"/>
<path d="M66.3001 116.179C71.2001 103.879 75.8001 85.6794 71.7001 82.9794C68.9001 81.0794 63.1001 97.8794 60.1001 111.279" fill="#FFFCF2"/>
<path d="M59.1001 111.079C60.3001 105.879 61.7001 100.779 63.3001 95.7794C64.1001 93.2794 65.0001 90.7794 66.1001 88.2794C66.6001 87.0794 67.2001 85.8794 67.9001 84.6794C68.3001 84.0794 68.7001 83.4794 69.2001 82.8794C69.3001 82.7794 69.5001 82.5794 69.7001 82.4794C69.8001 82.3794 70.1001 82.1794 70.3001 82.0794C70.4001 81.9794 70.6001 81.9794 70.7001 81.9794L71.1001 81.8794C71.2001 81.8794 71.3001 81.8794 71.3001 81.8794C71.6001 81.8794 71.9001 82.0794 72.2001 82.1794C73.1001 82.8794 73.5001 83.6794 73.7001 84.4794C74.2001 86.0794 74.2001 87.5794 74.1001 89.0794C74.0001 90.4794 73.9001 91.8794 73.7001 93.0794C73.5001 95.5794 73.0001 97.8794 72.5001 99.8794C71.5001 103.979 70.5001 107.179 69.7001 109.579C68.9001 111.979 68.2001 113.779 67.8001 114.879C67.4001 115.979 67.2001 116.479 67.2001 116.479L66.3001 116.079C66.3001 116.079 66.4001 115.679 66.7001 114.579C67.0001 113.579 67.5001 111.879 68.1001 109.579C68.8001 107.179 69.6001 104.179 70.5001 100.079C71.0001 98.0794 71.4001 95.7794 71.8001 93.2794C72.0001 92.0794 72.1001 90.6794 72.2001 89.3794C72.3001 87.9794 72.3001 86.5794 72.0001 85.2794C71.9001 84.7794 71.7001 84.2794 71.5001 83.9794C71.3001 83.6794 71.1001 83.5794 71.1001 83.5794H71.0001C71.0001 83.8794 70.8001 84.0794 70.6001 84.2794C70.2001 84.6794 69.9001 85.2794 69.5001 85.7794C68.9001 86.8794 68.3001 87.9794 67.8001 89.0794C66.8001 91.2794 66.1001 93.3794 65.4001 95.2794C64.1001 99.0794 63.1001 102.179 62.4001 104.579C61.7001 106.979 61.2001 108.679 60.9001 109.879C60.6001 110.979 60.5001 111.479 60.5001 111.479L59.1001 111.079Z" fill="#B3C8D3"/>
<path d="M54.4 128.78C54 130.98 55.5 133.18 57.8 133.68C60.1 134.18 62.4 132.68 62.8 130.48C63.2 128.28 61.7 126.08 59.4 125.58C57 125.08 54.8 126.48 54.4 128.78Z" fill="#FFFCF2"/>
</g>
<path d="M92 12.8794H225L223 123.879L101 118.594L92 12.8794Z" fill="#2D3962"/>
<path d="M146.515 111.985L146.783 107.688L135.504 105.056L137.76 20.1392L113.375 32.6538V35.4468L122.291 36.1987L124.225 104.143L113.214 108.44V111.609L146.515 111.985ZM129.435 94.3677C128.897 87.7791 128.951 83.3211 129.596 80.9937C130.133 85.7918 130.079 90.2498 129.435 94.3677ZM132.335 87.5464L131.959 86.4185C131.458 72.203 131.332 61.5682 131.583 54.5142C132.299 58.2381 132.693 64.576 132.765 73.5278V81.3159L132.335 87.5464ZM128.038 62.356V54.5679C128.11 45.616 128.504 39.2782 129.22 35.5542C129.47 42.6082 129.345 53.243 128.844 67.4585L128.468 68.5864L128.038 62.356ZM165.528 82.9272C167.211 68.7834 171.956 61.6219 179.762 61.4429C189.68 61.7293 194.389 70.9855 193.888 89.2114C193.136 101.243 188.964 107.545 181.373 108.118C170.058 108.547 164.776 100.151 165.528 82.9272ZM166.925 38.8843C168.357 29.7534 172.439 25.1343 179.171 25.0269C187.693 25.2059 191.721 31.1857 191.256 42.9663C190.647 50.7365 187.084 54.8185 180.567 55.2124C170.792 55.4631 166.244 50.0203 166.925 38.8843ZM193.512 57.2534C200.064 54.4246 203.878 48.964 204.952 40.8716C206.384 25.9399 198.65 18.4562 181.749 18.4204C163.917 18.4562 154.553 24.1138 153.658 35.3931C152.978 46.8514 157.275 54.2098 166.549 57.4683C156.057 60.8341 150.453 68.2642 149.737 79.7583C148.663 102.46 158.367 113.972 178.849 114.294C196.394 114.939 206.152 106.059 208.121 87.6538C209.339 71.2541 204.469 61.1206 193.512 57.2534ZM195.66 103.66C197.415 102.406 198.829 100.168 199.903 96.9458C199.939 100.025 198.525 102.263 195.66 103.66ZM197.862 82.0679C198.292 85.4338 197.397 89.9813 195.177 95.7104C197.146 88.1551 196.985 80.5461 194.693 72.8833C196.376 75.6047 197.433 78.6662 197.862 82.0679ZM198.023 75.0317L197.164 73.9038C196.305 71.6121 194.765 69.1056 192.545 66.3843C195.803 68.3537 197.63 71.2362 198.023 75.0317ZM197.54 96.9995L194.908 100.491C198.704 94.4035 200.208 88.0119 199.42 81.3159C201.246 86.6512 200.619 91.8791 197.54 96.9995ZM168.321 104.68C165.457 103.284 164.042 101.046 164.078 97.9663C165.152 101.189 166.567 103.427 168.321 104.68ZM163.004 39.0454C163.434 36.2524 164.49 33.728 166.173 31.4722C163.881 37.8101 163.72 44.0763 165.689 50.271C163.469 45.5444 162.574 41.8026 163.004 39.0454ZM162.843 33.2983C163.237 30.1473 165.063 27.7661 168.321 26.1548C166.101 28.3748 164.562 30.4338 163.702 32.3315L162.843 33.2983ZM163.004 50.5396C159.924 46.3501 159.298 42.0711 161.124 37.7026C160.336 43.1812 161.84 48.4269 165.636 53.4399L163.004 50.5396Z" fill="#FFFEFA"/>
<g clip-path="url(#clip1)">
<path d="M263.8 76.9794L309 57.8794C309 57.8794 318 159.579 313.8 180.879C309.6 202.279 280.9 250.179 263.8 241.679C246.7 233.179 272.2 189.579 272.1 179.479C271.8 154.979 263.8 76.9794 263.8 76.9794Z" fill="#2D3962"/>
<path d="M309 57.8794L283.4 68.6794L311.5 88.5794C310.2 70.8794 309 57.8794 309 57.8794Z" fill="#2D6C73"/>
<path d="M314.8 148.879C314.5 139.079 314 128.079 313.4 117.379L264.2 81.7793C264.8 87.7793 265.9 98.6793 267.1 111.279L314.8 148.879Z" fill="#2D6C73"/>
<path d="M270.7 152.779C271.5 163.679 272.1 173.279 272.2 179.479C272.2 179.679 272.2 179.879 272.2 180.079L304 205.779C308.9 196.579 312.5 187.479 313.8 180.879C313.9 180.379 314 179.779 314.1 179.179L270.7 152.779Z" fill="#2D6C73"/>
<path d="M290.6 226.579L265.2 201.079C262 209.779 258.7 219.279 258.1 227.179L276.1 240.279C280.9 237.379 285.9 232.479 290.6 226.579Z" fill="#2D6C73"/>
<path d="M304.8 83.5789L310.1 77.8789L311 78.6789C311 78.6789 310.8 79.6789 308.9 81.8789C306.9 83.9789 305.7 84.4789 305.7 84.4789L304.8 83.5789Z" fill="#2D3962"/>
<path d="M289.6 99.9792L304.8 83.6792L305.7 84.4792C305.7 84.4792 304.5 86.6792 298.8 92.7792C293.1 98.8792 290.5 100.879 290.5 100.879L289.6 99.9792Z" fill="#2D6C73"/>
<path d="M274 116.579L289.5 99.8789L290.4 100.679C290.4 100.679 289.1 102.879 283.3 109.079C277.5 115.279 274.8 117.279 274.8 117.279L274 116.579Z" fill="#2D3962"/>
<path d="M260.7 130.979L274 116.579L274.9 117.379C274.9 117.379 273.9 119.379 268.9 124.679C263.9 130.079 261.6 131.679 261.6 131.679L260.7 130.979Z" fill="#2D6C73"/>
<path d="M270.9 85.1791L292 61.0791L293 61.8791C293 61.8791 291.1 64.8791 283.2 73.8791C275.3 82.8791 271.8 85.9791 271.8 85.9791L270.9 85.1791Z" fill="#2D6C73"/>
<path d="M260.2 97.4792L271 85.1792L271.9 85.9792C271.9 85.9792 271.2 87.6792 267.1 92.2792C263.1 96.8792 261.1 98.2792 261.1 98.2792L260.2 97.4792Z" fill="#2D3962"/>
<path d="M294.9 133.079L315.9 109.879L316.8 110.679C316.8 110.679 314.9 113.579 307.1 122.279C299.3 130.979 295.8 133.879 295.8 133.879L294.9 133.079Z" fill="#2D3962"/>
<path d="M275 155.179L294.9 133.079L295.8 133.879C295.8 133.879 294.1 136.679 286.6 144.979C279.2 153.179 275.9 155.979 275.9 155.979L275 155.179Z" fill="#2D6C73"/>
<path d="M270.6 160.079L275 155.179L275.9 155.979C275.9 155.979 275.8 156.879 274.2 158.779C272.5 160.579 271.5 160.979 271.5 160.979L270.6 160.079Z" fill="#2D3962"/>
<path d="M297.8 169.079L315.1 150.779L316 151.579C316 151.579 314.5 153.979 308.1 160.779C301.6 167.579 298.7 169.779 298.7 169.779L297.8 169.079Z" fill="#2D6C73"/>
<path d="M280.8 186.979L297.8 169.079L298.7 169.879C298.7 169.879 297.3 172.279 290.9 178.979C284.5 185.679 281.7 187.879 281.7 187.879L280.8 186.979Z" fill="#2D3962"/>
<path d="M266.4 202.179L280.9 186.979L281.8 187.779C281.8 187.779 280.6 189.879 275.2 195.579C269.8 201.279 267.3 203.079 267.3 203.079L266.4 202.179Z" fill="#2D6C73"/>
<path d="M260.1 208.779L266.4 202.179L267.3 202.979C267.3 202.979 267 204.079 264.7 206.579C262.4 209.079 261 209.579 261 209.579L260.1 208.779Z" fill="#2D3962"/>
<path d="M301.2 203.379L312 193.079L312.8 193.979C312.8 193.979 312 195.479 308 199.379C304 203.279 302 204.279 302 204.279L301.2 203.379Z" fill="#2D3962"/>
<path d="M284 219.879L301.2 203.379L302 204.279C302 204.279 300.5 206.479 294.1 212.679C287.7 218.879 284.8 220.779 284.8 220.779L284 219.879Z" fill="#2D6C73"/>
<path d="M268.7 234.579L284 219.879L284.8 220.779C284.8 220.779 283.5 222.779 277.8 228.279C272.1 233.779 269.5 235.479 269.5 235.479L268.7 234.579Z" fill="#2D3962"/>
<path d="M262.5 240.579L268.7 234.579L269.5 235.479C269.5 235.479 269.2 236.579 266.9 238.779C264.6 240.979 263.3 241.479 263.3 241.479L262.5 240.579Z" fill="#2D6C73"/>
<path d="M263.8 76.9794C263.8 76.9794 290.4 77.9794 309.1 57.8794C309 57.8794 280.6 66.7794 263.8 76.9794Z" fill="#2D3962"/>
<path d="M284.9 35.8793C289.7 34.2793 290.1 77.4793 285.8 78.8793C281.5 80.2793 278.1 38.2793 284.9 35.8793Z" fill="#FFFEFA"/>
<path d="M289.7 81.2792C289.6 83.3792 287.7 84.9792 285.4 84.8792C283.2 84.7792 281.5 82.8792 281.6 80.7792C281.7 78.6792 283.6 77.0792 285.9 77.1792C288.1 77.3792 289.8 79.1792 289.7 81.2792Z" fill="#FFFEFA"/>
</g>
<defs>
<clipPath id="clip0">
<rect width="90.2" height="221.1" fill="white" transform="translate(0 81.8794)"/>
</clipPath>
<clipPath id="clip1">
<rect width="58.8" height="206.8" fill="white" transform="translate(258 35.8794)"/>
</clipPath>
</defs>
</svg>
