<?xml version="1.0" encoding="utf-8"?>
<!-- Generator: Adobe Illustrator 25.0.0, SVG Export Plug-In . SVG Version: 6.00 Build 0)  -->
<svg version="1.1" id="Layer_1" xmlns="http://www.w3.org/2000/svg" xmlns:xlink="http://www.w3.org/1999/xlink" x="0px" y="0px"
	 viewBox="0 0 303 282" style="enable-background:new 0 0 303 282;" xml:space="preserve">
<style type="text/css">
	.st0{fill:#B3C8D3;}
	.st1{fill:#FF606F;}
	.st2{fill:#72BAD1;}
	.st3{fill:#FFFEFA;}
	.st4{fill:#2D6D73;}
	.st5{fill:#4F8BAD;}
	.st6{clip-path:url(#SVGID_2_);}
	.st7{fill:#C24751;}
	.st8{fill:#FFFCF2;}
	.st9{fill:#C3C3C3;}
</style>
<path class="st0" d="M260,141.6c0,1.1,6.9,2.3,15.7,2.3c0.2,10.5,1.1,18.5,2.3,18.5s2.1-8,2.3-18.5c8.3-0.2,14.6-1.1,14.6-2.3
	c0-1.1-6.4-2.1-14.6-2.3c0-11.4-1-20.4-2.3-20.4c-1.3,0-2.3,9-2.3,20.3C266.9,139.3,260,140.3,260,141.6z"/>
<path class="st0" d="M253,167.5c0,0.7,4.1,1.4,9.5,1.4c0.1,6.3,0.7,11,1.4,11s1.3-4.8,1.4-11c5-0.1,8.8-0.7,8.8-1.4
	c0-0.7-3.8-1.3-8.8-1.4c0-6.8-0.6-12.2-1.4-12.2s-1.4,5.4-1.4,12.1C257.1,166.1,253,166.7,253,167.5z"/>
<path class="st1" d="M72,23.5c0,0.7,4.1,1.4,9.5,1.4c0.1,6.3,0.7,11,1.4,11c0.7,0,1.3-4.8,1.4-11c5-0.1,8.8-0.7,8.8-1.4
	c0-0.7-3.8-1.3-8.8-1.4c0-6.8-0.6-12.2-1.4-12.2c-0.8,0-1.4,5.4-1.4,12.1C76.1,22.1,72,22.7,72,23.5z"/>
<path class="st2" d="M144.3,45.6c-1.7-0.1-4-0.2-6.7-0.3c-1.4-0.1-2.8-0.1-4.3-0.2c-1.5-0.1-3-0.1-4.6-0.2c-3.1-0.1-6.2-0.2-9.1-0.1
	c7-7,15-16.2,15-16.2s-9.1,7.8-16.2,14.7c0-14.1-1.2-32.4-1.2-32.4s-1.2,18.3-1.2,32.4c-6.3-6.1-14.6-13.2-14.6-13.2
	s7.2,8.4,13.5,14.8c-4.6,0.1-9.4,0.4-13.4,0.6c-5.4,0.4-9.4,0.7-9.4,0.7s3.9,0.4,9.3,0.8c3.8,0.2,8.3,0.6,12.8,0.7
	c-6.4,6.6-12.8,14-12.8,14s7.9-6.7,14.7-13.2c0.2,13.3,1.2,28.4,1.2,28.4s1-15.1,1.2-28.5c5.9,5.6,12.5,11.1,12.5,11.1
	s-5.2-6.1-10.6-11.8c2.8-0.1,5.7-0.2,8.6-0.3c0.8-0.1,1.5-0.1,2.3-0.1c0.7-0.1,1.5-0.1,2.3-0.2c1.5-0.1,3-0.2,4.3-0.4
	c2.7-0.2,5-0.5,6.7-0.7c1.7-0.2,2.7-0.3,2.7-0.3S146,45.7,144.3,45.6z"/>
<path class="st3" d="M202.6,97.8l18.4-0.4l2.5-14.8l4.1,1.3l1.8,23.6l-50.2-0.2L210,59.6c3.8-6.2,5.1-13.9,3.8-23.1
	c-1.3-5.1-7.4-5-18.4,0.4c-3.1,2-5.2,6.5-6.4,13.4l-7.1-1.5l-0.5-27.9l5.4,0.8l2.6,9.2c19.6-13,32.6-12,38.8,3
	c3.5,7.4,2.7,16-2.6,25.7L202.6,97.8z M221,43.7c-0.4-3.4-1.5-6.5-3.2-9.2c2.3,7.7,2.5,15.3,0.5,22.8
	C220.5,51.6,221.4,47.1,221,43.7z M221.1,36.7c-0.4-3.8-2.2-6.7-5.5-8.6c2.2,2.7,3.8,5.2,4.6,7.5L221.1,36.7z M221,57.7
	c3.1-5.1,3.7-10.3,1.9-15.7c0.8,6.7-0.7,13.1-4.5,19.2L221,57.7z M256.4,97.8l18.4-0.4l2.5-14.8l4.1,1.3l1.8,23.6l-50.2-0.2
	l30.8-47.6c3.8-6.2,5.1-13.9,3.8-23.1c-1.3-5.1-7.4-5-18.4,0.4c-3.1,2-5.2,6.5-6.4,13.4l-7.1-1.5l-0.5-27.9l5.4,0.8l2.6,9.2
	c19.6-13,32.6-12,38.8,3c3.5,7.4,2.7,16-2.6,25.7L256.4,97.8z M274.8,43.7c-0.4-3.4-1.5-6.5-3.2-9.2c2.3,7.7,2.5,15.3,0.5,22.8
	C274.3,51.6,275.2,47.1,274.8,43.7z M274.9,36.7c-0.4-3.8-2.2-6.7-5.5-8.6c2.2,2.7,3.8,5.2,4.6,7.5L274.9,36.7z M274.8,57.7
	c3.1-5.1,3.7-10.3,1.9-15.7c0.8,6.7-0.7,13.1-4.5,19.2L274.8,57.7z"/>
<path class="st2" d="M4.9,55.4L0,221.9l70.2-0.9l5-169.1L4.9,55.4z"/>
<path class="st4" d="M4.9,55.4L0,221.9l26.4-0.5l2.8-167.2L4.9,55.4z"/>
<path class="st5" d="M19.4,54.7l-4.9,166.9l-5.7-0.2l6.5-166.2L19.4,54.7z"/>
<path class="st4" d="M40.2,54.8c0,0-0.2-0.8-0.6-2.3c-0.4-1.6-1-4-2-7.1c-1-3.2-2.4-7.2-4.8-11.7c-0.6-1.1-1.3-2.2-2-3.4
	c-0.8-1.1-1.6-2.2-2.6-3.2s-2.1-1.9-3.3-2.4c-1.2-0.5-2.6-0.6-3.6,0.1c-1,0.7-1.7,2.2-1.9,3.7c-0.3,1.5-0.2,3.1,0,4.5
	c0.4,2.9,1.3,5.5,2.3,7.7s2.2,4.1,3.3,5.7c1.1,1.6,2.1,2.9,3.1,4c1.9,2.3,3.4,3.7,4.4,4.6s1.5,1.3,1.5,1.3l-0.9,1.2
	c0,0-0.4-0.3-1.5-1c-1-0.8-2.6-2-4.6-4c-2-2.1-4.7-5-7.1-9.6c-0.6-1.1-1.2-2.4-1.7-3.8c-0.5-1.4-1-2.9-1.3-4.6
	c-0.3-1.7-0.5-3.5-0.2-5.6c0.1-0.9,0.3-2,0.7-3c0.4-1.1,1.1-2.2,2-3c1-0.9,2.2-1.4,3.3-1.5s2.1,0.1,3,0.4c1.8,0.7,3.2,1.8,4.3,3
	c1.2,1.1,2.2,2.4,3,3.6c0.8,1.2,1.5,2.5,2.2,3.7C37.7,37,39,41.2,40,44.5s1.5,5.7,1.8,7.3c0.3,1.6,0.5,2.3,0.5,2.3L40.2,54.8z"/>
<path class="st4" d="M42.3,52.8c0,0,0.4-0.6,1.2-2s1.9-3.4,3.4-6.3c1.4-2.9,3.3-6.6,4.8-11.4c0.4-1.2,0.8-2.4,1.1-3.7
	c0.3-1.3,0.5-2.7,0.6-4c0-0.7,0-1.4-0.1-2c-0.1-0.6-0.3-1.1-0.5-1.3c-0.2-0.1-0.3-0.2-0.5-0.2c-0.1,0-0.3,0-0.6,0
	c-0.5,0.1-1.1,0.5-1.6,0.9c-1.1,1-2.2,2.2-3.1,3.5s-1.7,2.5-2.4,3.8c-1.4,2.6-2.5,5-3.3,7.3c-1.7,4.6-2.8,8.4-3.5,11.3
	c-0.7,2.9-1.1,5.1-1.4,6.4c-0.2,1.4-0.4,2-0.4,2l-1.2-0.2c0,0,0-0.5,0.1-1.8c0.1-1.3,0.3-3.3,0.8-6.2c0.5-2.9,1.3-6.7,3-11.6
	c0.8-2.4,1.9-5.1,3.3-7.9c0.7-1.4,1.5-2.9,2.5-4.3c1-1.5,2.1-3,3.7-4.3c0.8-0.7,1.6-1.3,2.6-1.7c0.6-0.1,1.1-0.2,1.7-0.2
	s1.2,0.2,1.7,0.6c0.5,0.4,0.9,0.9,1.2,1.4s0.4,1,0.5,1.5c0.2,1,0.2,1.9,0.2,2.7c-0.2,3.4-1.1,6.3-1.9,8.9c-1.8,5.1-3.7,8.9-5.3,11.8
	c-1.6,2.9-2.8,4.9-3.6,6.3c-0.8,1.3-1.2,1.9-1.2,1.9L42.3,52.8z"/>
<g>
	<defs>
		<rect id="SVGID_1_" x="61" y="86.9" width="193" height="195"/>
	</defs>
	<clipPath id="SVGID_2_">
		<use xlink:href="#SVGID_1_"  style="overflow:visible;"/>
	</clipPath>
	<g class="st6">
		<path class="st5" d="M139.7,152c0,0,0-0.2,0-0.7c0-0.5,0-1-0.1-1.9c-0.1-1.7-0.2-4.5-1-8c-0.8-3.6-2.2-8.1-5.2-13
			c-1.5-2.4-3.4-4.8-5.8-6.9c-1.3-1-2.5-1.9-4-2.6c-1.4-0.7-3-1.1-4.2-1c-1.3,0.1-1.8,0.7-2.3,1.6c-0.5,1-0.5,2.5-0.2,4
			c0.2,1.5,0.6,3,1,4.5c0.5,1.5,1,2.8,1.6,4.1c2.3,5.2,4.9,9.1,6.9,12c1.9,3,3.6,5,4.5,6.4c1,1.4,1.5,1.9,1.5,1.9l-2.1,1.7
			c0,0-0.6-0.5-1.6-1.5c-1.1-1-2.9-2.8-5-5.5c-2.3-2.8-5.2-6.5-8-12c-1.4-2.8-2.9-6-3.8-10.1c-0.3-2.1-0.6-4.4,0-7
			c0.3-1.3,1-2.6,2.1-3.8c1-1.1,2.5-1.8,3.9-2.1c1.4-0.2,2.8-0.2,4,0c1.3,0.2,2.4,0.7,3.4,1.1c2.1,0.9,3.9,2.2,5.5,3.6
			c3.1,2.6,5.4,5.7,7.1,8.6c3.4,5.8,4.8,11.1,5.6,15.2c0.7,4.1,0.8,7,0.7,8.9c0,1.8-0.1,2.8-0.1,2.8L139.7,152z"/>
		<path class="st5" d="M145.1,152c0,0,0.2-0.2,0.6-0.8c0.3-0.6,1-1.3,1.7-2.4c1.5-2.2,3.9-5.6,6.4-10.7c1.3-2.5,2.6-5.4,3.9-8.8
			c1.3-3.4,2.4-7.3,3.2-11.7c0.8-4.4,1.1-9.4,0.5-14.4c-0.3-2.5-1.1-5.2-2.4-7.3c-0.6-1-1.4-1.9-2.2-2.4c-0.8-0.6-1.6-0.8-2.5-0.6
			c-1.9,0.2-3.9,2.1-5.4,4c-1.6,2.1-2.8,4.4-3.8,6.8c-2.1,4.7-3.3,9.4-4.4,13.6c-1.9,8.6-2.8,15.8-3.3,21.3c-0.6,5.5-0.7,9.5-0.8,12
			c-0.1,2.5-0.1,3.8-0.1,3.8l-2.8-0.3c0,0-0.1-1-0.2-3.4c-0.1-2.4-0.3-6.2-0.1-11.6c0.1-2.8,0.2-5.8,0.6-9.5
			c0.3-3.7,0.8-7.7,1.7-12.3c0.8-4.6,2.1-9.6,4.1-15c1-2.6,2.4-5.5,4.2-8.1c0.7-1.4,1.8-2.8,3.1-4c1.4-1.3,2.9-2.3,4.9-3
			c1.1-0.2,2.3-0.3,3.3-0.2c1.1,0.1,2.3,0.5,3.2,1c2.1,1,3.4,2.8,4.6,4.4c2.2,3.3,3,6.8,3.6,9.9c0.9,6.3,0.3,12-0.5,16.9
			c-0.9,4.9-2.3,9.2-3.8,12.7c-1.5,3.7-3,6.8-4.5,9.3c-2.9,5.2-5.4,8.6-7.1,10.8s-2.5,3.1-2.5,3.1L145.1,152z"/>
		<path class="st3" d="M63.2,275.5L61,150.2l176.9-1.8l11.4,125.2L63.2,275.5z"/>
		<path class="st1" d="M237.9,148.3l-113.6,1.1l11.5,125.2l113.5-1.1L237.9,148.3z"/>
		<path class="st7" d="M146.1,149.2l-19.7,23.2l2.4,25.9l43.8-49.3L146.1,149.2z"/>
		<path class="st7" d="M202.5,148.7l-71.2,77.3l2.3,24.6l96.2-102.1L202.5,148.7z"/>
		<path class="st7" d="M240.4,175.5l-99.9,99.2l28.2-0.3l74.2-71.6L240.4,175.5z"/>
		<path class="st7" d="M245.7,234.3L204.5,274l27.9-0.3l15.7-14.4L245.7,234.3z"/>
		<path class="st1" d="M248,259.2l-15.7,14.4l17-0.1L248,259.2z"/>
		<path class="st7" d="M223,155.1l16.6,12l0.3,3.5c0,0-3.2-2.1-5.1-3.5c-9.5-6.9-12.7-10.3-12.7-10.3L223,155.1z"/>
		<path class="st1" d="M214,148.6l9.1,6.5l-0.9,1.6c0,0-2.6-0.7-9.7-6c-1.1-0.8-2-1.5-2.9-2.1C211.7,148.6,214,148.6,214,148.6z"/>
		<path class="st7" d="M207.3,171.8l35.3,28l0.3,3.4c0,0-8.1-6-14.6-11.3c-16.3-12.8-22-18.6-22-18.6L207.3,171.8z"/>
		<path class="st1" d="M192.1,159.7l15.4,12.2l-1,1.6c0,0-2.2-0.6-7.9-5.2c-5.7-4.6-7.5-7.1-7.5-7.1L192.1,159.7z"/>
		<path class="st7" d="M228.5,216l16.6,11.7l0.2,1.9l-0.2,0.4c0,0-2.4-0.6-8.9-5.2c-6.5-4.6-8.6-7.2-8.6-7.2L228.5,216z"/>
		<path class="st1" d="M211.3,203.8l17.2,12.2l-0.9,1.6c0,0-2.3-0.6-8.8-5c-6.4-4.6-8.5-7.1-8.5-7.1L211.3,203.8z"/>
		<path class="st7" d="M190.8,189.4l20.5,14.6l-0.9,1.6c0,0-2.8-0.8-10.3-6.2c-7.7-5.4-10.1-8.3-10.1-8.3L190.8,189.4z"/>
		<path class="st1" d="M175,178.1l15.8,11.2l-0.9,1.6c0,0-2.2-0.5-8.1-4.6c-6-4.2-7.7-6.6-7.7-6.6L175,178.1z"/>
		<path class="st7" d="M157.4,165.6L175,178l-0.9,1.7c0,0-2.4-0.6-8.9-5.2c-6.5-4.6-8.6-7.2-8.6-7.2L157.4,165.6z"/>
		<path class="st1" d="M141.5,154.4l15.9,11.3l-0.9,1.6c0,0-2.2-0.5-8.1-4.7c-6-4.2-7.8-6.6-7.8-6.6L141.5,154.4z"/>
		<path class="st7" d="M134.5,149.4l7,4.9l-0.9,1.6c0,0-1.4,0.1-4.6-2.2s-4-3.9-4-3.9l0.2-0.4L134.5,149.4z"/>
		<path class="st1" d="M229.9,248.9l17.3,11.6l-1.7,1.1c0,0-2.3-0.5-8.5-4.6c-6.2-4.1-8.1-6.5-8.1-6.5L229.9,248.9z"/>
		<path class="st7" d="M209,234.9l21,14.1l-0.9,1.6c0,0-2.8-0.7-10.6-6c-7.8-5.3-10.4-8.1-10.4-8.1L209,234.9z"/>
		<path class="st1" d="M191.7,223.2l17.3,11.6l-0.9,1.6c0,0-2.3-0.5-8.8-4.8c-6.4-4.4-8.5-6.8-8.5-6.8L191.7,223.2z"/>
		<path class="st7" d="M171.5,209.7l20.2,13.5l-0.9,1.6c0,0-2.6-0.7-10.2-5.7c-7.6-5-10-7.8-10-7.8L171.5,209.7z"/>
		<path class="st1" d="M155.6,199l15.9,10.7l-0.9,1.6c0,0-2.2-0.3-8.1-4.4c-6-4-7.8-6.3-7.8-6.3L155.6,199z"/>
		<path class="st7" d="M138.2,187.3l17.4,11.7l-0.9,1.6c0,0-2.4-0.5-8.9-4.8c-6.5-4.4-8.6-6.9-8.6-6.9L138.2,187.3z"/>
		<path class="st1" d="M127.1,179.8l11.1,7.5l-0.9,1.6c0,0-2.3-0.5-8.5-4.6c-0.5-0.3-1.4-1-1.4-1L127.1,179.8z"/>
		<path class="st1" d="M210.7,267.4l8.9,6.4l-4.5,0l-5.4-4.8L210.7,267.4z"/>
		<path class="st7" d="M190.4,252.9l20.3,14.6l-0.9,1.6c0,0-2.6-0.8-10.3-6.2c-7.6-5.4-10.1-8.4-10.1-8.4L190.4,252.9z"/>
		<path class="st1" d="M173.8,241.1l16.5,11.8l-0.9,1.6c0,0-2.3-0.5-8.5-4.9c-6.2-4.5-8-6.9-8-6.9L173.8,241.1z"/>
		<path class="st7" d="M154.9,227.4l18.9,13.6l-0.9,1.6c0,0-2.5-0.7-9.6-5.7c-7.1-5.2-9.4-7.9-9.4-7.9L154.9,227.4z"/>
		<path class="st1" d="M139.6,216.5l15.3,11l-0.9,1.5c0,0-2.2-0.5-7.9-4.5c-5.7-4.1-7.5-6.4-7.5-6.4L139.6,216.5z"/>
		<path class="st7" d="M129.8,209.4l9.8,7l-0.9,1.6l-8.5-4.9L129.8,209.4z"/>
		<path class="st1" d="M154.2,260.6l19,13.7l-4.5,0c0,0-2.9-1.9-4.8-3.3c-8-5.7-10.7-8.8-10.7-8.8L154.2,260.6z"/>
		<path class="st7" d="M133.1,245.3l21.2,15.2l-0.9,1.6c0,0-3-1-11.8-7.3c-3.7-2.7-8.1-6.3-8.1-6.3L133.1,245.3z"/>
		<path class="st5" d="M85.8,149.9l8.4,125.2h7.1l-3.6-125.3L85.8,149.9z"/>
		<path class="st8" d="M170.9,149L181,274.2l19.6-0.2l-4.5-125.2L170.9,149z"/>
		<path class="st1" d="M202.5,274l-26.5,0.2l-0.1-1.3c0,0,2.9-0.7,12.7-0.8c9.9-0.1,13.8,0.5,13.8,0.5L202.5,274z"/>
	</g>
</g>
<path class="st9" d="M47.1,244.9c-0.1,0.1-0.1,0.1-0.1,0.1c-0.1,0.1-0.1,0.1-0.1,0.2s-0.1,0.1-0.1,0.1c-0.1,0-0.1-0.1-0.2-0.1
	c-0.2-0.1-0.4-0.1-0.7-0.1c-0.5-0.1-1-0.1-1.5-0.1c-1,0-2.1,0.1-3.2,0.1c-1,0.1-2.1,0.2-3.2,0.3l-1.6,0.2l-2.4,0.3l-0.5-1.6
	l-0.1-0.7l-0.4-1.5c-0.3-1-0.6-2-0.9-3c-0.3-1-0.7-2-1.1-2.9c-0.2-0.5-0.4-0.9-0.7-1.3c-0.1-0.1-0.1-0.2-0.2-0.3l-0.1-0.1l-0.1,0.3
	c-0.1,0.4-0.1,1-0.1,1.4c0,1,0.1,2,0.2,3.1c0.1,1,0.3,2,0.4,3.1l0.3,1.6l0.2,1.2l0.3,1.6l-1.8-0.3l-1.3-0.1l-1.7-0.2
	c-1.2-0.1-2.3-0.2-3.5-0.3c-1.2-0.1-2.3-0.1-3.5-0.1c-0.6,0-1.1,0.1-1.7,0.1c-0.3,0.1-0.6,0.1-0.8,0.1l0.2,0.1l0.3,0.2
	c0.2,0.1,0.5,0.2,0.7,0.3c1,0.4,2,0.7,3,1c2.1,0.6,4.2,1.2,6.4,1.6l2.5,0.5l-0.6,1.4l-0.4,1l-0.6,1.4c-0.3,0.9-0.7,1.8-1,2.7
	c-0.3,0.9-0.6,1.8-0.8,2.7c-0.1,0.5-0.1,0.9-0.2,1.3c0,0.1,0,0.2,0,0.3s0,0.2,0,0.2l0.1-0.1c0.3-0.3,0.6-0.6,0.9-1
	c0.6-0.7,1.1-1.6,1.7-2.4c0.6-0.8,1-1.6,1.5-2.5l0.7-1.3l0.6-1.2l0.7-1.4l1,1.2l0.9,1l1,1.2c0.7,0.7,1.4,1.5,2.1,2.2
	c0.7,0.7,1.4,1.4,2.2,2c0.3,0.3,0.8,0.5,1.1,0.7h0.1c0,0,0-0.1-0.1-0.3c0-0.1-0.1-0.2-0.1-0.3c-0.1-0.4-0.3-0.9-0.6-1.3
	c-0.5-0.9-1-1.7-1.6-2.6c-0.6-0.8-1.2-1.7-1.8-2.5l-1-1.2l-0.9-1.1l-1-1.2l1.6-0.3l1.4-0.3l1.6-0.4c1-0.3,2.1-0.6,3.1-0.9
	c1-0.3,2-0.7,3-1.1c0.5-0.2,1-0.4,1.3-0.7c0.2-0.1,0.3-0.3,0.4-0.3c0,0,0,0,0.1,0.1c0.1,0.1,0.1,0.1,0.3,0.1c0,0,0,0,0.1,0
	c-0.1,0-0.1,0.1-0.2,0.1l0.6-0.4c0,0,0,0.1,0.1,0.1c0.1,0.1,0,0.1,0.1,0.2c0,0.1,0,0.2-0.1,0.3c-0.3,0.4-0.9,0.9-1.8,1.4
	c-1,0.5-2.2,1-3.8,1.6c-0.8,0.3-1.7,0.5-2.6,0.9c-0.8,0.2-1.6,0.5-2.5,0.7c0.1,0.1,0.3,0.3,0.4,0.5c0.3,0.3,0.6,0.7,0.8,1
	c0.6,0.7,1.2,1.5,1.8,2.4c0.6,0.8,1.2,1.8,1.9,2.8c0.3,0.5,0.6,1,0.8,1.6c0.1,0.3,0.2,0.6,0.3,1c0,0.1,0,0.1,0,0.1v0.2
	c0,0.1,0,0.3,0,0.4c0,0.1,0,0.3-0.1,0.4c-0.1,0.1-0.1,0.3-0.1,0.3c-0.1,0-0.1,0.1-0.2,0.1c-0.1,0.1-0.1,0.1-0.2,0.2
	c-0.1,0.1-0.1,0.1-0.2,0.1l-0.3,0.1c-0.3,0.1-0.8,0-1.1-0.2c-0.2-0.1-0.3-0.1-0.4-0.2s-0.2-0.1-0.3-0.2c-0.2-0.1-0.4-0.3-0.6-0.4
	c-0.8-0.6-1.5-1.3-2.3-2c-0.8-0.7-1.5-1.5-2.3-2.3c-0.3-0.4-0.8-0.8-1.1-1.2l-0.3-0.3l-0.1-0.1v0.1c0,0,0,0-0.1,0.1
	c-0.2,0.4-0.4,0.8-0.6,1.2c-0.5,0.8-1,1.7-1.4,2.5c-0.6,0.9-1.1,1.7-1.8,2.6c-0.3,0.4-0.7,0.9-1.2,1.3c-0.1,0.1-0.7,0.5-1.2,0.7
	c-0.3,0.1-0.5,0.1-0.8,0c-0.3,0-0.4-0.2-0.6-0.3c-0.1-0.1-0.3-0.3-0.3-0.5c-0.1-0.2-0.2-0.4-0.2-0.6c-0.1-0.3-0.1-0.3-0.1-0.5
	c0-0.1,0-0.3,0-0.4c0-0.5,0.1-1,0.2-1.6c0.2-1,0.5-1.9,0.8-2.9c0.3-1,0.6-1.9,1-2.9c0.2-0.5,0.4-1,0.6-1.4l0.1-0.3
	c0.1-0.1,0-0.1,0-0.1c-0.6-0.1-1.2-0.3-1.9-0.4c-0.8-0.2-1.5-0.4-2.3-0.5c-1.4-0.4-2.8-0.7-4.1-1.2c-1.2-0.4-2.3-0.8-3.1-1.3
	c-0.1-0.1-0.3-0.2-0.4-0.3c-0.1-0.1-0.3-0.2-0.4-0.3c-0.1-0.1-0.2-0.3-0.3-0.3c-0.1-0.1-0.1-0.3-0.1-0.4c-0.1-0.3-0.1-0.5,0-0.7
	c0-0.1,0.1-0.1,0.1-0.1v-0.1c0.1-0.1,0.1-0.1,0.1-0.2c0-0.3,0.1-0.5,0.3-0.6c0.2-0.1,0.3-0.2,0.6-0.3l0.3-0.1
	c0.1-0.1,0.2-0.1,0.3-0.1l0.3-0.1c0.5-0.1,0.9-0.1,1.3-0.1c0.8-0.1,1.7-0.1,2.5-0.1c1.6,0.1,3,0.1,4.3,0.3c1.2,0.1,2.3,0.3,3.2,0.3
	c0.2,0,0.4,0.1,0.6,0.1H29h0.1v-0.1c-0.1-0.3-0.1-0.7-0.2-1c-0.1-0.7-0.2-1.4-0.3-2.2c-0.2-1.4-0.3-2.8-0.4-4.2c0-0.7-0.1-1.4,0-2
	c0-0.3,0.1-0.7,0.1-1c0-0.1,0.1-0.4,0.2-0.7c0.1-0.2,0.3-0.5,0.5-0.6c0.1-0.1,0.2-0.1,0.3-0.2c0.1,0,0.3-0.1,0.4-0.1
	c0.1,0,0.3,0,0.3,0l0.3,0.1c0.2,0.1,0.5,0.3,0.6,0.4c0.2,0.2,0.3,0.3,0.4,0.4c0.4,0.5,0.7,1,0.9,1.6c0.9,2,1.4,3.9,1.9,5.4
	c0.2,0.8,0.4,1.5,0.6,2.2c0.1,0.3,0.1,0.7,0.2,1c0,0.1,0.1,0.2,0.1,0.3c1-0.1,1.9-0.2,2.8-0.3c1-0.1,1.9-0.2,2.8-0.3
	c1.7-0.1,3-0.1,4.1-0.1c1,0,1.8,0.1,2.3,0.3c0.1,0.1,0.3,0.1,0.3,0.1c0.1,0.1,0.2,0.1,0.3,0.1c0.1,0.1,0.2,0.2,0.2,0.2L47.1,244.9z"
	/>
</svg>
