<svg width="298" height="286" viewBox="0 0 298 286" fill="none" xmlns="http://www.w3.org/2000/svg">
<rect x="4.64038" y="6.87939" width="293.32" height="274" fill="#D9E4E9"/>
<path d="M84.9 57.5794C82.2 57.4794 78.4 57.2794 74.1 57.0794C71.9 56.9794 69.6 56.8794 67.1 56.7794C64.7 56.6794 62.2 56.5794 59.6 56.4794C54.6 56.2794 49.5 56.1794 44.8 56.2794C56.2 44.7794 69.1 29.8794 69.1 29.8794C69.1 29.8794 54.3 42.6794 42.8 53.8794C42.8 30.7794 40.8 0.879395 40.8 0.879395C40.8 0.879395 38.9 30.7794 38.8 53.8794C28.6 43.8794 15.1 32.3794 15.1 32.3794C15.1 32.3794 26.8 46.1794 37 56.4794C29.5 56.6794 21.7 57.0794 15.2 57.4794C6.4 58.0794 0 58.6794 0 58.6794C0 58.6794 6.3 59.2794 15.1 59.9794C21.3 60.3794 28.6 60.8794 35.8 61.0794C25.5 71.7794 15.1 83.8794 15.1 83.8794C15.1 83.8794 27.9 72.8794 38.9 62.2794C39.2 84.0794 40.8 108.679 40.8 108.679C40.8 108.679 42.4 84.0794 42.7 62.1794C52.3 71.2794 63 80.3794 63 80.3794C63 80.3794 54.5 70.3794 45.8 61.0794C50.3 60.9794 55 60.7794 59.7 60.5794C61 60.4794 62.2 60.3794 63.5 60.3794C64.7 60.2794 66 60.1794 67.2 60.0794C69.6 59.8794 72 59.6794 74.1 59.4794C78.5 59.0794 82.2 58.6794 84.9 58.3794C87.6 58.0794 89.2 57.8794 89.2 57.8794C89.2 57.8794 87.6 57.7794 84.9 57.5794Z" fill="#72BAD1"/>
<g clip-path="url(#clip0)">
<path d="M269.037 93.806L269.097 93.7459C269.995 92.8451 270.894 91.8842 271.733 90.9833C273.53 89.1816 275.207 87.3799 276.765 85.8184C279.82 82.6954 282.037 80.4132 282.037 80.4132C282.037 80.4132 279.581 82.4552 276.286 85.3379C274.608 86.7793 272.811 88.4609 270.954 90.2026C269.995 91.0434 269.097 91.9442 268.198 92.8451C268.078 92.9652 267.959 93.0252 267.899 93.1454C267.599 80.2931 266.76 65.8794 266.76 65.8794C266.76 65.8794 265.922 80.3532 265.742 93.1454C260.171 87.8003 254.06 82.3351 254.06 82.3351C254.06 82.3351 259.272 88.2207 264.484 93.6859C262.447 93.6859 260.35 93.7459 258.253 93.806C257.535 93.806 256.756 93.866 256.037 93.866C255.318 93.9261 254.599 93.9261 253.88 93.9862C252.442 94.0462 251.124 94.1663 249.806 94.2264C244.714 94.5267 241 94.827 241 94.827C241 94.827 244.714 95.0672 249.806 95.2474C251.065 95.3074 252.442 95.3675 253.88 95.4275C254.599 95.4275 255.318 95.4876 256.037 95.4876C256.756 95.4876 257.475 95.5477 258.253 95.5477C260.53 95.6077 262.806 95.7278 264.963 95.7278C264.304 96.3885 263.585 97.1091 262.866 97.8899C261.968 98.7907 261.129 99.7517 260.23 100.653C258.493 102.514 256.816 104.376 255.378 105.998C252.502 109.301 250.465 111.763 250.465 111.763C250.465 111.763 252.742 109.541 255.917 106.538C257.475 105.037 259.272 103.295 261.069 101.493C261.968 100.592 262.926 99.6916 263.825 98.8508C264.484 98.2502 265.083 97.5896 265.682 96.989C265.682 97.0491 265.682 97.1692 265.682 97.2293C265.682 110.802 266.76 128.699 266.76 128.699C266.76 128.699 267.839 110.802 267.839 97.2293C267.839 97.1692 267.839 97.1692 267.839 97.1091C273.829 103.115 282.037 110.322 282.037 110.322C282.037 110.322 274.548 101.974 268.498 95.908C279.461 95.8479 293 94.9471 293 94.9471C293 94.9471 279.94 93.9261 269.037 93.806Z" fill="#FF606F"/>
</g>
<g clip-path="url(#clip1)">
<path d="M221 37.6794C221 38.7794 227.3 39.6794 235.5 39.8794C235.7 49.4794 236.6 56.8794 237.6 56.8794C238.7 56.8794 239.6 49.4794 239.7 39.8794C247.3 39.6794 253.1 38.7794 253.1 37.7794C253.1 36.6794 247.3 35.7794 239.7 35.6794C239.7 25.1794 238.8 16.8794 237.6 16.8794C236.5 16.8794 235.5 25.1794 235.4 35.5794C227.3 35.6794 221 36.5794 221 37.6794Z" fill="#B3C8D3"/>
</g>
<g clip-path="url(#clip2)">
<path d="M190.452 117.714C187.569 94.5922 165.778 54.7068 157.938 45.9204C150.559 37.7121 134.533 24.8794 134.533 24.8794C134.533 24.8794 138.569 46.036 140.183 52.1634C140.183 52.1634 137.762 48.5794 135.34 44.6487C134.879 67.5395 130.498 87.6556 130.498 87.6556C67.662 108.928 69.2761 160.374 69.2761 160.374C69.2761 160.374 14.1649 193.323 31.3439 197.832C43.4499 200.953 59.2454 180.606 59.2454 180.606L54.0571 194.826C65.5866 193.67 73.542 170.664 73.542 170.664C73.542 170.664 83.688 196.098 127.039 193.901C188.607 190.549 194.372 149.507 190.452 117.714Z" fill="#FF606F"/>
<path d="M145.947 175.172C145.947 175.057 145.256 176.791 144.91 179.45C144.679 180.837 144.679 182.34 144.91 183.959C145.025 184.421 145.025 184.768 145.14 185.23C145.256 185.693 145.371 186.04 145.486 186.502C145.717 187.311 146.178 188.121 146.409 188.93C146.87 189.624 147.331 190.433 147.792 191.011C148.369 191.589 148.83 192.283 149.406 192.861C149.983 193.439 150.559 193.901 151.136 194.364C151.712 194.71 152.289 195.173 152.865 195.52C153.096 195.635 153.442 195.866 153.672 195.982C153.903 196.098 154.249 196.213 154.479 196.329C154.94 196.56 155.402 196.791 155.747 196.907C156.439 197.254 156.785 197.369 156.785 197.369L156.093 199.219C156.093 199.219 155.286 199.104 153.211 198.41C152.634 198.294 152.173 197.947 151.482 197.601C151.136 197.369 150.79 197.254 150.444 197.023C150.098 196.791 149.637 196.56 149.291 196.329C148.945 195.982 148.484 195.751 148.138 195.404C147.907 195.288 147.677 195.057 147.446 194.942C147.216 194.71 147.1 194.479 146.87 194.248C146.409 193.786 146.063 193.323 145.601 192.861C145.256 192.283 144.794 191.705 144.449 191.011C142.95 188.352 142.488 185.693 142.373 183.496C142.258 181.3 142.604 179.565 142.95 178.178C143.296 176.906 143.757 175.982 143.987 175.404C144.218 174.825 144.449 174.594 144.449 174.594L145.947 175.172Z" fill="#2D3962"/>
<path d="M104.21 100.373C68.1229 124.535 69.2759 160.374 69.2759 160.374C69.2759 160.374 14.1646 193.323 31.3436 197.832C43.4497 200.954 59.2451 180.606 59.2451 180.606L54.0569 194.826C65.5864 193.67 73.5418 170.664 73.5418 170.664C73.5418 170.664 83.6878 196.098 127.039 193.901C159.552 192.167 176.501 179.912 184.687 164.074C159.206 167.311 121.735 159.45 104.21 100.373Z" fill="#C24751"/>
<path d="M157.938 45.9204C157.938 45.9204 147.446 57.7126 151.251 78.8693C156.324 107.194 190.451 117.714 190.451 117.714C190.451 117.714 186.877 96.5576 177.192 76.2102C167.738 56.3253 157.938 45.9204 157.938 45.9204Z" fill="#2D3962"/>
<path d="M159.322 76.2101C159.437 78.1755 158.284 79.794 156.9 79.6784C155.517 79.5628 154.364 77.9443 154.249 75.8633C154.133 73.8979 155.286 72.2794 156.67 72.395C158.169 72.5106 159.322 74.2448 159.322 76.2101Z" fill="#FFFCF2"/>
<path d="M167.969 69.6205L201.75 64.5337L176.616 84.1874C176.616 84.1874 168.199 80.3723 167.969 69.6205Z" fill="#A49D9E"/>
<path d="M72.9653 176.444L66.5088 190.317C76.6548 188.583 72.9653 176.444 72.9653 176.444Z" fill="#C24751"/>
<path d="M148.945 159.796C145.602 163.265 141.681 165.924 137.531 167.889C133.38 169.854 128.999 171.126 124.618 172.051C115.855 173.785 106.862 173.554 98.3304 171.704C94.0644 170.779 89.7985 169.392 85.8785 167.542C83.9184 166.502 81.9584 165.461 80.229 163.958C79.3066 163.265 78.4996 162.455 77.8078 161.415C77.116 160.49 76.4242 159.334 76.1936 157.947C75.9631 156.559 76.1937 155.056 76.8854 153.9C77.4619 152.744 78.3843 151.704 79.1913 150.894C80.9208 149.16 82.8808 147.889 84.9561 146.732C88.9915 144.42 93.1421 142.686 97.408 141.183L97.5233 143.033C94.8715 142.802 92.335 142.455 89.7985 141.299C88.6456 140.721 87.262 139.911 86.5702 138.293C86.2244 137.484 86.1091 136.559 86.3397 135.634C86.5702 134.825 86.8008 134.015 87.262 133.322C88.1844 131.934 89.3373 131.01 90.6056 130.316C91.8738 129.622 93.1421 129.16 94.4103 128.697C95.6786 128.35 97.0621 128.004 98.3304 127.888L99.4833 127.772L99.0222 127.31C98.2151 126.616 97.5233 125.691 96.8315 124.767C96.2551 123.726 95.7939 122.57 95.6786 121.298C95.5633 120.027 95.9092 118.639 96.4857 117.599C97.0621 116.443 97.9845 115.518 99.0222 114.824C100.06 114.13 101.213 113.899 102.25 113.668C103.403 113.552 104.441 113.552 105.479 113.668C106.516 113.784 107.554 114.015 108.592 114.362L108.13 115.633C108.13 115.633 107.785 115.518 106.978 115.287C106.17 115.171 104.902 114.824 103.057 114.94C102.135 115.055 101.097 115.171 100.06 115.749C99.0222 116.327 97.9845 117.368 97.5233 118.755C97.408 118.986 97.408 119.102 97.2927 119.333C97.2927 119.564 97.1774 119.68 97.1774 119.911C97.0621 120.258 97.1774 120.72 97.1774 121.067C97.2927 121.876 97.5233 122.686 97.9845 123.495C98.4457 124.304 99.1374 124.998 99.8292 125.691C100.06 125.807 100.175 126.038 100.406 126.154C100.752 126.385 101.097 126.732 101.559 126.963L102.25 127.426L103.057 127.888C103.634 128.235 104.095 128.582 104.672 128.813C104.556 128.813 104.326 128.813 104.095 128.813H103.403C102.942 128.813 102.481 128.813 102.02 128.813C101.559 128.813 101.097 128.813 100.636 128.929C100.175 128.929 99.8292 129.044 99.368 129.044C98.4457 129.16 97.408 129.391 96.3704 129.622C94.295 130.085 91.9891 130.778 90.0291 132.281C89.1067 133.669 88.1844 134.709 87.9538 135.981C87.8385 136.559 87.8385 137.137 88.0691 137.599C88.2997 138.062 88.6456 138.524 89.222 138.987C90.2597 139.796 91.6432 140.258 93.1421 140.605C94.6409 140.952 96.1398 141.183 97.7539 141.299L102.481 141.53L97.9845 143.033C95.448 143.842 92.335 145.114 88.9915 146.732C87.262 147.542 85.5326 148.582 83.8032 149.738C82.0737 150.894 80.3443 152.282 79.076 154.016C78.6149 154.71 78.269 155.519 78.1537 156.328C78.0384 157.137 78.1537 157.831 78.4996 158.64C79.1913 160.143 80.3443 161.415 81.6125 162.455C84.149 164.536 87.1467 166.039 90.0291 167.195C95.7939 169.508 101.443 170.664 106.632 171.126C117.008 172.167 125.54 170.779 131.881 168.698C138.223 166.617 142.373 163.958 144.91 161.993C146.178 161.068 147.1 160.259 147.677 159.681C148.253 159.103 148.484 158.872 148.484 158.872L148.945 159.796Z" fill="#FF606F"/>
<path d="M150.098 111.356C150.098 111.356 150.559 112.049 151.366 113.205C151.597 113.437 151.827 113.784 152.058 114.13C152.289 114.477 152.519 114.94 152.75 115.286C153.211 116.096 153.787 117.021 154.249 118.177C154.479 118.755 154.825 119.333 155.056 119.911C155.286 120.489 155.517 121.183 155.747 121.761C156.324 123.032 156.67 124.42 157.131 125.923C157.823 128.928 158.399 132.166 158.399 135.518C158.399 138.871 158.053 142.224 157.246 145.229C157.016 146.039 156.785 146.732 156.554 147.426C156.439 147.773 156.324 148.12 156.209 148.467C156.093 148.813 155.978 149.16 155.747 149.507C155.401 150.201 155.171 150.779 154.94 151.472C154.594 152.05 154.249 152.628 154.018 153.207C153.672 153.785 153.441 154.247 153.096 154.709C152.75 155.172 152.404 155.634 152.173 156.097C151.827 156.559 151.597 156.906 151.366 157.253C151.136 157.6 150.79 157.947 150.559 158.178C149.637 159.218 149.06 159.912 149.06 159.912L148.253 158.987C148.253 158.987 148.484 158.64 148.945 158.062C149.406 157.368 150.213 156.444 151.251 154.825C151.481 154.478 151.827 154.016 152.058 153.553C152.289 153.091 152.634 152.513 152.865 152.05C153.557 151.01 153.903 149.623 154.594 148.12C155.632 145.114 156.554 141.299 156.67 136.559C156.785 131.819 155.978 127.888 155.056 124.766C154.825 123.957 154.594 123.264 154.364 122.57C154.133 121.876 153.903 121.183 153.672 120.605C153.096 119.448 152.75 118.292 152.289 117.367C151.827 116.443 151.366 115.633 151.02 115.055C150.674 114.477 150.328 113.899 150.098 113.552C149.637 112.743 149.406 112.396 149.406 112.396L150.098 111.356Z" fill="#FFFCF2"/>
<path d="M168.776 74.5916L201.52 63.6086L201.866 64.8804C201.866 64.8804 198.407 66.7301 186.185 70.7765C173.964 74.8228 169.122 75.8633 169.122 75.8633L168.776 74.5916Z" fill="#2D3962"/>
<path d="M124.618 183.034C124.618 183.034 124.157 183.265 123.349 183.728C122.542 184.19 121.389 184.999 120.237 186.04C119.084 187.08 118.161 188.699 118.392 190.086C118.507 190.78 119.084 191.705 119.66 192.63C120.237 193.439 120.928 194.248 121.62 195.057C124.618 198.063 128.422 200.375 131.305 201.878C132.804 202.688 133.957 203.266 134.879 203.613C135.686 203.959 136.263 204.191 136.263 204.191L135.571 206.04C135.571 206.04 134.533 205.925 131.997 205C130.728 204.537 129.114 203.844 127.154 202.688C125.194 201.532 122.773 200.144 120.237 197.601C119.545 197.023 119.084 196.329 118.507 195.635C118.046 194.942 117.469 194.248 117.124 193.554C116.778 192.745 116.316 192.283 116.086 191.358C115.971 191.127 115.971 190.895 115.855 190.78C115.855 190.549 115.855 190.317 115.74 190.086C115.74 189.855 115.74 189.624 115.74 189.393C115.74 189.161 115.74 188.93 115.855 188.814C116.086 187.196 116.893 185.924 117.7 185.115C118.507 184.306 119.199 183.612 119.891 183.15C121.274 182.225 122.312 181.762 123.004 181.415C123.695 181.184 124.041 181.069 124.041 181.069L124.618 183.034Z" fill="#2D3962"/>
<path d="M137.877 203.266L139.721 211.705L137.992 212.283C137.992 212.283 136.954 211.59 136.263 208.468C135.571 205.347 136.147 203.844 136.147 203.844L137.877 203.266Z" fill="#2D3962"/>
<path d="M141.797 203.15L143.065 211.59L141.336 211.937C141.336 211.937 140.298 211.243 139.837 208.121C139.376 205 140.067 203.613 140.067 203.613L141.797 203.15Z" fill="#2D3962"/>
<path d="M146.063 202.456L146.293 210.549L144.449 210.665C144.449 210.665 143.526 209.855 143.411 206.849C143.296 203.844 144.218 202.572 144.218 202.572L146.063 202.456Z" fill="#2D3962"/>
<path d="M157.016 196.445L158.86 204.306L157.131 204.884C157.131 204.884 156.093 204.306 155.402 201.416C154.71 198.526 155.286 197.138 155.286 197.138L157.016 196.445Z" fill="#2D3962"/>
<path d="M160.936 196.329L162.204 204.191L160.475 204.653C160.475 204.653 159.437 203.959 158.976 201.069C158.514 198.179 159.206 196.792 159.206 196.792L160.936 196.329Z" fill="#2D3962"/>
<path d="M165.202 195.751L165.432 203.266L163.588 203.381C163.588 203.381 162.665 202.688 162.55 199.797C162.435 197.023 163.357 195.867 163.357 195.867L165.202 195.751Z" fill="#2D3962"/>
<path d="M227 170.433C227 170.433 224.579 171.82 220.198 174.132C215.816 176.444 209.59 179.566 202.096 183.15C186.993 190.433 166.47 199.451 145.601 207.428C124.733 215.52 103.519 222.457 87.3773 227.197C83.3419 228.353 79.6525 229.509 76.4242 230.434C73.0806 231.359 70.3135 232.053 67.8923 232.746C63.1652 234.018 60.5134 234.712 60.5134 234.712L60.0522 232.862C60.0522 232.862 64.6641 231.359 77.3466 227.659C89.9138 223.729 110.552 217.601 141.797 205.809C172.927 193.901 193.91 184.19 207.169 177.947C213.856 174.71 218.584 172.398 221.697 170.895C224.809 169.392 226.193 168.583 226.193 168.583L227 170.433Z" fill="#2D3962"/>
<path d="M71.9277 206.04C71.9277 206.04 73.4265 206.272 76.7701 206.734C78.3842 206.965 80.4595 207.428 83.1113 208.006C85.6478 208.468 88.6455 209.393 92.1044 210.318C99.0221 212.399 103.634 214.017 106.632 215.058C109.514 216.098 110.782 216.676 110.782 216.676L110.206 217.948C110.206 217.948 109.053 217.833 106.17 217.139C103.288 216.445 98.6762 215.173 91.5279 213.093C87.9537 212.168 84.9561 211.243 82.4196 210.665C81.1513 210.318 79.9984 210.087 78.9607 209.855C77.923 209.624 77.0007 209.509 76.1936 209.277C72.9653 208.584 71.5818 208.237 71.5818 208.237L71.9277 206.04Z" fill="#2D3962"/>
<path d="M90.7208 225.694C90.7208 225.694 90.6055 226.041 90.3749 226.503C90.1443 226.966 89.9137 227.659 89.5678 228.584C89.2219 229.394 88.7608 230.318 88.1843 231.359C87.6078 232.284 87.0313 233.44 86.3395 234.365C85.6478 235.405 85.0713 236.446 84.3795 237.255C83.6877 238.18 83.1113 238.989 82.4195 239.683C81.1512 241.07 80.3442 241.879 80.3442 241.879L79.0759 240.608C79.0759 240.608 79.3065 240.03 79.9983 238.874C80.3442 238.296 80.9207 237.602 81.4971 236.561C81.843 236.099 82.1889 235.521 82.5348 234.943C82.996 234.365 83.3419 233.671 83.803 232.977C85.6478 230.087 86.8007 228.122 87.6078 226.735C88.4149 225.463 88.876 224.885 88.876 224.885L90.7208 225.694Z" fill="#2D3962"/>
<path d="M87.1466 103.379C85.6477 109.043 81.2665 112.627 78.2688 108.928C75.2711 105.344 76.5394 100.488 79.5371 99.7946C82.4195 98.9853 88.2995 99.1009 87.1466 103.379Z" fill="#C3C3C3"/>
<path d="M218.238 117.136C215.125 114.824 213.972 111.124 216.969 110.2C219.967 109.159 222.619 111.24 222.388 113.205C222.158 115.286 220.659 118.986 218.238 117.136Z" fill="#C3C3C3"/>
<path d="M41.9508 152.628C38.8378 150.316 37.6849 146.617 40.6825 145.692C43.6802 144.651 46.332 146.732 46.1014 148.698C45.8708 150.779 44.372 154.363 41.9508 152.628Z" fill="#C3C3C3"/>
<path d="M179.037 49.2732C175.924 46.961 174.771 43.2614 177.769 42.3366C180.767 41.2961 183.418 43.377 183.188 45.3424C182.957 47.3078 181.458 51.0073 179.037 49.2732Z" fill="#C3C3C3"/>
<path d="M107.439 62.3369C110.091 61.8745 112.396 62.915 111.589 64.8804C110.667 66.8457 108.476 67.3082 107.554 66.2677C106.632 65.2272 105.479 62.7994 107.439 62.3369Z" fill="#C3C3C3"/>
<path d="M60.6287 212.168C63.2805 211.705 65.5864 212.746 64.7793 214.711C63.857 216.676 61.6663 217.139 60.744 216.098C59.8216 215.058 58.6687 212.514 60.6287 212.168Z" fill="#C3C3C3"/>
<path d="M197.946 151.01C200.597 150.548 202.903 151.588 202.096 153.553C201.174 155.519 198.983 155.981 198.061 154.941C197.023 153.9 195.87 151.357 197.946 151.01Z" fill="#C3C3C3"/>
<path d="M61.2052 76.5572C63.857 76.0947 66.1629 77.1352 65.3558 79.1006C64.4334 81.066 62.2428 81.5284 61.3204 80.4879C60.2828 79.4474 59.1298 77.0196 61.2052 76.5572Z" fill="#C3C3C3"/>
<path d="M199.214 197.138C201.866 196.676 204.172 197.716 203.365 199.682C202.442 201.647 200.252 202.109 199.329 201.069C198.407 200.028 197.254 197.485 199.214 197.138Z" fill="#C3C3C3"/>
</g>
<g clip-path="url(#clip3)">
<path d="M15 249.679C15 250.679 20.4 251.379 27.4 251.479C27.5 259.679 28.3 265.979 29.2 265.979C30.1 265.979 30.9 259.679 31 251.379C37.5 251.279 42.5 250.479 42.5 249.579C42.5 248.679 37.5 247.879 31 247.779C31 238.979 30.2 231.879 29.2 231.879C28.2 231.879 27.4 238.979 27.4 247.879C20.4 247.979 15 248.779 15 249.679Z" fill="#B3C8D3"/>
</g>
<g clip-path="url(#clip4)">
<path d="M179.241 244.92C179.171 244.988 179.102 244.988 179.102 245.056C179.033 245.124 179.033 245.124 178.964 245.26C178.895 245.396 178.895 245.328 178.895 245.328C178.826 245.328 178.757 245.26 178.688 245.26C178.481 245.192 178.274 245.192 177.998 245.192C177.515 245.124 176.962 245.124 176.479 245.124C175.443 245.124 174.339 245.192 173.303 245.26C172.268 245.328 171.163 245.464 170.128 245.6L168.54 245.805L166.123 246.145L165.64 244.512L165.502 243.764L165.088 242.267C164.812 241.247 164.536 240.226 164.19 239.274C163.845 238.322 163.5 237.301 163.086 236.417C162.879 235.941 162.671 235.532 162.395 235.124C162.326 234.988 162.257 234.92 162.188 234.852L162.119 234.716L162.05 234.988C161.981 235.396 161.981 235.941 161.981 236.417C161.981 237.437 162.05 238.458 162.188 239.478C162.326 240.498 162.464 241.519 162.602 242.607L162.879 244.172L163.086 245.396L163.431 246.961L161.636 246.689L160.324 246.553L158.598 246.349C157.425 246.213 156.251 246.145 155.077 246.009C153.904 245.941 152.73 245.873 151.625 245.873C151.073 245.873 150.521 245.941 149.969 246.009C149.692 246.077 149.416 246.077 149.209 246.145L149.416 246.281L149.761 246.485C149.969 246.621 150.245 246.689 150.452 246.825C151.418 247.233 152.454 247.573 153.489 247.845C155.561 248.458 157.701 249.002 159.841 249.478L162.326 250.022L161.705 251.383L161.291 252.403L160.738 253.764C160.393 254.648 160.048 255.6 159.772 256.485C159.496 257.369 159.22 258.322 159.012 259.206C158.943 259.682 158.874 260.09 158.805 260.498C158.805 260.566 158.805 260.703 158.805 260.771C158.805 260.839 158.805 260.975 158.805 260.975L158.874 260.907C159.151 260.634 159.496 260.294 159.772 259.954C160.324 259.206 160.877 258.39 161.429 257.573C161.981 256.757 162.464 255.941 162.948 255.056L163.638 253.764L164.259 252.539L164.95 251.179L165.916 252.403L166.814 253.424L167.849 254.58C168.54 255.328 169.23 256.077 169.92 256.757C170.611 257.437 171.37 258.117 172.13 258.73C172.475 259.002 172.889 259.274 173.234 259.478H173.303C173.303 259.478 173.303 259.342 173.234 259.206C173.234 259.138 173.165 259.002 173.165 258.934C173.027 258.526 172.82 258.049 172.613 257.641C172.13 256.757 171.577 255.941 171.025 255.056C170.473 254.24 169.851 253.356 169.23 252.539L168.264 251.315L167.366 250.226L166.33 249.002L167.918 248.662L169.299 248.322L170.887 247.913C171.923 247.641 172.958 247.301 173.994 247.029C175.029 246.689 175.996 246.349 176.962 245.941C177.446 245.737 177.929 245.532 178.274 245.26C178.481 245.124 178.619 244.988 178.688 244.92C178.688 244.92 178.688 244.92 178.757 244.988C178.826 245.056 178.895 245.056 179.033 245.056C179.033 245.056 179.033 245.056 179.102 245.056C179.033 245.056 178.964 245.124 178.895 245.124L179.517 244.716C179.517 244.716 179.517 244.784 179.586 244.852C179.655 244.92 179.586 244.988 179.655 245.056C179.655 245.124 179.655 245.26 179.586 245.328C179.31 245.737 178.688 246.213 177.791 246.689C176.824 247.165 175.582 247.709 173.994 248.254C173.165 248.526 172.337 248.798 171.37 249.138C170.611 249.342 169.782 249.614 168.885 249.886C169.023 250.022 169.161 250.226 169.299 250.362C169.575 250.703 169.851 251.043 170.128 251.383C170.68 252.131 171.301 252.879 171.923 253.764C172.544 254.58 173.165 255.532 173.787 256.553C174.063 257.097 174.408 257.573 174.615 258.186C174.753 258.458 174.822 258.798 174.96 259.206C174.96 259.274 174.96 259.274 174.96 259.342V259.546C174.96 259.682 174.96 259.818 174.96 259.954C174.96 260.09 174.96 260.226 174.891 260.362C174.822 260.498 174.822 260.634 174.753 260.703C174.684 260.703 174.615 260.771 174.546 260.771C174.477 260.839 174.408 260.907 174.339 260.975C174.27 261.043 174.201 261.043 174.132 261.111L173.856 261.179C173.51 261.247 173.096 261.179 172.751 260.975C172.544 260.907 172.475 260.839 172.337 260.771C172.199 260.703 172.13 260.634 171.992 260.566C171.784 260.43 171.577 260.294 171.37 260.158C170.542 259.546 169.851 258.866 169.092 258.186C168.333 257.437 167.573 256.689 166.814 255.873C166.469 255.464 166.054 255.056 165.709 254.648L165.433 254.376L165.364 254.308V254.376C165.364 254.376 165.364 254.376 165.295 254.512C165.088 254.92 164.881 255.328 164.674 255.737C164.19 256.553 163.707 257.437 163.224 258.254C162.671 259.138 162.119 259.954 161.429 260.839C161.084 261.247 160.738 261.723 160.255 262.131C160.117 262.267 159.565 262.675 159.082 262.811C158.805 262.879 158.598 262.879 158.322 262.811C158.046 262.811 157.908 262.607 157.701 262.471C157.563 262.335 157.425 262.131 157.356 261.995C157.287 261.791 157.148 261.587 157.148 261.383C157.079 261.111 157.079 261.043 157.079 260.839C157.079 260.703 157.079 260.566 157.079 260.43C157.079 259.886 157.148 259.41 157.287 258.866C157.494 257.913 157.77 256.961 158.046 256.009C158.322 255.056 158.667 254.104 159.082 253.152C159.289 252.675 159.496 252.199 159.634 251.723L159.772 251.383C159.841 251.315 159.772 251.315 159.772 251.315C159.151 251.179 158.529 251.043 157.908 250.907C157.148 250.703 156.389 250.498 155.63 250.362C154.18 249.954 152.799 249.614 151.556 249.206C150.314 248.798 149.278 248.39 148.45 247.913C148.381 247.845 148.174 247.709 148.036 247.641C147.897 247.505 147.69 247.437 147.621 247.301C147.552 247.165 147.414 247.029 147.345 246.961C147.276 246.825 147.207 246.689 147.207 246.553C147.138 246.281 147.138 246.077 147.207 245.873C147.207 245.805 147.276 245.805 147.276 245.737V245.669C147.345 245.6 147.345 245.532 147.414 245.464C147.414 245.124 147.552 244.988 147.69 244.852C147.897 244.784 148.036 244.648 148.243 244.58L148.519 244.512C148.657 244.444 148.726 244.444 148.795 244.444L149.14 244.376C149.623 244.308 150.038 244.24 150.452 244.24C151.28 244.172 152.109 244.172 152.937 244.172C154.525 244.24 155.975 244.308 157.218 244.444C158.46 244.58 159.565 244.716 160.462 244.784C160.669 244.784 160.877 244.852 161.084 244.852H161.153H161.222V244.784C161.153 244.444 161.084 244.104 161.015 243.764C160.877 243.015 160.807 242.335 160.669 241.587C160.462 240.158 160.324 238.798 160.255 237.437C160.255 236.757 160.186 236.077 160.255 235.464C160.255 235.124 160.324 234.784 160.393 234.444C160.393 234.308 160.531 234.036 160.6 233.764C160.738 233.56 160.877 233.288 161.084 233.152C161.153 233.083 161.291 233.015 161.429 232.947C161.567 232.947 161.705 232.879 161.843 232.879C161.981 232.879 162.119 232.879 162.188 232.879L162.533 232.947C162.741 233.083 163.017 233.22 163.155 233.356C163.362 233.56 163.431 233.628 163.569 233.764C163.983 234.308 164.259 234.784 164.466 235.328C165.364 237.369 165.916 239.206 166.4 240.771C166.607 241.587 166.814 242.267 166.952 242.947C167.021 243.288 167.09 243.628 167.159 243.9C167.159 243.968 167.228 244.104 167.228 244.172C168.264 244.036 169.161 243.968 169.989 243.832C171.025 243.696 171.923 243.628 172.82 243.56C174.477 243.424 175.858 243.424 176.893 243.424C177.929 243.424 178.688 243.56 179.171 243.696C179.31 243.764 179.448 243.764 179.517 243.832C179.655 243.9 179.724 243.968 179.793 243.968C179.931 244.104 180 244.172 180 244.172L179.241 244.92Z" fill="#C3C3C3"/>
</g>
<rect x="201" y="145.879" width="97" height="140" fill="#94B2C1"/>
<path d="M234.577 187.662L263.903 187.339L237.155 255.445L226.682 258.614L225.446 261.89L260.573 261.568L261.54 259.043L251.281 255.176L278.942 177.833L228.938 177.94L226.198 197.759L230.71 197.867L234.577 187.662ZM263.474 199.371C262.435 203.596 260.734 208.018 258.371 212.637C258.729 210.167 260.43 205.744 263.474 199.371ZM255.578 221.338L252.517 229.019C248.972 237.828 246.161 243.951 244.084 247.388C246.626 240.37 250.869 229.968 256.813 216.182L257.673 215.162L255.578 221.338ZM262.131 211.563C263.706 207.553 265.962 202.199 268.898 195.503C271.87 188.772 273.535 185.477 273.894 185.621C268.737 198.547 264.351 209.289 260.734 217.847L255.256 231.597L254.934 231.49C256.76 225.689 258.729 220.157 260.842 214.893C261.164 214.105 261.594 212.995 262.131 211.563ZM251.872 243.414C250.798 247.639 249.097 252.061 246.77 256.68C247.128 254.209 248.828 249.787 251.872 243.414Z" fill="white"/>
<defs>
<clipPath id="clip0">
<rect width="52" height="63" fill="white" transform="translate(241 65.8794)"/>
</clipPath>
<clipPath id="clip1">
<rect width="32.2" height="40" fill="white" transform="translate(221 16.8794)"/>
</clipPath>
<clipPath id="clip2">
<rect width="199" height="217" fill="white" transform="translate(28 24.8794)"/>
</clipPath>
<clipPath id="clip3">
<rect width="27.5" height="34.2" fill="white" transform="translate(15 231.879)"/>
</clipPath>
<clipPath id="clip4">
<rect width="33" height="30" fill="white" transform="translate(147 232.879)"/>
</clipPath>
</defs>
</svg>
