<svg width="308" height="594" viewBox="0 0 308 594" fill="none" xmlns="http://www.w3.org/2000/svg">
<g clip-path="url(#clip0)">
<path d="M19.6 381.379L10.2 588.079H214.9L254.9 374.879L19.6 381.379Z" fill="#FF606F"/>
<path d="M96.5 415.48L158 377.58L140.2 378.08L97.6 408.78L96.5 415.48Z" fill="#FFFCF2"/>
<path d="M239.3 375.279L84.6 485.679L82.2 499.879L254.4 377.879L254.9 374.879L239.3 375.279Z" fill="#FFFCF2"/>
<path d="M239.2 458.879L71.9999 560.179L70.8999 566.379L235.9 476.579L239.2 458.879Z" fill="#FFFCF2"/>
<path d="M224.4 537.379L125.2 588.079H148.3L222.6 547.179L224.4 537.379Z" fill="#FFFCF2"/>
<path d="M19.5 381.38L0 588.08H67.3L102.6 379.08L19.5 381.38Z" fill="#C24751"/>
<path d="M78.8 436.279C78.8 436.279 82.5 433.379 85.7 432.279C88.9 431.179 93.8 431.179 93.8 431.179C93.8 431.179 90.1 434.079 86.9 435.179C83.7 436.279 78.8 436.279 78.8 436.279Z" fill="#B3C8D3"/>
<path d="M60.0999 442.579C60.0999 442.579 63.7999 439.679 66.9999 438.579C70.1999 437.479 75.0999 437.479 75.0999 437.479C75.0999 437.479 71.3999 440.379 68.1999 441.479C64.9999 442.679 60.0999 442.579 60.0999 442.579Z" fill="#B3C8D3"/>
<path d="M41.3999 448.979C41.3999 448.979 45.0999 446.079 48.2999 444.979C51.4999 443.879 56.3999 443.879 56.3999 443.879C56.3999 443.879 52.6999 446.779 49.4999 447.879C46.2999 448.979 41.3999 448.979 41.3999 448.979Z" fill="#B3C8D3"/>
<path d="M22.7 455.279C22.7 455.279 26.4 452.379 29.6 451.279C32.8 450.179 37.7 450.179 37.7 450.179C37.7 450.179 33.9999 453.079 30.7999 454.179C27.5999 455.379 22.7 455.279 22.7 455.279Z" fill="#B3C8D3"/>
<path d="M12.2 458.879C12.2 458.879 13.5 456.779 15 456.279C16.5 455.779 19 456.579 19 456.579C19 456.579 17.7 458.679 16.2 459.179C14.7 459.679 12.2 458.879 12.2 458.879Z" fill="#B3C8D3"/>
<path d="M158.7 386.779C158.7 386.779 163.5 385.479 166.2 383.679C168.9 381.779 171.3 378.179 171.3 378.179C171.3 378.179 166.5 379.479 163.8 381.279C161.1 383.179 158.7 386.779 158.7 386.779Z" fill="#FFFCF2"/>
<path d="M142.9 397.579C142.9 397.579 145.3 393.979 148 392.079C150.7 390.179 155.5 388.979 155.5 388.979C155.5 388.979 153.1 392.579 150.4 394.479C147.7 396.279 142.9 397.579 142.9 397.579Z" fill="#FFFCF2"/>
<path d="M127.2 408.379C127.2 408.379 129.6 404.779 132.3 402.879C135 400.979 139.8 399.779 139.8 399.779C139.8 399.779 137.4 403.379 134.7 405.279C132 407.079 127.2 408.379 127.2 408.379Z" fill="#FFFCF2"/>
<path d="M111.4 419.079C111.4 419.079 113.8 415.479 116.5 413.579C119.2 411.679 124 410.479 124 410.479C124 410.479 121.6 414.079 118.9 415.979C116.2 417.879 111.4 419.079 111.4 419.079Z" fill="#FFFCF2"/>
<path d="M95.7 429.879C95.7 429.879 98.1 426.279 100.8 424.379C103.5 422.479 108.3 421.279 108.3 421.279C108.3 421.279 105.9 424.879 103.2 426.779C100.5 428.579 95.7 429.879 95.7 429.879Z" fill="#FFFCF2"/>
<path d="M65 512.779C65 512.779 69.1 510.279 72.5 509.679C75.8 508.979 80.5 509.679 80.5 509.679C80.5 509.679 76.4 512.179 73 512.779C69.7 513.479 65 512.779 65 512.779Z" fill="#B3C8D3"/>
<path d="M45.6001 516.679C45.6001 516.679 49.7001 514.179 53.1001 513.579C56.4001 512.879 61.1001 513.579 61.1001 513.579C61.1001 513.579 57.0001 516.079 53.6001 516.679C50.3001 517.379 45.6001 516.679 45.6001 516.679Z" fill="#B3C8D3"/>
<path d="M26.2 520.579C26.2 520.579 30.3 518.079 33.7 517.479C37 516.779 41.7 517.479 41.7 517.479C41.7 517.479 37.6 519.979 34.2 520.579C30.9 521.279 26.2 520.579 26.2 520.579Z" fill="#B3C8D3"/>
<path d="M6.80005 524.479C6.80005 524.479 10.9 521.979 14.3 521.379C17.6 520.679 22.3 521.379 22.3 521.379C22.3 521.379 18.2 523.879 14.8 524.479C11.5 525.179 6.80005 524.479 6.80005 524.479Z" fill="#B3C8D3"/>
<path d="M239.5 403.079C239.5 403.079 241.9 399.479 244.7 397.579C247.4 395.779 252.2 394.479 252.2 394.479C252.2 394.479 249.8 398.079 247 399.979C244.3 401.879 239.5 403.079 239.5 403.079Z" fill="#FFFCF2"/>
<path d="M223.6 413.78C223.6 413.78 226 410.18 228.8 408.28C231.5 406.48 236.3 405.18 236.3 405.18C236.3 405.18 233.9 408.78 231.1 410.68C228.4 412.48 223.6 413.78 223.6 413.78Z" fill="#FFFCF2"/>
<path d="M207.8 424.379C207.8 424.379 210.2 420.779 213 418.879C215.7 417.079 220.5 415.779 220.5 415.779C220.5 415.779 218.1 419.379 215.3 421.279C212.5 423.179 207.8 424.379 207.8 424.379Z" fill="#FFFCF2"/>
<path d="M191.9 434.979C191.9 434.979 194.3 431.379 197.1 429.479C199.8 427.679 204.6 426.379 204.6 426.379C204.6 426.379 202.2 429.979 199.4 431.879C196.7 433.779 191.9 434.979 191.9 434.979Z" fill="#FFFCF2"/>
<path d="M176 445.68C176 445.68 178.4 442.08 181.2 440.18C183.9 438.38 188.7 437.08 188.7 437.08C188.7 437.08 186.3 440.68 183.5 442.58C180.8 444.48 176 445.68 176 445.68Z" fill="#FFFCF2"/>
<path d="M160.1 456.28C160.1 456.28 162.5 452.68 165.3 450.78C168 448.98 172.8 447.68 172.8 447.68C172.8 447.68 170.4 451.28 167.6 453.18C164.9 455.08 160.1 456.28 160.1 456.28Z" fill="#FFFCF2"/>
<path d="M144.3 466.979C144.3 466.979 146.7 463.379 149.5 461.479C152.2 459.679 157 458.379 157 458.379C157 458.379 154.6 461.979 151.8 463.879C149 465.679 144.3 466.979 144.3 466.979Z" fill="#FFFCF2"/>
<path d="M128.4 477.579C128.4 477.579 130.8 473.979 133.6 472.079C136.3 470.279 141.1 468.979 141.1 468.979C141.1 468.979 138.7 472.579 135.9 474.479C133.2 476.379 128.4 477.579 128.4 477.579Z" fill="#FFFCF2"/>
<path d="M112.5 488.28C112.5 488.28 114.9 484.68 117.7 482.78C120.4 480.98 125.2 479.68 125.2 479.68C125.2 479.68 122.8 483.28 120 485.18C117.3 486.98 112.5 488.28 112.5 488.28Z" fill="#FFFCF2"/>
<path d="M96.5999 498.879C96.5999 498.879 98.9999 495.279 101.8 493.379C104.5 491.579 109.3 490.279 109.3 490.279C109.3 490.279 106.9 493.879 104.1 495.779C101.4 497.679 96.5999 498.879 96.5999 498.879Z" fill="#FFFCF2"/>
<path d="M80.7 509.479C80.7 509.479 83.1 505.879 85.9 503.979C88.6 502.179 93.4 500.879 93.4 500.879C93.4 500.879 91 504.479 88.2 506.379C85.5 508.279 80.7 509.479 80.7 509.479Z" fill="#FFFCF2"/>
<path d="M178.2 580.779C178.2 580.779 175.3 584.179 172.3 585.779C169.3 587.379 164.5 588.079 164.5 588.079C164.5 588.079 167.4 584.679 170.4 583.079C173.3 581.479 178.2 580.779 178.2 580.779Z" fill="#FFFCF2"/>
<path d="M195.3 571.579C195.3 571.579 192.4 574.979 189.4 576.579C186.4 578.179 181.6 578.879 181.6 578.879C181.6 578.879 184.5 575.479 187.5 573.879C190.4 572.379 195.3 571.579 195.3 571.579Z" fill="#FFFCF2"/>
<path d="M212.4 562.379C212.4 562.379 209.5 565.779 206.5 567.379C203.5 568.979 198.7 569.679 198.7 569.679C198.7 569.679 201.6 566.279 204.6 564.679C207.5 563.179 212.4 562.379 212.4 562.379Z" fill="#FFFCF2"/>
<path d="M220.6 558.079C220.6 558.079 220.2 560.079 219.2 560.679C218.2 561.179 215.9 560.579 215.9 560.579C215.9 560.579 216.3 558.579 217.3 557.979C218.3 557.479 220.6 558.079 220.6 558.079Z" fill="#FFFCF2"/>
<path d="M141.5 539.68C141.5 539.68 144.5 536.28 147.5 534.78C150.5 533.28 155.4 532.58 155.4 532.58C155.4 532.58 152.4 535.98 149.4 537.48C146.4 538.98 141.5 539.68 141.5 539.68Z" fill="#FFFCF2"/>
<path d="M124.2 548.579C124.2 548.579 127.2 545.179 130.2 543.679C133.2 542.179 138.1 541.479 138.1 541.479C138.1 541.479 135.1 544.879 132.1 546.379C129.1 547.879 124.2 548.579 124.2 548.579Z" fill="#FFFCF2"/>
<path d="M106.9 557.479C106.9 557.479 109.9 554.079 112.9 552.579C115.9 551.079 120.8 550.379 120.8 550.379C120.8 550.379 117.8 553.779 114.8 555.279C111.7 556.779 106.9 557.479 106.9 557.479Z" fill="#FFFCF2"/>
<path d="M89.5 566.38C89.5 566.38 92.5 562.98 95.5 561.48C98.5 559.98 103.4 559.28 103.4 559.28C103.4 559.28 100.4 562.68 97.4 564.18C94.4 565.68 89.5 566.38 89.5 566.38Z" fill="#FFFCF2"/>
<path d="M72.2 575.18C72.2 575.18 75.2 571.78 78.2 570.28C81.2 568.78 86.1 568.08 86.1 568.08C86.1 568.08 83.1 571.48 80.1 572.98C77.1 574.58 72.2 575.18 72.2 575.18Z" fill="#FFFCF2"/>
<path d="M218.9 500.079C218.9 500.079 221.9 496.679 224.9 495.179C227.9 493.679 232.8 492.979 232.8 492.979C232.8 492.979 229.8 496.379 226.8 497.879C223.8 499.379 218.9 500.079 218.9 500.079Z" fill="#FFFCF2"/>
<path d="M201.6 508.979C201.6 508.979 204.6 505.579 207.6 504.079C210.6 502.579 215.5 501.879 215.5 501.879C215.5 501.879 212.5 505.279 209.5 506.779C206.5 508.279 201.6 508.979 201.6 508.979Z" fill="#FFFCF2"/>
<path d="M184.3 517.78C184.3 517.78 187.3 514.38 190.3 512.88C193.3 511.38 198.2 510.68 198.2 510.68C198.2 510.68 195.2 514.08 192.2 515.58C189.1 517.18 184.3 517.78 184.3 517.78Z" fill="#FFFCF2"/>
<path d="M166.9 526.68C166.9 526.68 169.9 523.28 172.9 521.78C175.9 520.28 180.8 519.58 180.8 519.58C180.8 519.58 177.8 522.98 174.8 524.48C171.8 525.98 166.9 526.68 166.9 526.68Z" fill="#FFFCF2"/>
<path d="M155.4 532.579C155.4 532.579 156.8 530.079 158.5 529.179C160.2 528.279 163.5 528.479 163.5 528.479C163.5 528.479 162.1 530.979 160.4 531.879C158.6 532.779 155.4 532.579 155.4 532.579Z" fill="#FFFCF2"/>
<path d="M164.9 377.379L128.1 588.879H147.6L191.1 376.679L164.9 377.379Z" fill="#2D3962"/>
<path d="M13.5999 441.079L12.8999 451.479L96.4999 415.479L97.3999 408.379L13.5999 441.079Z" fill="#B3C8D3"/>
<path d="M84.6 485.479L84.1 485.679L7.70005 506.379L6.80005 515.879L82.8 499.479" fill="#B3C8D3"/>
<path d="M71.7 560.879L0 588.079H13.1L70.9 566.379L71.7 560.879Z" fill="#B3C8D3"/>
<path d="M51.4 380.479L27.2 588.879H34.4L62.5999 380.179L51.4 380.479Z" fill="#2D3962"/>
</g>
<path d="M305.044 442.392C303.596 442.312 301.505 442.231 299.013 442.071C297.806 441.99 296.52 441.99 295.153 441.91C293.785 441.829 292.418 441.829 291.051 441.749C288.317 441.669 285.502 441.588 282.849 441.669C289.121 435.718 296.278 427.917 296.278 427.917C296.278 427.917 288.076 434.592 281.723 440.462C281.723 428.4 280.597 412.879 280.597 412.879C280.597 412.879 279.552 428.48 279.471 440.462C273.842 435.235 266.363 429.284 266.363 429.284C266.363 429.284 272.877 436.522 278.426 441.829C274.244 441.99 269.902 442.151 266.363 442.392C261.538 442.714 258 442.955 258 442.955C258 442.955 261.538 443.277 266.363 443.599C269.741 443.84 273.842 444.081 277.783 444.161C272.073 449.791 266.363 456.063 266.363 456.063C266.363 456.063 273.44 450.354 279.552 444.805C279.712 456.144 280.597 469.01 280.597 469.01C280.597 469.01 281.482 456.224 281.642 444.805C286.95 449.549 292.901 454.294 292.901 454.294C292.901 454.294 288.237 449.067 283.331 444.242C285.824 444.242 288.478 444.081 291.051 444.001C291.775 443.92 292.418 443.92 293.142 443.92C293.866 443.84 294.509 443.84 295.153 443.759C296.52 443.679 297.806 443.518 299.013 443.438C301.425 443.196 303.516 443.036 304.963 442.875C306.411 442.714 307.295 442.634 307.295 442.634C307.295 442.634 306.491 442.473 305.044 442.392Z" fill="#72BAD1"/>
<path d="M108.044 35.3923C106.596 35.3119 104.505 35.2315 102.013 35.0706C100.806 34.9902 99.5196 34.9902 98.1525 34.9098C96.7854 34.8294 95.4183 34.8294 94.0513 34.749C91.3171 34.6686 88.5025 34.5881 85.8487 34.6686C92.1212 28.7177 99.2783 20.9173 99.2783 20.9173C99.2783 20.9173 91.0758 27.5919 84.7229 33.4623C84.7229 21.3998 83.5971 5.87939 83.5971 5.87939C83.5971 5.87939 82.5517 21.4802 82.4713 33.4623C76.8421 28.2352 69.3633 22.2844 69.3633 22.2844C69.3633 22.2844 75.8771 29.5219 81.4258 34.8294C77.2442 34.9902 72.9017 35.1511 69.3633 35.3923C64.5383 35.714 61 35.9552 61 35.9552C61 35.9552 64.5383 36.2769 69.3633 36.5986C72.7408 36.8398 76.8421 37.0811 80.7825 37.1615C75.0729 42.7906 69.3633 49.0631 69.3633 49.0631C69.3633 49.0631 76.44 43.3536 82.5517 37.8048C82.7125 49.1436 83.5971 62.0102 83.5971 62.0102C83.5971 62.0102 84.4817 49.224 84.6425 37.8048C89.95 42.5494 95.9008 47.294 95.9008 47.294C95.9008 47.294 91.2367 42.0669 86.3313 37.2419C88.8242 37.2419 91.4779 37.0811 94.0513 37.0006C94.775 36.9202 95.4183 36.9202 96.1421 36.9202C96.8658 36.8398 97.5092 36.8398 98.1525 36.7594C99.5196 36.679 100.806 36.5181 102.013 36.4377C104.425 36.1965 106.516 36.0356 107.963 35.8748C109.411 35.714 110.295 35.6336 110.295 35.6336C110.295 35.6336 109.491 35.4727 108.044 35.3923Z" fill="#FF606F"/>
<g clip-path="url(#clip1)">
<path d="M28 23.4794C28 24.2794 32.4 24.8794 38.1 24.9794C38.2 31.6794 38.8 36.8794 39.6 36.8794C40.4 36.8794 41 31.6794 41.1 24.9794C46.4 24.8794 50.5 24.2794 50.5 23.4794C50.5 22.6794 46.4 22.0794 41.1 21.9794C41.1 14.6794 40.4 8.87939 39.6 8.87939C38.8 8.87939 38.1 14.6794 38.1 21.9794C32.4 21.9794 28 22.6794 28 23.4794Z" fill="#72BAD1"/>
</g>
<g clip-path="url(#clip2)">
<path d="M41 57.2151C41 58.3294 47.0622 59.1651 54.9156 59.3044C55.0533 68.6365 55.88 75.8794 56.9822 75.8794C58.0844 75.8794 58.9111 68.6365 59.0489 59.3044C66.3511 59.1651 72 58.3294 72 57.2151C72 56.1008 66.3511 55.2651 59.0489 55.1258C59.0489 44.958 58.0844 36.8794 56.9822 36.8794C55.88 36.8794 54.9156 44.958 54.9156 55.1258C47.0622 55.1258 41 56.1008 41 57.2151Z" fill="#72BAD1"/>
</g>
<path d="M182 477.879H297V587.879H177L182 477.879Z" fill="#2D3962"/>
<path d="M234.593 577.985L234.861 573.688L223.582 571.056L225.838 486.139L201.453 498.654V501.447L210.369 502.199L212.303 570.143L201.292 574.44V577.609L234.593 577.985ZM217.513 560.368C216.976 553.779 217.029 549.321 217.674 546.994C218.211 551.792 218.157 556.25 217.513 560.368ZM220.413 553.546L220.037 552.418C219.536 538.203 219.41 527.568 219.661 520.514C220.377 524.238 220.771 530.576 220.843 539.528V547.316L220.413 553.546ZM216.116 528.356V520.568C216.188 511.616 216.582 505.278 217.298 501.554C217.549 508.608 217.423 519.243 216.922 533.458L216.546 534.586L216.116 528.356ZM246.731 501.662L276.058 501.339L249.31 569.445L238.836 572.614L237.601 575.89L272.728 575.568L273.694 573.043L263.436 569.176L291.097 491.833L241.092 491.94L238.353 511.759L242.864 511.867L246.731 501.662ZM275.628 513.371C274.59 517.596 272.889 522.018 270.525 526.637C270.883 524.167 272.584 519.744 275.628 513.371ZM267.732 535.338L264.671 543.019C261.126 551.828 258.315 557.951 256.238 561.388C258.781 554.37 263.024 543.968 268.968 530.182L269.827 529.162L267.732 535.338ZM274.285 525.563C275.861 521.553 278.117 516.199 281.053 509.503C284.025 502.772 285.69 499.477 286.048 499.621C280.892 512.547 276.505 523.289 272.889 531.847L267.41 545.597L267.088 545.49C268.914 539.689 270.883 534.157 272.996 528.893C273.318 528.105 273.748 526.995 274.285 525.563ZM264.026 557.414C262.952 561.639 261.251 566.061 258.924 570.68C259.282 568.209 260.983 563.787 264.026 557.414Z" fill="#FFFEFA"/>
<g clip-path="url(#clip3)">
<path d="M27 380.879L42.9 252.579L289.8 252.479L277.3 380.879H27Z" fill="#2D3962"/>
<path d="M289.8 252.479L137 252.579L124.6 380.879H277.3L289.8 252.479Z" fill="#72BAD1"/>
<path d="M166.3 252.58L134.7 275.98L132.2 302.48L202 252.58H166.3Z" fill="#4F8BAD"/>
<path d="M242.1 252.479L129.4 330.779L127 356.079L278.9 252.479H242.1Z" fill="#4F8BAD"/>
<path d="M287.1 280.379L130.9 380.879H168.9L284.4 308.279L287.1 280.379Z" fill="#4F8BAD"/>
<path d="M281.2 340.68L217 380.88H254.5L278.7 366.18L281.2 340.68Z" fill="#4F8BAD"/>
<path d="M278.7 366.18L254.5 380.88H277.3L278.7 366.18Z" fill="#72BAD1"/>
<path d="M268.3 259.379L298.5 278.579L296.9 280.179C296.9 280.179 292.8 278.879 281.5 271.779C270.2 264.579 266.7 261.079 266.7 261.079L268.3 259.379Z" fill="#4F8BAD"/>
<path d="M266.8 260.98L268.4 259.38L257.5 252.401L251.395 252.401C252.455 253.13 253.652 253.923 255 254.78C263.5 260.18 266.8 260.98 266.8 260.98Z" fill="#72BAD1"/>
<path d="M243.6 276.379L241.9 277.979C241.9 277.979 247.7 283.379 264.5 295.379L267.5 293.379L243.6 276.379Z" fill="#4F8BAD"/>
<path d="M267.5 293.279L264.5 295.279C265.4 295.879 266.3 296.579 267.2 297.179C286.1 310.579 292.5 313.679 292.5 313.679L294.2 312.079L267.5 293.279Z" fill="#72BAD1"/>
<path d="M225.7 263.68L243.6 276.28L241.9 277.88C241.9 277.88 239.1 277.28 232.4 272.58C225.7 267.88 224 265.28 224 265.28L225.7 263.68Z" fill="#72BAD1"/>
<path d="M282.9 334.68L290.6 339.48L289 341.08C289 341.08 287.3 341.38 284.5 339.58C281.6 337.78 281.3 336.28 281.3 336.28L282.9 334.68Z" fill="#72BAD1"/>
<path d="M262.2 321.78L283 334.68L281.4 336.28C281.4 336.28 278.3 335.68 270.6 330.88C262.8 326.08 260.7 323.38 260.7 323.38L262.2 321.78Z" fill="#4F8BAD"/>
<path d="M241.8 309.08L262.2 321.78L260.6 323.38C260.6 323.38 257.6 322.78 249.9 318.08C242.3 313.38 240.1 310.68 240.1 310.68L241.8 309.08Z" fill="#72BAD1"/>
<path d="M217.5 293.979L241.8 309.079L240.2 310.679C240.2 310.679 236.7 309.879 227.7 304.179C218.6 298.579 215.9 295.579 215.9 295.579L217.5 293.979Z" fill="#4F8BAD"/>
<path d="M198.7 282.379L217.5 294.079L215.9 295.679C215.9 295.679 213 295.179 206 290.879C199 286.479 197.1 284.079 197.1 284.079L198.7 282.379Z" fill="#72BAD1"/>
<path d="M177.9 269.479L198.7 282.379L197.1 283.979C197.1 283.979 194 283.379 186.3 278.579C178.5 273.779 176.4 271.079 176.4 271.079L177.9 269.479Z" fill="#4F8BAD"/>
<path d="M158.9 257.68L177.8 269.48L176.2 271.08C176.2 271.08 173.3 270.58 166.3 266.18C159.2 261.78 157.3 259.28 157.3 259.28L158.9 257.68Z" fill="#72BAD1"/>
<path d="M148.7 251.379L158.9 257.679L157.3 259.279C157.3 259.279 155.4 259.379 151.6 257.079C147.8 254.679 147.1 252.979 147.1 252.979L148.7 251.379Z" fill="#4F8BAD"/>
<path d="M276.6 366.979L285.5 372.179L283.9 373.879C283.9 373.879 282.1 374.179 278.8 372.179C275.5 370.179 275 368.679 275 368.679L276.6 366.979Z" fill="#72BAD1"/>
<path d="M256.8 355.479L276.6 367.079L275 368.779C275 368.779 272.1 368.379 264.7 363.979C257.3 359.679 255.3 357.179 255.3 357.179L256.8 355.479Z" fill="#72BAD1"/>
<path d="M231.8 340.78L256.8 355.38L255.2 357.08C255.2 357.08 251.7 356.28 242.3 350.88C233 345.38 230.1 342.48 230.1 342.48L231.8 340.78Z" fill="#4F8BAD"/>
<path d="M211.1 328.78L231.8 340.88L230.2 342.58C230.2 342.58 227.2 342.08 219.5 337.58C211.8 333.08 209.6 330.48 209.6 330.48L211.1 328.78Z" fill="#72BAD1"/>
<path d="M187.1 314.68L211.1 328.78L209.5 330.48C209.5 330.48 206.1 329.78 197.1 324.48C188.1 319.18 185.4 316.38 185.4 316.38L187.1 314.68Z" fill="#4F8BAD"/>
<path d="M168.1 303.58L187.1 314.68L185.5 316.38C185.5 316.38 182.6 315.98 175.5 311.88C168.4 307.68 166.4 305.28 166.4 305.28L168.1 303.58Z" fill="#72BAD1"/>
<path d="M147.2 291.379L168.1 303.579L166.5 305.279C166.5 305.279 163.4 304.779 155.6 300.179C147.8 295.579 145.6 293.079 145.6 293.079L147.2 291.379Z" fill="#4F8BAD"/>
<path d="M127.2 279.68L147.2 291.38L145.6 293.08C145.6 293.08 142.6 292.58 135.2 288.28C127.7 283.88 125.6 281.38 125.6 281.38L127.2 279.68Z" fill="#72BAD1"/>
<path d="M226.8 374.28L248 387.58L246.4 389.18C246.4 389.18 243.3 388.58 235.4 383.58C227.5 378.58 225.3 375.88 225.3 375.88L226.8 374.28Z" fill="#72BAD1"/>
<path d="M202.7 359.18L226.7 374.28L225.1 375.88C225.1 375.88 221.7 375.08 212.7 369.38C203.7 363.68 201.1 360.78 201.1 360.78L202.7 359.18Z" fill="#4F8BAD"/>
<path d="M183.2 346.78L202.8 359.08L201.2 360.68C201.2 360.68 198.3 360.18 190.9 355.58C183.6 350.98 181.6 348.38 181.6 348.38L183.2 346.78Z" fill="#72BAD1"/>
<path d="M160.8 332.68L183.2 346.78L181.6 348.38C181.6 348.38 178.3 347.68 170 342.38C161.6 337.08 159.2 334.28 159.2 334.28L160.8 332.68Z" fill="#4F8BAD"/>
<path d="M142.6 321.28L160.7 332.68L159.1 334.28C159.1 334.28 156.3 333.88 149.5 329.58C142.7 325.28 140.9 322.88 140.9 322.88L142.6 321.28Z" fill="#72BAD1"/>
<path d="M123 308.879L142.7 321.279L141 322.879C141 322.879 138 322.379 130.7 317.679C123.4 313.079 121.3 310.479 121.3 310.479L123 308.879Z" fill="#4F8BAD"/>
<path d="M152.5 366.479L177.9 382.579L176.3 384.179C176.3 384.179 172.7 383.179 163.2 377.179C153.7 371.179 150.9 368.079 150.9 368.079L152.5 366.479Z" fill="#72BAD1"/>
<path d="M124.8 348.979L152.5 366.479L150.9 368.079C150.9 368.079 147.1 366.979 136.7 360.379C126.4 353.879 123.2 350.479 123.2 350.479L124.8 348.979Z" fill="#4F8BAD"/>
<path d="M80.7 252.58L59.7 380.88H78.2L101.2 252.58H80.7Z" fill="#4F8BAD"/>
<path d="M199.6 252.479L185.4 380.879H211.7L233.6 252.479H199.6Z" fill="#FFFCF2"/>
<path d="M214.5 380.78H178.9L179.1 379.48C179.1 379.48 183.1 378.78 196.4 378.78C209.7 378.78 214.7 379.48 214.7 379.48L214.5 380.78Z" fill="#72BAD1"/>
</g>
<g clip-path="url(#clip4)">
<path d="M16.3342 232.462L21.8166 253.724L65.3597 253.517L61.5283 232.824L16.3342 232.462Z" fill="#2D3962"/>
<path d="M178.136 233.696L61.5284 232.824L65.3598 253.517L181.323 252.815L178.136 233.696Z" fill="#2D6C73"/>
<path d="M112.046 233.225L117.461 253.173L126.914 253.126L125.907 233.324L112.046 233.225Z" fill="#C7C5BB"/>
<path d="M34.0362 232.348L39.4191 253.6L45.648 253.628L44.1957 232.273L34.0362 232.348Z" fill="#2D6C73"/>
</g>
<rect x="188" y="10.8794" width="110" height="131" fill="#2D3962"/>
<path d="M235.382 111.985L235.65 107.688L224.371 105.056L226.627 20.1392L202.242 32.6538V35.4468L211.158 36.1987L213.092 104.143L202.081 108.44V111.609L235.382 111.985ZM218.302 94.3677C217.765 87.7791 217.818 83.3211 218.463 80.9937C219 85.7918 218.946 90.2498 218.302 94.3677ZM221.202 87.5464L220.826 86.4185C220.325 72.203 220.2 61.5682 220.45 54.5142C221.166 58.2381 221.56 64.576 221.632 73.5278V81.3159L221.202 87.5464ZM216.905 62.356V54.5679C216.977 45.616 217.371 39.2782 218.087 35.5542C218.338 42.6082 218.212 53.243 217.711 67.4585L217.335 68.5864L216.905 62.356ZM248.219 67.8345C262.577 67.9419 269.846 72.8117 270.025 82.4438C270.706 96.158 267.107 103.552 259.229 104.626C254.467 104.877 249.884 101.099 245.479 93.2935L238.39 97.6978C240.61 107.043 245.623 112.522 253.429 114.133C276.954 117.642 288.896 108.905 289.254 87.9224C289.039 75.7479 281.806 67.6375 267.555 63.5913C277.294 59.9032 282.737 53.422 283.883 44.1479C283.954 21.661 272.371 15.1978 249.132 24.7583L248.487 16.3257L243.17 16.5942L241.344 38.7769L250.099 37.4878C260.232 28.1063 265.908 28.1958 267.125 37.7563C267.698 49.8592 261.503 57.522 248.541 60.7446L248.219 67.8345ZM272.496 106.238C274.251 104.985 275.665 102.747 276.739 99.5239C276.775 102.603 275.361 104.841 272.496 106.238ZM274.698 84.646C275.128 88.0119 274.233 92.5594 272.013 98.2886C273.982 90.7332 273.821 83.1242 271.529 75.4614C273.212 78.1828 274.269 81.2443 274.698 84.646ZM274.859 77.6099L274 76.4819C273.141 74.1903 271.601 71.6838 269.381 68.9624C272.639 70.9318 274.465 73.8143 274.859 77.6099ZM274.376 99.5776L271.744 103.069C275.54 96.9816 277.044 90.59 276.256 83.894C278.082 89.2293 277.455 94.4572 274.376 99.5776ZM246.231 105.916C243.367 104.519 241.952 102.281 241.988 99.2017C243.062 102.424 244.477 104.662 246.231 105.916ZM271.959 43.6646C271.529 47.0304 270.473 50.0741 268.79 52.7954C271.082 45.1326 271.243 37.5236 269.273 29.9683C271.493 35.6974 272.389 40.2629 271.959 43.6646ZM271.959 29.5923C275.038 34.7127 275.665 39.9406 273.839 45.2759C274.627 38.5799 273.123 32.1883 269.327 26.1011L271.959 29.5923Z" fill="#FFFEFA"/>
<g clip-path="url(#clip5)">
<path d="M125.003 128.611C125.003 128.611 124.714 127.309 123.847 124.706C122.979 122.103 121.823 118.198 119.799 112.846C117.631 107.64 114.884 100.842 109.825 93.4662C108.524 91.5861 107.223 89.7059 105.488 87.8257C103.898 85.9456 102.019 84.0654 99.8507 82.4745C97.6824 80.8836 95.3695 79.2927 92.4784 78.4249C89.7319 77.5571 86.6963 77.4125 84.528 78.5695C82.5043 79.8712 80.9142 82.3299 80.336 84.7885C79.6132 87.2472 79.6132 89.8505 80.0468 92.3092C80.7696 97.2266 82.6488 101.421 84.8171 105.036C86.9854 108.652 89.4428 111.834 91.7557 114.437C94.0685 117.041 96.3814 119.355 98.4051 121.235C102.597 124.995 105.922 127.309 107.946 128.9C110.114 130.346 111.126 131.07 111.126 131.07L109.102 133.094C109.102 133.094 108.09 132.66 105.922 131.359C103.754 130.057 100.284 128.177 95.8032 124.706C91.4666 121.235 85.6844 116.462 80.4805 108.797C79.1795 106.917 78.0231 104.747 76.8667 102.433C75.8548 100.119 74.8429 97.5158 74.2647 94.7679C73.6865 92.02 73.3974 88.8381 74.1202 85.5117C74.4093 83.7761 74.9875 82.0406 75.9994 80.3051C77.0112 78.5695 78.4568 76.6894 80.6251 75.2431C82.7934 73.7968 85.5399 72.929 87.9973 72.7844C90.4547 72.6398 92.7676 72.929 94.7913 73.5076C98.6942 74.6646 101.73 76.5447 104.187 78.4249C106.645 80.4497 108.813 82.4745 110.548 84.4993C112.282 86.5241 113.872 88.6935 115.173 90.5737C120.377 98.6728 123.124 105.615 125.148 111.111C127.027 116.607 128.039 120.656 128.761 123.26C129.34 125.863 129.629 127.165 129.629 127.165L125.003 128.611Z" fill="#2D3962"/>
<path d="M129.773 125.14C129.773 125.14 130.641 124.127 132.52 121.813C134.254 119.499 137.001 116.173 140.47 111.4C143.795 106.627 148.132 100.408 152.035 92.4538C152.902 90.429 153.914 88.4042 154.637 86.2348C155.359 84.0654 156.082 81.7513 156.227 79.5819C156.371 78.4249 156.371 77.2679 156.082 76.4001C155.938 75.3877 155.504 74.5199 154.926 74.2307C154.637 74.086 154.492 73.9414 154.203 73.9414C153.914 73.7968 153.48 73.9414 152.902 73.9414C151.89 74.086 150.444 74.6646 149.143 75.5323C146.542 77.1232 144.084 79.148 142.06 81.1728C140.037 83.1976 138.157 85.367 136.567 87.5365C133.243 91.7307 130.785 95.9249 128.761 99.6852C124.569 107.351 122.112 113.57 120.377 118.487C118.643 123.404 117.631 126.875 116.908 129.189C116.33 131.503 116.041 132.516 116.041 132.516L113.005 132.227C113.005 132.227 113.005 131.359 113.439 129.189C113.728 127.02 114.306 123.693 115.752 118.921C117.053 114.148 119.221 107.784 123.124 99.6852C125.148 95.6356 127.605 91.2968 130.93 86.5241C132.664 84.21 134.544 81.7513 136.856 79.2927C139.169 76.834 141.771 74.3753 145.241 72.2059C146.975 71.0489 148.854 70.0365 151.167 69.4579C152.324 69.1687 153.625 68.8794 154.926 69.0241C156.227 69.0241 157.672 69.4579 158.829 70.0365C159.84 70.615 160.708 71.4827 161.141 72.3505C161.72 73.2183 162.009 73.9414 162.153 74.8092C162.587 76.4001 162.587 77.8464 162.442 79.2927C161.864 85.0778 159.696 89.7059 157.672 94.0447C153.48 102.578 148.854 108.797 145.241 113.714C141.627 118.632 138.736 121.958 136.856 124.127C134.977 126.297 133.965 127.309 133.965 127.309L129.773 125.14Z" fill="#2D3962"/>
<path d="M17.4553 122.102L3 233.755L202.628 232.887L217.373 118.776L17.4553 122.102Z" fill="#FF606F"/>
<path d="M17.4553 122.102L3 233.755L78.1678 233.466L86.4073 120.945L17.4553 122.102Z" fill="#C24751"/>
<path d="M223.01 223.487C223.444 223.053 224.311 223.197 224.745 223.487C225.179 223.921 225.323 224.499 224.745 224.933C224.311 225.367 223.444 225.222 223.01 224.933C222.577 224.499 222.577 223.776 223.01 223.487Z" fill="#FFFCF2"/>
<path d="M217.662 218.859C218.096 218.425 218.963 218.57 219.397 218.859C219.83 219.293 219.975 219.871 219.397 220.305C218.963 220.739 218.096 220.594 217.662 220.305C217.228 220.016 217.228 219.293 217.662 218.859Z" fill="#FFFCF2"/>
<path d="M212.313 214.375C212.747 213.941 213.614 214.086 214.048 214.375C214.482 214.809 214.626 215.387 214.048 215.821C213.614 216.255 212.747 216.11 212.313 215.821C211.735 215.532 211.735 214.809 212.313 214.375Z" fill="#FFFCF2"/>
<path d="M206.82 209.892C207.254 209.458 208.121 209.602 208.555 209.892C208.989 210.325 209.133 210.904 208.555 211.338C208.121 211.772 207.254 211.627 206.82 211.338C206.387 210.904 206.387 210.325 206.82 209.892Z" fill="#FFFCF2"/>
<path d="M201.472 205.408C201.905 204.974 202.773 205.119 203.206 205.408C203.64 205.842 203.785 206.421 203.206 206.854C202.773 207.288 201.905 207.144 201.472 206.854C201.038 206.421 201.038 205.842 201.472 205.408Z" fill="#FFFCF2"/>
<path d="M195.979 200.925C196.412 200.491 197.28 200.635 197.713 200.925C198.147 201.359 198.292 201.937 197.713 202.371C197.28 202.805 196.412 202.66 195.979 202.371C195.545 201.937 195.545 201.359 195.979 200.925Z" fill="#FFFCF2"/>
<path d="M190.63 196.441C191.064 196.007 191.931 196.152 192.365 196.441C192.799 196.875 192.943 197.454 192.365 197.888C191.931 198.321 191.064 198.177 190.63 197.888C190.197 197.454 190.197 196.875 190.63 196.441Z" fill="#FFFCF2"/>
<path d="M185.282 191.958C185.715 191.524 186.583 191.669 187.016 191.958C187.45 192.392 187.595 192.97 187.016 193.404C186.438 193.838 185.715 193.693 185.282 193.404C184.848 192.97 184.704 192.392 185.282 191.958Z" fill="#FFFCF2"/>
<path d="M179.789 187.475C180.223 187.041 181.09 187.185 181.523 187.475C181.957 187.908 182.102 188.487 181.523 188.921C181.09 189.355 180.223 189.21 179.789 188.921C179.355 188.487 179.355 187.908 179.789 187.475Z" fill="#FFFCF2"/>
<path d="M174.44 182.991C174.874 182.557 175.741 182.701 176.175 182.991C176.609 183.425 176.753 184.003 176.175 184.437C175.741 184.871 174.874 184.726 174.44 184.437C174.007 184.003 174.007 183.425 174.44 182.991Z" fill="#FFFCF2"/>
<path d="M169.092 178.507C169.526 178.073 170.393 178.218 170.827 178.507C171.26 178.941 171.405 179.52 170.827 179.954C170.393 180.387 169.526 180.243 169.092 179.954C168.514 179.52 168.514 178.941 169.092 178.507Z" fill="#FFFCF2"/>
<path d="M163.599 174.024C164.033 173.59 164.9 173.735 165.334 174.024C165.767 174.458 165.912 175.036 165.334 175.47C164.9 175.904 164.033 175.759 163.599 175.47C163.165 175.036 163.165 174.458 163.599 174.024Z" fill="#FFFCF2"/>
<path d="M158.25 169.54C158.684 169.107 159.551 169.251 159.985 169.54C160.419 169.974 160.563 170.553 159.985 170.987C159.551 171.421 158.684 171.276 158.25 170.987C157.817 170.553 157.817 169.83 158.25 169.54Z" fill="#FFFCF2"/>
<path d="M152.902 165.057C153.336 164.623 154.203 164.768 154.637 165.057C155.07 165.491 155.215 166.069 154.637 166.503C154.203 166.937 153.336 166.793 152.902 166.503C152.324 166.069 152.324 165.346 152.902 165.057Z" fill="#FFFCF2"/>
<path d="M147.409 160.574C147.842 160.14 148.71 160.284 149.143 160.574C149.577 161.008 149.722 161.586 149.143 162.02C148.71 162.454 147.842 162.309 147.409 162.02C146.975 161.586 146.975 160.863 147.409 160.574Z" fill="#FFFCF2"/>
<path d="M142.06 156.09C142.494 155.656 143.361 155.8 143.795 156.09C144.229 156.524 144.373 157.102 143.795 157.536C143.361 157.97 142.494 157.825 142.06 157.536C141.627 157.102 141.627 156.379 142.06 156.09Z" fill="#FFFCF2"/>
<path d="M136.712 151.606C137.146 151.172 138.013 151.317 138.447 151.606C138.88 152.04 139.025 152.619 138.447 153.053C138.013 153.487 137.146 153.342 136.712 153.053C136.134 152.619 136.134 151.896 136.712 151.606Z" fill="#FFFCF2"/>
<path d="M131.219 147.123C131.652 146.689 132.52 146.834 132.953 147.123C133.387 147.557 133.532 148.135 132.953 148.569C132.52 149.003 131.652 148.858 131.219 148.569C130.785 148.135 130.785 147.412 131.219 147.123Z" fill="#FFFCF2"/>
<path d="M125.87 142.64C126.304 142.206 127.171 142.35 127.605 142.64C128.039 143.073 128.183 143.652 127.605 144.086C127.171 144.52 126.304 144.375 125.87 144.086C125.437 143.652 125.437 142.929 125.87 142.64Z" fill="#FFFCF2"/>
<path d="M120.377 138.012C120.811 137.578 121.678 137.722 122.112 138.012C122.546 138.446 122.69 139.024 122.112 139.458C121.678 139.892 120.811 139.747 120.377 139.458C119.944 139.169 119.944 138.446 120.377 138.012Z" fill="#FFFCF2"/>
<path d="M115.029 133.528C115.463 133.094 116.33 133.238 116.763 133.528C117.197 133.962 117.342 134.54 116.763 134.974C116.33 135.408 115.463 135.263 115.029 134.974C114.595 134.685 114.595 133.962 115.029 133.528Z" fill="#FFFCF2"/>
<path d="M109.68 129.044C110.114 128.61 110.981 128.755 111.415 129.044C111.849 129.478 111.993 130.057 111.415 130.491C110.981 130.925 110.114 130.78 109.68 130.491C109.247 130.057 109.102 129.478 109.68 129.044Z" fill="#FFFCF2"/>
<path d="M104.187 124.561C104.621 124.127 105.488 124.272 105.922 124.561C106.356 124.995 106.5 125.573 105.922 126.007C105.488 126.441 104.621 126.296 104.187 126.007C103.754 125.573 103.754 124.995 104.187 124.561Z" fill="#FFFCF2"/>
<path d="M98.8389 120.078C99.2726 119.644 100.14 119.788 100.574 120.078C101.007 120.511 101.152 121.09 100.574 121.524C100.14 121.958 99.2726 121.813 98.8389 121.524C98.4053 121.09 98.4053 120.511 98.8389 120.078Z" fill="#FFFCF2"/>
<path d="M186.872 237.949C187.306 237.66 188.173 237.66 188.607 238.094C189.04 238.528 189.04 239.251 188.607 239.54C188.173 239.829 187.306 239.829 186.872 239.395C186.294 238.962 186.294 238.383 186.872 237.949Z" fill="#FFFCF2"/>
<path d="M181.813 233.321C182.246 233.032 183.114 233.032 183.547 233.466C183.981 233.9 183.981 234.623 183.547 234.912C183.114 235.201 182.246 235.201 181.813 234.767C181.235 234.334 181.235 233.61 181.813 233.321Z" fill="#FFFCF2"/>
<path d="M176.753 228.549C177.187 228.26 178.054 228.26 178.488 228.693C178.922 229.127 178.922 229.85 178.488 230.14C178.054 230.429 177.187 230.429 176.753 229.995C176.175 229.561 176.175 228.838 176.753 228.549Z" fill="#FFFCF2"/>
<path d="M171.694 223.776C172.128 223.487 172.995 223.487 173.429 223.92C173.862 224.354 173.862 225.077 173.429 225.367C172.995 225.656 172.128 225.656 171.694 225.222C171.116 224.788 171.116 224.065 171.694 223.776Z" fill="#FFFCF2"/>
<path d="M166.635 219.003C167.068 218.569 167.936 218.714 168.369 219.148C168.803 219.582 168.803 220.16 168.369 220.594C167.936 220.883 167.068 220.883 166.635 220.449C166.056 220.016 166.056 219.292 166.635 219.003Z" fill="#FFFCF2"/>
<path d="M161.575 214.23C162.009 213.796 162.876 213.941 163.31 214.375C163.744 214.809 163.744 215.532 163.31 215.821C162.876 216.255 162.009 216.11 161.575 215.677C160.997 215.243 160.997 214.664 161.575 214.23Z" fill="#FFFCF2"/>
<path d="M156.516 209.457C156.95 209.168 157.817 209.168 158.251 209.602C158.684 210.036 158.684 210.759 158.251 211.048C157.817 211.338 156.95 211.338 156.516 210.904C155.938 210.47 155.938 209.891 156.516 209.457Z" fill="#FFFCF2"/>
<path d="M151.457 204.685C151.89 204.396 152.758 204.396 153.191 204.83C153.625 205.264 153.625 205.987 153.191 206.276C152.758 206.71 151.89 206.565 151.457 206.131C150.878 205.697 150.878 205.119 151.457 204.685Z" fill="#FFFCF2"/>
<path d="M146.397 199.912C146.831 199.478 147.698 199.623 148.132 200.057C148.565 200.491 148.565 201.214 148.132 201.503C147.698 201.793 146.831 201.793 146.397 201.359C145.819 200.925 145.819 200.346 146.397 199.912Z" fill="#FFFCF2"/>
<path d="M141.338 195.284C141.771 194.995 142.639 194.995 143.072 195.429C143.506 195.863 143.506 196.586 143.072 196.875C142.639 197.164 141.771 197.164 141.338 196.73C140.759 196.152 140.904 195.573 141.338 195.284Z" fill="#FFFCF2"/>
<path d="M136.278 190.511C136.712 190.078 137.579 190.222 138.013 190.656C138.447 191.09 138.447 191.669 138.013 192.102C137.579 192.392 136.712 192.392 136.278 191.958C135.7 191.524 135.845 190.801 136.278 190.511Z" fill="#FFFCF2"/>
<path d="M131.219 185.739C131.653 185.449 132.52 185.449 132.954 185.883C133.387 186.317 133.387 187.04 132.954 187.33C132.52 187.619 131.653 187.619 131.219 187.185C130.641 186.751 130.785 186.028 131.219 185.739Z" fill="#FFFCF2"/>
<path d="M126.16 180.966C126.593 180.532 127.461 180.677 127.894 181.111C128.328 181.545 128.328 182.268 127.894 182.557C127.461 182.846 126.593 182.846 126.16 182.412C125.581 181.978 125.726 181.255 126.16 180.966Z" fill="#FFFCF2"/>
<path d="M121.1 176.193C121.534 175.904 122.401 175.904 122.835 176.338C123.269 176.772 123.269 177.35 122.835 177.784C122.401 178.218 121.534 178.073 121.1 177.64C120.522 177.206 120.667 176.483 121.1 176.193Z" fill="#FFFCF2"/>
<path d="M116.041 171.42C116.474 171.131 117.342 171.131 117.775 171.565C118.209 171.999 118.209 172.722 117.775 173.011C117.342 173.445 116.474 173.301 116.041 172.867C115.607 172.433 115.607 171.854 116.041 171.42Z" fill="#FFFCF2"/>
<path d="M110.981 166.648C111.415 166.359 112.282 166.359 112.716 166.793C113.15 167.226 113.15 167.95 112.716 168.239C112.282 168.528 111.415 168.528 110.981 168.094C110.548 167.66 110.548 167.082 110.981 166.648Z" fill="#FFFCF2"/>
<path d="M105.922 161.875C106.356 161.586 107.223 161.586 107.657 162.02C108.09 162.453 108.09 163.177 107.657 163.466C107.223 163.755 106.356 163.755 105.922 163.321C105.489 162.887 105.489 162.309 105.922 161.875Z" fill="#FFFCF2"/>
<path d="M100.863 157.102C101.297 156.668 102.164 156.813 102.597 157.247C103.031 157.681 103.031 158.404 102.597 158.693C102.164 158.982 101.297 158.982 100.863 158.549C100.429 158.115 100.429 157.536 100.863 157.102Z" fill="#FFFCF2"/>
<path d="M95.8035 152.474C96.2372 152.185 97.1045 152.185 97.5382 152.619C97.9718 153.053 97.9718 153.631 97.5382 154.065C97.1045 154.354 96.2372 154.354 95.8035 153.92C95.3699 153.486 95.3699 152.763 95.8035 152.474Z" fill="#FFFCF2"/>
<path d="M90.7442 147.701C91.1778 147.268 92.0452 147.412 92.4788 147.846C92.9125 148.28 92.9125 149.003 92.4788 149.292C92.0452 149.582 91.1778 149.582 90.7442 149.148C90.3105 148.714 90.3105 147.991 90.7442 147.701Z" fill="#FFFCF2"/>
<path d="M85.6846 142.928C86.1183 142.495 86.9856 142.639 87.4193 143.073C87.8529 143.507 87.8529 144.23 87.4193 144.519C86.9856 144.809 86.1183 144.809 85.6846 144.375C85.251 143.941 85.251 143.218 85.6846 142.928Z" fill="#FFFCF2"/>
<path d="M80.7698 138.156C81.2035 137.722 82.0708 137.867 82.5045 138.301C82.9381 138.735 82.9381 139.458 82.5045 139.747C82.0708 140.181 81.2035 140.036 80.7698 139.602C80.1916 139.168 80.1916 138.445 80.7698 138.156Z" fill="#FFFCF2"/>
<path d="M75.7105 133.383C76.1442 133.094 77.0115 133.094 77.4452 133.528C77.8788 133.962 77.8788 134.685 77.4452 134.974C77.0115 135.263 76.1442 135.263 75.7105 134.83C75.1323 134.396 75.1323 133.817 75.7105 133.383Z" fill="#FFFCF2"/>
<path d="M132.086 241.42C132.665 241.131 133.387 241.131 133.821 241.565C134.255 241.999 134.255 242.722 133.676 243.011C133.098 243.3 132.375 243.3 131.942 242.867C131.508 242.433 131.653 241.71 132.086 241.42Z" fill="#FFFCF2"/>
<path d="M127.316 236.503C127.894 236.214 128.617 236.214 129.051 236.647C129.484 237.081 129.484 237.805 128.906 238.094C128.328 238.383 127.605 238.383 127.171 237.949C126.738 237.515 126.738 236.792 127.316 236.503Z" fill="#FFFCF2"/>
<path d="M122.546 231.586C123.124 231.297 123.847 231.297 124.28 231.731C124.714 232.164 124.714 232.888 124.136 233.177C123.558 233.466 122.835 233.466 122.401 233.032C121.968 232.598 121.967 231.875 122.546 231.586Z" fill="#FFFCF2"/>
<path d="M117.631 226.668C118.209 226.379 118.932 226.379 119.366 226.813C119.799 227.247 119.799 227.97 119.221 228.259C118.643 228.549 117.92 228.549 117.486 228.115C117.053 227.681 117.197 226.958 117.631 226.668Z" fill="#FFFCF2"/>
<path d="M112.861 221.751C113.439 221.462 114.162 221.462 114.595 221.896C115.029 222.329 115.029 223.053 114.451 223.342C113.873 223.631 113.15 223.631 112.716 223.197C112.282 222.763 112.282 222.04 112.861 221.751Z" fill="#FFFCF2"/>
<path d="M107.946 216.833C108.524 216.544 109.247 216.544 109.681 216.978C110.114 217.412 110.114 218.135 109.536 218.424C108.958 218.714 108.235 218.714 107.801 218.28C107.368 217.846 107.512 217.123 107.946 216.833Z" fill="#FFFCF2"/>
<path d="M103.176 211.916C103.754 211.627 104.477 211.627 104.91 212.061C105.344 212.495 105.344 213.218 104.766 213.507C104.187 213.797 103.465 213.797 103.031 213.363C102.597 212.929 102.597 212.206 103.176 211.916Z" fill="#FFFCF2"/>
<path d="M98.4053 206.999C98.9835 206.71 99.7063 206.71 100.14 207.144C100.574 207.577 100.574 208.301 99.9954 208.59C99.4172 208.879 98.6944 208.879 98.2608 208.445C97.8271 208.011 97.8271 207.288 98.4053 206.999Z" fill="#FFFCF2"/>
<path d="M93.4906 202.081C94.0688 201.792 94.7916 201.792 95.2253 202.226C95.6589 202.66 95.6589 203.383 95.0807 203.672C94.5025 203.962 93.7797 203.962 93.3461 203.528C92.9124 203.094 93.057 202.371 93.4906 202.081Z" fill="#FFFCF2"/>
<path d="M88.7203 197.164C89.2985 196.875 90.0213 196.875 90.4549 197.309C90.8886 197.743 90.8886 198.466 90.3104 198.755C89.7322 199.045 89.0094 199.045 88.5757 198.611C88.1421 198.177 88.1421 197.454 88.7203 197.164Z" fill="#FFFCF2"/>
<path d="M83.8056 192.247C84.3838 191.958 85.1066 191.958 85.5402 192.392C85.9739 192.826 85.9739 193.549 85.3957 193.838C84.8174 194.127 84.0947 194.127 83.661 193.693C83.2274 193.259 83.3719 192.536 83.8056 192.247Z" fill="#FFFCF2"/>
<path d="M79.0352 187.33C79.6134 187.04 80.3362 187.04 80.7699 187.474C81.2035 187.908 81.2035 188.631 80.6253 188.92C80.0471 189.21 79.3243 189.21 78.8907 188.776C78.457 188.342 78.457 187.763 79.0352 187.33Z" fill="#FFFCF2"/>
<path d="M256.113 211.772C256.547 211.338 257.414 211.338 257.848 211.772C258.426 212.206 258.426 212.784 257.848 213.218C257.414 213.652 256.547 213.652 256.113 213.218C255.68 212.784 255.535 212.061 256.113 211.772Z" fill="#FFFCF2"/>
<path d="M250.62 207.288C251.054 206.854 251.921 206.854 252.355 207.288C252.788 207.722 252.933 208.301 252.355 208.735C251.921 209.168 251.054 209.168 250.62 208.735C250.186 208.301 250.042 207.722 250.62 207.288Z" fill="#FFFCF2"/>
<path d="M245.127 202.949C245.561 202.516 246.428 202.516 246.862 202.949C247.296 203.383 247.44 203.962 246.862 204.396C246.428 204.83 245.561 204.83 245.127 204.396C244.694 203.962 244.549 203.239 245.127 202.949Z" fill="#FFFCF2"/>
<path d="M239.634 198.466C240.068 198.032 240.935 198.032 241.369 198.466C241.802 198.9 241.947 199.478 241.369 199.912C240.935 200.346 240.068 200.346 239.634 199.912C239.2 199.478 239.056 198.9 239.634 198.466Z" fill="#FFFCF2"/>
<path d="M234.141 193.983C234.575 193.549 235.442 193.549 235.876 193.983C236.454 194.417 236.454 194.995 235.876 195.429C235.442 195.863 234.575 195.863 234.141 195.429C233.707 195.14 233.563 194.417 234.141 193.983Z" fill="#FFFCF2"/>
<path d="M228.648 189.644C229.082 189.21 229.949 189.21 230.383 189.644C230.961 190.078 230.961 190.656 230.383 191.09C229.949 191.524 229.082 191.524 228.648 191.09C228.214 190.656 228.07 190.078 228.648 189.644Z" fill="#FFFCF2"/>
<path d="M223.155 185.16C223.589 184.726 224.456 184.726 224.89 185.16C225.323 185.594 225.468 186.173 224.89 186.607C224.456 187.041 223.589 187.041 223.155 186.607C222.721 186.173 222.577 185.594 223.155 185.16Z" fill="#FFFCF2"/>
<path d="M217.662 180.822C218.096 180.388 218.963 180.388 219.397 180.822C219.83 181.255 219.975 181.834 219.397 182.268C218.963 182.702 218.096 182.702 217.662 182.268C217.228 181.834 217.084 181.255 217.662 180.822Z" fill="#FFFCF2"/>
<path d="M212.169 176.338C212.603 175.904 213.47 175.904 213.904 176.338C214.337 176.772 214.482 177.351 213.904 177.784C213.47 178.218 212.603 178.218 212.169 177.784C211.735 177.351 211.591 176.772 212.169 176.338Z" fill="#FFFCF2"/>
<path d="M206.676 171.999C207.109 171.565 207.977 171.565 208.41 171.999C208.989 172.433 208.989 173.012 208.41 173.446C207.977 173.879 207.109 173.879 206.676 173.446C206.242 173.012 206.098 172.288 206.676 171.999Z" fill="#FFFCF2"/>
<path d="M201.183 167.516C201.617 167.082 202.484 167.082 202.918 167.516C203.351 167.95 203.496 168.528 202.918 168.962C202.484 169.396 201.617 169.396 201.183 168.962C200.749 168.528 200.605 167.95 201.183 167.516Z" fill="#FFFCF2"/>
<path d="M195.69 163.177C196.124 162.743 196.991 162.743 197.425 163.177C197.858 163.611 198.003 164.189 197.425 164.623C196.991 165.057 196.124 165.057 195.69 164.623C195.256 164.189 195.112 163.466 195.69 163.177Z" fill="#FFFCF2"/>
<path d="M190.197 158.694C190.63 158.26 191.498 158.26 191.931 158.694C192.365 159.127 192.51 159.706 191.931 160.14C191.498 160.574 190.63 160.574 190.197 160.14C189.763 159.706 189.619 159.127 190.197 158.694Z" fill="#FFFCF2"/>
<path d="M184.704 154.355C185.138 153.921 186.005 153.921 186.439 154.355C186.872 154.789 187.017 155.367 186.439 155.801C186.005 156.235 185.138 156.235 184.704 155.801C184.27 155.367 184.126 154.644 184.704 154.355Z" fill="#FFFCF2"/>
<path d="M179.211 149.871C179.644 149.437 180.512 149.437 180.945 149.871C181.379 150.305 181.524 150.883 180.945 151.317C180.512 151.751 179.644 151.751 179.211 151.317C178.777 150.883 178.633 150.305 179.211 149.871Z" fill="#FFFCF2"/>
<path d="M173.718 145.532C174.151 145.099 175.019 145.099 175.452 145.532C175.886 145.966 176.031 146.545 175.452 146.979C175.019 147.413 174.151 147.413 173.718 146.979C173.284 146.545 173.14 145.822 173.718 145.532Z" fill="#FFFCF2"/>
<path d="M168.225 141.049C168.658 140.615 169.526 140.615 169.959 141.049C170.393 141.483 170.537 142.061 169.959 142.495C169.526 142.929 168.658 142.929 168.225 142.495C167.791 142.061 167.646 141.483 168.225 141.049Z" fill="#FFFCF2"/>
<path d="M162.732 136.565C163.165 136.131 164.033 136.131 164.466 136.565C165.045 136.999 165.045 137.578 164.466 138.011C164.033 138.445 163.165 138.445 162.732 138.011C162.298 137.722 162.153 136.999 162.732 136.565Z" fill="#FFFCF2"/>
<path d="M157.239 132.226C157.672 131.792 158.54 131.792 158.973 132.226C159.407 132.66 159.551 133.239 158.973 133.673C158.54 134.106 157.672 134.106 157.239 133.673C156.805 133.239 156.66 132.66 157.239 132.226Z" fill="#FFFCF2"/>
<path d="M151.746 127.743C152.179 127.309 153.047 127.309 153.48 127.743C153.914 128.177 154.058 128.755 153.48 129.189C153.047 129.623 152.179 129.623 151.746 129.189C151.312 128.755 151.167 128.177 151.746 127.743Z" fill="#FFFCF2"/>
<path d="M146.252 123.404C146.686 122.97 147.553 122.97 147.987 123.404C148.421 123.838 148.565 124.416 147.987 124.85C147.553 125.284 146.686 125.284 146.252 124.85C145.819 124.416 145.674 123.693 146.252 123.404Z" fill="#FFFCF2"/>
<path d="M140.76 118.921C141.193 118.487 142.061 118.487 142.494 118.921C142.928 119.355 143.072 119.933 142.494 120.367C142.061 120.801 141.193 120.801 140.76 120.367C140.326 119.933 140.181 119.355 140.76 118.921Z" fill="#FFFCF2"/>
<path d="M135.267 114.582C135.7 114.148 136.568 114.148 137.001 114.582C137.435 115.016 137.579 115.594 137.001 116.028C136.568 116.462 135.7 116.462 135.267 116.028C134.833 115.594 134.688 114.871 135.267 114.582Z" fill="#FFFCF2"/>
<path d="M129.773 110.098C130.207 109.664 131.074 109.664 131.508 110.098C131.942 110.532 132.086 111.111 131.508 111.545C131.074 111.979 130.207 111.979 129.773 111.545C129.34 111.111 129.195 110.532 129.773 110.098Z" fill="#FFFCF2"/>
<path d="M125.437 106.627C125.871 106.193 126.449 106.049 126.593 106.193C126.738 106.338 126.449 106.772 126.015 107.206C125.581 107.64 125.003 107.784 124.859 107.64C124.714 107.495 125.003 107.061 125.437 106.627Z" fill="#FFFCF2"/>
<path d="M280.832 189.788C281.265 189.354 282.133 189.354 282.566 189.788C283 190.222 283.144 190.801 282.566 191.235C282.133 191.668 281.265 191.668 280.832 191.235C280.398 190.801 280.398 190.222 280.832 189.788Z" fill="#FFFCF2"/>
<path d="M275.339 185.449C275.772 185.016 276.64 185.016 277.073 185.449C277.652 185.883 277.652 186.462 277.073 186.896C276.64 187.33 275.772 187.33 275.339 186.896C274.905 186.462 274.905 185.739 275.339 185.449Z" fill="#FFFCF2"/>
<path d="M269.846 180.966C270.279 180.532 271.147 180.532 271.58 180.966C272.159 181.4 272.159 181.978 271.58 182.412C271.147 182.846 270.279 182.846 269.846 182.412C269.412 181.978 269.412 181.4 269.846 180.966Z" fill="#FFFCF2"/>
<path d="M264.353 176.483C264.786 176.049 265.654 176.049 266.087 176.483C266.521 176.917 266.665 177.495 266.087 177.929C265.654 178.363 264.786 178.363 264.353 177.929C263.919 177.64 263.919 176.917 264.353 176.483Z" fill="#FFFCF2"/>
<path d="M258.86 172.144C259.293 171.71 260.161 171.71 260.594 172.144C261.028 172.578 261.173 173.156 260.594 173.59C260.161 174.024 259.293 174.024 258.86 173.59C258.426 173.156 258.426 172.578 258.86 172.144Z" fill="#FFFCF2"/>
<path d="M253.367 167.66C253.8 167.226 254.667 167.226 255.101 167.66C255.535 168.094 255.679 168.673 255.101 169.107C254.667 169.541 253.8 169.541 253.367 169.107C252.933 168.673 252.933 168.094 253.367 167.66Z" fill="#FFFCF2"/>
<path d="M247.874 163.322C248.307 162.888 249.175 162.888 249.608 163.322C250.042 163.755 250.186 164.334 249.608 164.768C249.175 165.202 248.307 165.202 247.874 164.768C247.44 164.334 247.44 163.611 247.874 163.322Z" fill="#FFFCF2"/>
<path d="M242.38 158.838C242.814 158.404 243.681 158.404 244.115 158.838C244.549 159.272 244.693 159.851 244.115 160.284C243.681 160.718 242.814 160.718 242.38 160.284C241.947 159.851 241.947 159.272 242.38 158.838Z" fill="#FFFCF2"/>
<path d="M236.888 154.499C237.321 154.065 238.188 154.065 238.622 154.499C239.056 154.933 239.2 155.512 238.622 155.946C238.188 156.379 237.321 156.379 236.888 155.946C236.454 155.512 236.454 154.788 236.888 154.499Z" fill="#FFFCF2"/>
<path d="M231.395 150.016C231.828 149.582 232.696 149.582 233.129 150.016C233.563 150.45 233.707 151.028 233.129 151.462C232.696 151.896 231.828 151.896 231.395 151.462C230.961 151.028 230.961 150.45 231.395 150.016Z" fill="#FFFCF2"/>
<path d="M225.901 145.677C226.335 145.243 227.202 145.243 227.636 145.677C228.214 146.111 228.214 146.689 227.636 147.123C227.202 147.557 226.335 147.557 225.901 147.123C225.468 146.689 225.468 145.966 225.901 145.677Z" fill="#FFFCF2"/>
<path d="M220.408 141.194C220.842 140.76 221.71 140.76 222.143 141.194C222.577 141.627 222.721 142.206 222.143 142.64C221.71 143.074 220.842 143.074 220.408 142.64C219.975 142.206 219.975 141.627 220.408 141.194Z" fill="#FFFCF2"/>
<path d="M214.915 136.855C215.349 136.421 216.216 136.421 216.65 136.855C217.084 137.289 217.228 137.867 216.65 138.301C216.216 138.735 215.349 138.735 214.915 138.301C214.482 137.867 214.482 137.144 214.915 136.855Z" fill="#FFFCF2"/>
<path d="M209.422 132.371C209.856 131.937 210.723 131.937 211.157 132.371C211.591 132.805 211.735 133.383 211.157 133.817C210.723 134.251 209.856 134.251 209.422 133.817C208.989 133.383 208.989 132.805 209.422 132.371Z" fill="#FFFCF2"/>
<path d="M203.929 127.887C204.363 127.454 205.23 127.454 205.664 127.887C206.098 128.321 206.242 128.9 205.664 129.334C205.23 129.768 204.363 129.768 203.929 129.334C203.496 129.044 203.496 128.321 203.929 127.887Z" fill="#FFFCF2"/>
<path d="M198.436 123.549C198.87 123.115 199.737 123.115 200.171 123.549C200.605 123.982 200.749 124.561 200.171 124.995C199.737 125.429 198.87 125.429 198.436 124.995C198.003 124.561 198.003 123.982 198.436 123.549Z" fill="#FFFCF2"/>
<path d="M192.943 119.065C193.377 118.631 194.244 118.631 194.678 119.065C195.111 119.499 195.256 120.078 194.678 120.511C194.244 120.945 193.377 120.945 192.943 120.511C192.51 120.222 192.51 119.499 192.943 119.065Z" fill="#FFFCF2"/>
<path d="M187.45 114.726C187.884 114.292 188.751 114.292 189.185 114.726C189.619 115.16 189.763 115.739 189.185 116.173C188.751 116.606 187.884 116.606 187.45 116.173C187.017 115.739 187.017 115.16 187.45 114.726Z" fill="#FFFCF2"/>
<path d="M181.957 110.243C182.391 109.809 183.258 109.809 183.692 110.243C184.126 110.677 184.27 111.255 183.692 111.689C183.258 112.123 182.391 112.123 181.957 111.689C181.524 111.255 181.524 110.677 181.957 110.243Z" fill="#FFFCF2"/>
<path d="M176.464 105.904C176.898 105.47 177.765 105.47 178.199 105.904C178.632 106.338 178.777 106.916 178.199 107.35C177.765 107.784 176.898 107.784 176.464 107.35C176.031 106.916 176.031 106.193 176.464 105.904Z" fill="#FFFCF2"/>
<path d="M170.971 101.421C171.405 100.987 172.272 100.987 172.706 101.421C173.14 101.855 173.284 102.433 172.706 102.867C172.272 103.301 171.405 103.301 170.971 102.867C170.538 102.433 170.538 101.855 170.971 101.421Z" fill="#FFFCF2"/>
<path d="M165.478 97.0818C165.912 96.6479 166.779 96.6479 167.213 97.0818C167.646 97.5156 167.791 98.0942 167.213 98.528C166.779 98.9619 165.912 98.9619 165.478 98.528C165.044 98.0942 165.044 97.371 165.478 97.0818Z" fill="#FFFCF2"/>
<path d="M159.985 92.5984C160.419 92.1645 161.286 92.1645 161.72 92.5984C162.153 93.0322 162.298 93.6108 161.72 94.0446C161.286 94.4785 160.419 94.4785 159.985 94.0446C159.551 93.6108 159.551 93.0322 159.985 92.5984Z" fill="#FFFCF2"/>
<path d="M154.492 88.2595C154.926 87.8256 155.793 87.8256 156.227 88.2595C156.66 88.6934 156.805 89.2719 156.227 89.7058C155.793 90.1397 154.926 90.1397 154.492 89.7058C154.058 89.2719 154.058 88.5488 154.492 88.2595Z" fill="#FFFCF2"/>
<path d="M150.3 84.7884C150.734 84.3545 151.312 84.2099 151.456 84.3545C151.601 84.4992 151.456 84.933 150.878 85.3669C150.445 85.8008 149.866 85.9454 149.722 85.8008C149.577 85.5116 149.722 85.0777 150.3 84.7884Z" fill="#FFFCF2"/>
<path d="M140.181 115.594C139.747 115.305 139.892 114.582 140.47 114.148C141.048 113.714 141.771 113.569 142.205 114.003C142.639 114.292 142.494 115.016 141.916 115.449C141.338 115.883 140.615 115.883 140.181 115.594Z" fill="#FFFCF2"/>
<path d="M133.965 120.367C133.532 120.078 133.676 119.355 134.254 118.921C134.833 118.487 135.555 118.342 135.989 118.776C136.423 119.065 136.278 119.789 135.7 120.222C135.122 120.656 134.399 120.801 133.965 120.367Z" fill="#FFFCF2"/>
<path d="M127.749 125.14C127.316 124.85 127.46 124.127 128.039 123.693C128.617 123.259 129.34 123.115 129.773 123.549C130.207 123.838 130.062 124.561 129.484 124.995C128.906 125.429 128.183 125.573 127.749 125.14Z" fill="#FFFCF2"/>
<path d="M121.534 129.912C121.1 129.623 121.245 128.9 121.823 128.466C122.401 128.032 123.268 127.888 123.557 128.322C123.991 128.611 123.846 129.334 123.268 129.768C122.69 130.202 121.967 130.346 121.534 129.912Z" fill="#FFFCF2"/>
<path d="M115.318 134.829C114.884 134.54 115.029 133.817 115.607 133.383C116.185 132.949 117.053 132.805 117.342 133.239C117.775 133.528 117.631 134.251 117.053 134.685C116.474 135.119 115.607 135.119 115.318 134.829Z" fill="#FFFCF2"/>
<path d="M108.957 139.602C108.524 139.313 108.668 138.59 109.247 138.156C109.825 137.722 110.548 137.578 110.981 138.011C111.415 138.301 111.27 139.024 110.692 139.458C110.258 139.892 109.391 139.892 108.957 139.602Z" fill="#FFFCF2"/>
<path d="M102.742 144.375C102.308 144.086 102.453 143.362 103.031 142.929C103.609 142.495 104.477 142.35 104.766 142.784C105.199 143.073 105.055 143.796 104.477 144.23C104.043 144.664 103.176 144.664 102.742 144.375Z" fill="#FFFCF2"/>
<path d="M96.5261 149.148C96.0924 148.859 96.237 148.135 96.8152 147.702C97.3934 147.268 98.1162 147.123 98.5498 147.557C98.9835 147.846 98.8389 148.569 98.2607 149.003C97.8271 149.437 96.9597 149.582 96.5261 149.148Z" fill="#FFFCF2"/>
<path d="M90.3103 153.921C89.8766 153.632 90.0211 152.908 90.5994 152.474C91.1776 152.041 91.9003 151.896 92.334 152.33C92.7677 152.619 92.6231 153.342 92.0449 153.776C91.4667 154.21 90.7439 154.355 90.3103 153.921Z" fill="#FFFCF2"/>
<path d="M84.0944 158.693C83.6608 158.404 83.8053 157.681 84.3835 157.247C84.9618 156.813 85.6845 156.668 86.1182 157.102C86.5518 157.392 86.4073 158.115 85.8291 158.549C85.2509 159.127 84.5281 159.127 84.0944 158.693Z" fill="#FFFCF2"/>
<path d="M77.8786 163.611C77.445 163.321 77.5895 162.598 78.1677 162.164C78.7459 161.731 79.6133 161.586 79.9024 162.02C80.336 162.309 80.1915 163.032 79.6133 163.466C79.035 163.9 78.3123 163.9 77.8786 163.611Z" fill="#FFFCF2"/>
<path d="M71.6628 168.383C71.2291 168.094 71.3737 167.371 71.9519 166.937C72.5301 166.503 73.2529 166.358 73.6866 166.792C74.1202 167.082 73.9757 167.805 73.3974 168.239C72.8192 168.672 72.0965 168.672 71.6628 168.383Z" fill="#FFFCF2"/>
<path d="M186.872 115.594C186.438 115.305 186.583 114.582 187.161 114.148C187.739 113.714 188.607 113.714 188.896 114.003C189.329 114.293 189.185 115.016 188.607 115.45C188.028 115.884 187.306 115.884 186.872 115.594Z" fill="#FFFCF2"/>
<path d="M180.512 120.367C180.078 120.078 180.223 119.355 180.801 118.921C181.379 118.487 182.246 118.487 182.535 118.776C182.969 119.066 182.825 119.789 182.246 120.223C181.813 120.656 180.945 120.656 180.512 120.367Z" fill="#FFFCF2"/>
<path d="M174.296 125.14C173.862 124.85 174.007 124.127 174.585 123.693C175.163 123.26 176.03 123.26 176.32 123.549C176.753 123.838 176.609 124.561 176.03 124.995C175.452 125.429 174.73 125.429 174.296 125.14Z" fill="#FFFCF2"/>
<path d="M168.08 129.768C167.646 129.478 167.791 128.755 168.369 128.321C168.947 127.887 169.815 127.887 170.104 128.177C170.537 128.611 170.393 129.189 169.815 129.623C169.236 130.201 168.369 130.201 168.08 129.768Z" fill="#FFFCF2"/>
<path d="M161.72 134.541C161.286 134.251 161.431 133.528 162.009 133.094C162.587 132.66 163.454 132.66 163.743 132.95C164.177 133.239 164.033 133.962 163.454 134.396C162.876 134.83 162.153 134.974 161.72 134.541Z" fill="#FFFCF2"/>
<path d="M155.504 139.313C155.07 139.024 155.215 138.301 155.793 137.867C156.371 137.433 157.239 137.433 157.528 137.722C157.961 138.011 157.817 138.734 157.239 139.168C156.66 139.602 155.938 139.747 155.504 139.313Z" fill="#FFFCF2"/>
<path d="M149.144 144.086C148.71 143.797 148.854 143.074 149.433 142.64C150.011 142.206 150.878 142.206 151.167 142.495C151.601 142.784 151.456 143.507 150.878 143.941C150.444 144.375 149.577 144.52 149.144 144.086Z" fill="#FFFCF2"/>
<path d="M142.928 148.859C142.494 148.425 142.639 147.847 143.217 147.413C143.795 146.979 144.662 146.979 144.951 147.268C145.241 147.557 145.241 148.28 144.662 148.714C144.084 149.148 143.361 149.293 142.928 148.859Z" fill="#FFFCF2"/>
<path d="M136.567 153.631C136.134 153.197 136.278 152.619 136.856 152.185C137.435 151.751 138.302 151.751 138.591 152.04C139.025 152.33 138.88 153.053 138.302 153.487C137.868 153.921 137.001 153.921 136.567 153.631Z" fill="#FFFCF2"/>
<path d="M130.352 158.404C129.918 158.115 130.062 157.392 130.641 156.958C131.219 156.524 132.086 156.524 132.375 156.813C132.809 157.103 132.664 157.826 132.086 158.26C131.508 158.694 130.785 158.694 130.352 158.404Z" fill="#FFFCF2"/>
<path d="M124.136 163.177C123.702 162.888 123.847 162.164 124.425 161.73C125.003 161.297 125.871 161.297 126.16 161.586C126.593 161.875 126.449 162.598 125.871 163.032C125.292 163.466 124.425 163.466 124.136 163.177Z" fill="#FFFCF2"/>
<path d="M117.776 167.95C117.342 167.66 117.486 166.937 118.065 166.503C118.643 166.07 119.51 166.07 119.799 166.359C120.233 166.648 120.088 167.371 119.51 167.805C118.932 168.239 118.209 168.239 117.776 167.95Z" fill="#FFFCF2"/>
<path d="M111.56 172.722C111.126 172.433 111.271 171.71 111.849 171.276C112.427 170.842 113.294 170.842 113.584 171.131C114.017 171.565 113.873 172.144 113.294 172.578C112.716 173.011 111.849 173.011 111.56 172.722Z" fill="#FFFCF2"/>
<path d="M105.199 177.351C104.766 177.061 104.91 176.338 105.489 175.904C106.067 175.47 106.934 175.47 107.223 175.76C107.657 176.049 107.512 176.772 106.934 177.206C106.5 177.784 105.633 177.784 105.199 177.351Z" fill="#FFFCF2"/>
<path d="M98.9836 182.123C98.5499 181.834 98.6945 181.111 99.2727 180.677C99.8509 180.243 100.718 180.243 101.007 180.532C101.441 180.821 101.296 181.545 100.718 181.978C100.14 182.412 99.4173 182.557 98.9836 182.123Z" fill="#FFFCF2"/>
<path d="M92.6232 186.896C92.1896 186.462 92.3341 185.884 92.9124 185.45C93.4906 185.016 94.3579 185.016 94.647 185.305C95.0807 185.739 94.9361 186.318 94.3579 186.751C93.9242 187.185 93.0569 187.33 92.6232 186.896Z" fill="#FFFCF2"/>
<path d="M86.4074 191.668C85.9738 191.379 86.1183 190.656 86.6965 190.222C87.2747 189.788 88.1421 189.788 88.4312 190.078C88.8648 190.367 88.7203 191.09 88.1421 191.524C87.5639 191.958 86.8411 192.102 86.4074 191.668Z" fill="#FFFCF2"/>
<path d="M80.0471 196.441C79.6134 196.152 79.758 195.429 80.3362 194.995C80.9144 194.561 81.7817 194.561 82.0708 194.851C82.5045 195.14 82.3599 195.863 81.7817 196.297C81.3481 196.731 80.4807 196.875 80.0471 196.441Z" fill="#FFFCF2"/>
<path d="M73.8313 201.214C73.3976 200.925 73.5421 200.201 74.1204 199.768C74.6986 199.334 75.5659 199.334 75.855 199.623C76.2887 199.912 76.1441 200.635 75.5659 201.069C74.9877 201.503 74.2649 201.503 73.8313 201.214Z" fill="#FFFCF2"/>
<path d="M67.6154 205.987C67.1818 205.698 67.3263 204.974 67.9045 204.541C68.4827 204.107 69.3501 204.107 69.6392 204.396C70.0728 204.685 69.9283 205.408 69.3501 205.842C68.7719 206.276 67.9045 206.276 67.6154 205.987Z" fill="#FFFCF2"/>
<path d="M223.589 127.454C223.155 127.02 223.299 126.441 223.878 126.007C224.456 125.573 225.323 125.573 225.612 125.863C226.046 126.297 225.901 126.875 225.323 127.309C224.745 127.743 224.022 127.743 223.589 127.454Z" fill="#FFFCF2"/>
<path d="M217.228 132.082C216.795 131.648 216.939 131.069 217.517 130.635C218.096 130.201 218.963 130.201 219.252 130.491C219.686 130.925 219.541 131.503 218.963 131.937C218.385 132.371 217.662 132.371 217.228 132.082Z" fill="#FFFCF2"/>
<path d="M210.868 136.71C210.434 136.276 210.579 135.698 211.157 135.264C211.735 134.83 212.603 134.83 212.892 135.119C213.325 135.553 213.181 136.131 212.603 136.565C212.024 136.999 211.157 137.144 210.868 136.71Z" fill="#FFFCF2"/>
<path d="M204.363 141.338C203.929 140.904 204.074 140.326 204.652 139.892C205.23 139.458 206.098 139.458 206.387 139.747C206.82 140.181 206.676 140.759 206.098 141.193C205.664 141.772 204.797 141.772 204.363 141.338Z" fill="#FFFCF2"/>
<path d="M198.003 146.111C197.569 145.677 197.714 145.098 198.292 144.665C198.87 144.231 199.737 144.231 200.026 144.52C200.46 144.954 200.315 145.532 199.737 145.966C199.304 146.4 198.436 146.4 198.003 146.111Z" fill="#FFFCF2"/>
<path d="M191.642 150.739C191.209 150.305 191.353 149.726 191.931 149.293C192.51 148.859 193.377 148.859 193.666 149.148C194.1 149.582 193.955 150.16 193.377 150.594C192.799 151.028 192.076 151.028 191.642 150.739Z" fill="#FFFCF2"/>
<path d="M185.282 155.367C184.848 154.933 184.993 154.354 185.571 153.92C186.149 153.487 187.017 153.487 187.306 153.776C187.739 154.21 187.595 154.788 187.017 155.222C186.438 155.656 185.716 155.801 185.282 155.367Z" fill="#FFFCF2"/>
<path d="M178.922 159.995C178.488 159.561 178.632 158.983 179.211 158.549C179.789 158.115 180.656 158.115 180.945 158.404C181.379 158.838 181.234 159.417 180.656 159.851C180.078 160.284 179.211 160.429 178.922 159.995Z" fill="#FFFCF2"/>
<path d="M172.417 164.623C171.983 164.189 172.128 163.611 172.706 163.177C173.284 162.743 174.151 162.743 174.44 163.032C174.874 163.466 174.73 164.045 174.151 164.478C173.718 165.057 172.85 165.057 172.417 164.623Z" fill="#FFFCF2"/>
<path d="M166.056 169.396C165.623 168.962 165.767 168.384 166.345 167.95C166.924 167.516 167.791 167.516 168.08 167.805C168.514 168.239 168.369 168.818 167.791 169.251C167.357 169.685 166.49 169.685 166.056 169.396Z" fill="#FFFCF2"/>
<path d="M159.696 174.024C159.262 173.59 159.407 173.012 159.985 172.578C160.563 172.144 161.431 172.144 161.72 172.433C162.153 172.867 162.009 173.445 161.431 173.879C160.852 174.313 160.13 174.313 159.696 174.024Z" fill="#FFFCF2"/>
<path d="M153.336 178.652C152.902 178.218 153.047 177.639 153.625 177.206C154.203 176.772 155.07 176.772 155.359 177.061C155.793 177.495 155.648 178.073 155.07 178.507C154.492 178.941 153.769 179.086 153.336 178.652Z" fill="#FFFCF2"/>
<path d="M146.975 183.28C146.542 182.846 146.686 182.268 147.264 181.834C147.843 181.4 148.71 181.4 148.999 181.689C149.433 182.123 149.288 182.702 148.71 183.136C148.132 183.57 147.264 183.714 146.975 183.28Z" fill="#FFFCF2"/>
<path d="M140.615 187.908C140.181 187.474 140.326 186.896 140.904 186.462C141.482 186.028 142.35 186.028 142.639 186.317C143.072 186.751 142.928 187.33 142.35 187.764C141.771 188.342 140.904 188.342 140.615 187.908Z" fill="#FFFCF2"/>
<path d="M134.11 192.681C133.676 192.247 133.821 191.669 134.399 191.235C134.977 190.801 135.845 190.801 136.134 191.09C136.567 191.524 136.423 192.103 135.845 192.537C135.411 192.97 134.544 192.97 134.11 192.681Z" fill="#FFFCF2"/>
<path d="M127.75 197.309C127.316 196.875 127.461 196.297 128.039 195.863C128.617 195.429 129.484 195.429 129.773 195.718C130.207 196.152 130.063 196.731 129.484 197.164C128.906 197.598 128.183 197.598 127.75 197.309Z" fill="#FFFCF2"/>
<path d="M121.389 201.937C120.956 201.503 121.1 200.925 121.678 200.491C122.257 200.057 123.124 200.057 123.413 200.346C123.847 200.78 123.702 201.359 123.124 201.792C122.546 202.226 121.823 202.371 121.389 201.937Z" fill="#FFFCF2"/>
<path d="M115.029 206.565C114.595 206.131 114.74 205.553 115.318 205.119C115.896 204.685 116.764 204.685 117.053 204.974C117.486 205.408 117.342 205.986 116.764 206.42C116.185 206.999 115.318 206.999 115.029 206.565Z" fill="#FFFCF2"/>
<path d="M108.669 211.338C108.235 210.904 108.38 210.326 108.958 209.892C109.536 209.458 110.403 209.458 110.692 209.747C111.126 210.181 110.982 210.759 110.403 211.193C109.825 211.627 108.958 211.627 108.669 211.338Z" fill="#FFFCF2"/>
<path d="M102.164 215.966C101.73 215.532 101.875 214.953 102.453 214.52C103.031 214.086 103.898 214.086 104.188 214.375C104.621 214.809 104.477 215.387 103.898 215.821C103.465 216.255 102.597 216.255 102.164 215.966Z" fill="#FFFCF2"/>
<path d="M95.8034 220.594C95.3698 220.16 95.5143 219.582 96.0925 219.148C96.6707 218.714 97.5381 218.714 97.8272 219.003C98.2608 219.437 98.1163 220.016 97.5381 220.45C96.9598 220.884 96.2371 221.028 95.8034 220.594Z" fill="#FFFCF2"/>
<path d="M89.4431 225.222C89.0094 224.788 89.154 224.21 89.7322 223.776C90.3104 223.342 91.1777 223.342 91.4668 223.631C91.9005 224.065 91.7559 224.644 91.1777 225.078C90.5995 225.511 89.8767 225.656 89.4431 225.222Z" fill="#FFFCF2"/>
<path d="M83.0827 229.85C82.6491 229.416 82.7936 228.838 83.3718 228.404C83.95 227.97 84.8174 227.97 85.1065 228.259C85.5401 228.693 85.3956 229.272 84.8174 229.705C84.2391 230.284 83.5164 230.284 83.0827 229.85Z" fill="#FFFCF2"/>
<path d="M78.1678 233.466C77.7341 233.032 77.5896 232.743 77.7341 232.598C77.8787 232.454 78.3124 232.598 78.746 233.032C79.1797 233.466 79.3242 233.755 79.1797 233.9C79.0351 234.044 78.6015 233.9 78.1678 233.466Z" fill="#FFFCF2"/>
<path d="M221.42 163.611C220.987 163.177 221.131 162.598 221.709 162.165C222.288 161.731 223.155 161.731 223.444 162.02C223.878 162.454 223.733 163.032 223.155 163.466C222.577 163.9 221.709 163.9 221.42 163.611Z" fill="#FFFCF2"/>
<path d="M215.06 168.239C214.626 167.805 214.771 167.226 215.349 166.793C215.927 166.359 216.795 166.359 217.084 166.648C217.517 167.082 217.373 167.66 216.795 168.094C216.216 168.528 215.494 168.673 215.06 168.239Z" fill="#FFFCF2"/>
<path d="M208.7 173.012C208.266 172.578 208.411 171.999 208.989 171.565C209.567 171.132 210.434 171.132 210.723 171.421C211.157 171.855 211.013 172.433 210.434 172.867C209.856 173.301 209.133 173.301 208.7 173.012Z" fill="#FFFCF2"/>
<path d="M202.339 177.64C201.906 177.206 202.05 176.627 202.628 176.193C203.207 175.76 204.074 175.76 204.363 176.049C204.797 176.483 204.652 177.061 204.074 177.495C203.496 177.929 202.773 178.074 202.339 177.64Z" fill="#FFFCF2"/>
<path d="M195.979 182.413C195.545 181.979 195.69 181.4 196.268 180.966C196.846 180.532 197.714 180.532 198.003 180.822C198.436 181.256 198.292 181.834 197.714 182.268C197.28 182.702 196.413 182.702 195.979 182.413Z" fill="#FFFCF2"/>
<path d="M189.619 187.041C189.185 186.607 189.329 186.028 189.908 185.594C190.486 185.16 191.353 185.16 191.642 185.45C192.076 185.884 191.931 186.462 191.353 186.896C190.92 187.33 190.052 187.474 189.619 187.041Z" fill="#FFFCF2"/>
<path d="M183.403 191.814C182.969 191.38 183.114 190.801 183.692 190.367C184.27 189.933 185.137 189.933 185.427 190.223C185.86 190.656 185.716 191.235 185.137 191.669C184.559 192.103 183.692 192.103 183.403 191.814Z" fill="#FFFCF2"/>
<path d="M177.042 196.441C176.609 196.008 176.753 195.429 177.332 194.995C177.91 194.561 178.777 194.561 179.066 194.851C179.5 195.284 179.355 195.863 178.777 196.297C178.199 196.875 177.476 196.875 177.042 196.441Z" fill="#FFFCF2"/>
<path d="M170.682 201.214C170.248 200.78 170.393 200.202 170.971 199.768C171.549 199.334 172.417 199.334 172.706 199.623C173.139 200.057 172.995 200.636 172.417 201.07C171.839 201.504 171.116 201.648 170.682 201.214Z" fill="#FFFCF2"/>
<path d="M164.322 205.987C163.888 205.553 164.033 204.974 164.611 204.541C165.189 204.107 166.056 204.107 166.345 204.396C166.779 204.83 166.635 205.408 166.056 205.842C165.623 206.276 164.755 206.276 164.322 205.987Z" fill="#FFFCF2"/>
<path d="M157.961 210.615C157.528 210.181 157.672 209.602 158.25 209.168C158.829 208.735 159.696 208.735 159.985 209.024C160.419 209.458 160.274 210.036 159.696 210.47C159.262 210.904 158.395 211.049 157.961 210.615Z" fill="#FFFCF2"/>
<path d="M151.746 215.388C151.312 214.954 151.456 214.375 152.035 213.941C152.613 213.508 153.48 213.508 153.769 213.797C154.203 214.231 154.058 214.809 153.48 215.243C152.902 215.677 152.035 215.677 151.746 215.388Z" fill="#FFFCF2"/>
<path d="M145.385 220.016C144.952 219.726 145.096 219.003 145.674 218.569C146.253 218.135 147.12 218.135 147.409 218.425C147.843 218.859 147.698 219.437 147.12 219.871C146.542 220.305 145.819 220.45 145.385 220.016Z" fill="#FFFCF2"/>
<path d="M139.025 224.789C138.591 224.355 138.736 223.776 139.314 223.342C139.892 222.908 140.76 222.908 141.049 223.198C141.482 223.632 141.338 224.21 140.76 224.644C140.181 225.078 139.459 225.078 139.025 224.789Z" fill="#FFFCF2"/>
<path d="M132.664 229.417C132.231 228.983 132.375 228.404 132.954 227.97C133.532 227.536 134.399 227.536 134.688 227.826C135.122 228.26 134.977 228.838 134.399 229.272C133.821 229.85 133.098 229.85 132.664 229.417Z" fill="#FFFCF2"/>
<path d="M126.304 234.189C125.87 233.756 126.015 233.177 126.593 232.743C127.171 232.309 128.039 232.309 128.328 232.599C128.762 233.032 128.617 233.611 128.039 234.045C127.605 234.479 126.738 234.479 126.304 234.189Z" fill="#FFFCF2"/>
<path d="M120.088 238.962C119.655 238.528 119.799 237.95 120.377 237.516C120.956 237.082 121.823 237.082 122.112 237.371C122.546 237.805 122.401 238.383 121.823 238.817C121.245 239.251 120.377 239.251 120.088 238.962Z" fill="#FFFCF2"/>
<path d="M113.728 243.59C113.294 243.156 113.439 242.578 114.017 242.144C114.595 241.71 115.463 241.71 115.752 241.999C116.185 242.433 116.041 243.012 115.463 243.446C114.884 243.88 114.017 244.024 113.728 243.59Z" fill="#FFFCF2"/>
<path d="M211.013 203.673C210.579 203.239 210.868 202.66 211.446 202.226C212.024 201.792 212.892 201.792 213.181 202.226C213.614 202.66 213.325 203.239 212.747 203.673C212.169 203.962 211.302 203.962 211.013 203.673Z" fill="#FFFCF2"/>
<path d="M204.218 208.011C203.785 207.578 204.074 206.999 204.652 206.565C205.23 206.131 206.098 206.131 206.387 206.565C206.82 206.999 206.531 207.578 205.953 208.011C205.375 208.301 204.652 208.301 204.218 208.011Z" fill="#FFFCF2"/>
<path d="M197.569 212.35C197.135 211.916 197.424 211.338 198.003 210.904C198.581 210.47 199.448 210.47 199.737 210.904C200.171 211.338 199.882 211.916 199.304 212.35C198.725 212.784 198.003 212.784 197.569 212.35Z" fill="#FFFCF2"/>
<path d="M190.919 216.689C190.486 216.255 190.775 215.677 191.353 215.243C191.931 214.809 192.799 214.809 193.088 215.243C193.521 215.677 193.232 216.255 192.654 216.689C192.076 217.123 191.209 217.123 190.919 216.689Z" fill="#FFFCF2"/>
<path d="M184.126 221.028C183.836 220.594 183.981 220.016 184.559 219.582C185.137 219.148 186.005 219.148 186.294 219.582C186.727 220.016 186.438 220.594 185.86 221.028C185.282 221.462 184.559 221.462 184.126 221.028Z" fill="#FFFCF2"/>
<path d="M177.476 225.367C177.042 224.933 177.331 224.355 177.91 223.921C178.488 223.487 179.355 223.487 179.644 223.921C179.933 224.355 179.789 224.933 179.211 225.367C178.632 225.801 177.91 225.801 177.476 225.367Z" fill="#FFFCF2"/>
<path d="M170.826 229.706C170.393 229.272 170.682 228.693 171.26 228.259C171.838 227.826 172.706 227.826 172.995 228.259C173.428 228.693 173.139 229.272 172.561 229.706C171.983 230.14 171.116 230.14 170.826 229.706Z" fill="#FFFCF2"/>
<path d="M164.033 234.045C163.599 233.611 163.888 233.032 164.466 232.598C165.044 232.164 165.912 232.164 166.201 232.598C166.635 233.032 166.345 233.611 165.767 234.045C165.189 234.479 164.466 234.479 164.033 234.045Z" fill="#FFFCF2"/>
<path d="M157.961 238.094C157.528 237.66 157.672 237.082 158.106 236.792C158.54 236.503 159.262 236.503 159.551 236.937C159.985 237.371 159.841 237.949 159.407 238.239C158.973 238.528 158.395 238.383 157.961 238.094Z" fill="#FFFCF2"/>
<path d="M134.255 120.078L126.738 233.611L142.928 233.177L157.528 120.078H134.255Z" fill="#2D3962"/>
<path d="M58.6532 121.379L44.3424 233.611L27.8633 233.466L47.0889 121.813L58.6532 121.379Z" fill="#2D3962"/>
<path d="M231 174.479C231 175.279 235.4 175.879 241.1 175.979C241.2 182.679 241.8 187.879 242.6 187.879C243.4 187.879 244 182.679 244.1 175.979C249.4 175.879 253.5 175.279 253.5 174.479C253.5 173.679 249.4 173.079 244.1 172.979C244.1 165.679 243.4 159.879 242.6 159.879C241.8 159.879 241.1 165.679 241.1 172.979C235.4 172.979 231 173.679 231 174.479Z" fill="#72BAD1"/>
<path d="M250 195.308C250 195.879 253.129 196.308 257.182 196.379C257.253 201.165 257.68 204.879 258.249 204.879C258.818 204.879 259.244 201.165 259.316 196.379C263.084 196.308 266 195.879 266 195.308C266 194.737 263.084 194.308 259.316 194.237C259.316 189.022 258.818 184.879 258.249 184.879C257.68 184.879 257.182 189.022 257.182 194.237C253.129 194.237 250 194.737 250 195.308Z" fill="#72BAD1"/>
</g>
<defs>
<clipPath id="clip0">
<rect width="254.9" height="214" fill="white" transform="translate(0 374.879)"/>
</clipPath>
<clipPath id="clip1">
<rect width="22.5" height="28" fill="white" transform="translate(28 8.87939)"/>
</clipPath>
<clipPath id="clip2">
<rect width="31" height="39" fill="white" transform="translate(41 36.8794)"/>
</clipPath>
<clipPath id="clip3">
<rect width="271.5" height="144.4" fill="white" transform="translate(27 244.879)"/>
</clipPath>
<clipPath id="clip4">
<rect width="166.2" height="35.7" fill="white" transform="translate(17.8582 217.439) rotate(5.79189)"/>
</clipPath>
<clipPath id="clip5">
<rect width="280" height="175" fill="white" transform="translate(3 68.8794)"/>
</clipPath>
</defs>
</svg>
