<svg width="304" height="301" viewBox="0 0 304 301" fill="none" xmlns="http://www.w3.org/2000/svg">
<path d="M2.02622 298.379L5.61456 22.8794H295.007L301.453 298.379H2.02622Z" fill="#FFFCF2" stroke="#C7C5BB" stroke-width="4"/>
<g clip-path="url(#clip0)">
<path d="M59.7 179.879L53.3 224.679L23 233.579L52 246.579L53.5 280.879L78.2 247.279L112.1 267.579L92.6 232.179L113.7 204.279L75.7 212.779L59.7 179.879Z" fill="#FF606F"/>
<path d="M59.7 179.879L69.7999 228.579L75.7 212.779L59.7 179.879Z" fill="#C24751"/>
<path d="M113.7 204.279L69.8 228.579L75.7001 212.779L113.7 204.279Z" fill="#FF606F"/>
<path d="M23 233.579L69.8 228.579L53.3 224.679L23 233.579Z" fill="#C24751"/>
<path d="M53.5 280.879L69.8 228.579L78.2 247.279L53.5 280.879Z" fill="#FF606F"/>
<path d="M69.8 228.579L112.1 267.579L92.6 232.179L69.8 228.579Z" fill="#FF606F"/>
<path d="M69.8 228.579L113.7 204.279L92.6 232.179L69.8 228.579Z" fill="#C24751"/>
<path d="M69.8 228.579L112.1 267.579L78.2001 247.279L69.8 228.579Z" fill="#C24751"/>
<path d="M69.8 228.579L52 246.579L53.5 280.879L69.8 228.579Z" fill="#C24751"/>
</g>
<path d="M105.9 91.5794C103.2 91.4794 99.4 91.2794 95.1 91.0794C92.9 90.9794 90.6 90.8794 88.1 90.7794C85.7 90.6794 83.2 90.5794 80.6 90.4794C75.6 90.2794 70.5 90.1794 65.8 90.2794C77.2 78.7794 90.1 63.8794 90.1 63.8794C90.1 63.8794 75.3 76.6794 63.8 87.8794C63.8 64.7794 61.8 34.8794 61.8 34.8794C61.8 34.8794 59.9 64.7794 59.8 87.8794C49.6 77.8794 36.1 66.3794 36.1 66.3794C36.1 66.3794 47.8 80.1794 58 90.4794C50.5 90.6794 42.7 91.0794 36.2 91.4794C27.4 92.0794 21 92.6794 21 92.6794C21 92.6794 27.3 93.2794 36.1 93.9794C42.3 94.3794 49.6 94.8794 56.8 95.0794C46.5 105.779 36.1 117.879 36.1 117.879C36.1 117.879 48.9 106.879 59.9 96.2794C60.2 118.079 61.8 142.679 61.8 142.679C61.8 142.679 63.4 118.079 63.7 96.1794C73.3 105.279 84 114.379 84 114.379C84 114.379 75.5 104.379 66.8 95.0794C71.3 94.9794 76 94.7794 80.7 94.5794C82 94.4794 83.2 94.3794 84.5 94.3794C85.7 94.2794 87 94.1794 88.2 94.0794C90.6 93.8794 93 93.6794 95.1 93.4794C99.5 93.0794 103.2 92.6794 105.9 92.3794C108.6 92.0794 110.2 91.8794 110.2 91.8794C110.2 91.8794 108.6 91.7794 105.9 91.5794Z" fill="#72BAD1"/>
<path d="M190.037 169.806L190.097 169.746C190.995 168.845 191.894 167.884 192.733 166.983C194.53 165.182 196.207 163.38 197.765 161.818C200.82 158.695 203.037 156.413 203.037 156.413C203.037 156.413 200.581 158.455 197.286 161.338C195.608 162.779 193.811 164.461 191.954 166.203C190.995 167.043 190.097 167.944 189.198 168.845C189.078 168.965 188.959 169.025 188.899 169.145C188.599 156.293 187.76 141.879 187.76 141.879C187.76 141.879 186.922 156.353 186.742 169.145C181.171 163.8 175.06 158.335 175.06 158.335C175.06 158.335 180.272 164.221 185.484 169.686C183.447 169.686 181.35 169.746 179.253 169.806C178.535 169.806 177.756 169.866 177.037 169.866C176.318 169.926 175.599 169.926 174.88 169.986C173.442 170.046 172.124 170.166 170.806 170.226C165.714 170.527 162 170.827 162 170.827C162 170.827 165.714 171.067 170.806 171.247C172.065 171.307 173.442 171.367 174.88 171.428C175.599 171.428 176.318 171.488 177.037 171.488C177.756 171.488 178.475 171.548 179.253 171.548C181.53 171.608 183.806 171.728 185.963 171.728C185.304 172.388 184.585 173.109 183.866 173.89C182.968 174.791 182.129 175.752 181.23 176.653C179.493 178.514 177.816 180.376 176.378 181.998C173.502 185.301 171.465 187.763 171.465 187.763C171.465 187.763 173.742 185.541 176.917 182.538C178.475 181.037 180.272 179.295 182.069 177.493C182.968 176.592 183.926 175.692 184.825 174.851C185.484 174.25 186.083 173.59 186.682 172.989C186.682 173.049 186.682 173.169 186.682 173.229C186.682 186.802 187.76 204.699 187.76 204.699C187.76 204.699 188.839 186.802 188.839 173.229C188.839 173.169 188.839 173.169 188.839 173.109C194.829 179.115 203.037 186.322 203.037 186.322C203.037 186.322 195.548 177.974 189.498 171.908C200.461 171.848 214 170.947 214 170.947C214 170.947 200.94 169.926 190.037 169.806Z" fill="#FF606F"/>
<g clip-path="url(#clip1)">
<path d="M246.241 218.92C246.171 218.988 246.102 218.988 246.102 219.056C246.033 219.124 246.033 219.124 245.964 219.26C245.895 219.396 245.895 219.328 245.895 219.328C245.826 219.328 245.757 219.26 245.688 219.26C245.481 219.192 245.274 219.192 244.998 219.192C244.515 219.124 243.962 219.124 243.479 219.124C242.443 219.124 241.339 219.192 240.303 219.26C239.268 219.328 238.163 219.464 237.128 219.6L235.54 219.805L233.123 220.145L232.64 218.512L232.502 217.764L232.088 216.267C231.812 215.247 231.536 214.226 231.19 213.274C230.845 212.322 230.5 211.301 230.086 210.417C229.879 209.941 229.671 209.532 229.395 209.124C229.326 208.988 229.257 208.92 229.188 208.852L229.119 208.716L229.05 208.988C228.981 209.396 228.981 209.941 228.981 210.417C228.981 211.437 229.05 212.458 229.188 213.478C229.326 214.498 229.464 215.519 229.602 216.607L229.879 218.172L230.086 219.396L230.431 220.961L228.636 220.689L227.324 220.553L225.598 220.349C224.425 220.213 223.251 220.145 222.077 220.009C220.904 219.941 219.73 219.873 218.625 219.873C218.073 219.873 217.521 219.941 216.969 220.009C216.692 220.077 216.416 220.077 216.209 220.145L216.416 220.281L216.761 220.485C216.969 220.621 217.245 220.689 217.452 220.825C218.418 221.233 219.454 221.573 220.489 221.845C222.561 222.458 224.701 223.002 226.841 223.478L229.326 224.022L228.705 225.383L228.291 226.403L227.738 227.764C227.393 228.648 227.048 229.6 226.772 230.485C226.496 231.369 226.22 232.322 226.012 233.206C225.943 233.682 225.874 234.09 225.805 234.498C225.805 234.566 225.805 234.703 225.805 234.771C225.805 234.839 225.805 234.975 225.805 234.975L225.874 234.907C226.151 234.634 226.496 234.294 226.772 233.954C227.324 233.206 227.877 232.39 228.429 231.573C228.981 230.757 229.464 229.941 229.948 229.056L230.638 227.764L231.259 226.539L231.95 225.179L232.916 226.403L233.814 227.424L234.849 228.58C235.54 229.328 236.23 230.077 236.92 230.757C237.611 231.437 238.37 232.117 239.13 232.73C239.475 233.002 239.889 233.274 240.234 233.478H240.303C240.303 233.478 240.303 233.342 240.234 233.206C240.234 233.138 240.165 233.002 240.165 232.934C240.027 232.526 239.82 232.049 239.613 231.641C239.13 230.757 238.577 229.941 238.025 229.056C237.473 228.24 236.851 227.356 236.23 226.539L235.264 225.315L234.366 224.226L233.33 223.002L234.918 222.662L236.299 222.322L237.887 221.913C238.923 221.641 239.958 221.301 240.994 221.029C242.029 220.689 242.996 220.349 243.962 219.941C244.446 219.737 244.929 219.532 245.274 219.26C245.481 219.124 245.619 218.988 245.688 218.92C245.688 218.92 245.688 218.92 245.757 218.988C245.826 219.056 245.895 219.056 246.033 219.056C246.033 219.056 246.033 219.056 246.102 219.056C246.033 219.056 245.964 219.124 245.895 219.124L246.517 218.716C246.517 218.716 246.517 218.784 246.586 218.852C246.655 218.92 246.586 218.988 246.655 219.056C246.655 219.124 246.655 219.26 246.586 219.328C246.31 219.737 245.688 220.213 244.791 220.689C243.824 221.165 242.582 221.709 240.994 222.254C240.165 222.526 239.337 222.798 238.37 223.138C237.611 223.342 236.782 223.614 235.885 223.886C236.023 224.022 236.161 224.226 236.299 224.362C236.575 224.703 236.851 225.043 237.128 225.383C237.68 226.131 238.301 226.879 238.923 227.764C239.544 228.58 240.165 229.532 240.787 230.553C241.063 231.097 241.408 231.573 241.615 232.186C241.753 232.458 241.822 232.798 241.96 233.206C241.96 233.274 241.96 233.274 241.96 233.342V233.546C241.96 233.682 241.96 233.818 241.96 233.954C241.96 234.09 241.96 234.226 241.891 234.362C241.822 234.498 241.822 234.634 241.753 234.703C241.684 234.703 241.615 234.771 241.546 234.771C241.477 234.839 241.408 234.907 241.339 234.975C241.27 235.043 241.201 235.043 241.132 235.111L240.856 235.179C240.51 235.247 240.096 235.179 239.751 234.975C239.544 234.907 239.475 234.839 239.337 234.771C239.199 234.703 239.13 234.634 238.992 234.566C238.784 234.43 238.577 234.294 238.37 234.158C237.542 233.546 236.851 232.866 236.092 232.186C235.333 231.437 234.573 230.689 233.814 229.873C233.469 229.464 233.054 229.056 232.709 228.648L232.433 228.376L232.364 228.308V228.376C232.364 228.376 232.364 228.376 232.295 228.512C232.088 228.92 231.881 229.328 231.674 229.737C231.19 230.553 230.707 231.437 230.224 232.254C229.671 233.138 229.119 233.954 228.429 234.839C228.084 235.247 227.738 235.723 227.255 236.131C227.117 236.267 226.565 236.675 226.082 236.811C225.805 236.879 225.598 236.879 225.322 236.811C225.046 236.811 224.908 236.607 224.701 236.471C224.563 236.335 224.425 236.131 224.356 235.995C224.287 235.791 224.148 235.587 224.148 235.383C224.079 235.111 224.079 235.043 224.079 234.839C224.079 234.703 224.079 234.566 224.079 234.43C224.079 233.886 224.148 233.41 224.287 232.866C224.494 231.913 224.77 230.961 225.046 230.009C225.322 229.056 225.667 228.104 226.082 227.152C226.289 226.675 226.496 226.199 226.634 225.723L226.772 225.383C226.841 225.315 226.772 225.315 226.772 225.315C226.151 225.179 225.529 225.043 224.908 224.907C224.148 224.703 223.389 224.498 222.63 224.362C221.18 223.954 219.799 223.614 218.556 223.206C217.314 222.798 216.278 222.39 215.45 221.913C215.381 221.845 215.174 221.709 215.036 221.641C214.897 221.505 214.69 221.437 214.621 221.301C214.552 221.165 214.414 221.029 214.345 220.961C214.276 220.825 214.207 220.689 214.207 220.553C214.138 220.281 214.138 220.077 214.207 219.873C214.207 219.805 214.276 219.805 214.276 219.737V219.669C214.345 219.6 214.345 219.532 214.414 219.464C214.414 219.124 214.552 218.988 214.69 218.852C214.897 218.784 215.036 218.648 215.243 218.58L215.519 218.512C215.657 218.444 215.726 218.444 215.795 218.444L216.14 218.376C216.623 218.308 217.038 218.24 217.452 218.24C218.28 218.172 219.109 218.172 219.937 218.172C221.525 218.24 222.975 218.308 224.218 218.444C225.46 218.58 226.565 218.716 227.462 218.784C227.669 218.784 227.877 218.852 228.084 218.852H228.153H228.222V218.784C228.153 218.444 228.084 218.104 228.015 217.764C227.877 217.015 227.807 216.335 227.669 215.587C227.462 214.158 227.324 212.798 227.255 211.437C227.255 210.757 227.186 210.077 227.255 209.464C227.255 209.124 227.324 208.784 227.393 208.444C227.393 208.308 227.531 208.036 227.6 207.764C227.738 207.56 227.877 207.288 228.084 207.152C228.153 207.083 228.291 207.015 228.429 206.947C228.567 206.947 228.705 206.879 228.843 206.879C228.981 206.879 229.119 206.879 229.188 206.879L229.533 206.947C229.741 207.083 230.017 207.22 230.155 207.356C230.362 207.56 230.431 207.628 230.569 207.764C230.983 208.308 231.259 208.784 231.466 209.328C232.364 211.369 232.916 213.206 233.4 214.771C233.607 215.587 233.814 216.267 233.952 216.947C234.021 217.288 234.09 217.628 234.159 217.9C234.159 217.968 234.228 218.104 234.228 218.172C235.264 218.036 236.161 217.968 236.989 217.832C238.025 217.696 238.923 217.628 239.82 217.56C241.477 217.424 242.858 217.424 243.893 217.424C244.929 217.424 245.688 217.56 246.171 217.696C246.31 217.764 246.448 217.764 246.517 217.832C246.655 217.9 246.724 217.968 246.793 217.968C246.931 218.104 247 218.172 247 218.172L246.241 218.92Z" fill="#C3C3C3"/>
</g>
<path d="M90.8601 160.921C93.1399 160.838 97.3264 159.512 95.544 156.652C93.2642 153.004 89.3679 151.387 88 154.621" fill="#C3C3C3"/>
<g clip-path="url(#clip2)">
<path d="M171.2 42.8794L158.6 58.6794L138.6 59.3794L151.9 67.5794L143.9 87.8794L162.9 73.1794L176 87.4794L175.1 71.7794L189.5 63.4794L170.7 60.4794L171.2 42.8794Z" fill="#FF606F"/>
<path d="M164.6 64.1794L189.5 62.6794V66.7794L164.5 65.2794L164.6 64.1794Z" fill="#C24751"/>
<path d="M163.5 64.9794L169.2 42.8794L172.5 42.9794L164.8 64.9794H163.5Z" fill="#C24751"/>
<path d="M143.2 87.2795L163.9 64.4795L164.7 65.1795L146.1 88.0795L143.2 87.2795Z" fill="#C24751"/>
<path d="M165.4 64.6794L176.9 87.0794L175.7 87.5794L164.2 65.0794L165.4 64.6794Z" fill="#C24751"/>
<path d="M139 58.5793L164.9 64.1793L164.4 65.1793C164.4 65.1793 161.3 64.9793 151.7 62.5793C142.1 60.1793 138.5 59.5793 138.5 59.5793L139 58.5793Z" fill="#C24751"/>
<path d="M135.5 99.2795L144.6 116.58L164.6 115.98L151.8 124.98L161.3 144.68L141.4 131.38L130.6 151.98L129 130.88L114.1 123.58L132.7 119.28L135.5 99.2795Z" fill="#4F8BAD"/>
<path d="M139 122.479L114 122.779L114.4 126.879L139.2 123.579L139 122.479Z" fill="#326987"/>
<path d="M140.1 123.179L137.4 99.1794L134.1 99.3794L138.8 123.379L140.1 123.179Z" fill="#326987"/>
<path d="M161.9 144.079L139.7 122.679L138.9 123.579L159.1 145.079L161.9 144.079Z" fill="#326987"/>
<path d="M138.2 123.079L129.7 151.679L131 152.079L139.5 123.379L138.2 123.079Z" fill="#326987"/>
<path d="M164.1 115.179L138.7 122.579L139.3 123.579C139.3 123.579 142.3 123.179 151.7 120.079C161.1 116.979 164.7 116.179 164.7 116.179L164.1 115.179Z" fill="#326987"/>
</g>
<path d="M129.09 267.2L144.684 258.997L144.143 240.97L152.256 252.507L170.013 243.944L158.024 261.882L176.593 271.616L157.574 273.059L150.994 286.489L147.118 269.724L129.09 267.2Z" fill="#4F8BAD"/>
<path d="M150.002 264.045L150.273 286.58L153.968 286.219L150.994 263.865L150.002 264.045Z" fill="#326987"/>
<path d="M150.633 263.053L129 265.487L129.18 268.462L150.813 264.225L150.633 263.053Z" fill="#326987"/>
<path d="M169.472 243.404L150.182 263.414L150.994 264.135L170.373 245.927L169.472 243.404Z" fill="#326987"/>
<path d="M150.543 264.766L176.322 272.428L176.683 271.256L150.813 263.594L150.543 264.766Z" fill="#326987"/>
<path d="M143.422 241.421L150.092 264.316L150.994 263.775C150.994 263.775 150.633 261.071 147.839 252.598C145.045 244.125 144.323 240.88 144.323 240.88L143.422 241.421Z" fill="#326987"/>
<path d="M282.2 181.579L266.4 168.979L265.7 148.979L257.5 162.279L237.2 154.279L251.9 173.279L237.6 186.379L253.3 185.479L261.6 199.879L264.6 181.079L282.2 181.579Z" fill="#FF606F"/>
<path d="M260.9 174.979L262.4 199.879L258.3 199.879L259.8 174.879L260.9 174.979Z" fill="#C24751"/>
<path d="M260.1 173.879L282.2 179.579L282.1 182.879L260.1 175.179L260.1 173.879Z" fill="#C24751"/>
<path d="M237.8 153.579L260.6 174.279L259.9 175.079L237 156.479L237.8 153.579Z" fill="#C24751"/>
<path d="M260.4 175.779L238 187.279L237.5 186.079L260 174.579L260.4 175.779Z" fill="#C24751"/>
<path d="M266.5 149.379L260.9 175.279L259.9 174.779C259.9 174.779 260.1 171.679 262.5 162.079C264.9 152.479 265.5 148.879 265.5 148.879L266.5 149.379Z" fill="#C24751"/>
<path d="M125.6 55.3794C122.7 55.5794 117.3 57.4794 119.7 61.0794C122.8 65.7794 128 67.5794 129.6 63.3794" fill="#C3C3C3"/>
<path d="M81 46.0794C82.6 48.7794 85.8 49.0794 87 47.3794C88.1 45.7794 89.4 42.1794 86.5 41.8794" fill="#C3C3C3"/>
<path d="M193 244.079C194.6 246.779 197.8 247.079 199 245.379C200.1 243.779 201.4 240.179 198.5 239.879" fill="#C3C3C3"/>
<path d="M222.365 270.31C225.365 278.11 232.065 282.51 235.865 276.91C239.565 271.31 237.065 264.81 232.765 264.11C228.465 263.31 220.165 264.41 222.365 270.31Z" fill="#C3C3C3"/>
<rect x="206" y="2.87939" width="94" height="134" fill="#ACACAC"/>
<path d="M236.564 67.8345C250.923 67.9419 258.192 72.8117 258.371 82.4438C259.051 96.158 255.453 103.552 247.575 104.626C242.813 104.877 238.229 101.099 233.825 93.2935L226.735 97.6978C228.955 107.043 233.968 112.522 241.774 114.133C265.3 117.642 277.242 108.905 277.6 87.9224C277.385 75.7479 270.152 67.6375 255.9 63.5913C265.64 59.9032 271.083 53.422 272.229 44.1479C272.3 21.661 260.716 15.1978 237.478 24.7583L236.833 16.3257L231.516 16.5942L229.689 38.7769L238.444 37.4878C248.578 28.1063 254.253 28.1958 255.471 37.7563C256.044 49.8592 249.849 57.522 236.887 60.7446L236.564 67.8345ZM260.842 106.238C262.596 104.985 264.011 102.747 265.085 99.5239C265.121 102.603 263.706 104.841 260.842 106.238ZM263.044 84.646C263.474 88.0119 262.578 92.5594 260.358 98.2886C262.328 90.7332 262.167 83.1242 259.875 75.4614C261.558 78.1828 262.614 81.2443 263.044 84.646ZM263.205 77.6099L262.346 76.4819C261.486 74.1903 259.947 71.6838 257.727 68.9624C260.985 70.9318 262.811 73.8143 263.205 77.6099ZM262.722 99.5776L260.09 103.069C263.885 96.9816 265.389 90.59 264.602 83.894C266.428 89.2293 265.801 94.4572 262.722 99.5776ZM234.577 105.916C231.713 104.519 230.298 102.281 230.334 99.2017C231.408 102.424 232.823 104.662 234.577 105.916ZM260.305 43.6646C259.875 47.0304 258.819 50.0741 257.136 52.7954C259.427 45.1326 259.589 37.5236 257.619 29.9683C259.839 35.6974 260.734 40.2629 260.305 43.6646ZM260.305 29.5923C263.384 34.7127 264.011 39.9406 262.185 45.2759C262.972 38.5799 261.468 32.1883 257.673 26.1011L260.305 29.5923Z" fill="white"/>
<g clip-path="url(#clip3)">
<path d="M14 143.779C14 144.479 18.2 145.179 23.6 145.179C23.7 151.579 24.3 156.479 25 156.479C25.7 156.479 26.3 151.579 26.4 145.179C31.5 145.079 35.3 144.479 35.3 143.779C35.3 143.079 31.4 142.479 26.4 142.379C26.4 135.379 25.8 129.879 25 129.879C24.2 129.879 23.6 135.379 23.6 142.279C18.2 142.379 14 142.979 14 143.779Z" fill="#B3C8D3"/>
</g>
<g clip-path="url(#clip4)">
<path d="M261 211.779C261 212.479 265.2 213.179 270.6 213.179C270.7 219.579 271.3 224.479 272 224.479C272.7 224.479 273.3 219.579 273.4 213.179C278.5 213.079 282.3 212.479 282.3 211.779C282.3 211.079 278.4 210.479 273.4 210.379C273.4 203.379 272.8 197.879 272 197.879C271.2 197.879 270.6 203.379 270.6 210.279C265.2 210.379 261 210.979 261 211.779Z" fill="#B3C8D3"/>
</g>
<g clip-path="url(#clip5)">
<path d="M270 244.677C270 245.573 275.378 246.469 282.292 246.469C282.42 254.664 283.188 260.937 284.084 260.937C284.98 260.937 285.749 254.664 285.877 246.469C292.407 246.341 297.272 245.573 297.272 244.677C297.272 243.78 292.279 243.012 285.877 242.884C285.877 233.921 285.108 226.879 284.084 226.879C283.06 226.879 282.292 233.921 282.292 242.756C275.378 242.884 270 243.652 270 244.677Z" fill="#B3C8D3"/>
</g>
<g clip-path="url(#clip6)">
<path d="M149 193.779C149 194.479 153.2 195.179 158.6 195.179C158.7 201.579 159.3 206.479 160 206.479C160.7 206.479 161.3 201.579 161.4 195.179C166.5 195.079 170.3 194.479 170.3 193.779C170.3 193.079 166.4 192.479 161.4 192.379C161.4 185.379 160.8 179.879 160 179.879C159.2 179.879 158.6 185.379 158.6 192.279C153.2 192.379 149 192.979 149 193.779Z" fill="#B3C8D3"/>
</g>
<g clip-path="url(#clip7)">
<path d="M32 170.613C32 171.758 38.8692 172.903 47.7009 172.903C47.8645 183.37 48.8458 191.384 49.9907 191.384C51.1355 191.384 52.1168 183.37 52.2804 172.903C60.6215 172.739 66.8364 171.758 66.8364 170.613C66.8364 169.468 60.4579 168.487 52.2804 168.323C52.2804 156.875 51.2991 147.879 49.9907 147.879C48.6822 147.879 47.7009 156.875 47.7009 168.16C38.8692 168.323 32 169.305 32 170.613Z" fill="#B3C8D3"/>
</g>
<defs>
<clipPath id="clip0">
<rect width="90.7" height="101" fill="white" transform="translate(23 179.879)"/>
</clipPath>
<clipPath id="clip1">
<rect width="33" height="30" fill="white" transform="translate(214 206.879)"/>
</clipPath>
<clipPath id="clip2">
<rect width="75.5" height="109.2" fill="white" transform="translate(114 42.8794)"/>
</clipPath>
<clipPath id="clip3">
<rect width="21.4" height="26.6" fill="white" transform="translate(14 129.879)"/>
</clipPath>
<clipPath id="clip4">
<rect width="21.4" height="26.6" fill="white" transform="translate(261 197.879)"/>
</clipPath>
<clipPath id="clip5">
<rect width="27.4" height="34.0579" fill="white" transform="translate(270 226.879)"/>
</clipPath>
<clipPath id="clip6">
<rect width="21.4" height="26.6" fill="white" transform="translate(149 179.879)"/>
</clipPath>
<clipPath id="clip7">
<rect width="35" height="43.5047" fill="white" transform="translate(32 147.879)"/>
</clipPath>
</defs>
</svg>
