<svg width="629" height="298" viewBox="0 0 629 298" fill="none" xmlns="http://www.w3.org/2000/svg">
<path d="M19.5238 282.403L13.5571 18.3794H612.375L623.395 288.354L19.5238 282.403Z" fill="#FFFCF2" stroke="#C3C3C3" stroke-width="5"/>
<g clip-path="url(#clip0)">
<path d="M30.7866 217.595C30.7866 217.595 27.8072 223.401 20.6899 237.5C13.5726 251.434 11.0898 256.576 11.0898 256.576L9.76562 255.913C9.76562 255.913 10.5932 250.936 18.0416 236.505C25.4899 221.908 28.8003 216.766 28.8003 216.766L30.7866 217.595Z" fill="#2D3962"/>
<path d="M514.765 141.126C514.434 141.126 515.592 138.306 516.254 133.496C516.42 132.334 516.42 130.842 516.254 129.349C516.089 127.856 515.758 126.197 514.599 125.368C513.606 124.372 512.116 125.368 511.123 127.026C510.13 128.519 509.468 130.676 508.971 132.666C508.475 134.823 508.144 137.145 507.978 139.633C507.813 141.955 507.813 144.609 508.475 146.932C508.806 148.093 509.302 149.254 510.13 149.751C510.792 150.415 511.785 150.581 512.944 150.083C515.096 149.254 517.247 147.263 518.737 144.941C521.882 140.131 523.372 133.993 523.206 127.69C523.041 124.538 522.71 121.221 521.22 118.898C520.392 117.737 519.399 116.908 518.075 116.742C516.751 116.576 515.261 116.908 513.937 117.571C511.123 118.898 508.64 121.387 506.654 123.875C504.502 126.363 502.682 129.183 501.027 131.837C497.882 137.477 495.399 143.116 493.413 148.756C489.606 160.036 487.785 170.652 486.792 179.609C485.799 188.567 485.633 195.865 485.633 201.007C485.633 206.15 485.633 208.969 485.468 208.969C485.302 208.969 484.971 206.15 484.64 201.173C484.309 196.031 484.144 188.733 484.971 179.609C485.799 170.486 487.454 159.704 491.261 148.093C493.247 142.287 495.564 136.315 498.875 130.676C500.53 127.856 502.516 125.036 504.668 122.216C506.985 119.562 509.468 116.908 512.944 115.249C514.599 114.42 516.585 113.756 518.737 114.088C520.889 114.42 522.71 115.747 523.703 117.406C524.696 119.064 525.358 120.889 525.689 122.548C526.02 124.372 526.185 126.031 526.185 127.69C526.351 134.491 524.696 141.126 521.22 146.434C519.399 149.088 517.247 151.41 514.103 152.571C513.275 152.903 512.447 152.903 511.454 152.737C510.627 152.571 509.634 152.24 508.971 151.576C507.647 150.415 506.985 148.922 506.654 147.429C505.992 144.609 505.992 141.955 506.323 139.301C506.489 136.813 506.985 134.325 507.482 132.169C508.144 129.846 508.806 127.69 510.13 125.865C510.792 125.036 511.454 124.041 512.613 123.543C513.109 123.211 513.771 123.211 514.434 123.211C515.096 123.377 515.592 123.543 516.089 124.041C516.916 124.87 517.247 125.699 517.578 126.695C517.909 127.524 517.909 128.353 518.075 129.183C518.24 130.842 518.075 132.334 517.744 133.496C517.247 135.984 516.585 137.974 516.089 139.135C515.096 140.628 514.765 141.126 514.765 141.126Z" fill="#2D3962"/>
<path d="M442.764 143.448C442.433 143.448 443.757 140.794 444.419 135.818C444.584 134.657 444.584 133.164 444.419 131.671C444.253 130.178 443.922 128.519 442.764 127.69C441.77 126.695 440.281 127.69 439.122 129.183C438.129 130.676 437.301 132.666 436.805 134.823C436.308 136.979 435.977 139.301 435.812 141.623C435.646 143.946 435.646 146.6 436.308 148.922C436.639 150.083 437.136 151.244 437.964 151.908C438.626 152.571 439.619 152.737 440.777 152.405C442.929 151.742 445.081 149.586 446.571 147.263C449.715 142.453 451.205 136.315 451.04 130.012C450.874 126.86 450.543 123.543 449.053 121.055C448.226 119.894 447.233 119.064 445.908 118.898C444.584 118.732 443.095 119.064 441.77 119.728C438.957 121.055 436.474 123.543 434.488 126.031C432.336 128.519 430.515 131.339 428.86 133.993C425.715 139.633 423.232 145.273 421.246 150.913C417.439 162.192 415.453 172.808 414.46 181.766C413.467 190.723 413.301 198.022 413.301 203.164C413.301 208.306 413.301 211.126 413.136 211.126C412.97 211.126 412.639 208.306 412.308 203.164C411.977 198.022 411.812 190.723 412.639 181.6C413.467 172.477 415.122 161.695 418.929 150.083C420.915 144.278 423.232 138.306 426.543 132.666C428.198 129.846 430.184 127.026 432.336 124.206C434.653 121.552 437.136 118.898 440.612 117.24C442.267 116.41 444.253 115.747 446.405 116.078C448.557 116.41 450.377 117.903 451.371 119.562C452.364 121.221 453.026 123.045 453.191 124.704C453.357 125.533 453.522 126.529 453.522 127.358C453.688 128.187 453.688 129.017 453.688 129.846C453.853 136.647 452.198 143.282 448.557 148.59C446.736 151.244 444.584 153.567 441.274 154.728C440.943 154.894 440.446 154.894 439.95 155.059C439.453 155.059 439.122 155.059 438.626 155.059C437.798 154.894 436.805 154.396 436.143 153.898C434.819 152.737 434.322 151.244 433.826 149.751C433.163 146.932 433.163 144.278 433.495 141.623C433.66 139.135 434.157 136.647 434.653 134.491C435.315 132.169 436.143 130.012 437.467 128.353C438.129 127.524 438.957 126.695 440.115 126.197C440.612 125.865 441.274 125.865 441.936 125.865C442.598 126.031 443.095 126.197 443.591 126.695C444.419 127.524 444.915 128.353 445.081 129.349C445.412 130.178 445.412 131.007 445.577 131.837C445.743 133.496 445.412 134.988 445.246 136.15C444.75 138.638 444.088 140.628 443.591 141.789C443.26 142.785 442.929 143.448 442.764 143.448Z" fill="#2D3962"/>
<path d="M129.767 278.638C129.767 278.638 258.375 262.548 386.984 246.458C419.095 242.477 451.371 238.495 481.495 234.68C489.109 233.685 496.392 232.856 503.675 231.86C511.123 231.031 517.744 230.036 524.199 228.377C527.344 227.382 530.654 226.718 533.634 225.391C535.123 224.728 536.613 224.23 538.103 223.567C539.592 222.903 540.917 222.24 542.406 221.576C543.896 220.913 545.055 220.083 546.379 219.42C547.703 218.59 549.027 217.927 550.186 217.097C552.668 215.273 555.151 213.78 557.303 211.789C566.241 204.325 572.696 195.699 577.662 187.571C580.145 183.59 582.131 179.443 583.952 175.794C585.772 171.979 587.096 168.495 588.421 165.344C589.579 162.026 590.572 159.206 591.565 156.552C592.393 154.064 593.055 151.742 593.552 149.917C594.71 146.268 595.207 144.443 595.207 144.443L601 146.102C601 146.102 600.172 149.586 598.021 157.714C597.359 159.704 596.531 162.026 595.703 164.68C595.207 166.007 594.876 167.334 594.379 168.827C593.883 170.32 593.221 171.813 592.559 173.306C591.897 174.965 591.234 176.623 590.572 178.282C589.745 179.941 588.917 181.766 588.09 183.59C587.593 184.586 587.262 185.415 586.765 186.41C586.269 187.405 585.772 188.401 585.11 189.23C583.952 191.221 582.958 193.211 581.469 195.368C580.145 197.358 578.655 199.514 577.165 201.671C575.51 203.827 573.689 205.984 572.034 208.14C570.048 210.296 568.062 212.453 565.745 214.609C564.586 215.604 563.427 216.6 562.103 217.761C561.441 218.259 560.944 218.756 560.282 219.42C559.62 219.917 558.958 220.415 558.296 220.913C556.972 221.908 555.648 222.903 554.158 223.898C552.668 224.894 551.179 225.723 549.689 226.552C548.862 227.05 548.2 227.548 547.372 227.879C546.544 228.211 545.717 228.709 544.889 229.041C543.234 229.87 541.579 230.699 539.924 231.363C532.972 234.349 525.358 236.505 517.082 237.998C515.096 238.33 512.944 238.661 510.792 238.993C508.64 239.325 506.654 239.491 504.502 239.823C500.199 240.32 495.895 240.984 491.426 241.481C482.488 242.642 473.054 243.804 462.957 245.131C443.095 247.619 421.081 250.439 397.081 253.424C205.078 277.477 130.595 283.78 130.595 283.78L129.767 278.638Z" fill="#2D3962"/>
<path d="M23.1726 291.908C23.1726 291.908 164.526 274.325 305.879 256.576C341.135 252.097 376.556 247.785 409.66 243.638C426.212 241.481 442.267 239.491 457.329 237.666C464.778 236.671 471.729 235.178 478.35 233.022C484.971 231.031 490.93 228.045 496.392 224.894C507.151 218.258 515.261 209.633 521.22 201.173C522.047 200.178 522.709 199.017 523.371 198.022C524.034 197.026 524.696 195.865 525.358 194.87C526.682 192.879 527.675 190.723 528.834 188.732C530.985 184.751 532.641 180.77 534.13 177.453C536.944 170.486 538.93 164.68 540.089 160.865C541.247 156.884 541.91 154.894 541.91 154.894L547.703 156.552C547.703 156.552 547.537 157.548 546.875 159.538C546.379 161.529 545.551 164.846 544.227 169.159C543.565 171.315 542.572 173.804 541.744 176.789C540.751 179.609 539.427 182.761 537.937 186.244C537.275 188.069 536.282 189.728 535.454 191.552C534.461 193.377 533.634 195.367 532.475 197.358C531.316 199.349 530.158 201.339 528.834 203.495C527.509 205.652 525.854 207.642 524.365 209.965C523.537 211.126 522.709 212.121 521.716 213.282C520.723 214.443 519.896 215.439 518.902 216.6C517.909 217.761 516.916 218.756 515.758 219.917C514.599 220.913 513.606 222.074 512.447 223.235C507.647 227.382 502.185 231.694 495.73 235.012C489.275 238.33 481.992 241.481 474.047 243.306C466.102 245.462 457.495 246.623 448.722 247.785C413.301 252.429 369.935 258.069 317.135 264.704C105.601 290.581 23.8347 297.879 23.8347 297.879L23.1726 291.908Z" fill="#2D3962"/>
<path d="M458.322 242.145C458.322 242.145 456.502 237.168 452.364 225.557C448.06 213.78 446.571 209.633 446.571 209.633L447.895 209.135C447.895 209.135 450.543 212.121 455.012 224.396C459.481 236.505 460.474 241.481 460.474 241.481L458.322 242.145Z" fill="#2D3962"/>
<path d="M152.112 280.297C152.112 280.297 150.291 275.32 146.154 263.709C141.85 251.932 140.36 247.785 140.36 247.785L141.684 247.287C141.684 247.287 144.333 250.273 148.802 262.548C153.271 274.657 154.264 279.633 154.264 279.633L152.112 280.297Z" fill="#2D3962"/>
<path d="M70.5112 256.576L65.8767 291.079L63.8905 290.747C63.8905 290.747 63.3939 286.766 65.2146 273.993C66.8698 261.055 68.525 256.244 68.525 256.244L70.5112 256.576Z" fill="#2D3962"/>
<path d="M179.588 242.974L174.954 277.476L172.968 277.145C172.968 277.145 172.471 273.164 174.292 260.391C175.947 247.453 177.602 242.642 177.602 242.642L179.588 242.974Z" fill="#2D3962"/>
<path d="M281.879 230.202L277.245 264.704L275.258 264.372C275.258 264.372 274.762 260.391 276.583 247.619C278.238 234.68 279.893 229.87 279.893 229.87L281.879 230.202Z" fill="#2D3962"/>
<path d="M387.48 217.097L382.846 251.6L380.859 251.268C380.859 251.268 380.363 247.287 382.184 234.514C383.839 221.576 385.494 216.766 385.494 216.766L387.48 217.097Z" fill="#2D3962"/>
<path d="M254.9 267.524C254.9 267.524 253.079 262.548 248.941 250.936C244.637 239.159 243.148 235.012 243.148 235.012L244.472 234.515C244.472 234.515 247.12 237.5 251.589 249.775C256.058 261.884 257.051 266.861 257.051 266.861L254.9 267.524Z" fill="#2D3962"/>
<path d="M360.997 254.254C360.997 254.254 359.177 249.278 355.039 237.666C350.735 225.889 349.245 221.742 349.245 221.742L350.57 221.244C350.57 221.244 353.218 224.23 357.687 236.505C362.156 248.614 363.149 253.59 363.149 253.59L360.997 254.254Z" fill="#2D3962"/>
<path d="M13.5725 166.837C13.5725 166.837 169.823 93.3533 202.099 123.377C234.541 153.401 152.112 176.955 162.705 200.178C173.298 223.401 417.108 164.183 417.108 164.183L489.606 161.197L467.757 195.533L53.6281 247.121L13.5725 166.837Z" fill="#2D3962"/>
<path d="M89.3804 157.382C89.3804 157.382 266.982 91.8606 293.134 123.377C319.286 154.894 222.623 192.714 231.561 205.984C240.499 219.42 489.44 161.197 489.44 161.197C484.971 182.595 484.971 208.804 484.971 208.804L120.829 254.42L89.3804 157.382Z" fill="#FF606F"/>
<path d="M13.5725 166.837L41.7108 264.206L120.829 254.42L89.3803 157.382L13.5725 166.837Z" fill="#C24751"/>
<path d="M593.552 155.391C594.214 161.031 589.745 166.339 583.621 167.169C577.331 167.998 571.703 164.017 571.041 158.211C570.379 152.571 574.848 147.263 580.972 146.434C587.096 145.605 592.724 149.586 593.552 155.391Z" fill="#FF606F"/>
<path d="M539.758 165.344C540.42 170.818 536.448 175.628 530.654 176.458C525.027 177.121 519.896 173.306 519.234 167.998C518.572 162.524 522.544 157.713 528.337 156.884C533.799 156.221 538.93 160.036 539.758 165.344Z" fill="#FF606F"/>
<path d="M486.411 193.211C486.411 193.211 426.659 200.676 284.147 218.424C212.808 227.216 164.311 233.022 133.69 236.671C118.297 238.496 107.538 239.657 100.421 240.32C96.9449 240.652 94.2966 240.818 92.6414 240.984C91.8138 240.984 91.1517 241.15 90.6552 241.15C90.6552 241.15 89.6621 241.15 89.4966 240.984C89.1655 240.818 89 240.818 89 240.818L90.1586 238.827C90.1586 238.827 90.3242 238.827 90.6552 238.827C90.9862 238.827 91.4828 238.827 92.3104 238.661C93.8001 238.496 96.1173 238.164 99.2622 237.832C105.717 237.003 115.649 235.676 130.214 233.685C159.511 229.704 207.181 223.401 281.168 214.443C355.155 205.32 406.3 199.183 439.073 195.202C471.846 191.387 486.08 189.728 486.08 189.728L486.411 193.211Z" fill="#C24751"/>
<path d="M232.202 204.363C232.202 204.363 226.078 205.358 212.836 207.68C199.429 209.837 178.905 213.32 149.773 218.131C120.642 222.941 100.78 225.927 88.2002 227.751C81.9105 228.581 77.4415 229.244 74.4621 229.576C72.9725 229.742 71.9793 229.742 71.1517 229.742C70.9862 229.742 70.8207 229.742 70.4897 229.742C70.3241 229.742 70.1586 229.742 69.9931 229.742C69.331 229.576 69 229.41 69 229.41L70.1586 227.42C70.1586 227.42 71.3173 227.42 73.8001 226.922C76.4484 226.424 80.5863 225.595 86.3795 224.6C98.2969 222.443 117.663 218.794 147.953 213.984C178.077 209.007 199.098 205.856 212.505 203.699C225.912 201.709 231.705 200.879 231.705 200.879L232.202 204.363Z" fill="#C24751"/>
<path d="M277.837 165.363C277.837 165.363 245.561 170.007 168.429 180.955C129.863 186.429 103.545 189.913 86.9934 191.903C78.7174 192.898 72.7587 193.562 68.9518 193.894C66.9656 194.059 65.6414 194.225 64.6483 194.225C64.1518 194.225 63.6552 194.225 63.3242 194.225C62.9931 194.225 62.4966 194.059 62.331 194.059C62.1655 193.894 62 193.894 62 193.894L63.1586 191.903C63.1586 192.069 64.6483 191.903 68.1242 191.405C71.6001 190.908 77.0622 190.078 84.8416 188.751C100.731 186.263 126.387 182.282 166.443 176.642C206.498 171.003 234.14 167.353 251.85 165.031C269.561 162.709 277.34 161.879 277.34 161.879L277.837 165.363Z" fill="#C24751"/>
<path d="M297.997 136.863C297.997 136.863 275.755 139.965 192.168 152.571C150.292 158.875 121.822 162.856 103.781 165.344C94.6771 166.505 88.3874 167.334 84.0839 167.832C81.9321 167.998 80.4424 168.164 79.4493 168.164C78.9528 168.164 78.4562 168.164 78.1252 168.164H77.9597C77.7941 168.164 77.7941 168.164 77.6286 168.164C77.4631 168.164 77.2976 167.998 77.1321 167.998C76.9665 167.832 76.801 167.832 76.801 167.832L77.9597 165.841C77.9597 166.007 79.6148 165.841 83.2563 165.178C87.0632 164.514 92.8564 163.519 101.463 162.192C118.677 159.372 146.65 154.728 190.016 148.424C233.382 141.955 263.507 137.642 282.707 134.988C301.907 132.334 297.5 133.379 297.5 133.379L297.997 136.863Z" fill="#C24751"/>
<path d="M0 255.581L99.808 240.32L100.801 249.112L1.98623 262.216L0 255.581Z" fill="#C24751"/>
<path d="M92.8561 208.14C92.8561 208.14 90.7044 213.614 85.4078 226.718C80.2767 239.823 78.2905 244.633 78.2905 244.633L76.9663 244.135C76.9663 244.135 77.1318 239.657 82.594 225.889C88.0561 212.287 90.7044 207.145 90.7044 207.145L92.8561 208.14Z" fill="#2D3962"/>
<path d="M102.953 239.988L74.8147 244.135L77.132 252.263L105.767 248.448L102.953 239.988Z" fill="#FF606F"/>
<path d="M93.5183 170.32C93.5183 170.32 102.125 167.334 117.353 162.69C132.581 157.879 154.264 151.244 180.581 144.112C193.823 140.628 208.058 136.979 223.451 133.827C231.065 132.169 239.01 130.842 247.12 129.68C255.23 128.519 263.672 127.69 272.445 128.353C274.596 128.519 276.914 128.851 279.065 129.514C281.217 130.178 283.534 131.339 285.189 133.661C285.852 134.823 286.348 136.15 286.348 137.477C286.348 138.804 286.017 139.965 285.521 141.126C284.693 143.448 283.369 145.273 281.879 147.097C279.065 150.747 275.755 153.732 272.445 156.718C269.134 159.704 265.658 162.524 262.017 165.344C254.899 170.818 247.617 176.292 240.499 181.766C236.858 184.586 233.382 187.24 229.906 190.225C226.43 193.045 223.12 196.197 220.14 199.349C218.651 201.007 217.327 202.832 216.665 204.657C216.333 205.486 216.002 206.481 216.168 207.311C216.168 208.14 216.499 208.638 217.327 209.467C218.651 210.794 220.637 211.789 222.623 212.453C224.609 213.116 226.761 213.614 228.913 213.946C237.685 215.273 246.623 214.941 255.562 214.609C273.272 213.614 290.817 211.292 307.535 208.638C341.135 203.33 372.253 197.026 398.901 191.387C425.55 185.581 447.564 180.439 463.122 176.623C478.516 172.974 487.288 170.652 487.288 170.652L487.785 172.642C487.785 172.642 483.978 173.638 474.874 175.96C465.771 178.282 451.536 181.932 430.515 186.742C409.494 191.552 382.018 198.022 346.101 204.823C328.224 208.14 308.197 211.789 285.852 214.609C274.596 215.936 262.844 217.263 250.43 217.761C244.141 217.927 237.851 217.927 231.23 217.263C227.92 216.932 224.609 216.434 221.299 215.273C219.644 214.609 217.989 213.946 216.499 212.785C216.168 212.453 215.671 212.287 215.34 211.789L214.347 210.628C213.685 209.799 213.354 208.638 213.189 207.477C213.023 205.154 214.016 203.33 214.844 201.837C215.837 200.178 216.83 198.851 217.989 197.524C220.306 194.87 222.623 192.714 225.106 190.391C230.072 186.078 235.203 182.097 240.168 178.282C250.099 170.652 259.865 163.685 268.638 156.221C272.941 152.571 277.079 148.756 280.224 144.443C281.714 142.287 283.038 139.965 283.203 137.808C283.369 135.652 282.045 133.993 279.893 132.998C277.741 132.003 275.258 131.505 272.776 131.173C270.293 130.842 267.81 130.842 265.327 130.842C260.362 130.842 255.562 131.339 250.761 132.003C241.327 133.164 232.389 134.823 223.947 136.481C215.506 138.14 207.561 139.965 199.947 141.789C184.885 145.439 171.643 149.088 160.057 152.24C136.884 158.709 120.498 163.851 109.739 167.169C98.9804 170.486 94.0149 172.145 94.0149 172.145L93.5183 170.32Z" fill="#FFFCF2"/>
<path d="M18.207 181.766C18.207 181.766 29.6278 179.941 56.773 175.462C83.9181 170.984 93.6837 169.491 93.6837 169.491L94.0148 171.647C94.0148 171.647 86.0699 175.131 57.9316 179.775C29.7934 184.42 18.7036 185.083 18.7036 185.083L18.207 181.766Z" fill="#B3C8D3"/>
</g>
<mask id="mask0" style="mask-type:alpha" maskUnits="userSpaceOnUse" x="11" y="15" width="615" height="276">
<path d="M19.5238 282.403L13.5571 18.3794H612.375L623.395 288.354L19.5238 282.403Z" fill="#FFFCF2" stroke="#C3C3C3" stroke-width="5"/>
</mask>
<g mask="url(#mask0)">
<path d="M354.9 114.279C352.8 117.379 349.3 118.679 348.2 115.779C347.1 112.879 348.9 110.28 350.9 110.38C352.9 110.58 356.5 111.879 354.9 114.279Z" fill="#C3C3C3"/>
<path d="M582.4 279.28C585 279.08 587.1 280.38 586.1 282.18C585 283.98 582.9 284.18 582.1 283.08C581.3 281.98 580.4 279.48 582.4 279.28Z" fill="#C3C3C3"/>
<path d="M558.7 262.979C561.3 262.779 563.4 264.079 562.4 265.879C561.3 267.679 559.2 267.879 558.4 266.779C557.5 265.679 556.7 263.179 558.7 262.979Z" fill="#C3C3C3"/>
<path d="M534.9 200.179C537.5 199.979 539.6 201.28 538.6 203.08C537.5 204.88 535.4 205.079 534.6 203.979C533.7 202.879 532.9 200.379 534.9 200.179Z" fill="#C3C3C3"/>
<path d="M380.8 297.879C374.2 297.279 369.4 292.979 372.9 288.979C376.4 284.979 382 285.479 383.4 288.679C384.8 291.779 385.8 298.379 380.8 297.879Z" fill="#C3C3C3"/>
<path d="M311.1 208.079C309.1 213.279 304.5 216.279 302 212.479C299.5 208.679 301.2 204.279 304.1 203.779C307 203.379 312.6 204.079 311.1 208.079Z" fill="#C3C3C3"/>
<path d="M565.5 235.58C569.7 228.78 577 225.78 579.5 231.78C582 237.78 578.4 243.58 574.2 243.38C570 243.28 562.2 240.78 565.5 235.58Z" fill="#C3C3C3"/>
<path d="M266.5 199.78C264.4 202.88 260.9 204.18 259.8 201.28C258.7 198.38 260.5 195.78 262.5 195.88C264.5 196.08 268.1 197.38 266.5 199.78Z" fill="#C3C3C3"/>
<path d="M317.8 272.079C320.4 271.879 322.5 273.179 321.5 274.979C320.4 276.779 318.3 276.979 317.5 275.879C316.7 274.679 315.8 272.179 317.8 272.079Z" fill="#C3C3C3"/>
<path d="M421.6 272.079C424.2 271.879 426.3 273.179 425.3 274.979C424.2 276.779 422.1 276.979 421.3 275.879C420.5 274.679 419.6 272.179 421.6 272.079Z" fill="#C3C3C3"/>
<path d="M294.4 105.579C287.8 104.979 283 100.679 286.5 96.6794C290 92.6794 295.5 93.1794 297 96.3794C298.4 99.4794 299.4 106.079 294.4 105.579Z" fill="#C3C3C3"/>
<path d="M352 157.779C350 162.979 345.4 165.979 342.9 162.179C340.4 158.379 342.1 153.979 345 153.479C347.9 153.179 353.5 153.779 352 157.779Z" fill="#C3C3C3"/>
<path d="M623.1 250.88C620.3 248.38 619.6 244.68 622.5 244.08C625.5 243.48 627.8 245.58 627.4 247.58C627 249.48 625.2 252.88 623.1 250.88Z" fill="#C3C3C3"/>
<path d="M155.3 265.28C157.9 265.08 160 266.38 159 268.18C157.9 269.98 155.8 270.18 155 269.08C154.2 267.88 153.3 265.48 155.3 265.28Z" fill="#C3C3C3"/>
<path d="M226.6 272.079C229.2 271.879 231.3 273.179 230.3 274.979C229.2 276.779 227.1 276.979 226.3 275.879C225.5 274.679 224.7 272.179 226.6 272.079Z" fill="#C3C3C3"/>
<path d="M468.4 260.08C462.9 259.18 459 255.28 462.2 252.08C465.4 248.88 470.1 249.68 471.1 252.38C472.2 255.08 472.6 260.78 468.4 260.08Z" fill="#C3C3C3"/>
<path d="M37.4999 259.679C35.3999 262.779 31.8999 264.079 30.7999 261.179C29.6999 258.279 31.4999 255.679 33.4999 255.779C35.4999 255.979 39.0999 257.279 37.4999 259.679Z" fill="#C3C3C3"/>
<path d="M267 274.58C264.9 277.68 261.4 278.98 260.3 276.08C259.2 273.18 261 270.58 263 270.68C265.1 270.88 268.7 272.18 267 274.58Z" fill="#C3C3C3"/>
<path d="M94.1999 241.479C92.0999 244.579 88.5999 245.879 87.4999 242.979C86.3999 240.079 88.1999 237.479 90.1999 237.579C92.1999 237.779 95.7999 239.079 94.1999 241.479Z" fill="#C3C3C3"/>
<path d="M119.1 253.679C121.7 253.479 123.8 254.78 122.8 256.58C121.7 258.38 119.6 258.579 118.8 257.479C118 256.279 117.1 253.879 119.1 253.679Z" fill="#C3C3C3"/>
<path d="M519.3 34.2793C523.5 27.4793 530.8 24.4793 533.3 30.4793C535.8 36.4793 532.2 42.2793 528 42.0793C523.8 41.9793 516.1 39.4793 519.3 34.2793Z" fill="#C3C3C3"/>
<path d="M405 56.7794C403 61.9794 398.4 64.9794 395.9 61.1794C393.4 57.3794 395.1 52.9794 398 52.4794C400.9 52.0794 406.5 52.7794 405 56.7794Z" fill="#C3C3C3"/>
<path d="M188 198.379C182.5 197.479 178.6 193.579 181.8 190.379C185 187.179 189.7 187.979 190.7 190.679C191.8 193.479 192.2 199.079 188 198.379Z" fill="#C3C3C3"/>
<path d="M144.4 37.8794C148.6 31.0794 155.9 28.0794 158.4 34.0794C160.9 40.0794 157.3 45.8794 153.1 45.6794C148.9 45.5794 141.1 43.0794 144.4 37.8794Z" fill="#C3C3C3"/>
<path d="M475.2 17.4794C473.1 20.5794 469.6 21.8794 468.5 18.9794C467.4 16.0794 469.2 13.4795 471.2 13.5795C473.2 13.7795 476.8 15.0794 475.2 17.4794Z" fill="#C3C3C3"/>
<path d="M467.2 41.9794C465.1 45.0794 461.6 46.3794 460.5 43.4794C459.4 40.5794 461.2 37.9795 463.2 38.0795C465.2 38.2795 468.8 39.5794 467.2 41.9794Z" fill="#C3C3C3"/>
<path d="M441.1 19.2793C443.7 19.0793 445.8 20.3793 444.8 22.1793C443.7 23.9793 441.6 24.1794 440.8 23.0794C439.9 21.9794 439.1 19.4793 441.1 19.2793Z" fill="#C3C3C3"/>
<path d="M627.9 148.279C632.1 141.479 639.4 138.479 641.9 144.479C644.4 150.479 640.8 156.279 636.6 156.079C632.4 155.979 624.6 153.479 627.9 148.279Z" fill="#C3C3C3"/>
<path d="M473.2 104.379C471.1 110.579 465.8 114.279 462.7 109.979C459.6 105.679 461.4 100.379 464.8 99.6794C468.2 98.9794 474.9 99.5794 473.2 104.379Z" fill="#C3C3C3"/>
<path d="M550.1 113.48C554.3 106.68 561.6 103.68 564.1 109.68C566.6 115.68 563 121.48 558.8 121.28C554.6 121.18 546.8 118.68 550.1 113.48Z" fill="#C3C3C3"/>
<path d="M544.1 162.08C542 165.18 538.5 166.48 537.4 163.58C536.3 160.68 538.1 158.08 540.1 158.18C542.1 158.38 545.7 159.68 544.1 162.08Z" fill="#C3C3C3"/>
<path d="M618.5 103.579C616.4 106.679 612.9 107.979 611.8 105.079C610.7 102.179 612.5 99.5793 614.5 99.6793C616.5 99.8793 620.1 101.179 618.5 103.579Z" fill="#C3C3C3"/>
<path d="M587.1 82.2793C589.7 82.0793 591.8 83.3793 590.8 85.1793C589.7 86.9793 587.6 87.1794 586.8 86.0794C586 84.8794 585.2 82.4793 587.1 82.2793Z" fill="#C3C3C3"/>
<path d="M589.7 13.0794C592.3 12.8794 594.4 14.1794 593.4 15.9794C592.3 17.7794 590.2 17.9794 589.4 16.8794C588.6 15.7794 587.7 13.2794 589.7 13.0794Z" fill="#C3C3C3"/>
<path d="M518.6 62.2793C521.2 62.0793 523.3 63.3793 522.3 65.1793C521.2 66.9793 519.1 67.1794 518.3 66.0794C517.5 64.9794 516.7 62.4793 518.6 62.2793Z" fill="#C3C3C3"/>
<path d="M443.6 52.3794C446.2 52.1794 448.3 53.4794 447.3 55.2794C446.2 57.0794 444.1 57.2794 443.3 56.1794C442.5 54.9794 441.7 52.5794 443.6 52.3794Z" fill="#C3C3C3"/>
<path d="M537.4 92.6795C540 92.4795 542.1 93.7795 541.1 95.5795C540 97.3795 537.9 97.5795 537.1 96.4795C536.3 95.3795 535.5 92.8795 537.4 92.6795Z" fill="#C3C3C3"/>
<path d="M587.1 127.879C589.7 127.679 591.8 128.979 590.8 130.779C589.7 132.579 587.6 132.779 586.8 131.679C586 130.479 585.2 127.979 587.1 127.879Z" fill="#C3C3C3"/>
<path d="M149.1 166.28C151.7 166.08 153.8 167.38 152.8 169.18C151.7 170.98 149.6 171.18 148.8 170.08C147.9 168.88 147.1 166.48 149.1 166.28Z" fill="#C3C3C3"/>
<path d="M380.8 53.3794C374.2 52.7794 369.4 48.4794 372.9 44.4794C376.4 40.4794 382 40.9794 383.4 44.1794C384.8 47.2794 385.8 53.8794 380.8 53.3794Z" fill="#C3C3C3"/>
<path d="M590.9 178.079C588.9 183.279 584.3 186.279 581.8 182.479C579.3 178.679 581 174.279 583.9 173.779C586.8 173.379 592.5 174.079 590.9 178.079Z" fill="#C3C3C3"/>
<path d="M91.5 149.879C86 148.979 82.1 145.079 85.3 141.879C88.5 138.679 93.2 139.479 94.2 142.179C95.3 144.879 95.7 150.579 91.5 149.879Z" fill="#C3C3C3"/>
<path d="M326.5 140.879C330.7 134.079 338 131.079 340.5 137.079C343 143.079 339.4 148.879 335.2 148.679C331 148.579 323.2 146.079 326.5 140.879Z" fill="#C3C3C3"/>
<path d="M500.7 173.679C498.6 176.779 495.1 178.079 494 175.179C492.9 172.279 494.7 169.679 496.7 169.779C498.7 169.979 502.3 171.279 500.7 173.679Z" fill="#C3C3C3"/>
<path d="M459.5 123.479C457.4 126.579 453.9 127.879 452.8 124.979C451.7 122.079 453.5 119.479 455.5 119.579C457.5 119.779 461.1 121.079 459.5 123.479Z" fill="#C3C3C3"/>
<path d="M163.8 103.579C161.7 106.679 158.2 107.979 157.1 105.079C156 102.179 157.8 99.5793 159.8 99.6793C161.8 99.8793 165.4 101.179 163.8 103.579Z" fill="#C3C3C3"/>
<path d="M118.9 52.6794C116.8 55.7794 113.3 57.0794 112.2 54.1794C111.1 51.2794 112.9 48.6794 114.9 48.7794C116.9 48.9794 120.5 50.2794 118.9 52.6794Z" fill="#C3C3C3"/>
<path d="M372.8 103.579C370.7 106.679 367.2 107.979 366.1 105.079C365 102.179 366.8 99.5793 368.8 99.6793C370.8 99.8793 374.4 101.179 372.8 103.579Z" fill="#C3C3C3"/>
<path d="M435.4 92.0795C432.6 89.5795 431.9 85.8795 434.8 85.2795C437.8 84.6795 440.1 86.7795 439.7 88.7795C439.4 90.6795 437.5 94.0795 435.4 92.0795Z" fill="#C3C3C3"/>
<path d="M492.7 61.4794C489.9 58.9794 489.2 55.2794 492.1 54.6794C495.1 54.0794 497.4 56.1794 497 58.1794C496.7 60.0794 494.9 63.4794 492.7 61.4794Z" fill="#C3C3C3"/>
<path d="M515.8 133.879C518.4 133.679 520.5 134.979 519.5 136.779C518.4 138.579 516.3 138.779 515.5 137.679C514.7 136.479 513.9 133.979 515.8 133.879Z" fill="#C3C3C3"/>
<path d="M350.2 68.7793C352.8 68.5793 354.9 69.8793 353.9 71.6793C352.8 73.4793 350.7 73.6794 349.9 72.5794C349.1 71.3794 348.3 68.9793 350.2 68.7793Z" fill="#C3C3C3"/>
<path d="M317.8 27.5794C320.4 27.3794 322.5 28.6794 321.5 30.4794C320.4 32.2794 318.3 32.4794 317.5 31.3794C316.7 30.1794 315.8 27.6794 317.8 27.5794Z" fill="#C3C3C3"/>
<path d="M479.4 144.479C482 144.279 484.1 145.579 483.1 147.379C482 149.179 479.9 149.379 479.1 148.279C478.3 147.079 477.5 144.579 479.4 144.479Z" fill="#C3C3C3"/>
<path d="M505.5 90.4795C508.1 90.2795 510.2 91.5795 509.2 93.3795C508.1 95.1795 506 95.3795 505.2 94.2795C504.4 93.1795 503.6 90.6795 505.5 90.4795Z" fill="#C3C3C3"/>
<path d="M272.9 62.2793C275.5 62.0793 277.6 63.3793 276.6 65.1793C275.5 66.9793 273.4 67.1794 272.6 66.0794C271.8 64.9794 271 62.4793 272.9 62.2793Z" fill="#C3C3C3"/>
<path d="M406.6 98.7793C409.2 98.5793 411.3 99.8793 410.3 101.679C409.2 103.479 407.1 103.679 406.3 102.579C405.4 101.379 404.6 98.9793 406.6 98.7793Z" fill="#C3C3C3"/>
<path d="M421.6 27.5794C424.2 27.3794 426.3 28.6794 425.3 30.4794C424.2 32.2794 422.1 32.4794 421.3 31.3794C420.5 30.1794 419.6 27.6794 421.6 27.5794Z" fill="#C3C3C3"/>
<path d="M291.7 92.6795C294.3 92.4795 296.4 93.7795 295.4 95.5795C294.3 97.3795 292.2 97.5795 291.4 96.4795C290.6 95.3795 289.7 92.8795 291.7 92.6795Z" fill="#C3C3C3"/>
<path d="M459.9 179.28C462.5 179.08 464.6 180.38 463.6 182.18C462.5 183.98 460.4 184.18 459.6 183.08C458.8 181.98 457.9 179.48 459.9 179.28Z" fill="#C3C3C3"/>
<path d="M415.3 173.479C417.9 173.279 420 174.579 419 176.379C417.9 178.179 415.8 178.379 415 177.279C414.2 176.179 413.3 173.679 415.3 173.479Z" fill="#C3C3C3"/>
<path d="M218 40.8795C216 46.0795 211.4 49.0795 208.9 45.2795C206.4 41.4795 208.1 37.0795 211 36.5795C213.9 36.1795 219.5 36.8795 218 40.8795Z" fill="#C3C3C3"/>
<path d="M280.3 38.6794C278.2 41.7794 274.7 43.0794 273.6 40.1794C272.5 37.2794 274.3 34.6794 276.3 34.7794C278.3 34.8794 281.9 36.1794 280.3 38.6794Z" fill="#C3C3C3"/>
<path d="M246.1 19.2793C248.7 19.0793 250.8 20.3793 249.8 22.1793C248.7 23.9793 246.6 24.1794 245.8 23.0794C245 21.9794 244.1 19.4793 246.1 19.2793Z" fill="#C3C3C3"/>
<path d="M344.5 34.4795C347.1 34.2795 349.2 35.5795 348.2 37.3795C347.1 39.1795 345 39.3795 344.2 38.2795C343.3 37.0795 342.5 34.5795 344.5 34.4795Z" fill="#C3C3C3"/>
<path d="M34.6 38.6794C32.5 41.7794 29 43.0794 27.9 40.1794C26.8 37.2794 28.6 34.6794 30.6 34.7794C32.6 34.8794 36.2 36.1794 34.6 38.6794Z" fill="#C3C3C3"/>
<path d="M187.2 148.279C191.4 141.479 198.7 138.479 201.2 144.479C203.7 150.479 200.1 156.279 195.9 156.079C191.7 155.979 183.9 153.479 187.2 148.279Z" fill="#C3C3C3"/>
<path d="M197.2 63.1794C195.1 69.3794 189.8 73.0794 186.7 68.7794C183.6 64.4794 185.4 59.1794 188.8 58.4794C192.2 57.8794 198.9 58.4794 197.2 63.1794Z" fill="#C3C3C3"/>
<path d="M238.3 110.879C236.3 116.079 231.7 119.079 229.2 115.279C226.7 111.479 228.4 107.079 231.3 106.579C234.2 106.179 239.8 106.779 238.3 110.879Z" fill="#C3C3C3"/>
<path d="M308.1 114.78C302.6 113.88 298.7 109.98 301.9 106.78C305.1 103.58 309.8 104.38 310.8 107.08C311.9 109.78 312.3 115.48 308.1 114.78Z" fill="#C3C3C3"/>
<path d="M96.6 114.379C100.8 107.579 108.1 104.579 110.6 110.579C113.1 116.579 109.5 122.379 105.3 122.179C101.1 122.179 93.4 119.679 96.6 114.379Z" fill="#C3C3C3"/>
<path d="M346.5 148.379C344.4 151.479 340.9 152.779 339.8 149.879C338.7 146.979 340.5 144.379 342.5 144.479C344.5 144.579 348.2 145.979 346.5 148.379Z" fill="#C3C3C3"/>
<path d="M336.4 73.5793C334.3 76.6793 330.8 77.9793 329.7 75.0793C328.6 72.1793 330.4 69.5793 332.4 69.6793C334.4 69.8793 338 71.1793 336.4 73.5793Z" fill="#C3C3C3"/>
<path d="M264.6 123.479C262.5 126.579 259 127.879 257.9 124.979C256.8 122.079 258.6 119.479 260.6 119.579C262.6 119.779 266.2 121.079 264.6 123.479Z" fill="#C3C3C3"/>
<path d="M139.2 182.879C137.1 185.979 133.6 187.279 132.5 184.379C131.4 181.479 133.2 178.879 135.2 178.979C137.2 179.179 140.8 180.479 139.2 182.879Z" fill="#C3C3C3"/>
<path d="M209.6 126.979C207.5 130.079 204 131.379 202.9 128.479C201.8 125.579 203.6 122.979 205.6 123.079C207.6 123.279 211.2 124.579 209.6 126.979Z" fill="#C3C3C3"/>
<path d="M240.4 92.0795C237.6 89.5795 236.9 85.8795 239.8 85.2795C242.8 84.6795 245.1 86.7795 244.7 88.7795C244.4 90.6795 242.6 94.0795 240.4 92.0795Z" fill="#C3C3C3"/>
<path d="M297.8 61.4794C295 58.9794 294.3 55.2794 297.2 54.6794C300.2 54.0794 302.5 56.1794 302.1 58.1794C301.8 60.0794 299.9 63.4794 297.8 61.4794Z" fill="#C3C3C3"/>
<path d="M320.9 133.879C323.5 133.679 325.6 134.979 324.6 136.779C323.5 138.579 321.4 138.779 320.6 137.679C319.8 136.479 318.9 133.979 320.9 133.879Z" fill="#C3C3C3"/>
<path d="M155.3 68.7793C157.9 68.5793 160 69.8793 159 71.6793C157.9 73.4793 155.8 73.6794 155 72.5794C154.2 71.3794 153.3 68.9793 155.3 68.7793Z" fill="#C3C3C3"/>
<path d="M284.5 144.479C287.1 144.279 289.2 145.579 288.2 147.379C287.1 149.179 285 149.379 284.2 148.279C283.4 147.079 282.5 144.579 284.5 144.479Z" fill="#C3C3C3"/>
<path d="M320.9 82.9795C323.5 82.7795 325.6 84.0795 324.6 85.8795C323.5 87.6795 321.4 87.8795 320.6 86.7795C319.8 85.6795 318.9 83.1795 320.9 82.9795Z" fill="#C3C3C3"/>
<path d="M78 62.2793C80.6 62.0793 82.7 63.3793 81.7 65.1793C80.6 66.9793 78.5 67.1794 77.7 66.0794C76.9 64.9794 76 62.4793 78 62.2793Z" fill="#C3C3C3"/>
<path d="M211.6 98.7793C214.2 98.5793 216.3 99.8793 215.3 101.679C214.2 103.479 212.1 103.679 211.3 102.579C210.5 101.379 209.6 98.9793 211.6 98.7793Z" fill="#C3C3C3"/>
<path d="M96.8 92.6795C99.4 92.4795 101.5 93.7795 100.5 95.5795C99.4 97.3795 97.3 97.5795 96.5 96.4795C95.7 95.3795 94.8 92.8795 96.8 92.6795Z" fill="#C3C3C3"/>
<path d="M246.1 142.679C248.7 142.479 250.8 143.78 249.8 145.58C248.7 147.38 246.6 147.579 245.8 146.479C245 145.279 244.1 142.779 246.1 142.679Z" fill="#C3C3C3"/>
<path d="M146.5 127.879C149.1 127.679 151.2 128.979 150.2 130.779C149.1 132.579 147 132.779 146.2 131.679C145.4 130.479 144.5 127.979 146.5 127.879Z" fill="#C3C3C3"/>
<path d="M52.8 193.179C50.7 196.279 47.2 197.579 46.1 194.679C45 191.779 46.8 189.179 48.8 189.279C50.8 189.379 54.4 190.679 52.8 193.179Z" fill="#C3C3C3"/>
<path d="M18.8998 123.479C16.7998 126.579 13.2998 127.879 12.1998 124.979C11.0998 122.079 12.8998 119.479 14.8998 119.579C16.8998 119.779 20.4998 121.079 18.8998 123.479Z" fill="#C3C3C3"/>
<path d="M52.0998 61.4794C49.2998 58.9794 48.5998 55.2794 51.4998 54.6794C54.4998 54.0794 56.7998 56.1794 56.3998 58.1794C55.9998 60.0794 54.1998 63.4794 52.0998 61.4794Z" fill="#C3C3C3"/>
<path d="M75.1999 133.879C77.7999 133.679 79.8999 134.979 78.8999 136.779C77.7999 138.579 75.6999 138.779 74.8999 137.679C74.0999 136.479 73.1999 133.979 75.1999 133.879Z" fill="#C3C3C3"/>
<path d="M38.7998 144.479C41.3998 144.279 43.4998 145.579 42.4998 147.379C41.3998 149.179 39.2998 149.379 38.4998 148.279C37.5998 147.079 36.7998 144.579 38.7998 144.479Z" fill="#C3C3C3"/>
<path d="M64.8999 90.4795C67.4999 90.2795 69.5999 91.5795 68.5999 93.3795C67.4999 95.1795 65.3999 95.3795 64.5999 94.2795C63.7999 93.1795 62.8999 90.6795 64.8999 90.4795Z" fill="#C3C3C3"/>
<path d="M77.8 215.28C80.4 215.08 82.5 216.38 81.5 218.18C80.4 219.98 78.3 220.18 77.5 219.08C76.7 217.98 75.8 215.48 77.8 215.28Z" fill="#C3C3C3"/>
</g>
<path d="M57.2461 111.985L57.5146 107.688L46.2354 105.056L48.4912 20.1392L24.1064 32.6538V35.4468L33.0225 36.1987L34.9561 104.143L23.9453 108.44V111.609L57.2461 111.985ZM40.166 94.3677C39.6289 87.7791 39.6826 83.3211 40.3271 80.9937C40.8643 85.7918 40.8105 90.2498 40.166 94.3677ZM43.0664 87.5464L42.6904 86.4185C42.1891 72.203 42.0638 61.5682 42.3145 54.5142C43.0306 58.2381 43.4245 64.576 43.4961 73.5278V81.3159L43.0664 87.5464ZM38.7695 62.356V54.5679C38.8411 45.616 39.235 39.2782 39.9512 35.5542C40.2018 42.6082 40.0765 53.243 39.5752 67.4585L39.1992 68.5864L38.7695 62.356ZM87.915 111.663C108.218 111.591 118.87 99.4702 119.873 75.3003C120.947 41.3908 111.243 24.1854 90.7617 23.6841C73.2161 22.7173 63.4587 36.0018 61.4893 63.5376C59.8779 95.5493 68.6865 111.591 87.915 111.663ZM88.8818 31.9556C100.519 31.3468 105.944 44.2375 105.156 70.6274C103.438 92.2909 98.5677 103.248 90.5469 103.499C80.3776 103.069 75.5615 88.8892 76.0986 60.9595C76.8506 42.4829 81.1117 32.8149 88.8818 31.9556ZM80.6641 102.532C76.5462 99.9894 74.5231 95.9253 74.5947 90.3394C76.1344 96.2476 78.1576 100.312 80.6641 102.532ZM109.937 60.3149C110.545 66.4738 109.274 74.799 106.123 85.2905C108.952 71.4689 108.737 57.5399 105.479 43.5034C107.878 48.5164 109.364 54.1203 109.937 60.3149ZM110.205 47.478L109.023 45.3833C107.77 41.158 105.568 36.5747 102.417 31.6333C107.036 35.214 109.632 40.4956 110.205 47.478ZM109.561 87.6538L105.801 94.0454C111.172 82.9093 113.302 71.2183 112.192 58.9722C114.806 68.7118 113.929 78.2723 109.561 87.6538Z" fill="#2D3962"/>
<path d="M575.029 118.985L575.298 114.688L564.019 112.056L566.274 27.1392L541.89 39.6538V42.4468L550.806 43.1987L552.739 111.143L541.729 115.44V118.609L575.029 118.985ZM557.949 101.368C557.412 94.7791 557.466 90.3211 558.11 87.9937C558.647 92.7918 558.594 97.2498 557.949 101.368ZM560.85 94.5464L560.474 93.4185C559.972 79.203 559.847 68.5682 560.098 61.5142C560.814 65.2381 561.208 71.576 561.279 80.5278V88.3159L560.85 94.5464ZM556.553 69.356V61.5679C556.624 52.616 557.018 46.2782 557.734 42.5542C557.985 49.6082 557.86 60.243 557.358 74.4585L556.982 75.5864L556.553 69.356ZM611.338 118.985L611.606 114.688L600.327 112.056L602.583 27.1392L578.198 39.6538V42.4468L587.114 43.1987L589.048 111.143L578.037 115.44V118.609L611.338 118.985ZM594.258 101.368C593.721 94.7791 593.774 90.3211 594.419 87.9937C594.956 92.7918 594.902 97.2498 594.258 101.368ZM597.158 94.5464L596.782 93.4185C596.281 79.203 596.156 68.5682 596.406 61.5142C597.122 65.2381 597.516 71.576 597.588 80.5278V88.3159L597.158 94.5464ZM592.861 69.356V61.5679C592.933 52.616 593.327 46.2782 594.043 42.5542C594.294 49.6082 594.168 60.243 593.667 74.4585L593.291 75.5864L592.861 69.356Z" fill="#2D3962"/>
<defs>
<clipPath id="clip0">
<rect width="601" height="280" fill="white" transform="translate(0 17.8794)"/>
</clipPath>
</defs>
</svg>
