<svg width="294" height="286" viewBox="0 0 294 286" fill="none" xmlns="http://www.w3.org/2000/svg">
<rect x="0.640381" y="2.87939" width="293.32" height="274" fill="#2D6C73"/>
<g clip-path="url(#clip0)">
<path d="M141 17.5795C141 17.5795 139.5 13.0795 139.5 9.77949C139.5 6.37949 140.9 1.97949 140.9 1.97949C140.9 1.97949 142.4 6.47949 142.4 9.77949C142.5 13.0795 141 17.5795 141 17.5795Z" fill="#B3C8D3"/>
<path d="M141.1 34.5795C141.1 34.5795 139.6 30.0795 139.6 26.7795C139.6 23.3795 141 18.9795 141 18.9795C141 18.9795 142.5 23.4795 142.5 26.7795C142.5 30.0795 141.1 34.5795 141.1 34.5795Z" fill="#B3C8D3"/>
<path d="M141.2 51.5795C141.2 51.5795 139.7 47.0795 139.7 43.7795C139.7 40.3795 141.1 35.9795 141.1 35.9795C141.1 35.9795 142.6 40.4795 142.6 43.7795C142.6 47.0795 141.2 51.5795 141.2 51.5795Z" fill="#B3C8D3"/>
<path d="M141.2 64.3793C141.2 64.3793 139.7 61.0793 139.7 58.5793C139.7 56.0793 141.2 52.7793 141.2 52.7793C141.2 52.7793 142.7 56.0793 142.7 58.5793C142.7 61.0793 141.2 64.3793 141.2 64.3793Z" fill="#B3C8D3"/>
<path d="M146.7 58.4795C146.7 58.4795 146.4 59.2795 146 60.3795C145.9 60.6795 145.8 60.9795 145.6 61.2795C145.6 61.4795 145.6 61.4795 145.6 61.4795C145.7 61.5795 145.8 61.4795 145.8 61.4795C145.8 61.4795 145.7 61.5795 145.7 61.6795C145.7 61.6795 145.8 61.7795 145.9 61.7795C146.2 61.7795 146.5 61.6795 146.8 61.6795C148 61.5795 148.8 61.4795 148.8 61.4795C148.8 61.4795 148.1 61.9795 147.1 62.5795C146.8 62.6795 146.6 62.8795 146.3 63.0795C145.9 63.2795 145.3 63.5795 144.7 63.7795C143.5 64.2795 142.1 64.8795 140.8 65.2795C141.5 64.1795 142.4 62.9795 143.2 61.9795C143.6 61.4795 144 60.9795 144.3 60.5795C144.5 60.3795 144.8 60.0795 145 59.8795C146 59.0795 146.7 58.4795 146.7 58.4795Z" fill="#B3C8D3"/>
<path d="M154.1 49.7798C154.1 49.7798 153.7 50.5798 153.1 51.4798C152.8 51.9798 152.5 52.4798 152.1 53.0798C151.7 53.5798 151.3 54.1798 150.9 54.5798C150.1 55.4798 149 56.4798 148.2 57.1798C147.3 57.8798 146.6 58.4798 146.6 58.4798C146.6 58.4798 146.9 57.6798 147.4 56.5798C147.9 55.4798 148.6 54.2798 149.4 53.2798C149.8 52.7798 150.3 52.3798 150.8 51.8798C151.3 51.4798 151.8 51.0798 152.3 50.7798C153.4 50.1798 154.1 49.7798 154.1 49.7798Z" fill="#B3C8D3"/>
<path d="M163.7 43.4795C163.7 43.4795 163.5 43.5795 163.2 43.7795C162.9 43.9795 162.5 44.2795 162.1 44.5795C161.2 45.2795 160.1 46.1795 159.2 46.8795C158.2 47.5795 157 48.2795 155.9 48.7795C154.9 49.3795 154.1 49.6795 154.1 49.6795C154.1 49.6795 154.5 48.9795 155.2 47.9795C155.9 47.0795 156.9 45.8795 158 45.1795C159 44.4795 160.5 43.8795 161.6 43.6795C162.2 43.5795 162.7 43.4795 163 43.4795C163.5 43.4795 163.7 43.4795 163.7 43.4795Z" fill="#B3C8D3"/>
<path d="M168.2 49.3796C168.2 49.3796 168.3 49.1796 168.4 48.8796C168.5 48.5796 168.6 48.0796 168.8 47.5796C168.9 47.0796 169 46.4796 168.9 45.9796C168.8 45.4796 168.7 45.0796 168.5 44.7796C168.3 44.4796 167.9 44.2796 167.4 44.0796C166.9 43.8796 166.3 43.7796 165.8 43.6796C165.3 43.6796 164.8 43.5796 164.4 43.5796C164 43.5796 163.8 43.5796 163.8 43.5796C163.8 43.5796 164 43.4796 164.3 43.2796C164.6 43.0796 165.1 42.8796 165.6 42.6796C166.2 42.4796 166.9 42.2796 167.7 42.3796C168.5 42.4796 169.4 42.7796 170 43.4796C170.6 44.1796 170.7 45.1796 170.6 45.9796C170.5 46.7796 170.1 47.3796 169.7 47.8796C169.3 48.3796 169 48.7796 168.7 48.9796C168.4 49.1796 168.2 49.3796 168.2 49.3796Z" fill="#B3C8D3"/>
<path d="M159.4 56.6795C159.4 56.6795 160 56.0795 160.8 55.2795C161.6 54.4795 162.6 53.4795 163.6 52.6795C164.6 51.9795 165.7 51.1795 166.7 50.5795C167.2 50.2795 167.6 49.9795 167.8 49.7795C168.1 49.5795 168.3 49.4795 168.3 49.4795C168.3 49.4795 168.1 49.5795 168 49.8795C167.9 50.1795 167.6 50.6795 167.3 51.1795C166.7 52.1795 165.8 53.3795 164.7 54.1795C163.7 54.9795 162.3 55.5795 161.2 55.9795C160.2 56.4795 159.4 56.6795 159.4 56.6795Z" fill="#B3C8D3"/>
<path d="M149 61.4797C149 61.4797 149.7 60.9797 150.6 60.2797C151.6 59.6797 152.8 58.8797 153.9 58.3797C154.5 58.1797 155.1 57.8797 155.7 57.6797C156.3 57.4797 157 57.2797 157.5 57.1797C158.6 56.8797 159.4 56.6797 159.4 56.6797C159.4 56.6797 158.8 57.2797 157.9 58.0797C157.5 58.4797 156.9 58.8797 156.4 59.2797C155.8 59.6797 155.3 60.0797 154.7 60.2797C153.5 60.7797 152.1 61.1797 151 61.3797C149.8 61.3797 149 61.4797 149 61.4797Z" fill="#B3C8D3"/>
<path d="M137 58.1792C137 58.1792 137.6 58.7792 138.4 59.6792C138.6 59.8792 138.8 60.1792 139 60.3792C139.1 60.4792 139.2 60.5792 139.3 60.7792C139.5 61.0792 139.6 61.2792 139.8 61.5792C140.5 62.6792 141.2 63.9792 141.8 65.0792C140.6 64.6792 139.2 64.0792 138 63.5792C137.7 63.4792 137.4 63.3792 137.2 63.1792C137 63.0792 136.9 62.9792 136.7 62.9792C136.4 62.7792 136.1 62.6792 135.9 62.4792C134.9 61.8792 134.2 61.3792 134.2 61.3792C134.2 61.3792 135.1 61.3792 136.2 61.5792C136.5 61.5792 136.8 61.6792 137.1 61.6792C137.3 61.6792 137.4 61.6792 137.6 61.7792H137.7C137.8 61.6792 137.7 61.5792 137.7 61.5792C137.7 61.5792 137.8 61.6792 137.9 61.5792V61.4792C137.9 61.2792 137.8 61.1792 137.8 60.9792C137.7 60.6792 137.6 60.3792 137.5 60.0792C137.2 59.0792 137 58.1792 137 58.1792Z" fill="#B3C8D3"/>
<path d="M130.3 48.7793C130.3 48.7793 131 49.2793 132 49.9793C132.5 50.3793 133 50.7793 133.4 51.2793C133.9 51.7793 134.4 52.2793 134.7 52.7793C135.4 53.8793 136 55.1793 136.4 56.2793C136.8 57.3793 137 58.1793 137 58.1793C137 58.1793 136.4 57.5793 135.6 56.7793C134.8 55.8793 133.8 54.8793 133.1 53.8793C132.8 53.3793 132.4 52.7793 132.1 52.2793C131.8 51.6793 131.5 51.0793 131.2 50.5793C130.7 49.4793 130.3 48.7793 130.3 48.7793Z" fill="#B3C8D3"/>
<path d="M121 41.9795C121 41.9795 121.2 41.9795 121.6 41.9795C122 41.9795 122.5 42.0795 123.1 42.2795C124.3 42.5795 125.7 43.1795 126.7 43.9795C127.7 44.7795 128.7 45.9795 129.3 46.9795C129.9 47.9795 130.3 48.7795 130.3 48.7795C130.3 48.7795 129.6 48.3795 128.6 47.6795C127.6 47.0795 126.4 46.2795 125.5 45.5795C124.6 44.7795 123.5 43.8795 122.6 43.1795C122.2 42.8795 121.8 42.4795 121.5 42.2795C121.2 42.0795 121 41.9795 121 41.9795Z" fill="#B3C8D3"/>
<path d="M115.6 48.1794C115.6 48.1794 115.5 47.9794 115.2 47.7794C115 47.4794 114.7 47.0794 114.4 46.4794C114.3 46.1794 114.1 45.8794 114.1 45.4794C114.1 45.2794 114 45.0794 114 44.9794C114 44.7794 114 44.5794 114 44.3794C114 43.5794 114.3 42.6794 114.8 42.0794C115.4 41.4794 116.2 41.0794 117 40.9794C117.2 40.9794 117.4 40.9794 117.6 40.8794C117.8 40.8794 118 40.8794 118.2 40.8794C118.6 40.8794 118.9 40.9794 119.2 41.0794C119.8 41.2794 120.3 41.4794 120.6 41.6794C120.9 41.8794 121 41.9794 121 41.9794C121 41.9794 120.8 41.9794 120.4 41.9794C120 41.9794 119.5 41.9794 119 42.0794C118.7 42.1794 118.5 42.1794 118.2 42.2794C118.1 42.2794 117.9 42.3794 117.8 42.3794C117.7 42.4794 117.6 42.4794 117.4 42.5794C116.9 42.7794 116.5 43.0794 116.3 43.3794C116 43.6794 115.8 44.0794 115.6 44.5794C115.6 44.6794 115.5 44.8794 115.5 44.9794C115.5 45.0794 115.5 45.2794 115.4 45.3794C115.3 45.6794 115.4 45.9794 115.3 46.1794C115.3 46.6794 115.4 47.1794 115.4 47.5794C115.6 47.9794 115.6 48.1794 115.6 48.1794Z" fill="#B3C8D3"/>
<path d="M123.8 56.2792C123.8 56.2792 123 56.0792 121.9 55.5792C121.4 55.2792 120.8 55.0792 120.2 54.6792C119.6 54.2792 119 53.8792 118.6 53.4792C117.6 52.5792 116.8 51.2792 116.3 50.1792C116.1 49.5792 115.9 49.1792 115.8 48.7792C115.7 48.3792 115.7 48.1792 115.7 48.1792C115.7 48.1792 115.9 48.3792 116.1 48.5792C116.3 48.8792 116.7 49.1792 117.1 49.5792C118 50.2792 119 51.1792 119.9 51.9792C120.3 52.3792 120.8 52.8792 121.2 53.3792C121.6 53.8792 122.1 54.2792 122.5 54.7792C123.3 55.5792 123.8 56.2792 123.8 56.2792Z" fill="#B3C8D3"/>
<path d="M134.2 61.4794C134.2 61.4794 133.3 61.3794 132.2 61.1794C131 60.9794 129.6 60.5794 128.5 60.0794C127.9 59.7794 127.4 59.3794 126.8 58.9794C126.3 58.5794 125.7 58.1794 125.3 57.7794C124.4 56.9794 123.9 56.3794 123.9 56.3794C123.9 56.3794 124.7 56.5794 125.8 56.9794C126.3 57.1794 127 57.3794 127.6 57.5794C128.2 57.7794 128.8 58.0794 129.4 58.3794C130.5 58.8794 131.7 59.7794 132.7 60.3794C133.5 60.8794 134.2 61.4794 134.2 61.4794Z" fill="#B3C8D3"/>
</g>
<g clip-path="url(#clip1)">
<path d="M234 120.579C234 120.579 232.5 116.079 232.5 112.779C232.5 109.379 233.9 104.979 233.9 104.979C233.9 104.979 235.4 109.479 235.4 112.779C235.5 116.079 234 120.579 234 120.579Z" fill="#B3C8D3"/>
<path d="M234.1 137.579C234.1 137.579 232.6 133.079 232.6 129.779C232.6 126.379 234 121.979 234 121.979C234 121.979 235.5 126.479 235.5 129.779C235.5 133.079 234.1 137.579 234.1 137.579Z" fill="#B3C8D3"/>
<path d="M234.2 154.579C234.2 154.579 232.7 150.079 232.7 146.779C232.7 143.379 234.1 138.979 234.1 138.979C234.1 138.979 235.6 143.479 235.6 146.779C235.6 150.079 234.2 154.579 234.2 154.579Z" fill="#B3C8D3"/>
<path d="M234.2 167.379C234.2 167.379 232.7 164.079 232.7 161.579C232.7 159.079 234.2 155.779 234.2 155.779C234.2 155.779 235.7 159.079 235.7 161.579C235.7 164.079 234.2 167.379 234.2 167.379Z" fill="#B3C8D3"/>
<path d="M239.7 161.479C239.7 161.479 239.4 162.279 239 163.379C238.9 163.679 238.8 163.979 238.6 164.279C238.6 164.479 238.6 164.479 238.6 164.479C238.7 164.579 238.8 164.479 238.8 164.479C238.8 164.479 238.7 164.579 238.7 164.679C238.7 164.679 238.8 164.779 238.9 164.779C239.2 164.779 239.5 164.679 239.8 164.679C241 164.579 241.8 164.479 241.8 164.479C241.8 164.479 241.1 164.979 240.1 165.579C239.8 165.679 239.6 165.879 239.3 166.079C238.9 166.279 238.3 166.579 237.7 166.779C236.5 167.279 235.1 167.879 233.8 168.279C234.5 167.179 235.4 165.979 236.2 164.979C236.6 164.479 237 163.979 237.3 163.579C237.5 163.379 237.8 163.079 238 162.879C239 162.079 239.7 161.479 239.7 161.479Z" fill="#B3C8D3"/>
<path d="M247.1 152.78C247.1 152.78 246.7 153.58 246.1 154.48C245.8 154.98 245.5 155.48 245.1 156.08C244.7 156.58 244.3 157.18 243.9 157.58C243.1 158.48 242 159.48 241.2 160.18C240.3 160.88 239.6 161.48 239.6 161.48C239.6 161.48 239.9 160.68 240.4 159.58C240.9 158.48 241.6 157.28 242.4 156.28C242.8 155.78 243.3 155.38 243.8 154.88C244.3 154.48 244.8 154.08 245.3 153.78C246.4 153.18 247.1 152.78 247.1 152.78Z" fill="#B3C8D3"/>
<path d="M256.7 146.479C256.7 146.479 256.5 146.579 256.2 146.779C255.9 146.979 255.5 147.279 255.1 147.579C254.2 148.279 253.1 149.179 252.2 149.879C251.2 150.579 250 151.279 248.9 151.779C247.9 152.379 247.1 152.679 247.1 152.679C247.1 152.679 247.5 151.979 248.2 150.979C248.9 150.079 249.9 148.879 251 148.179C252 147.479 253.5 146.879 254.6 146.679C255.2 146.579 255.7 146.479 256 146.479C256.5 146.479 256.7 146.479 256.7 146.479Z" fill="#B3C8D3"/>
<path d="M261.2 152.38C261.2 152.38 261.3 152.18 261.4 151.88C261.5 151.58 261.6 151.08 261.8 150.58C261.9 150.08 262 149.48 261.9 148.98C261.8 148.48 261.7 148.08 261.5 147.78C261.3 147.48 260.9 147.28 260.4 147.08C259.9 146.88 259.3 146.78 258.8 146.68C258.3 146.68 257.8 146.58 257.4 146.58C257 146.58 256.8 146.58 256.8 146.58C256.8 146.58 257 146.48 257.3 146.28C257.6 146.08 258.1 145.88 258.6 145.68C259.2 145.48 259.9 145.28 260.7 145.38C261.5 145.48 262.4 145.78 263 146.48C263.6 147.18 263.7 148.18 263.6 148.98C263.5 149.78 263.1 150.38 262.7 150.88C262.3 151.38 262 151.78 261.7 151.98C261.4 152.18 261.2 152.38 261.2 152.38Z" fill="#B3C8D3"/>
<path d="M252.4 159.679C252.4 159.679 253 159.079 253.8 158.279C254.6 157.479 255.6 156.479 256.6 155.679C257.6 154.979 258.7 154.179 259.7 153.579C260.2 153.279 260.6 152.979 260.8 152.779C261.1 152.579 261.3 152.479 261.3 152.479C261.3 152.479 261.1 152.579 261 152.879C260.9 153.179 260.6 153.679 260.3 154.179C259.7 155.179 258.8 156.379 257.7 157.179C256.7 157.979 255.3 158.579 254.2 158.979C253.2 159.479 252.4 159.679 252.4 159.679Z" fill="#B3C8D3"/>
<path d="M242 164.48C242 164.48 242.7 163.98 243.6 163.28C244.6 162.68 245.8 161.88 246.9 161.38C247.5 161.18 248.1 160.88 248.7 160.68C249.3 160.48 250 160.28 250.5 160.18C251.6 159.88 252.4 159.68 252.4 159.68C252.4 159.68 251.8 160.28 250.9 161.08C250.5 161.48 249.9 161.88 249.4 162.28C248.8 162.68 248.3 163.08 247.7 163.28C246.5 163.78 245.1 164.18 244 164.38C242.8 164.38 242 164.48 242 164.48Z" fill="#B3C8D3"/>
<path d="M230 161.179C230 161.179 230.6 161.779 231.4 162.679C231.6 162.879 231.8 163.179 232 163.379C232.1 163.479 232.2 163.579 232.3 163.779C232.5 164.079 232.6 164.279 232.8 164.579C233.5 165.679 234.2 166.979 234.8 168.079C233.6 167.679 232.2 167.079 231 166.579C230.7 166.479 230.4 166.379 230.2 166.179C230 166.079 229.9 165.979 229.7 165.979C229.4 165.779 229.1 165.679 228.9 165.479C227.9 164.879 227.2 164.379 227.2 164.379C227.2 164.379 228.1 164.379 229.2 164.579C229.5 164.579 229.8 164.679 230.1 164.679C230.3 164.679 230.4 164.679 230.6 164.779H230.7C230.8 164.679 230.7 164.579 230.7 164.579C230.7 164.579 230.8 164.679 230.9 164.579V164.479C230.9 164.279 230.8 164.179 230.8 163.979C230.7 163.679 230.6 163.379 230.5 163.079C230.2 162.079 230 161.179 230 161.179Z" fill="#B3C8D3"/>
<path d="M223.3 151.779C223.3 151.779 224 152.279 225 152.979C225.5 153.379 226 153.779 226.4 154.279C226.9 154.779 227.4 155.279 227.7 155.779C228.4 156.879 229 158.179 229.4 159.279C229.8 160.379 230 161.179 230 161.179C230 161.179 229.4 160.579 228.6 159.779C227.8 158.879 226.8 157.879 226.1 156.879C225.8 156.379 225.4 155.779 225.1 155.279C224.8 154.679 224.5 154.079 224.2 153.579C223.7 152.479 223.3 151.779 223.3 151.779Z" fill="#B3C8D3"/>
<path d="M214 144.979C214 144.979 214.2 144.979 214.6 144.979C215 144.979 215.5 145.079 216.1 145.279C217.3 145.579 218.7 146.179 219.7 146.979C220.7 147.779 221.7 148.979 222.3 149.979C222.9 150.979 223.3 151.779 223.3 151.779C223.3 151.779 222.6 151.379 221.6 150.679C220.6 150.079 219.4 149.279 218.5 148.579C217.6 147.779 216.5 146.879 215.6 146.179C215.2 145.879 214.8 145.479 214.5 145.279C214.2 145.079 214 144.979 214 144.979Z" fill="#B3C8D3"/>
<path d="M208.6 151.179C208.6 151.179 208.5 150.979 208.2 150.779C208 150.479 207.7 150.079 207.4 149.479C207.3 149.179 207.1 148.879 207.1 148.479C207.1 148.279 207 148.079 207 147.979C207 147.779 207 147.579 207 147.379C207 146.579 207.3 145.679 207.8 145.079C208.4 144.479 209.2 144.079 210 143.979C210.2 143.979 210.4 143.979 210.6 143.879C210.8 143.879 211 143.879 211.2 143.879C211.6 143.879 211.9 143.979 212.2 144.079C212.8 144.279 213.3 144.479 213.6 144.679C213.9 144.879 214 144.979 214 144.979C214 144.979 213.8 144.979 213.4 144.979C213 144.979 212.5 144.979 212 145.079C211.7 145.179 211.5 145.179 211.2 145.279C211.1 145.279 210.9 145.379 210.8 145.379C210.7 145.479 210.6 145.479 210.4 145.579C209.9 145.779 209.5 146.079 209.3 146.379C209 146.679 208.8 147.079 208.6 147.579C208.6 147.679 208.5 147.879 208.5 147.979C208.5 148.079 208.5 148.279 208.4 148.379C208.3 148.679 208.4 148.979 208.3 149.179C208.3 149.679 208.4 150.179 208.4 150.579C208.6 150.979 208.6 151.179 208.6 151.179Z" fill="#B3C8D3"/>
<path d="M216.8 159.279C216.8 159.279 216 159.079 214.9 158.579C214.4 158.279 213.8 158.079 213.2 157.679C212.6 157.279 212 156.879 211.6 156.479C210.6 155.579 209.8 154.279 209.3 153.179C209.1 152.579 208.9 152.179 208.8 151.779C208.7 151.379 208.7 151.179 208.7 151.179C208.7 151.179 208.9 151.379 209.1 151.579C209.3 151.879 209.7 152.179 210.1 152.579C211 153.279 212 154.179 212.9 154.979C213.3 155.379 213.8 155.879 214.2 156.379C214.6 156.879 215.1 157.279 215.5 157.779C216.3 158.579 216.8 159.279 216.8 159.279Z" fill="#B3C8D3"/>
<path d="M227.2 164.479C227.2 164.479 226.3 164.379 225.2 164.179C224 163.979 222.6 163.579 221.5 163.079C220.9 162.779 220.4 162.379 219.8 161.979C219.3 161.579 218.7 161.179 218.3 160.779C217.4 159.979 216.9 159.379 216.9 159.379C216.9 159.379 217.7 159.579 218.8 159.979C219.3 160.179 220 160.379 220.6 160.579C221.2 160.779 221.8 161.079 222.4 161.379C223.5 161.879 224.7 162.779 225.7 163.379C226.5 163.879 227.2 164.479 227.2 164.479Z" fill="#B3C8D3"/>
</g>
<g clip-path="url(#clip2)">
<path d="M41 29.5795C41 29.5795 39.5 25.0795 39.5 21.7795C39.5 18.3795 40.9 13.9795 40.9 13.9795C40.9 13.9795 42.4 18.4795 42.4 21.7795C42.5 25.0795 41 29.5795 41 29.5795Z" fill="#B3C8D3"/>
<path d="M41.1001 46.5795C41.1001 46.5795 39.6001 42.0795 39.6001 38.7795C39.6001 35.3795 41.0001 30.9795 41.0001 30.9795C41.0001 30.9795 42.5001 35.4795 42.5001 38.7795C42.5001 42.0795 41.1001 46.5795 41.1001 46.5795Z" fill="#B3C8D3"/>
<path d="M41.2 63.5795C41.2 63.5795 39.7 59.0795 39.7 55.7795C39.7 52.3795 41.1 47.9795 41.1 47.9795C41.1 47.9795 42.6 52.4795 42.6 55.7795C42.6 59.0795 41.2 63.5795 41.2 63.5795Z" fill="#B3C8D3"/>
<path d="M41.2 76.3793C41.2 76.3793 39.7 73.0793 39.7 70.5793C39.7 68.0793 41.2 64.7793 41.2 64.7793C41.2 64.7793 42.7 68.0793 42.7 70.5793C42.7 73.0793 41.2 76.3793 41.2 76.3793Z" fill="#B3C8D3"/>
<path d="M46.7001 70.4795C46.7001 70.4795 46.4 71.2795 46 72.3795C45.9 72.6795 45.8 72.9795 45.6 73.2795C45.6 73.4795 45.6 73.4795 45.6 73.4795C45.7 73.5795 45.8 73.4795 45.8 73.4795C45.8 73.4795 45.7001 73.5795 45.7001 73.6795C45.7001 73.6795 45.8 73.7795 45.9 73.7795C46.2 73.7795 46.5 73.6795 46.8 73.6795C48 73.5795 48.8 73.4795 48.8 73.4795C48.8 73.4795 48.1 73.9795 47.1 74.5795C46.8 74.6795 46.6 74.8795 46.3 75.0795C45.9 75.2795 45.3001 75.5795 44.7001 75.7795C43.5001 76.2795 42.1 76.8795 40.8 77.2795C41.5 76.1795 42.4001 74.9795 43.2001 73.9795C43.6001 73.4795 44 72.9795 44.3 72.5795C44.5 72.3795 44.8 72.0795 45 71.8795C46 71.0795 46.7001 70.4795 46.7001 70.4795Z" fill="#B3C8D3"/>
<path d="M54.1001 61.7798C54.1001 61.7798 53.7001 62.5798 53.1001 63.4798C52.8001 63.9798 52.5001 64.4798 52.1001 65.0798C51.7001 65.5798 51.3001 66.1798 50.9001 66.5798C50.1001 67.4798 49.0001 68.4798 48.2001 69.1798C47.3001 69.8798 46.6001 70.4798 46.6001 70.4798C46.6001 70.4798 46.9001 69.6798 47.4001 68.5798C47.9001 67.4798 48.6001 66.2798 49.4001 65.2798C49.8001 64.7798 50.3001 64.3798 50.8001 63.8798C51.3001 63.4798 51.8001 63.0798 52.3001 62.7798C53.4001 62.1798 54.1001 61.7798 54.1001 61.7798Z" fill="#B3C8D3"/>
<path d="M63.7001 55.4795C63.7001 55.4795 63.5001 55.5795 63.2001 55.7795C62.9001 55.9795 62.5001 56.2795 62.1001 56.5795C61.2001 57.2795 60.1001 58.1795 59.2001 58.8795C58.2001 59.5795 57.0001 60.2795 55.9001 60.7795C54.9001 61.3795 54.1001 61.6795 54.1001 61.6795C54.1001 61.6795 54.5001 60.9795 55.2001 59.9795C55.9001 59.0795 56.9001 57.8795 58.0001 57.1795C59.0001 56.4795 60.5001 55.8795 61.6001 55.6795C62.2001 55.5795 62.7001 55.4795 63.0001 55.4795C63.5001 55.4795 63.7001 55.4795 63.7001 55.4795Z" fill="#B3C8D3"/>
<path d="M68.2001 61.3796C68.2001 61.3796 68.3001 61.1796 68.4001 60.8796C68.5001 60.5796 68.6 60.0796 68.8 59.5796C68.9 59.0796 69.0001 58.4796 68.9001 57.9796C68.8001 57.4796 68.7 57.0796 68.5 56.7796C68.3 56.4796 67.9001 56.2796 67.4001 56.0796C66.9001 55.8796 66.3 55.7796 65.8 55.6796C65.3 55.6796 64.8001 55.5796 64.4001 55.5796C64.0001 55.5796 63.8 55.5796 63.8 55.5796C63.8 55.5796 64 55.4796 64.3 55.2796C64.6 55.0796 65.1 54.8796 65.6 54.6796C66.2 54.4796 66.9001 54.2796 67.7001 54.3796C68.5001 54.4796 69.4 54.7796 70 55.4796C70.6 56.1796 70.7 57.1796 70.6 57.9796C70.5 58.7796 70.1001 59.3796 69.7001 59.8796C69.3001 60.3796 69.0001 60.7796 68.7001 60.9796C68.4001 61.1796 68.2001 61.3796 68.2001 61.3796Z" fill="#B3C8D3"/>
<path d="M59.4001 68.6795C59.4001 68.6795 60.0001 68.0795 60.8001 67.2795C61.6001 66.4795 62.6001 65.4795 63.6001 64.6795C64.6001 63.9795 65.7001 63.1795 66.7001 62.5795C67.2001 62.2795 67.6001 61.9795 67.8001 61.7795C68.1001 61.5795 68.3001 61.4795 68.3001 61.4795C68.3001 61.4795 68.1001 61.5795 68.0001 61.8795C67.9001 62.1795 67.6001 62.6795 67.3001 63.1795C66.7001 64.1795 65.8001 65.3795 64.7001 66.1795C63.7001 66.9795 62.3001 67.5795 61.2001 67.9795C60.2001 68.4795 59.4001 68.6795 59.4001 68.6795Z" fill="#B3C8D3"/>
<path d="M49 73.4797C49 73.4797 49.7 72.9797 50.6 72.2797C51.6 71.6797 52.8 70.8797 53.9 70.3797C54.5 70.1797 55.1 69.8797 55.7 69.6797C56.3 69.4797 57 69.2797 57.5 69.1797C58.6 68.8797 59.4 68.6797 59.4 68.6797C59.4 68.6797 58.8 69.2797 57.9 70.0797C57.5 70.4797 56.9 70.8797 56.4 71.2797C55.8 71.6797 55.3 72.0797 54.7 72.2797C53.5 72.7797 52.1 73.1797 51 73.3797C49.8 73.3797 49 73.4797 49 73.4797Z" fill="#B3C8D3"/>
<path d="M37 70.1792C37 70.1792 37.6 70.7792 38.4 71.6792C38.5999 71.8792 38.8 72.1792 39 72.3792C39.1 72.4792 39.1999 72.5792 39.2999 72.7792C39.4999 73.0792 39.5999 73.2792 39.7999 73.5792C40.4999 74.6792 41.1999 75.9792 41.7999 77.0792C40.5999 76.6792 39.2 76.0792 38 75.5792C37.7 75.4792 37.4 75.3792 37.2 75.1792C37 75.0792 36.9 74.9792 36.7 74.9792C36.4 74.7792 36.1 74.6792 35.9 74.4792C34.9 73.8792 34.2 73.3792 34.2 73.3792C34.2 73.3792 35.1 73.3792 36.2 73.5792C36.5 73.5792 36.8 73.6792 37.1 73.6792C37.3 73.6792 37.4 73.6792 37.6 73.7792H37.7C37.8 73.6792 37.7 73.5792 37.7 73.5792C37.7 73.5792 37.8 73.6792 37.9 73.5792V73.4792C37.9 73.2792 37.7999 73.1792 37.7999 72.9792C37.6999 72.6792 37.6 72.3792 37.5 72.0792C37.2 71.0792 37 70.1792 37 70.1792Z" fill="#B3C8D3"/>
<path d="M30.3 60.7793C30.3 60.7793 31 61.2793 32 61.9793C32.5 62.3793 33 62.7793 33.4 63.2793C33.9 63.7793 34.4001 64.2793 34.7001 64.7793C35.4001 65.8793 36 67.1793 36.4 68.2793C36.8 69.3793 37 70.1793 37 70.1793C37 70.1793 36.4001 69.5793 35.6 68.7793C34.8 67.8793 33.8001 66.8793 33.1 65.8793C32.8001 65.3793 32.4 64.7793 32.1 64.2793C31.8001 63.6793 31.5001 63.0793 31.2001 62.5793C30.7001 61.4793 30.3 60.7793 30.3 60.7793Z" fill="#B3C8D3"/>
<path d="M21 53.9795C21 53.9795 21.2 53.9795 21.6 53.9795C22 53.9795 22.5 54.0795 23.1 54.2795C24.3 54.5795 25.7 55.1795 26.7 55.9795C27.7 56.7795 28.7 57.9795 29.3 58.9795C29.9 59.9795 30.3 60.7795 30.3 60.7795C30.3 60.7795 29.6 60.3795 28.6 59.6795C27.6 59.0795 26.4 58.2795 25.5 57.5795C24.6 56.7795 23.5 55.8795 22.6 55.1795C22.2 54.8795 21.8 54.4795 21.5 54.2795C21.2 54.0795 21 53.9795 21 53.9795Z" fill="#B3C8D3"/>
<path d="M15.6 60.1794C15.6 60.1794 15.5 59.9794 15.2 59.7794C15 59.4794 14.7 59.0794 14.4 58.4794C14.3 58.1794 14.1 57.8794 14.1 57.4794C14.1 57.2794 14 57.0794 14 56.9794C14 56.7794 14 56.5794 14 56.3794C14 55.5794 14.3 54.6794 14.8 54.0794C15.4 53.4794 16.2 53.0794 17 52.9794C17.2 52.9794 17.4 52.9794 17.6 52.8794C17.8 52.8794 18 52.8794 18.2 52.8794C18.6 52.8794 18.9 52.9794 19.2 53.0794C19.8 53.2794 20.3 53.4794 20.6 53.6794C20.9 53.8794 21 53.9794 21 53.9794C21 53.9794 20.8 53.9794 20.4 53.9794C20 53.9794 19.5 53.9794 19 54.0794C18.7 54.1794 18.5 54.1794 18.2 54.2794C18.1 54.2794 17.9 54.3794 17.8 54.3794C17.7 54.4794 17.6 54.4794 17.4 54.5794C16.9 54.7794 16.5 55.0794 16.3 55.3794C16 55.6794 15.8 56.0794 15.6 56.5794C15.6 56.6794 15.5 56.8794 15.5 56.9794C15.5 57.0794 15.5 57.2794 15.4 57.3794C15.3 57.6794 15.4 57.9794 15.3 58.1794C15.3 58.6794 15.4 59.1794 15.4 59.5794C15.6 59.9794 15.6 60.1794 15.6 60.1794Z" fill="#B3C8D3"/>
<path d="M23.8 68.2792C23.8 68.2792 23 68.0792 21.9 67.5792C21.4 67.2792 20.8 67.0792 20.2 66.6792C19.6 66.2792 19 65.8792 18.6 65.4792C17.6 64.5792 16.8 63.2792 16.3 62.1792C16.1 61.5792 15.9 61.1792 15.8 60.7792C15.7 60.3792 15.7 60.1792 15.7 60.1792C15.7 60.1792 15.9 60.3792 16.1 60.5792C16.3 60.8792 16.7 61.1792 17.1 61.5792C18 62.2792 19 63.1792 19.9 63.9792C20.3 64.3792 20.8 64.8792 21.2 65.3792C21.6 65.8792 22.1 66.2792 22.5 66.7792C23.3 67.5792 23.8 68.2792 23.8 68.2792Z" fill="#B3C8D3"/>
<path d="M34.1999 73.4794C34.1999 73.4794 33.2999 73.3794 32.1999 73.1794C30.9999 72.9794 29.5999 72.5794 28.4999 72.0794C27.8999 71.7794 27.3999 71.3794 26.7999 70.9794C26.2999 70.5794 25.6999 70.1794 25.2999 69.7794C24.3999 68.9794 23.8999 68.3794 23.8999 68.3794C23.8999 68.3794 24.6999 68.5794 25.7999 68.9794C26.2999 69.1794 26.9999 69.3794 27.5999 69.5794C28.1999 69.7794 28.7999 70.0794 29.3999 70.3794C30.4999 70.8794 31.6999 71.7794 32.6999 72.3794C33.4999 72.8794 34.1999 73.4794 34.1999 73.4794Z" fill="#B3C8D3"/>
</g>
<path d="M222.952 115.985L223.221 111.688L211.941 109.056L214.197 24.1392L189.812 36.6538V39.4468L198.729 40.1987L200.662 108.143L189.651 112.44V115.609L222.952 115.985ZM205.872 98.3677C205.335 91.7791 205.389 87.3211 206.033 84.9937C206.57 89.7918 206.517 94.2498 205.872 98.3677ZM208.772 91.5464L208.396 90.4185C207.895 76.203 207.77 65.5682 208.021 58.5142C208.737 62.2381 209.131 68.576 209.202 77.5278V85.3159L208.772 91.5464ZM204.476 66.356V58.5679C204.547 49.616 204.941 43.2782 205.657 39.5542C205.908 46.6082 205.783 57.243 205.281 71.4585L204.905 72.5864L204.476 66.356ZM242.933 53.5728C244.007 39.8944 247.068 32.9836 252.117 32.8403C258.491 33.091 261.517 42.0428 261.194 59.6958C260.729 71.369 258.061 77.4741 253.191 78.0112C245.851 78.4051 242.431 70.259 242.933 53.5728ZM261.624 83.9731C261.302 92.7101 260.389 98.869 258.885 102.45C256.02 108.931 250.022 108.483 240.892 101.107C237.132 97.9201 234.894 93.6948 234.178 88.4312L226.819 89.8276L226.282 116.2L231.922 115.501L234.607 106.8C256.414 119.011 269.913 118.08 275.105 104.007C277.146 97.4188 278.131 84.367 278.06 64.8521H277.952C278.632 38.5695 270.862 25.4819 254.642 25.5894C236.953 25.661 227.679 33.8429 226.819 50.1353C225.853 73.0161 234.285 84.6177 252.117 84.9399C255.626 85.0116 258.795 84.6893 261.624 83.9731ZM269.197 58.6753C268.624 62.9722 267.138 66.8573 264.739 70.3306C267.998 60.591 268.213 50.923 265.384 41.3267C268.535 48.5955 269.806 54.3784 269.197 58.6753ZM268.821 39.7153C273.19 46.1965 274.067 52.8208 271.453 59.5884C272.563 51.1021 270.433 42.9917 265.062 35.2573L268.821 39.7153Z" fill="#2D3962"/>
<path d="M218.952 111.985L219.221 107.688L207.941 105.056L210.197 20.1392L185.812 32.6538V35.4468L194.729 36.1987L196.662 104.143L185.651 108.44V111.609L218.952 111.985ZM201.872 94.3677C201.335 87.7791 201.389 83.3211 202.033 80.9937C202.57 85.7918 202.517 90.2498 201.872 94.3677ZM204.772 87.5464L204.396 86.4185C203.895 72.203 203.77 61.5682 204.021 54.5142C204.737 58.2381 205.131 64.576 205.202 73.5278V81.3159L204.772 87.5464ZM200.476 62.356V54.5679C200.547 45.616 200.941 39.2782 201.657 35.5542C201.908 42.6082 201.783 53.243 201.281 67.4585L200.905 68.5864L200.476 62.356ZM238.933 49.5728C240.007 35.8944 243.068 28.9836 248.117 28.8403C254.491 29.091 257.517 38.0428 257.194 55.6958C256.729 67.369 254.061 73.4741 249.191 74.0112C241.851 74.4051 238.431 66.259 238.933 49.5728ZM257.624 79.9731C257.302 88.7101 256.389 94.869 254.885 98.4497C252.02 104.931 246.022 104.483 236.892 97.1069C233.132 93.9201 230.894 89.6948 230.178 84.4312L222.819 85.8276L222.282 112.2L227.922 111.501L230.607 102.8C252.414 115.011 265.913 114.08 271.105 100.007C273.146 93.4188 274.131 80.367 274.06 60.8521H273.952C274.632 34.5695 266.862 21.4819 250.642 21.5894C232.953 21.661 223.679 29.8429 222.819 46.1353C221.853 69.0161 230.285 80.6177 248.117 80.9399C251.626 81.0116 254.795 80.6893 257.624 79.9731ZM265.197 54.6753C264.624 58.9722 263.138 62.8573 260.739 66.3306C263.998 56.591 264.213 46.923 261.384 37.3267C264.535 44.5955 265.806 50.3784 265.197 54.6753ZM264.821 35.7153C269.19 42.1965 270.067 48.8208 267.453 55.5884C268.563 47.1021 266.433 38.9917 261.062 31.2573L264.821 35.7153Z" fill="#FFFEFA"/>
<g clip-path="url(#clip3)">
<path d="M154.7 117.679C154.7 117.679 155.6 136.179 159.4 140.379C167 148.779 195.4 160.379 192.5 177.379C189.2 197.179 165.1 194.179 152 202.379C142.5 208.279 140.2 221.379 135.3 221.179C130.4 220.979 130 209.379 120.8 202.979C109.5 195.079 81.2 189.179 82 171.079C82.8 152.979 111.3 146.079 116.8 139.379C122.2 132.679 124.9 115.179 124.9 115.179L154.7 117.679Z" fill="#FF606F"/>
<path d="M136.4 217.079C136.4 217.079 139.9 207.079 148.1 200.479C161.6 189.679 183.2 192.479 187.7 180.979C192.5 168.579 158.9 152.079 137.3 176.879C121.5 194.779 136.4 217.079 136.4 217.079Z" fill="#C24751"/>
<path d="M137 147.479C164.5 147.579 185.1 172.279 162.4 187.679C143.9 200.279 112.7 193.279 105.2 181.779C95.9 167.279 109.1 147.379 137 147.479Z" fill="#FFFCF2"/>
<path d="M162.4 187.679C172.5 180.779 174 172.079 170.1 164.479C160 162.779 147.3 165.279 137.2 176.879C132.3 182.479 129.8 188.279 129 193.679C140.2 195.479 153 194.079 162.4 187.679Z" fill="#B3C8D3"/>
<path d="M137 151.079C133.6 151.179 130.2 151.679 126.9 152.079C126.4 152.079 125.8 152.279 125.1 152.379C124.4 152.579 123.7 152.779 123 152.979C121.6 153.479 120.2 154.179 119.3 154.779C118.2 155.479 116.9 156.179 115.7 156.779C114.5 157.479 113.3 158.279 112.6 159.379C111.9 160.479 110.8 161.579 109.7 162.879C108.7 164.179 107.7 165.779 107.3 167.279C106.9 168.679 106.7 170.079 106.8 171.579C106.9 172.979 107.2 174.479 107.6 175.779C108 177.179 108.6 178.579 109.4 179.879C110.2 181.179 111.3 182.379 112.4 183.379C114.7 185.379 117.4 186.679 120.1 187.379C121.8 187.879 123.1 188.979 125 188.979C126.3 189.079 127.6 189.479 128.9 189.679C128.9 189.679 130.9 189.979 132.8 190.179C134.8 190.379 136.8 190.379 136.8 190.379C141.9 190.479 147.2 189.979 152.3 188.179C155 187.179 157.6 185.879 160 184.179C160.6 183.779 161.2 183.279 161.7 182.779C162.3 182.279 162.8 181.779 163.3 181.179C164.3 179.979 165.2 178.779 165.9 177.279C166.4 175.979 166.9 174.679 167.1 173.279C167.2 172.879 167.2 172.579 167.2 172.179C167.2 171.779 167.2 171.479 167.2 171.079C167.2 170.379 167.1 169.579 167 168.879C166.9 168.179 166.7 167.479 166.4 166.779C166.1 166.079 165.9 165.379 165.5 164.779C164.8 163.479 163.9 162.379 162.9 161.379C161.7 160.279 160.5 159.179 159.3 158.179C158.1 157.179 156.8 156.179 155.4 155.379C153 154.079 150.3 153.579 147.8 152.779C145.3 151.979 142.3 151.079 139.6 150.979C137.9 150.979 136.9 151.579 136.7 152.179C136.5 152.779 137.2 153.379 139 153.679C141.7 154.079 144.3 154.479 147 155.079C149.6 155.679 152.2 156.679 154.4 158.279C154.9 158.579 155.4 158.979 155.9 159.279L157.4 160.279C158.4 160.979 159.4 161.679 160.2 162.579C161.1 163.479 161.8 164.479 162.4 165.579C163 166.679 163.5 167.779 163.8 168.779C164.2 169.979 164.4 171.279 164.3 172.479C164.2 173.679 163.8 174.879 163.3 175.979C162.1 178.179 160.3 179.879 158.2 181.479C158.2 181.479 157.8 181.779 157.2 182.179C156.9 182.379 156.6 182.579 156.2 182.779C155.8 182.979 155.4 183.279 155 183.479C154.2 183.979 153.3 184.279 152.7 184.579C152 184.879 151.6 184.979 151.6 184.979C149.3 185.879 147 186.979 144.5 187.279C141.8 187.679 138.4 187.779 135.7 187.479C133 187.079 130.4 187.379 128 186.679C123.4 185.379 118.3 183.379 114.3 180.979C113.2 180.279 112.2 179.379 111.5 178.379C110.8 177.279 110.2 176.079 109.8 174.779C109.1 172.279 109.3 169.579 110.1 167.279C110.1 167.279 110.2 167.079 110.3 166.679C110.4 166.479 110.5 166.279 110.6 165.979C110.7 165.779 110.9 165.479 111 165.179C111.6 163.979 112.7 162.479 114 161.179C115.3 159.879 116.8 158.779 118 158.079C118.6 157.679 119.1 157.479 119.5 157.279C119.9 157.079 120.1 156.979 120.1 156.979C121.2 156.379 122.5 155.979 123.9 155.479C125.2 155.079 126.6 154.779 128.1 154.479C130.9 153.979 133.8 153.779 136.3 153.479C136.5 153.479 136.7 153.479 136.8 153.379L137 151.079Z" fill="#FF606F"/>
<path d="M160.6 170.079C159.7 165.879 148.7 168.379 137.6 170.979C147.4 167.179 156.7 163.279 151.2 160.579C145.6 157.879 141.2 164.179 136.9 170.679C138.8 163.879 140.5 157.379 134 157.879C127.4 158.379 131.9 164.679 136.6 171.079C136.5 171.079 136.4 171.179 136.3 171.179C129.3 165.179 122.5 159.479 118.6 162.579C114.8 165.579 124.8 168.379 135.5 171.079C123.9 169.579 112.9 168.379 114 172.179C115.1 175.979 125.3 173.779 135.9 171.379C126.4 175.179 117 179.179 122.4 181.579C127.8 183.979 132.5 177.679 136.6 171.379C136.6 171.379 136.6 171.379 136.7 171.479C134.7 178.579 132.7 185.779 139.8 185.479C146.9 185.179 142.2 178.679 137.3 171.979C144.3 177.979 151.4 183.679 155.7 180.579C160.2 177.279 148.5 174.379 136.9 171.379L136.8 171.279H136.9C149.1 172.779 161.4 174.279 160.6 170.079ZM136.7 171.379C136.6 171.379 136.7 171.279 136.7 171.379C136.7 171.279 136.7 171.279 136.7 171.379C136.7 171.279 136.7 171.379 136.7 171.379Z" fill="#FF606F"/>
<path d="M189.7 174.479C191.4 175.879 190.7 180.479 187.9 180.279C185.2 180.079 184.5 177.879 185.1 176.279C185.6 174.679 188.1 173.079 189.7 174.479Z" fill="#FFFCF2"/>
<path d="M122.5 126.079L126.8 124.079L130.2 127.579L137.2 123.779L144.2 128.179L150.3 125.679L155.5 126.479L154.7 115.979L125 111.679L122.5 126.079Z" fill="#2D3962"/>
<path d="M126.3 103.779L122.9 123.079L127.2 118.079L130.4 126.479L137.9 116.679L144.3 126.979L149.8 119.979L155.7 125.979L153.9 104.379L126.3 103.779Z" fill="#A49D9E"/>
<path d="M129.5 107.179L130.2 117.979L137.9 109.679L129.5 107.179Z" fill="#FFFCF2"/>
<path d="M126.3 103.779C126.3 103.779 137.8 96.5794 153.9 104.379C153.9 104.379 141.6 110.179 126.3 103.779Z" fill="#FFFCF2"/>
<path d="M154.9 118.279C154.9 116.979 154.9 115.779 154.9 114.579C155 113.879 154.9 112.379 154.8 111.579C154.6 110.579 155 109.479 154.7 108.579C154.4 107.679 154.7 106.279 154.7 105.179V104.979C154.7 104.879 154.7 104.879 154.7 104.779L154.6 104.079V103.879C154.6 103.779 154.6 103.779 154.5 103.779L154.2 103.679L153.9 103.579L153.7 103.479C153.2 103.279 152.8 103.079 152.3 102.879C151.4 102.379 150.4 101.979 149.4 101.479C148.4 100.979 147.3 100.779 146.3 100.679C145.6 100.579 145.1 100.079 144.4 100.279C143.9 100.379 143.4 100.179 142.9 100.079C142.9 100.079 139.9 99.7793 139.9 99.8793C138 99.7793 135.9 99.8793 133.9 100.179C131.7 100.579 129.7 101.079 127.6 102.179C127.2 102.379 126.8 102.579 126.2 102.879C126 102.979 125.8 103.079 125.6 103.179L125.4 103.779C125.3 104.079 125.3 104.079 125.3 104.279L125.2 104.679C125 105.679 124.8 106.679 124.8 107.679C124.8 108.879 124.5 109.979 124.4 111.079C124.3 112.079 124.3 113.079 124.2 114.079C124.1 115.079 123.9 116.179 123.8 117.179C123.8 118.379 123.6 118.679 123.9 117.379C124.2 116.379 124.4 115.279 124.7 114.279C124.9 113.279 125.1 112.179 125.4 111.179C125.7 110.279 125.7 109.279 126 108.279C126.2 107.279 126.6 106.179 126.7 105.279C126.7 104.979 126.8 104.779 126.8 104.479V104.379L127 104.279L127.3 104.079C127.5 103.979 127.8 103.879 128 103.779C128.9 103.379 129.9 103.179 130.9 102.879C130.9 102.879 131.6 102.679 132.3 102.579C133 102.479 133.7 102.279 133.7 102.279C134.2 102.179 134.6 102.079 135.1 101.879C135.6 101.679 136 101.579 136.5 101.579C137.5 101.479 138.8 101.579 139.8 101.679C140.3 101.779 140.8 101.779 141.3 101.779C141.8 101.779 142.3 101.679 142.7 101.879C144.5 102.379 146.4 102.879 148.3 103.179C149.3 103.379 150.4 103.679 151.3 104.179C151.8 104.379 152.3 104.579 152.7 104.879C152.8 104.879 152.8 104.979 152.8 104.979C152.8 104.879 152.8 105.379 152.8 105.579C152.8 105.579 153 107.079 153.1 108.579C153.3 110.079 153.5 111.579 153.5 111.579C153.6 112.579 153.7 113.779 153.9 114.879C154 115.979 154.3 117.079 154.4 118.079C154.8 118.079 154.9 118.179 154.9 118.279Z" fill="#A49D9E"/>
<path d="M148.7 103.579C148.7 103.579 148.9 103.479 149.3 103.179C149.7 102.879 150.3 102.479 151.1 101.879C151.5 101.579 151.9 101.179 152.4 100.779C152.9 100.379 153.4 99.8793 153.9 99.2793C155 98.1793 156 96.7793 157.1 94.9793C158.1 93.1793 159 90.9793 159.5 88.3793C159.7 87.0793 159.8 85.6793 159.7 84.2793C159.6 82.8793 159.4 81.2793 158.9 79.7793C157.9 76.7793 155.9 73.7793 152.7 71.6793C149.4 69.6793 145.2 68.6793 140.7 68.8793C136.1 69.1793 132 70.2793 128.9 72.3793C125.8 74.4793 123.9 77.4793 123 80.3793C122.5 81.8793 122.3 83.2793 122.3 84.6793C122.2 85.3793 122.3 86.0793 122.3 86.6793C122.4 87.3793 122.4 87.9793 122.5 88.5793C122.9 91.0793 123.7 93.1793 124.6 94.8793C125.5 96.5793 126.5 97.8793 127.4 98.8793C127.8 99.3793 128.3 99.7793 128.7 100.179C129.1 100.579 129.5 100.879 129.9 101.179C130.3 101.479 130.6 101.679 130.8 101.879C131.1 102.079 131.3 102.179 131.5 102.279C131.9 102.479 132 102.579 132 102.579L131.5 103.479C131.5 103.479 131.3 103.379 131 103.179C130.7 102.979 130.1 102.779 129.4 102.279C128 101.379 125.8 99.6793 123.7 96.2793C122.7 94.5793 121.7 92.4793 121 89.8793C120.4 87.2793 120.1 84.1793 120.9 80.8793C121.3 79.1793 121.9 77.4793 122.9 75.7793C123.9 74.0793 125.2 72.5793 126.9 71.2793C128.6 69.9793 130.6 68.8793 132.8 68.1793C135 67.3793 137.4 66.9793 139.9 66.7793C142.4 66.5793 144.9 66.7793 147.2 67.2793C149.5 67.7793 151.6 68.6793 153.5 69.7793C157.2 72.0793 159.6 75.6793 160.7 79.0793C161.3 80.7793 161.5 82.4793 161.6 84.1793C161.7 84.9793 161.6 85.7793 161.6 86.5793C161.5 87.3793 161.5 88.0793 161.3 88.7793C160.7 91.6793 159.7 93.9793 158.6 95.8793C158.3 96.3793 158 96.7793 157.7 97.2793C157.4 97.6793 157.1 98.0793 156.8 98.4793C156.5 98.8793 156.2 99.1793 155.9 99.5793C155.6 99.8793 155.3 100.179 155 100.479C153.9 101.679 152.9 102.479 152.1 103.079C151.3 103.779 150.6 104.079 150.2 104.379C149.8 104.679 149.6 104.779 149.6 104.779L148.7 103.579Z" fill="#A49D9E"/>
<path d="M117.9 143.18C118.1 143.38 117.8 144.079 117.1 145.079C116.3 146.079 115.1 147.28 113.4 148.68C111.7 150.08 109.6 151.48 107.2 152.98C104.8 154.48 102.2 156.08 99.5999 157.68C96.9999 159.38 94.5999 161.08 92.6999 162.78C91.7999 163.68 90.9999 164.58 90.3999 165.479C89.7999 166.379 89.2999 167.279 88.9999 168.079C88.3999 169.779 88.1999 171.379 88.1999 172.479C88.1999 173.58 88.0999 174.28 87.7999 174.38C87.4999 174.48 87.0999 173.88 86.5999 172.78C86.1999 171.58 85.6999 169.68 86.1999 167.28C86.3999 166.08 86.7999 164.879 87.4999 163.579C88.1999 162.379 88.9999 161.18 89.9999 159.979C91.9999 157.78 94.5999 155.78 97.3999 153.98C100.2 152.18 102.9 150.78 105.3 149.38C107.8 148.08 109.9 146.98 111.8 145.98C113.6 144.98 115 144.179 116.1 143.579C117 143.279 117.7 142.98 117.9 143.18Z" fill="#FFFCF2"/>
<path d="M120.5 140.079C120.9 140.279 120.8 141.179 120.2 141.879C119.6 142.579 118.8 142.879 118.5 142.579C118.2 142.279 118.4 141.479 118.9 140.879C119.5 140.179 120.1 139.779 120.5 140.079Z" fill="#FFFCF2"/>
</g>
<g clip-path="url(#clip4)">
<path d="M229.2 197.079C229.9 209.879 225.7 215.679 225.7 215.679L250 213.279C250 213.279 245.6 208.379 244.1 196.879L229.2 197.079Z" fill="#72BAD1"/>
<path d="M274.6 231.479C276.6 245.679 262.6 259.379 243.5 261.979C224.3 264.679 207.2 255.279 205.2 241.079C203.2 226.879 217.2 213.179 236.3 210.579C255.5 207.879 272.6 217.279 274.6 231.479Z" fill="#72BAD1"/>
<path d="M269.7 240.079C270.4 239.779 271.1 239.379 271.8 239.079C274.6 229.379 268.2 220.779 257.9 221.079C244.7 221.379 233.7 231.579 231.2 241.679C244 242.879 257.3 245.479 269.7 240.079Z" fill="#4F8BAD"/>
<path d="M269.7 240.079C257.3 245.479 244 242.879 231.2 241.679C230.7 243.579 230.6 245.379 230.8 247.179C231.7 256.179 243.1 265.379 261.1 252.679C267.1 248.479 270.5 243.579 271.8 239.079C271.1 239.479 270.4 239.779 269.7 240.079Z" fill="#4F8BAD"/>
<path d="M229.1 203.779L231.1 202.679L232.9 204.179L236.1 201.879L239.7 203.679L242.5 202.079L245 202.279L244.1 197.179L229.6 196.779L229.1 203.779Z" fill="#2D3962"/>
<path d="M229.8 192.879L229.1 202.379L231 199.679L233 203.579L236 198.479L239.7 203.079L241.9 199.379L245.1 201.979L243.1 191.679L229.8 192.879Z" fill="#A49D9E"/>
<path d="M231.5 194.379L232.4 199.479L235.7 195.079L231.5 194.379Z" fill="#FFFCF2"/>
<path d="M229.8 192.879C229.8 192.879 235 188.779 243.1 191.679C243.1 191.679 237.5 195.179 229.8 192.879Z" fill="#FFFCF2"/>
<path d="M241.2 193.179C241.2 193.179 241.3 193.079 241.5 192.879C241.7 192.679 242.1 192.379 242.5 191.979C242.7 191.779 242.9 191.579 243.2 191.279C243.4 190.979 243.7 190.679 244 190.279C244.5 189.579 245.1 188.679 245.6 187.579C246.1 186.479 246.5 185.079 246.6 183.579C246.6 182.779 246.6 181.979 246.5 181.179C246.4 180.379 246.1 179.479 245.7 178.579C244.9 176.879 243.5 175.279 241.5 174.279C239.5 173.279 237 172.979 234.3 173.379C231.7 173.779 229.3 174.779 227.6 176.179C225.9 177.579 225 179.479 224.6 181.279C224.4 182.179 224.4 183.079 224.4 183.879C224.4 184.279 224.5 184.679 224.5 185.079C224.6 185.479 224.6 185.879 224.8 186.179C225.2 187.579 225.8 188.779 226.4 189.679C227 190.579 227.7 191.379 228.3 191.879C228.6 192.179 228.9 192.379 229.2 192.579C229.5 192.779 229.7 192.979 229.9 193.079C230.1 193.179 230.3 193.279 230.5 193.379C230.7 193.479 230.8 193.479 230.9 193.579C231.1 193.679 231.2 193.779 231.2 193.779L231 194.379C231 194.379 230.9 194.379 230.7 194.279C230.5 194.179 230.1 194.079 229.7 193.879C228.8 193.379 227.4 192.579 225.9 190.779C225.2 189.879 224.5 188.679 223.9 187.179C223.4 185.679 223 183.879 223.2 181.879C223.3 180.879 223.6 179.779 224.1 178.779C224.6 177.779 225.3 176.679 226.2 175.879C227.1 174.979 228.2 174.279 229.5 173.679C230.8 173.079 232.1 172.679 233.6 172.379C235.1 172.079 236.5 171.979 237.9 172.179C239.3 172.279 240.6 172.679 241.8 173.279C244.2 174.379 245.8 176.379 246.7 178.279C247.2 179.279 247.4 180.279 247.6 181.179C247.8 182.179 247.8 183.079 247.7 183.879C247.6 185.579 247.1 187.079 246.6 188.279C246.5 188.579 246.3 188.879 246.2 189.179C246.1 189.479 245.9 189.679 245.8 189.979C245.6 190.179 245.5 190.479 245.4 190.679C245.2 190.879 245.1 191.079 244.9 191.279C244.3 192.079 243.8 192.579 243.3 192.979C242.9 193.379 242.5 193.679 242.3 193.879C242.1 194.079 242 194.179 242 194.179L241.2 193.179Z" fill="#A49D9E"/>
<path d="M224.5 215.779L230.6 217.079C230.6 217.079 219 222.879 216.6 238.579L207 233.979C207 233.979 210.2 221.579 224.5 215.779Z" fill="#FFFCF2"/>
<path d="M271.5 230.879C271.3 230.979 270.9 230.679 270.6 230.079C270.4 229.779 270.2 229.479 269.9 229.079C269.8 228.879 269.6 228.679 269.5 228.479C269.4 228.279 269.2 228.079 269 227.879C267.8 226.079 265.9 223.779 263.3 221.779C263.1 221.679 263 221.479 262.8 221.379C262.6 221.279 262.5 221.179 262.3 221.079C262 220.879 261.7 220.579 261.3 220.379C260.6 219.979 260 219.579 259.4 219.179C259.1 218.979 258.8 218.779 258.5 218.679C258.2 218.479 257.9 218.379 257.6 218.179C257.5 218.079 257.3 217.979 257.2 217.979C257.2 217.979 257.1 217.879 257 217.879C256.7 217.779 256.5 217.579 256.2 217.479C255.7 217.179 255.2 217.079 254.8 216.879C254.4 216.679 254 216.479 253.7 216.379C253.1 216.079 252.8 215.779 252.8 215.579C252.8 215.379 253.2 215.179 253.9 215.079C254.2 214.979 254.7 214.979 255.2 214.979C255.7 214.979 256.2 214.979 256.9 215.179C257.2 215.279 257.5 215.279 257.8 215.379C258 215.379 258.1 215.479 258.3 215.479C258.5 215.579 258.6 215.579 258.8 215.679C259.1 215.779 259.5 215.879 259.9 215.979C260.3 216.079 260.6 216.279 261 216.379C261.8 216.679 262.5 217.079 263.3 217.579C263.7 217.779 264.1 218.079 264.4 218.279C264.6 218.379 264.8 218.579 265 218.679C265.2 218.779 265.4 218.979 265.6 219.079C268.6 221.379 270.5 224.479 271.3 226.879C271.4 227.179 271.5 227.479 271.6 227.679C271.7 227.979 271.7 228.179 271.8 228.479C271.9 228.979 272 229.379 271.9 229.779C271.9 230.379 271.8 230.779 271.5 230.879Z" fill="#FFFCF2"/>
<path d="M272 233.079C271.6 233.079 271.2 232.779 271.2 232.379C271.1 231.879 271.4 231.479 271.7 231.379C272.1 231.279 272.5 231.579 272.5 232.179C272.6 232.579 272.3 233.079 272 233.079Z" fill="#FFFCF2"/>
</g>
<g clip-path="url(#clip5)">
<path d="M28 131.479C28 131.479 11.2 150.579 10.9 159.979C10.6 169.379 33 186.479 33 186.479C33 186.479 8.59998 206.579 8.99998 227.179C9.39998 247.779 42.4 285.179 42.4 285.179C42.4 285.179 75.6 246.179 75.1 226.979C74.6 207.879 51.3 185.879 51.3 185.879C51.3 185.879 70.1 168.979 70.2 158.879C70.3 148.779 55.3 132.579 55.3 132.579L52.7 110.379L30.5 110.879L28 131.479Z" fill="#72BAD1"/>
<path d="M42.9 279.18C42.9 279.18 31.4 240.48 36.5 225.08C42.7 206.28 70.5 200.98 70.6 228.28C70.6 241.18 42.9 279.18 42.9 279.18Z" fill="#4F8BAD"/>
<path d="M45.1 186.179C45.1 186.179 29.3 165.379 36.7 154.379C45.3 141.679 66.5 139.279 66.6 159.979C66.7 169.779 45.1 186.179 45.1 186.179Z" fill="#4F8BAD"/>
<path d="M28.3 129.379L31.6 127.579L34.5 130.279L40 126.879L45.8 130.279L50.6 127.979L54.8 128.479L53.8 119.779L29.7001 117.379L28.3 129.379Z" fill="#2D3962"/>
<path d="M30.4999 110.879L28.3999 126.879L31.6999 122.579L34.5999 129.379L40.2999 120.979L45.7999 129.279L49.9999 123.279L54.9999 128.079L52.6999 110.379L30.4999 110.879Z" fill="#A49D9E"/>
<path d="M33.2 113.479L34.2 122.479L40.1 115.279L33.2 113.479Z" fill="#FFFCF2"/>
<path d="M30.5 110.879C30.5 110.879 39.5 104.479 52.8 110.379C52.7 110.379 43.1 115.579 30.5 110.879Z" fill="#FFFCF2"/>
<path d="M54 121.68C54 120.68 53.9 119.58 53.9 118.58C53.9 117.98 53.8 116.78 53.7 116.18C53.5 115.38 53.7 114.48 53.5 113.78C53.2999 113.08 53.4 111.88 53.4 111.08C53.4 110.88 53.4 110.78 53.2999 110.28L53.2 109.98V109.88C53.2 109.88 53.0999 109.88 53.0999 109.78L52.5999 109.58C52.1999 109.48 51.8 109.28 51.4 109.18C51 108.98 50.6 108.78 50.2 108.68C49.8 108.48 49.4 108.38 49 108.18C48.2 107.88 47.3 107.68 46.4 107.68C45.9 107.58 45.4 107.18 44.7999 107.38C44.4 107.48 43.9999 107.38 43.5999 107.28L41.0999 107.18C39.4999 107.18 37.9 107.38 36.2 107.68C34.5 108.08 32.8 108.58 31.2 109.58C31 109.68 30.9 109.78 30.7 109.88L30.4 110.08L30 110.28V110.48C30 110.48 30 110.58 29.9 110.58V110.68L29.7999 111.18L29.7 111.78C29.6 112.58 29.5 113.38 29.5 114.18C29.6 115.08 29.2999 116.08 29.2999 116.98C29.2999 117.78 29.2999 118.58 29.2999 119.38C29.1999 120.18 29.1 121.08 29.1 121.88C29.1 122.88 29 123.18 29.2 121.98C29.4 121.08 29.6 120.28 29.7 119.38C29.8 118.48 29.9 117.68 30.2 116.78C30.4 115.98 30.4 115.18 30.6 114.38C30.7 113.58 31 112.68 31 111.98C31 111.68 31.1 111.38 31.1 111.08L31.2 110.98C31.3 110.98 31.4 110.88 31.5 110.88C31.7 110.78 31.9 110.68 32.1 110.58C32.9 110.28 33.5999 109.98 34.4 109.68C34.4 109.68 35 109.48 35.5 109.38C36.1 109.28 36.7 109.08 36.7 109.08C37.1 108.98 37.4 108.88 37.7999 108.78C37.9999 108.68 38.2 108.68 38.4 108.58C38.5999 108.58 38.8 108.48 39 108.48C39.4 108.48 39.9 108.38 40.4 108.38C40.9 108.38 41.2999 108.38 41.7999 108.38C42.1999 108.48 42.6 108.38 43 108.38C43.4 108.38 43.8 108.28 44.2 108.38C44.6 108.48 44.9 108.58 45.2999 108.68L45.9 108.78L46.5 108.88C47.2999 109.08 48.0999 109.08 48.7999 109.18C49.5999 109.28 50.5 109.58 51.2999 109.88C51.6999 110.08 52.1 110.18 52.4 110.38H52.5V110.48V110.58V110.78V111.08C52.5 111.08 52.7 112.28 52.9 113.48C53.1 114.68 53.2999 115.88 53.2999 115.88C53.4 116.68 53.6 117.68 53.7 118.58C53.9 119.48 54.1 120.38 54.2 121.18C54 121.58 54 121.68 54 121.68Z" fill="#A49D9E"/>
<path d="M48.6 109.88C48.6 109.88 48.8 109.78 49.1 109.48C49.4 109.18 49.9 108.88 50.5 108.28C50.8 107.98 51.2 107.68 51.5 107.28C51.9 106.88 52.3 106.48 52.6 105.98C53.4 105.08 54.2 103.78 55 102.28C55.8 100.78 56.4 98.9796 56.7 96.7796C56.8 95.6796 56.9 94.5796 56.8 93.3796C56.8 92.7796 56.6 92.1796 56.5 91.5796C56.3 90.9796 56.2 90.3796 56 89.7796C55.1 87.3796 53.4 84.8796 50.7 83.2796C48.1 81.6796 44.6 80.9796 40.9 81.2796C37.2 81.6796 33.9 82.7796 31.5 84.6796C29.1 86.5796 27.6 89.0796 27 91.5796C26.7 92.7796 26.6 93.9796 26.6 95.1796C26.6 96.2796 26.7 97.3796 26.9 98.3796C27.3 100.38 28 102.08 28.8 103.48C29.6 104.88 30.4 105.88 31.2 106.68C31.6 107.08 32 107.38 32.3 107.78C32.7 108.08 33 108.28 33.3 108.48C33.6 108.68 33.9 108.88 34.1 108.98C34.3 109.08 34.5 109.18 34.7 109.28C35 109.48 35.1 109.48 35.1 109.48L34.8 110.18C34.8 110.18 34.7 110.08 34.4 109.98C34.1 109.88 33.7 109.68 33.1 109.28C31.9 108.58 30.1 107.28 28.3 104.58C27.4 103.28 26.6 101.58 26 99.4796C25.4 97.3796 25.1 94.8796 25.5 92.1796C25.7 90.7796 26.2 89.3796 26.9 87.9796C27.6 86.5796 28.6 85.2796 29.9 84.0796C31.2 82.8796 32.8 81.9796 34.5 81.2796C36.3 80.5796 38.2 80.0796 40.2 79.8796C42.2 79.6796 44.2 79.6796 46.1 79.9796C48 80.2796 49.8 80.9796 51.3 81.8796C52.7 82.9796 54 84.1796 55 85.3796C56 86.6796 56.7 88.0796 57.3 89.4796C57.6 90.1796 57.7 90.8796 57.9 91.5796C58 92.2796 58.1 92.9796 58.2 93.5796C58.3 94.2796 58.2 94.8796 58.3 95.4796C58.2 96.0796 58.2 96.6796 58.1 97.2796C57.8 99.5796 57 101.58 56.2 103.18C56 103.58 55.8 103.98 55.6 104.28C55.4 104.68 55.2 104.98 54.9 105.28C54.7 105.58 54.5 105.88 54.2 106.18C54 106.48 53.7 106.68 53.5 106.98C52.6 107.98 51.9 108.68 51.2 109.28C50.6 109.88 50.1 110.18 49.7 110.48C49.4 110.68 49.2 110.88 49.2 110.88L48.6 109.88Z" fill="#A49D9E"/>
<path d="M22.3999 147.679C18.1999 152.679 13.8999 159.479 17.8999 160.879C21.9999 162.379 47.7999 143.379 41.4999 136.979C36.7999 132.179 26.3999 142.979 22.3999 147.679Z" fill="#FFFCF2"/>
<path d="M21.9999 209.579C17.0999 215.279 12.1999 222.879 16.6999 224.579C21.3999 226.279 50.9999 204.879 43.9999 197.579C38.6999 191.979 26.6999 204.179 21.9999 209.579Z" fill="#FFFCF2"/>
<path d="M40.4999 154.38C42.1999 151.88 16.3999 165.78 17.6999 167.08C19.0999 168.38 33.4999 164.98 40.4999 154.38Z" fill="#FFFCF2"/>
<path d="M47.2 214.679C49.4 211.379 15.5 229.679 17.3 231.379C18.9 233.079 37.9 228.679 47.2 214.679Z" fill="#FFFCF2"/>
<path d="M67.1001 159.979C69.8001 160.979 65.2001 168.379 63.6001 167.779C62.1001 167.079 63.4001 158.479 67.1001 159.979Z" fill="#FFFCF2"/>
<path d="M71.5 228.28C74.4 228.78 70 238.78 68.3 238.48C66.7 238.18 67.6 227.58 71.5 228.28Z" fill="#FFFCF2"/>
</g>
<defs>
<clipPath id="clip0">
<rect width="56.5" height="63.4" fill="white" transform="translate(114 1.87939)"/>
</clipPath>
<clipPath id="clip1">
<rect width="56.5" height="63.4" fill="white" transform="translate(207 104.879)"/>
</clipPath>
<clipPath id="clip2">
<rect width="56.5" height="63.4" fill="white" transform="translate(14 13.8794)"/>
</clipPath>
<clipPath id="clip3">
<rect width="110.8" height="154.2" fill="white" transform="translate(82 66.8794)"/>
</clipPath>
<clipPath id="clip4">
<rect width="69.8" height="90.6" fill="white" transform="translate(205 171.879)"/>
</clipPath>
<clipPath id="clip5">
<rect width="66.1" height="205.3" fill="white" transform="translate(9 79.8794)"/>
</clipPath>
</defs>
</svg>
