<svg width="294" height="280" viewBox="0 0 294 280" fill="none" xmlns="http://www.w3.org/2000/svg">
<rect y="5.87939" width="293.32" height="274" fill="#2D3962"/>
<path d="M224.649 183.163C224.649 183.163 224.788 183.443 224.927 183.864C225.067 184.284 225.206 184.985 225.485 185.826C225.904 187.507 226.461 190.03 226.88 192.973C227.856 198.999 228.414 206.988 228.274 214.976C228.135 222.964 227.298 230.953 226.322 236.979C225.904 239.922 225.346 242.445 225.067 244.126C224.788 245.808 224.509 246.789 224.509 246.789L222.975 246.509C222.975 246.509 223.115 244.827 223.812 240.062C224.37 235.437 225.485 227.87 225.904 215.957C226.183 204.185 225.346 196.056 224.649 190.871C224.23 188.348 223.951 186.386 223.672 185.265C223.393 184.004 223.254 183.583 223.254 183.583L224.649 183.163Z" fill="#B3C8D3"/>
<path d="M227.159 204.325C227.159 204.325 227.577 204.465 228.274 204.745C228.971 205.026 229.808 205.586 230.924 206.147C233.155 207.408 235.944 209.09 238.594 211.192C239.291 211.753 239.849 212.173 240.546 212.734C241.104 213.294 241.801 213.855 242.359 214.275C243.475 215.256 244.59 216.237 245.427 217.218C247.1 219.04 248.355 220.161 248.355 220.161L247.379 221.143C247.379 221.143 246.821 220.722 245.287 219.461C243.893 218.199 241.522 216.097 237.757 213.154C235.944 211.613 234.131 210.491 232.876 209.51C231.482 208.669 230.366 207.829 229.39 207.268C228.553 206.707 227.856 206.287 227.437 206.007C227.019 205.726 226.88 205.586 226.88 205.586L227.159 204.325Z" fill="#B3C8D3"/>
<path d="M227.159 218.9C227.159 218.9 226.74 219.181 226.183 219.461C225.485 219.881 224.649 220.442 223.533 221.143C221.441 222.684 218.652 224.646 216.002 226.889C213.353 229.131 210.982 231.654 209.448 233.616C208.611 234.597 208.054 235.438 207.635 236.138C207.217 236.699 206.938 237.119 206.938 237.119L205.543 236.278C205.543 236.278 205.543 236.138 205.822 235.718C205.962 235.297 206.241 234.597 206.799 233.756C207.914 231.934 210.006 228.991 213.911 225.487C217.955 221.983 221.023 220.021 223.115 218.9C225.206 217.779 226.183 217.499 226.183 217.499L227.159 218.9Z" fill="#B3C8D3"/>
<path d="M232.04 240.062C228.553 230.532 212.377 240.062 213.213 248.331C214.05 256.599 221.023 259.122 225.485 257.44C229.948 255.899 235.665 250.153 232.04 240.062Z" fill="#FF606F"/>
<path d="M211.679 231.093C207.635 225.207 197.734 231.093 198.431 236.979C199.129 242.865 204.009 244.547 207.077 243.426C210.285 242.305 216.142 237.68 211.679 231.093Z" fill="#FF606F"/>
<path d="M245.845 213.715C241.522 214.556 238.175 221.563 242.499 226.188C245.427 229.411 253.376 228.57 255.328 222.264C256.444 218.48 250.587 212.734 245.845 213.715Z" fill="#FF606F"/>
<path d="M204.288 237.96C207.077 238.941 209.727 237.54 209.03 235.718C207.635 232.635 204.149 231.513 201.639 232.074C198.431 232.915 199.826 236.278 204.288 237.96Z" fill="#FFFCF2"/>
<path d="M220.883 246.649C223.672 247.63 226.322 246.229 225.625 244.407C224.23 241.323 220.744 240.202 218.234 240.763C215.026 241.604 216.421 244.967 220.883 246.649Z" fill="#FFFCF2"/>
<path d="M245.427 222.544C248.216 223.525 250.866 222.124 250.169 220.302C248.774 217.218 245.288 216.097 242.777 216.658C239.57 217.499 240.965 220.862 245.427 222.544Z" fill="#FFFCF2"/>
<path d="M38.7573 222.264C42.1042 221.563 45.5905 220.862 48.9374 220.582C51.0292 220.442 54.9339 219.601 56.8862 219.04C59.5358 218.199 62.6038 218.48 64.9745 217.499C67.3452 216.518 71.2499 216.518 74.1784 215.957C76.828 215.396 79.4777 214.556 82.1273 213.995C83.5218 213.715 84.9163 213.434 86.3109 213.154C87.7054 212.874 89.2394 212.594 90.6339 212.173C93.5624 211.472 96.3515 210.912 99.1406 209.791C100.814 209.23 102.627 209.23 104.161 208.249C105.416 207.548 106.671 207.268 107.926 206.707C107.926 206.707 109.878 206.007 111.831 205.306C113.783 204.605 115.596 203.764 115.596 203.764C120.477 201.942 125.497 199.7 130.518 197.458C133.167 196.196 135.817 194.935 138.466 193.674C139.861 193.113 141.116 192.412 142.371 191.712C143.626 191.011 145.021 190.31 146.415 189.61C151.017 187.087 156.177 184.704 160.779 181.621C162.034 180.64 163.429 179.799 164.823 179.099C166.218 178.258 167.612 177.557 169.007 176.716C171.238 175.174 173.33 173.493 175.561 171.811C177.792 170.269 180.581 168.728 182.813 167.046C185.462 164.944 185.044 162.842 181.697 164.804C176.677 167.747 172.493 172.091 167.054 174.614C164.684 175.875 162.592 177.697 160.221 179.099C157.85 180.5 155.061 181.901 152.97 183.163C151.714 184.004 150.459 184.845 149.065 185.405C147.81 186.106 146.415 186.807 145.16 187.367C142.511 188.629 140 190.03 137.351 191.291L129.82 194.935C127.31 196.056 125.079 197.598 122.569 198.719C119.919 199.98 116.433 201.102 113.783 202.083C110.994 202.923 108.623 204.325 105.974 205.026C103.464 205.867 100.814 206.427 98.1644 207.128C95.5148 207.969 92.8652 208.669 90.355 209.51C88.9605 209.931 87.566 210.351 86.032 210.631C84.6374 210.912 83.1034 211.192 81.5695 211.472C78.6409 212.033 75.7124 212.594 72.7839 213.154C72.7839 213.154 68.7397 213.995 64.6956 214.836C60.6514 215.677 56.6073 216.377 56.6073 216.377C51.0292 217.359 44.0565 218.199 38.7573 219.601C38.6178 219.601 38.3389 219.741 38.1995 219.741L38.7573 222.264Z" fill="#B3C8D3"/>
<path d="M55.4917 201.802C56.189 201.942 56.7468 201.942 57.3046 202.503C57.5835 202.783 58.2808 202.923 58.6991 202.923C59.2569 202.783 59.5358 203.764 60.0937 203.344C60.6515 203.063 61.0698 203.904 61.6276 204.185C62.046 204.325 62.6038 204.325 63.1616 204.465C64.1378 204.885 64.9745 205.866 66.0901 205.726C66.5085 205.726 66.5085 206.427 66.9269 206.147C67.2058 206.007 67.4847 206.287 67.6241 206.287L69.0187 206.988C69.8554 207.408 70.6921 207.828 71.6683 208.389C72.6445 208.95 73.4812 209.51 74.5968 209.931C75.573 210.211 75.9913 211.472 77.107 211.472C77.8042 211.472 78.0831 212.173 78.5015 212.453C78.9199 212.734 79.6171 212.593 80.0355 212.874C80.4538 213.154 80.7328 213.715 81.1511 213.995C81.7089 214.135 82.964 212.734 82.5456 212.033C81.8484 211.052 80.4538 211.192 79.7566 210.071C79.4777 209.65 78.7804 209.79 78.362 209.37C77.9437 209.09 77.5253 208.669 77.107 208.529C75.9913 208.109 75.2941 207.408 74.1784 206.847L72.7839 206.147C72.3656 205.866 71.6683 206.147 71.2499 205.866C70.6921 205.586 70.1343 205.306 69.7159 204.885C69.2976 204.465 68.6003 204.745 68.1819 204.325C67.4847 203.624 66.5085 203.063 65.3929 203.063C64.2773 202.923 63.3011 202.082 62.3249 201.662C62.3249 201.662 62.1855 201.522 61.9066 201.522C61.6276 201.382 61.2093 201.242 60.9304 201.101C60.2331 200.821 59.5358 200.541 59.5358 200.541C58.5597 200.12 57.444 199.279 56.3284 199.42H56.189L55.4917 201.802Z" fill="#B3C8D3"/>
<path d="M117.827 200.401C117.688 201.101 117.409 201.942 116.851 202.503C116.433 202.783 116.014 203.624 116.014 204.185C116.014 204.605 115.736 204.745 115.457 205.025C115.178 205.306 114.899 205.446 114.899 205.866C114.899 206.567 113.923 206.988 113.504 207.548C113.086 207.969 112.947 208.669 112.528 209.23C111.691 210.211 110.297 210.912 109.739 212.313C109.46 212.734 108.902 212.593 108.902 213.154C108.902 213.574 108.484 213.715 108.345 213.855C108.345 213.855 108.066 214.135 107.647 214.555C107.229 214.836 106.95 215.256 106.95 215.256C106.113 216.097 104.998 216.938 104.022 217.779C102.906 218.76 101.79 219.461 100.814 220.442C99.9774 221.423 98.4434 221.563 97.6066 222.684C97.1883 223.385 96.3516 223.525 95.6543 223.945C95.0965 224.366 94.8176 225.066 94.2598 225.487C93.702 225.907 92.8652 226.047 92.4469 226.468C91.8891 227.028 92.7258 228.85 93.702 228.57C95.2359 228.15 95.7938 226.608 97.3277 226.188C98.025 226.047 98.3039 225.207 98.8617 224.926C99.4195 224.506 100.117 224.226 100.535 223.805C101.651 222.684 102.906 222.123 104.022 221.282C104.022 221.282 104.44 221.002 104.858 220.582C105.277 220.301 105.695 219.881 105.695 219.881C106.253 219.461 106.392 218.62 106.95 218.199C107.508 217.779 108.205 217.218 108.763 216.798C109.46 216.517 109.6 215.536 110.157 215.256C110.715 214.976 111.273 214.555 111.831 213.995C112.249 213.574 112.668 212.874 112.947 212.313C113.644 211.052 114.899 210.071 115.875 208.95C115.875 208.95 116.433 208.109 117.13 207.268C117.688 206.427 118.246 205.586 118.246 205.586C118.525 204.885 119.082 204.325 119.501 203.624C119.919 202.923 120.198 202.223 120.198 201.382V201.242L117.827 200.401Z" fill="#B3C8D3"/>
<path d="M90.2155 191.291C91.4706 190.871 92.7257 190.59 93.9808 190.59C94.8175 190.73 96.212 190.31 97.0487 189.89C98.0249 189.329 99.1405 189.89 100.117 189.469C100.953 188.909 102.487 189.469 103.603 189.329C104.579 189.189 105.555 188.909 106.671 188.768C108.763 188.488 111.134 188.909 113.225 188.208C113.923 188.068 114.48 188.628 115.178 188.068C115.735 187.787 116.154 187.928 116.712 187.787C116.712 187.787 117.548 187.787 118.246 187.647C119.082 187.507 119.78 187.507 119.78 187.507C121.732 187.507 123.824 187.367 125.916 187.367C128.147 187.227 130.239 187.367 132.609 187.087C134.562 186.806 136.793 187.507 138.745 187.087C140 186.666 141.116 187.227 142.371 187.227C143.347 187.227 144.463 186.806 145.439 186.806C146.415 186.806 147.67 187.087 148.646 187.087C149.902 186.806 150.32 184.984 148.786 184.704C146.555 184.284 144.323 185.125 142.092 184.564C141.116 184.284 140 184.844 139.024 184.704C138.048 184.704 136.793 184.424 135.817 184.564C133.446 184.844 131.354 184.564 129.123 184.564C129.123 184.564 128.286 184.564 127.589 184.564C126.752 184.564 126.055 184.704 126.055 184.704C125.079 184.704 123.963 185.265 122.987 185.265C121.871 185.265 120.477 185.265 119.361 185.265C118.246 185.125 117.269 185.825 116.154 185.545C114.201 185.405 111.831 185.405 110.018 185.965C107.787 186.526 105.416 186.386 103.185 186.666C103.185 186.666 101.651 186.806 100.117 187.087C99.28 187.227 98.5827 187.227 98.0249 187.367C97.4671 187.507 97.0487 187.507 97.0487 187.507C94.9569 187.928 92.1679 187.928 90.2155 188.768L89.6577 188.909L90.2155 191.291Z" fill="#B3C8D3"/>
<path d="M41.8253 222.404C44.8933 214.135 26.6249 210.631 22.5808 216.518C18.5366 222.544 23.9753 228.71 27.7405 230.112C31.6452 231.653 38.6179 231.093 41.8253 222.404Z" fill="#FF606F"/>
<path d="M57.8624 205.026C64.8351 201.522 60.2332 191.431 50.0531 191.291C43.6382 191.291 42.5226 198.158 44.0566 201.382C45.73 204.745 50.6109 208.669 57.8624 205.026Z" fill="#FF606F"/>
<path d="M94.5388 180.64C89.379 176.436 78.0833 179.239 76.6888 188.769C75.7126 195.356 84.3587 203.764 93.7021 199.981C99.2802 197.738 100.256 185.265 94.5388 180.64Z" fill="#FF606F"/>
<path d="M102.348 229.271C104.858 219.46 85.3347 213.434 81.2906 220.301C77.2464 227.168 81.8484 234.456 86.5898 236.839C91.4707 239.221 99.8379 239.641 102.348 229.271Z" fill="#FF606F"/>
<path d="M86.1715 226.888C88.9606 227.869 91.6102 226.468 90.9129 224.646C89.5184 221.563 86.032 220.442 83.5219 221.002C80.3144 221.843 81.709 225.347 86.1715 226.888Z" fill="#FFFCF2"/>
<path d="M81.43 190.731C84.2191 191.712 86.8687 190.31 86.1714 188.488C84.7769 185.405 81.2906 184.284 78.7804 184.845C75.573 185.686 76.9675 189.049 81.43 190.731Z" fill="#FFFCF2"/>
<path d="M26.625 222.544C29.4141 223.525 32.0637 222.123 31.3664 220.301C29.9719 217.218 26.4856 216.097 23.9754 216.658C20.9074 217.499 22.1625 220.862 26.625 222.544Z" fill="#FFFCF2"/>
<path d="M47.9612 199.28C50.7503 200.261 53.3999 198.859 52.7026 197.037C51.3081 193.954 47.8217 192.833 45.3116 193.394C42.2436 194.234 43.4987 197.598 47.9612 199.28Z" fill="#FFFCF2"/>
<path d="M181 146.164C180.86 146.164 150.459 158.357 135.677 176.016C135.817 176.016 118.524 160.88 79.7564 171.11C79.8959 170.97 67.0662 149.528 29.2743 130.888C29.1349 131.029 65.9506 123.741 80.7326 112.249C80.7326 112.529 108.623 134.672 137.769 121.639C137.908 121.639 153.946 143.502 181 146.164Z" fill="#2D6C73"/>
<path d="M22.3018 132.43C25.0908 133.131 27.8799 133.411 30.8084 133.691C33.5975 134.112 36.526 134.532 39.3151 135.373C41.9647 136.214 44.6143 136.214 47.2639 136.915C48.519 137.195 50.053 137.615 51.4475 138.036C52.8421 138.456 54.2366 138.737 55.4917 139.017C61.4882 140.138 66.9268 142.1 72.6444 143.642C75.4335 144.342 78.0831 145.043 80.8722 145.744C81.5695 145.884 82.4062 146.024 83.2429 146.164C83.1034 146.164 83.1034 146.305 82.964 146.305C82.5456 146.445 82.1273 146.445 81.7089 146.725C81.0116 147.286 80.0355 147.286 79.1987 147.706C78.7804 147.846 78.5015 147.986 78.0831 148.267C77.6648 148.407 77.5253 148.967 77.1069 149.107C76.6886 149.248 76.1308 149.388 75.7124 149.528C75.2941 149.528 75.0151 150.088 74.5968 150.088C73.7601 150.088 72.9233 150.369 72.3655 151.069C71.6683 151.63 70.6921 151.63 69.8554 152.051C69.1581 152.331 68.3214 152.751 67.6241 153.032C66.9269 153.312 65.6718 153.452 65.2534 154.153C65.5323 154.853 65.9507 155.414 66.2296 156.115C66.6479 155.834 67.0663 155.414 67.6241 155.554C68.0425 155.554 68.4608 155.274 68.7397 154.994C69.0187 154.573 69.7159 154.994 69.8554 154.573C69.9948 154.013 70.8315 154.433 71.2499 154.153C71.6683 154.013 71.9472 153.592 72.2261 153.452C72.9233 153.172 74.039 153.172 74.5968 152.331C74.7362 152.191 75.2941 152.471 75.2941 152.051C75.4335 151.77 75.573 151.77 75.8519 151.77C76.2702 151.63 76.5491 151.49 76.9675 151.21C77.6648 150.929 78.5015 150.649 79.1987 150.369C80.0355 149.948 80.8722 149.808 81.5695 149.248C82.1273 148.687 83.2429 148.967 83.8007 148.407C84.0796 147.986 84.7769 148.126 85.1952 147.986C85.6136 147.846 85.7531 147.286 86.1714 147.145C86.4503 147.005 86.8687 147.005 87.1476 146.865C87.8449 147.005 88.5421 147.145 89.0999 147.286C92.0285 147.846 95.6542 148.827 98.5828 149.528C99.4195 149.668 100.117 149.808 100.953 149.948C100.396 150.088 99.9773 150.509 99.28 150.649C98.7222 150.929 98.0249 150.929 97.4671 151.21C96.3515 151.91 94.957 152.051 93.8413 152.611C93.2835 152.891 92.7257 153.032 92.1679 153.312C91.6101 153.592 91.1917 154.153 90.6339 154.293C90.0761 154.573 89.2394 154.713 88.5421 154.853C87.8449 154.853 87.5659 155.554 86.8687 155.694C85.6136 155.834 84.498 156.255 83.5218 157.096C82.4062 157.797 81.0116 157.937 79.896 158.497C78.7804 158.918 77.6648 159.338 76.5491 159.899C75.4335 160.319 73.7601 160.599 72.9233 161.44C72.9233 161.44 72.9233 161.44 72.7839 161.58C73.0628 162.281 73.3417 162.842 73.6206 163.543C74.3179 163.122 74.8757 162.702 75.7124 162.702C76.2702 162.702 76.9675 162.281 77.3859 162.001C77.8042 161.44 78.6409 161.861 79.0593 161.3C79.3382 160.74 80.4538 161.02 81.0116 160.74C81.5695 160.459 81.9878 160.179 82.5456 159.899C83.6613 159.478 85.1952 159.338 86.1714 158.497C86.4503 158.217 87.0081 158.637 87.287 158.077C87.4265 157.797 87.8449 157.797 88.1238 157.656C88.6816 157.376 89.2394 157.236 89.7972 156.956C90.9128 156.535 92.0285 156.115 93.1441 155.694C94.3992 155.134 95.5148 154.853 96.7699 154.153C97.746 153.592 99.28 153.732 100.256 152.891C100.814 152.331 101.651 152.471 102.209 152.191C102.766 151.91 103.185 151.35 103.743 151.21C104.3 150.929 104.998 150.929 105.555 150.649C106.113 150.789 106.671 150.789 107.229 150.929C109.878 151.49 112.668 151.91 115.596 152.191C118.525 152.331 121.314 152.471 124.103 152.331C125.497 152.331 126.752 152.331 128.147 152.331C128.007 152.471 127.729 152.751 127.45 152.751C127.031 152.891 127.031 153.452 126.613 153.732C126.334 154.013 125.776 154.293 125.637 154.573C125.079 155.414 124.382 155.834 123.684 156.395C123.405 156.675 123.127 156.956 122.848 157.236C122.569 157.516 122.569 158.077 122.29 158.357C122.011 158.637 121.593 159.058 121.174 159.198C120.756 159.338 120.756 160.039 120.337 160.179C119.501 160.599 118.803 161.16 118.664 162.001C118.246 162.842 117.27 163.262 116.712 163.823C116.154 164.383 115.596 165.084 115.038 165.645C114.48 166.205 113.365 166.766 113.086 167.607C113.086 167.607 113.086 167.607 113.086 167.747C113.644 168.167 114.202 168.588 114.62 169.008C114.899 168.588 115.178 168.167 115.736 167.887C116.154 167.747 116.433 167.326 116.572 166.906C116.572 166.486 117.409 166.486 117.409 166.065C117.409 165.505 118.246 165.505 118.525 165.224C118.803 164.944 118.943 164.524 119.222 164.243C119.78 163.683 120.895 163.262 121.035 162.421C121.174 162.141 121.732 162.281 121.593 161.861C121.593 161.58 121.871 161.44 122.011 161.3C122.29 161.02 122.569 160.74 122.848 160.459C123.405 159.899 124.103 159.338 124.661 158.778C125.218 158.077 125.916 157.656 126.473 156.815C126.892 156.115 128.007 155.975 128.286 155.134C128.426 154.573 128.984 154.573 129.402 154.153C129.681 153.872 129.681 153.312 129.96 153.032C130.239 152.751 130.657 152.611 130.936 152.331C131.773 152.331 132.609 152.331 133.446 152.331C134.98 152.331 136.514 152.471 138.188 152.471C139.721 152.471 141.255 152.471 142.789 152.331C142.789 152.331 143.905 152.331 145.439 152.191C146.694 152.051 148.228 152.051 149.762 151.91C149.204 152.191 148.925 152.751 148.368 153.032C147.81 153.452 147.113 153.732 146.834 154.013C145.857 154.994 144.602 155.554 143.626 156.255C143.068 156.675 142.65 156.956 142.092 157.376C141.674 157.797 141.395 158.357 140.837 158.778C140.279 159.198 139.582 159.618 139.024 159.899C138.327 160.179 138.188 160.88 137.63 161.02C136.514 161.44 135.398 162.141 134.701 163.122C133.864 164.103 132.47 164.664 131.494 165.364C130.518 166.065 129.541 166.766 128.565 167.607C127.589 168.307 126.055 169.008 125.358 169.989C125.358 169.989 125.358 169.989 125.218 170.129C125.637 170.69 126.055 171.11 126.613 171.671C127.171 171.11 127.729 170.55 128.426 170.27C128.844 170.129 129.541 169.569 129.82 169.148C130.099 168.588 131.075 168.728 131.215 168.027C131.354 167.467 132.47 167.326 133.028 166.906C133.446 166.486 133.864 166.065 134.422 165.645C135.398 164.944 136.793 164.383 137.49 163.402C137.769 163.122 138.327 163.262 138.466 162.702C138.606 162.421 138.885 162.281 139.164 162.141C139.721 161.721 140.14 161.44 140.558 161.02C141.534 160.319 142.511 159.618 143.487 158.918C144.602 158.077 145.579 157.516 146.694 156.535C147.531 155.694 148.925 155.414 149.762 154.433C150.18 153.872 151.017 153.732 151.575 153.312C152.133 152.891 152.272 152.331 152.83 151.91C153.109 151.63 153.527 151.49 153.946 151.35C157.432 151.069 160.361 150.649 160.361 150.649C161.895 150.509 163.429 150.369 165.102 150.229C166.775 150.088 168.449 149.808 170.122 149.668C173.469 149.248 176.816 148.827 179.605 148.126C179.745 148.126 180.024 147.986 180.163 147.986C180.024 147.145 180.024 146.305 179.884 145.323C176.258 146.024 172.493 146.725 169.007 146.865C167.891 146.865 166.357 147.145 164.684 147.286C163.01 147.566 161.476 147.706 160.361 147.986C157.572 148.687 154.364 147.986 151.854 148.827C151.157 148.967 150.459 149.107 149.623 149.248C149.204 149.248 148.647 149.248 148.228 149.248V149.107C147.949 147.986 146.555 147.426 146.415 146.305C146.276 145.744 145.579 145.604 145.439 145.043C145.16 144.623 145.021 144.062 144.602 143.642C143.766 142.801 143.347 141.68 142.789 140.699C142.511 140.278 142.232 139.858 141.813 139.297C141.534 138.877 140.837 138.596 140.558 138.176C140.279 137.756 139.861 137.055 139.721 136.494C139.582 135.934 138.885 135.653 138.745 135.233C138.466 134.252 137.909 133.271 136.932 132.57C135.956 131.729 135.677 130.608 134.98 129.627C134.422 128.786 133.725 127.805 133.167 126.964C132.47 125.983 132.052 124.722 131.075 124.021C131.075 124.021 131.075 124.021 130.936 123.881C130.378 124.161 129.681 124.582 129.123 124.862C129.681 125.423 130.099 125.843 130.239 126.544C130.239 126.964 130.796 127.665 131.215 127.805C131.773 128.085 131.494 128.926 132.191 129.207C132.888 129.487 132.749 130.328 133.028 130.888C133.307 131.309 133.864 131.729 134.143 132.15C134.841 133.131 134.98 134.392 136.096 134.953C136.375 135.233 136.096 135.653 136.654 135.794C136.932 135.934 137.072 136.214 137.211 136.354C137.49 136.775 137.769 137.195 138.048 137.615C138.606 138.456 139.164 139.437 139.721 140.278C140.419 141.259 140.977 142.24 141.674 143.081C142.371 143.782 142.371 145.043 143.347 145.744C143.905 146.164 143.905 146.865 144.323 147.286C144.602 147.706 145.3 147.986 145.579 148.407C145.718 148.547 145.718 148.827 145.857 148.967C144.602 148.967 143.347 148.827 142.232 148.967C140.837 148.967 139.443 149.107 138.048 149.248C136.654 149.388 135.259 149.388 133.864 149.388C130.936 149.388 127.868 149.248 124.939 148.967C124.8 148.967 124.661 148.967 124.382 148.967C124.103 148.267 123.266 147.566 123.405 146.725C123.405 146.305 122.848 146.024 122.708 145.464C122.569 145.043 122.569 144.483 122.29 144.202C121.732 143.361 121.593 142.38 121.174 141.399C121.035 140.979 120.756 140.559 120.616 140.138C120.477 139.718 119.919 139.437 119.64 139.017C119.501 138.596 119.222 137.896 119.222 137.475C119.222 136.915 118.525 136.634 118.525 136.214C118.385 135.233 118.106 134.392 117.409 133.691C116.712 132.85 116.712 131.729 116.293 130.888C115.875 130.048 115.596 129.207 115.178 128.366C114.759 127.525 114.62 126.264 113.923 125.563C113.923 125.563 113.923 125.563 113.923 125.423C113.225 125.703 112.528 125.843 111.97 126.123C112.249 126.684 112.668 127.104 112.668 127.805C112.668 128.226 112.946 128.786 113.365 129.067C113.783 129.347 113.365 130.048 113.923 130.328C114.48 130.608 114.202 131.449 114.341 131.869C114.48 132.29 114.899 132.71 115.038 133.131C115.457 133.972 115.317 135.093 116.293 135.794C116.572 136.074 116.154 136.494 116.712 136.634C116.991 136.775 116.991 137.055 117.13 137.195C117.27 137.615 117.548 138.036 117.688 138.456C118.106 139.297 118.385 140.138 118.664 140.979C119.082 141.96 119.361 142.801 119.919 143.642C120.477 144.342 120.198 145.464 120.895 146.164C121.453 146.585 121.174 147.145 121.453 147.706C121.593 148.126 122.15 148.407 122.429 148.827C120.337 148.687 118.246 148.687 116.293 148.687C114.48 148.547 112.946 147.706 110.994 148.126C109.6 148.267 108.205 147.986 106.811 147.706C104.021 147.286 101.372 146.865 98.5828 146.305C98.1644 146.305 97.8855 146.164 97.4671 146.024C97.4671 145.884 97.4671 145.744 97.4671 145.464C96.9093 144.202 95.3753 143.642 94.8175 142.24C94.5386 141.68 93.8413 141.399 93.423 140.839C93.0046 140.418 92.5863 139.718 92.1679 139.297C91.0523 138.316 90.355 137.055 89.5183 136.074C89.0999 135.513 88.6816 135.093 88.2632 134.532C87.8449 133.972 87.1476 133.831 86.7292 133.271C86.3109 132.71 85.7531 132.01 85.3347 131.449C85.0558 130.748 84.2191 130.608 83.9402 129.907C83.3824 128.786 82.5456 127.665 81.43 126.824C80.3144 125.843 79.6171 124.582 78.6409 123.461C77.8042 122.48 76.9675 121.358 75.9913 120.377C75.1546 119.256 74.3179 117.715 73.2023 116.874C73.2023 116.874 73.0628 116.874 73.0628 116.734C72.505 117.154 71.9472 117.575 71.5288 117.995C72.2261 118.556 72.7839 119.116 73.0628 119.957C73.2023 120.518 73.8995 121.218 74.4573 121.499C75.1546 121.779 75.0151 122.76 75.7124 123.04C76.4097 123.321 76.5491 124.302 76.9675 124.862C77.3859 125.423 77.9437 125.703 78.362 126.264C79.1987 127.385 79.896 128.786 81.1511 129.487C81.5695 129.767 81.43 130.328 81.9878 130.468C82.4062 130.608 82.5456 130.888 82.6851 131.169C83.1034 131.729 83.5218 132.15 83.9402 132.71C84.7769 133.691 85.4742 134.672 86.4503 135.653C87.4265 136.775 88.1238 137.756 89.2394 138.877C90.2156 139.718 90.6339 141.119 91.7495 141.82C92.4468 142.24 92.7257 143.081 93.1441 143.642C93.5624 144.062 94.2597 144.342 94.6781 144.903C94.8175 145.043 94.957 145.183 94.957 145.323C93.5624 145.043 92.1679 144.623 90.6339 144.342C87.9843 143.642 85.3347 143.081 82.6851 142.38C78.7804 141.399 75.0151 140.278 71.2499 139.297C70.6921 138.877 69.9948 138.737 69.7159 138.036C69.5765 137.615 69.0187 137.615 68.7397 137.335C68.4608 137.055 68.1819 136.634 67.7636 136.354C66.9268 135.934 66.5085 135.093 65.8112 134.532C65.5323 134.252 65.114 133.972 64.8351 133.691C64.5561 133.411 63.9983 133.411 63.58 133.131C63.3011 132.85 62.8827 132.43 62.6038 132.01C62.3249 131.589 61.7671 131.589 61.6276 131.169C61.2093 130.468 60.512 129.767 59.6753 129.487C58.8386 129.067 58.2807 128.226 57.5835 127.525C56.8862 126.964 56.3284 126.404 55.6311 125.843C54.9339 125.283 54.376 124.302 53.5393 124.021C53.5393 124.021 53.5393 124.021 53.3999 124.021C52.9815 124.582 52.5632 125.002 52.1448 125.563C52.5632 125.843 53.121 126.123 53.2604 126.684C53.3999 127.104 53.9577 127.385 54.2366 127.525C54.7944 127.525 54.655 128.366 55.2128 128.366C55.7706 128.366 55.7706 129.207 56.1889 129.487C56.4678 129.767 56.8862 129.907 57.3046 130.188C58.0018 130.748 58.4202 131.729 59.3964 132.01C59.6753 132.15 59.5358 132.71 59.9542 132.57C60.2331 132.57 60.3725 132.71 60.512 132.85C60.7909 133.131 61.2093 133.411 61.4882 133.691C62.046 134.252 62.6038 134.813 63.3011 135.373C63.9983 135.934 64.5561 136.634 65.3929 137.195C65.8112 137.335 65.9507 137.756 66.2296 138.176C65.9507 138.036 65.6718 138.036 65.2534 137.896C62.6038 137.335 60.0936 136.494 57.3046 135.653C54.655 134.953 51.8659 134.112 49.2163 133.691C46.0088 133.551 42.9409 132.15 39.8729 131.589C37.2233 131.169 34.5737 131.169 31.9241 130.748C29.2744 130.328 26.2065 129.487 23.5569 129.207C19.5127 129.347 18.676 131.449 22.3018 132.43Z" fill="#265A61"/>
<path d="M226.88 141.119C226.88 141.119 219.907 172.652 228.274 196.056C228.274 196.056 202.057 199.981 188.67 240.483C188.67 240.483 160.082 237.54 123.266 262.766C123.266 262.766 136.654 223.525 134.283 203.484C134.283 203.484 170.68 192.132 175.422 159.899C175.422 159.759 206.38 160.039 226.88 141.119Z" fill="#2D6C73"/>
<path d="M225.346 141.82C223.672 145.043 221.999 148.407 219.907 151.35C219.21 152.191 218.373 153.592 217.676 154.994C216.839 156.395 216.142 157.797 215.584 158.778C214.329 161.44 211.958 163.683 210.982 166.065C210.703 166.626 210.424 167.326 210.006 168.027C209.727 168.448 209.309 169.008 209.03 169.429C208.89 169.288 208.89 169.289 208.751 169.148C207.496 168.728 206.101 169.288 204.707 168.868C204.149 168.728 203.452 169.008 202.894 168.868C202.336 168.868 201.499 168.588 200.942 168.728C199.547 168.868 198.292 168.448 196.897 168.448L194.945 168.307C194.387 168.307 193.69 168.588 193.132 168.588C192.435 168.588 191.598 168.448 191.04 168.307C190.343 168.167 189.785 168.448 189.088 168.307C187.972 168.027 186.578 167.887 185.323 168.167C183.928 168.307 182.534 167.887 181.279 167.887L177.513 167.747C176.258 167.747 174.585 167.326 173.33 167.607H173.19L173.051 169.288C173.888 169.288 174.585 169.148 175.422 169.429C175.84 169.569 176.816 169.569 177.235 169.429C177.932 169.288 178.49 169.849 179.047 169.569C179.605 169.288 180.442 169.849 181.139 169.849C181.697 169.849 182.394 169.709 182.952 169.849C184.207 169.849 185.602 170.41 186.857 169.989C187.275 169.989 187.554 170.41 187.972 169.989C188.251 169.849 188.53 169.989 188.949 169.989L190.761 170.129C191.877 170.129 193.132 170.27 194.387 170.41C195.782 170.41 197.037 170.69 198.431 170.55C199.687 170.41 200.942 171.11 202.197 170.83C202.894 170.69 203.591 170.97 204.288 170.97C204.846 170.97 205.544 170.69 206.101 170.69C206.52 170.69 207.078 170.83 207.496 170.97C206.52 172.091 205.683 173.213 204.986 174.334C204.149 175.595 203.452 176.716 202.615 177.978C201.778 179.239 200.942 180.36 200.105 181.481C199.129 182.743 198.292 183.864 197.316 185.125C196.34 186.386 195.363 187.648 194.387 188.769C194.248 188.909 194.108 189.049 193.969 189.329C192.993 188.909 191.877 189.189 190.901 188.629C190.483 188.348 189.785 188.629 189.367 188.348C188.809 188.208 188.251 187.928 187.833 187.928C186.578 187.788 185.602 187.367 184.486 187.087L182.952 186.807C182.394 186.667 181.836 186.947 181.279 186.807C180.721 186.667 180.024 186.526 179.466 186.246C178.908 185.966 178.35 186.246 177.792 185.966C176.816 185.545 175.701 185.265 174.724 185.265C173.609 185.265 172.493 184.705 171.377 184.424L168.17 183.724C167.054 183.443 165.799 182.883 164.684 183.023H164.544L164.126 184.705C164.823 184.705 165.52 184.845 166.078 185.125C166.497 185.405 167.194 185.405 167.612 185.405C168.17 185.265 168.588 185.966 169.146 185.686C169.704 185.405 170.262 186.106 170.82 186.246C171.377 186.386 171.935 186.246 172.354 186.386C173.469 186.667 174.445 187.227 175.701 187.087C176.119 187.087 176.258 187.508 176.677 187.227C176.956 187.087 177.235 187.227 177.513 187.367L179.047 187.648C180.024 187.788 181 188.208 182.115 188.348C183.231 188.629 184.347 188.909 185.462 189.049C186.438 189.049 187.415 189.89 188.53 189.75C189.228 189.61 189.646 190.03 190.343 190.17C190.901 190.31 191.459 190.03 192.017 190.17C192.156 190.17 192.435 190.31 192.574 190.31C191.04 191.992 189.646 193.814 188.53 195.636C187.275 197.178 185.741 198.018 184.765 199.7C183.928 200.962 182.952 201.943 181.976 202.924L175.84 209.09C175.561 209.37 175.282 209.651 174.864 209.931C174.724 209.791 174.585 209.651 174.306 209.51C172.772 209.37 171.238 210.211 169.704 209.931C169.007 209.791 168.31 210.211 167.612 210.211C166.915 210.351 166.078 210.211 165.381 210.351C163.847 210.632 162.313 210.632 160.779 210.772L158.548 211.052C157.85 211.192 157.153 211.473 156.456 211.613C155.759 211.753 154.783 211.753 153.946 211.753C153.109 211.613 152.551 212.173 151.715 212.033C150.32 211.893 148.786 212.033 147.531 212.454C145.997 212.874 144.463 212.734 142.929 212.874L138.606 213.294C137.072 213.435 135.259 213.294 133.865 213.715H133.725L134.004 215.397C134.841 215.256 135.817 214.976 136.654 215.116C137.211 215.256 138.188 214.976 138.745 214.836C139.443 214.556 140.279 214.976 140.837 214.556C141.395 214.135 142.511 214.556 143.208 214.416C143.905 214.275 144.602 214.135 145.3 213.995C146.834 213.855 148.368 214.135 149.762 213.575C150.181 213.435 150.738 213.855 151.157 213.435C151.436 213.294 151.854 213.294 152.272 213.294L154.364 213.014C155.759 212.874 157.153 212.734 158.548 212.594C160.082 212.454 161.616 212.313 163.15 212.173C164.544 211.893 166.078 212.313 167.333 211.753C168.17 211.473 169.007 211.613 169.843 211.613C170.541 211.473 171.238 211.192 171.935 211.052C172.354 211.052 172.772 211.052 173.33 211.052C172.075 212.173 170.82 213.435 169.425 214.696C167.333 216.658 165.102 218.62 162.871 220.582C159.803 223.385 156.595 226.048 153.527 228.991C152.691 229.131 152.133 229.832 151.157 229.692C150.738 229.692 150.32 230.112 149.902 230.112C149.483 230.252 148.925 230.252 148.507 230.392C147.67 230.813 146.694 230.813 145.718 231.093L144.463 231.513C144.045 231.654 143.766 232.074 143.347 232.214C142.929 232.354 142.232 232.494 141.813 232.494C141.256 232.494 140.977 233.055 140.558 232.915C139.722 232.915 138.745 233.055 138.048 233.616C137.211 234.176 136.096 234.036 135.259 234.316L132.609 235.017C131.773 235.297 130.518 235.297 129.82 235.858H129.681L130.239 237.54C130.797 237.259 131.215 236.979 131.912 237.119C132.331 237.119 132.888 236.979 133.167 236.699C133.586 236.278 134.143 236.699 134.422 236.278C134.701 235.858 135.538 236.138 135.956 235.998C136.375 235.858 136.793 235.578 137.211 235.438C138.048 235.157 139.164 235.297 140 234.597C140.279 234.457 140.698 234.737 140.837 234.316C140.977 234.036 141.256 234.176 141.395 234.036L142.65 233.616C143.487 233.335 144.324 233.195 145.16 232.915C146.136 232.635 146.973 232.494 147.949 232.074C148.647 231.654 149.762 231.934 150.599 231.373C150.738 231.373 150.738 231.233 150.878 231.233C150.32 231.794 149.623 232.354 149.065 233.055C147.113 235.157 144.881 236.979 142.65 239.081C140.558 241.184 138.327 243.146 136.514 245.528C134.562 248.331 131.773 250.433 129.541 253.096C127.729 255.338 126.195 257.861 124.382 260.103C122.569 262.346 120.338 265.008 118.664 267.391C116.712 270.474 117.688 272.156 120.477 269.073C122.569 266.69 124.242 264.168 126.195 261.505C128.147 258.982 130.099 256.6 132.191 254.357C134.283 252.255 135.817 249.873 137.909 247.77C138.885 246.649 140 245.528 141.116 244.547C142.232 243.426 143.347 242.445 144.184 241.464C148.647 236.699 153.388 232.775 158.129 228.57L164.823 222.544C165.66 221.703 166.497 221.002 167.333 220.162C167.054 220.582 167.333 221.002 167.194 221.423C167.194 221.843 166.915 222.404 166.915 222.684C166.915 223.665 166.636 224.506 166.497 225.487L166.357 226.748C166.357 227.169 166.636 227.589 166.497 228.15C166.497 228.57 166.218 229.131 166.078 229.692C165.799 230.112 166.218 230.673 165.939 231.093C165.52 231.934 165.381 232.775 165.52 233.616C165.66 234.597 165.242 235.578 165.102 236.419L164.684 239.081C164.544 239.922 164.126 241.043 164.265 242.024V242.165L166.078 242.445C166.078 241.884 166.078 241.324 166.357 240.763C166.636 240.483 166.636 239.782 166.497 239.502C166.357 239.081 166.915 238.661 166.636 238.24C166.357 237.82 166.915 237.259 167.054 236.839C167.054 236.419 167.054 235.998 167.054 235.578C167.194 234.737 167.752 233.756 167.473 232.775C167.473 232.494 167.891 232.214 167.612 231.934C167.473 231.654 167.612 231.513 167.612 231.233L167.752 229.972C167.891 229.131 168.031 228.29 168.17 227.449C168.31 226.468 168.449 225.627 168.588 224.646C168.588 223.805 169.286 222.965 169.007 222.124C168.867 221.563 169.286 221.143 169.286 220.582C169.286 220.162 169.007 219.741 169.146 219.181C169.146 218.76 169.425 218.34 169.425 217.919C169.983 217.359 170.401 216.938 170.959 216.378C173.19 214.135 176.258 211.613 178.49 209.37C179.466 208.529 180.442 207.548 181.279 206.567C181.279 206.988 181.139 207.548 180.86 207.969C180.581 208.529 180.86 209.23 180.581 209.931C180.442 210.492 180.163 211.332 180.163 211.893C180.024 213.294 179.605 214.556 179.326 215.957L178.908 217.919C178.769 218.62 179.047 219.181 178.908 219.881C178.769 220.582 178.49 221.423 178.35 222.124C178.071 222.824 178.35 223.525 178.071 224.086C177.653 225.207 177.235 226.608 177.374 227.87C177.374 229.271 176.816 230.673 176.537 232.074L175.84 235.858C175.561 237.119 175.003 238.801 175.143 240.062V240.203L176.956 240.483C176.956 239.642 177.095 238.801 177.374 238.1C177.653 237.68 177.653 236.699 177.653 236.138C177.513 235.438 178.211 234.877 177.932 234.316C177.653 233.616 178.35 232.915 178.49 232.214C178.629 231.654 178.49 230.953 178.629 230.252C178.908 228.991 179.605 227.589 179.326 226.188C179.326 225.767 179.745 225.487 179.605 224.927C179.466 224.646 179.605 224.226 179.745 223.946L180.024 221.984C180.302 220.722 180.581 219.461 180.721 218.2C181 216.798 181.279 215.537 181.418 214.135C181.418 212.874 182.255 211.753 182.115 210.351C181.976 209.51 182.394 208.95 182.534 208.109C182.673 207.548 182.394 206.848 182.534 206.147C182.673 205.586 183.092 204.886 183.092 204.185C183.092 204.185 183.092 204.185 183.092 204.045C183.51 203.624 183.928 203.204 184.347 202.783C186.299 200.821 188.53 198.719 190.483 196.477C192.435 194.235 194.248 191.852 195.782 189.61C196.758 188.348 197.595 187.087 198.571 185.826C198.71 186.246 198.989 186.667 198.85 187.227C198.85 187.648 199.268 188.068 199.268 188.489C199.408 188.909 199.408 189.47 199.547 189.75C199.965 190.731 199.965 191.572 200.244 192.553L200.523 193.814C200.663 194.235 201.081 194.655 201.22 195.075C201.36 195.496 201.36 196.056 201.499 196.617C201.499 197.178 201.918 197.458 201.918 197.878C201.918 198.719 202.057 199.7 202.615 200.401C203.033 201.242 203.033 202.363 203.312 203.204L204.01 205.727C204.288 206.567 204.149 207.829 204.707 208.529V208.67L206.52 208.249C206.241 207.689 205.962 207.268 206.101 206.567C206.241 206.147 205.962 205.586 205.683 205.306C205.265 204.886 205.822 204.325 205.404 204.045C204.986 203.764 205.265 203.064 205.125 202.503C204.986 202.083 204.707 201.662 204.567 201.242C204.288 200.401 204.428 199.28 203.87 198.579C203.731 198.299 204.01 198.018 203.591 197.738C203.312 197.598 203.452 197.318 203.312 197.178L203.033 195.916C202.754 195.075 202.615 194.235 202.476 193.394C202.197 192.413 202.057 191.572 201.778 190.591C201.36 189.75 201.778 188.769 201.22 188.068C200.802 187.648 201.081 187.087 200.942 186.527C200.802 186.106 200.384 185.686 200.244 185.265C200.105 184.845 200.244 184.284 200.105 183.864C200.663 183.163 201.22 182.462 201.778 181.762C202.754 180.5 203.87 179.239 204.707 177.978C205.683 176.716 206.52 175.315 207.496 174.053C207.496 174.053 208.054 173.072 209.03 171.811C209.448 171.11 210.006 170.27 210.703 169.429C210.982 169.008 211.261 168.588 211.54 168.167C211.679 167.887 211.958 167.467 212.098 167.186C212.098 167.607 212.098 168.027 212.098 168.448C211.958 169.148 212.377 169.709 212.377 170.27C212.377 170.83 212.377 171.671 212.516 172.232C212.795 173.633 212.656 174.894 212.795 176.296L212.935 178.258C212.935 178.818 213.353 179.519 213.492 180.08C213.492 180.78 213.492 181.621 213.492 182.322C213.353 183.023 213.911 183.583 213.771 184.284C213.632 185.545 213.632 186.807 214.05 188.068C214.469 189.47 214.19 190.871 214.329 192.132L214.608 195.916C214.747 197.178 214.469 198.859 215.026 200.121V200.261L216.839 200.121C216.7 199.28 216.56 198.579 216.7 197.738C216.839 197.318 216.7 196.337 216.421 195.916C216.142 195.356 216.7 194.655 216.281 194.094C215.863 193.534 216.281 192.693 216.281 191.992C216.281 191.432 216.003 190.731 216.003 190.17C215.863 188.909 216.142 187.508 215.724 186.106C215.584 185.686 216.003 185.265 215.584 184.845C215.445 184.564 215.445 184.284 215.445 183.864L215.305 182.042C215.166 180.78 215.166 179.659 215.026 178.398C214.887 176.997 214.887 175.735 214.747 174.334C214.469 173.213 215.026 171.811 214.469 170.55C214.19 169.849 214.469 169.148 214.329 168.307C214.329 167.747 213.911 167.046 213.771 166.486C213.771 165.925 213.771 165.364 213.771 164.804C215.584 161.861 217.118 159.338 217.118 159.338C217.955 158.077 218.792 156.675 219.628 155.274C220.465 153.872 221.302 152.471 222.138 150.929C223.812 147.986 225.485 145.183 226.74 142.521C226.88 142.38 226.88 142.1 227.019 141.96L225.346 141.82Z" fill="#265A61"/>
<path d="M212.237 154.012C216.281 145.884 220.465 137.896 224.23 130.188C229.808 118.836 234.55 108.044 238.036 98.3743C241.523 88.8444 243.475 80.5758 244.591 74.6896C244.869 73.2881 245.009 71.8867 245.288 70.7655C245.427 69.6443 245.567 68.6633 245.567 67.8224C245.706 66.2808 245.846 65.44 245.846 65.44L244.033 65.2998C244.033 65.2998 244.033 65.7202 243.893 66.7013C243.754 67.6823 243.614 69.2239 243.196 71.1859C242.499 75.2502 241.244 81.5568 238.455 89.9656C237.199 94.1699 235.387 98.9349 233.155 104.26C230.924 109.586 228.414 115.332 225.346 121.779C220.883 131.169 215.445 141.68 209.448 153.592L212.237 154.012Z" fill="#B3C8D3"/>
<path d="M191.18 151.77C194.527 148.687 198.013 145.744 201.499 142.941C204.707 140.278 207.775 137.615 210.703 135.093C213.632 132.57 216.281 130.048 218.652 127.665C223.394 122.9 227.019 118.556 229.39 115.472C230.645 113.931 231.482 112.669 232.179 111.829C232.737 110.988 233.155 110.567 233.155 110.567L231.621 109.586C231.621 109.586 230.785 110.567 229.111 112.81C228.274 113.931 227.159 115.192 225.764 116.874C225.067 117.715 224.23 118.556 223.394 119.537C222.557 120.518 221.581 121.499 220.604 122.48C216.56 126.684 210.982 131.729 203.731 137.756C200.105 140.699 196.061 143.922 191.738 147.706C190.343 148.967 188.809 150.229 187.415 151.49L191.18 151.77Z" fill="#B3C8D3"/>
<path d="M137.49 132.29C137.49 132.29 136.514 118.555 146.973 96.132C155.34 78.3334 170.959 64.8794 170.959 64.8794C170.959 64.8794 185.881 83.0984 195.084 101.317C204.288 119.677 205.683 133.551 205.683 133.551C172.075 147.846 137.49 132.29 137.49 132.29Z" fill="#FF606F"/>
<path d="M203.452 135.093C203.452 135.093 211.819 131.589 240.546 130.748C269.274 129.767 289.076 134.532 289.076 134.532C289.076 134.532 284.753 152.751 268.158 173.493C252.539 192.833 235.805 195.355 235.805 195.355C235.805 195.355 207.914 164.804 203.452 135.093Z" fill="#FF606F"/>
<path d="M170.122 71.8867C170.122 71.8867 160.779 117.154 205.683 133.551C205.683 133.551 206.38 114.211 170.122 71.8867Z" fill="#C24751"/>
<path d="M204.567 134.392C204.567 134.392 240.825 168.167 280.012 138.596C279.872 138.596 240.686 125.983 204.567 134.392Z" fill="#C24751"/>
<path d="M201.22 134.672C170.959 131.869 155.619 103.56 155.619 103.56L201.22 134.672Z" fill="#C24751"/>
<path d="M200.244 136.354C175.7 139.437 154.503 125.002 154.503 125.002L200.244 136.354Z" fill="#C24751"/>
<path d="M206.52 139.017C206.52 139.017 223.812 161.16 251.981 163.823L206.52 139.017Z" fill="#C24751"/>
<path d="M205.404 140.979C205.404 140.979 213.771 159.058 230.227 169.709L205.404 140.979Z" fill="#C24751"/>
<path d="M149.623 143.922C149.623 143.922 150.459 144.202 151.993 144.623C153.527 145.043 155.619 145.604 158.129 146.304C160.64 147.005 163.707 147.566 166.915 148.126C170.122 148.687 173.469 149.107 176.816 149.248C178.49 149.248 180.163 149.248 181.836 149.107C183.51 148.967 185.044 148.687 186.578 148.407C188.112 148.126 189.506 147.566 190.901 147.005C192.295 146.445 193.55 145.744 194.527 145.043C195.084 144.763 195.642 144.342 196.061 143.922C196.479 143.502 197.037 143.221 197.455 142.801C197.874 142.38 198.292 142.1 198.571 141.68C198.85 141.399 199.268 140.979 199.547 140.699C200.105 140.138 200.523 139.577 200.802 139.297C201.081 139.017 201.22 138.737 201.22 138.737C201.22 138.737 201.081 139.017 200.942 139.437C200.802 139.858 200.663 140.418 200.244 141.259C200.105 141.68 199.965 142.1 199.686 142.521C199.408 142.941 199.268 143.502 198.989 144.062C198.71 144.623 198.431 145.183 198.013 145.744C197.595 146.304 197.316 146.865 196.758 147.566C195.921 148.687 194.806 149.948 193.551 151.21C192.295 152.471 190.901 153.592 189.227 154.713C187.693 155.834 185.881 156.815 184.068 157.796C182.255 158.637 180.302 159.478 178.49 160.179C174.585 161.58 170.68 162.561 167.054 163.262C163.429 163.963 159.942 164.523 157.014 164.944C154.085 165.364 151.715 165.505 149.902 165.785C148.786 165.785 147.81 165.785 147.81 165.785L154.643 155.274L149.623 143.922Z" fill="#FF606F"/>
<path d="M172.911 171.531C172.911 171.531 173.19 171.531 173.609 171.531C173.888 171.531 174.027 171.531 174.445 171.531C174.724 171.531 175.143 171.531 175.422 171.531C175.979 171.531 176.537 171.531 177.374 171.391C177.653 171.391 177.792 171.391 178.071 171.391C178.35 171.391 178.49 171.391 178.768 171.251C179.187 171.251 179.745 171.11 180.163 170.97C180.442 170.97 180.721 170.83 181 170.83C181.279 170.83 181.557 170.69 181.836 170.69C182.394 170.55 182.952 170.41 183.51 170.269C184.625 169.849 185.741 169.429 186.996 168.868C188.112 168.307 189.367 167.607 190.343 166.766C191.459 165.925 192.574 164.944 193.55 163.823C194.527 162.702 195.363 161.58 196.2 160.179C197.037 158.918 197.595 157.516 198.152 156.115C198.71 154.713 198.989 153.172 199.408 151.77C199.686 150.369 199.826 148.967 199.965 147.706C199.965 147.005 200.105 146.445 200.105 145.884C200.105 145.323 200.105 144.763 200.105 144.202C200.105 143.081 200.105 142.24 199.965 141.399C199.965 140.558 199.826 139.998 199.826 139.577C199.826 139.157 199.826 138.877 199.826 138.877C199.826 138.877 199.965 139.017 200.105 139.437C200.244 139.858 200.663 140.418 200.942 141.119C201.22 141.82 201.639 142.661 202.057 143.782C202.336 144.342 202.476 144.903 202.754 145.464C203.033 146.024 203.173 146.725 203.452 147.426C203.87 148.827 204.288 150.229 204.567 151.91C204.846 153.592 205.125 155.274 205.125 157.236C205.125 159.058 205.125 161.02 204.846 163.122C204.567 165.084 204.009 167.186 203.312 169.288C202.615 171.391 201.639 173.353 200.523 175.175C199.408 177.137 198.152 178.818 196.758 180.36C195.363 182.042 193.969 183.443 192.435 184.705C191.738 185.265 191.04 185.966 190.204 186.526C189.785 186.807 189.506 187.087 189.088 187.367C188.67 187.648 188.391 187.788 187.972 188.068C187.275 188.489 186.578 188.909 185.881 189.329C185.602 189.47 185.183 189.75 184.904 189.89C184.625 190.03 184.347 190.17 183.928 190.451C182.813 191.151 181.557 191.572 180.581 192.132C179.047 192.833 178.211 193.253 178.211 193.253L184.068 180.5L172.911 171.531Z" fill="#FF606F"/>
<path d="M193.969 151.069C195.224 149.808 196.34 148.547 197.176 147.426C197.595 146.865 198.013 146.164 198.431 145.604C198.71 145.043 199.129 144.483 199.408 143.922C199.687 143.361 199.965 142.941 200.105 142.38C200.384 141.96 200.523 141.54 200.663 141.119C200.942 140.418 201.221 139.718 201.36 139.297C201.499 138.877 201.639 138.596 201.639 138.596C201.639 138.596 201.499 138.737 201.22 139.157C200.942 139.437 200.523 139.998 199.965 140.558C199.687 140.839 199.408 141.119 198.989 141.54C198.71 141.82 198.292 142.24 197.874 142.661C197.455 142.941 197.037 143.361 196.479 143.782C195.921 144.062 195.503 144.483 194.945 144.903C193.829 145.604 192.574 146.304 191.319 146.865C189.925 147.426 188.53 147.986 186.996 148.267C186.578 148.407 186.299 148.407 185.881 148.547C186.438 151.069 187.554 153.312 189.088 155.134C189.367 154.994 189.646 154.713 189.925 154.573C191.319 153.452 192.714 152.191 193.969 151.069Z" fill="#C24751"/>
<path d="M204.149 164.523C204.288 163.963 204.288 163.542 204.428 162.982C204.707 161.02 204.846 158.918 204.707 157.096C204.707 155.274 204.428 153.452 204.149 151.77C203.87 150.088 203.452 148.687 203.033 147.285C202.894 146.585 202.615 146.024 202.336 145.323C202.057 144.763 201.918 144.202 201.639 143.642C201.22 142.661 200.802 141.68 200.523 140.979C200.244 140.278 199.826 139.718 199.686 139.297C199.547 138.877 199.407 138.737 199.407 138.737C199.407 138.737 199.407 139.017 199.407 139.437C199.407 139.858 199.547 140.418 199.547 141.259C199.547 142.1 199.686 142.941 199.686 144.062C199.686 144.623 199.686 145.183 199.686 145.744C199.686 146.304 199.686 147.005 199.547 147.566C199.407 148.827 199.268 150.229 198.989 151.63C198.71 153.031 198.292 154.573 197.734 155.975C197.176 157.376 196.618 158.777 195.782 160.039C195.642 160.179 195.503 160.459 195.363 160.599C198.152 162.561 201.22 163.683 204.149 164.523Z" fill="#C24751"/>
<path d="M211.4 129.627C207.077 121.639 190.622 133.271 197.316 142.801C204.149 152.471 215.444 137.055 211.4 129.627Z" fill="#C24751"/>
<path d="M206.241 128.085C205.125 127.104 197.594 131.589 197.594 136.915C197.594 142.24 206.101 141.119 208.053 136.915C210.145 132.71 202.754 136.214 202.615 135.513C202.615 134.672 207.914 129.627 206.241 128.085Z" fill="#FF606F"/>
<path d="M34.2783 49.5728C35.3525 35.8944 38.4141 28.9836 43.4629 28.8403C49.8366 29.091 52.8623 38.0428 52.54 55.6958C52.0745 67.369 49.4069 73.4741 44.5371 74.0112C37.1966 74.4051 33.777 66.259 34.2783 49.5728ZM52.9697 79.9731C52.6475 88.7101 51.7344 94.869 50.2305 98.4497C47.3659 104.931 41.3682 104.483 32.2373 97.1069C28.4775 93.9201 26.2396 89.6948 25.5234 84.4312L18.165 85.8276L17.6279 112.2L23.2676 111.501L25.9531 102.8C47.7598 115.011 61.2591 114.08 66.4512 100.007C68.4922 93.4188 69.4769 80.367 69.4053 60.8521H69.2979C69.9782 34.5695 62.208 21.4819 45.9873 21.5894C28.2985 21.661 19.0244 29.8429 18.165 46.1353C17.1982 69.0161 25.6309 80.6177 43.4629 80.9399C46.972 81.0116 50.141 80.6893 52.9697 79.9731ZM60.543 54.6753C59.9701 58.9722 58.484 62.8573 56.085 66.3306C59.3434 56.591 59.5583 46.923 56.7295 37.3267C59.8805 44.5955 61.1517 50.3784 60.543 54.6753ZM60.167 35.7153C64.5355 42.1965 65.4128 48.8208 62.7988 55.5884C63.9089 47.1021 61.7783 38.9917 56.4072 31.2573L60.167 35.7153Z" fill="#FFFEFA"/>
<g clip-path="url(#clip0)">
<path d="M89 37.4794C89 38.2794 93.4 38.8794 99.1 38.9794C99.2 45.6794 99.8 50.8794 100.6 50.8794C101.4 50.8794 102 45.6794 102.1 38.9794C107.4 38.8794 111.5 38.2794 111.5 37.4794C111.5 36.6794 107.4 36.0794 102.1 35.9794C102.1 28.6794 101.4 22.8794 100.6 22.8794C99.8 22.8794 99.1 28.6794 99.1 35.9794C93.4 35.9794 89 36.6794 89 37.4794Z" fill="#72BAD1"/>
</g>
<g clip-path="url(#clip1)">
<path d="M255 253.479C255 254.279 259.4 254.879 265.1 254.979C265.2 261.679 265.8 266.879 266.6 266.879C267.4 266.879 268 261.679 268.1 254.979C273.4 254.879 277.5 254.279 277.5 253.479C277.5 252.679 273.4 252.079 268.1 251.979C268.1 244.679 267.4 238.879 266.6 238.879C265.8 238.879 265.1 244.679 265.1 251.979C259.4 251.979 255 252.679 255 253.479Z" fill="#72BAD1"/>
</g>
<g clip-path="url(#clip2)">
<path d="M102 71.2151C102 72.3294 108.062 73.1651 115.916 73.3044C116.053 82.6365 116.88 89.8794 117.982 89.8794C119.084 89.8794 119.911 82.6365 120.049 73.3044C127.351 73.1651 133 72.3294 133 71.2151C133 70.1008 127.351 69.2651 120.049 69.1258C120.049 58.958 119.084 50.8794 117.982 50.8794C116.88 50.8794 115.916 58.958 115.916 69.1258C108.062 69.1258 102 70.1008 102 71.2151Z" fill="#72BAD1"/>
</g>
<g clip-path="url(#clip3)">
<path d="M193 45.908C193 47.2794 200.627 48.308 210.507 48.4794C210.68 59.9651 211.72 68.8794 213.107 68.8794C214.493 68.8794 215.533 59.9651 215.707 48.4794C224.893 48.308 232 47.2794 232 45.908C232 44.5365 224.893 43.508 215.707 43.3365C215.707 30.8223 214.493 20.8794 213.107 20.8794C211.72 20.8794 210.507 30.8223 210.507 43.3365C200.627 43.3365 193 44.5365 193 45.908Z" fill="#72BAD1"/>
</g>
<defs>
<clipPath id="clip0">
<rect width="22.5" height="28" fill="white" transform="translate(89 22.8794)"/>
</clipPath>
<clipPath id="clip1">
<rect width="22.5" height="28" fill="white" transform="translate(255 238.879)"/>
</clipPath>
<clipPath id="clip2">
<rect width="31" height="39" fill="white" transform="translate(102 50.8794)"/>
</clipPath>
<clipPath id="clip3">
<rect width="39" height="48" fill="white" transform="translate(193 20.8794)"/>
</clipPath>
</defs>
</svg>
