<svg width="298" height="300" viewBox="0 0 298 300" fill="none" xmlns="http://www.w3.org/2000/svg">
<path d="M4 284.926V18.7717L289.071 10.9882L293.928 288.331L4 284.926Z" fill="#FFFCF2" stroke="#C7C5BB" stroke-width="8"/>
<rect x="210" y="1.87939" width="86" height="129" fill="#2D3962"/>
<path d="M274.684 111.985L274.952 107.688L263.673 105.056L265.929 20.1392L241.544 32.6538V35.4468L250.46 36.1987L252.394 104.143L241.383 108.44V111.609L274.684 111.985ZM257.604 94.3677C257.066 87.7791 257.12 83.3211 257.765 80.9937C258.302 85.7918 258.248 90.2498 257.604 94.3677ZM260.504 87.5464L260.128 86.4185C259.627 72.203 259.501 61.5682 259.752 54.5142C260.468 58.2381 260.862 64.576 260.934 73.5278V81.3159L260.504 87.5464ZM256.207 62.356V54.5679C256.279 45.616 256.673 39.2782 257.389 35.5542C257.639 42.6082 257.514 53.243 257.013 67.4585L256.637 68.5864L256.207 62.356Z" fill="white"/>
<g clip-path="url(#clip0)">
<path d="M123.085 73.611C123.085 73.611 123.232 72.2852 123.674 69.6336C123.969 66.8347 124.558 62.7101 125 56.965C125.295 51.2199 125.589 43.8544 124.705 35.0157C124.411 32.8061 124.116 30.4491 123.527 28.0922C122.937 25.7352 122.348 23.3782 121.317 21.0213C120.286 18.6643 119.107 16.3074 117.339 14.3923C115.718 12.4773 113.509 11.2988 111.299 11.5934C109.089 11.888 107.173 13.6558 105.7 15.7181C104.227 17.7805 103.343 20.2847 102.754 22.6417C101.575 27.5029 101.428 32.2169 101.722 36.4888C102.017 40.7608 102.754 44.5909 103.49 47.979C104.227 51.3672 105.111 54.3134 105.995 56.8177C107.763 61.8262 109.236 65.3616 110.267 67.5713C111.299 69.7809 111.741 70.8121 111.741 70.8121L109.678 71.8433C109.678 71.8433 109.089 71.1067 107.91 69.0444C106.731 66.9821 104.964 63.8885 102.901 59.0273C100.986 54.1661 98.4812 47.5371 97.4499 38.4039C97.1552 36.1942 97.0079 33.69 97.1552 31.1857C97.1552 28.6814 97.4499 25.8825 98.0392 23.0836C98.6285 20.2847 99.5124 17.1912 101.133 14.3923C102.017 12.9192 103.048 11.4461 104.374 10.2676C105.7 8.94184 107.468 7.76336 109.531 7.32143C111.593 6.73219 113.803 7.02681 115.718 7.61605C117.634 8.3526 119.107 9.53108 120.433 10.7096C122.937 13.2138 124.411 16.16 125.589 18.8116C126.768 21.6105 127.505 24.2621 128.094 26.9137C128.683 29.5653 128.978 32.0695 129.273 34.4265C130.304 44.0017 129.715 51.5145 129.273 57.4069C128.683 63.2993 128.094 67.424 127.652 70.2229C127.21 72.8745 126.915 74.2003 126.915 74.2003L123.085 73.611Z" fill="#2D3962"/>
<path d="M128.831 72.7273C128.831 72.7273 129.862 71.9907 131.924 70.6649C133.987 69.1918 137.228 66.9822 141.501 63.7414C145.626 60.5005 151.077 56.2285 156.675 50.1888C158.001 48.7157 159.475 47.0953 160.801 45.3276C162.127 43.5599 163.453 41.6448 164.336 39.5825C164.778 38.5513 165.22 37.5201 165.368 36.489C165.515 35.4578 165.662 34.4266 165.368 33.8374C165.22 33.5428 165.073 33.3955 164.926 33.1008C164.778 32.9535 164.336 32.8062 163.894 32.6589C163.011 32.5116 161.832 32.5116 160.506 32.6589C158.001 33.1008 155.497 34.2793 153.287 35.4578C151.077 36.6363 148.867 37.9621 146.952 39.4352C143.121 42.2341 139.733 45.1803 136.786 47.9792C131.041 53.577 126.915 58.5855 123.969 62.5629C120.875 66.5403 118.96 69.4865 117.634 71.4015C116.308 73.3165 115.718 74.2004 115.718 74.2004L113.803 72.8746C113.803 72.8746 114.245 71.9907 115.129 70.223C116.16 68.308 117.781 65.5091 120.433 61.3844C123.232 57.407 126.915 52.1039 132.661 46.0641C135.608 43.1179 138.849 39.7298 143.121 36.6363C145.184 34.8686 147.541 33.3955 150.046 31.9224C152.55 30.4493 155.35 29.1235 158.738 28.2396C160.359 27.7977 162.127 27.6504 164.042 27.7977C164.926 27.945 165.957 28.2396 166.988 28.6815C167.872 29.2708 168.904 30.0073 169.346 31.0385C169.935 32.0697 170.23 33.1008 170.23 33.9847C170.377 34.8686 170.23 35.7524 170.082 36.6363C169.788 38.2567 169.198 39.7298 168.609 41.0556C167.43 43.7072 165.957 45.7695 164.484 47.8319C163.011 49.7469 161.39 51.5146 159.917 53.135C153.729 59.6167 148.13 63.8887 143.858 67.1295C139.438 70.3703 136.197 72.4327 133.987 73.9058C131.777 75.2316 130.746 75.8208 130.746 75.8208L128.831 72.7273Z" fill="#2D3962"/>
<path d="M49.5685 61.0896L20.103 265.262L180.984 299.879L238 84.8065L49.5685 61.0896Z" fill="#FF606F"/>
<path d="M154.171 74.3477L107.615 103.368L105.995 109.849L170.966 76.41L154.171 74.3477Z" fill="#FFFCF2"/>
<path d="M238 84.8066L89.3468 177.023L85.9583 190.575L234.169 99.5377L238 84.8066Z" fill="#FFFCF2"/>
<path d="M213.691 176.728L71.5201 248.174L70.0469 254.066L209.124 193.669L213.691 176.728Z" fill="#FFFCF2"/>
<path d="M193.802 251.562L110.415 284.707L128.683 288.537L191.297 260.842L193.802 251.562Z" fill="#FFFCF2"/>
<path d="M115.866 70.0755L64.8905 274.837L12 263.494L49.5685 61.0896L115.866 70.0755Z" fill="#C24751"/>
<path d="M89.936 127.379C89.936 127.379 93.1772 125.17 95.8291 124.58C98.481 123.991 102.312 124.875 102.312 124.875C102.312 124.875 99.0703 127.085 96.4184 127.674C93.7665 128.263 89.936 127.379 89.936 127.379Z" fill="#B3C8D3"/>
<path d="M74.614 130.473C74.614 130.473 77.8552 128.263 80.5071 127.674C83.159 127.085 86.9895 127.969 86.9895 127.969C86.9895 127.969 83.7483 130.178 81.0964 130.768C78.4445 131.357 74.614 130.473 74.614 130.473Z" fill="#B3C8D3"/>
<path d="M59.292 133.566C59.292 133.566 62.5332 131.357 65.1851 130.767C67.837 130.178 71.6675 131.062 71.6675 131.062C71.6675 131.062 68.4263 133.272 65.7744 133.861C62.9752 134.45 59.292 133.566 59.292 133.566Z" fill="#B3C8D3"/>
<path d="M43.8228 136.66C43.8228 136.66 47.064 134.45 49.7158 133.861C52.3677 133.272 56.1982 134.156 56.1982 134.156C56.1982 134.156 52.957 136.365 50.3052 136.955C47.6533 137.544 43.8228 136.66 43.8228 136.66Z" fill="#B3C8D3"/>
<path d="M35.1304 138.428C35.1304 138.428 36.4563 136.513 37.6349 136.365C38.8136 136.071 40.7288 137.396 40.7288 137.396C40.7288 137.396 39.4029 139.311 38.2242 139.459C37.0456 139.606 35.1304 138.428 35.1304 138.428Z" fill="#B3C8D3"/>
<path d="M171.408 84.2174C171.408 84.2174 173.618 80.9766 175.975 79.6508C178.332 78.325 182.163 77.8831 182.163 77.8831C182.163 77.8831 179.953 81.1239 177.596 82.4497C175.386 83.7755 171.408 84.2174 171.408 84.2174Z" fill="#FFFCF2"/>
<path d="M158.001 92.1722C158.001 92.1722 160.211 88.9314 162.568 87.6056C164.926 86.2798 168.756 85.8379 168.756 85.8379C168.756 85.8379 166.546 89.0787 164.189 90.4045C161.832 91.7303 158.001 92.1722 158.001 92.1722Z" fill="#FFFCF2"/>
<path d="M144.447 100.127C144.447 100.127 146.657 96.886 149.014 95.5602C151.371 94.2344 155.202 93.7925 155.202 93.7925C155.202 93.7925 152.992 97.0333 150.635 98.3591C148.278 99.6849 144.447 100.127 144.447 100.127Z" fill="#FFFCF2"/>
<path d="M130.893 108.082C130.893 108.082 133.103 104.841 135.46 103.515C137.817 102.189 141.648 101.747 141.648 101.747C141.648 101.747 139.438 104.988 137.081 106.314C134.724 107.64 130.893 108.082 130.893 108.082Z" fill="#FFFCF2"/>
<path d="M117.339 116.036C117.339 116.036 119.549 112.796 121.906 111.47C124.263 110.144 128.094 109.702 128.094 109.702C128.094 109.702 125.884 112.943 123.527 114.269C121.317 115.595 117.339 116.036 117.339 116.036Z" fill="#FFFCF2"/>
<path d="M103.932 123.991C103.932 123.991 106.142 120.75 108.499 119.424C110.857 118.099 114.687 117.657 114.687 117.657C114.687 117.657 112.477 120.898 110.12 122.223C107.763 123.549 103.932 123.991 103.932 123.991Z" fill="#FFFCF2"/>
<path d="M71.0781 200.298C71.0781 200.298 74.614 198.53 77.2659 198.53C79.9178 198.383 83.6009 199.856 83.6009 199.856C83.6009 199.856 80.0651 201.624 77.4132 201.624C74.614 201.771 71.0781 200.298 71.0781 200.298Z" fill="#B3C8D3"/>
<path d="M55.3142 200.887C55.3142 200.887 58.8501 199.119 61.502 199.119C64.1538 198.972 67.837 200.445 67.837 200.445C67.837 200.445 64.3012 202.213 61.6493 202.213C58.9974 202.36 55.3142 200.887 55.3142 200.887Z" fill="#B3C8D3"/>
<path d="M39.6975 201.476C39.6975 201.476 43.2334 199.709 45.8853 199.709C48.5371 199.561 52.2203 201.034 52.2203 201.034C52.2203 201.034 48.6845 202.802 46.0326 202.802C43.3807 202.949 39.6975 201.476 39.6975 201.476Z" fill="#B3C8D3"/>
<path d="M24.0808 202.065C24.0808 202.065 27.6167 200.298 30.2686 200.298C32.9204 200.15 36.6036 201.623 36.6036 201.623C36.6036 201.623 33.0678 203.391 30.4159 203.391C27.6167 203.539 24.0808 202.065 24.0808 202.065Z" fill="#B3C8D3"/>
<path d="M219.731 121.781C219.731 121.781 222.089 118.688 224.446 117.215C226.803 115.889 230.634 115.447 230.634 115.447C230.634 115.447 228.276 118.541 225.919 119.866C223.709 121.487 219.731 121.781 219.731 121.781Z" fill="#FFFCF2"/>
<path d="M206.177 129.589C206.177 129.589 208.534 126.495 210.892 125.022C213.249 123.696 217.079 123.254 217.079 123.254C217.079 123.254 214.722 126.348 212.365 127.821C210.008 129.294 206.177 129.589 206.177 129.589Z" fill="#FFFCF2"/>
<path d="M192.623 137.396C192.623 137.396 194.98 134.303 197.338 132.83C199.695 131.504 203.525 131.062 203.525 131.062C203.525 131.062 201.168 134.156 198.811 135.629C196.454 137.102 192.623 137.396 192.623 137.396Z" fill="#FFFCF2"/>
<path d="M178.922 145.204C178.922 145.204 181.279 142.11 183.636 140.637C185.993 139.311 189.824 138.869 189.824 138.869C189.824 138.869 187.467 141.963 185.109 143.289C182.899 144.762 178.922 145.204 178.922 145.204Z" fill="#FFFCF2"/>
<path d="M165.368 153.011C165.368 153.011 167.725 149.918 170.082 148.444C172.439 147.119 176.27 146.677 176.27 146.677C176.27 146.677 173.913 149.77 171.555 151.243C169.198 152.569 165.368 153.011 165.368 153.011Z" fill="#FFFCF2"/>
<path d="M151.813 160.818C151.813 160.818 154.171 157.725 156.528 156.252C158.885 154.926 162.716 154.484 162.716 154.484C162.716 154.484 160.358 157.578 158.001 159.051C155.644 160.377 151.813 160.818 151.813 160.818Z" fill="#FFFCF2"/>
<path d="M138.112 168.626C138.112 168.626 140.469 165.533 142.827 164.059C145.184 162.734 149.014 162.292 149.014 162.292C149.014 162.292 146.657 165.385 144.3 166.858C142.09 168.184 138.112 168.626 138.112 168.626Z" fill="#FFFCF2"/>
<path d="M124.558 176.433C124.558 176.433 126.915 173.34 129.272 171.867C131.63 170.541 135.46 170.099 135.46 170.099C135.46 170.099 133.103 173.193 130.746 174.666C128.388 175.992 124.558 176.433 124.558 176.433Z" fill="#FFFCF2"/>
<path d="M111.004 184.241C111.004 184.241 113.361 181.147 115.718 179.674C118.076 178.348 121.906 177.906 121.906 177.906C121.906 177.906 119.549 181 117.192 182.473C114.834 183.799 111.004 184.241 111.004 184.241Z" fill="#FFFCF2"/>
<path d="M97.3025 192.048C97.3025 192.048 99.6597 188.955 102.017 187.482C104.374 186.156 108.205 185.714 108.205 185.714C108.205 185.714 105.847 188.807 103.49 190.28C101.28 191.606 97.3025 192.048 97.3025 192.048Z" fill="#FFFCF2"/>
<path d="M83.7483 199.856C83.7483 199.856 86.1055 196.762 88.4628 195.289C90.82 193.963 94.6505 193.521 94.6505 193.521C94.6505 193.521 92.2933 196.615 89.936 198.088C87.5788 199.414 83.7483 199.856 83.7483 199.856Z" fill="#FFFCF2"/>
<path d="M152.845 286.327C152.845 286.327 150.193 289.126 147.688 290.304C145.184 291.335 141.353 291.335 141.353 291.335C141.353 291.335 144.005 288.537 146.51 287.358C148.867 286.327 152.845 286.327 152.845 286.327Z" fill="#FFFCF2"/>
<path d="M167.283 280.287C167.283 280.287 164.631 283.086 162.126 284.264C159.622 285.296 155.791 285.296 155.791 285.296C155.791 285.296 158.443 282.497 160.948 281.318C163.305 280.14 167.283 280.287 167.283 280.287Z" fill="#FFFCF2"/>
<path d="M181.721 274.1C181.721 274.1 179.069 276.899 176.565 278.078C174.06 279.109 170.229 279.109 170.229 279.109C170.229 279.109 172.881 276.31 175.386 275.132C177.743 274.1 181.721 274.1 181.721 274.1Z" fill="#FFFCF2"/>
<path d="M188.498 271.154C188.498 271.154 188.056 273.069 187.172 273.511C186.288 273.806 184.52 272.922 184.52 272.922C184.52 272.922 184.962 271.007 185.846 270.565C186.73 270.27 188.498 271.154 188.498 271.154Z" fill="#FFFCF2"/>
<path d="M128.388 239.777C128.388 239.777 131.04 236.978 133.692 235.947C136.197 234.916 140.175 235.063 140.175 235.063C140.175 235.063 137.523 237.862 134.871 238.893C132.219 239.924 128.388 239.777 128.388 239.777Z" fill="#FFFCF2"/>
<path d="M113.803 245.669C113.803 245.669 116.455 242.87 119.107 241.839C121.611 240.808 125.589 240.955 125.589 240.955C125.589 240.955 122.937 243.754 120.285 244.785C117.633 245.817 113.803 245.669 113.803 245.669Z" fill="#FFFCF2"/>
<path d="M99.2178 251.414C99.2178 251.414 101.87 248.615 104.522 247.584C107.026 246.553 111.004 246.7 111.004 246.7C111.004 246.7 108.205 249.499 105.7 250.53C103.196 251.562 99.2178 251.414 99.2178 251.414Z" fill="#FFFCF2"/>
<path d="M84.6323 257.159C84.6323 257.159 87.2842 254.361 89.9361 253.329C92.4407 252.298 96.4185 252.446 96.4185 252.446C96.4185 252.446 93.7666 255.244 91.1147 256.276C88.6102 257.307 84.6323 257.159 84.6323 257.159Z" fill="#FFFCF2"/>
<path d="M70.0469 263.052C70.0469 263.052 72.6988 260.253 75.3507 259.222C77.8552 258.191 81.8331 258.338 81.8331 258.338C81.8331 258.338 79.1812 261.137 76.5293 262.168C74.0247 263.199 70.0469 263.052 70.0469 263.052Z" fill="#FFFCF2"/>
<path d="M193.36 213.85C193.36 213.85 196.012 211.051 198.664 210.02C201.168 208.989 205.146 209.136 205.146 209.136C205.146 209.136 202.494 211.935 199.842 212.966C197.19 213.998 193.36 213.85 193.36 213.85Z" fill="#FFFCF2"/>
<path d="M178.774 219.595C178.774 219.595 181.426 216.797 184.078 215.765C186.583 214.734 190.561 214.882 190.561 214.882C190.561 214.882 187.909 217.68 185.257 218.712C182.752 219.743 178.774 219.595 178.774 219.595Z" fill="#FFFCF2"/>
<path d="M164.189 225.488C164.189 225.488 166.841 222.689 169.493 221.658C171.997 220.627 175.975 220.774 175.975 220.774C175.975 220.774 173.323 223.573 170.671 224.604C168.167 225.635 164.189 225.488 164.189 225.488Z" fill="#FFFCF2"/>
<path d="M149.751 231.233C149.751 231.233 152.403 228.434 155.055 227.403C157.559 226.372 161.537 226.519 161.537 226.519C161.537 226.519 158.885 229.318 156.233 230.349C153.581 231.38 149.751 231.233 149.751 231.233Z" fill="#FFFCF2"/>
<path d="M140.027 235.063C140.027 235.063 141.353 232.853 142.827 232.264C144.3 231.675 146.804 232.411 146.804 232.411C146.804 232.411 145.478 234.621 144.005 235.21C142.532 235.8 140.027 235.063 140.027 235.063Z" fill="#FFFCF2"/>
<path d="M165.81 75.968L112.772 285.148L128.094 288.389L187.025 78.9142L165.81 75.968Z" fill="#2D3962"/>
<path d="M38.2242 121.045L36.4563 131.209L105.995 109.849L107.468 103.073L38.2242 121.045Z" fill="#B3C8D3"/>
<path d="M89.3468 176.728L88.9049 176.876L26.7328 184.388L24.9648 193.669L86.4003 190.281" fill="#B3C8D3"/>
<path d="M71.2256 248.763L12 263.494L22.3129 265.703L70.0469 254.066L71.2256 248.763Z" fill="#B3C8D3"/>
<path d="M33.5098 268.06L74.9087 64.625L83.8957 65.8035L39.1082 269.386L33.5098 268.06Z" fill="#2D3962"/>
</g>
<defs>
<clipPath id="clip0">
<rect width="226" height="293" fill="white" transform="translate(12 6.87939)"/>
</clipPath>
</defs>
</svg>
