<svg width="304" height="301" viewBox="0 0 304 301" fill="none" xmlns="http://www.w3.org/2000/svg">
<path d="M0 86.7723C0 88.2365 8.05357 89.2127 18.3036 89.4568C18.5476 100.927 19.5238 109.957 20.9881 109.957C22.4524 109.957 23.4286 101.171 23.6726 89.4568C33.4345 89.2127 40.756 88.2365 40.756 86.7723C40.756 85.552 33.4345 84.3318 23.6726 84.3318C23.6726 71.8853 22.4524 61.8794 20.9881 61.8794C19.5238 61.8794 18.5476 71.8853 18.3036 84.3318C8.05357 84.3318 0 85.552 0 86.7723Z" fill="#B3C8D3"/>
<path d="M296.03 293.416L5 298.842V28.9131L299.97 33.8457L296.03 293.416Z" fill="#FFFCF2" stroke="#C7C5BB" stroke-width="4"/>
<path d="M169.134 13.8794H302V140.879H165L169.134 13.8794Z" fill="#C4C4C4"/>
<g clip-path="url(#clip0)">
<path d="M177.818 184.219C178.778 189.863 180.587 203.178 186.126 208.821C191.651 214.717 203.206 221.962 207.942 228.323C220.98 245.562 223.24 259.919 223.24 259.919L229.918 258.763C229.918 258.763 221.538 230.853 217.112 223.493C211.769 214.303 199.479 201.934 197.457 183.27L177.818 184.219Z" fill="#4F8BAD"/>
<path d="M229.664 258.748C229.664 258.748 228.38 254.357 226.406 248.657L219.742 249.56C222.196 255.795 222.733 259.89 222.733 259.89L229.664 258.748Z" fill="#2D3962"/>
<path d="M145.667 181.427C143.133 185.861 137.192 196.715 131.868 200.996C126.291 205.262 108.487 214.445 100.712 221.64C89.7274 231.707 73.9573 254.725 73.9573 254.725L68.7157 252.911C68.7157 252.911 86.4988 225.683 92.5117 218.137C98.5385 210.337 119.762 189.908 124.363 175.676L145.667 181.427Z" fill="#4F8BAD"/>
<path d="M68.4622 252.896L73.7038 254.711C73.7038 254.711 76.4776 250.543 80.6033 244.926L74.8405 243.337C70.9684 248.969 68.4622 252.896 68.4622 252.896Z" fill="#2D3962"/>
<path d="M111.286 94.6467L108.607 87.8911C108.607 87.8911 136.527 79.7756 148.719 93.9181C161.644 108.609 155.129 129.851 155.129 129.851L146.452 134.963L111.286 94.6467Z" fill="#2D3962"/>
<path d="M119.51 83.9182C119.51 83.9182 119.412 85.6917 118.906 90.2383C118.401 94.7849 118.317 96.3051 118.317 96.3051L117.81 96.2771C117.81 96.2771 117.372 94.9822 117.878 90.4357C118.383 85.8891 118.735 84.1295 118.735 84.1295L119.51 83.9182Z" fill="#4F8BAD"/>
<path d="M133.288 83.1543C133.288 83.1543 131.88 85.6179 128.783 91.0379C125.671 96.7113 124.291 98.6682 124.291 98.6682L123.798 98.3868C123.798 98.3868 124.417 96.3879 127.529 90.7146C130.64 85.0412 132.541 82.8589 132.541 82.8589L133.288 83.1543Z" fill="#4F8BAD"/>
<path d="M148.224 89.0619C148.224 89.0619 145.548 91.4555 139.366 97.4676C132.929 103.466 130.775 105.634 130.775 105.634L130.535 105.367C130.535 105.367 132.183 103.17 138.619 97.1722C145.069 90.9208 147.731 88.7805 147.731 88.7805L148.224 89.0619Z" fill="#4F8BAD"/>
<path d="M153.889 92.4242C153.889 92.4242 150.959 94.8038 144.298 100.281C137.636 105.758 134.988 107.645 134.988 107.645L134.748 107.378C134.748 107.378 136.382 105.435 143.565 99.7324C150.494 94.0157 153.396 92.1428 153.396 92.1428L153.889 92.4242Z" fill="#4F8BAD"/>
<path d="M160.797 105.513C160.797 105.513 157.656 107.118 149.81 111.005C142.218 114.907 139.344 116.273 139.344 116.273L139.119 115.752C139.119 115.752 141.246 114.09 149.091 110.203C156.937 106.316 160.064 104.964 160.064 104.964L160.797 105.513Z" fill="#4F8BAD"/>
<path d="M163.113 118.856C163.113 118.856 159.746 119.941 151.998 122.054C144.236 124.421 141.391 125.281 141.391 125.281L141.165 124.76C141.165 124.76 143.517 123.619 151.547 121.013C159.562 118.66 162.661 117.815 162.661 117.815L163.113 118.856Z" fill="#4F8BAD"/>
<path d="M81.9651 123.524C77.047 120.457 77.0313 116.136 77.0313 116.136C77.0313 116.136 100.353 94.5509 111.032 94.6323C142.323 94.5812 149.962 140.494 149.962 140.494L184.903 143.44L191.844 132.895C191.844 132.895 208.031 129.977 215.786 146.162C225.853 166.54 214.248 178.606 215.45 189.092C216.651 199.578 228.954 207.119 234.001 217.055C239.316 226.752 248.907 255.745 248.907 255.745L243.724 257.492C243.724 257.492 237.209 241.884 226.876 226.319C214.696 207.349 201.403 222.371 184.383 185.09C184.383 185.09 160.689 190.389 141.032 182.442C141.032 182.442 133.26 194.211 127.697 198.224C122.133 202.238 91.8749 211.24 84.3965 217.689C76.918 224.138 54.5981 250.607 54.5981 250.607L50.4128 248.088C50.4128 248.088 70.8719 218.467 81.8849 207.893C92.6444 197.305 105.714 186.337 108.882 179.65C112.035 173.216 127.473 128.578 109.222 113.593L81.9651 123.524Z" fill="#FF606F"/>
<path d="M81.9651 123.524C77.047 120.457 77.0313 116.136 77.0313 116.136C77.0313 116.136 100.353 94.5509 111.032 94.6323C142.323 94.5812 149.962 140.494 149.962 140.494L184.903 143.44L191.844 132.895C191.844 132.895 208.031 129.977 215.786 146.162C225.853 166.54 214.248 178.606 215.45 189.092C216.651 199.578 228.954 207.119 234.001 217.055C239.316 226.752 248.907 255.745 248.907 255.745L243.724 257.492C243.724 257.492 237.209 241.884 226.876 226.319C214.696 207.349 201.403 222.371 184.383 185.09C184.383 185.09 160.689 190.389 141.032 182.442C141.032 182.442 133.26 194.211 127.697 198.224C122.133 202.238 91.8749 211.24 84.3965 217.689C76.918 224.138 54.5981 250.607 54.5981 250.607L50.4128 248.088C50.4128 248.088 70.8719 218.467 81.8849 207.893C92.6444 197.305 105.714 186.337 108.882 179.65C112.035 173.216 127.473 128.578 109.222 113.593L81.9651 123.524Z" fill="#FF606F"/>
<path d="M49.6523 248.046L53.8375 250.564C53.8375 250.564 58.1889 245.468 63.6246 239.16L57.101 237.529C52.6937 243.64 49.6523 248.046 49.6523 248.046Z" fill="#2D3962"/>
<path d="M189.566 141.918C183.651 147.691 190.531 161.286 200.154 162.072C211.044 162.927 212.802 154.129 209.348 147.585C206.147 141.055 196.565 134.935 189.566 141.918Z" fill="#C24751"/>
<path d="M165.072 157.085C164.675 150.455 155.993 141.843 146.498 143.352C137.003 144.861 141.769 155.29 147.152 159.145C152.521 163.254 165.61 165.755 165.072 157.085Z" fill="#C24751"/>
<path d="M186.15 162.315C188.698 157.627 196.575 162.382 194.52 167.351C191.972 172.039 184.179 165.764 186.15 162.315Z" fill="#C24751"/>
<path d="M124.108 97.387C124.108 97.387 121.601 101.315 115.487 101.485C109.359 101.91 104.834 96.3228 104.834 96.3228C104.834 96.3228 108.511 94.2385 113.836 94.5326C119.415 94.8407 124.108 97.387 124.108 97.387Z" fill="#C24751"/>
<path d="M248.668 255.478L243.484 257.225C243.484 257.225 241.919 253.326 238.69 247.303L245.41 245.387C247.384 251.087 248.668 255.478 248.668 255.478Z" fill="#2D3962"/>
<path d="M177.988 185.753C177.988 185.753 178.351 179.165 179.219 163.456C180.086 147.748 180.394 142.174 180.394 142.174L182.944 142.06C182.944 142.06 185.228 146.761 184.586 162.99C183.691 179.206 182.327 185.484 182.327 185.484L177.988 185.753Z" fill="#FFFCF2"/>
<path d="M140.018 182.386C140.018 182.386 142.171 175.643 146.898 159.131C151.865 142.886 153.469 136.875 153.469 136.875L155.991 137.268C155.991 137.268 156.965 142.659 151.956 159.664C146.947 176.669 143.808 182.849 143.808 182.849L140.018 182.386Z" fill="#FFFCF2"/>
<path d="M108.194 113.79C108.194 113.79 108.208 113.536 108.222 113.283C108.25 112.776 108.532 112.283 108.574 111.523C108.602 111.017 108.616 110.763 108.658 110.003C108.686 109.496 108.714 108.99 108.756 108.23C108.798 107.47 108.826 106.963 108.868 106.203C108.882 105.949 108.91 105.443 108.937 104.936C108.951 104.682 108.965 104.429 108.965 104.429C108.979 104.176 108.993 103.922 108.993 103.922C108.838 102.135 108.401 100.84 108.217 99.5592C107.766 98.5177 107.568 97.4902 107.342 96.9695C106.652 95.6607 106.426 95.1399 106.426 95.1399L107.496 94.1825C107.496 94.1825 107.75 94.1965 107.99 94.4639C108.229 94.7312 108.722 95.0126 109.202 95.5473C109.681 96.0821 110.132 97.1235 110.583 98.165C111.02 99.4598 111.444 101.008 111.853 102.81C111.529 104.062 111.727 105.09 111.685 105.85C111.643 106.61 111.601 107.37 111.559 108.13C111.517 108.89 111.489 109.397 111.194 110.143C111.166 110.65 110.884 111.143 110.856 111.649C110.561 112.395 110.519 113.156 110.237 113.648C110.209 114.155 109.955 114.141 109.955 114.141L108.194 113.79Z" fill="white"/>
<path d="M110.517 108.581C110.517 108.581 110.263 108.567 110.517 108.581C110.263 108.567 110.009 108.553 109.488 108.778C108.713 108.99 107.685 109.187 106.403 109.371C103.558 110.23 99.1625 111.512 93.4015 114.498C91.8379 115.174 90.514 116.117 89.4576 116.821C88.9224 117.3 88.4013 117.525 87.8661 118.004C87.0773 118.469 86.2746 119.187 85.4858 119.652C85.2182 119.891 84.9646 119.877 84.697 120.116L84.711 119.863L84.4714 119.596C84.2458 119.075 84.0062 118.808 83.7806 118.287C83.5549 117.766 83.3293 117.245 83.1037 116.725C82.6385 115.937 82.4129 115.416 82.2012 114.642C81.0592 112.291 80.6079 111.25 80.6079 111.25L81.9179 110.56C81.9179 110.56 82.6507 111.109 84.0604 113.22C84.286 113.74 84.7652 114.275 85.2304 115.063C85.47 115.331 85.6956 115.851 85.9352 116.119C85.9352 116.119 85.9352 116.119 85.9492 115.865L86.2168 115.626C86.4844 115.387 86.752 115.147 87.0196 114.908C87.2872 114.668 87.5548 114.429 87.8223 114.19C89.1463 113.246 90.4562 112.556 92.0338 111.627C95.1749 110.021 98.0344 108.908 100.373 108.021C102.711 107.134 104.768 106.739 106.064 106.302C107.613 105.879 108.628 105.935 109.403 105.724C110.163 105.766 110.431 105.527 110.431 105.527L110.517 108.581Z" fill="white"/>
<path d="M101.863 99.4624C100.595 99.3924 98.8633 103.109 99.005 105.15C99.1187 107.697 100.95 106.782 101.809 105.05C102.681 103.066 102.877 99.5184 101.863 99.4624Z" fill="#2D3962"/>
<path d="M194.632 128.474L184.903 143.44L149.962 140.494L148.297 133.794C148.297 133.794 166.301 130.214 182.365 138.725C182.365 138.725 185.77 127.731 194.632 128.474Z" fill="#2D3962"/>
<path d="M286.029 251.442C286.029 251.442 285.254 251.653 283.958 252.09C283.183 252.301 282.409 252.513 281.366 252.963C280.338 253.161 279.042 253.597 277.746 254.034C272.322 255.514 264.053 257.852 252.474 260.263C240.894 262.673 226.243 265.422 208.323 267.482C206.027 267.609 203.717 267.99 201.42 268.117C199.378 268.259 196.814 268.625 194.264 268.739C192.982 268.922 191.714 268.852 190.432 269.035C189.15 269.219 187.882 269.149 186.6 269.332C184.05 269.445 181.5 269.559 178.696 269.658C177.414 269.842 175.893 269.757 174.611 269.941C173.343 269.871 171.807 270.04 170.539 269.97C167.736 270.069 164.932 270.169 162.143 270.015C160.621 269.931 159.339 270.114 157.817 270.03C156.296 269.946 154.774 269.862 153.239 270.031C151.717 269.947 150.196 269.863 148.66 270.033C147.899 269.991 147.138 269.949 146.378 269.907C145.617 269.865 144.856 269.823 144.095 269.781C119.229 268.662 98.7853 265.754 82.1738 262.549C65.5624 259.345 52.5292 255.83 42.5253 252.736C32.5213 249.642 25.7861 247.237 21.3053 245.465C20.3049 245.155 19.3185 244.593 18.3181 244.283C17.5713 243.988 16.8245 243.692 16.3313 243.411C15.5985 242.862 15.1053 242.581 15.1053 242.581L17.3439 238.893C17.3439 238.893 19.0911 239.497 23.1067 240.481C27.1083 241.719 33.6179 243.603 43.1566 245.909C52.6954 248.215 65.2493 251.195 81.6211 254.132C82.1283 254.16 82.6216 254.442 83.1287 254.47C83.6359 254.498 84.1431 254.526 84.6363 254.807C85.6507 254.863 86.6511 255.172 87.9191 255.242C90.1875 255.622 92.4559 256.001 94.7242 256.381C96.9926 256.76 99.5286 256.9 101.797 257.279C104.319 257.673 106.841 258.066 109.377 258.206C114.435 258.74 119.986 259.554 125.565 259.863C127.087 259.947 128.355 260.017 129.876 260.101C131.398 260.185 132.919 260.269 134.441 260.353C137.484 260.521 140.527 260.689 143.57 260.857C145.092 260.941 146.614 261.025 148.135 261.109C149.657 261.193 151.178 261.277 152.714 261.108C155.757 261.276 158.814 261.19 161.604 261.344C164.407 261.245 167.465 261.16 170.254 261.314C171.776 261.398 173.058 261.214 174.326 261.284C175.594 261.354 177.129 261.185 178.397 261.255C181.201 261.156 183.751 261.042 186.301 260.929C187.061 260.971 187.569 260.999 188.343 260.788C189.104 260.83 189.625 260.604 190.133 260.632C191.415 260.449 192.683 260.519 193.965 260.336C196.514 260.222 198.811 260.095 201.121 259.714C203.418 259.587 205.728 259.206 208.024 259.079C226.184 257.286 240.567 254.777 251.879 252.606C263.191 250.435 271.193 248.335 276.348 247.095C277.644 246.658 278.673 246.461 279.701 246.264C280.73 246.066 281.504 245.855 282.026 245.63C283.321 245.193 283.829 245.221 283.829 245.221L286.029 251.442Z" fill="#2D3962"/>
<path d="M210.049 139.491L217.132 130.988L220.768 134.238L211.952 141.884L210.049 139.491Z" fill="#C24751"/>
<path d="M217.132 130.988C230.538 113.938 260.732 119.926 276.967 171.396C276.967 171.396 272.602 176.746 259.784 183.154C246.966 189.562 234.893 191.691 234.893 191.691C243.13 143.859 235.697 121.847 220.501 134.477L217.132 130.988Z" fill="#2D3962"/>
<path d="M141.373 116.384C141.373 116.384 130.47 120.357 133.052 128.886C135.633 137.415 149.751 139.719 149.751 139.719C149.751 139.719 147.154 126.869 141.373 116.384Z" fill="#C24751"/>
<path d="M121.18 104.342C126.406 101.835 139.836 111.98 133.358 118.738C126.091 125.961 110.475 109.342 121.18 104.342Z" fill="#C24751"/>
<path d="M123.498 122.259C126.625 120.907 133.278 129.407 130.081 132.026C127.179 133.899 119.863 123.583 123.498 122.259Z" fill="#C24751"/>
<path d="M214.591 153.974C211.802 153.819 210.597 171.034 213.837 172.23C217.078 173.425 217.381 154.128 214.591 153.974Z" fill="#C24751"/>
<path d="M170.096 144.401C165.024 144.121 163.956 149.653 166.296 153.34C168.636 157.027 175.062 160.432 177.454 153.956C178.946 149.972 173.9 144.611 170.096 144.401Z" fill="#C24751"/>
<path d="M134.399 150.562C136.511 149.154 141.276 155.008 138.374 156.881C135.712 159.021 131.23 152.674 134.399 150.562Z" fill="#C24751"/>
<path d="M113.039 108.975C110.856 111.65 107.729 113.002 105.77 111.623C103.811 110.244 103.993 106.95 106.176 104.275C108.358 101.6 111.485 100.248 113.444 101.627C115.163 102.738 115.235 106.046 113.039 108.975Z" fill="#2D3962"/>
<path d="M268.982 177.817C268.982 177.817 268.77 177.042 268.6 175.508C268.389 174.734 268.191 173.707 268.007 172.426C267.824 171.145 267.401 169.597 266.977 168.049C266.145 164.699 264.861 160.308 263.098 155.382C262.661 154.087 262.224 152.792 261.533 151.483C260.842 150.174 260.419 148.626 259.728 147.317C258.36 144.446 256.485 141.547 254.371 138.381C252.242 135.468 249.846 132.794 247.408 130.88C244.97 128.967 242.504 127.56 239.996 126.913C237.502 126.013 234.966 125.873 232.923 126.014C230.627 126.142 228.824 126.55 227.26 127.226C224.133 128.579 222.021 129.987 220.936 131.198C220.669 131.437 220.401 131.676 220.133 131.916C219.866 132.155 219.852 132.408 219.598 132.394C219.331 132.634 219.063 132.873 219.063 132.873L218.57 132.592C218.57 132.592 218.57 132.592 218.851 132.099C219.119 131.86 219.401 131.367 219.936 130.888C220.203 130.649 220.471 130.409 221.006 129.931C221.274 129.691 221.809 129.213 222.33 128.987C222.865 128.509 223.386 128.283 223.922 127.805C224.189 127.565 224.71 127.34 224.964 127.354C225.232 127.114 225.753 126.889 226.006 126.903C227.57 126.227 229.387 125.565 231.697 125.184C234.008 124.804 236.544 124.944 239.052 125.59C241.813 126.251 244.533 127.672 246.971 129.586C249.663 131.513 252.059 134.187 254.441 137.114C254.906 137.902 255.625 138.704 256.09 139.492C256.555 140.28 257.02 141.068 257.486 141.857C257.951 142.645 258.416 143.433 258.881 144.221C259.347 145.009 259.558 145.783 260.023 146.571C260.7 148.133 261.391 149.442 262.068 151.004C262.759 152.313 263.182 153.861 263.619 155.156C265.622 160.35 266.652 164.727 267.484 168.077C267.894 169.878 268.077 171.159 268.515 172.454C268.698 173.735 268.896 174.762 269.108 175.536C269.531 177.084 269.489 177.845 269.489 177.845L268.982 177.817Z" fill="#4F8BAD"/>
<path d="M259.53 183.14C259.53 183.14 259.572 182.38 259.417 180.592C259.459 179.832 259.261 178.804 259.077 177.524C258.894 176.243 258.724 174.709 258.554 173.174C257.976 169.839 257.453 165.489 256.211 160.338C254.969 155.187 253.53 149.008 250.329 142.478C247.128 135.948 243.323 131.163 238.884 128.631C236.658 127.491 234.403 126.858 232.388 126.493C230.36 126.381 228.303 126.776 226.753 127.198C223.64 128.297 221.513 129.959 220.443 130.916C220.176 131.155 220.176 131.155 219.922 131.141L219.654 131.381C219.387 131.62 219.373 131.874 219.119 131.86C218.852 132.099 218.838 132.352 218.838 132.352L218.344 132.071C218.344 132.071 218.344 132.071 218.612 131.831C218.88 131.592 219.161 131.099 219.696 130.621C219.964 130.381 220.231 130.142 220.767 129.663C221.034 129.424 221.569 128.945 222.091 128.72C222.626 128.241 223.147 128.016 223.682 127.537C223.95 127.298 224.457 127.326 224.724 127.086C224.978 127.1 224.992 126.847 225.246 126.861C225.499 126.875 225.513 126.622 225.767 126.636C227.33 125.959 229.134 125.551 231.43 125.423C233.726 125.296 235.981 125.929 238.461 127.082C240.941 128.236 243.125 130.135 245.282 132.542C247.438 134.948 249.313 137.847 250.906 141.239C252.5 144.631 253.839 148.008 254.939 151.119C255.151 151.893 255.363 152.667 255.574 153.441C255.786 154.215 255.997 154.989 256.209 155.763C256.632 157.312 256.816 158.593 257.253 159.887C258.481 165.292 259.004 169.641 259.329 172.963C259.485 174.751 259.655 176.285 259.852 177.312C260.036 178.593 259.98 179.607 260.192 180.381C260.361 181.915 260.319 182.675 260.319 182.675L259.53 183.14Z" fill="#4F8BAD"/>
<path d="M242.894 189.592C242.894 189.592 242.936 188.832 243.274 187.325C243.316 186.565 243.625 185.566 243.695 184.299C243.765 183.032 244.089 181.779 244.187 180.006C244.369 176.712 244.86 172.419 244.886 167.337C244.913 162.256 244.755 155.894 243.611 148.969C242.468 142.044 240.225 136.583 237.378 132.868C235.954 131.011 234.235 129.899 232.502 129.041C230.755 128.436 228.98 128.338 227.43 128.761C224.331 129.606 222.472 131.029 221.401 131.986C221.134 132.225 220.866 132.465 220.599 132.704C220.331 132.944 220.331 132.944 220.064 133.183C219.796 133.422 219.782 133.676 219.782 133.676L219.556 133.155C219.556 133.155 219.556 133.155 219.824 132.916C220.092 132.676 220.359 132.437 220.894 131.958C221.162 131.719 221.429 131.479 221.697 131.24C221.965 131.001 222.486 130.775 223.021 130.297C223.289 130.057 223.542 130.071 223.81 129.832C224.077 129.592 224.331 129.606 224.599 129.367C225.12 129.142 225.908 128.677 226.683 128.466C228.233 128.043 230.022 127.888 232.037 128.253C234.038 128.872 236.01 129.997 237.702 131.615C239.379 133.487 240.775 135.851 242.156 138.469C243.27 141.326 244.37 144.436 244.935 148.026C245.5 151.615 245.812 155.19 246.151 158.258C246.237 161.313 246.322 164.367 246.182 166.901C246.142 172.235 245.651 176.529 245.215 179.808C245.117 181.582 244.794 182.835 244.724 184.102C244.654 185.368 244.344 186.368 244.302 187.128C243.965 188.634 243.923 189.394 243.923 189.394L242.894 189.592Z" fill="#4F8BAD"/>
<g clip-path="url(#clip1)">
<path d="M72 160.279C72 160.579 73.7 160.779 76 160.879C76 163.379 76.3 165.279 76.6 165.279C76.9 165.279 77.1 163.379 77.2 160.879C79.3 160.879 80.9 160.579 80.9 160.279C80.9 159.979 79.3 159.779 77.2 159.679C77.1 156.979 76.9 154.879 76.5 154.879C76.2 154.879 76 156.979 76 159.679C73.7 159.779 72 159.979 72 160.279Z" fill="#FF606F"/>
</g>
<g clip-path="url(#clip2)">
<path d="M280 211.279C280 211.579 281.7 211.779 284 211.879C284 214.379 284.3 216.279 284.6 216.279C284.9 216.279 285.1 214.379 285.2 211.879C287.3 211.879 288.9 211.579 288.9 211.279C288.9 210.979 287.3 210.779 285.2 210.679C285.1 207.979 284.9 205.879 284.5 205.879C284.2 205.879 284 207.979 284 210.679C281.7 210.779 280 210.979 280 211.279Z" fill="#FF606F"/>
</g>
<g clip-path="url(#clip3)">
<path d="M30 126.279C30 126.579 31.7 126.779 34 126.879C34 129.379 34.3 131.279 34.6 131.279C34.9 131.279 35.1 129.379 35.2 126.879C37.3 126.879 38.9 126.579 38.9 126.279C38.9 125.979 37.3 125.779 35.2 125.679C35.1 122.979 34.9 120.879 34.5 120.879C34.2 120.879 34 122.979 34 125.679C31.7 125.779 30 125.979 30 126.279Z" fill="#72BAD1"/>
</g>
<g clip-path="url(#clip4)">
<path d="M118 245.279C118 245.579 119.7 245.779 122 245.879C122 248.379 122.3 250.279 122.6 250.279C122.9 250.279 123.1 248.379 123.2 245.879C125.3 245.879 126.9 245.579 126.9 245.279C126.9 244.979 125.3 244.779 123.2 244.679C123.1 241.979 122.9 239.879 122.5 239.879C122.2 239.879 122 241.979 122 244.679C119.7 244.779 118 244.979 118 245.279Z" fill="#72BAD1"/>
</g>
</g>
<path d="M55.7 205.379C54.6 205.279 53.1 205.279 51.4 205.179C50.5 205.179 49.6 205.079 48.6 205.079C47.6 205.079 46.6 204.979 45.6 204.979C43.6 204.879 41.6 204.879 39.7 204.879C44.2 200.279 49.3 194.379 49.3 194.379C49.3 194.379 43.5 199.479 39 203.879C39 194.679 38.2 182.879 38.2 182.879C38.2 182.879 37.4 194.779 37.4 203.879C33.3 199.879 28 195.379 28 195.379C28 195.379 32.7 200.879 36.7 204.979C33.7 205.079 30.6 205.179 28 205.379C24.5 205.579 22 205.779 22 205.779C22 205.779 24.5 205.979 28 206.279C30.4 206.479 33.4 206.679 36.2 206.679C32.1 210.979 28 215.779 28 215.779C28 215.779 33.1 211.379 37.4 207.179C37.5 215.879 38.2 225.579 38.2 225.579C38.2 225.579 38.8 215.879 39 207.179C42.8 210.779 47.1 214.379 47.1 214.379C47.1 214.379 43.7 210.379 40.3 206.679C42.1 206.679 44 206.579 45.8 206.479C46.3 206.479 46.8 206.379 47.3 206.379C47.8 206.379 48.3 206.279 48.8 206.279C49.8 206.179 50.7 206.079 51.6 206.079C53.3 205.879 54.8 205.779 55.9 205.679C57 205.579 57.6 205.479 57.6 205.479C57.6 205.479 56.8 205.379 55.7 205.379Z" fill="#FF606F"/>
<g clip-path="url(#clip5)">
<path d="M28 275.279C28 275.579 29.7 275.779 32 275.879C32 278.379 32.3 280.279 32.6 280.279C32.9 280.279 33.1 278.379 33.2 275.879C35.3 275.879 36.9 275.579 36.9 275.279C36.9 274.979 35.3 274.779 33.2 274.679C33.1 271.979 32.9 269.879 32.5 269.879C32.2 269.879 32 271.979 32 274.679C29.7 274.779 28 274.979 28 275.279Z" fill="#72BAD1"/>
</g>
<g clip-path="url(#clip6)">
<path d="M149 52.2794C149 52.5794 150.7 52.7794 153 52.8794C153 55.3794 153.3 57.2794 153.6 57.2794C153.9 57.2794 154.1 55.3794 154.2 52.8794C156.3 52.8794 157.9 52.5794 157.9 52.2794C157.9 51.9794 156.3 51.7794 154.2 51.6794C154.1 48.9794 153.9 46.8794 153.5 46.8794C153.2 46.8794 153 48.9794 153 51.6794C150.7 51.7794 149 51.9794 149 52.2794Z" fill="#FF606F"/>
</g>
<path d="M206.555 102.751L224.924 102.375L227.448 87.5513L231.584 88.894L233.41 112.473L183.19 112.258L214.021 64.6167C217.852 58.4578 219.105 50.7414 217.78 41.4673C216.491 36.3826 210.35 36.508 199.357 41.8433C196.242 43.8485 194.112 48.3244 192.966 55.271L185.876 53.7671L185.393 25.8374L190.764 26.5894L193.342 35.7739C212.964 22.7401 225.909 23.7248 232.175 38.728C235.72 46.1401 234.842 54.716 229.543 64.4556L206.555 102.751ZM224.924 48.7183C224.494 45.3166 223.438 42.255 221.755 39.5337C224.047 47.1965 224.208 54.8055 222.238 62.3608C224.458 56.6317 225.354 52.0841 224.924 48.7183ZM225.085 41.6821C224.691 37.8866 222.865 35.0041 219.606 33.0347C221.826 35.756 223.366 38.2625 224.226 40.5542L225.085 41.6821ZM224.924 62.7368C228.003 57.6164 228.63 52.3885 226.804 47.0532C227.591 53.7492 226.088 60.1408 222.292 66.228L224.924 62.7368ZM264.67 116.663C284.973 116.591 295.625 104.47 296.628 80.3003C297.702 46.3908 287.998 29.1854 267.517 28.6841C249.971 27.7173 240.214 41.0018 238.244 68.5376C236.633 100.549 245.441 116.591 264.67 116.663ZM265.637 36.9556C277.274 36.3468 282.699 49.2375 281.911 75.6274C280.192 97.2909 275.323 108.248 267.302 108.499C257.132 108.069 252.316 93.8892 252.854 65.9595C253.605 47.4829 257.867 37.8149 265.637 36.9556ZM257.419 107.532C253.301 104.989 251.278 100.925 251.35 95.3394C252.889 101.248 254.912 105.312 257.419 107.532ZM286.691 65.3149C287.3 71.4738 286.029 79.799 282.878 90.2905C285.707 76.4689 285.492 62.5399 282.233 48.5034C284.632 53.5164 286.118 59.1203 286.691 65.3149ZM286.96 52.478L285.778 50.3833C284.525 46.158 282.323 41.5747 279.172 36.6333C283.791 40.214 286.387 45.4956 286.96 52.478ZM286.315 92.6538L282.556 99.0454C287.927 87.9093 290.057 76.2183 288.947 63.9722C291.561 73.7118 290.684 83.2723 286.315 92.6538Z" fill="#7A7A7A"/>
<path d="M201.555 97.7515L219.924 97.3755L222.448 82.5513L226.584 83.894L228.41 107.473L178.19 107.258L209.021 59.6167C212.852 53.4578 214.105 45.7414 212.78 36.4673C211.491 31.3826 205.35 31.508 194.357 36.8433C191.242 38.8485 189.112 43.3244 187.966 50.271L180.876 48.7671L180.393 20.8374L185.764 21.5894L188.342 30.7739C207.964 17.7401 220.909 18.7248 227.175 33.728C230.72 41.1401 229.842 49.716 224.543 59.4556L201.555 97.7515ZM219.924 43.7183C219.494 40.3166 218.438 37.255 216.755 34.5337C219.047 42.1965 219.208 49.8055 217.238 57.3608C219.458 51.6317 220.354 47.0841 219.924 43.7183ZM220.085 36.6821C219.691 32.8866 217.865 30.0041 214.606 28.0347C216.826 30.756 218.366 33.2625 219.226 35.5542L220.085 36.6821ZM219.924 57.7368C223.003 52.6164 223.63 47.3885 221.804 42.0532C222.591 48.7492 221.088 55.1408 217.292 61.228L219.924 57.7368ZM259.67 111.663C279.973 111.591 290.625 99.4702 291.628 75.3003C292.702 41.3908 282.998 24.1854 262.517 23.6841C244.971 22.7173 235.214 36.0018 233.244 63.5376C231.633 95.5493 240.441 111.591 259.67 111.663ZM260.637 31.9556C272.274 31.3468 277.699 44.2375 276.911 70.6274C275.192 92.2909 270.323 103.248 262.302 103.499C252.132 103.069 247.316 88.8892 247.854 60.9595C248.605 42.4829 252.867 32.8149 260.637 31.9556ZM252.419 102.532C248.301 99.9894 246.278 95.9253 246.35 90.3394C247.889 96.2476 249.912 100.312 252.419 102.532ZM281.691 60.3149C282.3 66.4738 281.029 74.799 277.878 85.2905C280.707 71.4689 280.492 57.5399 277.233 43.5034C279.632 48.5164 281.118 54.1203 281.691 60.3149ZM281.96 47.478L280.778 45.3833C279.525 41.158 277.323 36.5747 274.172 31.6333C278.791 35.214 281.387 40.4956 281.96 47.478ZM281.315 87.6538L277.556 94.0454C282.927 82.9093 285.057 71.2183 283.947 58.9722C286.561 68.7118 285.684 78.2723 281.315 87.6538Z" fill="#FFFEFA"/>
<g clip-path="url(#clip7)">
<path d="M74.4548 72.603C72.8079 72.4532 70.5621 72.4532 68.0169 72.3033C66.6695 72.3033 65.322 72.1534 63.8249 72.1534C62.3277 72.1534 60.8305 72.0035 59.3333 72.0035C56.339 71.8536 53.3446 71.8536 50.5 71.8536C57.2373 64.959 64.8729 56.1159 64.8729 56.1159C64.8729 56.1159 56.1893 63.76 49.452 70.3548C49.452 56.5656 48.2542 38.8794 48.2542 38.8794C48.2542 38.8794 47.0565 56.7155 47.0565 70.3548C40.9181 64.3595 32.9831 57.6148 32.9831 57.6148C32.9831 57.6148 40.0198 65.8583 46.0085 72.0035C41.5169 72.1534 36.8757 72.3033 32.9831 72.603C27.7429 72.9028 24 73.2026 24 73.2026C24 73.2026 27.7429 73.5023 32.9831 73.952C36.5763 74.2518 41.0678 74.5515 45.2599 74.5515C39.1215 80.9965 32.9831 88.1909 32.9831 88.1909C32.9831 88.1909 40.6186 81.596 47.0565 75.3009C47.2062 88.3408 48.2542 102.879 48.2542 102.879C48.2542 102.879 49.1525 88.3408 49.452 75.3009C55.1412 80.6967 61.5791 86.0925 61.5791 86.0925C61.5791 86.0925 56.4887 80.0972 51.3983 74.5515C54.0932 74.5515 56.9379 74.4016 59.6328 74.2518C60.3814 74.2518 61.1299 74.1019 61.8785 74.1019C62.6271 74.1019 63.3757 73.952 64.1243 73.952C65.6215 73.8021 66.9689 73.6522 68.3164 73.6522C70.8616 73.3525 73.1073 73.2026 74.7542 73.0527C76.4011 72.9028 77.2994 72.7529 77.2994 72.7529C77.2994 72.7529 76.1017 72.603 74.4548 72.603Z" fill="#72BAD1"/>
</g>
<g clip-path="url(#clip8)">
<path d="M298.7 280.379C297.6 280.279 296.1 280.279 294.4 280.179C293.5 280.179 292.6 280.079 291.6 280.079C290.6 280.079 289.6 279.979 288.6 279.979C286.6 279.879 284.6 279.879 282.7 279.879C287.2 275.279 292.3 269.379 292.3 269.379C292.3 269.379 286.5 274.479 282 278.879C282 269.679 281.2 257.879 281.2 257.879C281.2 257.879 280.4 269.779 280.4 278.879C276.3 274.879 271 270.379 271 270.379C271 270.379 275.7 275.879 279.7 279.979C276.7 280.079 273.6 280.179 271 280.379C267.5 280.579 265 280.779 265 280.779C265 280.779 267.5 280.979 271 281.279C273.4 281.479 276.4 281.679 279.2 281.679C275.1 285.979 271 290.779 271 290.779C271 290.779 276.1 286.379 280.4 282.179C280.5 290.879 281.2 300.579 281.2 300.579C281.2 300.579 281.8 290.879 282 282.179C285.8 285.779 290.1 289.379 290.1 289.379C290.1 289.379 286.7 285.379 283.3 281.679C285.1 281.679 287 281.579 288.8 281.479C289.3 281.479 289.8 281.379 290.3 281.379C290.8 281.379 291.3 281.279 291.8 281.279C292.8 281.179 293.7 281.079 294.6 281.079C296.3 280.879 297.8 280.779 298.9 280.679C300 280.579 300.6 280.479 300.6 280.479C300.6 280.479 299.8 280.379 298.7 280.379Z" fill="#72BAD1"/>
</g>
<defs>
<clipPath id="clip0">
<rect width="271" height="186" fill="white" transform="translate(24.2551 76.8794) rotate(3.16061)"/>
</clipPath>
<clipPath id="clip1">
<rect width="8.8" height="10.4" fill="white" transform="translate(72 154.879)"/>
</clipPath>
<clipPath id="clip2">
<rect width="8.8" height="10.4" fill="white" transform="translate(280 205.879)"/>
</clipPath>
<clipPath id="clip3">
<rect width="8.8" height="10.4" fill="white" transform="translate(30 120.879)"/>
</clipPath>
<clipPath id="clip4">
<rect width="8.8" height="10.4" fill="white" transform="translate(118 239.879)"/>
</clipPath>
<clipPath id="clip5">
<rect width="8.8" height="10.4" fill="white" transform="translate(28 269.879)"/>
</clipPath>
<clipPath id="clip6">
<rect width="8.8" height="10.4" fill="white" transform="translate(149 46.8794)"/>
</clipPath>
<clipPath id="clip7">
<rect width="53" height="64" fill="white" transform="translate(24 38.8794)"/>
</clipPath>
<clipPath id="clip8">
<rect width="35.4" height="42.7" fill="white" transform="translate(265 257.879)"/>
</clipPath>
</defs>
</svg>
