<svg width="305" height="275" viewBox="0 0 305 275" fill="none" xmlns="http://www.w3.org/2000/svg">
<rect x="11.6404" y="0.879395" width="293.32" height="274" fill="#2D3962"/>
<mask id="mask0" style="mask-type:alpha" maskUnits="userSpaceOnUse" x="0" y="1" width="293" height="274">
<path d="M293 1.87939H0V274.879H293V1.87939Z" fill="#2D3962"/>
</mask>
<g mask="url(#mask0)">
<path d="M258.634 271.816C258.634 271.816 261.047 275.194 262.494 277.928C263.942 280.662 265.228 284.603 265.228 284.603C265.228 284.603 262.816 281.225 261.368 278.491C259.921 275.676 258.634 271.816 258.634 271.816Z" fill="#265B61"/>
<path d="M251.316 257.663C251.316 257.663 253.729 261.041 255.176 263.775C256.624 266.509 257.91 270.449 257.91 270.449C257.91 270.449 255.498 267.072 254.05 264.338C252.603 261.523 251.316 257.663 251.316 257.663Z" fill="#265B61"/>
<path d="M243.998 243.51C243.998 243.51 246.411 246.887 247.858 249.621C249.306 252.356 250.592 256.296 250.592 256.296C250.592 256.296 248.18 252.919 246.732 250.184C245.285 247.37 243.998 243.51 243.998 243.51Z" fill="#265B61"/>
<path d="M236.68 229.356C236.68 229.356 239.093 232.734 240.54 235.468C241.988 238.202 243.275 242.143 243.275 242.143C243.275 242.143 240.862 238.765 239.415 236.031C237.967 233.216 236.68 229.356 236.68 229.356Z" fill="#265B61"/>
<path d="M229.363 215.204C229.363 215.204 231.775 218.581 233.223 221.315C234.67 224.049 235.957 227.99 235.957 227.99C235.957 227.99 233.544 224.612 232.097 221.878C230.649 219.144 229.363 215.204 229.363 215.204Z" fill="#265B61"/>
<path d="M222.044 201.05C222.044 201.05 224.457 204.427 225.904 207.161C227.352 209.896 228.639 213.836 228.639 213.836C228.639 213.836 226.226 210.459 224.779 207.724C223.331 204.99 222.044 201.05 222.044 201.05Z" fill="#265B61"/>
<path d="M214.727 186.896C214.727 186.896 217.139 190.274 218.587 193.008C220.034 195.742 221.321 199.683 221.321 199.683C221.321 199.683 218.908 196.305 217.461 193.571C216.013 190.837 214.727 186.896 214.727 186.896Z" fill="#265B61"/>
<path d="M207.328 172.743C207.328 172.743 209.741 176.121 211.188 178.855C212.636 181.589 213.923 185.529 213.923 185.529C213.923 185.529 211.51 182.152 210.063 179.418C208.695 176.684 207.328 172.743 207.328 172.743Z" fill="#265B61"/>
<path d="M200.01 158.59C200.01 158.59 202.423 161.967 203.87 164.702C205.318 167.436 206.604 171.376 206.604 171.376C206.604 171.376 204.192 167.999 202.744 165.264C201.377 162.53 200.01 158.59 200.01 158.59Z" fill="#265B61"/>
<path d="M192.692 144.517C192.692 144.517 195.105 147.895 196.552 150.629C198 153.363 199.287 157.303 199.287 157.303C199.287 157.303 196.874 153.926 195.427 151.192C193.979 148.458 192.692 144.517 192.692 144.517Z" fill="#265B61"/>
<path d="M185.375 130.364C185.375 130.364 187.787 133.741 189.235 136.475C190.682 139.21 191.969 143.15 191.969 143.15C191.969 143.15 189.556 139.773 188.109 137.038C186.742 134.224 185.375 130.364 185.375 130.364Z" fill="#265B61"/>
<path d="M178.057 116.21C178.057 116.21 180.469 119.588 181.917 122.322C183.364 125.056 184.651 128.997 184.651 128.997C184.651 128.997 182.238 125.619 180.791 122.885C179.424 120.07 178.057 116.21 178.057 116.21Z" fill="#265B61"/>
<path d="M170.739 102.057C170.739 102.057 173.151 105.435 174.599 108.169C176.046 110.903 177.333 114.843 177.333 114.843C177.333 114.843 174.92 111.466 173.473 108.732C172.106 105.917 170.739 102.057 170.739 102.057Z" fill="#265B61"/>
<path d="M163.421 87.9038C163.421 87.9038 165.833 91.2813 167.281 94.0155C168.728 96.7496 170.015 100.69 170.015 100.69C170.015 100.69 167.602 97.3125 166.155 94.5784C164.788 91.7638 163.421 87.9038 163.421 87.9038Z" fill="#265B61"/>
<path d="M156.103 73.7505C156.103 73.7505 158.515 77.128 159.963 79.8622C161.41 82.5963 162.697 86.5367 162.697 86.5367C162.697 86.5367 160.284 83.1592 158.837 80.4251C157.47 77.6909 156.103 73.7505 156.103 73.7505Z" fill="#265B61"/>
<path d="M148.785 59.5972C148.785 59.5972 151.197 62.9747 152.645 65.7088C154.092 68.443 155.379 72.3834 155.379 72.3834C155.379 72.3834 152.967 69.0059 151.519 66.2717C150.152 63.5376 148.785 59.5972 148.785 59.5972Z" fill="#265B61"/>
<path d="M141.467 45.4436C141.467 45.4436 143.88 48.8211 145.327 51.5553C146.775 54.2894 148.061 58.2298 148.061 58.2298C148.061 58.2298 145.649 54.8524 144.201 52.1182C142.834 49.384 141.467 45.4436 141.467 45.4436Z" fill="#265B61"/>
<path d="M134.149 31.2903C134.149 31.2903 136.562 34.6678 138.009 37.402C139.457 40.1361 140.743 44.0765 140.743 44.0765C140.743 44.0765 138.331 40.699 136.883 37.9649C135.436 35.2307 134.149 31.2903 134.149 31.2903Z" fill="#265B61"/>
<path d="M126.831 17.1372C126.831 17.1372 129.244 20.5147 130.691 23.2489C132.139 25.983 133.425 29.9235 133.425 29.9235C133.425 29.9235 131.013 26.546 129.565 23.8118C128.198 21.0776 126.831 17.1372 126.831 17.1372Z" fill="#265B61"/>
<path d="M119.513 3.06421C119.513 3.06421 121.926 6.44171 123.373 9.17588C124.821 11.91 126.107 15.8505 126.107 15.8505C126.107 15.8505 123.695 12.473 122.247 9.73879C120.8 7.00463 119.513 3.06421 119.513 3.06421Z" fill="#265B61"/>
<path d="M72.0674 270.048C72.0674 270.048 74.6407 273.506 76.1686 276.32C77.6965 279.135 79.144 283.156 79.144 283.156C79.144 283.156 76.5707 279.698 75.0428 276.883C73.5953 274.069 72.0674 270.048 72.0674 270.048Z" fill="#265B61"/>
<path d="M64.1868 255.493C64.1868 255.493 66.7601 258.951 68.288 261.765C69.8159 264.58 71.2634 268.601 71.2634 268.601C71.2634 268.601 68.6901 265.143 67.1622 262.328C65.7147 259.514 64.1868 255.493 64.1868 255.493Z" fill="#265B61"/>
<path d="M56.3059 240.937C56.3059 240.937 58.8792 244.395 60.4072 247.21C61.9351 250.024 63.3826 254.045 63.3826 254.045C63.3826 254.045 60.8092 250.587 59.2813 247.772C57.8338 244.958 56.3059 240.937 56.3059 240.937Z" fill="#265B61"/>
<path d="M48.5054 226.382C48.5054 226.382 51.0787 229.84 52.6066 232.654C54.1345 235.469 55.582 239.49 55.582 239.49C55.582 239.49 53.0087 236.032 51.4808 233.217C49.9529 230.403 48.5054 226.382 48.5054 226.382Z" fill="#265B61"/>
<path d="M40.6245 211.826C40.6245 211.826 43.1978 215.284 44.7258 218.099C46.2537 220.913 47.7012 224.934 47.7012 224.934C47.7012 224.934 45.1278 221.476 43.5999 218.662C42.072 215.847 40.6245 211.826 40.6245 211.826Z" fill="#265B61"/>
<path d="M32.7437 197.271C32.7437 197.271 35.317 200.728 36.8449 203.543C38.3728 206.358 39.8203 210.378 39.8203 210.378C39.8203 210.378 37.247 206.921 35.7191 204.106C34.1912 201.291 32.7437 197.271 32.7437 197.271Z" fill="#265B61"/>
<path d="M24.8628 182.715C24.8628 182.715 27.4361 186.173 28.964 188.988C30.492 191.802 31.9395 195.823 31.9395 195.823C31.9395 195.823 29.3661 192.365 27.8382 189.551C26.3103 186.736 24.8628 182.715 24.8628 182.715Z" fill="#265B61"/>
<path d="M20.6008 174.834C20.6008 174.834 22.1287 176.362 22.8525 177.729C23.5762 179.097 24.0587 181.187 24.0587 181.187C24.0587 181.187 22.5308 179.659 21.8071 178.292C21.0833 176.925 20.6008 174.834 20.6008 174.834Z" fill="#265B61"/>
<path d="M292.49 158.107C292.49 158.107 294.902 161.485 296.349 164.219C297.797 166.953 299.084 170.894 299.084 170.894C299.084 170.894 296.671 167.516 295.224 164.782C293.776 161.967 292.49 158.107 292.49 158.107Z" fill="#265B61"/>
<path d="M285.172 143.874C285.172 143.874 287.584 147.252 289.032 149.986C290.479 152.72 291.766 156.66 291.766 156.66C291.766 156.66 289.353 153.283 287.906 150.549C286.458 147.814 285.172 143.874 285.172 143.874Z" fill="#265B61"/>
<path d="M277.854 129.72C277.854 129.72 280.266 133.098 281.714 135.832C283.161 138.566 284.448 142.506 284.448 142.506C284.448 142.506 282.035 139.129 280.588 136.395C279.221 133.58 277.854 129.72 277.854 129.72Z" fill="#265B61"/>
<path d="M270.616 115.487C270.616 115.487 273.029 118.864 274.476 121.598C275.924 124.333 277.21 128.273 277.21 128.273C277.21 128.273 274.798 124.896 273.35 122.161C271.903 119.427 270.616 115.487 270.616 115.487Z" fill="#265B61"/>
<path d="M263.298 101.333C263.298 101.333 265.711 104.711 267.158 107.445C268.606 110.179 269.892 114.12 269.892 114.12C269.892 114.12 267.48 110.742 266.033 108.008C264.585 105.193 263.298 101.333 263.298 101.333Z" fill="#265B61"/>
<path d="M255.98 87.0996C255.98 87.0996 258.393 90.4771 259.84 93.2113C261.288 95.9454 262.575 99.8859 262.575 99.8859C262.575 99.8859 260.162 96.5083 258.715 93.7742C257.348 91.04 255.98 87.0996 255.98 87.0996Z" fill="#265B61"/>
<path d="M248.743 72.9463C248.743 72.9463 251.155 76.3238 252.603 79.058C254.05 81.7921 255.337 85.7325 255.337 85.7325C255.337 85.7325 252.925 82.355 251.477 79.6209C250.03 76.8063 248.743 72.9463 248.743 72.9463Z" fill="#265B61"/>
<path d="M241.425 58.7124C241.425 58.7124 243.838 62.0899 245.285 64.8241C246.733 67.5582 248.019 71.4986 248.019 71.4986C248.019 71.4986 245.607 68.1211 244.159 65.387C242.712 62.6528 241.425 58.7124 241.425 58.7124Z" fill="#265B61"/>
<path d="M234.107 44.5593C234.107 44.5593 236.519 47.9368 237.967 50.671C239.414 53.4052 240.701 57.3456 240.701 57.3456C240.701 57.3456 238.289 53.9681 236.841 51.2339C235.474 48.4193 234.107 44.5593 234.107 44.5593Z" fill="#265B61"/>
<path d="M226.87 30.3254C226.87 30.3254 229.282 33.7029 230.73 36.4371C232.177 39.1713 233.464 43.1117 233.464 43.1117C233.464 43.1117 231.051 39.7342 229.604 37C228.156 34.2659 226.87 30.3254 226.87 30.3254Z" fill="#265B61"/>
<path d="M219.552 16.1721C219.552 16.1721 221.964 19.5496 223.412 22.2838C224.859 25.018 226.146 28.9584 226.146 28.9584C226.146 28.9584 223.733 25.5809 222.286 22.8467C220.919 20.0321 219.552 16.1721 219.552 16.1721Z" fill="#265B61"/>
<path d="M212.234 1.93848C212.234 1.93848 214.646 5.31598 216.094 8.05014C217.541 10.7843 218.828 14.7247 218.828 14.7247C218.828 14.7247 216.415 11.3472 214.968 8.61306C213.601 5.87889 212.234 1.93848 212.234 1.93848Z" fill="#265B61"/>
<path d="M167.2 272.058C167.2 272.058 169.693 275.436 171.141 278.17C172.588 280.904 173.955 284.844 173.955 284.844C173.955 284.844 171.463 281.467 170.015 278.733C168.568 275.999 167.2 272.058 167.2 272.058Z" fill="#265B61"/>
<path d="M159.722 257.824C159.722 257.824 162.215 261.202 163.662 263.936C165.11 266.67 166.477 270.61 166.477 270.61C166.477 270.61 163.984 267.233 162.536 264.499C161.089 261.765 159.722 257.824 159.722 257.824Z" fill="#265B61"/>
<path d="M152.163 243.59C152.163 243.59 154.656 246.968 156.103 249.702C157.551 252.436 158.918 256.377 158.918 256.377C158.918 256.377 156.425 252.999 154.977 250.265C153.61 247.531 152.163 243.59 152.163 243.59Z" fill="#265B61"/>
<path d="M144.684 229.437C144.684 229.437 147.177 232.815 148.624 235.549C150.072 238.283 151.439 242.223 151.439 242.223C151.439 242.223 148.946 238.846 147.498 236.112C146.051 233.377 144.684 229.437 144.684 229.437Z" fill="#265B61"/>
<path d="M137.205 215.204C137.205 215.204 139.698 218.581 141.146 221.315C142.593 224.049 143.96 227.99 143.96 227.99C143.96 227.99 141.467 224.612 140.02 221.878C138.572 219.144 137.205 215.204 137.205 215.204Z" fill="#265B61"/>
<path d="M129.726 201.05C129.726 201.05 132.219 204.427 133.667 207.161C135.114 209.896 136.481 213.836 136.481 213.836C136.481 213.836 133.988 210.459 132.541 207.724C131.093 204.91 129.726 201.05 129.726 201.05Z" fill="#265B61"/>
<path d="M122.248 186.816C122.248 186.816 124.74 190.194 126.188 192.928C127.635 195.662 129.003 199.603 129.003 199.603C129.003 199.603 126.51 196.225 125.062 193.491C123.615 190.757 122.248 186.816 122.248 186.816Z" fill="#265B61"/>
<path d="M114.688 172.583C114.688 172.583 117.181 175.96 118.629 178.694C120.076 181.428 121.443 185.369 121.443 185.369C121.443 185.369 118.95 181.991 117.503 179.257C116.055 176.523 114.688 172.583 114.688 172.583Z" fill="#265B61"/>
<path d="M107.209 158.429C107.209 158.429 109.702 161.807 111.15 164.541C112.597 167.275 113.964 171.215 113.964 171.215C113.964 171.215 111.472 167.838 110.024 165.104C108.577 162.289 107.209 158.429 107.209 158.429Z" fill="#265B61"/>
<path d="M99.731 144.195C99.731 144.195 102.224 147.573 103.671 150.307C105.119 153.041 106.486 156.982 106.486 156.982C106.486 156.982 103.993 153.604 102.546 150.87C101.098 148.136 99.731 144.195 99.731 144.195Z" fill="#265B61"/>
<path d="M92.252 129.962C92.252 129.962 94.7449 133.339 96.1924 136.074C97.6399 138.808 99.007 142.748 99.007 142.748C99.007 142.748 96.514 139.371 95.0665 136.636C93.619 133.902 92.252 129.962 92.252 129.962Z" fill="#265B61"/>
<path d="M84.6929 115.809C84.6929 115.809 87.1858 119.186 88.6333 121.92C90.0808 124.654 91.4479 128.595 91.4479 128.595C91.4479 128.595 88.955 125.217 87.5075 122.483C86.1404 119.669 84.6929 115.809 84.6929 115.809Z" fill="#265B61"/>
<path d="M77.2141 101.575C77.2141 101.575 79.707 104.952 81.1545 107.686C82.602 110.421 83.9691 114.361 83.9691 114.361C83.9691 114.361 81.4762 110.983 80.0287 108.249C78.5812 105.515 77.2141 101.575 77.2141 101.575Z" fill="#265B61"/>
<path d="M69.7354 87.3408C69.7354 87.3408 72.2283 90.7183 73.6758 93.4525C75.1233 96.1867 76.4904 100.127 76.4904 100.127C76.4904 100.127 73.9974 96.7496 72.5499 94.0154C71.1024 91.2812 69.7354 87.3408 69.7354 87.3408Z" fill="#265B61"/>
<path d="M62.2566 73.1875C62.2566 73.1875 64.7495 76.565 66.197 79.2992C67.6445 82.0333 69.0116 85.9737 69.0116 85.9737C69.0116 85.9737 66.5187 82.5962 65.0712 79.8621C63.6237 77.1279 62.2566 73.1875 62.2566 73.1875Z" fill="#265B61"/>
<path d="M54.7778 58.9539C54.7778 58.9539 57.2708 62.3314 58.7183 65.0655C60.1658 67.7997 61.5328 71.7401 61.5328 71.7401C61.5328 71.7401 59.0399 68.3626 57.5924 65.6284C56.1449 62.8943 54.7778 58.9539 54.7778 58.9539Z" fill="#265B61"/>
<path d="M47.2188 44.8005C47.2188 44.8005 49.7117 48.178 51.1592 50.9122C52.6067 53.6464 53.9738 57.5868 53.9738 57.5868C53.9738 57.5868 51.4808 54.2093 50.0333 51.4751C48.5858 48.6605 47.2188 44.8005 47.2188 44.8005Z" fill="#265B61"/>
<path d="M39.74 30.5669C39.74 30.5669 42.2329 33.9444 43.6804 36.6786C45.1279 39.4127 46.495 43.3531 46.495 43.3531C46.495 43.3531 44.0021 39.9756 42.5546 37.2415C41.1071 34.5073 39.74 30.5669 39.74 30.5669Z" fill="#265B61"/>
<path d="M32.2612 16.333C32.2612 16.333 34.7541 19.7105 36.2016 22.4447C37.6491 25.1788 39.0162 29.1193 39.0162 29.1193C39.0162 29.1193 36.5233 25.7418 35.0758 23.0076C33.6283 20.2734 32.2612 16.333 32.2612 16.333Z" fill="#265B61"/>
<path d="M24.7825 2.17969C24.7825 2.17969 27.2754 5.55719 28.7229 8.29135C30.1704 11.0255 31.5375 14.9659 31.5375 14.9659C31.5375 14.9659 29.0446 11.5884 27.5971 8.85427C26.1496 6.03969 24.7825 2.17969 24.7825 2.17969Z" fill="#265B61"/>
<path d="M247.939 272.138C247.939 272.138 246.572 276.079 245.204 278.813C243.757 281.547 241.344 284.924 241.344 284.924C241.344 284.924 242.712 280.984 244.079 278.25C245.526 275.435 247.939 272.138 247.939 272.138Z" fill="#265B61"/>
<path d="M255.257 257.904C255.257 257.904 253.889 261.845 252.522 264.579C251.075 267.313 248.662 270.691 248.662 270.691C248.662 270.691 250.029 266.75 251.397 264.016C252.844 261.282 255.257 257.904 255.257 257.904Z" fill="#265B61"/>
<path d="M262.574 243.751C262.574 243.751 261.207 247.691 259.84 250.426C258.393 253.16 255.98 256.537 255.98 256.537C255.98 256.537 257.347 252.597 258.714 249.863C260.162 247.128 262.574 243.751 262.574 243.751Z" fill="#265B61"/>
<path d="M269.892 229.598C269.892 229.598 268.525 233.538 267.158 236.272C265.711 239.006 263.298 242.384 263.298 242.384C263.298 242.384 264.665 238.443 266.033 235.709C267.48 232.895 269.892 229.598 269.892 229.598Z" fill="#265B61"/>
<path d="M277.21 215.364C277.21 215.364 275.843 219.305 274.476 222.039C273.029 224.773 270.616 228.151 270.616 228.151C270.616 228.151 271.983 224.21 273.35 221.476C274.798 218.742 277.21 215.364 277.21 215.364Z" fill="#265B61"/>
<path d="M284.528 201.211C284.528 201.211 283.161 205.151 281.794 207.886C280.347 210.62 277.934 213.997 277.934 213.997C277.934 213.997 279.301 210.057 280.668 207.323C282.116 204.588 284.528 201.211 284.528 201.211Z" fill="#265B61"/>
<path d="M291.846 187.058C291.846 187.058 290.479 190.998 289.112 193.732C287.664 196.466 285.252 199.844 285.252 199.844C285.252 199.844 286.619 195.903 287.986 193.169C289.434 190.355 291.846 187.058 291.846 187.058Z" fill="#265B61"/>
<path d="M299.164 172.824C299.164 172.824 297.797 176.764 296.43 179.498C294.982 182.232 292.57 185.61 292.57 185.61C292.57 185.61 293.937 181.67 295.304 178.935C296.751 176.201 299.164 172.824 299.164 172.824Z" fill="#265B61"/>
<path d="M61.8546 271.656C61.8546 271.656 60.4875 275.596 59.04 278.33C57.5925 281.065 55.0996 284.442 55.0996 284.442C55.0996 284.442 56.4667 280.502 57.9142 277.767C59.4421 274.953 61.8546 271.656 61.8546 271.656Z" fill="#265B61"/>
<path d="M69.3334 257.422C69.3334 257.422 67.9663 261.362 66.5188 264.096C65.0713 266.831 62.5784 270.208 62.5784 270.208C62.5784 270.208 63.9455 266.268 65.393 263.534C66.9209 260.799 69.3334 257.422 69.3334 257.422Z" fill="#265B61"/>
<path d="M76.8121 243.269C76.8121 243.269 75.445 247.209 73.9975 249.943C72.55 252.677 70.0571 256.055 70.0571 256.055C70.0571 256.055 71.4242 252.114 72.8717 249.38C74.3996 246.566 76.8121 243.269 76.8121 243.269Z" fill="#265B61"/>
<path d="M84.2909 229.035C84.2909 229.035 82.9238 232.976 81.4763 235.71C80.0288 238.444 77.5359 241.821 77.5359 241.821C77.5359 241.821 78.903 237.881 80.3505 235.147C81.8784 232.413 84.2909 229.035 84.2909 229.035Z" fill="#265B61"/>
<path d="M91.7696 214.882C91.7696 214.882 90.4026 218.822 88.9551 221.556C87.5076 224.291 85.0146 227.668 85.0146 227.668C85.0146 227.668 86.3817 223.728 87.8292 220.994C89.3571 218.179 91.7696 214.882 91.7696 214.882Z" fill="#265B61"/>
<path d="M99.2484 200.648C99.2484 200.648 97.8813 204.588 96.4338 207.323C94.9863 210.057 92.4934 213.434 92.4934 213.434C92.4934 213.434 93.8605 209.494 95.308 206.76C96.8359 204.025 99.2484 200.648 99.2484 200.648Z" fill="#265B61"/>
<path d="M106.727 186.414C106.727 186.414 105.36 190.354 103.913 193.089C102.465 195.823 99.9722 199.2 99.9722 199.2C99.9722 199.2 101.339 195.26 102.787 192.526C104.315 189.792 106.727 186.414 106.727 186.414Z" fill="#265B61"/>
<path d="M114.206 172.261C114.206 172.261 112.839 176.201 111.391 178.935C109.944 181.669 107.451 185.047 107.451 185.047C107.451 185.047 108.818 181.107 110.266 178.372C111.793 175.638 114.206 172.261 114.206 172.261Z" fill="#265B61"/>
<path d="M121.685 158.027C121.685 158.027 120.318 161.967 118.87 164.701C117.423 167.436 114.93 170.813 114.93 170.813C114.93 170.813 116.297 166.873 117.744 164.139C119.192 161.404 121.685 158.027 121.685 158.027Z" fill="#265B61"/>
<path d="M129.163 143.874C129.163 143.874 127.796 147.814 126.349 150.549C124.901 153.283 122.408 156.66 122.408 156.66C122.408 156.66 123.776 152.72 125.223 149.986C126.671 147.171 129.163 143.874 129.163 143.874Z" fill="#265B61"/>
<path d="M136.642 129.64C136.642 129.64 135.275 133.581 133.828 136.315C132.38 139.049 129.887 142.426 129.887 142.426C129.887 142.426 131.254 138.486 132.702 135.752C134.149 133.018 136.642 129.64 136.642 129.64Z" fill="#265B61"/>
<path d="M144.121 115.487C144.121 115.487 142.754 119.427 141.306 122.161C139.859 124.896 137.366 128.273 137.366 128.273C137.366 128.273 138.733 124.333 140.181 121.598C141.628 118.784 144.121 115.487 144.121 115.487Z" fill="#265B61"/>
<path d="M151.6 101.253C151.6 101.253 150.233 105.193 148.785 107.928C147.338 110.662 144.845 114.039 144.845 114.039C144.845 114.039 146.212 110.099 147.659 107.365C149.107 104.63 151.6 101.253 151.6 101.253Z" fill="#265B61"/>
<path d="M159.078 87.0996C159.078 87.0996 157.711 91.04 156.264 93.7742C154.816 96.5083 152.323 99.8859 152.323 99.8859C152.323 99.8859 153.691 95.9454 155.138 93.2113C156.586 90.3967 159.078 87.0996 159.078 87.0996Z" fill="#265B61"/>
<path d="M166.557 72.8657C166.557 72.8657 165.19 76.8061 163.743 79.5403C162.295 82.2745 159.802 85.652 159.802 85.652C159.802 85.652 161.169 81.7116 162.617 78.9774C164.064 76.2432 166.557 72.8657 166.557 72.8657Z" fill="#265B61"/>
<path d="M174.036 58.7124C174.036 58.7124 172.669 62.6528 171.221 65.387C169.774 68.1211 167.281 71.4986 167.281 71.4986C167.281 71.4986 168.648 67.5582 170.096 64.8241C171.543 62.0095 174.036 58.7124 174.036 58.7124Z" fill="#265B61"/>
<path d="M181.515 44.4788C181.515 44.4788 180.148 48.4192 178.7 51.1533C177.253 53.8875 174.76 57.265 174.76 57.265C174.76 57.265 176.127 53.3246 177.574 50.5904C179.022 47.8563 181.515 44.4788 181.515 44.4788Z" fill="#265B61"/>
<path d="M188.993 30.2451C188.993 30.2451 187.626 34.1855 186.179 36.9197C184.731 39.6539 182.238 43.0314 182.238 43.0314C182.238 43.0314 183.605 39.0909 185.053 36.3568C186.5 33.6226 188.993 30.2451 188.993 30.2451Z" fill="#265B61"/>
<path d="M196.472 16.0916C196.472 16.0916 195.105 20.032 193.657 22.7661C192.21 25.5003 189.717 28.8778 189.717 28.8778C189.717 28.8778 191.084 24.9374 192.532 22.2032C193.979 19.4691 196.472 16.0916 196.472 16.0916Z" fill="#265B61"/>
<path d="M203.87 1.85791C203.87 1.85791 202.503 5.79833 201.056 8.53249C199.608 11.2667 197.115 14.6442 197.115 14.6442C197.115 14.6442 198.483 10.7037 199.93 7.96958C201.458 5.23541 203.87 1.85791 203.87 1.85791Z" fill="#265B61"/>
<path d="M154.897 271.897C154.897 271.897 153.53 275.837 152.162 278.572C150.715 281.306 148.302 284.683 148.302 284.683C148.302 284.683 149.67 280.743 151.037 278.009C152.484 275.274 154.897 271.897 154.897 271.897Z" fill="#265B61"/>
<path d="M162.215 257.744C162.215 257.744 160.848 261.685 159.481 264.419C158.033 267.153 155.621 270.53 155.621 270.53C155.621 270.53 156.988 266.59 158.355 263.856C159.802 261.122 162.215 257.744 162.215 257.744Z" fill="#265B61"/>
<path d="M169.533 243.59C169.533 243.59 168.166 247.531 166.798 250.265C165.351 252.999 162.938 256.377 162.938 256.377C162.938 256.377 164.306 252.436 165.673 249.702C167.12 246.887 169.533 243.59 169.533 243.59Z" fill="#265B61"/>
<path d="M176.931 229.357C176.931 229.357 175.564 233.297 174.197 236.032C172.749 238.766 170.337 242.143 170.337 242.143C170.337 242.143 171.704 238.203 173.071 235.469C174.518 232.734 176.931 229.357 176.931 229.357Z" fill="#265B61"/>
<path d="M184.249 215.204C184.249 215.204 182.882 219.144 181.515 221.878C180.067 224.612 177.655 227.99 177.655 227.99C177.655 227.99 179.022 224.049 180.389 221.315C181.836 218.501 184.249 215.204 184.249 215.204Z" fill="#265B61"/>
<path d="M191.567 200.97C191.567 200.97 190.2 204.91 188.833 207.644C187.385 210.378 184.973 213.756 184.973 213.756C184.973 213.756 186.34 209.816 187.707 207.081C189.154 204.347 191.567 200.97 191.567 200.97Z" fill="#265B61"/>
<path d="M198.885 186.816C198.885 186.816 197.518 190.757 196.151 193.491C194.703 196.225 192.291 199.603 192.291 199.603C192.291 199.603 193.658 195.662 195.025 192.928C196.472 190.194 198.885 186.816 198.885 186.816Z" fill="#265B61"/>
<path d="M206.283 172.663C206.283 172.663 204.916 176.604 203.549 179.338C202.101 182.072 199.689 185.449 199.689 185.449C199.689 185.449 201.056 181.509 202.423 178.775C203.871 175.96 206.283 172.663 206.283 172.663Z" fill="#265B61"/>
<path d="M213.601 158.429C213.601 158.429 212.234 162.37 210.867 165.104C209.419 167.838 207.007 171.215 207.007 171.215C207.007 171.215 208.374 167.275 209.741 164.541C211.189 161.807 213.601 158.429 213.601 158.429Z" fill="#265B61"/>
<path d="M220.919 144.276C220.919 144.276 219.552 148.216 218.185 150.95C216.737 153.685 214.325 157.062 214.325 157.062C214.325 157.062 215.692 153.122 217.059 150.388C218.506 147.573 220.919 144.276 220.919 144.276Z" fill="#265B61"/>
<path d="M228.237 130.042C228.237 130.042 226.87 133.982 225.503 136.717C224.055 139.451 221.643 142.828 221.643 142.828C221.643 142.828 223.01 138.888 224.377 136.154C225.824 133.419 228.237 130.042 228.237 130.042Z" fill="#265B61"/>
<path d="M235.635 115.889C235.635 115.889 234.268 119.829 232.901 122.563C231.454 125.297 229.041 128.675 229.041 128.675C229.041 128.675 230.408 124.735 231.775 122C233.223 119.266 235.635 115.889 235.635 115.889Z" fill="#265B61"/>
<path d="M242.953 101.735C242.953 101.735 241.586 105.676 240.219 108.41C238.771 111.144 236.359 114.522 236.359 114.522C236.359 114.522 237.726 110.581 239.093 107.847C240.541 105.032 242.953 101.735 242.953 101.735Z" fill="#265B61"/>
<path d="M250.271 87.502C250.271 87.502 248.904 91.4424 247.537 94.1765C246.089 96.9107 243.677 100.288 243.677 100.288C243.677 100.288 245.044 96.3478 246.411 93.6136C247.858 90.8794 250.271 87.502 250.271 87.502Z" fill="#265B61"/>
<path d="M257.589 73.3486C257.589 73.3486 256.222 77.2891 254.855 80.0232C253.407 82.7574 250.995 86.1349 250.995 86.1349C250.995 86.1349 252.362 82.1945 253.729 79.4603C255.176 76.6457 257.589 73.3486 257.589 73.3486Z" fill="#265B61"/>
<path d="M264.987 59.1147C264.987 59.1147 263.62 63.0552 262.253 65.7893C260.806 68.5235 258.393 71.901 258.393 71.901C258.393 71.901 259.76 67.9606 261.127 65.2264C262.575 62.4922 264.987 59.1147 264.987 59.1147Z" fill="#265B61"/>
<path d="M272.305 44.9614C272.305 44.9614 270.938 48.9018 269.571 51.636C268.123 54.3702 265.711 57.7477 265.711 57.7477C265.711 57.7477 267.078 53.8073 268.445 51.0731C269.893 48.3389 272.305 44.9614 272.305 44.9614Z" fill="#265B61"/>
<path d="M279.623 30.8081C279.623 30.8081 278.256 34.7485 276.889 37.4827C275.441 40.2169 273.029 43.5944 273.029 43.5944C273.029 43.5944 274.396 39.6539 275.763 36.9198C277.21 34.1052 279.623 30.8081 279.623 30.8081Z" fill="#265B61"/>
<path d="M286.941 16.5742C286.941 16.5742 285.574 20.5146 284.207 23.2488C282.759 25.983 280.347 29.3605 280.347 29.3605C280.347 29.3605 281.714 25.4201 283.081 22.6859C284.528 19.9517 286.941 16.5742 286.941 16.5742Z" fill="#265B61"/>
<path d="M294.339 2.4209C294.339 2.4209 292.972 6.36131 291.605 9.09548C290.158 11.8296 287.745 15.2071 287.745 15.2071C287.745 15.2071 289.112 11.2667 290.479 8.53257C291.927 5.7984 294.339 2.4209 294.339 2.4209Z" fill="#265B61"/>
<path d="M23.9783 168.562C23.9783 168.562 23.5762 170.652 22.8525 172.019C22.1287 173.387 20.6008 174.914 20.6008 174.914C20.6008 174.914 21.0029 172.824 21.7267 171.457C22.4504 170.089 23.9783 168.562 23.9783 168.562Z" fill="#265B61"/>
<path d="M31.1353 154.73C31.1353 154.73 29.8487 158.51 28.4012 161.244C27.0341 163.897 24.6216 167.195 24.6216 167.195C24.6216 167.195 25.9082 163.415 27.3557 160.681C28.8032 158.027 31.1353 154.73 31.1353 154.73Z" fill="#265B61"/>
<path d="M38.3729 140.979C38.3729 140.979 37.0862 144.758 35.6387 147.492C34.2716 150.146 31.8591 153.443 31.8591 153.443C31.8591 153.443 33.1458 149.664 34.5933 146.929C35.9604 144.195 38.3729 140.979 38.3729 140.979Z" fill="#265B61"/>
<path d="M45.5301 127.147C45.5301 127.147 44.2434 130.927 42.7959 133.661C41.4289 136.314 39.0164 139.612 39.0164 139.612C39.0164 139.612 40.303 135.832 41.7505 133.098C43.198 130.444 45.5301 127.147 45.5301 127.147Z" fill="#265B61"/>
<path d="M52.7674 113.396C52.7674 113.396 51.4807 117.175 50.0332 119.909C48.6662 122.563 46.2537 125.86 46.2537 125.86C46.2537 125.86 47.5403 122.081 48.9878 119.346C50.3549 116.612 52.7674 113.396 52.7674 113.396Z" fill="#265B61"/>
<path d="M59.9246 99.564C59.9246 99.564 58.638 103.344 57.1905 106.078C55.8234 108.731 53.4109 112.029 53.4109 112.029C53.4109 112.029 54.6976 108.249 56.1451 105.515C57.5926 102.861 59.9246 99.564 59.9246 99.564Z" fill="#265B61"/>
<path d="M67.1622 85.813C67.1622 85.813 65.8755 89.5926 64.428 92.3267C63.0609 94.9805 60.6484 98.2776 60.6484 98.2776C60.6484 98.2776 61.9351 94.498 63.3826 91.7638C64.7497 89.0296 67.1622 85.813 67.1622 85.813Z" fill="#265B61"/>
<path d="M74.3192 72.0615C74.3192 72.0615 73.0325 75.8411 71.585 78.5753C70.2179 81.229 67.8054 84.5261 67.8054 84.5261C67.8054 84.5261 69.0921 80.7465 70.5396 78.0124C71.9871 75.2782 74.3192 72.0615 74.3192 72.0615Z" fill="#265B61"/>
<path d="M81.5567 58.23C81.5567 58.23 80.2701 62.0096 78.8226 64.7437C77.4555 67.3975 75.043 70.6946 75.043 70.6946C75.043 70.6946 76.3296 66.915 77.7771 64.1808C79.1442 61.4466 81.5567 58.23 81.5567 58.23Z" fill="#265B61"/>
<path d="M88.7139 44.4785C88.7139 44.4785 87.4272 48.2581 85.9797 50.9923C84.6126 53.646 82.2805 56.8627 82.2805 56.8627C82.2805 56.8627 83.5672 53.0831 85.0147 50.3489C86.3818 47.6952 88.7139 44.4785 88.7139 44.4785Z" fill="#265B61"/>
<path d="M95.9512 30.647C95.9512 30.647 94.6646 34.4266 93.2171 37.1607C91.85 39.8145 89.4375 43.1116 89.4375 43.1116C89.4375 43.1116 90.7242 39.332 92.1717 36.5978C93.5388 33.9441 95.9512 30.647 95.9512 30.647Z" fill="#265B61"/>
<path d="M103.108 16.8958C103.108 16.8958 101.822 20.6753 100.374 23.4095C99.007 26.0633 96.5945 29.3603 96.5945 29.3603C96.5945 29.3603 97.8812 25.5808 99.3287 22.8466C100.776 20.1124 103.108 16.8958 103.108 16.8958Z" fill="#265B61"/>
<path d="M110.346 3.06396C110.346 3.06396 109.059 6.84355 107.612 9.57772C106.245 12.2315 103.832 15.5285 103.832 15.5285C103.832 15.5285 105.119 11.749 106.566 9.0148C107.933 6.36105 110.346 3.06396 110.346 3.06396Z" fill="#265B61"/>
<path d="M249.225 242.545C248.18 242.464 246.813 242.384 245.124 242.304C244.32 242.304 243.435 242.223 242.47 242.223C241.586 242.223 240.621 242.143 239.656 242.143C237.806 242.062 235.876 242.062 234.107 242.062C238.369 237.72 243.275 232.091 243.275 232.091C243.275 232.091 237.726 236.916 233.383 241.178C233.383 232.493 232.66 221.234 232.66 221.234C232.66 221.234 231.936 232.493 231.936 241.178C228.076 237.398 223.01 233.056 223.01 233.056C223.01 233.056 227.433 238.283 231.212 242.143C228.398 242.223 225.422 242.384 223.01 242.545C219.713 242.786 217.3 242.947 217.3 242.947C217.3 242.947 219.713 243.188 223.01 243.429C225.342 243.59 228.076 243.751 230.81 243.831C226.95 247.852 223.01 252.436 223.01 252.436C223.01 252.436 227.835 248.254 231.936 244.314C232.097 252.516 232.66 261.764 232.66 261.764C232.66 261.764 233.223 252.516 233.383 244.234C237.002 247.691 241.023 251.069 241.023 251.069C241.023 251.069 237.806 247.289 234.509 243.831C236.198 243.831 237.967 243.751 239.736 243.671C240.219 243.671 240.701 243.59 241.184 243.59C241.666 243.59 242.149 243.51 242.551 243.51C243.435 243.429 244.32 243.349 245.205 243.269C246.813 243.108 248.26 242.947 249.306 242.866C250.351 242.706 250.914 242.706 250.914 242.706C250.914 242.706 250.271 242.625 249.225 242.545Z" fill="#FFFCF2"/>
<path d="M83.2454 89.5119C81.7979 89.4315 79.7071 89.3511 77.2142 89.1903C76.0079 89.1099 74.7212 89.1099 73.3542 89.0294C71.9871 88.949 70.62 88.949 69.2529 88.8686C66.5187 88.7882 63.7042 88.7078 61.0504 88.7882C67.3229 82.8374 74.48 75.0369 74.48 75.0369C74.48 75.0369 66.2775 81.7115 59.9246 87.5819C59.9246 75.5194 58.7987 59.999 58.7987 59.999C58.7987 59.999 57.7533 75.5999 57.6729 87.5819C52.0437 82.3549 44.565 76.404 44.565 76.404C44.565 76.404 51.0787 83.6415 56.6275 88.949C52.4458 89.1099 48.1033 89.2707 44.565 89.5119C39.74 89.8336 36.2017 90.0749 36.2017 90.0749C36.2017 90.0749 39.74 90.3965 44.565 90.7182C47.9425 90.9594 52.0437 91.2007 55.9842 91.2811C50.2746 96.9103 44.565 103.183 44.565 103.183C44.565 103.183 51.6417 97.4732 57.7533 91.9244C57.9142 103.263 58.7987 116.13 58.7987 116.13C58.7987 116.13 59.6833 103.344 59.8442 91.9244C65.1517 96.669 71.1025 101.414 71.1025 101.414C71.1025 101.414 66.4383 96.1865 61.5329 91.3615C64.0258 91.3615 66.6796 91.2007 69.2529 91.1203C69.9767 91.0399 70.62 91.0399 71.3437 91.0399C72.0675 90.9594 72.7108 90.9594 73.3542 90.879C74.7212 90.7986 76.0079 90.6378 77.2142 90.5574C79.6267 90.3161 81.7175 90.1553 83.165 89.9944C84.6125 89.8336 85.4971 89.7532 85.4971 89.7532C85.4971 89.7532 84.6929 89.5924 83.2454 89.5119Z" fill="#FFFCF2"/>
<path d="M236.895 164.217C238.825 164.298 241.559 164.459 244.695 164.619C246.304 164.7 247.912 164.7 249.681 164.78C251.45 164.861 253.22 164.861 255.069 164.941C258.607 165.021 262.307 165.102 265.684 165.102C257.562 172.822 248.314 182.954 248.314 182.954C248.314 182.954 258.929 174.269 267.132 166.71C267.132 182.311 268.579 202.496 268.579 202.496C268.579 202.496 269.946 182.311 270.027 166.71C277.345 173.465 287.075 181.185 287.075 181.185C287.075 181.185 278.712 171.857 271.394 164.941C276.782 164.78 282.411 164.539 287.075 164.217C293.348 163.815 297.851 163.494 297.851 163.494C297.851 163.494 293.348 163.091 287.075 162.609C282.652 162.287 277.425 161.966 272.278 161.885C279.677 154.648 287.075 146.526 287.075 146.526C287.075 146.526 277.908 154.004 270.027 161.161C269.785 146.445 268.66 129.879 268.66 129.879C268.66 129.879 267.534 146.526 267.293 161.242C260.457 155.13 252.737 148.938 252.737 148.938C252.737 148.938 258.849 155.693 265.121 161.966C261.905 162.046 258.527 162.126 255.15 162.287C254.265 162.368 253.3 162.368 252.415 162.448C251.531 162.529 250.646 162.609 249.762 162.609C247.993 162.77 246.384 162.85 244.776 163.011C241.64 163.252 238.986 163.494 237.056 163.735C235.126 163.976 234 164.056 234 164.056C234 164.056 234.965 164.137 236.895 164.217Z" fill="#FFFCF2"/>
<path d="M77.8574 28.1541C77.8574 28.8778 82.0391 29.5212 87.427 29.6016C87.5074 35.9545 88.1508 40.7795 88.8745 40.7795C89.5983 40.7795 90.1612 35.8741 90.322 29.5212C95.3078 29.4407 99.1678 28.7974 99.1678 28.1541C99.1678 27.4303 95.3078 26.8674 90.322 26.7066C90.2416 19.7907 89.6787 14.4028 88.8745 14.4028C88.1508 14.4028 87.5074 19.8712 87.427 26.7066C82.0391 26.787 77.8574 27.3499 77.8574 28.1541Z" fill="#B3C8D3"/>
<path d="M92.7346 108.892C92.7346 109.294 95.2275 109.696 98.4442 109.777C98.5246 113.556 98.8463 116.451 99.2484 116.451C99.6505 116.451 100.053 113.556 100.053 109.777C103.028 109.696 105.36 109.375 105.36 108.973C105.36 108.571 103.108 108.169 100.053 108.169C100.053 104.067 99.6505 100.851 99.168 100.851C98.6855 100.851 98.3638 104.067 98.2834 108.169C95.2275 108.088 92.7346 108.49 92.7346 108.892Z" fill="#B3C8D3"/>
<path d="M179 84.9211C179 85.3231 181.493 85.7252 184.71 85.8056C184.79 89.5852 185.112 92.4802 185.514 92.4802C185.916 92.4802 186.318 89.5852 186.318 85.8056C189.293 85.7252 191.625 85.4036 191.625 85.0015C191.625 84.5994 189.374 84.1973 186.318 84.1973C186.318 80.0961 185.916 76.8794 185.433 76.8794C184.951 76.8794 184.629 80.0961 184.549 84.1973C181.493 84.1169 179 84.519 179 84.9211Z" fill="#B3C8D3"/>
<path d="M41.4287 246.727C41.4287 247.129 43.9216 247.531 47.1383 247.611C47.2187 251.391 47.5404 254.286 47.9425 254.286C48.3445 254.286 48.7466 251.391 48.7466 247.611C51.722 247.531 54.0541 247.209 54.0541 246.807C54.0541 246.405 51.8025 246.003 48.7466 246.003C48.7466 241.902 48.3445 238.685 47.862 238.685C47.3795 238.685 47.0579 241.902 46.9775 246.003C43.9216 245.923 41.4287 246.244 41.4287 246.727Z" fill="#B3C8D3"/>
<path d="M140.261 34.7482C140.261 34.7482 137.446 26.3849 137.446 20.1124C137.446 13.7595 140.261 5.47656 140.261 5.47656C140.261 5.47656 143.075 13.8399 143.075 20.1124C142.995 26.3849 140.261 34.7482 140.261 34.7482Z" fill="#B3C8D3"/>
<path d="M140.261 59.1948C140.261 59.1948 137.446 52.9223 137.446 48.1777C137.446 43.4331 140.261 37.1606 140.261 37.1606C140.261 37.1606 143.075 43.4331 143.075 48.1777C142.995 52.9223 140.261 59.1948 140.261 59.1948Z" fill="#B3C8D3"/>
<path d="M127.716 48.5798C127.716 48.5798 129.405 49.8665 131.576 51.7965C132.139 52.279 132.782 52.7615 133.265 53.4048C133.506 53.7265 133.827 54.0482 134.069 54.2894L134.471 54.7719L135.195 55.6565C137.125 58.1494 139.296 61.1248 141.145 63.7786C138.17 62.7332 134.632 61.4465 131.737 60.2403L130.691 59.8382L130.048 59.5165C129.646 59.3557 129.324 59.1144 128.922 58.9536C128.198 58.6319 127.555 58.1494 126.912 57.7473C124.419 56.139 122.73 54.9328 122.73 54.9328C122.73 54.9328 124.821 55.3348 127.635 56.0586C128.359 56.2194 129.083 56.4607 129.807 56.6215C130.209 56.7019 130.611 56.7823 131.013 56.8628C131.174 56.8628 131.415 56.9432 131.576 56.9432C131.656 56.9432 131.656 56.9432 131.656 56.9432C131.897 56.8628 131.656 56.6215 131.656 56.6215C131.656 56.6215 131.978 56.8628 131.978 56.5411V56.4607C131.897 56.3803 131.817 56.139 131.737 55.9782C131.576 55.5761 131.335 55.2544 131.174 54.9328C130.852 54.209 130.37 53.5657 130.048 53.0028C128.681 50.5098 127.716 48.5798 127.716 48.5798Z" fill="#B3C8D3"/>
<path d="M119.996 53.5657C119.996 53.5657 119.352 53.3245 118.227 52.842C117.101 52.3595 115.573 51.7161 113.884 50.6707C112.195 49.7057 110.265 48.3386 108.657 46.4891C107.853 45.5241 107.049 44.4786 106.566 43.192C106.486 42.8703 106.325 42.4682 106.244 42.1466C106.244 41.7445 106.164 41.3424 106.164 40.9403C106.164 40.1361 106.486 39.1711 107.049 38.4474C107.612 37.7236 108.416 37.2411 109.22 36.9999C110.024 36.7586 110.748 36.6782 111.472 36.6782C112.839 36.7586 114.125 37.1607 115.251 37.5628C117.503 38.5278 119.352 39.8949 120.8 41.262C122.247 42.5486 123.373 43.8353 124.177 44.7199C124.901 45.6849 125.384 46.1674 125.384 46.1674C125.384 46.1674 124.821 45.7653 123.856 45.122C122.891 44.4786 121.443 43.5941 119.835 42.7095C118.146 41.8249 116.216 40.9403 114.286 40.4578C113.321 40.2166 112.356 40.0557 111.552 40.1361C110.748 40.1361 110.185 40.4578 110.104 40.6186C110.024 40.7795 109.783 41.262 110.024 42.0661C110.185 42.8703 110.667 43.7549 111.15 44.5591C112.195 46.2478 113.643 47.8561 115.01 49.1428C116.377 50.4295 117.583 51.5553 118.548 52.2791C119.433 53.0832 119.996 53.5657 119.996 53.5657Z" fill="#B3C8D3"/>
<path d="M151.68 47.6953C151.68 47.6953 151.439 48.1778 151.117 48.982C150.715 49.7861 150.232 50.912 149.669 52.2791C149.106 53.5657 148.544 55.0936 147.9 56.6216L147.82 56.7824C147.82 56.7824 147.82 56.7824 147.82 56.8628V56.9432V57.0236L147.9 57.1041C147.981 57.1041 147.981 57.0236 147.981 57.0236L147.9 57.1041V57.1845C147.9 57.1845 147.9 57.1845 147.981 57.1845H148.061C148.061 57.1845 148.222 57.1845 148.302 57.1041C149.106 56.8628 149.911 56.702 150.715 56.5411C151.519 56.3803 152.243 56.1391 152.886 55.8978C155.62 55.0936 157.711 54.6111 157.711 54.6111C157.711 54.6111 156.022 55.8978 153.61 57.5866C152.966 57.9886 152.323 58.4711 151.599 58.8732C150.876 59.2753 150.152 59.597 149.348 59.9991C149.267 60.0795 149.187 60.0795 149.026 60.1599L148.463 60.4011L147.337 60.8836C146.533 61.2053 145.809 61.527 145.005 61.8486C143.477 62.492 141.869 63.0549 140.341 63.6178C141.065 62.2507 141.869 60.7228 142.593 59.1949C142.995 58.4711 143.397 57.7474 143.799 57.0236C143.96 56.702 144.201 56.2999 144.362 55.9782L144.684 55.4957L144.844 55.2545L144.925 55.0936C145.89 53.6461 146.935 52.3595 147.9 51.2336C148.865 50.1078 149.75 49.2232 150.393 48.5799C151.278 48.017 151.68 47.6953 151.68 47.6953Z" fill="#B3C8D3"/>
<path d="M160.606 53.0029C160.606 53.0029 161.169 52.5204 162.054 51.7162C162.938 50.912 164.144 49.7862 165.351 48.3387C166.557 46.8912 167.844 45.2025 168.648 43.3529C169.05 42.4683 169.291 41.5033 169.291 40.6991C169.291 39.895 169.13 39.332 168.809 39.0104C168.487 38.6887 168.004 38.367 167.2 38.2866C166.396 38.2062 165.431 38.2866 164.466 38.5279C162.536 39.0104 160.606 39.9754 159.078 41.0208C157.47 41.9858 156.183 43.0312 155.218 43.755C154.334 44.4787 153.771 44.9612 153.771 44.9612C153.771 44.9612 154.173 44.3983 154.816 43.3529C155.54 42.3879 156.505 41.0208 157.952 39.5733C159.4 38.1258 161.169 36.5979 163.501 35.6329C164.627 35.1504 165.994 34.7483 167.442 34.7483C168.889 34.7483 170.578 35.2308 171.704 36.5175C172.83 37.8041 173.151 39.5733 172.91 41.0208C172.669 42.4683 172.106 43.6745 171.462 44.8004C170.095 46.8912 168.326 48.4995 166.637 49.6254C165.029 50.8316 163.501 51.6358 162.456 52.1183C161.25 52.7616 160.606 53.0029 160.606 53.0029Z" fill="#B3C8D3"/>
<path d="M121.041 82.1943C118.87 116.774 107.692 129.962 107.692 129.962L171.543 128.032C171.543 128.032 161.008 114.441 159.078 84.2852L121.041 82.1943Z" fill="#FF606F"/>
<path d="M232.177 179.981C234.67 217.375 195.909 250.426 145.488 253.803C95.0666 257.181 52.2045 229.678 49.6311 192.285C47.1382 154.891 85.8991 121.84 136.32 118.462C186.742 115.085 229.684 142.587 232.177 179.981Z" fill="#FF606F"/>
<path d="M190.521 149.825C156.103 148.297 125.544 172.744 117.342 198.557C115.814 203.382 115.01 208.207 115.171 212.952C115.734 236.594 143.96 262.649 193.175 232.895C209.58 223.004 219.31 211.022 223.572 199.362C232.659 174.593 217.541 151.031 190.521 149.825Z" fill="#C24751"/>
<path d="M118.87 99.6446L124.177 96.9104L128.761 101.172L137.366 95.9454L146.453 101.172L154.012 97.6341L160.606 98.4383L159.078 85.1696L121.282 81.3096L118.87 99.6446Z" fill="#2D3962"/>
<path d="M122.489 71.2576L119.192 95.7847L124.338 89.2709L128.922 99.6447L137.848 86.9388L146.453 99.7251L153.047 90.4772L160.847 97.7951L157.47 70.6143L122.489 71.2576Z" fill="#A49D9E"/>
<path d="M126.751 75.3589L128.279 89.0297L137.527 78.0126L126.751 75.3589Z" fill="#FFFCF2"/>
<path d="M122.489 71.2576C122.489 71.2576 136.642 61.5272 157.47 70.6142C157.47 70.6142 142.271 78.5755 122.489 71.2576Z" fill="#FFFCF2"/>
<path d="M224.376 177.809C223.733 177.89 222.929 177.086 222.125 175.638C221.723 174.914 221.079 174.03 220.597 173.065C220.356 172.582 220.034 172.019 219.712 171.456C219.391 170.894 218.989 170.331 218.667 169.687C215.772 164.782 211.349 158.509 204.996 152.8C204.594 152.398 204.192 152.076 203.87 151.674C203.468 151.352 203.066 151.031 202.664 150.709C201.86 150.066 201.056 149.342 200.332 148.779C198.724 147.573 197.196 146.366 195.587 145.401C194.783 144.919 194.059 144.356 193.336 143.874C192.612 143.391 191.808 142.989 191.084 142.506C190.762 142.265 190.36 142.104 190.039 141.863C189.717 141.702 189.315 141.461 188.993 141.3C188.35 140.898 187.626 140.576 187.063 140.174C185.776 139.451 184.651 138.888 183.605 138.325C182.56 137.681 181.675 137.279 180.951 136.797C179.504 135.912 178.7 135.108 178.861 134.465C179.021 133.821 179.986 133.419 181.836 133.339C182.721 133.259 183.846 133.259 185.133 133.419C186.42 133.58 187.867 133.741 189.395 134.143C190.199 134.384 191.004 134.545 191.808 134.786C192.21 134.947 192.692 135.028 193.094 135.189C193.496 135.349 193.979 135.51 194.381 135.671C195.266 135.993 196.15 136.395 197.115 136.797C198.08 137.199 198.965 137.681 199.93 138.164C201.86 139.129 203.709 140.335 205.72 141.622C206.685 142.265 207.569 143.069 208.534 143.793C209.017 144.195 209.499 144.517 209.982 144.919C210.464 145.321 210.866 145.723 211.349 146.206C218.747 152.88 223.17 161.163 224.859 167.436C225.1 168.24 225.341 168.964 225.422 169.687C225.502 170.411 225.583 171.135 225.663 171.778C225.744 173.065 225.904 174.11 225.824 175.075C225.422 176.684 225.02 177.729 224.376 177.809Z" fill="#FFFCF2"/>
<path d="M225.1 183.68C224.055 183.76 223.17 182.795 223.09 181.589C223.009 180.383 223.653 179.257 224.698 179.096C225.663 178.935 226.628 179.9 226.709 181.187C226.789 182.554 226.065 183.68 225.1 183.68Z" fill="#FFFCF2"/>
<path d="M236.562 109.985L236.831 105.688L225.552 103.056L227.808 18.1392L203.423 30.6538V33.4468L212.339 34.1987L214.272 102.143L203.262 106.44V109.609L236.562 109.985ZM219.482 92.3677C218.945 85.7791 218.999 81.3211 219.644 78.9937C220.181 83.7918 220.127 88.2498 219.482 92.3677ZM222.383 85.5464L222.007 84.4185C221.506 70.203 221.38 59.5682 221.631 52.5142C222.347 56.2381 222.741 62.576 222.812 71.5278V79.3159L222.383 85.5464ZM218.086 60.356V52.5679C218.158 43.616 218.551 37.2782 219.268 33.5542C219.518 40.6082 219.393 51.243 218.892 65.4585L218.516 66.5864L218.086 60.356ZM248.11 50.9028C251.297 47.7518 255.29 45.3169 260.088 43.5981C275.664 38.2987 286.012 44.9767 291.133 63.6323C296.54 94.4624 288.394 110.576 266.694 111.972C256.955 112.438 250.509 109.681 247.358 103.701L245.854 111.328L241.128 110.952L241.772 92.314L252.192 90.8101C254.233 104.238 259.139 108.696 266.909 104.184C275.825 98.3475 277.92 85.0093 273.193 64.1694C268.538 51.422 261.073 48.3784 250.796 55.0386C248.146 57.2228 246.642 61.2511 246.284 67.1235L239.57 69.1108L241.45 18.5151L288.716 18.0317L290.22 40.3755L287.051 41.02L281.035 26.8403L251.279 26.0347L248.11 50.9028ZM281.411 85.2778C281.912 81.0884 280.838 75.4487 278.188 68.3589C280.588 77.6688 280.409 87.0861 277.651 96.6108C279.657 93.2091 280.91 89.4315 281.411 85.2778ZM281.626 93.9253L280.605 95.3218C279.603 98.1864 277.759 101.284 275.073 104.614C278.976 102.179 281.16 98.616 281.626 93.9253ZM281.089 66.7476L277.92 62.397C282.432 69.9523 284.222 77.8657 283.291 86.1372C285.475 79.5487 284.741 73.0854 281.089 66.7476Z" fill="#FFFEFA"/>
</g>
</svg>
